<?xml version="1.0" encoding="utf-8" standalone="no"?>
<!DOCTYPE svg PUBLIC "-//W3C//DTD SVG 1.1//EN"
  "http://www.w3.org/Graphics/SVG/1.1/DTD/svg11.dtd">
<svg xmlns:xlink="http://www.w3.org/1999/xlink" width="367.5pt" height="165pt" viewBox="0 0 367.5 165" xmlns="http://www.w3.org/2000/svg" version="1.1">
 <metadata>
  <rdf:RDF xmlns:dc="http://purl.org/dc/elements/1.1/" xmlns:cc="http://creativecommons.org/ns#" xmlns:rdf="http://www.w3.org/1999/02/22-rdf-syntax-ns#">
   <cc:Work>
    <dc:type rdf:resource="http://purl.org/dc/dcmitype/StillImage"/>
    <dc:date>2026-05-13T17:16:46.986659</dc:date>
    <dc:format>image/svg+xml</dc:format>
    <dc:creator>
     <cc:Agent>
      <dc:title>Matplotlib v3.9.4, https://matplotlib.org/</dc:title>
     </cc:Agent>
    </dc:creator>
   </cc:Work>
  </rdf:RDF>
 </metadata>
 <defs>
  <style type="text/css">*{stroke-linejoin: round; stroke-linecap: butt}</style>
 </defs>
 <g id="figure_1">
  <g id="patch_1">
   <path d="M 0 165 
L 367.5 165 
L 367.5 0 
L 0 0 
z
" style="fill: #ffffff"/>
  </g>
  <g id="axes_1">
   <g id="matplotlib.axis_1"/>
   <g id="matplotlib.axis_2"/>
   <g id="text_1">
    <text style="font: italic 10px 'Arial'; text-anchor: start" x="36.75" y="16.944334" transform="rotate(-0 36.75 16.944334)">Example video 1: accuracy </text>
   </g>
   <g id="text_2">
    <text style="font: italic 700 10px 'Arial'; text-anchor: start" x="158.671875" y="16.992771" transform="rotate(-0 158.671875 16.992771)">93.9%</text>
   </g>
  </g>
  <g id="axes_2">
   <g id="patch_2">
    <path d="M 36.75 41.816418 
L 37.7182 41.816418 
L 37.7182 24.236625 
L 36.75 24.236625 
z
" clip-path="url(#pfb23818f64)" style="fill: #f49f7b"/>
   </g>
   <g id="patch_3">
    <path d="M 37.7182 41.816418 
L 41.773249 41.816418 
L 41.773249 24.236625 
L 37.7182 24.236625 
z
" clip-path="url(#pfb23818f64)" style="fill: #59595c"/>
   </g>
   <g id="patch_4">
    <path d="M 41.773249 41.816418 
L 42.285825 41.816418 
L 42.285825 24.236625 
L 41.773249 24.236625 
z
" clip-path="url(#pfb23818f64)" style="fill: #f49f7b"/>
   </g>
   <g id="patch_5">
    <path d="M 42.285825 41.816418 
L 48.055157 41.816418 
L 48.055157 24.236625 
L 42.285825 24.236625 
z
" clip-path="url(#pfb23818f64)" style="fill: #59595c"/>
   </g>
   <g id="patch_6">
    <path d="M 48.055157 41.816418 
L 48.653163 41.816418 
L 48.653163 24.236625 
L 48.055157 24.236625 
z
" clip-path="url(#pfb23818f64)" style="fill: #f49f7b"/>
   </g>
   <g id="patch_7">
    <path d="M 48.653163 41.816418 
L 92.683476 41.816418 
L 92.683476 24.236625 
L 48.653163 24.236625 
z
" clip-path="url(#pfb23818f64)" style="fill: #59595c"/>
   </g>
   <g id="patch_8">
    <path d="M 92.683476 41.816418 
L 93.366911 41.816418 
L 93.366911 24.236625 
L 92.683476 24.236625 
z
" clip-path="url(#pfb23818f64)" style="fill: #f49f7b"/>
   </g>
   <g id="patch_9">
    <path d="M 93.366911 41.816418 
L 101.021385 41.816418 
L 101.021385 24.236625 
L 93.366911 24.236625 
z
" clip-path="url(#pfb23818f64)" style="fill: #59595c"/>
   </g>
   <g id="patch_10">
    <path d="M 101.021385 41.816418 
L 101.448532 41.816418 
L 101.448532 24.236625 
L 101.021385 24.236625 
z
" clip-path="url(#pfb23818f64)" style="fill: #f49f7b"/>
   </g>
   <g id="patch_11">
    <path d="M 101.448532 41.816418 
L 108.026596 41.816418 
L 108.026596 24.236625 
L 101.448532 24.236625 
z
" clip-path="url(#pfb23818f64)" style="fill: #59595c"/>
   </g>
   <g id="patch_12">
    <path d="M 108.026596 41.816418 
L 108.453743 41.816418 
L 108.453743 24.236625 
L 108.026596 24.236625 
z
" clip-path="url(#pfb23818f64)" style="fill: #f49f7b"/>
   </g>
   <g id="patch_13">
    <path d="M 108.453743 41.816418 
L 122.504031 41.816418 
L 122.504031 24.236625 
L 108.453743 24.236625 
z
" clip-path="url(#pfb23818f64)" style="fill: #59595c"/>
   </g>
   <g id="patch_14">
    <path d="M 122.504031 41.816418 
L 122.976741 41.816418 
L 122.976741 24.236625 
L 122.504031 24.236625 
z
" clip-path="url(#pfb23818f64)" style="fill: #f49f7b"/>
   </g>
   <g id="patch_15">
    <path d="M 122.976741 41.816418 
L 124.941617 41.816418 
L 124.941617 24.236625 
L 122.976741 24.236625 
z
" clip-path="url(#pfb23818f64)" style="fill: #59595c"/>
   </g>
   <g id="patch_16">
    <path d="M 124.941617 41.816418 
L 126.735634 41.816418 
L 126.735634 24.236625 
L 124.941617 24.236625 
z
" clip-path="url(#pfb23818f64)" style="fill: #f49f7b"/>
   </g>
   <g id="patch_17">
    <path d="M 126.735634 41.816418 
L 129.509242 41.816418 
L 129.509242 24.236625 
L 126.735634 24.236625 
z
" clip-path="url(#pfb23818f64)" style="fill: #59595c"/>
   </g>
   <g id="patch_18">
    <path d="M 129.509242 41.816418 
L 131.69054 41.816418 
L 131.69054 24.236625 
L 129.509242 24.236625 
z
" clip-path="url(#pfb23818f64)" style="fill: #f49f7b"/>
   </g>
   <g id="patch_19">
    <path d="M 131.69054 41.816418 
L 133.866142 41.816418 
L 133.866142 24.236625 
L 131.69054 24.236625 
z
" clip-path="url(#pfb23818f64)" style="fill: #59595c"/>
   </g>
   <g id="patch_20">
    <path d="M 133.866142 41.816418 
L 134.082563 41.816418 
L 134.082563 24.236625 
L 133.866142 24.236625 
z
" clip-path="url(#pfb23818f64)" style="fill: #f49f7b"/>
   </g>
   <g id="patch_21">
    <path d="M 134.082563 41.816418 
L 139.686731 41.816418 
L 139.686731 24.236625 
L 134.082563 24.236625 
z
" clip-path="url(#pfb23818f64)" style="fill: #59595c"/>
   </g>
   <g id="patch_22">
    <path d="M 139.686731 41.816418 
L 139.85759 41.816418 
L 139.85759 24.236625 
L 139.686731 24.236625 
z
" clip-path="url(#pfb23818f64)" style="fill: #f49f7b"/>
   </g>
   <g id="patch_23">
    <path d="M 139.85759 41.816418 
L 140.797314 41.816418 
L 140.797314 24.236625 
L 139.85759 24.236625 
z
" clip-path="url(#pfb23818f64)" style="fill: #59595c"/>
   </g>
   <g id="patch_24">
    <path d="M 140.797314 41.816418 
L 142.460339 41.816418 
L 142.460339 24.236625 
L 140.797314 24.236625 
z
" clip-path="url(#pfb23818f64)" style="fill: #f49f7b"/>
   </g>
   <g id="patch_25">
    <path d="M 142.460339 41.816418 
L 146.475521 41.816418 
L 146.475521 24.236625 
L 142.460339 24.236625 
z
" clip-path="url(#pfb23818f64)" style="fill: #59595c"/>
   </g>
   <g id="patch_26">
    <path d="M 146.475521 41.816418 
L 146.691942 41.816418 
L 146.691942 24.236625 
L 146.475521 24.236625 
z
" clip-path="url(#pfb23818f64)" style="fill: #f49f7b"/>
   </g>
   <g id="patch_27">
    <path d="M 146.691942 41.816418 
L 153.053585 41.816418 
L 153.053585 24.236625 
L 146.691942 24.236625 
z
" clip-path="url(#pfb23818f64)" style="fill: #59595c"/>
   </g>
   <g id="patch_28">
    <path d="M 153.053585 41.816418 
L 154.335026 41.816418 
L 154.335026 24.236625 
L 153.053585 24.236625 
z
" clip-path="url(#pfb23818f64)" style="fill: #f49f7b"/>
   </g>
   <g id="patch_29">
    <path d="M 154.335026 41.816418 
L 166.511563 41.816418 
L 166.511563 24.236625 
L 154.335026 24.236625 
z
" clip-path="url(#pfb23818f64)" style="fill: #59595c"/>
   </g>
   <g id="patch_30">
    <path d="M 166.511563 41.816418 
L 168.00373 41.816418 
L 168.00373 24.236625 
L 166.511563 24.236625 
z
" clip-path="url(#pfb23818f64)" style="fill: #f49f7b"/>
   </g>
   <g id="patch_31">
    <path d="M 168.00373 41.816418 
L 171.193094 41.816418 
L 171.193094 24.236625 
L 168.00373 24.236625 
z
" clip-path="url(#pfb23818f64)" style="fill: #59595c"/>
   </g>
   <g id="patch_32">
    <path d="M 171.193094 41.816418 
L 171.318391 41.816418 
L 171.318391 24.236625 
L 171.193094 24.236625 
z
" clip-path="url(#pfb23818f64)" style="fill: #f49f7b"/>
   </g>
   <g id="patch_33">
    <path d="M 171.318391 41.816418 
L 184.349222 41.816418 
L 184.349222 24.236625 
L 171.318391 24.236625 
z
" clip-path="url(#pfb23818f64)" style="fill: #59595c"/>
   </g>
   <g id="patch_34">
    <path d="M 184.349222 41.816418 
L 184.947227 41.816418 
L 184.947227 24.236625 
L 184.349222 24.236625 
z
" clip-path="url(#pfb23818f64)" style="fill: #f49f7b"/>
   </g>
   <g id="patch_35">
    <path d="M 184.947227 41.816418 
L 194.093869 41.816418 
L 194.093869 24.236625 
L 184.947227 24.236625 
z
" clip-path="url(#pfb23818f64)" style="fill: #59595c"/>
   </g>
   <g id="patch_36">
    <path d="M 194.093869 41.816418 
L 194.737437 41.816418 
L 194.737437 24.236625 
L 194.093869 24.236625 
z
" clip-path="url(#pfb23818f64)" style="fill: #91d1bc"/>
   </g>
   <g id="patch_37">
    <path d="M 194.737437 41.816418 
L 198.120441 41.816418 
L 198.120441 24.236625 
L 194.737437 24.236625 
z
" clip-path="url(#pfb23818f64)" style="fill: #59595c"/>
   </g>
   <g id="patch_38">
    <path d="M 198.120441 41.816418 
L 200.683323 41.816418 
L 200.683323 24.236625 
L 198.120441 24.236625 
z
" clip-path="url(#pfb23818f64)" style="fill: #f49f7b"/>
   </g>
   <g id="patch_39">
    <path d="M 200.683323 41.816418 
L 202.56277 41.816418 
L 202.56277 24.236625 
L 200.683323 24.236625 
z
" clip-path="url(#pfb23818f64)" style="fill: #59595c"/>
   </g>
   <g id="patch_40">
    <path d="M 202.56277 41.816418 
L 202.819058 41.816418 
L 202.819058 24.236625 
L 202.56277 24.236625 
z
" clip-path="url(#pfb23818f64)" style="fill: #f49f7b"/>
   </g>
   <g id="patch_41">
    <path d="M 202.819058 41.816418 
L 214.095739 41.816418 
L 214.095739 24.236625 
L 202.819058 24.236625 
z
" clip-path="url(#pfb23818f64)" style="fill: #59595c"/>
   </g>
   <g id="patch_42">
    <path d="M 214.095739 41.816418 
L 215.035462 41.816418 
L 215.035462 24.236625 
L 214.095739 24.236625 
z
" clip-path="url(#pfb23818f64)" style="fill: #f49f7b"/>
   </g>
   <g id="patch_43">
    <path d="M 215.035462 41.816418 
L 216.914909 41.816418 
L 216.914909 24.236625 
L 215.035462 24.236625 
z
" clip-path="url(#pfb23818f64)" style="fill: #59595c"/>
   </g>
   <g id="patch_44">
    <path d="M 216.914909 41.816418 
L 220.024539 41.816418 
L 220.024539 24.236625 
L 216.914909 24.236625 
z
" clip-path="url(#pfb23818f64)" style="fill: #f49f7b"/>
   </g>
   <g id="patch_45">
    <path d="M 220.024539 41.816418 
L 223.549926 41.816418 
L 223.549926 24.236625 
L 220.024539 24.236625 
z
" clip-path="url(#pfb23818f64)" style="fill: #59595c"/>
   </g>
   <g id="patch_46">
    <path d="M 223.549926 41.816418 
L 224.7915 41.816418 
L 224.7915 24.236625 
L 223.549926 24.236625 
z
" clip-path="url(#pfb23818f64)" style="fill: #f49f7b"/>
   </g>
   <g id="patch_47">
    <path d="M 224.7915 41.816418 
L 225.269904 41.816418 
L 225.269904 24.236625 
L 224.7915 24.236625 
z
" clip-path="url(#pfb23818f64)" style="fill: #59595c"/>
   </g>
   <g id="patch_48">
    <path d="M 225.269904 41.816418 
L 226.465916 41.816418 
L 226.465916 24.236625 
L 225.269904 24.236625 
z
" clip-path="url(#pfb23818f64)" style="fill: #f49f7b"/>
   </g>
   <g id="patch_49">
    <path d="M 226.465916 41.816418 
L 227.838481 41.816418 
L 227.838481 24.236625 
L 226.465916 24.236625 
z
" clip-path="url(#pfb23818f64)" style="fill: #59595c"/>
   </g>
   <g id="patch_50">
    <path d="M 227.838481 41.816418 
L 230.105208 41.816418 
L 230.105208 24.236625 
L 227.838481 24.236625 
z
" clip-path="url(#pfb23818f64)" style="fill: #f49f7b"/>
   </g>
   <g id="patch_51">
    <path d="M 230.105208 41.816418 
L 230.617785 41.816418 
L 230.617785 24.236625 
L 230.105208 24.236625 
z
" clip-path="url(#pfb23818f64)" style="fill: #59595c"/>
   </g>
   <g id="patch_52">
    <path d="M 230.617785 41.816418 
L 231.147447 41.816418 
L 231.147447 24.236625 
L 230.617785 24.236625 
z
" clip-path="url(#pfb23818f64)" style="fill: #f49f7b"/>
   </g>
   <g id="patch_53">
    <path d="M 231.147447 41.816418 
L 231.574594 41.816418 
L 231.574594 24.236625 
L 231.147447 24.236625 
z
" clip-path="url(#pfb23818f64)" style="fill: #59595c"/>
   </g>
   <g id="patch_54">
    <path d="M 231.574594 41.816418 
L 232.428888 41.816418 
L 232.428888 24.236625 
L 231.574594 24.236625 
z
" clip-path="url(#pfb23818f64)" style="fill: #f49f7b"/>
   </g>
   <g id="patch_55">
    <path d="M 232.428888 41.816418 
L 233.112323 41.816418 
L 233.112323 24.236625 
L 232.428888 24.236625 
z
" clip-path="url(#pfb23818f64)" style="fill: #59595c"/>
   </g>
   <g id="patch_56">
    <path d="M 233.112323 41.816418 
L 233.493908 41.816418 
L 233.493908 24.236625 
L 233.112323 24.236625 
z
" clip-path="url(#pfb23818f64)" style="fill: #f49f7b"/>
   </g>
   <g id="patch_57">
    <path d="M 233.493908 41.816418 
L 234.262772 41.816418 
L 234.262772 24.236625 
L 233.493908 24.236625 
z
" clip-path="url(#pfb23818f64)" style="fill: #59595c"/>
   </g>
   <g id="patch_58">
    <path d="M 234.262772 41.816418 
L 235.077199 41.816418 
L 235.077199 24.236625 
L 234.262772 24.236625 
z
" clip-path="url(#pfb23818f64)" style="fill: #f49f7b"/>
   </g>
   <g id="patch_59">
    <path d="M 235.077199 41.816418 
L 235.846064 41.816418 
L 235.846064 24.236625 
L 235.077199 24.236625 
z
" clip-path="url(#pfb23818f64)" style="fill: #59595c"/>
   </g>
   <g id="patch_60">
    <path d="M 235.846064 41.816418 
L 236.871217 41.816418 
L 236.871217 24.236625 
L 235.846064 24.236625 
z
" clip-path="url(#pfb23818f64)" style="fill: #f49f7b"/>
   </g>
   <g id="patch_61">
    <path d="M 236.871217 41.816418 
L 240.761102 41.816418 
L 240.761102 24.236625 
L 236.871217 24.236625 
z
" clip-path="url(#pfb23818f64)" style="fill: #59595c"/>
   </g>
   <g id="patch_62">
    <path d="M 240.761102 41.816418 
L 241.285069 41.816418 
L 241.285069 24.236625 
L 240.761102 24.236625 
z
" clip-path="url(#pfb23818f64)" style="fill: #f49f7b"/>
   </g>
   <g id="patch_63">
    <path d="M 241.285069 41.816418 
L 241.50149 41.816418 
L 241.50149 24.236625 
L 241.285069 24.236625 
z
" clip-path="url(#pfb23818f64)" style="fill: #59595c"/>
   </g>
   <g id="patch_64">
    <path d="M 241.50149 41.816418 
L 242.099496 41.816418 
L 242.099496 24.236625 
L 241.50149 24.236625 
z
" clip-path="url(#pfb23818f64)" style="fill: #f49f7b"/>
   </g>
   <g id="patch_65">
    <path d="M 242.099496 41.816418 
L 242.355784 41.816418 
L 242.355784 24.236625 
L 242.099496 24.236625 
z
" clip-path="url(#pfb23818f64)" style="fill: #59595c"/>
   </g>
   <g id="patch_66">
    <path d="M 242.355784 41.816418 
L 244.149801 41.816418 
L 244.149801 24.236625 
L 242.355784 24.236625 
z
" clip-path="url(#pfb23818f64)" style="fill: #f49f7b"/>
   </g>
   <g id="patch_67">
    <path d="M 244.149801 41.816418 
L 246.627254 41.816418 
L 246.627254 24.236625 
L 244.149801 24.236625 
z
" clip-path="url(#pfb23818f64)" style="fill: #59595c"/>
   </g>
   <g id="patch_68">
    <path d="M 246.627254 41.816418 
L 255.341053 41.816418 
L 255.341053 24.236625 
L 246.627254 24.236625 
z
" clip-path="url(#pfb23818f64)" style="fill: #f49f7b"/>
   </g>
   <g id="patch_69">
    <path d="M 255.341053 41.816418 
L 258.843658 41.816418 
L 258.843658 24.236625 
L 255.341053 24.236625 
z
" clip-path="url(#pfb23818f64)" style="fill: #59595c"/>
   </g>
   <g id="patch_70">
    <path d="M 258.843658 41.816418 
L 259.697952 41.816418 
L 259.697952 24.236625 
L 258.843658 24.236625 
z
" clip-path="url(#pfb23818f64)" style="fill: #f49f7b"/>
   </g>
   <g id="patch_71">
    <path d="M 259.697952 41.816418 
L 265.939994 41.816418 
L 265.939994 24.236625 
L 259.697952 24.236625 
z
" clip-path="url(#pfb23818f64)" style="fill: #59595c"/>
   </g>
   <g id="patch_72">
    <path d="M 265.939994 41.816418 
L 266.879717 41.816418 
L 266.879717 24.236625 
L 265.939994 24.236625 
z
" clip-path="url(#pfb23818f64)" style="fill: #f49f7b"/>
   </g>
   <g id="patch_73">
    <path d="M 266.879717 41.816418 
L 269.869746 41.816418 
L 269.869746 24.236625 
L 266.879717 24.236625 
z
" clip-path="url(#pfb23818f64)" style="fill: #59595c"/>
   </g>
   <g id="patch_74">
    <path d="M 269.869746 41.816418 
L 271.453038 41.816418 
L 271.453038 24.236625 
L 269.869746 24.236625 
z
" clip-path="url(#pfb23818f64)" style="fill: #f49f7b"/>
   </g>
   <g id="patch_75">
    <path d="M 271.453038 41.816418 
L 272.090911 41.816418 
L 272.090911 24.236625 
L 271.453038 24.236625 
z
" clip-path="url(#pfb23818f64)" style="fill: #59595c"/>
   </g>
   <g id="patch_76">
    <path d="M 272.090911 41.816418 
L 273.201493 41.816418 
L 273.201493 24.236625 
L 272.090911 24.236625 
z
" clip-path="url(#pfb23818f64)" style="fill: #f49f7b"/>
   </g>
   <g id="patch_77">
    <path d="M 273.201493 41.816418 
L 274.141216 41.816418 
L 274.141216 24.236625 
L 273.201493 24.236625 
z
" clip-path="url(#pfb23818f64)" style="fill: #59595c"/>
   </g>
   <g id="patch_78">
    <path d="M 274.141216 41.816418 
L 274.870214 41.816418 
L 274.870214 24.236625 
L 274.141216 24.236625 
z
" clip-path="url(#pfb23818f64)" style="fill: #f49f7b"/>
   </g>
   <g id="patch_79">
    <path d="M 274.870214 41.816418 
L 281.060997 41.816418 
L 281.060997 24.236625 
L 274.870214 24.236625 
z
" clip-path="url(#pfb23818f64)" style="fill: #59595c"/>
   </g>
   <g id="patch_80">
    <path d="M 281.060997 41.816418 
L 281.789995 41.816418 
L 281.789995 24.236625 
L 281.060997 24.236625 
z
" clip-path="url(#pfb23818f64)" style="fill: #f49f7b"/>
   </g>
   <g id="patch_81">
    <path d="M 281.789995 41.816418 
L 285.930473 41.816418 
L 285.930473 24.236625 
L 281.789995 24.236625 
z
" clip-path="url(#pfb23818f64)" style="fill: #59595c"/>
   </g>
   <g id="patch_82">
    <path d="M 285.930473 41.816418 
L 286.613908 41.816418 
L 286.613908 24.236625 
L 285.930473 24.236625 
z
" clip-path="url(#pfb23818f64)" style="fill: #f49f7b"/>
   </g>
   <g id="patch_83">
    <path d="M 286.613908 41.816418 
L 291.5859 41.816418 
L 291.5859 24.236625 
L 286.613908 24.236625 
z
" clip-path="url(#pfb23818f64)" style="fill: #59595c"/>
   </g>
   <g id="patch_84">
    <path d="M 291.5859 41.816418 
L 322.477171 41.816418 
L 322.477171 24.236625 
L 291.5859 24.236625 
z
" clip-path="url(#pfb23818f64)" style="fill: #91d1bc"/>
   </g>
   <g id="patch_85">
    <path d="M 322.477171 41.816418 
L 328.4914 41.816418 
L 328.4914 24.236625 
L 322.477171 24.236625 
z
" clip-path="url(#pfb23818f64)" style="fill: #59595c"/>
   </g>
   <g id="patch_86">
    <path d="M 328.4914 41.816418 
L 329.647545 41.816418 
L 329.647545 24.236625 
L 328.4914 24.236625 
z
" clip-path="url(#pfb23818f64)" style="fill: #f49f7b"/>
   </g>
   <g id="patch_87">
    <path d="M 329.647545 41.816418 
L 335.479525 41.816418 
L 335.479525 24.236625 
L 329.647545 24.236625 
z
" clip-path="url(#pfb23818f64)" style="fill: #59595c"/>
   </g>
   <g id="patch_88">
    <path d="M 335.479525 41.816418 
L 336.333819 41.816418 
L 336.333819 24.236625 
L 335.479525 24.236625 
z
" clip-path="url(#pfb23818f64)" style="fill: #f49f7b"/>
   </g>
   <g id="patch_89">
    <path d="M 336.333819 41.816418 
L 337.660822 41.816418 
L 337.660822 24.236625 
L 336.333819 24.236625 
z
" clip-path="url(#pfb23818f64)" style="fill: #59595c"/>
   </g>
   <g id="patch_90">
    <path d="M 337.660822 41.816418 
L 338.167704 41.816418 
L 338.167704 24.236625 
L 337.660822 24.236625 
z
" clip-path="url(#pfb23818f64)" style="fill: #f49f7b"/>
   </g>
   <g id="patch_91">
    <path d="M 338.167704 41.816418 
L 339.494707 41.816418 
L 339.494707 24.236625 
L 338.167704 24.236625 
z
" clip-path="url(#pfb23818f64)" style="fill: #59595c"/>
   </g>
   <g id="patch_92">
    <path d="M 339.494707 41.816418 
L 339.921854 41.816418 
L 339.921854 24.236625 
L 339.494707 24.236625 
z
" clip-path="url(#pfb23818f64)" style="fill: #f49f7b"/>
   </g>
   <g id="patch_93">
    <path d="M 339.921854 41.816418 
L 340.605289 41.816418 
L 340.605289 24.236625 
L 339.921854 24.236625 
z
" clip-path="url(#pfb23818f64)" style="fill: #59595c"/>
   </g>
   <g id="patch_94">
    <path d="M 340.605289 41.816418 
L 341.077998 41.816418 
L 341.077998 24.236625 
L 340.605289 24.236625 
z
" clip-path="url(#pfb23818f64)" style="fill: #f49f7b"/>
   </g>
   <g id="patch_95">
    <path d="M 341.077998 41.816418 
L 343.635185 41.816418 
L 343.635185 24.236625 
L 341.077998 24.236625 
z
" clip-path="url(#pfb23818f64)" style="fill: #59595c"/>
   </g>
   <g id="patch_96">
    <path d="M 343.635185 41.816418 
L 344.620471 41.816418 
L 344.620471 24.236625 
L 343.635185 24.236625 
z
" clip-path="url(#pfb23818f64)" style="fill: #f49f7b"/>
   </g>
   <g id="patch_97">
    <path d="M 344.620471 41.816418 
L 346.630909 41.816418 
L 346.630909 24.236625 
L 344.620471 24.236625 
z
" clip-path="url(#pfb23818f64)" style="fill: #59595c"/>
   </g>
   <g id="patch_98">
    <path d="M 346.630909 41.816418 
L 348.123076 41.816418 
L 348.123076 24.236625 
L 346.630909 24.236625 
z
" clip-path="url(#pfb23818f64)" style="fill: #f49f7b"/>
   </g>
   <g id="patch_99">
    <path d="M 348.123076 41.816418 
L 352.223688 41.816418 
L 352.223688 24.236625 
L 348.123076 24.236625 
z
" clip-path="url(#pfb23818f64)" style="fill: #59595c"/>
   </g>
   <g id="patch_100">
    <path d="M 352.223688 41.816418 
L 352.907123 41.816418 
L 352.907123 24.236625 
L 352.223688 24.236625 
z
" clip-path="url(#pfb23818f64)" style="fill: #f49f7b"/>
   </g>
   <g id="patch_101">
    <path d="M 352.907123 41.816418 
L 353.977838 41.816418 
L 353.977838 24.236625 
L 352.907123 24.236625 
z
" clip-path="url(#pfb23818f64)" style="fill: #59595c"/>
   </g>
   <g id="patch_102">
    <path d="M 353.977838 41.816418 
L 355.002991 41.816418 
L 355.002991 24.236625 
L 353.977838 24.236625 
z
" clip-path="url(#pfb23818f64)" style="fill: #f49f7b"/>
   </g>
   <g id="patch_103">
    <path d="M 355.002991 41.816418 
L 363.825 41.816418 
L 363.825 24.236625 
L 355.002991 24.236625 
z
" clip-path="url(#pfb23818f64)" style="fill: #59595c"/>
   </g>
   <g id="matplotlib.axis_3"/>
   <g id="matplotlib.axis_4"/>
   <g id="text_3">
    <text style="font: 9px 'Arial'; text-anchor: end" x="32.8251" y="35.353162" transform="rotate(-0 32.8251 35.353162)">labels</text>
   </g>
  </g>
  <g id="axes_3">
   <g id="patch_104">
    <path d="M 36.75 63.07698 
L 37.763762 63.07698 
L 37.763762 45.497187 
L 36.75 45.497187 
z
" clip-path="url(#p9a9fba40a4)" style="fill: #f49f7b"/>
   </g>
   <g id="patch_105">
    <path d="M 37.763762 63.07698 
L 38.458588 63.07698 
L 38.458588 45.497187 
L 37.763762 45.497187 
z
" clip-path="url(#p9a9fba40a4)" style="fill: #59595c"/>
   </g>
   <g id="patch_106">
    <path d="M 38.458588 63.07698 
L 38.754743 63.07698 
L 38.754743 45.497187 
L 38.458588 45.497187 
z
" clip-path="url(#p9a9fba40a4)" style="fill: #f49f7b"/>
   </g>
   <g id="patch_107">
    <path d="M 38.754743 63.07698 
L 41.818811 63.07698 
L 41.818811 45.497187 
L 38.754743 45.497187 
z
" clip-path="url(#p9a9fba40a4)" style="fill: #59595c"/>
   </g>
   <g id="patch_108">
    <path d="M 41.818811 63.07698 
L 42.285825 63.07698 
L 42.285825 45.497187 
L 41.818811 45.497187 
z
" clip-path="url(#p9a9fba40a4)" style="fill: #f49f7b"/>
   </g>
   <g id="patch_109">
    <path d="M 42.285825 63.07698 
L 48.049462 63.07698 
L 48.049462 45.497187 
L 42.285825 45.497187 
z
" clip-path="url(#p9a9fba40a4)" style="fill: #59595c"/>
   </g>
   <g id="patch_110">
    <path d="M 48.049462 63.07698 
L 48.715811 63.07698 
L 48.715811 45.497187 
L 48.049462 45.497187 
z
" clip-path="url(#p9a9fba40a4)" style="fill: #f49f7b"/>
   </g>
   <g id="patch_111">
    <path d="M 48.715811 63.07698 
L 90.752771 63.07698 
L 90.752771 45.497187 
L 48.715811 45.497187 
z
" clip-path="url(#p9a9fba40a4)" style="fill: #59595c"/>
   </g>
   <g id="patch_112">
    <path d="M 90.752771 63.07698 
L 91.202699 63.07698 
L 91.202699 45.497187 
L 90.752771 45.497187 
z
" clip-path="url(#p9a9fba40a4)" style="fill: #f49f7b"/>
   </g>
   <g id="patch_113">
    <path d="M 91.202699 63.07698 
L 92.768905 63.07698 
L 92.768905 45.497187 
L 91.202699 45.497187 
z
" clip-path="url(#p9a9fba40a4)" style="fill: #59595c"/>
   </g>
   <g id="patch_114">
    <path d="M 92.768905 63.07698 
L 92.882811 63.07698 
L 92.882811 45.497187 
L 92.768905 45.497187 
z
" clip-path="url(#p9a9fba40a4)" style="fill: #f49f7b"/>
   </g>
   <g id="patch_115">
    <path d="M 92.882811 63.07698 
L 93.06506 63.07698 
L 93.06506 45.497187 
L 92.882811 45.497187 
z
" clip-path="url(#p9a9fba40a4)" style="fill: #59595c"/>
   </g>
   <g id="patch_116">
    <path d="M 93.06506 63.07698 
L 93.070756 63.07698 
L 93.070756 45.497187 
L 93.06506 45.497187 
z
" clip-path="url(#p9a9fba40a4)" style="fill: #f49f7b"/>
   </g>
   <g id="patch_117">
    <path d="M 93.070756 63.07698 
L 93.076451 63.07698 
L 93.076451 45.497187 
L 93.070756 45.497187 
z
" clip-path="url(#p9a9fba40a4)" style="fill: #59595c"/>
   </g>
   <g id="patch_118">
    <path d="M 93.076451 63.07698 
L 93.116318 63.07698 
L 93.116318 45.497187 
L 93.076451 45.497187 
z
" clip-path="url(#p9a9fba40a4)" style="fill: #f49f7b"/>
   </g>
   <g id="patch_119">
    <path d="M 93.116318 63.07698 
L 93.122013 63.07698 
L 93.122013 45.497187 
L 93.116318 45.497187 
z
" clip-path="url(#p9a9fba40a4)" style="fill: #59595c"/>
   </g>
   <g id="patch_120">
    <path d="M 93.122013 63.07698 
L 93.349825 63.07698 
L 93.349825 45.497187 
L 93.122013 45.497187 
z
" clip-path="url(#p9a9fba40a4)" style="fill: #f49f7b"/>
   </g>
   <g id="patch_121">
    <path d="M 93.349825 63.07698 
L 108.123416 63.07698 
L 108.123416 45.497187 
L 93.349825 45.497187 
z
" clip-path="url(#p9a9fba40a4)" style="fill: #59595c"/>
   </g>
   <g id="patch_122">
    <path d="M 108.123416 63.07698 
L 108.191759 63.07698 
L 108.191759 45.497187 
L 108.123416 45.497187 
z
" clip-path="url(#p9a9fba40a4)" style="fill: #f49f7b"/>
   </g>
   <g id="patch_123">
    <path d="M 108.191759 63.07698 
L 122.498336 63.07698 
L 122.498336 45.497187 
L 108.191759 45.497187 
z
" clip-path="url(#p9a9fba40a4)" style="fill: #59595c"/>
   </g>
   <g id="patch_124">
    <path d="M 122.498336 63.07698 
L 122.96535 63.07698 
L 122.96535 45.497187 
L 122.498336 45.497187 
z
" clip-path="url(#p9a9fba40a4)" style="fill: #f49f7b"/>
   </g>
   <g id="patch_125">
    <path d="M 122.96535 63.07698 
L 124.924531 63.07698 
L 124.924531 45.497187 
L 122.96535 45.497187 
z
" clip-path="url(#p9a9fba40a4)" style="fill: #59595c"/>
   </g>
   <g id="patch_126">
    <path d="M 124.924531 63.07698 
L 126.724244 63.07698 
L 126.724244 45.497187 
L 124.924531 45.497187 
z
" clip-path="url(#p9a9fba40a4)" style="fill: #f49f7b"/>
   </g>
   <g id="patch_127">
    <path d="M 126.724244 63.07698 
L 129.514938 63.07698 
L 129.514938 45.497187 
L 126.724244 45.497187 
z
" clip-path="url(#p9a9fba40a4)" style="fill: #59595c"/>
   </g>
   <g id="patch_128">
    <path d="M 129.514938 63.07698 
L 131.588024 63.07698 
L 131.588024 45.497187 
L 129.514938 45.497187 
z
" clip-path="url(#p9a9fba40a4)" style="fill: #f49f7b"/>
   </g>
   <g id="patch_129">
    <path d="M 131.588024 63.07698 
L 134.435671 63.07698 
L 134.435671 45.497187 
L 131.588024 45.497187 
z
" clip-path="url(#p9a9fba40a4)" style="fill: #59595c"/>
   </g>
   <g id="patch_130">
    <path d="M 134.435671 63.07698 
L 134.80017 63.07698 
L 134.80017 45.497187 
L 134.435671 45.497187 
z
" clip-path="url(#p9a9fba40a4)" style="fill: #f49f7b"/>
   </g>
   <g id="patch_131">
    <path d="M 134.80017 63.07698 
L 134.982419 63.07698 
L 134.982419 45.497187 
L 134.80017 45.497187 
z
" clip-path="url(#p9a9fba40a4)" style="fill: #59595c"/>
   </g>
   <g id="patch_132">
    <path d="M 134.982419 63.07698 
L 135.335527 63.07698 
L 135.335527 45.497187 
L 134.982419 45.497187 
z
" clip-path="url(#p9a9fba40a4)" style="fill: #f49f7b"/>
   </g>
   <g id="patch_133">
    <path d="M 135.335527 63.07698 
L 140.8144 63.07698 
L 140.8144 45.497187 
L 135.335527 45.497187 
z
" clip-path="url(#p9a9fba40a4)" style="fill: #59595c"/>
   </g>
   <g id="patch_134">
    <path d="M 140.8144 63.07698 
L 142.454644 63.07698 
L 142.454644 45.497187 
L 140.8144 45.497187 
z
" clip-path="url(#p9a9fba40a4)" style="fill: #f49f7b"/>
   </g>
   <g id="patch_135">
    <path d="M 142.454644 63.07698 
L 146.521083 63.07698 
L 146.521083 45.497187 
L 142.454644 45.497187 
z
" clip-path="url(#p9a9fba40a4)" style="fill: #59595c"/>
   </g>
   <g id="patch_136">
    <path d="M 146.521083 63.07698 
L 146.572341 63.07698 
L 146.572341 45.497187 
L 146.521083 45.497187 
z
" clip-path="url(#p9a9fba40a4)" style="fill: #f49f7b"/>
   </g>
   <g id="patch_137">
    <path d="M 146.572341 63.07698 
L 153.025108 63.07698 
L 153.025108 45.497187 
L 146.572341 45.497187 
z
" clip-path="url(#p9a9fba40a4)" style="fill: #59595c"/>
   </g>
   <g id="patch_138">
    <path d="M 153.025108 63.07698 
L 154.198339 63.07698 
L 154.198339 45.497187 
L 153.025108 45.497187 
z
" clip-path="url(#p9a9fba40a4)" style="fill: #f49f7b"/>
   </g>
   <g id="patch_139">
    <path d="M 154.198339 63.07698 
L 166.693812 63.07698 
L 166.693812 45.497187 
L 154.198339 45.497187 
z
" clip-path="url(#p9a9fba40a4)" style="fill: #59595c"/>
   </g>
   <g id="patch_140">
    <path d="M 166.693812 63.07698 
L 166.876062 63.07698 
L 166.876062 45.497187 
L 166.693812 45.497187 
z
" clip-path="url(#p9a9fba40a4)" style="fill: #f49f7b"/>
   </g>
   <g id="patch_141">
    <path d="M 166.876062 63.07698 
L 167.42281 63.07698 
L 167.42281 45.497187 
L 166.876062 45.497187 
z
" clip-path="url(#p9a9fba40a4)" style="fill: #59595c"/>
   </g>
   <g id="patch_142">
    <path d="M 167.42281 63.07698 
L 167.969558 63.07698 
L 167.969558 45.497187 
L 167.42281 45.497187 
z
" clip-path="url(#p9a9fba40a4)" style="fill: #f49f7b"/>
   </g>
   <g id="patch_143">
    <path d="M 167.969558 63.07698 
L 194.21347 63.07698 
L 194.21347 45.497187 
L 167.969558 45.497187 
z
" clip-path="url(#p9a9fba40a4)" style="fill: #59595c"/>
   </g>
   <g id="patch_144">
    <path d="M 194.21347 63.07698 
L 195.158888 63.07698 
L 195.158888 45.497187 
L 194.21347 45.497187 
z
" clip-path="url(#p9a9fba40a4)" style="fill: #91d1bc"/>
   </g>
   <g id="patch_145">
    <path d="M 195.158888 63.07698 
L 195.210146 63.07698 
L 195.210146 45.497187 
L 195.158888 45.497187 
z
" clip-path="url(#p9a9fba40a4)" style="fill: #59595c"/>
   </g>
   <g id="patch_146">
    <path d="M 195.210146 63.07698 
L 195.215841 63.07698 
L 195.215841 45.497187 
L 195.210146 45.497187 
z
" clip-path="url(#p9a9fba40a4)" style="fill: #91d1bc"/>
   </g>
   <g id="patch_147">
    <path d="M 195.215841 63.07698 
L 195.244318 63.07698 
L 195.244318 45.497187 
L 195.215841 45.497187 
z
" clip-path="url(#p9a9fba40a4)" style="fill: #59595c"/>
   </g>
   <g id="patch_148">
    <path d="M 195.244318 63.07698 
L 195.250013 63.07698 
L 195.250013 45.497187 
L 195.244318 45.497187 
z
" clip-path="url(#p9a9fba40a4)" style="fill: #91d1bc"/>
   </g>
   <g id="patch_149">
    <path d="M 195.250013 63.07698 
L 195.295575 63.07698 
L 195.295575 45.497187 
L 195.250013 45.497187 
z
" clip-path="url(#p9a9fba40a4)" style="fill: #59595c"/>
   </g>
   <g id="patch_150">
    <path d="M 195.295575 63.07698 
L 195.301271 63.07698 
L 195.301271 45.497187 
L 195.295575 45.497187 
z
" clip-path="url(#p9a9fba40a4)" style="fill: #91d1bc"/>
   </g>
   <g id="patch_151">
    <path d="M 195.301271 63.07698 
L 195.306966 63.07698 
L 195.306966 45.497187 
L 195.301271 45.497187 
z
" clip-path="url(#p9a9fba40a4)" style="fill: #59595c"/>
   </g>
   <g id="patch_152">
    <path d="M 195.306966 63.07698 
L 195.517692 63.07698 
L 195.517692 45.497187 
L 195.306966 45.497187 
z
" clip-path="url(#p9a9fba40a4)" style="fill: #91d1bc"/>
   </g>
   <g id="patch_153">
    <path d="M 195.517692 63.07698 
L 198.177394 63.07698 
L 198.177394 45.497187 
L 195.517692 45.497187 
z
" clip-path="url(#p9a9fba40a4)" style="fill: #59595c"/>
   </g>
   <g id="patch_154">
    <path d="M 198.177394 63.07698 
L 200.666237 63.07698 
L 200.666237 45.497187 
L 198.177394 45.497187 
z
" clip-path="url(#p9a9fba40a4)" style="fill: #f49f7b"/>
   </g>
   <g id="patch_155">
    <path d="M 200.666237 63.07698 
L 202.551379 63.07698 
L 202.551379 45.497187 
L 200.666237 45.497187 
z
" clip-path="url(#p9a9fba40a4)" style="fill: #59595c"/>
   </g>
   <g id="patch_156">
    <path d="M 202.551379 63.07698 
L 202.779191 63.07698 
L 202.779191 45.497187 
L 202.551379 45.497187 
z
" clip-path="url(#p9a9fba40a4)" style="fill: #f49f7b"/>
   </g>
   <g id="patch_157">
    <path d="M 202.779191 63.07698 
L 213.896403 63.07698 
L 213.896403 45.497187 
L 202.779191 45.497187 
z
" clip-path="url(#p9a9fba40a4)" style="fill: #59595c"/>
   </g>
   <g id="patch_158">
    <path d="M 213.896403 63.07698 
L 215.058243 63.07698 
L 215.058243 45.497187 
L 213.896403 45.497187 
z
" clip-path="url(#p9a9fba40a4)" style="fill: #f49f7b"/>
   </g>
   <g id="patch_159">
    <path d="M 215.058243 63.07698 
L 216.954776 63.07698 
L 216.954776 45.497187 
L 215.058243 45.497187 
z
" clip-path="url(#p9a9fba40a4)" style="fill: #59595c"/>
   </g>
   <g id="patch_160">
    <path d="M 216.954776 63.07698 
L 220.03593 63.07698 
L 220.03593 45.497187 
L 216.954776 45.497187 
z
" clip-path="url(#p9a9fba40a4)" style="fill: #f49f7b"/>
   </g>
   <g id="patch_161">
    <path d="M 220.03593 63.07698 
L 223.555621 63.07698 
L 223.555621 45.497187 
L 220.03593 45.497187 
z
" clip-path="url(#p9a9fba40a4)" style="fill: #59595c"/>
   </g>
   <g id="patch_162">
    <path d="M 223.555621 63.07698 
L 224.780109 63.07698 
L 224.780109 45.497187 
L 223.555621 45.497187 
z
" clip-path="url(#p9a9fba40a4)" style="fill: #f49f7b"/>
   </g>
   <g id="patch_163">
    <path d="M 224.780109 63.07698 
L 225.195865 63.07698 
L 225.195865 45.497187 
L 224.780109 45.497187 
z
" clip-path="url(#p9a9fba40a4)" style="fill: #59595c"/>
   </g>
   <g id="patch_164">
    <path d="M 225.195865 63.07698 
L 226.471611 63.07698 
L 226.471611 45.497187 
L 225.195865 45.497187 
z
" clip-path="url(#p9a9fba40a4)" style="fill: #f49f7b"/>
   </g>
   <g id="patch_165">
    <path d="M 226.471611 63.07698 
L 227.747357 63.07698 
L 227.747357 45.497187 
L 226.471611 45.497187 
z
" clip-path="url(#p9a9fba40a4)" style="fill: #59595c"/>
   </g>
   <g id="patch_166">
    <path d="M 227.747357 63.07698 
L 230.258981 63.07698 
L 230.258981 45.497187 
L 227.747357 45.497187 
z
" clip-path="url(#p9a9fba40a4)" style="fill: #f49f7b"/>
   </g>
   <g id="patch_167">
    <path d="M 230.258981 63.07698 
L 230.446926 63.07698 
L 230.446926 45.497187 
L 230.258981 45.497187 
z
" clip-path="url(#p9a9fba40a4)" style="fill: #59595c"/>
   </g>
   <g id="patch_168">
    <path d="M 230.446926 63.07698 
L 231.193009 63.07698 
L 231.193009 45.497187 
L 230.446926 45.497187 
z
" clip-path="url(#p9a9fba40a4)" style="fill: #f49f7b"/>
   </g>
   <g id="patch_169">
    <path d="M 231.193009 63.07698 
L 231.546117 63.07698 
L 231.546117 45.497187 
L 231.193009 45.497187 
z
" clip-path="url(#p9a9fba40a4)" style="fill: #59595c"/>
   </g>
   <g id="patch_170">
    <path d="M 231.546117 63.07698 
L 232.400411 63.07698 
L 232.400411 45.497187 
L 231.546117 45.497187 
z
" clip-path="url(#p9a9fba40a4)" style="fill: #f49f7b"/>
   </g>
   <g id="patch_171">
    <path d="M 232.400411 63.07698 
L 233.123714 63.07698 
L 233.123714 45.497187 
L 232.400411 45.497187 
z
" clip-path="url(#p9a9fba40a4)" style="fill: #59595c"/>
   </g>
   <g id="patch_172">
    <path d="M 233.123714 63.07698 
L 233.328744 63.07698 
L 233.328744 45.497187 
L 233.123714 45.497187 
z
" clip-path="url(#p9a9fba40a4)" style="fill: #f49f7b"/>
   </g>
   <g id="patch_173">
    <path d="M 233.328744 63.07698 
L 234.126085 63.07698 
L 234.126085 45.497187 
L 233.328744 45.497187 
z
" clip-path="url(#p9a9fba40a4)" style="fill: #59595c"/>
   </g>
   <g id="patch_174">
    <path d="M 234.126085 63.07698 
L 235.139847 63.07698 
L 235.139847 45.497187 
L 234.126085 45.497187 
z
" clip-path="url(#p9a9fba40a4)" style="fill: #f49f7b"/>
   </g>
   <g id="patch_175">
    <path d="M 235.139847 63.07698 
L 235.823283 63.07698 
L 235.823283 45.497187 
L 235.139847 45.497187 
z
" clip-path="url(#p9a9fba40a4)" style="fill: #59595c"/>
   </g>
   <g id="patch_176">
    <path d="M 235.823283 63.07698 
L 236.973732 63.07698 
L 236.973732 45.497187 
L 235.823283 45.497187 
z
" clip-path="url(#p9a9fba40a4)" style="fill: #f49f7b"/>
   </g>
   <g id="patch_177">
    <path d="M 236.973732 63.07698 
L 240.647196 63.07698 
L 240.647196 45.497187 
L 236.973732 45.497187 
z
" clip-path="url(#p9a9fba40a4)" style="fill: #59595c"/>
   </g>
   <g id="patch_178">
    <path d="M 240.647196 63.07698 
L 241.416061 63.07698 
L 241.416061 45.497187 
L 240.647196 45.497187 
z
" clip-path="url(#p9a9fba40a4)" style="fill: #f49f7b"/>
   </g>
   <g id="patch_179">
    <path d="M 241.416061 63.07698 
L 241.50149 63.07698 
L 241.50149 45.497187 
L 241.416061 45.497187 
z
" clip-path="url(#p9a9fba40a4)" style="fill: #59595c"/>
   </g>
   <g id="patch_180">
    <path d="M 241.50149 63.07698 
L 244.149801 63.07698 
L 244.149801 45.497187 
L 241.50149 45.497187 
z
" clip-path="url(#p9a9fba40a4)" style="fill: #f49f7b"/>
   </g>
   <g id="patch_181">
    <path d="M 244.149801 63.07698 
L 246.519044 63.07698 
L 246.519044 45.497187 
L 244.149801 45.497187 
z
" clip-path="url(#p9a9fba40a4)" style="fill: #59595c"/>
   </g>
   <g id="patch_182">
    <path d="M 246.519044 63.07698 
L 254.720266 63.07698 
L 254.720266 45.497187 
L 246.519044 45.497187 
z
" clip-path="url(#p9a9fba40a4)" style="fill: #f49f7b"/>
   </g>
   <g id="patch_183">
    <path d="M 254.720266 63.07698 
L 258.849354 63.07698 
L 258.849354 45.497187 
L 254.720266 45.497187 
z
" clip-path="url(#p9a9fba40a4)" style="fill: #59595c"/>
   </g>
   <g id="patch_184">
    <path d="M 258.849354 63.07698 
L 259.094251 63.07698 
L 259.094251 45.497187 
L 258.849354 45.497187 
z
" clip-path="url(#p9a9fba40a4)" style="fill: #f49f7b"/>
   </g>
   <g id="patch_185">
    <path d="M 259.094251 63.07698 
L 259.185376 63.07698 
L 259.185376 45.497187 
L 259.094251 45.497187 
z
" clip-path="url(#p9a9fba40a4)" style="fill: #59595c"/>
   </g>
   <g id="patch_186">
    <path d="M 259.185376 63.07698 
L 259.737819 63.07698 
L 259.737819 45.497187 
L 259.185376 45.497187 
z
" clip-path="url(#p9a9fba40a4)" style="fill: #f49f7b"/>
   </g>
   <g id="patch_187">
    <path d="M 259.737819 63.07698 
L 265.928603 63.07698 
L 265.928603 45.497187 
L 259.737819 45.497187 
z
" clip-path="url(#p9a9fba40a4)" style="fill: #59595c"/>
   </g>
   <g id="patch_188">
    <path d="M 265.928603 63.07698 
L 266.896803 63.07698 
L 266.896803 45.497187 
L 265.928603 45.497187 
z
" clip-path="url(#p9a9fba40a4)" style="fill: #f49f7b"/>
   </g>
   <g id="patch_189">
    <path d="M 266.896803 63.07698 
L 269.846965 63.07698 
L 269.846965 45.497187 
L 266.896803 45.497187 
z
" clip-path="url(#p9a9fba40a4)" style="fill: #59595c"/>
   </g>
   <g id="patch_190">
    <path d="M 269.846965 63.07698 
L 271.487209 63.07698 
L 271.487209 45.497187 
L 269.846965 45.497187 
z
" clip-path="url(#p9a9fba40a4)" style="fill: #f49f7b"/>
   </g>
   <g id="patch_191">
    <path d="M 271.487209 63.07698 
L 272.033958 63.07698 
L 272.033958 45.497187 
L 271.487209 45.497187 
z
" clip-path="url(#p9a9fba40a4)" style="fill: #59595c"/>
   </g>
   <g id="patch_192">
    <path d="M 272.033958 63.07698 
L 272.96229 63.07698 
L 272.96229 45.497187 
L 272.033958 45.497187 
z
" clip-path="url(#p9a9fba40a4)" style="fill: #f49f7b"/>
   </g>
   <g id="patch_193">
    <path d="M 272.96229 63.07698 
L 274.551277 63.07698 
L 274.551277 45.497187 
L 272.96229 45.497187 
z
" clip-path="url(#p9a9fba40a4)" style="fill: #59595c"/>
   </g>
   <g id="patch_194">
    <path d="M 274.551277 63.07698 
L 274.767698 63.07698 
L 274.767698 45.497187 
L 274.551277 45.497187 
z
" clip-path="url(#p9a9fba40a4)" style="fill: #f49f7b"/>
   </g>
   <g id="patch_195">
    <path d="M 274.767698 63.07698 
L 281.026826 63.07698 
L 281.026826 45.497187 
L 274.767698 45.497187 
z
" clip-path="url(#p9a9fba40a4)" style="fill: #59595c"/>
   </g>
   <g id="patch_196">
    <path d="M 281.026826 63.07698 
L 281.465363 63.07698 
L 281.465363 45.497187 
L 281.026826 45.497187 
z
" clip-path="url(#p9a9fba40a4)" style="fill: #f49f7b"/>
   </g>
   <g id="patch_197">
    <path d="M 281.465363 63.07698 
L 285.919083 63.07698 
L 285.919083 45.497187 
L 281.465363 45.497187 
z
" clip-path="url(#p9a9fba40a4)" style="fill: #59595c"/>
   </g>
   <g id="patch_198">
    <path d="M 285.919083 63.07698 
L 286.579737 63.07698 
L 286.579737 45.497187 
L 285.919083 45.497187 
z
" clip-path="url(#p9a9fba40a4)" style="fill: #f49f7b"/>
   </g>
   <g id="patch_199">
    <path d="M 286.579737 63.07698 
L 296.090877 63.07698 
L 296.090877 45.497187 
L 286.579737 45.497187 
z
" clip-path="url(#p9a9fba40a4)" style="fill: #59595c"/>
   </g>
   <g id="patch_200">
    <path d="M 296.090877 63.07698 
L 296.637625 63.07698 
L 296.637625 45.497187 
L 296.090877 45.497187 
z
" clip-path="url(#p9a9fba40a4)" style="fill: #91d1bc"/>
   </g>
   <g id="patch_201">
    <path d="M 296.637625 63.07698 
L 298.266479 63.07698 
L 298.266479 45.497187 
L 296.637625 45.497187 
z
" clip-path="url(#p9a9fba40a4)" style="fill: #59595c"/>
   </g>
   <g id="patch_202">
    <path d="M 298.266479 63.07698 
L 298.277869 63.07698 
L 298.277869 45.497187 
L 298.266479 45.497187 
z
" clip-path="url(#p9a9fba40a4)" style="fill: #91d1bc"/>
   </g>
   <g id="patch_203">
    <path d="M 298.277869 63.07698 
L 298.642368 63.07698 
L 298.642368 45.497187 
L 298.277869 45.497187 
z
" clip-path="url(#p9a9fba40a4)" style="fill: #59595c"/>
   </g>
   <g id="patch_204">
    <path d="M 298.642368 63.07698 
L 299.684607 63.07698 
L 299.684607 45.497187 
L 298.642368 45.497187 
z
" clip-path="url(#p9a9fba40a4)" style="fill: #91d1bc"/>
   </g>
   <g id="patch_205">
    <path d="M 299.684607 63.07698 
L 299.713083 63.07698 
L 299.713083 45.497187 
L 299.684607 45.497187 
z
" clip-path="url(#p9a9fba40a4)" style="fill: #59595c"/>
   </g>
   <g id="patch_206">
    <path d="M 299.713083 63.07698 
L 299.718778 63.07698 
L 299.718778 45.497187 
L 299.713083 45.497187 
z
" clip-path="url(#p9a9fba40a4)" style="fill: #91d1bc"/>
   </g>
   <g id="patch_207">
    <path d="M 299.718778 63.07698 
L 299.724474 63.07698 
L 299.724474 45.497187 
L 299.718778 45.497187 
z
" clip-path="url(#p9a9fba40a4)" style="fill: #59595c"/>
   </g>
   <g id="patch_208">
    <path d="M 299.724474 63.07698 
L 299.730169 63.07698 
L 299.730169 45.497187 
L 299.724474 45.497187 
z
" clip-path="url(#p9a9fba40a4)" style="fill: #91d1bc"/>
   </g>
   <g id="patch_209">
    <path d="M 299.730169 63.07698 
L 300.100363 63.07698 
L 300.100363 45.497187 
L 299.730169 45.497187 
z
" clip-path="url(#p9a9fba40a4)" style="fill: #59595c"/>
   </g>
   <g id="patch_210">
    <path d="M 300.100363 63.07698 
L 300.464862 63.07698 
L 300.464862 45.497187 
L 300.100363 45.497187 
z
" clip-path="url(#p9a9fba40a4)" style="fill: #91d1bc"/>
   </g>
   <g id="patch_211">
    <path d="M 300.464862 63.07698 
L 300.481948 63.07698 
L 300.481948 45.497187 
L 300.464862 45.497187 
z
" clip-path="url(#p9a9fba40a4)" style="fill: #59595c"/>
   </g>
   <g id="patch_212">
    <path d="M 300.481948 63.07698 
L 300.493338 63.07698 
L 300.493338 45.497187 
L 300.481948 45.497187 
z
" clip-path="url(#p9a9fba40a4)" style="fill: #91d1bc"/>
   </g>
   <g id="patch_213">
    <path d="M 300.493338 63.07698 
L 300.499034 63.07698 
L 300.499034 45.497187 
L 300.493338 45.497187 
z
" clip-path="url(#p9a9fba40a4)" style="fill: #59595c"/>
   </g>
   <g id="patch_214">
    <path d="M 300.499034 63.07698 
L 300.504729 63.07698 
L 300.504729 45.497187 
L 300.499034 45.497187 
z
" clip-path="url(#p9a9fba40a4)" style="fill: #91d1bc"/>
   </g>
   <g id="patch_215">
    <path d="M 300.504729 63.07698 
L 300.516119 63.07698 
L 300.516119 45.497187 
L 300.504729 45.497187 
z
" clip-path="url(#p9a9fba40a4)" style="fill: #59595c"/>
   </g>
   <g id="patch_216">
    <path d="M 300.516119 63.07698 
L 300.521815 63.07698 
L 300.521815 45.497187 
L 300.516119 45.497187 
z
" clip-path="url(#p9a9fba40a4)" style="fill: #91d1bc"/>
   </g>
   <g id="patch_217">
    <path d="M 300.521815 63.07698 
L 300.647111 63.07698 
L 300.647111 45.497187 
L 300.521815 45.497187 
z
" clip-path="url(#p9a9fba40a4)" style="fill: #59595c"/>
   </g>
   <g id="patch_218">
    <path d="M 300.647111 63.07698 
L 304.793285 63.07698 
L 304.793285 45.497187 
L 300.647111 45.497187 
z
" clip-path="url(#p9a9fba40a4)" style="fill: #91d1bc"/>
   </g>
   <g id="patch_219">
    <path d="M 304.793285 63.07698 
L 304.804675 63.07698 
L 304.804675 45.497187 
L 304.793285 45.497187 
z
" clip-path="url(#p9a9fba40a4)" style="fill: #59595c"/>
   </g>
   <g id="patch_220">
    <path d="M 304.804675 63.07698 
L 304.821761 63.07698 
L 304.821761 45.497187 
L 304.804675 45.497187 
z
" clip-path="url(#p9a9fba40a4)" style="fill: #91d1bc"/>
   </g>
   <g id="patch_221">
    <path d="M 304.821761 63.07698 
L 304.827457 63.07698 
L 304.827457 45.497187 
L 304.821761 45.497187 
z
" clip-path="url(#p9a9fba40a4)" style="fill: #59595c"/>
   </g>
   <g id="patch_222">
    <path d="M 304.827457 63.07698 
L 304.833152 63.07698 
L 304.833152 45.497187 
L 304.827457 45.497187 
z
" clip-path="url(#p9a9fba40a4)" style="fill: #91d1bc"/>
   </g>
   <g id="patch_223">
    <path d="M 304.833152 63.07698 
L 304.838847 63.07698 
L 304.838847 45.497187 
L 304.833152 45.497187 
z
" clip-path="url(#p9a9fba40a4)" style="fill: #59595c"/>
   </g>
   <g id="patch_224">
    <path d="M 304.838847 63.07698 
L 322.442999 63.07698 
L 322.442999 45.497187 
L 304.838847 45.497187 
z
" clip-path="url(#p9a9fba40a4)" style="fill: #91d1bc"/>
   </g>
   <g id="patch_225">
    <path d="M 322.442999 63.07698 
L 329.078015 63.07698 
L 329.078015 45.497187 
L 322.442999 45.497187 
z
" clip-path="url(#p9a9fba40a4)" style="fill: #59595c"/>
   </g>
   <g id="patch_226">
    <path d="M 329.078015 63.07698 
L 329.442514 63.07698 
L 329.442514 45.497187 
L 329.078015 45.497187 
z
" clip-path="url(#p9a9fba40a4)" style="fill: #f49f7b"/>
   </g>
   <g id="patch_227">
    <path d="M 329.442514 63.07698 
L 335.638993 63.07698 
L 335.638993 45.497187 
L 329.442514 45.497187 
z
" clip-path="url(#p9a9fba40a4)" style="fill: #59595c"/>
   </g>
   <g id="patch_228">
    <path d="M 335.638993 63.07698 
L 335.673165 63.07698 
L 335.673165 45.497187 
L 335.638993 45.497187 
z
" clip-path="url(#p9a9fba40a4)" style="fill: #f49f7b"/>
   </g>
   <g id="patch_229">
    <path d="M 335.673165 63.07698 
L 335.8725 63.07698 
L 335.8725 45.497187 
L 335.673165 45.497187 
z
" clip-path="url(#p9a9fba40a4)" style="fill: #59595c"/>
   </g>
   <g id="patch_230">
    <path d="M 335.8725 63.07698 
L 336.3566 63.07698 
L 336.3566 45.497187 
L 335.8725 45.497187 
z
" clip-path="url(#p9a9fba40a4)" style="fill: #f49f7b"/>
   </g>
   <g id="patch_231">
    <path d="M 336.3566 63.07698 
L 337.660822 63.07698 
L 337.660822 45.497187 
L 336.3566 45.497187 
z
" clip-path="url(#p9a9fba40a4)" style="fill: #59595c"/>
   </g>
   <g id="patch_232">
    <path d="M 337.660822 63.07698 
L 338.059493 63.07698 
L 338.059493 45.497187 
L 337.660822 45.497187 
z
" clip-path="url(#p9a9fba40a4)" style="fill: #f49f7b"/>
   </g>
   <g id="patch_233">
    <path d="M 338.059493 63.07698 
L 339.64848 63.07698 
L 339.64848 45.497187 
L 338.059493 45.497187 
z
" clip-path="url(#p9a9fba40a4)" style="fill: #59595c"/>
   </g>
   <g id="patch_234">
    <path d="M 339.64848 63.07698 
L 339.85351 63.07698 
L 339.85351 45.497187 
L 339.64848 45.497187 
z
" clip-path="url(#p9a9fba40a4)" style="fill: #f49f7b"/>
   </g>
   <g id="patch_235">
    <path d="M 339.85351 63.07698 
L 340.559727 63.07698 
L 340.559727 45.497187 
L 339.85351 45.497187 
z
" clip-path="url(#p9a9fba40a4)" style="fill: #59595c"/>
   </g>
   <g id="patch_236">
    <path d="M 340.559727 63.07698 
L 341.089389 63.07698 
L 341.089389 45.497187 
L 340.559727 45.497187 
z
" clip-path="url(#p9a9fba40a4)" style="fill: #f49f7b"/>
   </g>
   <g id="patch_237">
    <path d="M 341.089389 63.07698 
L 343.635185 63.07698 
L 343.635185 45.497187 
L 341.089389 45.497187 
z
" clip-path="url(#p9a9fba40a4)" style="fill: #59595c"/>
   </g>
   <g id="patch_238">
    <path d="M 343.635185 63.07698 
L 343.657966 63.07698 
L 343.657966 45.497187 
L 343.635185 45.497187 
z
" clip-path="url(#p9a9fba40a4)" style="fill: #f49f7b"/>
   </g>
   <g id="patch_239">
    <path d="M 343.657966 63.07698 
L 343.686443 63.07698 
L 343.686443 45.497187 
L 343.657966 45.497187 
z
" clip-path="url(#p9a9fba40a4)" style="fill: #59595c"/>
   </g>
   <g id="patch_240">
    <path d="M 343.686443 63.07698 
L 344.569213 63.07698 
L 344.569213 45.497187 
L 343.686443 45.497187 
z
" clip-path="url(#p9a9fba40a4)" style="fill: #f49f7b"/>
   </g>
   <g id="patch_241">
    <path d="M 344.569213 63.07698 
L 346.6423 63.07698 
L 346.6423 45.497187 
L 344.569213 45.497187 
z
" clip-path="url(#p9a9fba40a4)" style="fill: #59595c"/>
   </g>
   <g id="patch_242">
    <path d="M 346.6423 63.07698 
L 348.031952 63.07698 
L 348.031952 45.497187 
L 346.6423 45.497187 
z
" clip-path="url(#p9a9fba40a4)" style="fill: #f49f7b"/>
   </g>
   <g id="patch_243">
    <path d="M 348.031952 63.07698 
L 352.17243 63.07698 
L 352.17243 45.497187 
L 348.031952 45.497187 
z
" clip-path="url(#p9a9fba40a4)" style="fill: #59595c"/>
   </g>
   <g id="patch_244">
    <path d="M 352.17243 63.07698 
L 352.838779 63.07698 
L 352.838779 45.497187 
L 352.17243 45.497187 
z
" clip-path="url(#p9a9fba40a4)" style="fill: #f49f7b"/>
   </g>
   <g id="patch_245">
    <path d="M 352.838779 63.07698 
L 353.91519 63.07698 
L 353.91519 45.497187 
L 352.838779 45.497187 
z
" clip-path="url(#p9a9fba40a4)" style="fill: #59595c"/>
   </g>
   <g id="patch_246">
    <path d="M 353.91519 63.07698 
L 355.139678 63.07698 
L 355.139678 45.497187 
L 353.91519 45.497187 
z
" clip-path="url(#p9a9fba40a4)" style="fill: #f49f7b"/>
   </g>
   <g id="patch_247">
    <path d="M 355.139678 63.07698 
L 360.060411 63.07698 
L 360.060411 45.497187 
L 355.139678 45.497187 
z
" clip-path="url(#p9a9fba40a4)" style="fill: #59595c"/>
   </g>
   <g id="patch_248">
    <path d="M 360.060411 63.07698 
L 360.197098 63.07698 
L 360.197098 45.497187 
L 360.060411 45.497187 
z
" clip-path="url(#p9a9fba40a4)" style="fill: #f49f7b"/>
   </g>
   <g id="patch_249">
    <path d="M 360.197098 63.07698 
L 360.242661 63.07698 
L 360.242661 45.497187 
L 360.197098 45.497187 
z
" clip-path="url(#p9a9fba40a4)" style="fill: #59595c"/>
   </g>
   <g id="patch_250">
    <path d="M 360.242661 63.07698 
L 360.42491 63.07698 
L 360.42491 45.497187 
L 360.242661 45.497187 
z
" clip-path="url(#p9a9fba40a4)" style="fill: #f49f7b"/>
   </g>
   <g id="patch_251">
    <path d="M 360.42491 63.07698 
L 362.247404 63.07698 
L 362.247404 45.497187 
L 360.42491 45.497187 
z
" clip-path="url(#p9a9fba40a4)" style="fill: #59595c"/>
   </g>
   <g id="patch_252">
    <path d="M 362.247404 63.07698 
L 362.794152 63.07698 
L 362.794152 45.497187 
L 362.247404 45.497187 
z
" clip-path="url(#p9a9fba40a4)" style="fill: #f49f7b"/>
   </g>
   <g id="patch_253">
    <path d="M 362.794152 63.07698 
L 363.825 63.07698 
L 363.825 45.497187 
L 362.794152 45.497187 
z
" clip-path="url(#p9a9fba40a4)" style="fill: #59595c"/>
   </g>
   <g id="matplotlib.axis_5"/>
   <g id="matplotlib.axis_6"/>
   <g id="text_4">
    <text style="font: 9px 'Arial'; text-anchor: end" x="32.8251" y="56.613724" transform="rotate(-0 32.8251 56.613724)">prediction</text>
   </g>
  </g>
  <g id="axes_4">
   <g id="matplotlib.axis_7"/>
   <g id="matplotlib.axis_8"/>
   <g id="text_5">
    <text style="font: 9px 'Arial'; text-anchor: start" x="36.75" y="73.199781" transform="rotate(-0 36.75 73.199781)">0</text>
   </g>
   <g id="text_6">
    <text style="font: 9px 'Arial'; text-anchor: end" x="363.825" y="73.199781" transform="rotate(-0 363.825 73.199781)">57429</text>
   </g>
  </g>
  <g id="axes_5">
   <g id="matplotlib.axis_9"/>
   <g id="matplotlib.axis_10"/>
   <g id="text_7">
    <text style="font: italic 10px 'Arial'; text-anchor: start" x="36.75" y="88.362244" transform="rotate(-0 36.75 88.362244)">Example video 2: accuracy </text>
   </g>
   <g id="text_8">
    <text style="font: italic 700 10px 'Arial'; text-anchor: start" x="158.671875" y="88.410682" transform="rotate(-0 158.671875 88.410682)">94.4%</text>
   </g>
  </g>
  <g id="axes_6">
   <g id="patch_254">
    <path d="M 36.75 113.673823 
L 40.800572 113.673823 
L 40.800572 96.09403 
L 36.75 96.09403 
z
" clip-path="url(#p0b8ea437d0)" style="fill: #59595c"/>
   </g>
   <g id="patch_255">
    <path d="M 40.800572 113.673823 
L 41.279485 113.673823 
L 41.279485 96.09403 
L 40.800572 96.09403 
z
" clip-path="url(#p0b8ea437d0)" style="fill: #f49f7b"/>
   </g>
   <g id="patch_256">
    <path d="M 41.279485 113.673823 
L 44.124117 113.673823 
L 44.124117 96.09403 
L 41.279485 96.09403 
z
" clip-path="url(#p0b8ea437d0)" style="fill: #59595c"/>
   </g>
   <g id="patch_257">
    <path d="M 44.124117 113.673823 
L 44.729972 113.673823 
L 44.729972 96.09403 
L 44.124117 96.09403 
z
" clip-path="url(#p0b8ea437d0)" style="fill: #f49f7b"/>
   </g>
   <g id="patch_258">
    <path d="M 44.729972 113.673823 
L 50.263445 113.673823 
L 50.263445 96.09403 
L 44.729972 96.09403 
z
" clip-path="url(#p0b8ea437d0)" style="fill: #59595c"/>
   </g>
   <g id="patch_259">
    <path d="M 50.263445 113.673823 
L 50.523097 113.673823 
L 50.523097 96.09403 
L 50.263445 96.09403 
z
" clip-path="url(#p0b8ea437d0)" style="fill: #f49f7b"/>
   </g>
   <g id="patch_260">
    <path d="M 50.523097 113.673823 
L 52.502223 113.673823 
L 52.502223 96.09403 
L 50.523097 96.09403 
z
" clip-path="url(#p0b8ea437d0)" style="fill: #59595c"/>
   </g>
   <g id="patch_261">
    <path d="M 52.502223 113.673823 
L 52.894586 113.673823 
L 52.894586 96.09403 
L 52.502223 96.09403 
z
" clip-path="url(#p0b8ea437d0)" style="fill: #f49f7b"/>
   </g>
   <g id="patch_262">
    <path d="M 52.894586 113.673823 
L 53.240789 113.673823 
L 53.240789 96.09403 
L 52.894586 96.09403 
z
" clip-path="url(#p0b8ea437d0)" style="fill: #59595c"/>
   </g>
   <g id="patch_263">
    <path d="M 53.240789 113.673823 
L 53.887034 113.673823 
L 53.887034 96.09403 
L 53.240789 96.09403 
z
" clip-path="url(#p0b8ea437d0)" style="fill: #f49f7b"/>
   </g>
   <g id="patch_264">
    <path d="M 53.887034 113.673823 
L 57.914525 113.673823 
L 57.914525 96.09403 
L 53.887034 96.09403 
z
" clip-path="url(#p0b8ea437d0)" style="fill: #59595c"/>
   </g>
   <g id="patch_265">
    <path d="M 57.914525 113.673823 
L 60.684147 113.673823 
L 60.684147 96.09403 
L 57.914525 96.09403 
z
" clip-path="url(#p0b8ea437d0)" style="fill: #f49f7b"/>
   </g>
   <g id="patch_266">
    <path d="M 60.684147 113.673823 
L 77.861571 113.673823 
L 77.861571 96.09403 
L 60.684147 96.09403 
z
" clip-path="url(#p0b8ea437d0)" style="fill: #59595c"/>
   </g>
   <g id="patch_267">
    <path d="M 77.861571 113.673823 
L 78.640527 113.673823 
L 78.640527 96.09403 
L 77.861571 96.09403 
z
" clip-path="url(#p0b8ea437d0)" style="fill: #f49f7b"/>
   </g>
   <g id="patch_268">
    <path d="M 78.640527 113.673823 
L 79.811846 113.673823 
L 79.811846 96.09403 
L 78.640527 96.09403 
z
" clip-path="url(#p0b8ea437d0)" style="fill: #59595c"/>
   </g>
   <g id="patch_269">
    <path d="M 79.811846 113.673823 
L 81.842902 113.673823 
L 81.842902 96.09403 
L 79.811846 96.09403 
z
" clip-path="url(#p0b8ea437d0)" style="fill: #f49f7b"/>
   </g>
   <g id="patch_270">
    <path d="M 81.842902 113.673823 
L 83.620075 113.673823 
L 83.620075 96.09403 
L 81.842902 96.09403 
z
" clip-path="url(#p0b8ea437d0)" style="fill: #59595c"/>
   </g>
   <g id="patch_271">
    <path d="M 83.620075 113.673823 
L 84.525972 113.673823 
L 84.525972 96.09403 
L 83.620075 96.09403 
z
" clip-path="url(#p0b8ea437d0)" style="fill: #f49f7b"/>
   </g>
   <g id="patch_272">
    <path d="M 84.525972 113.673823 
L 90.457579 113.673823 
L 90.457579 96.09403 
L 84.525972 96.09403 
z
" clip-path="url(#p0b8ea437d0)" style="fill: #59595c"/>
   </g>
   <g id="patch_273">
    <path d="M 90.457579 113.673823 
L 91.103824 113.673823 
L 91.103824 96.09403 
L 90.457579 96.09403 
z
" clip-path="url(#p0b8ea437d0)" style="fill: #f49f7b"/>
   </g>
   <g id="patch_274">
    <path d="M 91.103824 113.673823 
L 98.247139 113.673823 
L 98.247139 96.09403 
L 91.103824 96.09403 
z
" clip-path="url(#p0b8ea437d0)" style="fill: #59595c"/>
   </g>
   <g id="patch_275">
    <path d="M 98.247139 113.673823 
L 98.593342 113.673823 
L 98.593342 96.09403 
L 98.247139 96.09403 
z
" clip-path="url(#p0b8ea437d0)" style="fill: #f49f7b"/>
   </g>
   <g id="patch_276">
    <path d="M 98.593342 113.673823 
L 112.741492 113.673823 
L 112.741492 96.09403 
L 98.593342 96.09403 
z
" clip-path="url(#p0b8ea437d0)" style="fill: #59595c"/>
   </g>
   <g id="patch_277">
    <path d="M 112.741492 113.673823 
L 113.174246 113.673823 
L 113.174246 96.09403 
L 112.741492 96.09403 
z
" clip-path="url(#p0b8ea437d0)" style="fill: #f49f7b"/>
   </g>
   <g id="patch_278">
    <path d="M 113.174246 113.673823 
L 116.463171 113.673823 
L 116.463171 96.09403 
L 113.174246 96.09403 
z
" clip-path="url(#p0b8ea437d0)" style="fill: #59595c"/>
   </g>
   <g id="patch_279">
    <path d="M 116.463171 113.673823 
L 116.722823 113.673823 
L 116.722823 96.09403 
L 116.463171 96.09403 
z
" clip-path="url(#p0b8ea437d0)" style="fill: #f49f7b"/>
   </g>
   <g id="patch_280">
    <path d="M 116.722823 113.673823 
L 117.461389 113.673823 
L 117.461389 96.09403 
L 116.722823 96.09403 
z
" clip-path="url(#p0b8ea437d0)" style="fill: #59595c"/>
   </g>
   <g id="patch_281">
    <path d="M 117.461389 113.673823 
L 117.761432 113.673823 
L 117.761432 96.09403 
L 117.461389 96.09403 
z
" clip-path="url(#p0b8ea437d0)" style="fill: #f49f7b"/>
   </g>
   <g id="patch_282">
    <path d="M 117.761432 113.673823 
L 136.283276 113.673823 
L 136.283276 96.09403 
L 117.761432 96.09403 
z
" clip-path="url(#p0b8ea437d0)" style="fill: #59595c"/>
   </g>
   <g id="patch_283">
    <path d="M 136.283276 113.673823 
L 138.147001 113.673823 
L 138.147001 96.09403 
L 136.283276 96.09403 
z
" clip-path="url(#p0b8ea437d0)" style="fill: #f49f7b"/>
   </g>
   <g id="patch_284">
    <path d="M 138.147001 113.673823 
L 146.750138 113.673823 
L 146.750138 96.09403 
L 138.147001 96.09403 
z
" clip-path="url(#p0b8ea437d0)" style="fill: #59595c"/>
   </g>
   <g id="patch_285">
    <path d="M 146.750138 113.673823 
L 147.182891 113.673823 
L 147.182891 96.09403 
L 146.750138 96.09403 
z
" clip-path="url(#p0b8ea437d0)" style="fill: #f49f7b"/>
   </g>
   <g id="patch_286">
    <path d="M 147.182891 113.673823 
L 152.427862 113.673823 
L 152.427862 96.09403 
L 147.182891 96.09403 
z
" clip-path="url(#p0b8ea437d0)" style="fill: #59595c"/>
   </g>
   <g id="patch_287">
    <path d="M 152.427862 113.673823 
L 153.333759 113.673823 
L 153.333759 96.09403 
L 152.427862 96.09403 
z
" clip-path="url(#p0b8ea437d0)" style="fill: #f49f7b"/>
   </g>
   <g id="patch_288">
    <path d="M 153.333759 113.673823 
L 154.69549 113.673823 
L 154.69549 96.09403 
L 153.333759 96.09403 
z
" clip-path="url(#p0b8ea437d0)" style="fill: #59595c"/>
   </g>
   <g id="patch_289">
    <path d="M 154.69549 113.673823 
L 155.474446 113.673823 
L 155.474446 96.09403 
L 154.69549 96.09403 
z
" clip-path="url(#p0b8ea437d0)" style="fill: #f49f7b"/>
   </g>
   <g id="patch_290">
    <path d="M 155.474446 113.673823 
L 157.37856 113.673823 
L 157.37856 96.09403 
L 155.474446 96.09403 
z
" clip-path="url(#p0b8ea437d0)" style="fill: #59595c"/>
   </g>
   <g id="patch_291">
    <path d="M 157.37856 113.673823 
L 157.811314 113.673823 
L 157.811314 96.09403 
L 157.37856 96.09403 
z
" clip-path="url(#p0b8ea437d0)" style="fill: #f49f7b"/>
   </g>
   <g id="patch_292">
    <path d="M 157.811314 113.673823 
L 227.311506 113.673823 
L 227.311506 96.09403 
L 157.811314 96.09403 
z
" clip-path="url(#p0b8ea437d0)" style="fill: #59595c"/>
   </g>
   <g id="patch_293">
    <path d="M 227.311506 113.673823 
L 227.657708 113.673823 
L 227.657708 96.09403 
L 227.311506 96.09403 
z
" clip-path="url(#p0b8ea437d0)" style="fill: #f49f7b"/>
   </g>
   <g id="patch_294">
    <path d="M 227.657708 113.673823 
L 230.987024 113.673823 
L 230.987024 96.09403 
L 227.657708 96.09403 
z
" clip-path="url(#p0b8ea437d0)" style="fill: #59595c"/>
   </g>
   <g id="patch_295">
    <path d="M 230.987024 113.673823 
L 231.292837 113.673823 
L 231.292837 96.09403 
L 230.987024 96.09403 
z
" clip-path="url(#p0b8ea437d0)" style="fill: #f49f7b"/>
   </g>
   <g id="patch_296">
    <path d="M 231.292837 113.673823 
L 234.149009 113.673823 
L 234.149009 96.09403 
L 231.292837 96.09403 
z
" clip-path="url(#p0b8ea437d0)" style="fill: #59595c"/>
   </g>
   <g id="patch_297">
    <path d="M 234.149009 113.673823 
L 237.437935 113.673823 
L 237.437935 96.09403 
L 234.149009 96.09403 
z
" clip-path="url(#p0b8ea437d0)" style="fill: #f49f7b"/>
   </g>
   <g id="patch_298">
    <path d="M 237.437935 113.673823 
L 238.257281 113.673823 
L 238.257281 96.09403 
L 237.437935 96.09403 
z
" clip-path="url(#p0b8ea437d0)" style="fill: #59595c"/>
   </g>
   <g id="patch_299">
    <path d="M 238.257281 113.673823 
L 239.209338 113.673823 
L 239.209338 96.09403 
L 238.257281 96.09403 
z
" clip-path="url(#p0b8ea437d0)" style="fill: #f49f7b"/>
   </g>
   <g id="patch_300">
    <path d="M 239.209338 113.673823 
L 247.864406 113.673823 
L 247.864406 96.09403 
L 239.209338 96.09403 
z
" clip-path="url(#p0b8ea437d0)" style="fill: #59595c"/>
   </g>
   <g id="patch_301">
    <path d="M 247.864406 113.673823 
L 248.556811 113.673823 
L 248.556811 96.09403 
L 247.864406 96.09403 
z
" clip-path="url(#p0b8ea437d0)" style="fill: #f49f7b"/>
   </g>
   <g id="patch_302">
    <path d="M 248.556811 113.673823 
L 250.853289 113.673823 
L 250.853289 96.09403 
L 248.556811 96.09403 
z
" clip-path="url(#p0b8ea437d0)" style="fill: #59595c"/>
   </g>
   <g id="patch_303">
    <path d="M 250.853289 113.673823 
L 251.845737 113.673823 
L 251.845737 96.09403 
L 250.853289 96.09403 
z
" clip-path="url(#p0b8ea437d0)" style="fill: #91d1bc"/>
   </g>
   <g id="patch_304">
    <path d="M 251.845737 113.673823 
L 252.047689 113.673823 
L 252.047689 96.09403 
L 251.845737 96.09403 
z
" clip-path="url(#p0b8ea437d0)" style="fill: #f49f7b"/>
   </g>
   <g id="patch_305">
    <path d="M 252.047689 113.673823 
L 254.598048 113.673823 
L 254.598048 96.09403 
L 252.047689 96.09403 
z
" clip-path="url(#p0b8ea437d0)" style="fill: #59595c"/>
   </g>
   <g id="patch_306">
    <path d="M 254.598048 113.673823 
L 255.076962 113.673823 
L 255.076962 96.09403 
L 254.598048 96.09403 
z
" clip-path="url(#p0b8ea437d0)" style="fill: #f49f7b"/>
   </g>
   <g id="patch_307">
    <path d="M 255.076962 113.673823 
L 255.377004 113.673823 
L 255.377004 96.09403 
L 255.076962 96.09403 
z
" clip-path="url(#p0b8ea437d0)" style="fill: #59595c"/>
   </g>
   <g id="patch_308">
    <path d="M 255.377004 113.673823 
L 261.308611 113.673823 
L 261.308611 96.09403 
L 255.377004 96.09403 
z
" clip-path="url(#p0b8ea437d0)" style="fill: #91d1bc"/>
   </g>
   <g id="patch_309">
    <path d="M 261.308611 113.673823 
L 261.412472 113.673823 
L 261.412472 96.09403 
L 261.308611 96.09403 
z
" clip-path="url(#p0b8ea437d0)" style="fill: #59595c"/>
   </g>
   <g id="patch_310">
    <path d="M 261.412472 113.673823 
L 262.018326 113.673823 
L 262.018326 96.09403 
L 261.412472 96.09403 
z
" clip-path="url(#p0b8ea437d0)" style="fill: #f49f7b"/>
   </g>
   <g id="patch_311">
    <path d="M 262.018326 113.673823 
L 262.797282 113.673823 
L 262.797282 96.09403 
L 262.018326 96.09403 
z
" clip-path="url(#p0b8ea437d0)" style="fill: #59595c"/>
   </g>
   <g id="patch_312">
    <path d="M 262.797282 113.673823 
L 262.970384 113.673823 
L 262.970384 96.09403 
L 262.797282 96.09403 
z
" clip-path="url(#p0b8ea437d0)" style="fill: #f49f7b"/>
   </g>
   <g id="patch_313">
    <path d="M 262.970384 113.673823 
L 264.008992 113.673823 
L 264.008992 96.09403 
L 262.970384 96.09403 
z
" clip-path="url(#p0b8ea437d0)" style="fill: #59595c"/>
   </g>
   <g id="patch_314">
    <path d="M 264.008992 113.673823 
L 264.568686 113.673823 
L 264.568686 96.09403 
L 264.008992 96.09403 
z
" clip-path="url(#p0b8ea437d0)" style="fill: #91d1bc"/>
   </g>
   <g id="patch_315">
    <path d="M 264.568686 113.673823 
L 264.914889 113.673823 
L 264.914889 96.09403 
L 264.568686 96.09403 
z
" clip-path="url(#p0b8ea437d0)" style="fill: #59595c"/>
   </g>
   <g id="patch_316">
    <path d="M 264.914889 113.673823 
L 265.434193 113.673823 
L 265.434193 96.09403 
L 264.914889 96.09403 
z
" clip-path="url(#p0b8ea437d0)" style="fill: #91d1bc"/>
   </g>
   <g id="patch_317">
    <path d="M 265.434193 113.673823 
L 269.911748 113.673823 
L 269.911748 96.09403 
L 265.434193 96.09403 
z
" clip-path="url(#p0b8ea437d0)" style="fill: #59595c"/>
   </g>
   <g id="patch_318">
    <path d="M 269.911748 113.673823 
L 274.412383 113.673823 
L 274.412383 96.09403 
L 269.911748 96.09403 
z
" clip-path="url(#p0b8ea437d0)" style="fill: #91d1bc"/>
   </g>
   <g id="patch_319">
    <path d="M 274.412383 113.673823 
L 279.299611 113.673823 
L 279.299611 96.09403 
L 274.412383 96.09403 
z
" clip-path="url(#p0b8ea437d0)" style="fill: #59595c"/>
   </g>
   <g id="patch_320">
    <path d="M 279.299611 113.673823 
L 282.028842 113.673823 
L 282.028842 96.09403 
L 279.299611 96.09403 
z
" clip-path="url(#p0b8ea437d0)" style="fill: #91d1bc"/>
   </g>
   <g id="patch_321">
    <path d="M 282.028842 113.673823 
L 289.125998 113.673823 
L 289.125998 96.09403 
L 282.028842 96.09403 
z
" clip-path="url(#p0b8ea437d0)" style="fill: #59595c"/>
   </g>
   <g id="patch_322">
    <path d="M 289.125998 113.673823 
L 290.510808 113.673823 
L 290.510808 96.09403 
L 289.125998 96.09403 
z
" clip-path="url(#p0b8ea437d0)" style="fill: #f49f7b"/>
   </g>
   <g id="patch_323">
    <path d="M 290.510808 113.673823 
L 308.340247 113.673823 
L 308.340247 96.09403 
L 290.510808 96.09403 
z
" clip-path="url(#p0b8ea437d0)" style="fill: #59595c"/>
   </g>
   <g id="patch_324">
    <path d="M 308.340247 113.673823 
L 308.72684 113.673823 
L 308.72684 96.09403 
L 308.340247 96.09403 
z
" clip-path="url(#p0b8ea437d0)" style="fill: #f49f7b"/>
   </g>
   <g id="patch_325">
    <path d="M 308.72684 113.673823 
L 312.927433 113.673823 
L 312.927433 96.09403 
L 308.72684 96.09403 
z
" clip-path="url(#p0b8ea437d0)" style="fill: #59595c"/>
   </g>
   <g id="patch_326">
    <path d="M 312.927433 113.673823 
L 314.439185 113.673823 
L 314.439185 96.09403 
L 312.927433 96.09403 
z
" clip-path="url(#p0b8ea437d0)" style="fill: #f49f7b"/>
   </g>
   <g id="patch_327">
    <path d="M 314.439185 113.673823 
L 326.210077 113.673823 
L 326.210077 96.09403 
L 314.439185 96.09403 
z
" clip-path="url(#p0b8ea437d0)" style="fill: #59595c"/>
   </g>
   <g id="patch_328">
    <path d="M 326.210077 113.673823 
L 327.035193 113.673823 
L 327.035193 96.09403 
L 326.210077 96.09403 
z
" clip-path="url(#p0b8ea437d0)" style="fill: #f49f7b"/>
   </g>
   <g id="patch_329">
    <path d="M 327.035193 113.673823 
L 339.711982 113.673823 
L 339.711982 96.09403 
L 327.035193 96.09403 
z
" clip-path="url(#p0b8ea437d0)" style="fill: #59595c"/>
   </g>
   <g id="patch_330">
    <path d="M 339.711982 113.673823 
L 341.616097 113.673823 
L 341.616097 96.09403 
L 339.711982 96.09403 
z
" clip-path="url(#p0b8ea437d0)" style="fill: #f49f7b"/>
   </g>
   <g id="patch_331">
    <path d="M 341.616097 113.673823 
L 346.335994 113.673823 
L 346.335994 96.09403 
L 341.616097 96.09403 
z
" clip-path="url(#p0b8ea437d0)" style="fill: #59595c"/>
   </g>
   <g id="patch_332">
    <path d="M 346.335994 113.673823 
L 348.626702 113.673823 
L 348.626702 96.09403 
L 346.335994 96.09403 
z
" clip-path="url(#p0b8ea437d0)" style="fill: #f49f7b"/>
   </g>
   <g id="patch_333">
    <path d="M 348.626702 113.673823 
L 357.108668 113.673823 
L 357.108668 96.09403 
L 348.626702 96.09403 
z
" clip-path="url(#p0b8ea437d0)" style="fill: #59595c"/>
   </g>
   <g id="patch_334">
    <path d="M 357.108668 113.673823 
L 360.184102 113.673823 
L 360.184102 96.09403 
L 357.108668 96.09403 
z
" clip-path="url(#p0b8ea437d0)" style="fill: #f49f7b"/>
   </g>
   <g id="patch_335">
    <path d="M 360.184102 113.673823 
L 362.347868 113.673823 
L 362.347868 96.09403 
L 360.184102 96.09403 
z
" clip-path="url(#p0b8ea437d0)" style="fill: #59595c"/>
   </g>
   <g id="patch_336">
    <path d="M 362.347868 113.673823 
L 362.694071 113.673823 
L 362.694071 96.09403 
L 362.347868 96.09403 
z
" clip-path="url(#p0b8ea437d0)" style="fill: #f49f7b"/>
   </g>
   <g id="patch_337">
    <path d="M 362.694071 113.673823 
L 363.825 113.673823 
L 363.825 96.09403 
L 362.694071 96.09403 
z
" clip-path="url(#p0b8ea437d0)" style="fill: #59595c"/>
   </g>
   <g id="matplotlib.axis_11"/>
   <g id="matplotlib.axis_12"/>
   <g id="text_9">
    <text style="font: 9px 'Arial'; text-anchor: end" x="32.8251" y="107.210567" transform="rotate(-0 32.8251 107.210567)">labels</text>
   </g>
  </g>
  <g id="axes_7">
   <g id="patch_338">
    <path d="M 36.75 134.934386 
L 36.8077 134.934386 
L 36.8077 117.354592 
L 36.75 117.354592 
z
" clip-path="url(#pbfbafab334)" style="fill: #f49f7b"/>
   </g>
   <g id="patch_339">
    <path d="M 36.8077 134.934386 
L 40.737101 134.934386 
L 40.737101 117.354592 
L 36.8077 117.354592 
z
" clip-path="url(#pbfbafab334)" style="fill: #59595c"/>
   </g>
   <g id="patch_340">
    <path d="M 40.737101 134.934386 
L 41.354496 134.934386 
L 41.354496 117.354592 
L 40.737101 117.354592 
z
" clip-path="url(#pbfbafab334)" style="fill: #f49f7b"/>
   </g>
   <g id="patch_341">
    <path d="M 41.354496 134.934386 
L 44.239518 134.934386 
L 44.239518 117.354592 
L 41.354496 117.354592 
z
" clip-path="url(#pbfbafab334)" style="fill: #59595c"/>
   </g>
   <g id="patch_342">
    <path d="M 44.239518 134.934386 
L 44.787673 134.934386 
L 44.787673 117.354592 
L 44.239518 117.354592 
z
" clip-path="url(#pbfbafab334)" style="fill: #f49f7b"/>
   </g>
   <g id="patch_343">
    <path d="M 44.787673 134.934386 
L 53.183088 134.934386 
L 53.183088 117.354592 
L 44.787673 117.354592 
z
" clip-path="url(#pbfbafab334)" style="fill: #59595c"/>
   </g>
   <g id="patch_344">
    <path d="M 53.183088 134.934386 
L 53.910114 134.934386 
L 53.910114 117.354592 
L 53.183088 117.354592 
z
" clip-path="url(#pbfbafab334)" style="fill: #f49f7b"/>
   </g>
   <g id="patch_345">
    <path d="M 53.910114 134.934386 
L 57.977996 134.934386 
L 57.977996 117.354592 
L 53.910114 117.354592 
z
" clip-path="url(#pbfbafab334)" style="fill: #59595c"/>
   </g>
   <g id="patch_346">
    <path d="M 57.977996 134.934386 
L 59.091614 134.934386 
L 59.091614 117.354592 
L 57.977996 117.354592 
z
" clip-path="url(#pbfbafab334)" style="fill: #f49f7b"/>
   </g>
   <g id="patch_347">
    <path d="M 59.091614 134.934386 
L 59.276256 134.934386 
L 59.276256 117.354592 
L 59.091614 117.354592 
z
" clip-path="url(#pbfbafab334)" style="fill: #59595c"/>
   </g>
   <g id="patch_348">
    <path d="M 59.276256 134.934386 
L 60.753387 134.934386 
L 60.753387 117.354592 
L 59.276256 117.354592 
z
" clip-path="url(#pbfbafab334)" style="fill: #f49f7b"/>
   </g>
   <g id="patch_349">
    <path d="M 60.753387 134.934386 
L 77.7404 134.934386 
L 77.7404 117.354592 
L 60.753387 117.354592 
z
" clip-path="url(#pbfbafab334)" style="fill: #59595c"/>
   </g>
   <g id="patch_350">
    <path d="M 77.7404 134.934386 
L 78.738617 134.934386 
L 78.738617 117.354592 
L 77.7404 117.354592 
z
" clip-path="url(#pbfbafab334)" style="fill: #f49f7b"/>
   </g>
   <g id="patch_351">
    <path d="M 78.738617 134.934386 
L 79.742605 134.934386 
L 79.742605 117.354592 
L 78.738617 117.354592 
z
" clip-path="url(#pbfbafab334)" style="fill: #59595c"/>
   </g>
   <g id="patch_352">
    <path d="M 79.742605 134.934386 
L 81.929452 134.934386 
L 81.929452 117.354592 
L 79.742605 117.354592 
z
" clip-path="url(#pbfbafab334)" style="fill: #f49f7b"/>
   </g>
   <g id="patch_353">
    <path d="M 81.929452 134.934386 
L 83.660466 134.934386 
L 83.660466 117.354592 
L 81.929452 117.354592 
z
" clip-path="url(#pbfbafab334)" style="fill: #59595c"/>
   </g>
   <g id="patch_354">
    <path d="M 83.660466 134.934386 
L 83.833567 134.934386 
L 83.833567 117.354592 
L 83.660466 117.354592 
z
" clip-path="url(#pbfbafab334)" style="fill: #f49f7b"/>
   </g>
   <g id="patch_355">
    <path d="M 83.833567 134.934386 
L 84.018209 134.934386 
L 84.018209 117.354592 
L 83.833567 117.354592 
z
" clip-path="url(#pbfbafab334)" style="fill: #59595c"/>
   </g>
   <g id="patch_356">
    <path d="M 84.018209 134.934386 
L 84.577903 134.934386 
L 84.577903 117.354592 
L 84.018209 117.354592 
z
" clip-path="url(#pbfbafab334)" style="fill: #f49f7b"/>
   </g>
   <g id="patch_357">
    <path d="M 84.577903 134.934386 
L 90.388338 134.934386 
L 90.388338 117.354592 
L 84.577903 117.354592 
z
" clip-path="url(#pbfbafab334)" style="fill: #59595c"/>
   </g>
   <g id="patch_358">
    <path d="M 90.388338 134.934386 
L 90.999963 134.934386 
L 90.999963 117.354592 
L 90.388338 117.354592 
z
" clip-path="url(#pbfbafab334)" style="fill: #f49f7b"/>
   </g>
   <g id="patch_359">
    <path d="M 90.999963 134.934386 
L 91.403866 134.934386 
L 91.403866 117.354592 
L 90.999963 117.354592 
z
" clip-path="url(#pbfbafab334)" style="fill: #59595c"/>
   </g>
   <g id="patch_360">
    <path d="M 91.403866 134.934386 
L 91.467337 134.934386 
L 91.467337 117.354592 
L 91.403866 117.354592 
z
" clip-path="url(#pbfbafab334)" style="fill: #f49f7b"/>
   </g>
   <g id="patch_361">
    <path d="M 91.467337 134.934386 
L 98.172129 134.934386 
L 98.172129 117.354592 
L 91.467337 117.354592 
z
" clip-path="url(#pbfbafab334)" style="fill: #59595c"/>
   </g>
   <g id="patch_362">
    <path d="M 98.172129 134.934386 
L 98.576032 134.934386 
L 98.576032 117.354592 
L 98.172129 117.354592 
z
" clip-path="url(#pbfbafab334)" style="fill: #f49f7b"/>
   </g>
   <g id="patch_363">
    <path d="M 98.576032 134.934386 
L 112.770343 134.934386 
L 112.770343 117.354592 
L 98.576032 117.354592 
z
" clip-path="url(#pbfbafab334)" style="fill: #59595c"/>
   </g>
   <g id="patch_364">
    <path d="M 112.770343 134.934386 
L 112.822273 134.934386 
L 112.822273 117.354592 
L 112.770343 117.354592 
z
" clip-path="url(#pbfbafab334)" style="fill: #f49f7b"/>
   </g>
   <g id="patch_365">
    <path d="M 112.822273 134.934386 
L 115.222612 134.934386 
L 115.222612 117.354592 
L 112.822273 117.354592 
z
" clip-path="url(#pbfbafab334)" style="fill: #59595c"/>
   </g>
   <g id="patch_366">
    <path d="M 115.222612 134.934386 
L 115.638055 134.934386 
L 115.638055 117.354592 
L 115.222612 117.354592 
z
" clip-path="url(#pbfbafab334)" style="fill: #f49f7b"/>
   </g>
   <g id="patch_367">
    <path d="M 115.638055 134.934386 
L 116.445861 134.934386 
L 116.445861 117.354592 
L 115.638055 117.354592 
z
" clip-path="url(#pbfbafab334)" style="fill: #59595c"/>
   </g>
   <g id="patch_368">
    <path d="M 116.445861 134.934386 
L 116.722823 134.934386 
L 116.722823 117.354592 
L 116.445861 117.354592 
z
" clip-path="url(#pbfbafab334)" style="fill: #f49f7b"/>
   </g>
   <g id="patch_369">
    <path d="M 116.722823 134.934386 
L 117.484469 134.934386 
L 117.484469 117.354592 
L 116.722823 117.354592 
z
" clip-path="url(#pbfbafab334)" style="fill: #59595c"/>
   </g>
   <g id="patch_370">
    <path d="M 117.484469 134.934386 
L 117.622951 134.934386 
L 117.622951 117.354592 
L 117.484469 117.354592 
z
" clip-path="url(#pbfbafab334)" style="fill: #f49f7b"/>
   </g>
   <g id="patch_371">
    <path d="M 117.622951 134.934386 
L 136.433297 134.934386 
L 136.433297 117.354592 
L 117.622951 117.354592 
z
" clip-path="url(#pbfbafab334)" style="fill: #59595c"/>
   </g>
   <g id="patch_372">
    <path d="M 136.433297 134.934386 
L 136.444837 134.934386 
L 136.444837 117.354592 
L 136.433297 117.354592 
z
" clip-path="url(#pbfbafab334)" style="fill: #f49f7b"/>
   </g>
   <g id="patch_373">
    <path d="M 136.444837 134.934386 
L 136.450607 134.934386 
L 136.450607 117.354592 
L 136.444837 117.354592 
z
" clip-path="url(#pbfbafab334)" style="fill: #59595c"/>
   </g>
   <g id="patch_374">
    <path d="M 136.450607 134.934386 
L 138.09507 134.934386 
L 138.09507 117.354592 
L 136.450607 117.354592 
z
" clip-path="url(#pbfbafab334)" style="fill: #f49f7b"/>
   </g>
   <g id="patch_375">
    <path d="M 138.09507 134.934386 
L 144.251708 134.934386 
L 144.251708 117.354592 
L 138.09507 117.354592 
z
" clip-path="url(#pbfbafab334)" style="fill: #59595c"/>
   </g>
   <g id="patch_376">
    <path d="M 144.251708 134.934386 
L 144.574831 134.934386 
L 144.574831 117.354592 
L 144.251708 117.354592 
z
" clip-path="url(#pbfbafab334)" style="fill: #f49f7b"/>
   </g>
   <g id="patch_377">
    <path d="M 144.574831 134.934386 
L 146.750138 134.934386 
L 146.750138 117.354592 
L 144.574831 117.354592 
z
" clip-path="url(#pbfbafab334)" style="fill: #59595c"/>
   </g>
   <g id="patch_378">
    <path d="M 146.750138 134.934386 
L 147.275212 134.934386 
L 147.275212 117.354592 
L 146.750138 117.354592 
z
" clip-path="url(#pbfbafab334)" style="fill: #f49f7b"/>
   </g>
   <g id="patch_379">
    <path d="M 147.275212 134.934386 
L 152.479792 134.934386 
L 152.479792 117.354592 
L 147.275212 117.354592 
z
" clip-path="url(#pbfbafab334)" style="fill: #59595c"/>
   </g>
   <g id="patch_380">
    <path d="M 152.479792 134.934386 
L 153.385689 134.934386 
L 153.385689 117.354592 
L 152.479792 117.354592 
z
" clip-path="url(#pbfbafab334)" style="fill: #f49f7b"/>
   </g>
   <g id="patch_381">
    <path d="M 153.385689 134.934386 
L 154.73588 134.934386 
L 154.73588 117.354592 
L 153.385689 117.354592 
z
" clip-path="url(#pbfbafab334)" style="fill: #59595c"/>
   </g>
   <g id="patch_382">
    <path d="M 154.73588 134.934386 
L 155.532146 134.934386 
L 155.532146 117.354592 
L 154.73588 117.354592 
z
" clip-path="url(#pbfbafab334)" style="fill: #f49f7b"/>
   </g>
   <g id="patch_383">
    <path d="M 155.532146 134.934386 
L 157.447801 134.934386 
L 157.447801 117.354592 
L 155.532146 117.354592 
z
" clip-path="url(#pbfbafab334)" style="fill: #59595c"/>
   </g>
   <g id="patch_384">
    <path d="M 157.447801 134.934386 
L 157.765153 134.934386 
L 157.765153 117.354592 
L 157.447801 117.354592 
z
" clip-path="url(#pbfbafab334)" style="fill: #f49f7b"/>
   </g>
   <g id="patch_385">
    <path d="M 157.765153 134.934386 
L 182.93986 134.934386 
L 182.93986 117.354592 
L 157.765153 117.354592 
z
" clip-path="url(#pbfbafab334)" style="fill: #59595c"/>
   </g>
   <g id="patch_386">
    <path d="M 182.93986 134.934386 
L 182.98602 134.934386 
L 182.98602 117.354592 
L 182.93986 117.354592 
z
" clip-path="url(#pbfbafab334)" style="fill: #f49f7b"/>
   </g>
   <g id="patch_387">
    <path d="M 182.98602 134.934386 
L 197.757335 134.934386 
L 197.757335 117.354592 
L 182.98602 117.354592 
z
" clip-path="url(#pbfbafab334)" style="fill: #59595c"/>
   </g>
   <g id="patch_388">
    <path d="M 197.757335 134.934386 
L 198.31126 134.934386 
L 198.31126 117.354592 
L 197.757335 117.354592 
z
" clip-path="url(#pbfbafab334)" style="fill: #f49f7b"/>
   </g>
   <g id="patch_389">
    <path d="M 198.31126 134.934386 
L 198.495901 134.934386 
L 198.495901 117.354592 
L 198.31126 117.354592 
z
" clip-path="url(#pbfbafab334)" style="fill: #59595c"/>
   </g>
   <g id="patch_390">
    <path d="M 198.495901 134.934386 
L 198.865184 134.934386 
L 198.865184 117.354592 
L 198.495901 117.354592 
z
" clip-path="url(#pbfbafab334)" style="fill: #f49f7b"/>
   </g>
   <g id="patch_391">
    <path d="M 198.865184 134.934386 
L 211.051519 134.934386 
L 211.051519 117.354592 
L 198.865184 117.354592 
z
" clip-path="url(#pbfbafab334)" style="fill: #59595c"/>
   </g>
   <g id="patch_392">
    <path d="M 211.051519 134.934386 
L 211.530433 134.934386 
L 211.530433 117.354592 
L 211.051519 117.354592 
z
" clip-path="url(#pbfbafab334)" style="fill: #f49f7b"/>
   </g>
   <g id="patch_393">
    <path d="M 211.530433 134.934386 
L 213.451858 134.934386 
L 213.451858 117.354592 
L 211.530433 117.354592 
z
" clip-path="url(#pbfbafab334)" style="fill: #59595c"/>
   </g>
   <g id="patch_394">
    <path d="M 213.451858 134.934386 
L 213.636499 134.934386 
L 213.636499 117.354592 
L 213.451858 117.354592 
z
" clip-path="url(#pbfbafab334)" style="fill: #f49f7b"/>
   </g>
   <g id="patch_395">
    <path d="M 213.636499 134.934386 
L 220.15088 134.934386 
L 220.15088 117.354592 
L 213.636499 117.354592 
z
" clip-path="url(#pbfbafab334)" style="fill: #59595c"/>
   </g>
   <g id="patch_396">
    <path d="M 220.15088 134.934386 
L 220.624024 134.934386 
L 220.624024 117.354592 
L 220.15088 117.354592 
z
" clip-path="url(#pbfbafab334)" style="fill: #f49f7b"/>
   </g>
   <g id="patch_397">
    <path d="M 220.624024 134.934386 
L 227.236495 134.934386 
L 227.236495 117.354592 
L 220.624024 117.354592 
z
" clip-path="url(#pbfbafab334)" style="fill: #59595c"/>
   </g>
   <g id="patch_398">
    <path d="M 227.236495 134.934386 
L 227.669248 134.934386 
L 227.669248 117.354592 
L 227.236495 117.354592 
z
" clip-path="url(#pbfbafab334)" style="fill: #f49f7b"/>
   </g>
   <g id="patch_399">
    <path d="M 227.669248 134.934386 
L 230.912014 134.934386 
L 230.912014 117.354592 
L 227.669248 117.354592 
z
" clip-path="url(#pbfbafab334)" style="fill: #59595c"/>
   </g>
   <g id="patch_400">
    <path d="M 230.912014 134.934386 
L 231.183206 134.934386 
L 231.183206 117.354592 
L 230.912014 117.354592 
z
" clip-path="url(#pbfbafab334)" style="fill: #f49f7b"/>
   </g>
   <g id="patch_401">
    <path d="M 231.183206 134.934386 
L 234.131699 134.934386 
L 234.131699 117.354592 
L 231.183206 117.354592 
z
" clip-path="url(#pbfbafab334)" style="fill: #59595c"/>
   </g>
   <g id="patch_402">
    <path d="M 234.131699 134.934386 
L 235.793472 134.934386 
L 235.793472 117.354592 
L 234.131699 117.354592 
z
" clip-path="url(#pbfbafab334)" style="fill: #f49f7b"/>
   </g>
   <g id="patch_403">
    <path d="M 235.793472 134.934386 
L 235.978113 134.934386 
L 235.978113 117.354592 
L 235.793472 117.354592 
z
" clip-path="url(#pbfbafab334)" style="fill: #59595c"/>
   </g>
   <g id="patch_404">
    <path d="M 235.978113 134.934386 
L 237.409084 134.934386 
L 237.409084 117.354592 
L 235.978113 117.354592 
z
" clip-path="url(#pbfbafab334)" style="fill: #f49f7b"/>
   </g>
   <g id="patch_405">
    <path d="M 237.409084 134.934386 
L 238.320752 134.934386 
L 238.320752 117.354592 
L 237.409084 117.354592 
z
" clip-path="url(#pbfbafab334)" style="fill: #59595c"/>
   </g>
   <g id="patch_406">
    <path d="M 238.320752 134.934386 
L 239.301659 134.934386 
L 239.301659 117.354592 
L 238.320752 117.354592 
z
" clip-path="url(#pbfbafab334)" style="fill: #f49f7b"/>
   </g>
   <g id="patch_407">
    <path d="M 239.301659 134.934386 
L 247.795165 134.934386 
L 247.795165 117.354592 
L 239.301659 117.354592 
z
" clip-path="url(#pbfbafab334)" style="fill: #59595c"/>
   </g>
   <g id="patch_408">
    <path d="M 247.795165 134.934386 
L 248.574121 134.934386 
L 248.574121 117.354592 
L 247.795165 117.354592 
z
" clip-path="url(#pbfbafab334)" style="fill: #f49f7b"/>
   </g>
   <g id="patch_409">
    <path d="M 248.574121 134.934386 
L 254.505728 134.934386 
L 254.505728 117.354592 
L 248.574121 117.354592 
z
" clip-path="url(#pbfbafab334)" style="fill: #59595c"/>
   </g>
   <g id="patch_410">
    <path d="M 254.505728 134.934386 
L 254.921171 134.934386 
L 254.921171 117.354592 
L 254.505728 117.354592 
z
" clip-path="url(#pbfbafab334)" style="fill: #f49f7b"/>
   </g>
   <g id="patch_411">
    <path d="M 254.921171 134.934386 
L 256.288672 134.934386 
L 256.288672 117.354592 
L 254.921171 117.354592 
z
" clip-path="url(#pbfbafab334)" style="fill: #59595c"/>
   </g>
   <g id="patch_412">
    <path d="M 256.288672 134.934386 
L 261.458632 134.934386 
L 261.458632 117.354592 
L 256.288672 117.354592 
z
" clip-path="url(#pbfbafab334)" style="fill: #91d1bc"/>
   </g>
   <g id="patch_413">
    <path d="M 261.458632 134.934386 
L 261.585573 134.934386 
L 261.585573 117.354592 
L 261.458632 117.354592 
z
" clip-path="url(#pbfbafab334)" style="fill: #59595c"/>
   </g>
   <g id="patch_414">
    <path d="M 261.585573 134.934386 
L 262.122187 134.934386 
L 262.122187 117.354592 
L 261.585573 117.354592 
z
" clip-path="url(#pbfbafab334)" style="fill: #f49f7b"/>
   </g>
   <g id="patch_415">
    <path d="M 262.122187 134.934386 
L 263.478148 134.934386 
L 263.478148 117.354592 
L 262.122187 117.354592 
z
" clip-path="url(#pbfbafab334)" style="fill: #59595c"/>
   </g>
   <g id="patch_416">
    <path d="M 263.478148 134.934386 
L 265.918877 134.934386 
L 265.918877 117.354592 
L 263.478148 117.354592 
z
" clip-path="url(#pbfbafab334)" style="fill: #91d1bc"/>
   </g>
   <g id="patch_417">
    <path d="M 265.918877 134.934386 
L 270.321421 134.934386 
L 270.321421 117.354592 
L 265.918877 117.354592 
z
" clip-path="url(#pbfbafab334)" style="fill: #59595c"/>
   </g>
   <g id="patch_418">
    <path d="M 270.321421 134.934386 
L 274.204661 134.934386 
L 274.204661 117.354592 
L 270.321421 117.354592 
z
" clip-path="url(#pbfbafab334)" style="fill: #91d1bc"/>
   </g>
   <g id="patch_419">
    <path d="M 274.204661 134.934386 
L 277.337796 134.934386 
L 277.337796 117.354592 
L 274.204661 117.354592 
z
" clip-path="url(#pbfbafab334)" style="fill: #59595c"/>
   </g>
   <g id="patch_420">
    <path d="M 277.337796 134.934386 
L 277.395496 134.934386 
L 277.395496 117.354592 
L 277.337796 117.354592 
z
" clip-path="url(#pbfbafab334)" style="fill: #91d1bc"/>
   </g>
   <g id="patch_421">
    <path d="M 277.395496 134.934386 
L 277.89172 134.934386 
L 277.89172 117.354592 
L 277.395496 117.354592 
z
" clip-path="url(#pbfbafab334)" style="fill: #59595c"/>
   </g>
   <g id="patch_422">
    <path d="M 277.89172 134.934386 
L 278.336013 134.934386 
L 278.336013 117.354592 
L 277.89172 117.354592 
z
" clip-path="url(#pbfbafab334)" style="fill: #91d1bc"/>
   </g>
   <g id="patch_423">
    <path d="M 278.336013 134.934386 
L 278.341784 134.934386 
L 278.341784 117.354592 
L 278.336013 117.354592 
z
" clip-path="url(#pbfbafab334)" style="fill: #59595c"/>
   </g>
   <g id="patch_424">
    <path d="M 278.341784 134.934386 
L 278.359094 134.934386 
L 278.359094 117.354592 
L 278.341784 117.354592 
z
" clip-path="url(#pbfbafab334)" style="fill: #91d1bc"/>
   </g>
   <g id="patch_425">
    <path d="M 278.359094 134.934386 
L 278.814927 134.934386 
L 278.814927 117.354592 
L 278.359094 117.354592 
z
" clip-path="url(#pbfbafab334)" style="fill: #59595c"/>
   </g>
   <g id="patch_426">
    <path d="M 278.814927 134.934386 
L 284.769614 134.934386 
L 284.769614 117.354592 
L 278.814927 117.354592 
z
" clip-path="url(#pbfbafab334)" style="fill: #91d1bc"/>
   </g>
   <g id="patch_427">
    <path d="M 284.769614 134.934386 
L 284.775384 134.934386 
L 284.775384 117.354592 
L 284.769614 117.354592 
z
" clip-path="url(#pbfbafab334)" style="fill: #59595c"/>
   </g>
   <g id="patch_428">
    <path d="M 284.775384 134.934386 
L 284.861934 134.934386 
L 284.861934 117.354592 
L 284.775384 117.354592 
z
" clip-path="url(#pbfbafab334)" style="fill: #91d1bc"/>
   </g>
   <g id="patch_429">
    <path d="M 284.861934 134.934386 
L 284.867704 134.934386 
L 284.867704 117.354592 
L 284.861934 117.354592 
z
" clip-path="url(#pbfbafab334)" style="fill: #59595c"/>
   </g>
   <g id="patch_430">
    <path d="M 284.867704 134.934386 
L 285.277378 134.934386 
L 285.277378 117.354592 
L 284.867704 117.354592 
z
" clip-path="url(#pbfbafab334)" style="fill: #91d1bc"/>
   </g>
   <g id="patch_431">
    <path d="M 285.277378 134.934386 
L 286.385226 134.934386 
L 286.385226 117.354592 
L 285.277378 117.354592 
z
" clip-path="url(#pbfbafab334)" style="fill: #59595c"/>
   </g>
   <g id="patch_432">
    <path d="M 286.385226 134.934386 
L 286.552558 134.934386 
L 286.552558 117.354592 
L 286.385226 117.354592 
z
" clip-path="url(#pbfbafab334)" style="fill: #91d1bc"/>
   </g>
   <g id="patch_433">
    <path d="M 286.552558 134.934386 
L 286.558328 134.934386 
L 286.558328 117.354592 
L 286.552558 117.354592 
z
" clip-path="url(#pbfbafab334)" style="fill: #59595c"/>
   </g>
   <g id="patch_434">
    <path d="M 286.558328 134.934386 
L 286.569868 134.934386 
L 286.569868 117.354592 
L 286.558328 117.354592 
z
" clip-path="url(#pbfbafab334)" style="fill: #91d1bc"/>
   </g>
   <g id="patch_435">
    <path d="M 286.569868 134.934386 
L 289.027907 134.934386 
L 289.027907 117.354592 
L 286.569868 117.354592 
z
" clip-path="url(#pbfbafab334)" style="fill: #59595c"/>
   </g>
   <g id="patch_436">
    <path d="M 289.027907 134.934386 
L 290.464648 134.934386 
L 290.464648 117.354592 
L 289.027907 117.354592 
z
" clip-path="url(#pbfbafab334)" style="fill: #f49f7b"/>
   </g>
   <g id="patch_437">
    <path d="M 290.464648 134.934386 
L 300.9719 134.934386 
L 300.9719 117.354592 
L 290.464648 117.354592 
z
" clip-path="url(#pbfbafab334)" style="fill: #59595c"/>
   </g>
   <g id="patch_438">
    <path d="M 300.9719 134.934386 
L 300.99498 134.934386 
L 300.99498 117.354592 
L 300.9719 117.354592 
z
" clip-path="url(#pbfbafab334)" style="fill: #f49f7b"/>
   </g>
   <g id="patch_439">
    <path d="M 300.99498 134.934386 
L 301.00075 134.934386 
L 301.00075 117.354592 
L 300.99498 117.354592 
z
" clip-path="url(#pbfbafab334)" style="fill: #59595c"/>
   </g>
   <g id="patch_440">
    <path d="M 301.00075 134.934386 
L 301.00652 134.934386 
L 301.00652 117.354592 
L 301.00075 117.354592 
z
" clip-path="url(#pbfbafab334)" style="fill: #f49f7b"/>
   </g>
   <g id="patch_441">
    <path d="M 301.00652 134.934386 
L 308.461418 134.934386 
L 308.461418 117.354592 
L 301.00652 117.354592 
z
" clip-path="url(#pbfbafab334)" style="fill: #59595c"/>
   </g>
   <g id="patch_442">
    <path d="M 308.461418 134.934386 
L 308.72684 134.934386 
L 308.72684 117.354592 
L 308.461418 117.354592 
z
" clip-path="url(#pbfbafab334)" style="fill: #f49f7b"/>
   </g>
   <g id="patch_443">
    <path d="M 308.72684 134.934386 
L 312.852423 134.934386 
L 312.852423 117.354592 
L 308.72684 117.354592 
z
" clip-path="url(#pbfbafab334)" style="fill: #59595c"/>
   </g>
   <g id="patch_444">
    <path d="M 312.852423 134.934386 
L 314.450725 134.934386 
L 314.450725 117.354592 
L 312.852423 117.354592 
z
" clip-path="url(#pbfbafab334)" style="fill: #f49f7b"/>
   </g>
   <g id="patch_445">
    <path d="M 314.450725 134.934386 
L 318.512837 134.934386 
L 318.512837 117.354592 
L 314.450725 117.354592 
z
" clip-path="url(#pbfbafab334)" style="fill: #59595c"/>
   </g>
   <g id="patch_446">
    <path d="M 318.512837 134.934386 
L 318.651318 134.934386 
L 318.651318 117.354592 
L 318.512837 117.354592 
z
" clip-path="url(#pbfbafab334)" style="fill: #f49f7b"/>
   </g>
   <g id="patch_447">
    <path d="M 318.651318 134.934386 
L 326.221617 134.934386 
L 326.221617 117.354592 
L 318.651318 117.354592 
z
" clip-path="url(#pbfbafab334)" style="fill: #59595c"/>
   </g>
   <g id="patch_448">
    <path d="M 326.221617 134.934386 
L 327.052503 134.934386 
L 327.052503 117.354592 
L 326.221617 117.354592 
z
" clip-path="url(#pbfbafab334)" style="fill: #f49f7b"/>
   </g>
   <g id="patch_449">
    <path d="M 327.052503 134.934386 
L 334.657423 134.934386 
L 334.657423 117.354592 
L 327.052503 117.354592 
z
" clip-path="url(#pbfbafab334)" style="fill: #59595c"/>
   </g>
   <g id="patch_450">
    <path d="M 334.657423 134.934386 
L 335.084406 134.934386 
L 335.084406 117.354592 
L 334.657423 117.354592 
z
" clip-path="url(#pbfbafab334)" style="fill: #f49f7b"/>
   </g>
   <g id="patch_451">
    <path d="M 335.084406 134.934386 
L 339.636971 134.934386 
L 339.636971 117.354592 
L 335.084406 117.354592 
z
" clip-path="url(#pbfbafab334)" style="fill: #59595c"/>
   </g>
   <g id="patch_452">
    <path d="M 339.636971 134.934386 
L 341.633407 134.934386 
L 341.633407 117.354592 
L 339.636971 117.354592 
z
" clip-path="url(#pbfbafab334)" style="fill: #f49f7b"/>
   </g>
   <g id="patch_453">
    <path d="M 341.633407 134.934386 
L 346.382154 134.934386 
L 346.382154 117.354592 
L 341.633407 117.354592 
z
" clip-path="url(#pbfbafab334)" style="fill: #59595c"/>
   </g>
   <g id="patch_454">
    <path d="M 346.382154 134.934386 
L 346.947618 134.934386 
L 346.947618 117.354592 
L 346.382154 117.354592 
z
" clip-path="url(#pbfbafab334)" style="fill: #f49f7b"/>
   </g>
   <g id="patch_455">
    <path d="M 346.947618 134.934386 
L 347.13226 134.934386 
L 347.13226 117.354592 
L 346.947618 117.354592 
z
" clip-path="url(#pbfbafab334)" style="fill: #59595c"/>
   </g>
   <g id="patch_456">
    <path d="M 347.13226 134.934386 
L 347.501543 134.934386 
L 347.501543 117.354592 
L 347.13226 117.354592 
z
" clip-path="url(#pbfbafab334)" style="fill: #f49f7b"/>
   </g>
   <g id="patch_457">
    <path d="M 347.501543 134.934386 
L 347.801585 134.934386 
L 347.801585 117.354592 
L 347.501543 117.354592 
z
" clip-path="url(#pbfbafab334)" style="fill: #59595c"/>
   </g>
   <g id="patch_458">
    <path d="M 347.801585 134.934386 
L 348.661322 134.934386 
L 348.661322 117.354592 
L 347.801585 117.354592 
z
" clip-path="url(#pbfbafab334)" style="fill: #f49f7b"/>
   </g>
   <g id="patch_459">
    <path d="M 348.661322 134.934386 
L 355.995049 134.934386 
L 355.995049 117.354592 
L 348.661322 117.354592 
z
" clip-path="url(#pbfbafab334)" style="fill: #59595c"/>
   </g>
   <g id="patch_460">
    <path d="M 355.995049 134.934386 
L 356.041209 134.934386 
L 356.041209 117.354592 
L 355.995049 117.354592 
z
" clip-path="url(#pbfbafab334)" style="fill: #f49f7b"/>
   </g>
   <g id="patch_461">
    <path d="M 356.041209 134.934386 
L 357.102898 134.934386 
L 357.102898 117.354592 
L 356.041209 117.354592 
z
" clip-path="url(#pbfbafab334)" style="fill: #59595c"/>
   </g>
   <g id="patch_462">
    <path d="M 357.102898 134.934386 
L 360.195642 134.934386 
L 360.195642 117.354592 
L 357.102898 117.354592 
z
" clip-path="url(#pbfbafab334)" style="fill: #f49f7b"/>
   </g>
   <g id="patch_463">
    <path d="M 360.195642 134.934386 
L 362.313248 134.934386 
L 362.313248 117.354592 
L 360.195642 117.354592 
z
" clip-path="url(#pbfbafab334)" style="fill: #59595c"/>
   </g>
   <g id="patch_464">
    <path d="M 362.313248 134.934386 
L 362.774852 134.934386 
L 362.774852 117.354592 
L 362.313248 117.354592 
z
" clip-path="url(#pbfbafab334)" style="fill: #f49f7b"/>
   </g>
   <g id="patch_465">
    <path d="M 362.774852 134.934386 
L 363.825 134.934386 
L 363.825 117.354592 
L 362.774852 117.354592 
z
" clip-path="url(#pbfbafab334)" style="fill: #59595c"/>
   </g>
   <g id="matplotlib.axis_13"/>
   <g id="matplotlib.axis_14"/>
   <g id="text_10">
    <text style="font: 9px 'Arial'; text-anchor: end" x="32.8251" y="128.47113" transform="rotate(-0 32.8251 128.47113)">prediction</text>
   </g>
  </g>
  <g id="axes_8">
   <g id="matplotlib.axis_15"/>
   <g id="matplotlib.axis_16"/>
   <g id="text_11">
    <text style="font: 9px 'Arial'; text-anchor: start" x="36.75" y="145.057186" transform="rotate(-0 36.75 145.057186)">0</text>
   </g>
   <g id="text_12">
    <text style="font: 9px 'Arial'; text-anchor: end" x="363.825" y="145.057186" transform="rotate(-0 363.825 145.057186)">56685</text>
   </g>
   <g id="text_13">
    <text style="font: 10px 'Arial'; text-anchor: middle" x="200.2875" y="164.231751" transform="rotate(-0 200.2875 164.231751)">frames</text>
   </g>
  </g>
 </g>
 <defs>
  <clipPath id="pfb23818f64">
   <rect x="36.75" y="24.236625" width="327.075" height="17.579793"/>
  </clipPath>
  <clipPath id="p9a9fba40a4">
   <rect x="36.75" y="45.497187" width="327.075" height="17.579793"/>
  </clipPath>
  <clipPath id="p0b8ea437d0">
   <rect x="36.75" y="96.09403" width="327.075" height="17.579793"/>
  </clipPath>
  <clipPath id="pbfbafab334">
   <rect x="36.75" y="117.354592" width="327.075" height="17.579793"/>
  </clipPath>
 </defs>
</svg>
