<?xml version="1.0" encoding="utf-8" standalone="no"?>
<!DOCTYPE svg PUBLIC "-//W3C//DTD SVG 1.1//EN"
  "http://www.w3.org/Graphics/SVG/1.1/DTD/svg11.dtd">
<svg xmlns:xlink="http://www.w3.org/1999/xlink" width="390.299516pt" height="187.799853pt" viewBox="0 0 390.299516 187.799853" xmlns="http://www.w3.org/2000/svg" version="1.1">
 <metadata>
  <rdf:RDF xmlns:dc="http://purl.org/dc/elements/1.1/" xmlns:cc="http://creativecommons.org/ns#" xmlns:rdf="http://www.w3.org/1999/02/22-rdf-syntax-ns#">
   <cc:Work>
    <dc:type rdf:resource="http://purl.org/dc/dcmitype/StillImage"/>
    <dc:date>2026-05-13T18:18:08.320135</dc:date>
    <dc:format>image/svg+xml</dc:format>
    <dc:creator>
     <cc:Agent>
      <dc:title>Matplotlib v3.10.9, https://matplotlib.org/</dc:title>
     </cc:Agent>
    </dc:creator>
   </cc:Work>
  </rdf:RDF>
 </metadata>
 <defs>
  <style type="text/css">*{stroke-linejoin: round; stroke-linecap: butt}</style>
 </defs>
 <g id="figure_1">
  <g id="patch_1">
   <path d="M 0 187.799853 
L 390.299516 187.799853 
L 390.299516 0 
L 0 0 
z
" style="fill: #ffffff"/>
  </g>
  <g id="axes_1">
   <g id="matplotlib.axis_1"/>
   <g id="matplotlib.axis_2"/>
   <g id="text_1">
    <text style="font-style: italic; font-size: 10px; font-family: 'Arial'; text-anchor: start" x="57.244485" y="22.305552" transform="rotate(-0 57.244485 22.305552)">Example video 1: accuracy </text>
   </g>
   <g id="text_2">
    <text style="font-style: italic; font-weight: 700; font-size: 10px; font-family: 'Arial'; text-anchor: start" x="181.333512" y="22.353989" transform="rotate(-0 181.333512 22.353989)">93.9%</text>
   </g>
  </g>
  <g id="axes_2">
   <g id="patch_2">
    <path d="M 57.244485 46.454901 
L 58.187761 46.454901 
L 58.187761 31.128771 
L 57.244485 31.128771 
z
" clip-path="url(#p7617dea90e)" style="fill: #f49f7b"/>
   </g>
   <g id="patch_3">
    <path d="M 58.187761 46.454901 
L 62.138419 46.454901 
L 62.138419 31.128771 
L 58.187761 31.128771 
z
" clip-path="url(#p7617dea90e)" style="fill: #59595c"/>
   </g>
   <g id="patch_4">
    <path d="M 62.138419 46.454901 
L 62.6378 46.454901 
L 62.6378 31.128771 
L 62.138419 31.128771 
z
" clip-path="url(#p7617dea90e)" style="fill: #f49f7b"/>
   </g>
   <g id="patch_5">
    <path d="M 62.6378 46.454901 
L 68.258611 46.454901 
L 68.258611 31.128771 
L 62.6378 31.128771 
z
" clip-path="url(#p7617dea90e)" style="fill: #59595c"/>
   </g>
   <g id="patch_6">
    <path d="M 68.258611 46.454901 
L 68.841222 46.454901 
L 68.841222 31.128771 
L 68.258611 31.128771 
z
" clip-path="url(#p7617dea90e)" style="fill: #f49f7b"/>
   </g>
   <g id="patch_7">
    <path d="M 68.841222 46.454901 
L 111.738052 46.454901 
L 111.738052 31.128771 
L 68.841222 31.128771 
z
" clip-path="url(#p7617dea90e)" style="fill: #59595c"/>
   </g>
   <g id="patch_8">
    <path d="M 111.738052 46.454901 
L 112.403894 46.454901 
L 112.403894 31.128771 
L 111.738052 31.128771 
z
" clip-path="url(#p7617dea90e)" style="fill: #f49f7b"/>
   </g>
   <g id="patch_9">
    <path d="M 112.403894 46.454901 
L 119.861317 46.454901 
L 119.861317 31.128771 
L 112.403894 31.128771 
z
" clip-path="url(#p7617dea90e)" style="fill: #59595c"/>
   </g>
   <g id="patch_10">
    <path d="M 119.861317 46.454901 
L 120.277468 46.454901 
L 120.277468 31.128771 
L 119.861317 31.128771 
z
" clip-path="url(#p7617dea90e)" style="fill: #f49f7b"/>
   </g>
   <g id="patch_11">
    <path d="M 120.277468 46.454901 
L 126.686191 46.454901 
L 126.686191 31.128771 
L 120.277468 31.128771 
z
" clip-path="url(#p7617dea90e)" style="fill: #59595c"/>
   </g>
   <g id="patch_12">
    <path d="M 126.686191 46.454901 
L 127.102342 46.454901 
L 127.102342 31.128771 
L 126.686191 31.128771 
z
" clip-path="url(#p7617dea90e)" style="fill: #f49f7b"/>
   </g>
   <g id="patch_13">
    <path d="M 127.102342 46.454901 
L 140.790931 46.454901 
L 140.790931 31.128771 
L 127.102342 31.128771 
z
" clip-path="url(#p7617dea90e)" style="fill: #59595c"/>
   </g>
   <g id="patch_14">
    <path d="M 140.790931 46.454901 
L 141.251471 46.454901 
L 141.251471 31.128771 
L 140.790931 31.128771 
z
" clip-path="url(#p7617dea90e)" style="fill: #f49f7b"/>
   </g>
   <g id="patch_15">
    <path d="M 141.251471 46.454901 
L 143.165765 46.454901 
L 143.165765 31.128771 
L 141.251471 31.128771 
z
" clip-path="url(#p7617dea90e)" style="fill: #59595c"/>
   </g>
   <g id="patch_16">
    <path d="M 143.165765 46.454901 
L 144.913598 46.454901 
L 144.913598 31.128771 
L 143.165765 31.128771 
z
" clip-path="url(#p7617dea90e)" style="fill: #f49f7b"/>
   </g>
   <g id="patch_17">
    <path d="M 144.913598 46.454901 
L 147.615805 46.454901 
L 147.615805 31.128771 
L 144.913598 31.128771 
z
" clip-path="url(#p7617dea90e)" style="fill: #59595c"/>
   </g>
   <g id="patch_18">
    <path d="M 147.615805 46.454901 
L 149.740948 46.454901 
L 149.740948 31.128771 
L 147.615805 31.128771 
z
" clip-path="url(#p7617dea90e)" style="fill: #f49f7b"/>
   </g>
   <g id="patch_19">
    <path d="M 149.740948 46.454901 
L 151.860543 46.454901 
L 151.860543 31.128771 
L 149.740948 31.128771 
z
" clip-path="url(#p7617dea90e)" style="fill: #59595c"/>
   </g>
   <g id="patch_20">
    <path d="M 151.860543 46.454901 
L 152.071393 46.454901 
L 152.071393 31.128771 
L 151.860543 31.128771 
z
" clip-path="url(#p7617dea90e)" style="fill: #f49f7b"/>
   </g>
   <g id="patch_21">
    <path d="M 152.071393 46.454901 
L 157.531292 46.454901 
L 157.531292 31.128771 
L 152.071393 31.128771 
z
" clip-path="url(#p7617dea90e)" style="fill: #59595c"/>
   </g>
   <g id="patch_22">
    <path d="M 157.531292 46.454901 
L 157.697753 46.454901 
L 157.697753 31.128771 
L 157.531292 31.128771 
z
" clip-path="url(#p7617dea90e)" style="fill: #f49f7b"/>
   </g>
   <g id="patch_23">
    <path d="M 157.697753 46.454901 
L 158.613284 46.454901 
L 158.613284 31.128771 
L 157.697753 31.128771 
z
" clip-path="url(#p7617dea90e)" style="fill: #59595c"/>
   </g>
   <g id="patch_24">
    <path d="M 158.613284 46.454901 
L 160.233498 46.454901 
L 160.233498 31.128771 
L 158.613284 31.128771 
z
" clip-path="url(#p7617dea90e)" style="fill: #f49f7b"/>
   </g>
   <g id="patch_25">
    <path d="M 160.233498 46.454901 
L 164.145316 46.454901 
L 164.145316 31.128771 
L 160.233498 31.128771 
z
" clip-path="url(#p7617dea90e)" style="fill: #59595c"/>
   </g>
   <g id="patch_26">
    <path d="M 164.145316 46.454901 
L 164.356166 46.454901 
L 164.356166 31.128771 
L 164.145316 31.128771 
z
" clip-path="url(#p7617dea90e)" style="fill: #f49f7b"/>
   </g>
   <g id="patch_27">
    <path d="M 164.356166 46.454901 
L 170.55404 46.454901 
L 170.55404 31.128771 
L 164.356166 31.128771 
z
" clip-path="url(#p7617dea90e)" style="fill: #59595c"/>
   </g>
   <g id="patch_28">
    <path d="M 170.55404 46.454901 
L 171.802492 46.454901 
L 171.802492 31.128771 
L 170.55404 31.128771 
z
" clip-path="url(#p7617dea90e)" style="fill: #f49f7b"/>
   </g>
   <g id="patch_29">
    <path d="M 171.802492 46.454901 
L 183.665566 46.454901 
L 183.665566 31.128771 
L 171.802492 31.128771 
z
" clip-path="url(#p7617dea90e)" style="fill: #59595c"/>
   </g>
   <g id="patch_30">
    <path d="M 183.665566 46.454901 
L 185.119319 46.454901 
L 185.119319 31.128771 
L 183.665566 31.128771 
z
" clip-path="url(#p7617dea90e)" style="fill: #f49f7b"/>
   </g>
   <g id="patch_31">
    <path d="M 185.119319 46.454901 
L 188.226579 46.454901 
L 188.226579 31.128771 
L 185.119319 31.128771 
z
" clip-path="url(#p7617dea90e)" style="fill: #59595c"/>
   </g>
   <g id="patch_32">
    <path d="M 188.226579 46.454901 
L 188.34865 46.454901 
L 188.34865 31.128771 
L 188.226579 31.128771 
z
" clip-path="url(#p7617dea90e)" style="fill: #f49f7b"/>
   </g>
   <g id="patch_33">
    <path d="M 188.34865 46.454901 
L 201.044025 46.454901 
L 201.044025 31.128771 
L 188.34865 31.128771 
z
" clip-path="url(#p7617dea90e)" style="fill: #59595c"/>
   </g>
   <g id="patch_34">
    <path d="M 201.044025 46.454901 
L 201.626637 46.454901 
L 201.626637 31.128771 
L 201.044025 31.128771 
z
" clip-path="url(#p7617dea90e)" style="fill: #f49f7b"/>
   </g>
   <g id="patch_35">
    <path d="M 201.626637 46.454901 
L 210.537813 46.454901 
L 210.537813 31.128771 
L 201.626637 31.128771 
z
" clip-path="url(#p7617dea90e)" style="fill: #59595c"/>
   </g>
   <g id="patch_36">
    <path d="M 210.537813 46.454901 
L 211.164814 46.454901 
L 211.164814 31.128771 
L 210.537813 31.128771 
z
" clip-path="url(#p7617dea90e)" style="fill: #91d1bc"/>
   </g>
   <g id="patch_37">
    <path d="M 211.164814 46.454901 
L 214.460729 46.454901 
L 214.460729 31.128771 
L 211.164814 31.128771 
z
" clip-path="url(#p7617dea90e)" style="fill: #59595c"/>
   </g>
   <g id="patch_38">
    <path d="M 214.460729 46.454901 
L 216.957634 46.454901 
L 216.957634 31.128771 
L 214.460729 31.128771 
z
" clip-path="url(#p7617dea90e)" style="fill: #f49f7b"/>
   </g>
   <g id="patch_39">
    <path d="M 216.957634 46.454901 
L 218.788698 46.454901 
L 218.788698 31.128771 
L 216.957634 31.128771 
z
" clip-path="url(#p7617dea90e)" style="fill: #59595c"/>
   </g>
   <g id="patch_40">
    <path d="M 218.788698 46.454901 
L 219.038388 46.454901 
L 219.038388 31.128771 
L 218.788698 31.128771 
z
" clip-path="url(#p7617dea90e)" style="fill: #f49f7b"/>
   </g>
   <g id="patch_41">
    <path d="M 219.038388 46.454901 
L 230.024771 46.454901 
L 230.024771 31.128771 
L 219.038388 31.128771 
z
" clip-path="url(#p7617dea90e)" style="fill: #59595c"/>
   </g>
   <g id="patch_42">
    <path d="M 230.024771 46.454901 
L 230.940303 46.454901 
L 230.940303 31.128771 
L 230.024771 31.128771 
z
" clip-path="url(#p7617dea90e)" style="fill: #f49f7b"/>
   </g>
   <g id="patch_43">
    <path d="M 230.940303 46.454901 
L 232.771366 46.454901 
L 232.771366 31.128771 
L 230.940303 31.128771 
z
" clip-path="url(#p7617dea90e)" style="fill: #59595c"/>
   </g>
   <g id="patch_44">
    <path d="M 232.771366 46.454901 
L 235.800945 46.454901 
L 235.800945 31.128771 
L 232.771366 31.128771 
z
" clip-path="url(#p7617dea90e)" style="fill: #f49f7b"/>
   </g>
   <g id="patch_45">
    <path d="M 235.800945 46.454901 
L 239.235576 46.454901 
L 239.235576 31.128771 
L 235.800945 31.128771 
z
" clip-path="url(#p7617dea90e)" style="fill: #59595c"/>
   </g>
   <g id="patch_46">
    <path d="M 239.235576 46.454901 
L 240.445188 46.454901 
L 240.445188 31.128771 
L 239.235576 31.128771 
z
" clip-path="url(#p7617dea90e)" style="fill: #f49f7b"/>
   </g>
   <g id="patch_47">
    <path d="M 240.445188 46.454901 
L 240.911277 46.454901 
L 240.911277 31.128771 
L 240.445188 31.128771 
z
" clip-path="url(#p7617dea90e)" style="fill: #59595c"/>
   </g>
   <g id="patch_48">
    <path d="M 240.911277 46.454901 
L 242.076499 46.454901 
L 242.076499 31.128771 
L 240.911277 31.128771 
z
" clip-path="url(#p7617dea90e)" style="fill: #f49f7b"/>
   </g>
   <g id="patch_49">
    <path d="M 242.076499 46.454901 
L 243.413731 46.454901 
L 243.413731 31.128771 
L 242.076499 31.128771 
z
" clip-path="url(#p7617dea90e)" style="fill: #59595c"/>
   </g>
   <g id="patch_50">
    <path d="M 243.413731 46.454901 
L 245.622105 46.454901 
L 245.622105 31.128771 
L 243.413731 31.128771 
z
" clip-path="url(#p7617dea90e)" style="fill: #f49f7b"/>
   </g>
   <g id="patch_51">
    <path d="M 245.622105 46.454901 
L 246.121486 46.454901 
L 246.121486 31.128771 
L 245.622105 31.128771 
z
" clip-path="url(#p7617dea90e)" style="fill: #59595c"/>
   </g>
   <g id="patch_52">
    <path d="M 246.121486 46.454901 
L 246.637513 46.454901 
L 246.637513 31.128771 
L 246.121486 31.128771 
z
" clip-path="url(#p7617dea90e)" style="fill: #f49f7b"/>
   </g>
   <g id="patch_53">
    <path d="M 246.637513 46.454901 
L 247.053664 46.454901 
L 247.053664 31.128771 
L 246.637513 31.128771 
z
" clip-path="url(#p7617dea90e)" style="fill: #59595c"/>
   </g>
   <g id="patch_54">
    <path d="M 247.053664 46.454901 
L 247.885965 46.454901 
L 247.885965 31.128771 
L 247.053664 31.128771 
z
" clip-path="url(#p7617dea90e)" style="fill: #f49f7b"/>
   </g>
   <g id="patch_55">
    <path d="M 247.885965 46.454901 
L 248.551807 46.454901 
L 248.551807 31.128771 
L 247.885965 31.128771 
z
" clip-path="url(#p7617dea90e)" style="fill: #59595c"/>
   </g>
   <g id="patch_56">
    <path d="M 248.551807 46.454901 
L 248.923568 46.454901 
L 248.923568 31.128771 
L 248.551807 31.128771 
z
" clip-path="url(#p7617dea90e)" style="fill: #f49f7b"/>
   </g>
   <g id="patch_57">
    <path d="M 248.923568 46.454901 
L 249.67264 46.454901 
L 249.67264 31.128771 
L 248.923568 31.128771 
z
" clip-path="url(#p7617dea90e)" style="fill: #59595c"/>
   </g>
   <g id="patch_58">
    <path d="M 249.67264 46.454901 
L 250.466101 46.454901 
L 250.466101 31.128771 
L 249.67264 31.128771 
z
" clip-path="url(#p7617dea90e)" style="fill: #f49f7b"/>
   </g>
   <g id="patch_59">
    <path d="M 250.466101 46.454901 
L 251.215172 46.454901 
L 251.215172 31.128771 
L 250.466101 31.128771 
z
" clip-path="url(#p7617dea90e)" style="fill: #59595c"/>
   </g>
   <g id="patch_60">
    <path d="M 251.215172 46.454901 
L 252.213934 46.454901 
L 252.213934 31.128771 
L 251.215172 31.128771 
z
" clip-path="url(#p7617dea90e)" style="fill: #f49f7b"/>
   </g>
   <g id="patch_61">
    <path d="M 252.213934 46.454901 
L 256.003681 46.454901 
L 256.003681 31.128771 
L 252.213934 31.128771 
z
" clip-path="url(#p7617dea90e)" style="fill: #59595c"/>
   </g>
   <g id="patch_62">
    <path d="M 256.003681 46.454901 
L 256.51416 46.454901 
L 256.51416 31.128771 
L 256.003681 31.128771 
z
" clip-path="url(#p7617dea90e)" style="fill: #f49f7b"/>
   </g>
   <g id="patch_63">
    <path d="M 256.51416 46.454901 
L 256.725009 46.454901 
L 256.725009 31.128771 
L 256.51416 31.128771 
z
" clip-path="url(#p7617dea90e)" style="fill: #59595c"/>
   </g>
   <g id="patch_64">
    <path d="M 256.725009 46.454901 
L 257.307621 46.454901 
L 257.307621 31.128771 
L 256.725009 31.128771 
z
" clip-path="url(#p7617dea90e)" style="fill: #f49f7b"/>
   </g>
   <g id="patch_65">
    <path d="M 257.307621 46.454901 
L 257.557311 46.454901 
L 257.557311 31.128771 
L 257.307621 31.128771 
z
" clip-path="url(#p7617dea90e)" style="fill: #59595c"/>
   </g>
   <g id="patch_66">
    <path d="M 257.557311 46.454901 
L 259.305145 46.454901 
L 259.305145 31.128771 
L 257.557311 31.128771 
z
" clip-path="url(#p7617dea90e)" style="fill: #f49f7b"/>
   </g>
   <g id="patch_67">
    <path d="M 259.305145 46.454901 
L 261.71882 46.454901 
L 261.71882 31.128771 
L 259.305145 31.128771 
z
" clip-path="url(#p7617dea90e)" style="fill: #59595c"/>
   </g>
   <g id="patch_68">
    <path d="M 261.71882 46.454901 
L 270.208297 46.454901 
L 270.208297 31.128771 
L 261.71882 31.128771 
z
" clip-path="url(#p7617dea90e)" style="fill: #f49f7b"/>
   </g>
   <g id="patch_69">
    <path d="M 270.208297 46.454901 
L 273.620734 46.454901 
L 273.620734 31.128771 
L 270.208297 31.128771 
z
" clip-path="url(#p7617dea90e)" style="fill: #59595c"/>
   </g>
   <g id="patch_70">
    <path d="M 273.620734 46.454901 
L 274.453036 46.454901 
L 274.453036 31.128771 
L 273.620734 31.128771 
z
" clip-path="url(#p7617dea90e)" style="fill: #f49f7b"/>
   </g>
   <g id="patch_71">
    <path d="M 274.453036 46.454901 
L 280.534387 46.454901 
L 280.534387 31.128771 
L 274.453036 31.128771 
z
" clip-path="url(#p7617dea90e)" style="fill: #59595c"/>
   </g>
   <g id="patch_72">
    <path d="M 280.534387 46.454901 
L 281.449919 46.454901 
L 281.449919 31.128771 
L 280.534387 31.128771 
z
" clip-path="url(#p7617dea90e)" style="fill: #f49f7b"/>
   </g>
   <g id="patch_73">
    <path d="M 281.449919 46.454901 
L 284.362975 46.454901 
L 284.362975 31.128771 
L 281.449919 31.128771 
z
" clip-path="url(#p7617dea90e)" style="fill: #59595c"/>
   </g>
   <g id="patch_74">
    <path d="M 284.362975 46.454901 
L 285.905507 46.454901 
L 285.905507 31.128771 
L 284.362975 31.128771 
z
" clip-path="url(#p7617dea90e)" style="fill: #f49f7b"/>
   </g>
   <g id="patch_75">
    <path d="M 285.905507 46.454901 
L 286.526959 46.454901 
L 286.526959 31.128771 
L 285.905507 31.128771 
z
" clip-path="url(#p7617dea90e)" style="fill: #59595c"/>
   </g>
   <g id="patch_76">
    <path d="M 286.526959 46.454901 
L 287.608951 46.454901 
L 287.608951 31.128771 
L 286.526959 31.128771 
z
" clip-path="url(#p7617dea90e)" style="fill: #f49f7b"/>
   </g>
   <g id="patch_77">
    <path d="M 287.608951 46.454901 
L 288.524483 46.454901 
L 288.524483 31.128771 
L 287.608951 31.128771 
z
" clip-path="url(#p7617dea90e)" style="fill: #59595c"/>
   </g>
   <g id="patch_78">
    <path d="M 288.524483 46.454901 
L 289.234714 46.454901 
L 289.234714 31.128771 
L 288.524483 31.128771 
z
" clip-path="url(#p7617dea90e)" style="fill: #f49f7b"/>
   </g>
   <g id="patch_79">
    <path d="M 289.234714 46.454901 
L 295.266127 46.454901 
L 295.266127 31.128771 
L 289.234714 31.128771 
z
" clip-path="url(#p7617dea90e)" style="fill: #59595c"/>
   </g>
   <g id="patch_80">
    <path d="M 295.266127 46.454901 
L 295.976358 46.454901 
L 295.976358 31.128771 
L 295.266127 31.128771 
z
" clip-path="url(#p7617dea90e)" style="fill: #f49f7b"/>
   </g>
   <g id="patch_81">
    <path d="M 295.976358 46.454901 
L 300.010247 46.454901 
L 300.010247 31.128771 
L 295.976358 31.128771 
z
" clip-path="url(#p7617dea90e)" style="fill: #59595c"/>
   </g>
   <g id="patch_82">
    <path d="M 300.010247 46.454901 
L 300.676088 46.454901 
L 300.676088 31.128771 
L 300.010247 31.128771 
z
" clip-path="url(#p7617dea90e)" style="fill: #f49f7b"/>
   </g>
   <g id="patch_83">
    <path d="M 300.676088 46.454901 
L 305.520084 46.454901 
L 305.520084 31.128771 
L 300.676088 31.128771 
z
" clip-path="url(#p7617dea90e)" style="fill: #59595c"/>
   </g>
   <g id="patch_84">
    <path d="M 305.520084 46.454901 
L 335.616114 46.454901 
L 335.616114 31.128771 
L 305.520084 31.128771 
z
" clip-path="url(#p7617dea90e)" style="fill: #91d1bc"/>
   </g>
   <g id="patch_85">
    <path d="M 335.616114 46.454901 
L 341.475518 46.454901 
L 341.475518 31.128771 
L 335.616114 31.128771 
z
" clip-path="url(#p7617dea90e)" style="fill: #59595c"/>
   </g>
   <g id="patch_86">
    <path d="M 341.475518 46.454901 
L 342.601899 46.454901 
L 342.601899 31.128771 
L 341.475518 31.128771 
z
" clip-path="url(#p7617dea90e)" style="fill: #f49f7b"/>
   </g>
   <g id="patch_87">
    <path d="M 342.601899 46.454901 
L 348.283746 46.454901 
L 348.283746 31.128771 
L 342.601899 31.128771 
z
" clip-path="url(#p7617dea90e)" style="fill: #59595c"/>
   </g>
   <g id="patch_88">
    <path d="M 348.283746 46.454901 
L 349.116047 46.454901 
L 349.116047 31.128771 
L 348.283746 31.128771 
z
" clip-path="url(#p7617dea90e)" style="fill: #f49f7b"/>
   </g>
   <g id="patch_89">
    <path d="M 349.116047 46.454901 
L 350.408889 46.454901 
L 350.408889 31.128771 
L 349.116047 31.128771 
z
" clip-path="url(#p7617dea90e)" style="fill: #59595c"/>
   </g>
   <g id="patch_90">
    <path d="M 350.408889 46.454901 
L 350.902722 46.454901 
L 350.902722 31.128771 
L 350.408889 31.128771 
z
" clip-path="url(#p7617dea90e)" style="fill: #f49f7b"/>
   </g>
   <g id="patch_91">
    <path d="M 350.902722 46.454901 
L 352.195564 46.454901 
L 352.195564 31.128771 
L 350.902722 31.128771 
z
" clip-path="url(#p7617dea90e)" style="fill: #59595c"/>
   </g>
   <g id="patch_92">
    <path d="M 352.195564 46.454901 
L 352.611715 46.454901 
L 352.611715 31.128771 
L 352.195564 31.128771 
z
" clip-path="url(#p7617dea90e)" style="fill: #f49f7b"/>
   </g>
   <g id="patch_93">
    <path d="M 352.611715 46.454901 
L 353.277556 46.454901 
L 353.277556 31.128771 
L 352.611715 31.128771 
z
" clip-path="url(#p7617dea90e)" style="fill: #59595c"/>
   </g>
   <g id="patch_94">
    <path d="M 353.277556 46.454901 
L 353.738096 46.454901 
L 353.738096 31.128771 
L 353.277556 31.128771 
z
" clip-path="url(#p7617dea90e)" style="fill: #f49f7b"/>
   </g>
   <g id="patch_95">
    <path d="M 353.738096 46.454901 
L 356.229453 46.454901 
L 356.229453 31.128771 
L 353.738096 31.128771 
z
" clip-path="url(#p7617dea90e)" style="fill: #59595c"/>
   </g>
   <g id="patch_96">
    <path d="M 356.229453 46.454901 
L 357.189374 46.454901 
L 357.189374 31.128771 
L 356.229453 31.128771 
z
" clip-path="url(#p7617dea90e)" style="fill: #f49f7b"/>
   </g>
   <g id="patch_97">
    <path d="M 357.189374 46.454901 
L 359.148057 46.454901 
L 359.148057 31.128771 
L 357.189374 31.128771 
z
" clip-path="url(#p7617dea90e)" style="fill: #59595c"/>
   </g>
   <g id="patch_98">
    <path d="M 359.148057 46.454901 
L 360.601811 46.454901 
L 360.601811 31.128771 
L 359.148057 31.128771 
z
" clip-path="url(#p7617dea90e)" style="fill: #f49f7b"/>
   </g>
   <g id="patch_99">
    <path d="M 360.601811 46.454901 
L 364.596859 46.454901 
L 364.596859 31.128771 
L 360.601811 31.128771 
z
" clip-path="url(#p7617dea90e)" style="fill: #59595c"/>
   </g>
   <g id="patch_100">
    <path d="M 364.596859 46.454901 
L 365.2627 46.454901 
L 365.2627 31.128771 
L 364.596859 31.128771 
z
" clip-path="url(#p7617dea90e)" style="fill: #f49f7b"/>
   </g>
   <g id="patch_101">
    <path d="M 365.2627 46.454901 
L 366.305852 46.454901 
L 366.305852 31.128771 
L 365.2627 31.128771 
z
" clip-path="url(#p7617dea90e)" style="fill: #59595c"/>
   </g>
   <g id="patch_102">
    <path d="M 366.305852 46.454901 
L 367.304614 46.454901 
L 367.304614 31.128771 
L 366.305852 31.128771 
z
" clip-path="url(#p7617dea90e)" style="fill: #f49f7b"/>
   </g>
   <g id="patch_103">
    <path d="M 367.304614 46.454901 
L 375.899516 46.454901 
L 375.899516 31.128771 
L 367.304614 31.128771 
z
" clip-path="url(#p7617dea90e)" style="fill: #59595c"/>
   </g>
   <g id="matplotlib.axis_3"/>
   <g id="matplotlib.axis_4"/>
   <g id="text_3">
    <text style="font-size: 9px; font-family: 'Arial'; text-anchor: end" x="53.420625" y="41.118477" transform="rotate(-0 53.420625 41.118477)">labels</text>
   </g>
  </g>
  <g id="axes_3">
   <g id="patch_104">
    <path d="M 57.244485 67.781511 
L 58.23215 67.781511 
L 58.23215 52.455381 
L 57.244485 52.455381 
z
" clip-path="url(#pbc13a87f8e)" style="fill: #f49f7b"/>
   </g>
   <g id="patch_105">
    <path d="M 58.23215 67.781511 
L 58.909089 67.781511 
L 58.909089 52.455381 
L 58.23215 52.455381 
z
" clip-path="url(#pbc13a87f8e)" style="fill: #59595c"/>
   </g>
   <g id="patch_106">
    <path d="M 58.909089 67.781511 
L 59.19762 67.781511 
L 59.19762 52.455381 
L 58.909089 52.455381 
z
" clip-path="url(#pbc13a87f8e)" style="fill: #f49f7b"/>
   </g>
   <g id="patch_107">
    <path d="M 59.19762 67.781511 
L 62.182809 67.781511 
L 62.182809 52.455381 
L 59.19762 52.455381 
z
" clip-path="url(#pbc13a87f8e)" style="fill: #59595c"/>
   </g>
   <g id="patch_108">
    <path d="M 62.182809 67.781511 
L 62.6378 67.781511 
L 62.6378 52.455381 
L 62.182809 52.455381 
z
" clip-path="url(#pbc13a87f8e)" style="fill: #f49f7b"/>
   </g>
   <g id="patch_109">
    <path d="M 62.6378 67.781511 
L 68.253063 67.781511 
L 68.253063 52.455381 
L 62.6378 52.455381 
z
" clip-path="url(#pbc13a87f8e)" style="fill: #59595c"/>
   </g>
   <g id="patch_110">
    <path d="M 68.253063 67.781511 
L 68.902258 67.781511 
L 68.902258 52.455381 
L 68.253063 52.455381 
z
" clip-path="url(#pbc13a87f8e)" style="fill: #f49f7b"/>
   </g>
   <g id="patch_111">
    <path d="M 68.902258 67.781511 
L 109.85705 67.781511 
L 109.85705 52.455381 
L 68.902258 52.455381 
z
" clip-path="url(#pbc13a87f8e)" style="fill: #59595c"/>
   </g>
   <g id="patch_112">
    <path d="M 109.85705 67.781511 
L 110.295396 67.781511 
L 110.295396 52.455381 
L 109.85705 52.455381 
z
" clip-path="url(#pbc13a87f8e)" style="fill: #f49f7b"/>
   </g>
   <g id="patch_113">
    <path d="M 110.295396 67.781511 
L 111.821283 67.781511 
L 111.821283 52.455381 
L 110.295396 52.455381 
z
" clip-path="url(#pbc13a87f8e)" style="fill: #59595c"/>
   </g>
   <g id="patch_114">
    <path d="M 111.821283 67.781511 
L 111.932256 67.781511 
L 111.932256 52.455381 
L 111.821283 52.455381 
z
" clip-path="url(#pbc13a87f8e)" style="fill: #f49f7b"/>
   </g>
   <g id="patch_115">
    <path d="M 111.932256 67.781511 
L 112.109814 67.781511 
L 112.109814 52.455381 
L 111.932256 52.455381 
z
" clip-path="url(#pbc13a87f8e)" style="fill: #59595c"/>
   </g>
   <g id="patch_116">
    <path d="M 112.109814 67.781511 
L 112.115362 67.781511 
L 112.115362 52.455381 
L 112.109814 52.455381 
z
" clip-path="url(#pbc13a87f8e)" style="fill: #f49f7b"/>
   </g>
   <g id="patch_117">
    <path d="M 112.115362 67.781511 
L 112.120911 67.781511 
L 112.120911 52.455381 
L 112.115362 52.455381 
z
" clip-path="url(#pbc13a87f8e)" style="fill: #59595c"/>
   </g>
   <g id="patch_118">
    <path d="M 112.120911 67.781511 
L 112.159752 67.781511 
L 112.159752 52.455381 
L 112.120911 52.455381 
z
" clip-path="url(#pbc13a87f8e)" style="fill: #f49f7b"/>
   </g>
   <g id="patch_119">
    <path d="M 112.159752 67.781511 
L 112.165301 67.781511 
L 112.165301 52.455381 
L 112.159752 52.455381 
z
" clip-path="url(#pbc13a87f8e)" style="fill: #59595c"/>
   </g>
   <g id="patch_120">
    <path d="M 112.165301 67.781511 
L 112.387248 67.781511 
L 112.387248 52.455381 
L 112.165301 52.455381 
z
" clip-path="url(#pbc13a87f8e)" style="fill: #f49f7b"/>
   </g>
   <g id="patch_121">
    <path d="M 112.387248 67.781511 
L 126.780518 67.781511 
L 126.780518 52.455381 
L 112.387248 52.455381 
z
" clip-path="url(#pbc13a87f8e)" style="fill: #59595c"/>
   </g>
   <g id="patch_122">
    <path d="M 126.780518 67.781511 
L 126.847103 67.781511 
L 126.847103 52.455381 
L 126.780518 52.455381 
z
" clip-path="url(#pbc13a87f8e)" style="fill: #f49f7b"/>
   </g>
   <g id="patch_123">
    <path d="M 126.847103 67.781511 
L 140.785382 67.781511 
L 140.785382 52.455381 
L 126.847103 52.455381 
z
" clip-path="url(#pbc13a87f8e)" style="fill: #59595c"/>
   </g>
   <g id="patch_124">
    <path d="M 140.785382 67.781511 
L 141.240373 67.781511 
L 141.240373 52.455381 
L 140.785382 52.455381 
z
" clip-path="url(#pbc13a87f8e)" style="fill: #f49f7b"/>
   </g>
   <g id="patch_125">
    <path d="M 141.240373 67.781511 
L 143.149119 67.781511 
L 143.149119 52.455381 
L 141.240373 52.455381 
z
" clip-path="url(#pbc13a87f8e)" style="fill: #59595c"/>
   </g>
   <g id="patch_126">
    <path d="M 143.149119 67.781511 
L 144.902501 67.781511 
L 144.902501 52.455381 
L 143.149119 52.455381 
z
" clip-path="url(#pbc13a87f8e)" style="fill: #f49f7b"/>
   </g>
   <g id="patch_127">
    <path d="M 144.902501 67.781511 
L 147.621353 67.781511 
L 147.621353 52.455381 
L 144.902501 52.455381 
z
" clip-path="url(#pbc13a87f8e)" style="fill: #59595c"/>
   </g>
   <g id="patch_128">
    <path d="M 147.621353 67.781511 
L 149.641072 67.781511 
L 149.641072 52.455381 
L 147.621353 52.455381 
z
" clip-path="url(#pbc13a87f8e)" style="fill: #f49f7b"/>
   </g>
   <g id="patch_129">
    <path d="M 149.641072 67.781511 
L 152.415411 67.781511 
L 152.415411 52.455381 
L 149.641072 52.455381 
z
" clip-path="url(#pbc13a87f8e)" style="fill: #59595c"/>
   </g>
   <g id="patch_130">
    <path d="M 152.415411 67.781511 
L 152.770526 67.781511 
L 152.770526 52.455381 
L 152.415411 52.455381 
z
" clip-path="url(#pbc13a87f8e)" style="fill: #f49f7b"/>
   </g>
   <g id="patch_131">
    <path d="M 152.770526 67.781511 
L 152.948084 67.781511 
L 152.948084 52.455381 
L 152.770526 52.455381 
z
" clip-path="url(#pbc13a87f8e)" style="fill: #59595c"/>
   </g>
   <g id="patch_132">
    <path d="M 152.948084 67.781511 
L 153.292102 67.781511 
L 153.292102 52.455381 
L 152.948084 52.455381 
z
" clip-path="url(#pbc13a87f8e)" style="fill: #f49f7b"/>
   </g>
   <g id="patch_133">
    <path d="M 153.292102 67.781511 
L 158.62993 67.781511 
L 158.62993 52.455381 
L 153.292102 52.455381 
z
" clip-path="url(#pbc13a87f8e)" style="fill: #59595c"/>
   </g>
   <g id="patch_134">
    <path d="M 158.62993 67.781511 
L 160.22795 67.781511 
L 160.22795 52.455381 
L 158.62993 52.455381 
z
" clip-path="url(#pbc13a87f8e)" style="fill: #f49f7b"/>
   </g>
   <g id="patch_135">
    <path d="M 160.22795 67.781511 
L 164.189706 67.781511 
L 164.189706 52.455381 
L 160.22795 52.455381 
z
" clip-path="url(#pbc13a87f8e)" style="fill: #59595c"/>
   </g>
   <g id="patch_136">
    <path d="M 164.189706 67.781511 
L 164.239644 67.781511 
L 164.239644 52.455381 
L 164.189706 52.455381 
z
" clip-path="url(#pbc13a87f8e)" style="fill: #f49f7b"/>
   </g>
   <g id="patch_137">
    <path d="M 164.239644 67.781511 
L 170.526296 67.781511 
L 170.526296 52.455381 
L 164.239644 52.455381 
z
" clip-path="url(#pbc13a87f8e)" style="fill: #59595c"/>
   </g>
   <g id="patch_138">
    <path d="M 170.526296 67.781511 
L 171.669324 67.781511 
L 171.669324 52.455381 
L 170.526296 52.455381 
z
" clip-path="url(#pbc13a87f8e)" style="fill: #f49f7b"/>
   </g>
   <g id="patch_139">
    <path d="M 171.669324 67.781511 
L 183.843123 67.781511 
L 183.843123 52.455381 
L 171.669324 52.455381 
z
" clip-path="url(#pbc13a87f8e)" style="fill: #59595c"/>
   </g>
   <g id="patch_140">
    <path d="M 183.843123 67.781511 
L 184.020681 67.781511 
L 184.020681 52.455381 
L 183.843123 52.455381 
z
" clip-path="url(#pbc13a87f8e)" style="fill: #f49f7b"/>
   </g>
   <g id="patch_141">
    <path d="M 184.020681 67.781511 
L 184.553354 67.781511 
L 184.553354 52.455381 
L 184.020681 52.455381 
z
" clip-path="url(#pbc13a87f8e)" style="fill: #59595c"/>
   </g>
   <g id="patch_142">
    <path d="M 184.553354 67.781511 
L 185.086027 67.781511 
L 185.086027 52.455381 
L 184.553354 52.455381 
z
" clip-path="url(#pbc13a87f8e)" style="fill: #f49f7b"/>
   </g>
   <g id="patch_143">
    <path d="M 185.086027 67.781511 
L 210.654336 67.781511 
L 210.654336 52.455381 
L 185.086027 52.455381 
z
" clip-path="url(#pbc13a87f8e)" style="fill: #59595c"/>
   </g>
   <g id="patch_144">
    <path d="M 210.654336 67.781511 
L 211.575416 67.781511 
L 211.575416 52.455381 
L 210.654336 52.455381 
z
" clip-path="url(#pbc13a87f8e)" style="fill: #91d1bc"/>
   </g>
   <g id="patch_145">
    <path d="M 211.575416 67.781511 
L 211.625354 67.781511 
L 211.625354 52.455381 
L 211.575416 52.455381 
z
" clip-path="url(#pbc13a87f8e)" style="fill: #59595c"/>
   </g>
   <g id="patch_146">
    <path d="M 211.625354 67.781511 
L 211.630903 67.781511 
L 211.630903 52.455381 
L 211.625354 52.455381 
z
" clip-path="url(#pbc13a87f8e)" style="fill: #91d1bc"/>
   </g>
   <g id="patch_147">
    <path d="M 211.630903 67.781511 
L 211.658646 67.781511 
L 211.658646 52.455381 
L 211.630903 52.455381 
z
" clip-path="url(#pbc13a87f8e)" style="fill: #59595c"/>
   </g>
   <g id="patch_148">
    <path d="M 211.658646 67.781511 
L 211.664195 67.781511 
L 211.664195 52.455381 
L 211.658646 52.455381 
z
" clip-path="url(#pbc13a87f8e)" style="fill: #91d1bc"/>
   </g>
   <g id="patch_149">
    <path d="M 211.664195 67.781511 
L 211.708584 67.781511 
L 211.708584 52.455381 
L 211.664195 52.455381 
z
" clip-path="url(#pbc13a87f8e)" style="fill: #59595c"/>
   </g>
   <g id="patch_150">
    <path d="M 211.708584 67.781511 
L 211.714133 67.781511 
L 211.714133 52.455381 
L 211.708584 52.455381 
z
" clip-path="url(#pbc13a87f8e)" style="fill: #91d1bc"/>
   </g>
   <g id="patch_151">
    <path d="M 211.714133 67.781511 
L 211.719682 67.781511 
L 211.719682 52.455381 
L 211.714133 52.455381 
z
" clip-path="url(#pbc13a87f8e)" style="fill: #59595c"/>
   </g>
   <g id="patch_152">
    <path d="M 211.719682 67.781511 
L 211.924983 67.781511 
L 211.924983 52.455381 
L 211.719682 52.455381 
z
" clip-path="url(#pbc13a87f8e)" style="fill: #91d1bc"/>
   </g>
   <g id="patch_153">
    <path d="M 211.924983 67.781511 
L 214.516216 67.781511 
L 214.516216 52.455381 
L 211.924983 52.455381 
z
" clip-path="url(#pbc13a87f8e)" style="fill: #59595c"/>
   </g>
   <g id="patch_154">
    <path d="M 214.516216 67.781511 
L 216.940988 67.781511 
L 216.940988 52.455381 
L 214.516216 52.455381 
z
" clip-path="url(#pbc13a87f8e)" style="fill: #f49f7b"/>
   </g>
   <g id="patch_155">
    <path d="M 216.940988 67.781511 
L 218.7776 67.781511 
L 218.7776 52.455381 
L 216.940988 52.455381 
z
" clip-path="url(#pbc13a87f8e)" style="fill: #59595c"/>
   </g>
   <g id="patch_156">
    <path d="M 218.7776 67.781511 
L 218.999547 67.781511 
L 218.999547 52.455381 
L 218.7776 52.455381 
z
" clip-path="url(#pbc13a87f8e)" style="fill: #f49f7b"/>
   </g>
   <g id="patch_157">
    <path d="M 218.999547 67.781511 
L 229.830567 67.781511 
L 229.830567 52.455381 
L 218.999547 52.455381 
z
" clip-path="url(#pbc13a87f8e)" style="fill: #59595c"/>
   </g>
   <g id="patch_158">
    <path d="M 229.830567 67.781511 
L 230.962497 67.781511 
L 230.962497 52.455381 
L 229.830567 52.455381 
z
" clip-path="url(#pbc13a87f8e)" style="fill: #f49f7b"/>
   </g>
   <g id="patch_159">
    <path d="M 230.962497 67.781511 
L 232.810207 67.781511 
L 232.810207 52.455381 
L 230.962497 52.455381 
z
" clip-path="url(#pbc13a87f8e)" style="fill: #59595c"/>
   </g>
   <g id="patch_160">
    <path d="M 232.810207 67.781511 
L 235.812042 67.781511 
L 235.812042 52.455381 
L 232.810207 52.455381 
z
" clip-path="url(#pbc13a87f8e)" style="fill: #f49f7b"/>
   </g>
   <g id="patch_161">
    <path d="M 235.812042 67.781511 
L 239.241125 67.781511 
L 239.241125 52.455381 
L 235.812042 52.455381 
z
" clip-path="url(#pbc13a87f8e)" style="fill: #59595c"/>
   </g>
   <g id="patch_162">
    <path d="M 239.241125 67.781511 
L 240.434091 67.781511 
L 240.434091 52.455381 
L 239.241125 52.455381 
z
" clip-path="url(#pbc13a87f8e)" style="fill: #f49f7b"/>
   </g>
   <g id="patch_163">
    <path d="M 240.434091 67.781511 
L 240.839144 67.781511 
L 240.839144 52.455381 
L 240.434091 52.455381 
z
" clip-path="url(#pbc13a87f8e)" style="fill: #59595c"/>
   </g>
   <g id="patch_164">
    <path d="M 240.839144 67.781511 
L 242.082048 67.781511 
L 242.082048 52.455381 
L 240.839144 52.455381 
z
" clip-path="url(#pbc13a87f8e)" style="fill: #f49f7b"/>
   </g>
   <g id="patch_165">
    <path d="M 242.082048 67.781511 
L 243.324952 67.781511 
L 243.324952 52.455381 
L 242.082048 52.455381 
z
" clip-path="url(#pbc13a87f8e)" style="fill: #59595c"/>
   </g>
   <g id="patch_166">
    <path d="M 243.324952 67.781511 
L 245.771919 67.781511 
L 245.771919 52.455381 
L 243.324952 52.455381 
z
" clip-path="url(#pbc13a87f8e)" style="fill: #f49f7b"/>
   </g>
   <g id="patch_167">
    <path d="M 245.771919 67.781511 
L 245.955025 67.781511 
L 245.955025 52.455381 
L 245.771919 52.455381 
z
" clip-path="url(#pbc13a87f8e)" style="fill: #59595c"/>
   </g>
   <g id="patch_168">
    <path d="M 245.955025 67.781511 
L 246.681902 67.781511 
L 246.681902 52.455381 
L 245.955025 52.455381 
z
" clip-path="url(#pbc13a87f8e)" style="fill: #f49f7b"/>
   </g>
   <g id="patch_169">
    <path d="M 246.681902 67.781511 
L 247.02592 67.781511 
L 247.02592 52.455381 
L 246.681902 52.455381 
z
" clip-path="url(#pbc13a87f8e)" style="fill: #59595c"/>
   </g>
   <g id="patch_170">
    <path d="M 247.02592 67.781511 
L 247.858222 67.781511 
L 247.858222 52.455381 
L 247.02592 52.455381 
z
" clip-path="url(#pbc13a87f8e)" style="fill: #f49f7b"/>
   </g>
   <g id="patch_171">
    <path d="M 247.858222 67.781511 
L 248.562904 67.781511 
L 248.562904 52.455381 
L 247.858222 52.455381 
z
" clip-path="url(#pbc13a87f8e)" style="fill: #59595c"/>
   </g>
   <g id="patch_172">
    <path d="M 248.562904 67.781511 
L 248.762656 67.781511 
L 248.762656 52.455381 
L 248.562904 52.455381 
z
" clip-path="url(#pbc13a87f8e)" style="fill: #f49f7b"/>
   </g>
   <g id="patch_173">
    <path d="M 248.762656 67.781511 
L 249.539471 67.781511 
L 249.539471 52.455381 
L 248.762656 52.455381 
z
" clip-path="url(#pbc13a87f8e)" style="fill: #59595c"/>
   </g>
   <g id="patch_174">
    <path d="M 249.539471 67.781511 
L 250.527136 67.781511 
L 250.527136 52.455381 
L 249.539471 52.455381 
z
" clip-path="url(#pbc13a87f8e)" style="fill: #f49f7b"/>
   </g>
   <g id="patch_175">
    <path d="M 250.527136 67.781511 
L 251.192977 67.781511 
L 251.192977 52.455381 
L 250.527136 52.455381 
z
" clip-path="url(#pbc13a87f8e)" style="fill: #59595c"/>
   </g>
   <g id="patch_176">
    <path d="M 251.192977 67.781511 
L 252.31381 67.781511 
L 252.31381 52.455381 
L 251.192977 52.455381 
z
" clip-path="url(#pbc13a87f8e)" style="fill: #f49f7b"/>
   </g>
   <g id="patch_177">
    <path d="M 252.31381 67.781511 
L 255.892708 67.781511 
L 255.892708 52.455381 
L 252.31381 52.455381 
z
" clip-path="url(#pbc13a87f8e)" style="fill: #59595c"/>
   </g>
   <g id="patch_178">
    <path d="M 255.892708 67.781511 
L 256.641779 67.781511 
L 256.641779 52.455381 
L 255.892708 52.455381 
z
" clip-path="url(#pbc13a87f8e)" style="fill: #f49f7b"/>
   </g>
   <g id="patch_179">
    <path d="M 256.641779 67.781511 
L 256.725009 67.781511 
L 256.725009 52.455381 
L 256.641779 52.455381 
z
" clip-path="url(#pbc13a87f8e)" style="fill: #59595c"/>
   </g>
   <g id="patch_180">
    <path d="M 256.725009 67.781511 
L 259.305145 67.781511 
L 259.305145 52.455381 
L 256.725009 52.455381 
z
" clip-path="url(#pbc13a87f8e)" style="fill: #f49f7b"/>
   </g>
   <g id="patch_181">
    <path d="M 259.305145 67.781511 
L 261.613395 67.781511 
L 261.613395 52.455381 
L 259.305145 52.455381 
z
" clip-path="url(#pbc13a87f8e)" style="fill: #59595c"/>
   </g>
   <g id="patch_182">
    <path d="M 261.613395 67.781511 
L 269.603491 67.781511 
L 269.603491 52.455381 
L 261.613395 52.455381 
z
" clip-path="url(#pbc13a87f8e)" style="fill: #f49f7b"/>
   </g>
   <g id="patch_183">
    <path d="M 269.603491 67.781511 
L 273.626283 67.781511 
L 273.626283 52.455381 
L 269.603491 52.455381 
z
" clip-path="url(#pbc13a87f8e)" style="fill: #59595c"/>
   </g>
   <g id="patch_184">
    <path d="M 273.626283 67.781511 
L 273.864876 67.781511 
L 273.864876 52.455381 
L 273.626283 52.455381 
z
" clip-path="url(#pbc13a87f8e)" style="fill: #f49f7b"/>
   </g>
   <g id="patch_185">
    <path d="M 273.864876 67.781511 
L 273.953655 67.781511 
L 273.953655 52.455381 
L 273.864876 52.455381 
z
" clip-path="url(#pbc13a87f8e)" style="fill: #59595c"/>
   </g>
   <g id="patch_186">
    <path d="M 273.953655 67.781511 
L 274.491876 67.781511 
L 274.491876 52.455381 
L 273.953655 52.455381 
z
" clip-path="url(#pbc13a87f8e)" style="fill: #f49f7b"/>
   </g>
   <g id="patch_187">
    <path d="M 274.491876 67.781511 
L 280.523289 67.781511 
L 280.523289 52.455381 
L 274.491876 52.455381 
z
" clip-path="url(#pbc13a87f8e)" style="fill: #59595c"/>
   </g>
   <g id="patch_188">
    <path d="M 280.523289 67.781511 
L 281.466565 67.781511 
L 281.466565 52.455381 
L 280.523289 52.455381 
z
" clip-path="url(#pbc13a87f8e)" style="fill: #f49f7b"/>
   </g>
   <g id="patch_189">
    <path d="M 281.466565 67.781511 
L 284.34078 67.781511 
L 284.34078 52.455381 
L 281.466565 52.455381 
z
" clip-path="url(#pbc13a87f8e)" style="fill: #59595c"/>
   </g>
   <g id="patch_190">
    <path d="M 284.34078 67.781511 
L 285.938799 67.781511 
L 285.938799 52.455381 
L 284.34078 52.455381 
z
" clip-path="url(#pbc13a87f8e)" style="fill: #f49f7b"/>
   </g>
   <g id="patch_191">
    <path d="M 285.938799 67.781511 
L 286.471472 67.781511 
L 286.471472 52.455381 
L 285.938799 52.455381 
z
" clip-path="url(#pbc13a87f8e)" style="fill: #59595c"/>
   </g>
   <g id="patch_192">
    <path d="M 286.471472 67.781511 
L 287.375907 67.781511 
L 287.375907 52.455381 
L 286.471472 52.455381 
z
" clip-path="url(#pbc13a87f8e)" style="fill: #f49f7b"/>
   </g>
   <g id="patch_193">
    <path d="M 287.375907 67.781511 
L 288.923988 67.781511 
L 288.923988 52.455381 
L 287.375907 52.455381 
z
" clip-path="url(#pbc13a87f8e)" style="fill: #59595c"/>
   </g>
   <g id="patch_194">
    <path d="M 288.923988 67.781511 
L 289.134838 67.781511 
L 289.134838 52.455381 
L 288.923988 52.455381 
z
" clip-path="url(#pbc13a87f8e)" style="fill: #f49f7b"/>
   </g>
   <g id="patch_195">
    <path d="M 289.134838 67.781511 
L 295.232835 67.781511 
L 295.232835 52.455381 
L 289.134838 52.455381 
z
" clip-path="url(#pbc13a87f8e)" style="fill: #59595c"/>
   </g>
   <g id="patch_196">
    <path d="M 295.232835 67.781511 
L 295.660083 67.781511 
L 295.660083 52.455381 
L 295.232835 52.455381 
z
" clip-path="url(#pbc13a87f8e)" style="fill: #f49f7b"/>
   </g>
   <g id="patch_197">
    <path d="M 295.660083 67.781511 
L 299.999149 67.781511 
L 299.999149 52.455381 
L 295.660083 52.455381 
z
" clip-path="url(#pbc13a87f8e)" style="fill: #59595c"/>
   </g>
   <g id="patch_198">
    <path d="M 299.999149 67.781511 
L 300.642796 67.781511 
L 300.642796 52.455381 
L 299.999149 52.455381 
z
" clip-path="url(#pbc13a87f8e)" style="fill: #f49f7b"/>
   </g>
   <g id="patch_199">
    <path d="M 300.642796 67.781511 
L 309.909088 67.781511 
L 309.909088 52.455381 
L 300.642796 52.455381 
z
" clip-path="url(#pbc13a87f8e)" style="fill: #59595c"/>
   </g>
   <g id="patch_200">
    <path d="M 309.909088 67.781511 
L 310.441761 67.781511 
L 310.441761 52.455381 
L 309.909088 52.455381 
z
" clip-path="url(#pbc13a87f8e)" style="fill: #91d1bc"/>
   </g>
   <g id="patch_201">
    <path d="M 310.441761 67.781511 
L 312.028683 67.781511 
L 312.028683 52.455381 
L 310.441761 52.455381 
z
" clip-path="url(#pbc13a87f8e)" style="fill: #59595c"/>
   </g>
   <g id="patch_202">
    <path d="M 312.028683 67.781511 
L 312.039781 67.781511 
L 312.039781 52.455381 
L 312.028683 52.455381 
z
" clip-path="url(#pbc13a87f8e)" style="fill: #91d1bc"/>
   </g>
   <g id="patch_203">
    <path d="M 312.039781 67.781511 
L 312.394896 67.781511 
L 312.394896 52.455381 
L 312.039781 52.455381 
z
" clip-path="url(#pbc13a87f8e)" style="fill: #59595c"/>
   </g>
   <g id="patch_204">
    <path d="M 312.394896 67.781511 
L 313.410304 67.781511 
L 313.410304 52.455381 
L 312.394896 52.455381 
z
" clip-path="url(#pbc13a87f8e)" style="fill: #91d1bc"/>
   </g>
   <g id="patch_205">
    <path d="M 313.410304 67.781511 
L 313.438048 67.781511 
L 313.438048 52.455381 
L 313.410304 52.455381 
z
" clip-path="url(#pbc13a87f8e)" style="fill: #59595c"/>
   </g>
   <g id="patch_206">
    <path d="M 313.438048 67.781511 
L 313.443596 67.781511 
L 313.443596 52.455381 
L 313.438048 52.455381 
z
" clip-path="url(#pbc13a87f8e)" style="fill: #91d1bc"/>
   </g>
   <g id="patch_207">
    <path d="M 313.443596 67.781511 
L 313.449145 67.781511 
L 313.449145 52.455381 
L 313.443596 52.455381 
z
" clip-path="url(#pbc13a87f8e)" style="fill: #59595c"/>
   </g>
   <g id="patch_208">
    <path d="M 313.449145 67.781511 
L 313.454694 67.781511 
L 313.454694 52.455381 
L 313.449145 52.455381 
z
" clip-path="url(#pbc13a87f8e)" style="fill: #91d1bc"/>
   </g>
   <g id="patch_209">
    <path d="M 313.454694 67.781511 
L 313.815358 67.781511 
L 313.815358 52.455381 
L 313.454694 52.455381 
z
" clip-path="url(#pbc13a87f8e)" style="fill: #59595c"/>
   </g>
   <g id="patch_210">
    <path d="M 313.815358 67.781511 
L 314.170473 67.781511 
L 314.170473 52.455381 
L 313.815358 52.455381 
z
" clip-path="url(#pbc13a87f8e)" style="fill: #91d1bc"/>
   </g>
   <g id="patch_211">
    <path d="M 314.170473 67.781511 
L 314.187119 67.781511 
L 314.187119 52.455381 
L 314.170473 52.455381 
z
" clip-path="url(#pbc13a87f8e)" style="fill: #59595c"/>
   </g>
   <g id="patch_212">
    <path d="M 314.187119 67.781511 
L 314.198216 67.781511 
L 314.198216 52.455381 
L 314.187119 52.455381 
z
" clip-path="url(#pbc13a87f8e)" style="fill: #91d1bc"/>
   </g>
   <g id="patch_213">
    <path d="M 314.198216 67.781511 
L 314.203765 67.781511 
L 314.203765 52.455381 
L 314.198216 52.455381 
z
" clip-path="url(#pbc13a87f8e)" style="fill: #59595c"/>
   </g>
   <g id="patch_214">
    <path d="M 314.203765 67.781511 
L 314.209314 67.781511 
L 314.209314 52.455381 
L 314.203765 52.455381 
z
" clip-path="url(#pbc13a87f8e)" style="fill: #91d1bc"/>
   </g>
   <g id="patch_215">
    <path d="M 314.209314 67.781511 
L 314.220411 67.781511 
L 314.220411 52.455381 
L 314.209314 52.455381 
z
" clip-path="url(#pbc13a87f8e)" style="fill: #59595c"/>
   </g>
   <g id="patch_216">
    <path d="M 314.220411 67.781511 
L 314.22596 67.781511 
L 314.22596 52.455381 
L 314.220411 52.455381 
z
" clip-path="url(#pbc13a87f8e)" style="fill: #91d1bc"/>
   </g>
   <g id="patch_217">
    <path d="M 314.22596 67.781511 
L 314.348031 67.781511 
L 314.348031 52.455381 
L 314.22596 52.455381 
z
" clip-path="url(#pbc13a87f8e)" style="fill: #59595c"/>
   </g>
   <g id="patch_218">
    <path d="M 314.348031 67.781511 
L 318.387468 67.781511 
L 318.387468 52.455381 
L 314.348031 52.455381 
z
" clip-path="url(#pbc13a87f8e)" style="fill: #91d1bc"/>
   </g>
   <g id="patch_219">
    <path d="M 318.387468 67.781511 
L 318.398566 67.781511 
L 318.398566 52.455381 
L 318.387468 52.455381 
z
" clip-path="url(#pbc13a87f8e)" style="fill: #59595c"/>
   </g>
   <g id="patch_220">
    <path d="M 318.398566 67.781511 
L 318.415212 67.781511 
L 318.415212 52.455381 
L 318.398566 52.455381 
z
" clip-path="url(#pbc13a87f8e)" style="fill: #91d1bc"/>
   </g>
   <g id="patch_221">
    <path d="M 318.415212 67.781511 
L 318.42076 67.781511 
L 318.42076 52.455381 
L 318.415212 52.455381 
z
" clip-path="url(#pbc13a87f8e)" style="fill: #59595c"/>
   </g>
   <g id="patch_222">
    <path d="M 318.42076 67.781511 
L 318.426309 67.781511 
L 318.426309 52.455381 
L 318.42076 52.455381 
z
" clip-path="url(#pbc13a87f8e)" style="fill: #91d1bc"/>
   </g>
   <g id="patch_223">
    <path d="M 318.426309 67.781511 
L 318.431858 67.781511 
L 318.431858 52.455381 
L 318.426309 52.455381 
z
" clip-path="url(#pbc13a87f8e)" style="fill: #59595c"/>
   </g>
   <g id="patch_224">
    <path d="M 318.431858 67.781511 
L 335.582822 67.781511 
L 335.582822 52.455381 
L 318.431858 52.455381 
z
" clip-path="url(#pbc13a87f8e)" style="fill: #91d1bc"/>
   </g>
   <g id="patch_225">
    <path d="M 335.582822 67.781511 
L 342.047032 67.781511 
L 342.047032 52.455381 
L 335.582822 52.455381 
z
" clip-path="url(#pbc13a87f8e)" style="fill: #59595c"/>
   </g>
   <g id="patch_226">
    <path d="M 342.047032 67.781511 
L 342.402147 67.781511 
L 342.402147 52.455381 
L 342.047032 52.455381 
z
" clip-path="url(#pbc13a87f8e)" style="fill: #f49f7b"/>
   </g>
   <g id="patch_227">
    <path d="M 342.402147 67.781511 
L 348.439109 67.781511 
L 348.439109 52.455381 
L 342.402147 52.455381 
z
" clip-path="url(#pbc13a87f8e)" style="fill: #59595c"/>
   </g>
   <g id="patch_228">
    <path d="M 348.439109 67.781511 
L 348.472401 67.781511 
L 348.472401 52.455381 
L 348.439109 52.455381 
z
" clip-path="url(#pbc13a87f8e)" style="fill: #f49f7b"/>
   </g>
   <g id="patch_229">
    <path d="M 348.472401 67.781511 
L 348.666604 67.781511 
L 348.666604 52.455381 
L 348.472401 52.455381 
z
" clip-path="url(#pbc13a87f8e)" style="fill: #59595c"/>
   </g>
   <g id="patch_230">
    <path d="M 348.666604 67.781511 
L 349.138242 67.781511 
L 349.138242 52.455381 
L 348.666604 52.455381 
z
" clip-path="url(#pbc13a87f8e)" style="fill: #f49f7b"/>
   </g>
   <g id="patch_231">
    <path d="M 349.138242 67.781511 
L 350.408889 67.781511 
L 350.408889 52.455381 
L 349.138242 52.455381 
z
" clip-path="url(#pbc13a87f8e)" style="fill: #59595c"/>
   </g>
   <g id="patch_232">
    <path d="M 350.408889 67.781511 
L 350.797297 67.781511 
L 350.797297 52.455381 
L 350.408889 52.455381 
z
" clip-path="url(#pbc13a87f8e)" style="fill: #f49f7b"/>
   </g>
   <g id="patch_233">
    <path d="M 350.797297 67.781511 
L 352.345378 67.781511 
L 352.345378 52.455381 
L 350.797297 52.455381 
z
" clip-path="url(#pbc13a87f8e)" style="fill: #59595c"/>
   </g>
   <g id="patch_234">
    <path d="M 352.345378 67.781511 
L 352.54513 67.781511 
L 352.54513 52.455381 
L 352.345378 52.455381 
z
" clip-path="url(#pbc13a87f8e)" style="fill: #f49f7b"/>
   </g>
   <g id="patch_235">
    <path d="M 352.54513 67.781511 
L 353.233166 67.781511 
L 353.233166 52.455381 
L 352.54513 52.455381 
z
" clip-path="url(#pbc13a87f8e)" style="fill: #59595c"/>
   </g>
   <g id="patch_236">
    <path d="M 353.233166 67.781511 
L 353.749194 67.781511 
L 353.749194 52.455381 
L 353.233166 52.455381 
z
" clip-path="url(#pbc13a87f8e)" style="fill: #f49f7b"/>
   </g>
   <g id="patch_237">
    <path d="M 353.749194 67.781511 
L 356.229453 67.781511 
L 356.229453 52.455381 
L 353.749194 52.455381 
z
" clip-path="url(#pbc13a87f8e)" style="fill: #59595c"/>
   </g>
   <g id="patch_238">
    <path d="M 356.229453 67.781511 
L 356.251647 67.781511 
L 356.251647 52.455381 
L 356.229453 52.455381 
z
" clip-path="url(#pbc13a87f8e)" style="fill: #f49f7b"/>
   </g>
   <g id="patch_239">
    <path d="M 356.251647 67.781511 
L 356.279391 67.781511 
L 356.279391 52.455381 
L 356.251647 52.455381 
z
" clip-path="url(#pbc13a87f8e)" style="fill: #59595c"/>
   </g>
   <g id="patch_240">
    <path d="M 356.279391 67.781511 
L 357.139436 67.781511 
L 357.139436 52.455381 
L 356.279391 52.455381 
z
" clip-path="url(#pbc13a87f8e)" style="fill: #f49f7b"/>
   </g>
   <g id="patch_241">
    <path d="M 357.139436 67.781511 
L 359.159155 67.781511 
L 359.159155 52.455381 
L 357.139436 52.455381 
z
" clip-path="url(#pbc13a87f8e)" style="fill: #59595c"/>
   </g>
   <g id="patch_242">
    <path d="M 359.159155 67.781511 
L 360.513032 67.781511 
L 360.513032 52.455381 
L 359.159155 52.455381 
z
" clip-path="url(#pbc13a87f8e)" style="fill: #f49f7b"/>
   </g>
   <g id="patch_243">
    <path d="M 360.513032 67.781511 
L 364.546921 67.781511 
L 364.546921 52.455381 
L 360.513032 52.455381 
z
" clip-path="url(#pbc13a87f8e)" style="fill: #59595c"/>
   </g>
   <g id="patch_244">
    <path d="M 364.546921 67.781511 
L 365.196116 67.781511 
L 365.196116 52.455381 
L 364.546921 52.455381 
z
" clip-path="url(#pbc13a87f8e)" style="fill: #f49f7b"/>
   </g>
   <g id="patch_245">
    <path d="M 365.196116 67.781511 
L 366.244816 67.781511 
L 366.244816 52.455381 
L 365.196116 52.455381 
z
" clip-path="url(#pbc13a87f8e)" style="fill: #59595c"/>
   </g>
   <g id="patch_246">
    <path d="M 366.244816 67.781511 
L 367.437782 67.781511 
L 367.437782 52.455381 
L 366.244816 52.455381 
z
" clip-path="url(#pbc13a87f8e)" style="fill: #f49f7b"/>
   </g>
   <g id="patch_247">
    <path d="M 367.437782 67.781511 
L 372.23184 67.781511 
L 372.23184 52.455381 
L 367.437782 52.455381 
z
" clip-path="url(#pbc13a87f8e)" style="fill: #59595c"/>
   </g>
   <g id="patch_248">
    <path d="M 372.23184 67.781511 
L 372.365008 67.781511 
L 372.365008 52.455381 
L 372.23184 52.455381 
z
" clip-path="url(#pbc13a87f8e)" style="fill: #f49f7b"/>
   </g>
   <g id="patch_249">
    <path d="M 372.365008 67.781511 
L 372.409398 67.781511 
L 372.409398 52.455381 
L 372.365008 52.455381 
z
" clip-path="url(#pbc13a87f8e)" style="fill: #59595c"/>
   </g>
   <g id="patch_250">
    <path d="M 372.409398 67.781511 
L 372.586955 67.781511 
L 372.586955 52.455381 
L 372.409398 52.455381 
z
" clip-path="url(#pbc13a87f8e)" style="fill: #f49f7b"/>
   </g>
   <g id="patch_251">
    <path d="M 372.586955 67.781511 
L 374.362532 67.781511 
L 374.362532 52.455381 
L 372.586955 52.455381 
z
" clip-path="url(#pbc13a87f8e)" style="fill: #59595c"/>
   </g>
   <g id="patch_252">
    <path d="M 374.362532 67.781511 
L 374.895205 67.781511 
L 374.895205 52.455381 
L 374.362532 52.455381 
z
" clip-path="url(#pbc13a87f8e)" style="fill: #f49f7b"/>
   </g>
   <g id="patch_253">
    <path d="M 374.895205 67.781511 
L 375.899516 67.781511 
L 375.899516 52.455381 
L 374.895205 52.455381 
z
" clip-path="url(#pbc13a87f8e)" style="fill: #59595c"/>
   </g>
   <g id="matplotlib.axis_5"/>
   <g id="matplotlib.axis_6"/>
   <g id="text_4">
    <text style="font-size: 9px; font-family: 'Arial'; text-anchor: end" x="53.420625" y="62.445086" transform="rotate(-0 53.420625 62.445086)">prediction</text>
   </g>
  </g>
  <g id="axes_4">
   <g id="matplotlib.axis_7"/>
   <g id="matplotlib.axis_8"/>
   <g id="text_5">
    <text style="font-size: 9px; font-family: 'Arial'; text-anchor: start" x="57.244485" y="80.224022" transform="rotate(-0 57.244485 80.224022)">0</text>
   </g>
   <g id="text_6">
    <text style="font-size: 9px; font-family: 'Arial'; text-anchor: end" x="375.899516" y="80.224022" transform="rotate(-0 375.899516 80.224022)">57429</text>
   </g>
  </g>
  <g id="axes_5">
   <g id="matplotlib.axis_9"/>
   <g id="matplotlib.axis_10"/>
   <g id="text_7">
    <text style="font-style: italic; font-size: 10px; font-family: 'Arial'; text-anchor: start" x="57.244485" y="96.302511" transform="rotate(-0 57.244485 96.302511)">Example video 2: accuracy </text>
   </g>
   <g id="text_8">
    <text style="font-style: italic; font-weight: 700; font-size: 10px; font-family: 'Arial'; text-anchor: start" x="181.331898" y="96.350949" transform="rotate(-0 181.331898 96.350949)">94.4%</text>
   </g>
  </g>
  <g id="axes_6">
   <g id="patch_254">
    <path d="M 57.244485 120.835014 
L 61.190782 120.835014 
L 61.190782 105.508884 
L 57.244485 105.508884 
z
" clip-path="url(#p378e51962b)" style="fill: #59595c"/>
   </g>
   <g id="patch_255">
    <path d="M 61.190782 120.835014 
L 61.657367 120.835014 
L 61.657367 105.508884 
L 61.190782 105.508884 
z
" clip-path="url(#p378e51962b)" style="fill: #f49f7b"/>
   </g>
   <g id="patch_256">
    <path d="M 61.657367 120.835014 
L 64.428769 120.835014 
L 64.428769 105.508884 
L 61.657367 105.508884 
z
" clip-path="url(#p378e51962b)" style="fill: #59595c"/>
   </g>
   <g id="patch_257">
    <path d="M 64.428769 120.835014 
L 65.019027 120.835014 
L 65.019027 105.508884 
L 64.428769 105.508884 
z
" clip-path="url(#p378e51962b)" style="fill: #f49f7b"/>
   </g>
   <g id="patch_258">
    <path d="M 65.019027 120.835014 
L 70.410051 120.835014 
L 70.410051 105.508884 
L 65.019027 105.508884 
z
" clip-path="url(#p378e51962b)" style="fill: #59595c"/>
   </g>
   <g id="patch_259">
    <path d="M 70.410051 120.835014 
L 70.663019 120.835014 
L 70.663019 105.508884 
L 70.410051 105.508884 
z
" clip-path="url(#p378e51962b)" style="fill: #f49f7b"/>
   </g>
   <g id="patch_260">
    <path d="M 70.663019 120.835014 
L 72.591195 120.835014 
L 72.591195 105.508884 
L 70.663019 105.508884 
z
" clip-path="url(#p378e51962b)" style="fill: #59595c"/>
   </g>
   <g id="patch_261">
    <path d="M 72.591195 120.835014 
L 72.973457 120.835014 
L 72.973457 105.508884 
L 72.591195 105.508884 
z
" clip-path="url(#p378e51962b)" style="fill: #f49f7b"/>
   </g>
   <g id="patch_262">
    <path d="M 72.973457 120.835014 
L 73.310748 120.835014 
L 73.310748 105.508884 
L 72.973457 105.508884 
z
" clip-path="url(#p378e51962b)" style="fill: #59595c"/>
   </g>
   <g id="patch_263">
    <path d="M 73.310748 120.835014 
L 73.940356 120.835014 
L 73.940356 105.508884 
L 73.310748 105.508884 
z
" clip-path="url(#p378e51962b)" style="fill: #f49f7b"/>
   </g>
   <g id="patch_264">
    <path d="M 73.940356 120.835014 
L 77.864167 120.835014 
L 77.864167 105.508884 
L 73.940356 105.508884 
z
" clip-path="url(#p378e51962b)" style="fill: #59595c"/>
   </g>
   <g id="patch_265">
    <path d="M 77.864167 120.835014 
L 80.56249 120.835014 
L 80.56249 105.508884 
L 77.864167 105.508884 
z
" clip-path="url(#p378e51962b)" style="fill: #f49f7b"/>
   </g>
   <g id="patch_266">
    <path d="M 80.56249 120.835014 
L 97.297711 120.835014 
L 97.297711 105.508884 
L 80.56249 105.508884 
z
" clip-path="url(#p378e51962b)" style="fill: #59595c"/>
   </g>
   <g id="patch_267">
    <path d="M 97.297711 120.835014 
L 98.056614 120.835014 
L 98.056614 105.508884 
L 97.297711 105.508884 
z
" clip-path="url(#p378e51962b)" style="fill: #f49f7b"/>
   </g>
   <g id="patch_268">
    <path d="M 98.056614 120.835014 
L 99.19778 120.835014 
L 99.19778 105.508884 
L 98.056614 105.508884 
z
" clip-path="url(#p378e51962b)" style="fill: #59595c"/>
   </g>
   <g id="patch_269">
    <path d="M 99.19778 120.835014 
L 101.17655 120.835014 
L 101.17655 105.508884 
L 99.19778 105.508884 
z
" clip-path="url(#p378e51962b)" style="fill: #f49f7b"/>
   </g>
   <g id="patch_270">
    <path d="M 101.17655 120.835014 
L 102.907973 120.835014 
L 102.907973 105.508884 
L 101.17655 105.508884 
z
" clip-path="url(#p378e51962b)" style="fill: #59595c"/>
   </g>
   <g id="patch_271">
    <path d="M 102.907973 120.835014 
L 103.79055 120.835014 
L 103.79055 105.508884 
L 102.907973 105.508884 
z
" clip-path="url(#p378e51962b)" style="fill: #f49f7b"/>
   </g>
   <g id="patch_272">
    <path d="M 103.79055 120.835014 
L 109.569457 120.835014 
L 109.569457 105.508884 
L 103.79055 105.508884 
z
" clip-path="url(#p378e51962b)" style="fill: #59595c"/>
   </g>
   <g id="patch_273">
    <path d="M 109.569457 120.835014 
L 110.199066 120.835014 
L 110.199066 105.508884 
L 109.569457 105.508884 
z
" clip-path="url(#p378e51962b)" style="fill: #f49f7b"/>
   </g>
   <g id="patch_274">
    <path d="M 110.199066 120.835014 
L 117.158489 120.835014 
L 117.158489 105.508884 
L 110.199066 105.508884 
z
" clip-path="url(#p378e51962b)" style="fill: #59595c"/>
   </g>
   <g id="patch_275">
    <path d="M 117.158489 120.835014 
L 117.49578 120.835014 
L 117.49578 105.508884 
L 117.158489 105.508884 
z
" clip-path="url(#p378e51962b)" style="fill: #f49f7b"/>
   </g>
   <g id="patch_276">
    <path d="M 117.49578 120.835014 
L 131.279711 120.835014 
L 131.279711 105.508884 
L 117.49578 105.508884 
z
" clip-path="url(#p378e51962b)" style="fill: #59595c"/>
   </g>
   <g id="patch_277">
    <path d="M 131.279711 120.835014 
L 131.701324 120.835014 
L 131.701324 105.508884 
L 131.279711 105.508884 
z
" clip-path="url(#p378e51962b)" style="fill: #f49f7b"/>
   </g>
   <g id="patch_278">
    <path d="M 131.701324 120.835014 
L 134.905582 120.835014 
L 134.905582 105.508884 
L 131.701324 105.508884 
z
" clip-path="url(#p378e51962b)" style="fill: #59595c"/>
   </g>
   <g id="patch_279">
    <path d="M 134.905582 120.835014 
L 135.15855 120.835014 
L 135.15855 105.508884 
L 134.905582 105.508884 
z
" clip-path="url(#p378e51962b)" style="fill: #f49f7b"/>
   </g>
   <g id="patch_280">
    <path d="M 135.15855 120.835014 
L 135.878102 120.835014 
L 135.878102 105.508884 
L 135.15855 105.508884 
z
" clip-path="url(#p378e51962b)" style="fill: #59595c"/>
   </g>
   <g id="patch_281">
    <path d="M 135.878102 120.835014 
L 136.170421 120.835014 
L 136.170421 105.508884 
L 135.878102 105.508884 
z
" clip-path="url(#p378e51962b)" style="fill: #f49f7b"/>
   </g>
   <g id="patch_282">
    <path d="M 136.170421 120.835014 
L 154.215453 120.835014 
L 154.215453 105.508884 
L 136.170421 105.508884 
z
" clip-path="url(#p378e51962b)" style="fill: #59595c"/>
   </g>
   <g id="patch_283">
    <path d="M 154.215453 120.835014 
L 156.031199 120.835014 
L 156.031199 105.508884 
L 154.215453 105.508884 
z
" clip-path="url(#p378e51962b)" style="fill: #f49f7b"/>
   </g>
   <g id="patch_284">
    <path d="M 156.031199 120.835014 
L 164.412863 120.835014 
L 164.412863 105.508884 
L 156.031199 105.508884 
z
" clip-path="url(#p378e51962b)" style="fill: #59595c"/>
   </g>
   <g id="patch_285">
    <path d="M 164.412863 120.835014 
L 164.834476 120.835014 
L 164.834476 105.508884 
L 164.412863 105.508884 
z
" clip-path="url(#p378e51962b)" style="fill: #f49f7b"/>
   </g>
   <g id="patch_286">
    <path d="M 164.834476 120.835014 
L 169.944425 120.835014 
L 169.944425 105.508884 
L 164.834476 105.508884 
z
" clip-path="url(#p378e51962b)" style="fill: #59595c"/>
   </g>
   <g id="patch_287">
    <path d="M 169.944425 120.835014 
L 170.827001 120.835014 
L 170.827001 105.508884 
L 169.944425 105.508884 
z
" clip-path="url(#p378e51962b)" style="fill: #f49f7b"/>
   </g>
   <g id="patch_288">
    <path d="M 170.827001 120.835014 
L 172.153676 120.835014 
L 172.153676 105.508884 
L 170.827001 105.508884 
z
" clip-path="url(#p378e51962b)" style="fill: #59595c"/>
   </g>
   <g id="patch_289">
    <path d="M 172.153676 120.835014 
L 172.912579 120.835014 
L 172.912579 105.508884 
L 172.153676 105.508884 
z
" clip-path="url(#p378e51962b)" style="fill: #f49f7b"/>
   </g>
   <g id="patch_290">
    <path d="M 172.912579 120.835014 
L 174.767676 120.835014 
L 174.767676 105.508884 
L 172.912579 105.508884 
z
" clip-path="url(#p378e51962b)" style="fill: #59595c"/>
   </g>
   <g id="patch_291">
    <path d="M 174.767676 120.835014 
L 175.189289 120.835014 
L 175.189289 105.508884 
L 174.767676 105.508884 
z
" clip-path="url(#p378e51962b)" style="fill: #f49f7b"/>
   </g>
   <g id="patch_292">
    <path d="M 175.189289 120.835014 
L 242.900321 120.835014 
L 242.900321 105.508884 
L 175.189289 105.508884 
z
" clip-path="url(#p378e51962b)" style="fill: #59595c"/>
   </g>
   <g id="patch_293">
    <path d="M 242.900321 120.835014 
L 243.237611 120.835014 
L 243.237611 105.508884 
L 242.900321 105.508884 
z
" clip-path="url(#p378e51962b)" style="fill: #f49f7b"/>
   </g>
   <g id="patch_294">
    <path d="M 243.237611 120.835014 
L 246.48122 120.835014 
L 246.48122 105.508884 
L 243.237611 105.508884 
z
" clip-path="url(#p378e51962b)" style="fill: #59595c"/>
   </g>
   <g id="patch_295">
    <path d="M 246.48122 120.835014 
L 246.77916 120.835014 
L 246.77916 105.508884 
L 246.48122 105.508884 
z
" clip-path="url(#p378e51962b)" style="fill: #f49f7b"/>
   </g>
   <g id="patch_296">
    <path d="M 246.77916 120.835014 
L 249.561805 120.835014 
L 249.561805 105.508884 
L 246.77916 105.508884 
z
" clip-path="url(#p378e51962b)" style="fill: #59595c"/>
   </g>
   <g id="patch_297">
    <path d="M 249.561805 120.835014 
L 252.766063 120.835014 
L 252.766063 105.508884 
L 249.561805 105.508884 
z
" clip-path="url(#p378e51962b)" style="fill: #f49f7b"/>
   </g>
   <g id="patch_298">
    <path d="M 252.766063 120.835014 
L 253.564317 120.835014 
L 253.564317 105.508884 
L 252.766063 105.508884 
z
" clip-path="url(#p378e51962b)" style="fill: #59595c"/>
   </g>
   <g id="patch_299">
    <path d="M 253.564317 120.835014 
L 254.491865 120.835014 
L 254.491865 105.508884 
L 253.564317 105.508884 
z
" clip-path="url(#p378e51962b)" style="fill: #f49f7b"/>
   </g>
   <g id="patch_300">
    <path d="M 254.491865 120.835014 
L 262.924123 120.835014 
L 262.924123 105.508884 
L 254.491865 105.508884 
z
" clip-path="url(#p378e51962b)" style="fill: #59595c"/>
   </g>
   <g id="patch_301">
    <path d="M 262.924123 120.835014 
L 263.598704 120.835014 
L 263.598704 105.508884 
L 262.924123 105.508884 
z
" clip-path="url(#p378e51962b)" style="fill: #f49f7b"/>
   </g>
   <g id="patch_302">
    <path d="M 263.598704 120.835014 
L 265.836063 120.835014 
L 265.836063 105.508884 
L 263.598704 105.508884 
z
" clip-path="url(#p378e51962b)" style="fill: #59595c"/>
   </g>
   <g id="patch_303">
    <path d="M 265.836063 120.835014 
L 266.802962 120.835014 
L 266.802962 105.508884 
L 265.836063 105.508884 
z
" clip-path="url(#p378e51962b)" style="fill: #91d1bc"/>
   </g>
   <g id="patch_304">
    <path d="M 266.802962 120.835014 
L 266.999715 120.835014 
L 266.999715 105.508884 
L 266.802962 105.508884 
z
" clip-path="url(#p378e51962b)" style="fill: #f49f7b"/>
   </g>
   <g id="patch_305">
    <path d="M 266.999715 120.835014 
L 269.48442 120.835014 
L 269.48442 105.508884 
L 266.999715 105.508884 
z
" clip-path="url(#p378e51962b)" style="fill: #59595c"/>
   </g>
   <g id="patch_306">
    <path d="M 269.48442 120.835014 
L 269.951005 120.835014 
L 269.951005 105.508884 
L 269.48442 105.508884 
z
" clip-path="url(#p378e51962b)" style="fill: #f49f7b"/>
   </g>
   <g id="patch_307">
    <path d="M 269.951005 120.835014 
L 270.243323 120.835014 
L 270.243323 105.508884 
L 269.951005 105.508884 
z
" clip-path="url(#p378e51962b)" style="fill: #59595c"/>
   </g>
   <g id="patch_308">
    <path d="M 270.243323 120.835014 
L 276.022231 120.835014 
L 276.022231 105.508884 
L 270.243323 105.508884 
z
" clip-path="url(#p378e51962b)" style="fill: #91d1bc"/>
   </g>
   <g id="patch_309">
    <path d="M 276.022231 120.835014 
L 276.123418 120.835014 
L 276.123418 105.508884 
L 276.022231 105.508884 
z
" clip-path="url(#p378e51962b)" style="fill: #59595c"/>
   </g>
   <g id="patch_310">
    <path d="M 276.123418 120.835014 
L 276.713676 120.835014 
L 276.713676 105.508884 
L 276.123418 105.508884 
z
" clip-path="url(#p378e51962b)" style="fill: #f49f7b"/>
   </g>
   <g id="patch_311">
    <path d="M 276.713676 120.835014 
L 277.472579 120.835014 
L 277.472579 105.508884 
L 276.713676 105.508884 
z
" clip-path="url(#p378e51962b)" style="fill: #59595c"/>
   </g>
   <g id="patch_312">
    <path d="M 277.472579 120.835014 
L 277.641224 120.835014 
L 277.641224 105.508884 
L 277.472579 105.508884 
z
" clip-path="url(#p378e51962b)" style="fill: #f49f7b"/>
   </g>
   <g id="patch_313">
    <path d="M 277.641224 120.835014 
L 278.653095 120.835014 
L 278.653095 105.508884 
L 277.641224 105.508884 
z
" clip-path="url(#p378e51962b)" style="fill: #59595c"/>
   </g>
   <g id="patch_314">
    <path d="M 278.653095 120.835014 
L 279.198381 120.835014 
L 279.198381 105.508884 
L 278.653095 105.508884 
z
" clip-path="url(#p378e51962b)" style="fill: #91d1bc"/>
   </g>
   <g id="patch_315">
    <path d="M 279.198381 120.835014 
L 279.535671 120.835014 
L 279.535671 105.508884 
L 279.198381 105.508884 
z
" clip-path="url(#p378e51962b)" style="fill: #59595c"/>
   </g>
   <g id="patch_316">
    <path d="M 279.535671 120.835014 
L 280.041607 120.835014 
L 280.041607 105.508884 
L 279.535671 105.508884 
z
" clip-path="url(#p378e51962b)" style="fill: #91d1bc"/>
   </g>
   <g id="patch_317">
    <path d="M 280.041607 120.835014 
L 284.403895 120.835014 
L 284.403895 105.508884 
L 280.041607 105.508884 
z
" clip-path="url(#p378e51962b)" style="fill: #59595c"/>
   </g>
   <g id="patch_318">
    <path d="M 284.403895 120.835014 
L 288.788669 120.835014 
L 288.788669 105.508884 
L 284.403895 105.508884 
z
" clip-path="url(#p378e51962b)" style="fill: #91d1bc"/>
   </g>
   <g id="patch_319">
    <path d="M 288.788669 120.835014 
L 293.550084 120.835014 
L 293.550084 105.508884 
L 288.788669 105.508884 
z
" clip-path="url(#p378e51962b)" style="fill: #59595c"/>
   </g>
   <g id="patch_320">
    <path d="M 293.550084 120.835014 
L 296.209056 120.835014 
L 296.209056 105.508884 
L 293.550084 105.508884 
z
" clip-path="url(#p378e51962b)" style="fill: #91d1bc"/>
   </g>
   <g id="patch_321">
    <path d="M 296.209056 120.835014 
L 303.123508 120.835014 
L 303.123508 105.508884 
L 296.209056 105.508884 
z
" clip-path="url(#p378e51962b)" style="fill: #59595c"/>
   </g>
   <g id="patch_322">
    <path d="M 303.123508 120.835014 
L 304.472669 120.835014 
L 304.472669 105.508884 
L 303.123508 105.508884 
z
" clip-path="url(#p378e51962b)" style="fill: #f49f7b"/>
   </g>
   <g id="patch_323">
    <path d="M 304.472669 120.835014 
L 321.843121 120.835014 
L 321.843121 105.508884 
L 304.472669 105.508884 
z
" clip-path="url(#p378e51962b)" style="fill: #59595c"/>
   </g>
   <g id="patch_324">
    <path d="M 321.843121 120.835014 
L 322.219762 120.835014 
L 322.219762 105.508884 
L 321.843121 105.508884 
z
" clip-path="url(#p378e51962b)" style="fill: #f49f7b"/>
   </g>
   <g id="patch_325">
    <path d="M 322.219762 120.835014 
L 326.312218 120.835014 
L 326.312218 105.508884 
L 322.219762 105.508884 
z
" clip-path="url(#p378e51962b)" style="fill: #59595c"/>
   </g>
   <g id="patch_326">
    <path d="M 326.312218 120.835014 
L 327.785052 120.835014 
L 327.785052 105.508884 
L 326.312218 105.508884 
z
" clip-path="url(#p378e51962b)" style="fill: #f49f7b"/>
   </g>
   <g id="patch_327">
    <path d="M 327.785052 120.835014 
L 339.252923 120.835014 
L 339.252923 105.508884 
L 327.785052 105.508884 
z
" clip-path="url(#p378e51962b)" style="fill: #59595c"/>
   </g>
   <g id="patch_328">
    <path d="M 339.252923 120.835014 
L 340.056798 120.835014 
L 340.056798 105.508884 
L 339.252923 105.508884 
z
" clip-path="url(#p378e51962b)" style="fill: #f49f7b"/>
   </g>
   <g id="patch_329">
    <path d="M 340.056798 120.835014 
L 352.407245 120.835014 
L 352.407245 105.508884 
L 340.056798 105.508884 
z
" clip-path="url(#p378e51962b)" style="fill: #59595c"/>
   </g>
   <g id="patch_330">
    <path d="M 352.407245 120.835014 
L 354.262342 120.835014 
L 354.262342 105.508884 
L 352.407245 105.508884 
z
" clip-path="url(#p378e51962b)" style="fill: #f49f7b"/>
   </g>
   <g id="patch_331">
    <path d="M 354.262342 120.835014 
L 358.860733 120.835014 
L 358.860733 105.508884 
L 354.262342 105.508884 
z
" clip-path="url(#p378e51962b)" style="fill: #59595c"/>
   </g>
   <g id="patch_332">
    <path d="M 358.860733 120.835014 
L 361.092471 120.835014 
L 361.092471 105.508884 
L 358.860733 105.508884 
z
" clip-path="url(#p378e51962b)" style="fill: #f49f7b"/>
   </g>
   <g id="patch_333">
    <path d="M 361.092471 120.835014 
L 369.356084 120.835014 
L 369.356084 105.508884 
L 361.092471 105.508884 
z
" clip-path="url(#p378e51962b)" style="fill: #59595c"/>
   </g>
   <g id="patch_334">
    <path d="M 369.356084 120.835014 
L 372.352346 120.835014 
L 372.352346 105.508884 
L 369.356084 105.508884 
z
" clip-path="url(#p378e51962b)" style="fill: #f49f7b"/>
   </g>
   <g id="patch_335">
    <path d="M 372.352346 120.835014 
L 374.460411 120.835014 
L 374.460411 105.508884 
L 372.352346 105.508884 
z
" clip-path="url(#p378e51962b)" style="fill: #59595c"/>
   </g>
   <g id="patch_336">
    <path d="M 374.460411 120.835014 
L 374.797701 120.835014 
L 374.797701 105.508884 
L 374.460411 105.508884 
z
" clip-path="url(#p378e51962b)" style="fill: #f49f7b"/>
   </g>
   <g id="patch_337">
    <path d="M 374.797701 120.835014 
L 375.899516 120.835014 
L 375.899516 105.508884 
L 374.797701 105.508884 
z
" clip-path="url(#p378e51962b)" style="fill: #59595c"/>
   </g>
   <g id="matplotlib.axis_11"/>
   <g id="matplotlib.axis_12"/>
   <g id="text_9">
    <text style="font-size: 9px; font-family: 'Arial'; text-anchor: end" x="53.420625" y="115.49859" transform="rotate(-0 53.420625 115.49859)">labels</text>
   </g>
  </g>
  <g id="axes_7">
   <g id="patch_338">
    <path d="M 57.244485 142.161624 
L 57.3007 142.161624 
L 57.3007 126.835494 
L 57.244485 126.835494 
z
" clip-path="url(#p8d1f784ee1)" style="fill: #f49f7b"/>
   </g>
   <g id="patch_339">
    <path d="M 57.3007 142.161624 
L 61.128946 142.161624 
L 61.128946 126.835494 
L 57.3007 126.835494 
z
" clip-path="url(#p8d1f784ee1)" style="fill: #59595c"/>
   </g>
   <g id="patch_340">
    <path d="M 61.128946 142.161624 
L 61.730447 142.161624 
L 61.730447 126.835494 
L 61.128946 126.835494 
z
" clip-path="url(#p8d1f784ee1)" style="fill: #f49f7b"/>
   </g>
   <g id="patch_341">
    <path d="M 61.730447 142.161624 
L 64.541199 142.161624 
L 64.541199 126.835494 
L 61.730447 126.835494 
z
" clip-path="url(#p8d1f784ee1)" style="fill: #59595c"/>
   </g>
   <g id="patch_342">
    <path d="M 64.541199 142.161624 
L 65.075242 142.161624 
L 65.075242 126.835494 
L 64.541199 126.835494 
z
" clip-path="url(#p8d1f784ee1)" style="fill: #f49f7b"/>
   </g>
   <g id="patch_343">
    <path d="M 65.075242 142.161624 
L 73.254533 142.161624 
L 73.254533 126.835494 
L 65.075242 126.835494 
z
" clip-path="url(#p8d1f784ee1)" style="fill: #59595c"/>
   </g>
   <g id="patch_344">
    <path d="M 73.254533 142.161624 
L 73.962842 142.161624 
L 73.962842 126.835494 
L 73.254533 126.835494 
z
" clip-path="url(#p8d1f784ee1)" style="fill: #f49f7b"/>
   </g>
   <g id="patch_345">
    <path d="M 73.962842 142.161624 
L 77.926004 142.161624 
L 77.926004 126.835494 
L 73.962842 126.835494 
z
" clip-path="url(#p8d1f784ee1)" style="fill: #59595c"/>
   </g>
   <g id="patch_346">
    <path d="M 77.926004 142.161624 
L 79.010954 142.161624 
L 79.010954 126.835494 
L 77.926004 126.835494 
z
" clip-path="url(#p8d1f784ee1)" style="fill: #f49f7b"/>
   </g>
   <g id="patch_347">
    <path d="M 79.010954 142.161624 
L 79.190842 142.161624 
L 79.190842 126.835494 
L 79.010954 126.835494 
z
" clip-path="url(#p8d1f784ee1)" style="fill: #59595c"/>
   </g>
   <g id="patch_348">
    <path d="M 79.190842 142.161624 
L 80.629948 142.161624 
L 80.629948 126.835494 
L 79.190842 126.835494 
z
" clip-path="url(#p8d1f784ee1)" style="fill: #f49f7b"/>
   </g>
   <g id="patch_349">
    <path d="M 80.629948 142.161624 
L 97.179659 142.161624 
L 97.179659 126.835494 
L 80.629948 126.835494 
z
" clip-path="url(#p8d1f784ee1)" style="fill: #59595c"/>
   </g>
   <g id="patch_350">
    <path d="M 97.179659 142.161624 
L 98.15218 142.161624 
L 98.15218 126.835494 
L 97.179659 126.835494 
z
" clip-path="url(#p8d1f784ee1)" style="fill: #f49f7b"/>
   </g>
   <g id="patch_351">
    <path d="M 98.15218 142.161624 
L 99.130322 142.161624 
L 99.130322 126.835494 
L 98.15218 126.835494 
z
" clip-path="url(#p8d1f784ee1)" style="fill: #59595c"/>
   </g>
   <g id="patch_352">
    <path d="M 99.130322 142.161624 
L 101.260872 142.161624 
L 101.260872 126.835494 
L 99.130322 126.835494 
z
" clip-path="url(#p8d1f784ee1)" style="fill: #f49f7b"/>
   </g>
   <g id="patch_353">
    <path d="M 101.260872 142.161624 
L 102.947324 142.161624 
L 102.947324 126.835494 
L 101.260872 126.835494 
z
" clip-path="url(#p8d1f784ee1)" style="fill: #59595c"/>
   </g>
   <g id="patch_354">
    <path d="M 102.947324 142.161624 
L 103.115969 142.161624 
L 103.115969 126.835494 
L 102.947324 126.835494 
z
" clip-path="url(#p8d1f784ee1)" style="fill: #f49f7b"/>
   </g>
   <g id="patch_355">
    <path d="M 103.115969 142.161624 
L 103.295857 142.161624 
L 103.295857 126.835494 
L 103.115969 126.835494 
z
" clip-path="url(#p8d1f784ee1)" style="fill: #59595c"/>
   </g>
   <g id="patch_356">
    <path d="M 103.295857 142.161624 
L 103.841143 142.161624 
L 103.841143 126.835494 
L 103.295857 126.835494 
z
" clip-path="url(#p8d1f784ee1)" style="fill: #f49f7b"/>
   </g>
   <g id="patch_357">
    <path d="M 103.841143 142.161624 
L 109.501999 142.161624 
L 109.501999 126.835494 
L 103.841143 126.835494 
z
" clip-path="url(#p8d1f784ee1)" style="fill: #59595c"/>
   </g>
   <g id="patch_358">
    <path d="M 109.501999 142.161624 
L 110.097879 142.161624 
L 110.097879 126.835494 
L 109.501999 126.835494 
z
" clip-path="url(#p8d1f784ee1)" style="fill: #f49f7b"/>
   </g>
   <g id="patch_359">
    <path d="M 110.097879 142.161624 
L 110.491384 142.161624 
L 110.491384 126.835494 
L 110.097879 126.835494 
z
" clip-path="url(#p8d1f784ee1)" style="fill: #59595c"/>
   </g>
   <g id="patch_360">
    <path d="M 110.491384 142.161624 
L 110.553221 142.161624 
L 110.553221 126.835494 
L 110.491384 126.835494 
z
" clip-path="url(#p8d1f784ee1)" style="fill: #f49f7b"/>
   </g>
   <g id="patch_361">
    <path d="M 110.553221 142.161624 
L 117.08541 142.161624 
L 117.08541 126.835494 
L 110.553221 126.835494 
z
" clip-path="url(#p8d1f784ee1)" style="fill: #59595c"/>
   </g>
   <g id="patch_362">
    <path d="M 117.08541 142.161624 
L 117.478915 142.161624 
L 117.478915 126.835494 
L 117.08541 126.835494 
z
" clip-path="url(#p8d1f784ee1)" style="fill: #f49f7b"/>
   </g>
   <g id="patch_363">
    <path d="M 117.478915 142.161624 
L 131.307818 142.161624 
L 131.307818 126.835494 
L 117.478915 126.835494 
z
" clip-path="url(#p8d1f784ee1)" style="fill: #59595c"/>
   </g>
   <g id="patch_364">
    <path d="M 131.307818 142.161624 
L 131.358412 142.161624 
L 131.358412 126.835494 
L 131.307818 126.835494 
z
" clip-path="url(#p8d1f784ee1)" style="fill: #f49f7b"/>
   </g>
   <g id="patch_365">
    <path d="M 131.358412 142.161624 
L 133.696958 142.161624 
L 133.696958 126.835494 
L 131.358412 126.835494 
z
" clip-path="url(#p8d1f784ee1)" style="fill: #59595c"/>
   </g>
   <g id="patch_366">
    <path d="M 133.696958 142.161624 
L 134.101707 142.161624 
L 134.101707 126.835494 
L 133.696958 126.835494 
z
" clip-path="url(#p8d1f784ee1)" style="fill: #f49f7b"/>
   </g>
   <g id="patch_367">
    <path d="M 134.101707 142.161624 
L 134.888717 142.161624 
L 134.888717 126.835494 
L 134.101707 126.835494 
z
" clip-path="url(#p8d1f784ee1)" style="fill: #59595c"/>
   </g>
   <g id="patch_368">
    <path d="M 134.888717 142.161624 
L 135.15855 142.161624 
L 135.15855 126.835494 
L 134.888717 126.835494 
z
" clip-path="url(#p8d1f784ee1)" style="fill: #f49f7b"/>
   </g>
   <g id="patch_369">
    <path d="M 135.15855 142.161624 
L 135.900588 142.161624 
L 135.900588 126.835494 
L 135.15855 126.835494 
z
" clip-path="url(#p8d1f784ee1)" style="fill: #59595c"/>
   </g>
   <g id="patch_370">
    <path d="M 135.900588 142.161624 
L 136.035504 142.161624 
L 136.035504 126.835494 
L 135.900588 126.835494 
z
" clip-path="url(#p8d1f784ee1)" style="fill: #f49f7b"/>
   </g>
   <g id="patch_371">
    <path d="M 136.035504 142.161624 
L 154.361612 142.161624 
L 154.361612 126.835494 
L 136.035504 126.835494 
z
" clip-path="url(#p8d1f784ee1)" style="fill: #59595c"/>
   </g>
   <g id="patch_372">
    <path d="M 154.361612 142.161624 
L 154.372855 142.161624 
L 154.372855 126.835494 
L 154.361612 126.835494 
z
" clip-path="url(#p8d1f784ee1)" style="fill: #f49f7b"/>
   </g>
   <g id="patch_373">
    <path d="M 154.372855 142.161624 
L 154.378476 142.161624 
L 154.378476 126.835494 
L 154.372855 126.835494 
z
" clip-path="url(#p8d1f784ee1)" style="fill: #59595c"/>
   </g>
   <g id="patch_374">
    <path d="M 154.378476 142.161624 
L 155.980605 142.161624 
L 155.980605 126.835494 
L 154.378476 126.835494 
z
" clip-path="url(#p8d1f784ee1)" style="fill: #f49f7b"/>
   </g>
   <g id="patch_375">
    <path d="M 155.980605 142.161624 
L 161.978752 142.161624 
L 161.978752 126.835494 
L 155.980605 126.835494 
z
" clip-path="url(#p8d1f784ee1)" style="fill: #59595c"/>
   </g>
   <g id="patch_376">
    <path d="M 161.978752 142.161624 
L 162.293556 142.161624 
L 162.293556 126.835494 
L 161.978752 126.835494 
z
" clip-path="url(#p8d1f784ee1)" style="fill: #f49f7b"/>
   </g>
   <g id="patch_377">
    <path d="M 162.293556 142.161624 
L 164.412863 142.161624 
L 164.412863 126.835494 
L 162.293556 126.835494 
z
" clip-path="url(#p8d1f784ee1)" style="fill: #59595c"/>
   </g>
   <g id="patch_378">
    <path d="M 164.412863 142.161624 
L 164.92442 142.161624 
L 164.92442 126.835494 
L 164.412863 126.835494 
z
" clip-path="url(#p8d1f784ee1)" style="fill: #f49f7b"/>
   </g>
   <g id="patch_379">
    <path d="M 164.92442 142.161624 
L 169.995018 142.161624 
L 169.995018 126.835494 
L 164.92442 126.835494 
z
" clip-path="url(#p8d1f784ee1)" style="fill: #59595c"/>
   </g>
   <g id="patch_380">
    <path d="M 169.995018 142.161624 
L 170.877595 142.161624 
L 170.877595 126.835494 
L 169.995018 126.835494 
z
" clip-path="url(#p8d1f784ee1)" style="fill: #f49f7b"/>
   </g>
   <g id="patch_381">
    <path d="M 170.877595 142.161624 
L 172.193027 142.161624 
L 172.193027 126.835494 
L 170.877595 126.835494 
z
" clip-path="url(#p8d1f784ee1)" style="fill: #59595c"/>
   </g>
   <g id="patch_382">
    <path d="M 172.193027 142.161624 
L 172.968795 142.161624 
L 172.968795 126.835494 
L 172.193027 126.835494 
z
" clip-path="url(#p8d1f784ee1)" style="fill: #f49f7b"/>
   </g>
   <g id="patch_383">
    <path d="M 172.968795 142.161624 
L 174.835134 142.161624 
L 174.835134 126.835494 
L 172.968795 126.835494 
z
" clip-path="url(#p8d1f784ee1)" style="fill: #59595c"/>
   </g>
   <g id="patch_384">
    <path d="M 174.835134 142.161624 
L 175.144317 142.161624 
L 175.144317 126.835494 
L 174.835134 126.835494 
z
" clip-path="url(#p8d1f784ee1)" style="fill: #f49f7b"/>
   </g>
   <g id="patch_385">
    <path d="M 175.144317 142.161624 
L 199.670945 142.161624 
L 199.670945 126.835494 
L 175.144317 126.835494 
z
" clip-path="url(#p8d1f784ee1)" style="fill: #59595c"/>
   </g>
   <g id="patch_386">
    <path d="M 199.670945 142.161624 
L 199.715917 142.161624 
L 199.715917 126.835494 
L 199.670945 126.835494 
z
" clip-path="url(#p8d1f784ee1)" style="fill: #f49f7b"/>
   </g>
   <g id="patch_387">
    <path d="M 199.715917 142.161624 
L 214.106971 142.161624 
L 214.106971 126.835494 
L 199.715917 126.835494 
z
" clip-path="url(#p8d1f784ee1)" style="fill: #59595c"/>
   </g>
   <g id="patch_388">
    <path d="M 214.106971 142.161624 
L 214.646635 142.161624 
L 214.646635 126.835494 
L 214.106971 126.835494 
z
" clip-path="url(#p8d1f784ee1)" style="fill: #f49f7b"/>
   </g>
   <g id="patch_389">
    <path d="M 214.646635 142.161624 
L 214.826523 142.161624 
L 214.826523 126.835494 
L 214.646635 126.835494 
z
" clip-path="url(#p8d1f784ee1)" style="fill: #59595c"/>
   </g>
   <g id="patch_390">
    <path d="M 214.826523 142.161624 
L 215.1863 142.161624 
L 215.1863 126.835494 
L 214.826523 126.835494 
z
" clip-path="url(#p8d1f784ee1)" style="fill: #f49f7b"/>
   </g>
   <g id="patch_391">
    <path d="M 215.1863 142.161624 
L 227.058919 142.161624 
L 227.058919 126.835494 
L 215.1863 126.835494 
z
" clip-path="url(#p8d1f784ee1)" style="fill: #59595c"/>
   </g>
   <g id="patch_392">
    <path d="M 227.058919 142.161624 
L 227.525504 142.161624 
L 227.525504 126.835494 
L 227.058919 126.835494 
z
" clip-path="url(#p8d1f784ee1)" style="fill: #f49f7b"/>
   </g>
   <g id="patch_393">
    <path d="M 227.525504 142.161624 
L 229.397465 142.161624 
L 229.397465 126.835494 
L 227.525504 126.835494 
z
" clip-path="url(#p8d1f784ee1)" style="fill: #59595c"/>
   </g>
   <g id="patch_394">
    <path d="M 229.397465 142.161624 
L 229.577353 142.161624 
L 229.577353 126.835494 
L 229.397465 126.835494 
z
" clip-path="url(#p8d1f784ee1)" style="fill: #f49f7b"/>
   </g>
   <g id="patch_395">
    <path d="M 229.577353 142.161624 
L 235.924033 142.161624 
L 235.924033 126.835494 
L 229.577353 126.835494 
z
" clip-path="url(#p8d1f784ee1)" style="fill: #59595c"/>
   </g>
   <g id="patch_396">
    <path d="M 235.924033 142.161624 
L 236.384996 142.161624 
L 236.384996 126.835494 
L 235.924033 126.835494 
z
" clip-path="url(#p8d1f784ee1)" style="fill: #f49f7b"/>
   </g>
   <g id="patch_397">
    <path d="M 236.384996 142.161624 
L 242.827242 142.161624 
L 242.827242 126.835494 
L 236.384996 126.835494 
z
" clip-path="url(#p8d1f784ee1)" style="fill: #59595c"/>
   </g>
   <g id="patch_398">
    <path d="M 242.827242 142.161624 
L 243.248854 142.161624 
L 243.248854 126.835494 
L 242.827242 126.835494 
z
" clip-path="url(#p8d1f784ee1)" style="fill: #f49f7b"/>
   </g>
   <g id="patch_399">
    <path d="M 243.248854 142.161624 
L 246.40814 142.161624 
L 246.40814 126.835494 
L 243.248854 126.835494 
z
" clip-path="url(#p8d1f784ee1)" style="fill: #59595c"/>
   </g>
   <g id="patch_400">
    <path d="M 246.40814 142.161624 
L 246.672351 142.161624 
L 246.672351 126.835494 
L 246.40814 126.835494 
z
" clip-path="url(#p8d1f784ee1)" style="fill: #f49f7b"/>
   </g>
   <g id="patch_401">
    <path d="M 246.672351 142.161624 
L 249.54494 142.161624 
L 249.54494 126.835494 
L 246.672351 126.835494 
z
" clip-path="url(#p8d1f784ee1)" style="fill: #59595c"/>
   </g>
   <g id="patch_402">
    <path d="M 249.54494 142.161624 
L 251.163934 142.161624 
L 251.163934 126.835494 
L 249.54494 126.835494 
z
" clip-path="url(#p8d1f784ee1)" style="fill: #f49f7b"/>
   </g>
   <g id="patch_403">
    <path d="M 251.163934 142.161624 
L 251.343822 142.161624 
L 251.343822 126.835494 
L 251.163934 126.835494 
z
" clip-path="url(#p8d1f784ee1)" style="fill: #59595c"/>
   </g>
   <g id="patch_404">
    <path d="M 251.343822 142.161624 
L 252.737955 142.161624 
L 252.737955 126.835494 
L 251.343822 126.835494 
z
" clip-path="url(#p8d1f784ee1)" style="fill: #f49f7b"/>
   </g>
   <g id="patch_405">
    <path d="M 252.737955 142.161624 
L 253.626153 142.161624 
L 253.626153 126.835494 
L 252.737955 126.835494 
z
" clip-path="url(#p8d1f784ee1)" style="fill: #59595c"/>
   </g>
   <g id="patch_406">
    <path d="M 253.626153 142.161624 
L 254.581809 142.161624 
L 254.581809 126.835494 
L 253.626153 126.835494 
z
" clip-path="url(#p8d1f784ee1)" style="fill: #f49f7b"/>
   </g>
   <g id="patch_407">
    <path d="M 254.581809 142.161624 
L 262.856665 142.161624 
L 262.856665 126.835494 
L 254.581809 126.835494 
z
" clip-path="url(#p8d1f784ee1)" style="fill: #59595c"/>
   </g>
   <g id="patch_408">
    <path d="M 262.856665 142.161624 
L 263.615568 142.161624 
L 263.615568 126.835494 
L 262.856665 126.835494 
z
" clip-path="url(#p8d1f784ee1)" style="fill: #f49f7b"/>
   </g>
   <g id="patch_409">
    <path d="M 263.615568 142.161624 
L 269.394476 142.161624 
L 269.394476 126.835494 
L 263.615568 126.835494 
z
" clip-path="url(#p8d1f784ee1)" style="fill: #59595c"/>
   </g>
   <g id="patch_410">
    <path d="M 269.394476 142.161624 
L 269.799224 142.161624 
L 269.799224 126.835494 
L 269.394476 126.835494 
z
" clip-path="url(#p8d1f784ee1)" style="fill: #f49f7b"/>
   </g>
   <g id="patch_411">
    <path d="M 269.799224 142.161624 
L 271.131521 142.161624 
L 271.131521 126.835494 
L 269.799224 126.835494 
z
" clip-path="url(#p8d1f784ee1)" style="fill: #59595c"/>
   </g>
   <g id="patch_412">
    <path d="M 271.131521 142.161624 
L 276.16839 142.161624 
L 276.16839 126.835494 
L 271.131521 126.835494 
z
" clip-path="url(#p8d1f784ee1)" style="fill: #91d1bc"/>
   </g>
   <g id="patch_413">
    <path d="M 276.16839 142.161624 
L 276.292063 142.161624 
L 276.292063 126.835494 
L 276.16839 126.835494 
z
" clip-path="url(#p8d1f784ee1)" style="fill: #59595c"/>
   </g>
   <g id="patch_414">
    <path d="M 276.292063 142.161624 
L 276.814863 142.161624 
L 276.814863 126.835494 
L 276.292063 126.835494 
z
" clip-path="url(#p8d1f784ee1)" style="fill: #f49f7b"/>
   </g>
   <g id="patch_415">
    <path d="M 276.814863 142.161624 
L 278.135917 142.161624 
L 278.135917 126.835494 
L 276.814863 126.835494 
z
" clip-path="url(#p8d1f784ee1)" style="fill: #59595c"/>
   </g>
   <g id="patch_416">
    <path d="M 278.135917 142.161624 
L 280.513813 142.161624 
L 280.513813 126.835494 
L 278.135917 126.835494 
z
" clip-path="url(#p8d1f784ee1)" style="fill: #91d1bc"/>
   </g>
   <g id="patch_417">
    <path d="M 280.513813 142.161624 
L 284.803022 142.161624 
L 284.803022 126.835494 
L 280.513813 126.835494 
z
" clip-path="url(#p8d1f784ee1)" style="fill: #59595c"/>
   </g>
   <g id="patch_418">
    <path d="M 284.803022 142.161624 
L 288.586295 142.161624 
L 288.586295 126.835494 
L 284.803022 126.835494 
z
" clip-path="url(#p8d1f784ee1)" style="fill: #91d1bc"/>
   </g>
   <g id="patch_419">
    <path d="M 288.586295 142.161624 
L 291.638773 142.161624 
L 291.638773 126.835494 
L 288.586295 126.835494 
z
" clip-path="url(#p8d1f784ee1)" style="fill: #59595c"/>
   </g>
   <g id="patch_420">
    <path d="M 291.638773 142.161624 
L 291.694988 142.161624 
L 291.694988 126.835494 
L 291.638773 126.835494 
z
" clip-path="url(#p8d1f784ee1)" style="fill: #91d1bc"/>
   </g>
   <g id="patch_421">
    <path d="M 291.694988 142.161624 
L 292.178437 142.161624 
L 292.178437 126.835494 
L 291.694988 126.835494 
z
" clip-path="url(#p8d1f784ee1)" style="fill: #59595c"/>
   </g>
   <g id="patch_422">
    <path d="M 292.178437 142.161624 
L 292.611293 142.161624 
L 292.611293 126.835494 
L 292.178437 126.835494 
z
" clip-path="url(#p8d1f784ee1)" style="fill: #91d1bc"/>
   </g>
   <g id="patch_423">
    <path d="M 292.611293 142.161624 
L 292.616914 142.161624 
L 292.616914 126.835494 
L 292.611293 126.835494 
z
" clip-path="url(#p8d1f784ee1)" style="fill: #59595c"/>
   </g>
   <g id="patch_424">
    <path d="M 292.616914 142.161624 
L 292.633779 142.161624 
L 292.633779 126.835494 
L 292.616914 126.835494 
z
" clip-path="url(#p8d1f784ee1)" style="fill: #91d1bc"/>
   </g>
   <g id="patch_425">
    <path d="M 292.633779 142.161624 
L 293.077878 142.161624 
L 293.077878 126.835494 
L 292.633779 126.835494 
z
" clip-path="url(#p8d1f784ee1)" style="fill: #59595c"/>
   </g>
   <g id="patch_426">
    <path d="M 293.077878 142.161624 
L 298.879271 142.161624 
L 298.879271 126.835494 
L 293.077878 126.835494 
z
" clip-path="url(#p8d1f784ee1)" style="fill: #91d1bc"/>
   </g>
   <g id="patch_427">
    <path d="M 298.879271 142.161624 
L 298.884893 142.161624 
L 298.884893 126.835494 
L 298.879271 126.835494 
z
" clip-path="url(#p8d1f784ee1)" style="fill: #59595c"/>
   </g>
   <g id="patch_428">
    <path d="M 298.884893 142.161624 
L 298.969215 142.161624 
L 298.969215 126.835494 
L 298.884893 126.835494 
z
" clip-path="url(#p8d1f784ee1)" style="fill: #91d1bc"/>
   </g>
   <g id="patch_429">
    <path d="M 298.969215 142.161624 
L 298.974837 142.161624 
L 298.974837 126.835494 
L 298.969215 126.835494 
z
" clip-path="url(#p8d1f784ee1)" style="fill: #59595c"/>
   </g>
   <g id="patch_430">
    <path d="M 298.974837 142.161624 
L 299.373964 142.161624 
L 299.373964 126.835494 
L 298.974837 126.835494 
z
" clip-path="url(#p8d1f784ee1)" style="fill: #91d1bc"/>
   </g>
   <g id="patch_431">
    <path d="M 299.373964 142.161624 
L 300.453293 142.161624 
L 300.453293 126.835494 
L 299.373964 126.835494 
z
" clip-path="url(#p8d1f784ee1)" style="fill: #59595c"/>
   </g>
   <g id="patch_432">
    <path d="M 300.453293 142.161624 
L 300.616317 142.161624 
L 300.616317 126.835494 
L 300.453293 126.835494 
z
" clip-path="url(#p8d1f784ee1)" style="fill: #91d1bc"/>
   </g>
   <g id="patch_433">
    <path d="M 300.616317 142.161624 
L 300.621938 142.161624 
L 300.621938 126.835494 
L 300.616317 126.835494 
z
" clip-path="url(#p8d1f784ee1)" style="fill: #59595c"/>
   </g>
   <g id="patch_434">
    <path d="M 300.621938 142.161624 
L 300.633181 142.161624 
L 300.633181 126.835494 
L 300.621938 126.835494 
z
" clip-path="url(#p8d1f784ee1)" style="fill: #91d1bc"/>
   </g>
   <g id="patch_435">
    <path d="M 300.633181 142.161624 
L 303.027942 142.161624 
L 303.027942 126.835494 
L 300.633181 126.835494 
z
" clip-path="url(#p8d1f784ee1)" style="fill: #59595c"/>
   </g>
   <g id="patch_436">
    <path d="M 303.027942 142.161624 
L 304.427697 142.161624 
L 304.427697 126.835494 
L 303.027942 126.835494 
z
" clip-path="url(#p8d1f784ee1)" style="fill: #f49f7b"/>
   </g>
   <g id="patch_437">
    <path d="M 304.427697 142.161624 
L 314.664458 142.161624 
L 314.664458 126.835494 
L 304.427697 126.835494 
z
" clip-path="url(#p8d1f784ee1)" style="fill: #59595c"/>
   </g>
   <g id="patch_438">
    <path d="M 314.664458 142.161624 
L 314.686944 142.161624 
L 314.686944 126.835494 
L 314.664458 126.835494 
z
" clip-path="url(#p8d1f784ee1)" style="fill: #f49f7b"/>
   </g>
   <g id="patch_439">
    <path d="M 314.686944 142.161624 
L 314.692566 142.161624 
L 314.692566 126.835494 
L 314.686944 126.835494 
z
" clip-path="url(#p8d1f784ee1)" style="fill: #59595c"/>
   </g>
   <g id="patch_440">
    <path d="M 314.692566 142.161624 
L 314.698187 142.161624 
L 314.698187 126.835494 
L 314.692566 126.835494 
z
" clip-path="url(#p8d1f784ee1)" style="fill: #f49f7b"/>
   </g>
   <g id="patch_441">
    <path d="M 314.698187 142.161624 
L 321.961172 142.161624 
L 321.961172 126.835494 
L 314.698187 126.835494 
z
" clip-path="url(#p8d1f784ee1)" style="fill: #59595c"/>
   </g>
   <g id="patch_442">
    <path d="M 321.961172 142.161624 
L 322.219762 142.161624 
L 322.219762 126.835494 
L 321.961172 126.835494 
z
" clip-path="url(#p8d1f784ee1)" style="fill: #f49f7b"/>
   </g>
   <g id="patch_443">
    <path d="M 322.219762 142.161624 
L 326.239138 142.161624 
L 326.239138 126.835494 
L 322.219762 126.835494 
z
" clip-path="url(#p8d1f784ee1)" style="fill: #59595c"/>
   </g>
   <g id="patch_444">
    <path d="M 326.239138 142.161624 
L 327.796295 142.161624 
L 327.796295 126.835494 
L 326.239138 126.835494 
z
" clip-path="url(#p8d1f784ee1)" style="fill: #f49f7b"/>
   </g>
   <g id="patch_445">
    <path d="M 327.796295 142.161624 
L 331.753835 142.161624 
L 331.753835 126.835494 
L 327.796295 126.835494 
z
" clip-path="url(#p8d1f784ee1)" style="fill: #59595c"/>
   </g>
   <g id="patch_446">
    <path d="M 331.753835 142.161624 
L 331.888751 142.161624 
L 331.888751 126.835494 
L 331.753835 126.835494 
z
" clip-path="url(#p8d1f784ee1)" style="fill: #f49f7b"/>
   </g>
   <g id="patch_447">
    <path d="M 331.888751 142.161624 
L 339.264166 142.161624 
L 339.264166 126.835494 
L 331.888751 126.835494 
z
" clip-path="url(#p8d1f784ee1)" style="fill: #59595c"/>
   </g>
   <g id="patch_448">
    <path d="M 339.264166 142.161624 
L 340.073663 142.161624 
L 340.073663 126.835494 
L 339.264166 126.835494 
z
" clip-path="url(#p8d1f784ee1)" style="fill: #f49f7b"/>
   </g>
   <g id="patch_449">
    <path d="M 340.073663 142.161624 
L 347.482807 142.161624 
L 347.482807 126.835494 
L 340.073663 126.835494 
z
" clip-path="url(#p8d1f784ee1)" style="fill: #59595c"/>
   </g>
   <g id="patch_450">
    <path d="M 347.482807 142.161624 
L 347.898798 142.161624 
L 347.898798 126.835494 
L 347.482807 126.835494 
z
" clip-path="url(#p8d1f784ee1)" style="fill: #f49f7b"/>
   </g>
   <g id="patch_451">
    <path d="M 347.898798 142.161624 
L 352.334166 142.161624 
L 352.334166 126.835494 
L 347.898798 126.835494 
z
" clip-path="url(#p8d1f784ee1)" style="fill: #59595c"/>
   </g>
   <g id="patch_452">
    <path d="M 352.334166 142.161624 
L 354.279207 142.161624 
L 354.279207 126.835494 
L 352.334166 126.835494 
z
" clip-path="url(#p8d1f784ee1)" style="fill: #f49f7b"/>
   </g>
   <g id="patch_453">
    <path d="M 354.279207 142.161624 
L 358.905706 142.161624 
L 358.905706 126.835494 
L 354.279207 126.835494 
z
" clip-path="url(#p8d1f784ee1)" style="fill: #59595c"/>
   </g>
   <g id="patch_454">
    <path d="M 358.905706 142.161624 
L 359.456613 142.161624 
L 359.456613 126.835494 
L 358.905706 126.835494 
z
" clip-path="url(#p8d1f784ee1)" style="fill: #f49f7b"/>
   </g>
   <g id="patch_455">
    <path d="M 359.456613 142.161624 
L 359.636501 142.161624 
L 359.636501 126.835494 
L 359.456613 126.835494 
z
" clip-path="url(#p8d1f784ee1)" style="fill: #59595c"/>
   </g>
   <g id="patch_456">
    <path d="M 359.636501 142.161624 
L 359.996278 142.161624 
L 359.996278 126.835494 
L 359.636501 126.835494 
z
" clip-path="url(#p8d1f784ee1)" style="fill: #f49f7b"/>
   </g>
   <g id="patch_457">
    <path d="M 359.996278 142.161624 
L 360.288596 142.161624 
L 360.288596 126.835494 
L 359.996278 126.835494 
z
" clip-path="url(#p8d1f784ee1)" style="fill: #59595c"/>
   </g>
   <g id="patch_458">
    <path d="M 360.288596 142.161624 
L 361.1262 142.161624 
L 361.1262 126.835494 
L 360.288596 126.835494 
z
" clip-path="url(#p8d1f784ee1)" style="fill: #f49f7b"/>
   </g>
   <g id="patch_459">
    <path d="M 361.1262 142.161624 
L 368.271133 142.161624 
L 368.271133 126.835494 
L 361.1262 126.835494 
z
" clip-path="url(#p8d1f784ee1)" style="fill: #59595c"/>
   </g>
   <g id="patch_460">
    <path d="M 368.271133 142.161624 
L 368.316106 142.161624 
L 368.316106 126.835494 
L 368.271133 126.835494 
z
" clip-path="url(#p8d1f784ee1)" style="fill: #f49f7b"/>
   </g>
   <g id="patch_461">
    <path d="M 368.316106 142.161624 
L 369.350462 142.161624 
L 369.350462 126.835494 
L 368.316106 126.835494 
z
" clip-path="url(#p8d1f784ee1)" style="fill: #59595c"/>
   </g>
   <g id="patch_462">
    <path d="M 369.350462 142.161624 
L 372.363589 142.161624 
L 372.363589 126.835494 
L 369.350462 126.835494 
z
" clip-path="url(#p8d1f784ee1)" style="fill: #f49f7b"/>
   </g>
   <g id="patch_463">
    <path d="M 372.363589 142.161624 
L 374.426682 142.161624 
L 374.426682 126.835494 
L 372.363589 126.835494 
z
" clip-path="url(#p8d1f784ee1)" style="fill: #59595c"/>
   </g>
   <g id="patch_464">
    <path d="M 374.426682 142.161624 
L 374.876402 142.161624 
L 374.876402 126.835494 
L 374.426682 126.835494 
z
" clip-path="url(#p8d1f784ee1)" style="fill: #f49f7b"/>
   </g>
   <g id="patch_465">
    <path d="M 374.876402 142.161624 
L 375.899516 142.161624 
L 375.899516 126.835494 
L 374.876402 126.835494 
z
" clip-path="url(#p8d1f784ee1)" style="fill: #59595c"/>
   </g>
   <g id="matplotlib.axis_13"/>
   <g id="matplotlib.axis_14"/>
   <g id="text_10">
    <text style="font-size: 9px; font-family: 'Arial'; text-anchor: end" x="53.420625" y="136.825199" transform="rotate(-0 53.420625 136.825199)">prediction</text>
   </g>
  </g>
  <g id="axes_8">
   <g id="matplotlib.axis_15"/>
   <g id="matplotlib.axis_16"/>
   <g id="text_11">
    <text style="font-size: 9px; font-family: 'Arial'; text-anchor: start" x="57.244485" y="154.604135" transform="rotate(-0 57.244485 154.604135)">0</text>
   </g>
   <g id="text_12">
    <text style="font-size: 9px; font-family: 'Arial'; text-anchor: end" x="375.899516" y="154.604135" transform="rotate(-0 375.899516 154.604135)">56685</text>
   </g>
   <g id="text_13">
    <text style="font-size: 10px; font-family: 'Arial'; text-anchor: middle" x="216.572001" y="171.412353" transform="rotate(-0 216.572001 171.412353)">frames</text>
   </g>
  </g>
 </g>
 <defs>
  <clipPath id="p7617dea90e">
   <rect x="57.244485" y="31.128771" width="318.655031" height="15.32613"/>
  </clipPath>
  <clipPath id="pbc13a87f8e">
   <rect x="57.244485" y="52.455381" width="318.655031" height="15.32613"/>
  </clipPath>
  <clipPath id="p378e51962b">
   <rect x="57.244485" y="105.508884" width="318.655031" height="15.32613"/>
  </clipPath>
  <clipPath id="p8d1f784ee1">
   <rect x="57.244485" y="126.835494" width="318.655031" height="15.32613"/>
  </clipPath>
 </defs>
</svg>
