<?xml version="1.0" encoding="utf-8" standalone="no"?>
<!DOCTYPE svg PUBLIC "-//W3C//DTD SVG 1.1//EN"
  "http://www.w3.org/Graphics/SVG/1.1/DTD/svg11.dtd">
<svg xmlns:xlink="http://www.w3.org/1999/xlink" width="375.899516pt" height="173.399853pt" viewBox="0 0 375.899516 173.399853" xmlns="http://www.w3.org/2000/svg" version="1.1">
 <metadata>
  <rdf:RDF xmlns:dc="http://purl.org/dc/elements/1.1/" xmlns:cc="http://creativecommons.org/ns#" xmlns:rdf="http://www.w3.org/1999/02/22-rdf-syntax-ns#">
   <cc:Work>
    <dc:type rdf:resource="http://purl.org/dc/dcmitype/StillImage"/>
    <dc:date>2026-05-13T18:15:00.306629</dc:date>
    <dc:format>image/svg+xml</dc:format>
    <dc:creator>
     <cc:Agent>
      <dc:title>Matplotlib v3.10.9, https://matplotlib.org/</dc:title>
     </cc:Agent>
    </dc:creator>
   </cc:Work>
  </rdf:RDF>
 </metadata>
 <defs>
  <style type="text/css">*{stroke-linejoin: round; stroke-linecap: butt}</style>
 </defs>
 <g id="figure_1">
  <g id="patch_1">
   <path d="M 0 173.399853 
L 375.899516 173.399853 
L 375.899516 0 
L 0 0 
z
" style="fill: #ffffff"/>
  </g>
  <g id="axes_1">
   <g id="matplotlib.axis_1"/>
   <g id="matplotlib.axis_2"/>
   <g id="text_1">
    <text style="font-style: italic; font-size: 10px; font-family: 'Arial'; text-anchor: start" x="50.044485" y="15.105552" transform="rotate(-0 50.044485 15.105552)">Example video 1: accuracy </text>
   </g>
   <g id="text_2">
    <text style="font-style: italic; font-weight: 700; font-size: 10px; font-family: 'Arial'; text-anchor: start" x="174.133512" y="15.153989" transform="rotate(-0 174.133512 15.153989)">93.9%</text>
   </g>
  </g>
  <g id="axes_2">
   <g id="patch_2">
    <path d="M 50.044485 39.254901 
L 50.987761 39.254901 
L 50.987761 23.928771 
L 50.044485 23.928771 
z
" clip-path="url(#p3046a92004)" style="fill: #f49f7b"/>
   </g>
   <g id="patch_3">
    <path d="M 50.987761 39.254901 
L 54.938419 39.254901 
L 54.938419 23.928771 
L 50.987761 23.928771 
z
" clip-path="url(#p3046a92004)" style="fill: #59595c"/>
   </g>
   <g id="patch_4">
    <path d="M 54.938419 39.254901 
L 55.4378 39.254901 
L 55.4378 23.928771 
L 54.938419 23.928771 
z
" clip-path="url(#p3046a92004)" style="fill: #f49f7b"/>
   </g>
   <g id="patch_5">
    <path d="M 55.4378 39.254901 
L 61.058611 39.254901 
L 61.058611 23.928771 
L 55.4378 23.928771 
z
" clip-path="url(#p3046a92004)" style="fill: #59595c"/>
   </g>
   <g id="patch_6">
    <path d="M 61.058611 39.254901 
L 61.641222 39.254901 
L 61.641222 23.928771 
L 61.058611 23.928771 
z
" clip-path="url(#p3046a92004)" style="fill: #f49f7b"/>
   </g>
   <g id="patch_7">
    <path d="M 61.641222 39.254901 
L 104.538052 39.254901 
L 104.538052 23.928771 
L 61.641222 23.928771 
z
" clip-path="url(#p3046a92004)" style="fill: #59595c"/>
   </g>
   <g id="patch_8">
    <path d="M 104.538052 39.254901 
L 105.203894 39.254901 
L 105.203894 23.928771 
L 104.538052 23.928771 
z
" clip-path="url(#p3046a92004)" style="fill: #f49f7b"/>
   </g>
   <g id="patch_9">
    <path d="M 105.203894 39.254901 
L 112.661317 39.254901 
L 112.661317 23.928771 
L 105.203894 23.928771 
z
" clip-path="url(#p3046a92004)" style="fill: #59595c"/>
   </g>
   <g id="patch_10">
    <path d="M 112.661317 39.254901 
L 113.077468 39.254901 
L 113.077468 23.928771 
L 112.661317 23.928771 
z
" clip-path="url(#p3046a92004)" style="fill: #f49f7b"/>
   </g>
   <g id="patch_11">
    <path d="M 113.077468 39.254901 
L 119.486191 39.254901 
L 119.486191 23.928771 
L 113.077468 23.928771 
z
" clip-path="url(#p3046a92004)" style="fill: #59595c"/>
   </g>
   <g id="patch_12">
    <path d="M 119.486191 39.254901 
L 119.902342 39.254901 
L 119.902342 23.928771 
L 119.486191 23.928771 
z
" clip-path="url(#p3046a92004)" style="fill: #f49f7b"/>
   </g>
   <g id="patch_13">
    <path d="M 119.902342 39.254901 
L 133.590931 39.254901 
L 133.590931 23.928771 
L 119.902342 23.928771 
z
" clip-path="url(#p3046a92004)" style="fill: #59595c"/>
   </g>
   <g id="patch_14">
    <path d="M 133.590931 39.254901 
L 134.051471 39.254901 
L 134.051471 23.928771 
L 133.590931 23.928771 
z
" clip-path="url(#p3046a92004)" style="fill: #f49f7b"/>
   </g>
   <g id="patch_15">
    <path d="M 134.051471 39.254901 
L 135.965765 39.254901 
L 135.965765 23.928771 
L 134.051471 23.928771 
z
" clip-path="url(#p3046a92004)" style="fill: #59595c"/>
   </g>
   <g id="patch_16">
    <path d="M 135.965765 39.254901 
L 137.713598 39.254901 
L 137.713598 23.928771 
L 135.965765 23.928771 
z
" clip-path="url(#p3046a92004)" style="fill: #f49f7b"/>
   </g>
   <g id="patch_17">
    <path d="M 137.713598 39.254901 
L 140.415805 39.254901 
L 140.415805 23.928771 
L 137.713598 23.928771 
z
" clip-path="url(#p3046a92004)" style="fill: #59595c"/>
   </g>
   <g id="patch_18">
    <path d="M 140.415805 39.254901 
L 142.540948 39.254901 
L 142.540948 23.928771 
L 140.415805 23.928771 
z
" clip-path="url(#p3046a92004)" style="fill: #f49f7b"/>
   </g>
   <g id="patch_19">
    <path d="M 142.540948 39.254901 
L 144.660543 39.254901 
L 144.660543 23.928771 
L 142.540948 23.928771 
z
" clip-path="url(#p3046a92004)" style="fill: #59595c"/>
   </g>
   <g id="patch_20">
    <path d="M 144.660543 39.254901 
L 144.871393 39.254901 
L 144.871393 23.928771 
L 144.660543 23.928771 
z
" clip-path="url(#p3046a92004)" style="fill: #f49f7b"/>
   </g>
   <g id="patch_21">
    <path d="M 144.871393 39.254901 
L 150.331292 39.254901 
L 150.331292 23.928771 
L 144.871393 23.928771 
z
" clip-path="url(#p3046a92004)" style="fill: #59595c"/>
   </g>
   <g id="patch_22">
    <path d="M 150.331292 39.254901 
L 150.497753 39.254901 
L 150.497753 23.928771 
L 150.331292 23.928771 
z
" clip-path="url(#p3046a92004)" style="fill: #f49f7b"/>
   </g>
   <g id="patch_23">
    <path d="M 150.497753 39.254901 
L 151.413284 39.254901 
L 151.413284 23.928771 
L 150.497753 23.928771 
z
" clip-path="url(#p3046a92004)" style="fill: #59595c"/>
   </g>
   <g id="patch_24">
    <path d="M 151.413284 39.254901 
L 153.033498 39.254901 
L 153.033498 23.928771 
L 151.413284 23.928771 
z
" clip-path="url(#p3046a92004)" style="fill: #f49f7b"/>
   </g>
   <g id="patch_25">
    <path d="M 153.033498 39.254901 
L 156.945316 39.254901 
L 156.945316 23.928771 
L 153.033498 23.928771 
z
" clip-path="url(#p3046a92004)" style="fill: #59595c"/>
   </g>
   <g id="patch_26">
    <path d="M 156.945316 39.254901 
L 157.156166 39.254901 
L 157.156166 23.928771 
L 156.945316 23.928771 
z
" clip-path="url(#p3046a92004)" style="fill: #f49f7b"/>
   </g>
   <g id="patch_27">
    <path d="M 157.156166 39.254901 
L 163.35404 39.254901 
L 163.35404 23.928771 
L 157.156166 23.928771 
z
" clip-path="url(#p3046a92004)" style="fill: #59595c"/>
   </g>
   <g id="patch_28">
    <path d="M 163.35404 39.254901 
L 164.602492 39.254901 
L 164.602492 23.928771 
L 163.35404 23.928771 
z
" clip-path="url(#p3046a92004)" style="fill: #f49f7b"/>
   </g>
   <g id="patch_29">
    <path d="M 164.602492 39.254901 
L 176.465566 39.254901 
L 176.465566 23.928771 
L 164.602492 23.928771 
z
" clip-path="url(#p3046a92004)" style="fill: #59595c"/>
   </g>
   <g id="patch_30">
    <path d="M 176.465566 39.254901 
L 177.919319 39.254901 
L 177.919319 23.928771 
L 176.465566 23.928771 
z
" clip-path="url(#p3046a92004)" style="fill: #f49f7b"/>
   </g>
   <g id="patch_31">
    <path d="M 177.919319 39.254901 
L 181.026579 39.254901 
L 181.026579 23.928771 
L 177.919319 23.928771 
z
" clip-path="url(#p3046a92004)" style="fill: #59595c"/>
   </g>
   <g id="patch_32">
    <path d="M 181.026579 39.254901 
L 181.14865 39.254901 
L 181.14865 23.928771 
L 181.026579 23.928771 
z
" clip-path="url(#p3046a92004)" style="fill: #f49f7b"/>
   </g>
   <g id="patch_33">
    <path d="M 181.14865 39.254901 
L 193.844025 39.254901 
L 193.844025 23.928771 
L 181.14865 23.928771 
z
" clip-path="url(#p3046a92004)" style="fill: #59595c"/>
   </g>
   <g id="patch_34">
    <path d="M 193.844025 39.254901 
L 194.426637 39.254901 
L 194.426637 23.928771 
L 193.844025 23.928771 
z
" clip-path="url(#p3046a92004)" style="fill: #f49f7b"/>
   </g>
   <g id="patch_35">
    <path d="M 194.426637 39.254901 
L 203.337813 39.254901 
L 203.337813 23.928771 
L 194.426637 23.928771 
z
" clip-path="url(#p3046a92004)" style="fill: #59595c"/>
   </g>
   <g id="patch_36">
    <path d="M 203.337813 39.254901 
L 203.964814 39.254901 
L 203.964814 23.928771 
L 203.337813 23.928771 
z
" clip-path="url(#p3046a92004)" style="fill: #91d1bc"/>
   </g>
   <g id="patch_37">
    <path d="M 203.964814 39.254901 
L 207.260729 39.254901 
L 207.260729 23.928771 
L 203.964814 23.928771 
z
" clip-path="url(#p3046a92004)" style="fill: #59595c"/>
   </g>
   <g id="patch_38">
    <path d="M 207.260729 39.254901 
L 209.757634 39.254901 
L 209.757634 23.928771 
L 207.260729 23.928771 
z
" clip-path="url(#p3046a92004)" style="fill: #f49f7b"/>
   </g>
   <g id="patch_39">
    <path d="M 209.757634 39.254901 
L 211.588698 39.254901 
L 211.588698 23.928771 
L 209.757634 23.928771 
z
" clip-path="url(#p3046a92004)" style="fill: #59595c"/>
   </g>
   <g id="patch_40">
    <path d="M 211.588698 39.254901 
L 211.838388 39.254901 
L 211.838388 23.928771 
L 211.588698 23.928771 
z
" clip-path="url(#p3046a92004)" style="fill: #f49f7b"/>
   </g>
   <g id="patch_41">
    <path d="M 211.838388 39.254901 
L 222.824771 39.254901 
L 222.824771 23.928771 
L 211.838388 23.928771 
z
" clip-path="url(#p3046a92004)" style="fill: #59595c"/>
   </g>
   <g id="patch_42">
    <path d="M 222.824771 39.254901 
L 223.740303 39.254901 
L 223.740303 23.928771 
L 222.824771 23.928771 
z
" clip-path="url(#p3046a92004)" style="fill: #f49f7b"/>
   </g>
   <g id="patch_43">
    <path d="M 223.740303 39.254901 
L 225.571366 39.254901 
L 225.571366 23.928771 
L 223.740303 23.928771 
z
" clip-path="url(#p3046a92004)" style="fill: #59595c"/>
   </g>
   <g id="patch_44">
    <path d="M 225.571366 39.254901 
L 228.600945 39.254901 
L 228.600945 23.928771 
L 225.571366 23.928771 
z
" clip-path="url(#p3046a92004)" style="fill: #f49f7b"/>
   </g>
   <g id="patch_45">
    <path d="M 228.600945 39.254901 
L 232.035576 39.254901 
L 232.035576 23.928771 
L 228.600945 23.928771 
z
" clip-path="url(#p3046a92004)" style="fill: #59595c"/>
   </g>
   <g id="patch_46">
    <path d="M 232.035576 39.254901 
L 233.245188 39.254901 
L 233.245188 23.928771 
L 232.035576 23.928771 
z
" clip-path="url(#p3046a92004)" style="fill: #f49f7b"/>
   </g>
   <g id="patch_47">
    <path d="M 233.245188 39.254901 
L 233.711277 39.254901 
L 233.711277 23.928771 
L 233.245188 23.928771 
z
" clip-path="url(#p3046a92004)" style="fill: #59595c"/>
   </g>
   <g id="patch_48">
    <path d="M 233.711277 39.254901 
L 234.876499 39.254901 
L 234.876499 23.928771 
L 233.711277 23.928771 
z
" clip-path="url(#p3046a92004)" style="fill: #f49f7b"/>
   </g>
   <g id="patch_49">
    <path d="M 234.876499 39.254901 
L 236.213731 39.254901 
L 236.213731 23.928771 
L 234.876499 23.928771 
z
" clip-path="url(#p3046a92004)" style="fill: #59595c"/>
   </g>
   <g id="patch_50">
    <path d="M 236.213731 39.254901 
L 238.422105 39.254901 
L 238.422105 23.928771 
L 236.213731 23.928771 
z
" clip-path="url(#p3046a92004)" style="fill: #f49f7b"/>
   </g>
   <g id="patch_51">
    <path d="M 238.422105 39.254901 
L 238.921486 39.254901 
L 238.921486 23.928771 
L 238.422105 23.928771 
z
" clip-path="url(#p3046a92004)" style="fill: #59595c"/>
   </g>
   <g id="patch_52">
    <path d="M 238.921486 39.254901 
L 239.437513 39.254901 
L 239.437513 23.928771 
L 238.921486 23.928771 
z
" clip-path="url(#p3046a92004)" style="fill: #f49f7b"/>
   </g>
   <g id="patch_53">
    <path d="M 239.437513 39.254901 
L 239.853664 39.254901 
L 239.853664 23.928771 
L 239.437513 23.928771 
z
" clip-path="url(#p3046a92004)" style="fill: #59595c"/>
   </g>
   <g id="patch_54">
    <path d="M 239.853664 39.254901 
L 240.685965 39.254901 
L 240.685965 23.928771 
L 239.853664 23.928771 
z
" clip-path="url(#p3046a92004)" style="fill: #f49f7b"/>
   </g>
   <g id="patch_55">
    <path d="M 240.685965 39.254901 
L 241.351807 39.254901 
L 241.351807 23.928771 
L 240.685965 23.928771 
z
" clip-path="url(#p3046a92004)" style="fill: #59595c"/>
   </g>
   <g id="patch_56">
    <path d="M 241.351807 39.254901 
L 241.723568 39.254901 
L 241.723568 23.928771 
L 241.351807 23.928771 
z
" clip-path="url(#p3046a92004)" style="fill: #f49f7b"/>
   </g>
   <g id="patch_57">
    <path d="M 241.723568 39.254901 
L 242.47264 39.254901 
L 242.47264 23.928771 
L 241.723568 23.928771 
z
" clip-path="url(#p3046a92004)" style="fill: #59595c"/>
   </g>
   <g id="patch_58">
    <path d="M 242.47264 39.254901 
L 243.266101 39.254901 
L 243.266101 23.928771 
L 242.47264 23.928771 
z
" clip-path="url(#p3046a92004)" style="fill: #f49f7b"/>
   </g>
   <g id="patch_59">
    <path d="M 243.266101 39.254901 
L 244.015172 39.254901 
L 244.015172 23.928771 
L 243.266101 23.928771 
z
" clip-path="url(#p3046a92004)" style="fill: #59595c"/>
   </g>
   <g id="patch_60">
    <path d="M 244.015172 39.254901 
L 245.013934 39.254901 
L 245.013934 23.928771 
L 244.015172 23.928771 
z
" clip-path="url(#p3046a92004)" style="fill: #f49f7b"/>
   </g>
   <g id="patch_61">
    <path d="M 245.013934 39.254901 
L 248.803681 39.254901 
L 248.803681 23.928771 
L 245.013934 23.928771 
z
" clip-path="url(#p3046a92004)" style="fill: #59595c"/>
   </g>
   <g id="patch_62">
    <path d="M 248.803681 39.254901 
L 249.31416 39.254901 
L 249.31416 23.928771 
L 248.803681 23.928771 
z
" clip-path="url(#p3046a92004)" style="fill: #f49f7b"/>
   </g>
   <g id="patch_63">
    <path d="M 249.31416 39.254901 
L 249.525009 39.254901 
L 249.525009 23.928771 
L 249.31416 23.928771 
z
" clip-path="url(#p3046a92004)" style="fill: #59595c"/>
   </g>
   <g id="patch_64">
    <path d="M 249.525009 39.254901 
L 250.107621 39.254901 
L 250.107621 23.928771 
L 249.525009 23.928771 
z
" clip-path="url(#p3046a92004)" style="fill: #f49f7b"/>
   </g>
   <g id="patch_65">
    <path d="M 250.107621 39.254901 
L 250.357311 39.254901 
L 250.357311 23.928771 
L 250.107621 23.928771 
z
" clip-path="url(#p3046a92004)" style="fill: #59595c"/>
   </g>
   <g id="patch_66">
    <path d="M 250.357311 39.254901 
L 252.105145 39.254901 
L 252.105145 23.928771 
L 250.357311 23.928771 
z
" clip-path="url(#p3046a92004)" style="fill: #f49f7b"/>
   </g>
   <g id="patch_67">
    <path d="M 252.105145 39.254901 
L 254.51882 39.254901 
L 254.51882 23.928771 
L 252.105145 23.928771 
z
" clip-path="url(#p3046a92004)" style="fill: #59595c"/>
   </g>
   <g id="patch_68">
    <path d="M 254.51882 39.254901 
L 263.008297 39.254901 
L 263.008297 23.928771 
L 254.51882 23.928771 
z
" clip-path="url(#p3046a92004)" style="fill: #f49f7b"/>
   </g>
   <g id="patch_69">
    <path d="M 263.008297 39.254901 
L 266.420734 39.254901 
L 266.420734 23.928771 
L 263.008297 23.928771 
z
" clip-path="url(#p3046a92004)" style="fill: #59595c"/>
   </g>
   <g id="patch_70">
    <path d="M 266.420734 39.254901 
L 267.253036 39.254901 
L 267.253036 23.928771 
L 266.420734 23.928771 
z
" clip-path="url(#p3046a92004)" style="fill: #f49f7b"/>
   </g>
   <g id="patch_71">
    <path d="M 267.253036 39.254901 
L 273.334387 39.254901 
L 273.334387 23.928771 
L 267.253036 23.928771 
z
" clip-path="url(#p3046a92004)" style="fill: #59595c"/>
   </g>
   <g id="patch_72">
    <path d="M 273.334387 39.254901 
L 274.249919 39.254901 
L 274.249919 23.928771 
L 273.334387 23.928771 
z
" clip-path="url(#p3046a92004)" style="fill: #f49f7b"/>
   </g>
   <g id="patch_73">
    <path d="M 274.249919 39.254901 
L 277.162975 39.254901 
L 277.162975 23.928771 
L 274.249919 23.928771 
z
" clip-path="url(#p3046a92004)" style="fill: #59595c"/>
   </g>
   <g id="patch_74">
    <path d="M 277.162975 39.254901 
L 278.705507 39.254901 
L 278.705507 23.928771 
L 277.162975 23.928771 
z
" clip-path="url(#p3046a92004)" style="fill: #f49f7b"/>
   </g>
   <g id="patch_75">
    <path d="M 278.705507 39.254901 
L 279.326959 39.254901 
L 279.326959 23.928771 
L 278.705507 23.928771 
z
" clip-path="url(#p3046a92004)" style="fill: #59595c"/>
   </g>
   <g id="patch_76">
    <path d="M 279.326959 39.254901 
L 280.408951 39.254901 
L 280.408951 23.928771 
L 279.326959 23.928771 
z
" clip-path="url(#p3046a92004)" style="fill: #f49f7b"/>
   </g>
   <g id="patch_77">
    <path d="M 280.408951 39.254901 
L 281.324483 39.254901 
L 281.324483 23.928771 
L 280.408951 23.928771 
z
" clip-path="url(#p3046a92004)" style="fill: #59595c"/>
   </g>
   <g id="patch_78">
    <path d="M 281.324483 39.254901 
L 282.034714 39.254901 
L 282.034714 23.928771 
L 281.324483 23.928771 
z
" clip-path="url(#p3046a92004)" style="fill: #f49f7b"/>
   </g>
   <g id="patch_79">
    <path d="M 282.034714 39.254901 
L 288.066127 39.254901 
L 288.066127 23.928771 
L 282.034714 23.928771 
z
" clip-path="url(#p3046a92004)" style="fill: #59595c"/>
   </g>
   <g id="patch_80">
    <path d="M 288.066127 39.254901 
L 288.776358 39.254901 
L 288.776358 23.928771 
L 288.066127 23.928771 
z
" clip-path="url(#p3046a92004)" style="fill: #f49f7b"/>
   </g>
   <g id="patch_81">
    <path d="M 288.776358 39.254901 
L 292.810247 39.254901 
L 292.810247 23.928771 
L 288.776358 23.928771 
z
" clip-path="url(#p3046a92004)" style="fill: #59595c"/>
   </g>
   <g id="patch_82">
    <path d="M 292.810247 39.254901 
L 293.476088 39.254901 
L 293.476088 23.928771 
L 292.810247 23.928771 
z
" clip-path="url(#p3046a92004)" style="fill: #f49f7b"/>
   </g>
   <g id="patch_83">
    <path d="M 293.476088 39.254901 
L 298.320084 39.254901 
L 298.320084 23.928771 
L 293.476088 23.928771 
z
" clip-path="url(#p3046a92004)" style="fill: #59595c"/>
   </g>
   <g id="patch_84">
    <path d="M 298.320084 39.254901 
L 328.416114 39.254901 
L 328.416114 23.928771 
L 298.320084 23.928771 
z
" clip-path="url(#p3046a92004)" style="fill: #91d1bc"/>
   </g>
   <g id="patch_85">
    <path d="M 328.416114 39.254901 
L 334.275518 39.254901 
L 334.275518 23.928771 
L 328.416114 23.928771 
z
" clip-path="url(#p3046a92004)" style="fill: #59595c"/>
   </g>
   <g id="patch_86">
    <path d="M 334.275518 39.254901 
L 335.401899 39.254901 
L 335.401899 23.928771 
L 334.275518 23.928771 
z
" clip-path="url(#p3046a92004)" style="fill: #f49f7b"/>
   </g>
   <g id="patch_87">
    <path d="M 335.401899 39.254901 
L 341.083746 39.254901 
L 341.083746 23.928771 
L 335.401899 23.928771 
z
" clip-path="url(#p3046a92004)" style="fill: #59595c"/>
   </g>
   <g id="patch_88">
    <path d="M 341.083746 39.254901 
L 341.916047 39.254901 
L 341.916047 23.928771 
L 341.083746 23.928771 
z
" clip-path="url(#p3046a92004)" style="fill: #f49f7b"/>
   </g>
   <g id="patch_89">
    <path d="M 341.916047 39.254901 
L 343.208889 39.254901 
L 343.208889 23.928771 
L 341.916047 23.928771 
z
" clip-path="url(#p3046a92004)" style="fill: #59595c"/>
   </g>
   <g id="patch_90">
    <path d="M 343.208889 39.254901 
L 343.702722 39.254901 
L 343.702722 23.928771 
L 343.208889 23.928771 
z
" clip-path="url(#p3046a92004)" style="fill: #f49f7b"/>
   </g>
   <g id="patch_91">
    <path d="M 343.702722 39.254901 
L 344.995564 39.254901 
L 344.995564 23.928771 
L 343.702722 23.928771 
z
" clip-path="url(#p3046a92004)" style="fill: #59595c"/>
   </g>
   <g id="patch_92">
    <path d="M 344.995564 39.254901 
L 345.411715 39.254901 
L 345.411715 23.928771 
L 344.995564 23.928771 
z
" clip-path="url(#p3046a92004)" style="fill: #f49f7b"/>
   </g>
   <g id="patch_93">
    <path d="M 345.411715 39.254901 
L 346.077556 39.254901 
L 346.077556 23.928771 
L 345.411715 23.928771 
z
" clip-path="url(#p3046a92004)" style="fill: #59595c"/>
   </g>
   <g id="patch_94">
    <path d="M 346.077556 39.254901 
L 346.538096 39.254901 
L 346.538096 23.928771 
L 346.077556 23.928771 
z
" clip-path="url(#p3046a92004)" style="fill: #f49f7b"/>
   </g>
   <g id="patch_95">
    <path d="M 346.538096 39.254901 
L 349.029453 39.254901 
L 349.029453 23.928771 
L 346.538096 23.928771 
z
" clip-path="url(#p3046a92004)" style="fill: #59595c"/>
   </g>
   <g id="patch_96">
    <path d="M 349.029453 39.254901 
L 349.989374 39.254901 
L 349.989374 23.928771 
L 349.029453 23.928771 
z
" clip-path="url(#p3046a92004)" style="fill: #f49f7b"/>
   </g>
   <g id="patch_97">
    <path d="M 349.989374 39.254901 
L 351.948057 39.254901 
L 351.948057 23.928771 
L 349.989374 23.928771 
z
" clip-path="url(#p3046a92004)" style="fill: #59595c"/>
   </g>
   <g id="patch_98">
    <path d="M 351.948057 39.254901 
L 353.401811 39.254901 
L 353.401811 23.928771 
L 351.948057 23.928771 
z
" clip-path="url(#p3046a92004)" style="fill: #f49f7b"/>
   </g>
   <g id="patch_99">
    <path d="M 353.401811 39.254901 
L 357.396859 39.254901 
L 357.396859 23.928771 
L 353.401811 23.928771 
z
" clip-path="url(#p3046a92004)" style="fill: #59595c"/>
   </g>
   <g id="patch_100">
    <path d="M 357.396859 39.254901 
L 358.0627 39.254901 
L 358.0627 23.928771 
L 357.396859 23.928771 
z
" clip-path="url(#p3046a92004)" style="fill: #f49f7b"/>
   </g>
   <g id="patch_101">
    <path d="M 358.0627 39.254901 
L 359.105852 39.254901 
L 359.105852 23.928771 
L 358.0627 23.928771 
z
" clip-path="url(#p3046a92004)" style="fill: #59595c"/>
   </g>
   <g id="patch_102">
    <path d="M 359.105852 39.254901 
L 360.104614 39.254901 
L 360.104614 23.928771 
L 359.105852 23.928771 
z
" clip-path="url(#p3046a92004)" style="fill: #f49f7b"/>
   </g>
   <g id="patch_103">
    <path d="M 360.104614 39.254901 
L 368.699516 39.254901 
L 368.699516 23.928771 
L 360.104614 23.928771 
z
" clip-path="url(#p3046a92004)" style="fill: #59595c"/>
   </g>
   <g id="matplotlib.axis_3"/>
   <g id="matplotlib.axis_4"/>
   <g id="text_3">
    <text style="font-size: 9px; font-family: 'Arial'; text-anchor: end" x="46.220625" y="33.918477" transform="rotate(-0 46.220625 33.918477)">labels</text>
   </g>
  </g>
  <g id="axes_3">
   <g id="patch_104">
    <path d="M 50.044485 60.581511 
L 51.03215 60.581511 
L 51.03215 45.255381 
L 50.044485 45.255381 
z
" clip-path="url(#p99c7290112)" style="fill: #f49f7b"/>
   </g>
   <g id="patch_105">
    <path d="M 51.03215 60.581511 
L 51.709089 60.581511 
L 51.709089 45.255381 
L 51.03215 45.255381 
z
" clip-path="url(#p99c7290112)" style="fill: #59595c"/>
   </g>
   <g id="patch_106">
    <path d="M 51.709089 60.581511 
L 51.99762 60.581511 
L 51.99762 45.255381 
L 51.709089 45.255381 
z
" clip-path="url(#p99c7290112)" style="fill: #f49f7b"/>
   </g>
   <g id="patch_107">
    <path d="M 51.99762 60.581511 
L 54.982809 60.581511 
L 54.982809 45.255381 
L 51.99762 45.255381 
z
" clip-path="url(#p99c7290112)" style="fill: #59595c"/>
   </g>
   <g id="patch_108">
    <path d="M 54.982809 60.581511 
L 55.4378 60.581511 
L 55.4378 45.255381 
L 54.982809 45.255381 
z
" clip-path="url(#p99c7290112)" style="fill: #f49f7b"/>
   </g>
   <g id="patch_109">
    <path d="M 55.4378 60.581511 
L 61.053063 60.581511 
L 61.053063 45.255381 
L 55.4378 45.255381 
z
" clip-path="url(#p99c7290112)" style="fill: #59595c"/>
   </g>
   <g id="patch_110">
    <path d="M 61.053063 60.581511 
L 61.702258 60.581511 
L 61.702258 45.255381 
L 61.053063 45.255381 
z
" clip-path="url(#p99c7290112)" style="fill: #f49f7b"/>
   </g>
   <g id="patch_111">
    <path d="M 61.702258 60.581511 
L 102.65705 60.581511 
L 102.65705 45.255381 
L 61.702258 45.255381 
z
" clip-path="url(#p99c7290112)" style="fill: #59595c"/>
   </g>
   <g id="patch_112">
    <path d="M 102.65705 60.581511 
L 103.095396 60.581511 
L 103.095396 45.255381 
L 102.65705 45.255381 
z
" clip-path="url(#p99c7290112)" style="fill: #f49f7b"/>
   </g>
   <g id="patch_113">
    <path d="M 103.095396 60.581511 
L 104.621283 60.581511 
L 104.621283 45.255381 
L 103.095396 45.255381 
z
" clip-path="url(#p99c7290112)" style="fill: #59595c"/>
   </g>
   <g id="patch_114">
    <path d="M 104.621283 60.581511 
L 104.732256 60.581511 
L 104.732256 45.255381 
L 104.621283 45.255381 
z
" clip-path="url(#p99c7290112)" style="fill: #f49f7b"/>
   </g>
   <g id="patch_115">
    <path d="M 104.732256 60.581511 
L 104.909814 60.581511 
L 104.909814 45.255381 
L 104.732256 45.255381 
z
" clip-path="url(#p99c7290112)" style="fill: #59595c"/>
   </g>
   <g id="patch_116">
    <path d="M 104.909814 60.581511 
L 104.915362 60.581511 
L 104.915362 45.255381 
L 104.909814 45.255381 
z
" clip-path="url(#p99c7290112)" style="fill: #f49f7b"/>
   </g>
   <g id="patch_117">
    <path d="M 104.915362 60.581511 
L 104.920911 60.581511 
L 104.920911 45.255381 
L 104.915362 45.255381 
z
" clip-path="url(#p99c7290112)" style="fill: #59595c"/>
   </g>
   <g id="patch_118">
    <path d="M 104.920911 60.581511 
L 104.959752 60.581511 
L 104.959752 45.255381 
L 104.920911 45.255381 
z
" clip-path="url(#p99c7290112)" style="fill: #f49f7b"/>
   </g>
   <g id="patch_119">
    <path d="M 104.959752 60.581511 
L 104.965301 60.581511 
L 104.965301 45.255381 
L 104.959752 45.255381 
z
" clip-path="url(#p99c7290112)" style="fill: #59595c"/>
   </g>
   <g id="patch_120">
    <path d="M 104.965301 60.581511 
L 105.187248 60.581511 
L 105.187248 45.255381 
L 104.965301 45.255381 
z
" clip-path="url(#p99c7290112)" style="fill: #f49f7b"/>
   </g>
   <g id="patch_121">
    <path d="M 105.187248 60.581511 
L 119.580518 60.581511 
L 119.580518 45.255381 
L 105.187248 45.255381 
z
" clip-path="url(#p99c7290112)" style="fill: #59595c"/>
   </g>
   <g id="patch_122">
    <path d="M 119.580518 60.581511 
L 119.647103 60.581511 
L 119.647103 45.255381 
L 119.580518 45.255381 
z
" clip-path="url(#p99c7290112)" style="fill: #f49f7b"/>
   </g>
   <g id="patch_123">
    <path d="M 119.647103 60.581511 
L 133.585382 60.581511 
L 133.585382 45.255381 
L 119.647103 45.255381 
z
" clip-path="url(#p99c7290112)" style="fill: #59595c"/>
   </g>
   <g id="patch_124">
    <path d="M 133.585382 60.581511 
L 134.040373 60.581511 
L 134.040373 45.255381 
L 133.585382 45.255381 
z
" clip-path="url(#p99c7290112)" style="fill: #f49f7b"/>
   </g>
   <g id="patch_125">
    <path d="M 134.040373 60.581511 
L 135.949119 60.581511 
L 135.949119 45.255381 
L 134.040373 45.255381 
z
" clip-path="url(#p99c7290112)" style="fill: #59595c"/>
   </g>
   <g id="patch_126">
    <path d="M 135.949119 60.581511 
L 137.702501 60.581511 
L 137.702501 45.255381 
L 135.949119 45.255381 
z
" clip-path="url(#p99c7290112)" style="fill: #f49f7b"/>
   </g>
   <g id="patch_127">
    <path d="M 137.702501 60.581511 
L 140.421353 60.581511 
L 140.421353 45.255381 
L 137.702501 45.255381 
z
" clip-path="url(#p99c7290112)" style="fill: #59595c"/>
   </g>
   <g id="patch_128">
    <path d="M 140.421353 60.581511 
L 142.441072 60.581511 
L 142.441072 45.255381 
L 140.421353 45.255381 
z
" clip-path="url(#p99c7290112)" style="fill: #f49f7b"/>
   </g>
   <g id="patch_129">
    <path d="M 142.441072 60.581511 
L 145.215411 60.581511 
L 145.215411 45.255381 
L 142.441072 45.255381 
z
" clip-path="url(#p99c7290112)" style="fill: #59595c"/>
   </g>
   <g id="patch_130">
    <path d="M 145.215411 60.581511 
L 145.570526 60.581511 
L 145.570526 45.255381 
L 145.215411 45.255381 
z
" clip-path="url(#p99c7290112)" style="fill: #f49f7b"/>
   </g>
   <g id="patch_131">
    <path d="M 145.570526 60.581511 
L 145.748084 60.581511 
L 145.748084 45.255381 
L 145.570526 45.255381 
z
" clip-path="url(#p99c7290112)" style="fill: #59595c"/>
   </g>
   <g id="patch_132">
    <path d="M 145.748084 60.581511 
L 146.092102 60.581511 
L 146.092102 45.255381 
L 145.748084 45.255381 
z
" clip-path="url(#p99c7290112)" style="fill: #f49f7b"/>
   </g>
   <g id="patch_133">
    <path d="M 146.092102 60.581511 
L 151.42993 60.581511 
L 151.42993 45.255381 
L 146.092102 45.255381 
z
" clip-path="url(#p99c7290112)" style="fill: #59595c"/>
   </g>
   <g id="patch_134">
    <path d="M 151.42993 60.581511 
L 153.02795 60.581511 
L 153.02795 45.255381 
L 151.42993 45.255381 
z
" clip-path="url(#p99c7290112)" style="fill: #f49f7b"/>
   </g>
   <g id="patch_135">
    <path d="M 153.02795 60.581511 
L 156.989706 60.581511 
L 156.989706 45.255381 
L 153.02795 45.255381 
z
" clip-path="url(#p99c7290112)" style="fill: #59595c"/>
   </g>
   <g id="patch_136">
    <path d="M 156.989706 60.581511 
L 157.039644 60.581511 
L 157.039644 45.255381 
L 156.989706 45.255381 
z
" clip-path="url(#p99c7290112)" style="fill: #f49f7b"/>
   </g>
   <g id="patch_137">
    <path d="M 157.039644 60.581511 
L 163.326296 60.581511 
L 163.326296 45.255381 
L 157.039644 45.255381 
z
" clip-path="url(#p99c7290112)" style="fill: #59595c"/>
   </g>
   <g id="patch_138">
    <path d="M 163.326296 60.581511 
L 164.469324 60.581511 
L 164.469324 45.255381 
L 163.326296 45.255381 
z
" clip-path="url(#p99c7290112)" style="fill: #f49f7b"/>
   </g>
   <g id="patch_139">
    <path d="M 164.469324 60.581511 
L 176.643123 60.581511 
L 176.643123 45.255381 
L 164.469324 45.255381 
z
" clip-path="url(#p99c7290112)" style="fill: #59595c"/>
   </g>
   <g id="patch_140">
    <path d="M 176.643123 60.581511 
L 176.820681 60.581511 
L 176.820681 45.255381 
L 176.643123 45.255381 
z
" clip-path="url(#p99c7290112)" style="fill: #f49f7b"/>
   </g>
   <g id="patch_141">
    <path d="M 176.820681 60.581511 
L 177.353354 60.581511 
L 177.353354 45.255381 
L 176.820681 45.255381 
z
" clip-path="url(#p99c7290112)" style="fill: #59595c"/>
   </g>
   <g id="patch_142">
    <path d="M 177.353354 60.581511 
L 177.886027 60.581511 
L 177.886027 45.255381 
L 177.353354 45.255381 
z
" clip-path="url(#p99c7290112)" style="fill: #f49f7b"/>
   </g>
   <g id="patch_143">
    <path d="M 177.886027 60.581511 
L 203.454336 60.581511 
L 203.454336 45.255381 
L 177.886027 45.255381 
z
" clip-path="url(#p99c7290112)" style="fill: #59595c"/>
   </g>
   <g id="patch_144">
    <path d="M 203.454336 60.581511 
L 204.375416 60.581511 
L 204.375416 45.255381 
L 203.454336 45.255381 
z
" clip-path="url(#p99c7290112)" style="fill: #91d1bc"/>
   </g>
   <g id="patch_145">
    <path d="M 204.375416 60.581511 
L 204.425354 60.581511 
L 204.425354 45.255381 
L 204.375416 45.255381 
z
" clip-path="url(#p99c7290112)" style="fill: #59595c"/>
   </g>
   <g id="patch_146">
    <path d="M 204.425354 60.581511 
L 204.430903 60.581511 
L 204.430903 45.255381 
L 204.425354 45.255381 
z
" clip-path="url(#p99c7290112)" style="fill: #91d1bc"/>
   </g>
   <g id="patch_147">
    <path d="M 204.430903 60.581511 
L 204.458646 60.581511 
L 204.458646 45.255381 
L 204.430903 45.255381 
z
" clip-path="url(#p99c7290112)" style="fill: #59595c"/>
   </g>
   <g id="patch_148">
    <path d="M 204.458646 60.581511 
L 204.464195 60.581511 
L 204.464195 45.255381 
L 204.458646 45.255381 
z
" clip-path="url(#p99c7290112)" style="fill: #91d1bc"/>
   </g>
   <g id="patch_149">
    <path d="M 204.464195 60.581511 
L 204.508584 60.581511 
L 204.508584 45.255381 
L 204.464195 45.255381 
z
" clip-path="url(#p99c7290112)" style="fill: #59595c"/>
   </g>
   <g id="patch_150">
    <path d="M 204.508584 60.581511 
L 204.514133 60.581511 
L 204.514133 45.255381 
L 204.508584 45.255381 
z
" clip-path="url(#p99c7290112)" style="fill: #91d1bc"/>
   </g>
   <g id="patch_151">
    <path d="M 204.514133 60.581511 
L 204.519682 60.581511 
L 204.519682 45.255381 
L 204.514133 45.255381 
z
" clip-path="url(#p99c7290112)" style="fill: #59595c"/>
   </g>
   <g id="patch_152">
    <path d="M 204.519682 60.581511 
L 204.724983 60.581511 
L 204.724983 45.255381 
L 204.519682 45.255381 
z
" clip-path="url(#p99c7290112)" style="fill: #91d1bc"/>
   </g>
   <g id="patch_153">
    <path d="M 204.724983 60.581511 
L 207.316216 60.581511 
L 207.316216 45.255381 
L 204.724983 45.255381 
z
" clip-path="url(#p99c7290112)" style="fill: #59595c"/>
   </g>
   <g id="patch_154">
    <path d="M 207.316216 60.581511 
L 209.740988 60.581511 
L 209.740988 45.255381 
L 207.316216 45.255381 
z
" clip-path="url(#p99c7290112)" style="fill: #f49f7b"/>
   </g>
   <g id="patch_155">
    <path d="M 209.740988 60.581511 
L 211.5776 60.581511 
L 211.5776 45.255381 
L 209.740988 45.255381 
z
" clip-path="url(#p99c7290112)" style="fill: #59595c"/>
   </g>
   <g id="patch_156">
    <path d="M 211.5776 60.581511 
L 211.799547 60.581511 
L 211.799547 45.255381 
L 211.5776 45.255381 
z
" clip-path="url(#p99c7290112)" style="fill: #f49f7b"/>
   </g>
   <g id="patch_157">
    <path d="M 211.799547 60.581511 
L 222.630567 60.581511 
L 222.630567 45.255381 
L 211.799547 45.255381 
z
" clip-path="url(#p99c7290112)" style="fill: #59595c"/>
   </g>
   <g id="patch_158">
    <path d="M 222.630567 60.581511 
L 223.762497 60.581511 
L 223.762497 45.255381 
L 222.630567 45.255381 
z
" clip-path="url(#p99c7290112)" style="fill: #f49f7b"/>
   </g>
   <g id="patch_159">
    <path d="M 223.762497 60.581511 
L 225.610207 60.581511 
L 225.610207 45.255381 
L 223.762497 45.255381 
z
" clip-path="url(#p99c7290112)" style="fill: #59595c"/>
   </g>
   <g id="patch_160">
    <path d="M 225.610207 60.581511 
L 228.612042 60.581511 
L 228.612042 45.255381 
L 225.610207 45.255381 
z
" clip-path="url(#p99c7290112)" style="fill: #f49f7b"/>
   </g>
   <g id="patch_161">
    <path d="M 228.612042 60.581511 
L 232.041125 60.581511 
L 232.041125 45.255381 
L 228.612042 45.255381 
z
" clip-path="url(#p99c7290112)" style="fill: #59595c"/>
   </g>
   <g id="patch_162">
    <path d="M 232.041125 60.581511 
L 233.234091 60.581511 
L 233.234091 45.255381 
L 232.041125 45.255381 
z
" clip-path="url(#p99c7290112)" style="fill: #f49f7b"/>
   </g>
   <g id="patch_163">
    <path d="M 233.234091 60.581511 
L 233.639144 60.581511 
L 233.639144 45.255381 
L 233.234091 45.255381 
z
" clip-path="url(#p99c7290112)" style="fill: #59595c"/>
   </g>
   <g id="patch_164">
    <path d="M 233.639144 60.581511 
L 234.882048 60.581511 
L 234.882048 45.255381 
L 233.639144 45.255381 
z
" clip-path="url(#p99c7290112)" style="fill: #f49f7b"/>
   </g>
   <g id="patch_165">
    <path d="M 234.882048 60.581511 
L 236.124952 60.581511 
L 236.124952 45.255381 
L 234.882048 45.255381 
z
" clip-path="url(#p99c7290112)" style="fill: #59595c"/>
   </g>
   <g id="patch_166">
    <path d="M 236.124952 60.581511 
L 238.571919 60.581511 
L 238.571919 45.255381 
L 236.124952 45.255381 
z
" clip-path="url(#p99c7290112)" style="fill: #f49f7b"/>
   </g>
   <g id="patch_167">
    <path d="M 238.571919 60.581511 
L 238.755025 60.581511 
L 238.755025 45.255381 
L 238.571919 45.255381 
z
" clip-path="url(#p99c7290112)" style="fill: #59595c"/>
   </g>
   <g id="patch_168">
    <path d="M 238.755025 60.581511 
L 239.481902 60.581511 
L 239.481902 45.255381 
L 238.755025 45.255381 
z
" clip-path="url(#p99c7290112)" style="fill: #f49f7b"/>
   </g>
   <g id="patch_169">
    <path d="M 239.481902 60.581511 
L 239.82592 60.581511 
L 239.82592 45.255381 
L 239.481902 45.255381 
z
" clip-path="url(#p99c7290112)" style="fill: #59595c"/>
   </g>
   <g id="patch_170">
    <path d="M 239.82592 60.581511 
L 240.658222 60.581511 
L 240.658222 45.255381 
L 239.82592 45.255381 
z
" clip-path="url(#p99c7290112)" style="fill: #f49f7b"/>
   </g>
   <g id="patch_171">
    <path d="M 240.658222 60.581511 
L 241.362904 60.581511 
L 241.362904 45.255381 
L 240.658222 45.255381 
z
" clip-path="url(#p99c7290112)" style="fill: #59595c"/>
   </g>
   <g id="patch_172">
    <path d="M 241.362904 60.581511 
L 241.562656 60.581511 
L 241.562656 45.255381 
L 241.362904 45.255381 
z
" clip-path="url(#p99c7290112)" style="fill: #f49f7b"/>
   </g>
   <g id="patch_173">
    <path d="M 241.562656 60.581511 
L 242.339471 60.581511 
L 242.339471 45.255381 
L 241.562656 45.255381 
z
" clip-path="url(#p99c7290112)" style="fill: #59595c"/>
   </g>
   <g id="patch_174">
    <path d="M 242.339471 60.581511 
L 243.327136 60.581511 
L 243.327136 45.255381 
L 242.339471 45.255381 
z
" clip-path="url(#p99c7290112)" style="fill: #f49f7b"/>
   </g>
   <g id="patch_175">
    <path d="M 243.327136 60.581511 
L 243.992977 60.581511 
L 243.992977 45.255381 
L 243.327136 45.255381 
z
" clip-path="url(#p99c7290112)" style="fill: #59595c"/>
   </g>
   <g id="patch_176">
    <path d="M 243.992977 60.581511 
L 245.11381 60.581511 
L 245.11381 45.255381 
L 243.992977 45.255381 
z
" clip-path="url(#p99c7290112)" style="fill: #f49f7b"/>
   </g>
   <g id="patch_177">
    <path d="M 245.11381 60.581511 
L 248.692708 60.581511 
L 248.692708 45.255381 
L 245.11381 45.255381 
z
" clip-path="url(#p99c7290112)" style="fill: #59595c"/>
   </g>
   <g id="patch_178">
    <path d="M 248.692708 60.581511 
L 249.441779 60.581511 
L 249.441779 45.255381 
L 248.692708 45.255381 
z
" clip-path="url(#p99c7290112)" style="fill: #f49f7b"/>
   </g>
   <g id="patch_179">
    <path d="M 249.441779 60.581511 
L 249.525009 60.581511 
L 249.525009 45.255381 
L 249.441779 45.255381 
z
" clip-path="url(#p99c7290112)" style="fill: #59595c"/>
   </g>
   <g id="patch_180">
    <path d="M 249.525009 60.581511 
L 252.105145 60.581511 
L 252.105145 45.255381 
L 249.525009 45.255381 
z
" clip-path="url(#p99c7290112)" style="fill: #f49f7b"/>
   </g>
   <g id="patch_181">
    <path d="M 252.105145 60.581511 
L 254.413395 60.581511 
L 254.413395 45.255381 
L 252.105145 45.255381 
z
" clip-path="url(#p99c7290112)" style="fill: #59595c"/>
   </g>
   <g id="patch_182">
    <path d="M 254.413395 60.581511 
L 262.403491 60.581511 
L 262.403491 45.255381 
L 254.413395 45.255381 
z
" clip-path="url(#p99c7290112)" style="fill: #f49f7b"/>
   </g>
   <g id="patch_183">
    <path d="M 262.403491 60.581511 
L 266.426283 60.581511 
L 266.426283 45.255381 
L 262.403491 45.255381 
z
" clip-path="url(#p99c7290112)" style="fill: #59595c"/>
   </g>
   <g id="patch_184">
    <path d="M 266.426283 60.581511 
L 266.664876 60.581511 
L 266.664876 45.255381 
L 266.426283 45.255381 
z
" clip-path="url(#p99c7290112)" style="fill: #f49f7b"/>
   </g>
   <g id="patch_185">
    <path d="M 266.664876 60.581511 
L 266.753655 60.581511 
L 266.753655 45.255381 
L 266.664876 45.255381 
z
" clip-path="url(#p99c7290112)" style="fill: #59595c"/>
   </g>
   <g id="patch_186">
    <path d="M 266.753655 60.581511 
L 267.291876 60.581511 
L 267.291876 45.255381 
L 266.753655 45.255381 
z
" clip-path="url(#p99c7290112)" style="fill: #f49f7b"/>
   </g>
   <g id="patch_187">
    <path d="M 267.291876 60.581511 
L 273.323289 60.581511 
L 273.323289 45.255381 
L 267.291876 45.255381 
z
" clip-path="url(#p99c7290112)" style="fill: #59595c"/>
   </g>
   <g id="patch_188">
    <path d="M 273.323289 60.581511 
L 274.266565 60.581511 
L 274.266565 45.255381 
L 273.323289 45.255381 
z
" clip-path="url(#p99c7290112)" style="fill: #f49f7b"/>
   </g>
   <g id="patch_189">
    <path d="M 274.266565 60.581511 
L 277.14078 60.581511 
L 277.14078 45.255381 
L 274.266565 45.255381 
z
" clip-path="url(#p99c7290112)" style="fill: #59595c"/>
   </g>
   <g id="patch_190">
    <path d="M 277.14078 60.581511 
L 278.738799 60.581511 
L 278.738799 45.255381 
L 277.14078 45.255381 
z
" clip-path="url(#p99c7290112)" style="fill: #f49f7b"/>
   </g>
   <g id="patch_191">
    <path d="M 278.738799 60.581511 
L 279.271472 60.581511 
L 279.271472 45.255381 
L 278.738799 45.255381 
z
" clip-path="url(#p99c7290112)" style="fill: #59595c"/>
   </g>
   <g id="patch_192">
    <path d="M 279.271472 60.581511 
L 280.175907 60.581511 
L 280.175907 45.255381 
L 279.271472 45.255381 
z
" clip-path="url(#p99c7290112)" style="fill: #f49f7b"/>
   </g>
   <g id="patch_193">
    <path d="M 280.175907 60.581511 
L 281.723988 60.581511 
L 281.723988 45.255381 
L 280.175907 45.255381 
z
" clip-path="url(#p99c7290112)" style="fill: #59595c"/>
   </g>
   <g id="patch_194">
    <path d="M 281.723988 60.581511 
L 281.934838 60.581511 
L 281.934838 45.255381 
L 281.723988 45.255381 
z
" clip-path="url(#p99c7290112)" style="fill: #f49f7b"/>
   </g>
   <g id="patch_195">
    <path d="M 281.934838 60.581511 
L 288.032835 60.581511 
L 288.032835 45.255381 
L 281.934838 45.255381 
z
" clip-path="url(#p99c7290112)" style="fill: #59595c"/>
   </g>
   <g id="patch_196">
    <path d="M 288.032835 60.581511 
L 288.460083 60.581511 
L 288.460083 45.255381 
L 288.032835 45.255381 
z
" clip-path="url(#p99c7290112)" style="fill: #f49f7b"/>
   </g>
   <g id="patch_197">
    <path d="M 288.460083 60.581511 
L 292.799149 60.581511 
L 292.799149 45.255381 
L 288.460083 45.255381 
z
" clip-path="url(#p99c7290112)" style="fill: #59595c"/>
   </g>
   <g id="patch_198">
    <path d="M 292.799149 60.581511 
L 293.442796 60.581511 
L 293.442796 45.255381 
L 292.799149 45.255381 
z
" clip-path="url(#p99c7290112)" style="fill: #f49f7b"/>
   </g>
   <g id="patch_199">
    <path d="M 293.442796 60.581511 
L 302.709088 60.581511 
L 302.709088 45.255381 
L 293.442796 45.255381 
z
" clip-path="url(#p99c7290112)" style="fill: #59595c"/>
   </g>
   <g id="patch_200">
    <path d="M 302.709088 60.581511 
L 303.241761 60.581511 
L 303.241761 45.255381 
L 302.709088 45.255381 
z
" clip-path="url(#p99c7290112)" style="fill: #91d1bc"/>
   </g>
   <g id="patch_201">
    <path d="M 303.241761 60.581511 
L 304.828683 60.581511 
L 304.828683 45.255381 
L 303.241761 45.255381 
z
" clip-path="url(#p99c7290112)" style="fill: #59595c"/>
   </g>
   <g id="patch_202">
    <path d="M 304.828683 60.581511 
L 304.839781 60.581511 
L 304.839781 45.255381 
L 304.828683 45.255381 
z
" clip-path="url(#p99c7290112)" style="fill: #91d1bc"/>
   </g>
   <g id="patch_203">
    <path d="M 304.839781 60.581511 
L 305.194896 60.581511 
L 305.194896 45.255381 
L 304.839781 45.255381 
z
" clip-path="url(#p99c7290112)" style="fill: #59595c"/>
   </g>
   <g id="patch_204">
    <path d="M 305.194896 60.581511 
L 306.210304 60.581511 
L 306.210304 45.255381 
L 305.194896 45.255381 
z
" clip-path="url(#p99c7290112)" style="fill: #91d1bc"/>
   </g>
   <g id="patch_205">
    <path d="M 306.210304 60.581511 
L 306.238048 60.581511 
L 306.238048 45.255381 
L 306.210304 45.255381 
z
" clip-path="url(#p99c7290112)" style="fill: #59595c"/>
   </g>
   <g id="patch_206">
    <path d="M 306.238048 60.581511 
L 306.243596 60.581511 
L 306.243596 45.255381 
L 306.238048 45.255381 
z
" clip-path="url(#p99c7290112)" style="fill: #91d1bc"/>
   </g>
   <g id="patch_207">
    <path d="M 306.243596 60.581511 
L 306.249145 60.581511 
L 306.249145 45.255381 
L 306.243596 45.255381 
z
" clip-path="url(#p99c7290112)" style="fill: #59595c"/>
   </g>
   <g id="patch_208">
    <path d="M 306.249145 60.581511 
L 306.254694 60.581511 
L 306.254694 45.255381 
L 306.249145 45.255381 
z
" clip-path="url(#p99c7290112)" style="fill: #91d1bc"/>
   </g>
   <g id="patch_209">
    <path d="M 306.254694 60.581511 
L 306.615358 60.581511 
L 306.615358 45.255381 
L 306.254694 45.255381 
z
" clip-path="url(#p99c7290112)" style="fill: #59595c"/>
   </g>
   <g id="patch_210">
    <path d="M 306.615358 60.581511 
L 306.970473 60.581511 
L 306.970473 45.255381 
L 306.615358 45.255381 
z
" clip-path="url(#p99c7290112)" style="fill: #91d1bc"/>
   </g>
   <g id="patch_211">
    <path d="M 306.970473 60.581511 
L 306.987119 60.581511 
L 306.987119 45.255381 
L 306.970473 45.255381 
z
" clip-path="url(#p99c7290112)" style="fill: #59595c"/>
   </g>
   <g id="patch_212">
    <path d="M 306.987119 60.581511 
L 306.998216 60.581511 
L 306.998216 45.255381 
L 306.987119 45.255381 
z
" clip-path="url(#p99c7290112)" style="fill: #91d1bc"/>
   </g>
   <g id="patch_213">
    <path d="M 306.998216 60.581511 
L 307.003765 60.581511 
L 307.003765 45.255381 
L 306.998216 45.255381 
z
" clip-path="url(#p99c7290112)" style="fill: #59595c"/>
   </g>
   <g id="patch_214">
    <path d="M 307.003765 60.581511 
L 307.009314 60.581511 
L 307.009314 45.255381 
L 307.003765 45.255381 
z
" clip-path="url(#p99c7290112)" style="fill: #91d1bc"/>
   </g>
   <g id="patch_215">
    <path d="M 307.009314 60.581511 
L 307.020411 60.581511 
L 307.020411 45.255381 
L 307.009314 45.255381 
z
" clip-path="url(#p99c7290112)" style="fill: #59595c"/>
   </g>
   <g id="patch_216">
    <path d="M 307.020411 60.581511 
L 307.02596 60.581511 
L 307.02596 45.255381 
L 307.020411 45.255381 
z
" clip-path="url(#p99c7290112)" style="fill: #91d1bc"/>
   </g>
   <g id="patch_217">
    <path d="M 307.02596 60.581511 
L 307.148031 60.581511 
L 307.148031 45.255381 
L 307.02596 45.255381 
z
" clip-path="url(#p99c7290112)" style="fill: #59595c"/>
   </g>
   <g id="patch_218">
    <path d="M 307.148031 60.581511 
L 311.187468 60.581511 
L 311.187468 45.255381 
L 307.148031 45.255381 
z
" clip-path="url(#p99c7290112)" style="fill: #91d1bc"/>
   </g>
   <g id="patch_219">
    <path d="M 311.187468 60.581511 
L 311.198566 60.581511 
L 311.198566 45.255381 
L 311.187468 45.255381 
z
" clip-path="url(#p99c7290112)" style="fill: #59595c"/>
   </g>
   <g id="patch_220">
    <path d="M 311.198566 60.581511 
L 311.215212 60.581511 
L 311.215212 45.255381 
L 311.198566 45.255381 
z
" clip-path="url(#p99c7290112)" style="fill: #91d1bc"/>
   </g>
   <g id="patch_221">
    <path d="M 311.215212 60.581511 
L 311.22076 60.581511 
L 311.22076 45.255381 
L 311.215212 45.255381 
z
" clip-path="url(#p99c7290112)" style="fill: #59595c"/>
   </g>
   <g id="patch_222">
    <path d="M 311.22076 60.581511 
L 311.226309 60.581511 
L 311.226309 45.255381 
L 311.22076 45.255381 
z
" clip-path="url(#p99c7290112)" style="fill: #91d1bc"/>
   </g>
   <g id="patch_223">
    <path d="M 311.226309 60.581511 
L 311.231858 60.581511 
L 311.231858 45.255381 
L 311.226309 45.255381 
z
" clip-path="url(#p99c7290112)" style="fill: #59595c"/>
   </g>
   <g id="patch_224">
    <path d="M 311.231858 60.581511 
L 328.382822 60.581511 
L 328.382822 45.255381 
L 311.231858 45.255381 
z
" clip-path="url(#p99c7290112)" style="fill: #91d1bc"/>
   </g>
   <g id="patch_225">
    <path d="M 328.382822 60.581511 
L 334.847032 60.581511 
L 334.847032 45.255381 
L 328.382822 45.255381 
z
" clip-path="url(#p99c7290112)" style="fill: #59595c"/>
   </g>
   <g id="patch_226">
    <path d="M 334.847032 60.581511 
L 335.202147 60.581511 
L 335.202147 45.255381 
L 334.847032 45.255381 
z
" clip-path="url(#p99c7290112)" style="fill: #f49f7b"/>
   </g>
   <g id="patch_227">
    <path d="M 335.202147 60.581511 
L 341.239109 60.581511 
L 341.239109 45.255381 
L 335.202147 45.255381 
z
" clip-path="url(#p99c7290112)" style="fill: #59595c"/>
   </g>
   <g id="patch_228">
    <path d="M 341.239109 60.581511 
L 341.272401 60.581511 
L 341.272401 45.255381 
L 341.239109 45.255381 
z
" clip-path="url(#p99c7290112)" style="fill: #f49f7b"/>
   </g>
   <g id="patch_229">
    <path d="M 341.272401 60.581511 
L 341.466604 60.581511 
L 341.466604 45.255381 
L 341.272401 45.255381 
z
" clip-path="url(#p99c7290112)" style="fill: #59595c"/>
   </g>
   <g id="patch_230">
    <path d="M 341.466604 60.581511 
L 341.938242 60.581511 
L 341.938242 45.255381 
L 341.466604 45.255381 
z
" clip-path="url(#p99c7290112)" style="fill: #f49f7b"/>
   </g>
   <g id="patch_231">
    <path d="M 341.938242 60.581511 
L 343.208889 60.581511 
L 343.208889 45.255381 
L 341.938242 45.255381 
z
" clip-path="url(#p99c7290112)" style="fill: #59595c"/>
   </g>
   <g id="patch_232">
    <path d="M 343.208889 60.581511 
L 343.597297 60.581511 
L 343.597297 45.255381 
L 343.208889 45.255381 
z
" clip-path="url(#p99c7290112)" style="fill: #f49f7b"/>
   </g>
   <g id="patch_233">
    <path d="M 343.597297 60.581511 
L 345.145378 60.581511 
L 345.145378 45.255381 
L 343.597297 45.255381 
z
" clip-path="url(#p99c7290112)" style="fill: #59595c"/>
   </g>
   <g id="patch_234">
    <path d="M 345.145378 60.581511 
L 345.34513 60.581511 
L 345.34513 45.255381 
L 345.145378 45.255381 
z
" clip-path="url(#p99c7290112)" style="fill: #f49f7b"/>
   </g>
   <g id="patch_235">
    <path d="M 345.34513 60.581511 
L 346.033166 60.581511 
L 346.033166 45.255381 
L 345.34513 45.255381 
z
" clip-path="url(#p99c7290112)" style="fill: #59595c"/>
   </g>
   <g id="patch_236">
    <path d="M 346.033166 60.581511 
L 346.549194 60.581511 
L 346.549194 45.255381 
L 346.033166 45.255381 
z
" clip-path="url(#p99c7290112)" style="fill: #f49f7b"/>
   </g>
   <g id="patch_237">
    <path d="M 346.549194 60.581511 
L 349.029453 60.581511 
L 349.029453 45.255381 
L 346.549194 45.255381 
z
" clip-path="url(#p99c7290112)" style="fill: #59595c"/>
   </g>
   <g id="patch_238">
    <path d="M 349.029453 60.581511 
L 349.051647 60.581511 
L 349.051647 45.255381 
L 349.029453 45.255381 
z
" clip-path="url(#p99c7290112)" style="fill: #f49f7b"/>
   </g>
   <g id="patch_239">
    <path d="M 349.051647 60.581511 
L 349.079391 60.581511 
L 349.079391 45.255381 
L 349.051647 45.255381 
z
" clip-path="url(#p99c7290112)" style="fill: #59595c"/>
   </g>
   <g id="patch_240">
    <path d="M 349.079391 60.581511 
L 349.939436 60.581511 
L 349.939436 45.255381 
L 349.079391 45.255381 
z
" clip-path="url(#p99c7290112)" style="fill: #f49f7b"/>
   </g>
   <g id="patch_241">
    <path d="M 349.939436 60.581511 
L 351.959155 60.581511 
L 351.959155 45.255381 
L 349.939436 45.255381 
z
" clip-path="url(#p99c7290112)" style="fill: #59595c"/>
   </g>
   <g id="patch_242">
    <path d="M 351.959155 60.581511 
L 353.313032 60.581511 
L 353.313032 45.255381 
L 351.959155 45.255381 
z
" clip-path="url(#p99c7290112)" style="fill: #f49f7b"/>
   </g>
   <g id="patch_243">
    <path d="M 353.313032 60.581511 
L 357.346921 60.581511 
L 357.346921 45.255381 
L 353.313032 45.255381 
z
" clip-path="url(#p99c7290112)" style="fill: #59595c"/>
   </g>
   <g id="patch_244">
    <path d="M 357.346921 60.581511 
L 357.996116 60.581511 
L 357.996116 45.255381 
L 357.346921 45.255381 
z
" clip-path="url(#p99c7290112)" style="fill: #f49f7b"/>
   </g>
   <g id="patch_245">
    <path d="M 357.996116 60.581511 
L 359.044816 60.581511 
L 359.044816 45.255381 
L 357.996116 45.255381 
z
" clip-path="url(#p99c7290112)" style="fill: #59595c"/>
   </g>
   <g id="patch_246">
    <path d="M 359.044816 60.581511 
L 360.237782 60.581511 
L 360.237782 45.255381 
L 359.044816 45.255381 
z
" clip-path="url(#p99c7290112)" style="fill: #f49f7b"/>
   </g>
   <g id="patch_247">
    <path d="M 360.237782 60.581511 
L 365.03184 60.581511 
L 365.03184 45.255381 
L 360.237782 45.255381 
z
" clip-path="url(#p99c7290112)" style="fill: #59595c"/>
   </g>
   <g id="patch_248">
    <path d="M 365.03184 60.581511 
L 365.165008 60.581511 
L 365.165008 45.255381 
L 365.03184 45.255381 
z
" clip-path="url(#p99c7290112)" style="fill: #f49f7b"/>
   </g>
   <g id="patch_249">
    <path d="M 365.165008 60.581511 
L 365.209398 60.581511 
L 365.209398 45.255381 
L 365.165008 45.255381 
z
" clip-path="url(#p99c7290112)" style="fill: #59595c"/>
   </g>
   <g id="patch_250">
    <path d="M 365.209398 60.581511 
L 365.386955 60.581511 
L 365.386955 45.255381 
L 365.209398 45.255381 
z
" clip-path="url(#p99c7290112)" style="fill: #f49f7b"/>
   </g>
   <g id="patch_251">
    <path d="M 365.386955 60.581511 
L 367.162532 60.581511 
L 367.162532 45.255381 
L 365.386955 45.255381 
z
" clip-path="url(#p99c7290112)" style="fill: #59595c"/>
   </g>
   <g id="patch_252">
    <path d="M 367.162532 60.581511 
L 367.695205 60.581511 
L 367.695205 45.255381 
L 367.162532 45.255381 
z
" clip-path="url(#p99c7290112)" style="fill: #f49f7b"/>
   </g>
   <g id="patch_253">
    <path d="M 367.695205 60.581511 
L 368.699516 60.581511 
L 368.699516 45.255381 
L 367.695205 45.255381 
z
" clip-path="url(#p99c7290112)" style="fill: #59595c"/>
   </g>
   <g id="matplotlib.axis_5"/>
   <g id="matplotlib.axis_6"/>
   <g id="text_4">
    <text style="font-size: 9px; font-family: 'Arial'; text-anchor: end" x="46.220625" y="55.245086" transform="rotate(-0 46.220625 55.245086)">prediction</text>
   </g>
  </g>
  <g id="axes_4">
   <g id="matplotlib.axis_7"/>
   <g id="matplotlib.axis_8"/>
   <g id="text_5">
    <text style="font-size: 9px; font-family: 'Arial'; text-anchor: start" x="50.044485" y="73.024022" transform="rotate(-0 50.044485 73.024022)">0</text>
   </g>
   <g id="text_6">
    <text style="font-size: 9px; font-family: 'Arial'; text-anchor: end" x="368.699516" y="73.024022" transform="rotate(-0 368.699516 73.024022)">57429</text>
   </g>
  </g>
  <g id="axes_5">
   <g id="matplotlib.axis_9"/>
   <g id="matplotlib.axis_10"/>
   <g id="text_7">
    <text style="font-style: italic; font-size: 10px; font-family: 'Arial'; text-anchor: start" x="50.044485" y="89.102511" transform="rotate(-0 50.044485 89.102511)">Example video 2: accuracy </text>
   </g>
   <g id="text_8">
    <text style="font-style: italic; font-weight: 700; font-size: 10px; font-family: 'Arial'; text-anchor: start" x="174.131898" y="89.150949" transform="rotate(-0 174.131898 89.150949)">94.4%</text>
   </g>
  </g>
  <g id="axes_6">
   <g id="patch_254">
    <path d="M 50.044485 113.635014 
L 53.990782 113.635014 
L 53.990782 98.308884 
L 50.044485 98.308884 
z
" clip-path="url(#pf13de17fc3)" style="fill: #59595c"/>
   </g>
   <g id="patch_255">
    <path d="M 53.990782 113.635014 
L 54.457367 113.635014 
L 54.457367 98.308884 
L 53.990782 98.308884 
z
" clip-path="url(#pf13de17fc3)" style="fill: #f49f7b"/>
   </g>
   <g id="patch_256">
    <path d="M 54.457367 113.635014 
L 57.228769 113.635014 
L 57.228769 98.308884 
L 54.457367 98.308884 
z
" clip-path="url(#pf13de17fc3)" style="fill: #59595c"/>
   </g>
   <g id="patch_257">
    <path d="M 57.228769 113.635014 
L 57.819027 113.635014 
L 57.819027 98.308884 
L 57.228769 98.308884 
z
" clip-path="url(#pf13de17fc3)" style="fill: #f49f7b"/>
   </g>
   <g id="patch_258">
    <path d="M 57.819027 113.635014 
L 63.210051 113.635014 
L 63.210051 98.308884 
L 57.819027 98.308884 
z
" clip-path="url(#pf13de17fc3)" style="fill: #59595c"/>
   </g>
   <g id="patch_259">
    <path d="M 63.210051 113.635014 
L 63.463019 113.635014 
L 63.463019 98.308884 
L 63.210051 98.308884 
z
" clip-path="url(#pf13de17fc3)" style="fill: #f49f7b"/>
   </g>
   <g id="patch_260">
    <path d="M 63.463019 113.635014 
L 65.391195 113.635014 
L 65.391195 98.308884 
L 63.463019 98.308884 
z
" clip-path="url(#pf13de17fc3)" style="fill: #59595c"/>
   </g>
   <g id="patch_261">
    <path d="M 65.391195 113.635014 
L 65.773457 113.635014 
L 65.773457 98.308884 
L 65.391195 98.308884 
z
" clip-path="url(#pf13de17fc3)" style="fill: #f49f7b"/>
   </g>
   <g id="patch_262">
    <path d="M 65.773457 113.635014 
L 66.110748 113.635014 
L 66.110748 98.308884 
L 65.773457 98.308884 
z
" clip-path="url(#pf13de17fc3)" style="fill: #59595c"/>
   </g>
   <g id="patch_263">
    <path d="M 66.110748 113.635014 
L 66.740356 113.635014 
L 66.740356 98.308884 
L 66.110748 98.308884 
z
" clip-path="url(#pf13de17fc3)" style="fill: #f49f7b"/>
   </g>
   <g id="patch_264">
    <path d="M 66.740356 113.635014 
L 70.664167 113.635014 
L 70.664167 98.308884 
L 66.740356 98.308884 
z
" clip-path="url(#pf13de17fc3)" style="fill: #59595c"/>
   </g>
   <g id="patch_265">
    <path d="M 70.664167 113.635014 
L 73.36249 113.635014 
L 73.36249 98.308884 
L 70.664167 98.308884 
z
" clip-path="url(#pf13de17fc3)" style="fill: #f49f7b"/>
   </g>
   <g id="patch_266">
    <path d="M 73.36249 113.635014 
L 90.097711 113.635014 
L 90.097711 98.308884 
L 73.36249 98.308884 
z
" clip-path="url(#pf13de17fc3)" style="fill: #59595c"/>
   </g>
   <g id="patch_267">
    <path d="M 90.097711 113.635014 
L 90.856614 113.635014 
L 90.856614 98.308884 
L 90.097711 98.308884 
z
" clip-path="url(#pf13de17fc3)" style="fill: #f49f7b"/>
   </g>
   <g id="patch_268">
    <path d="M 90.856614 113.635014 
L 91.99778 113.635014 
L 91.99778 98.308884 
L 90.856614 98.308884 
z
" clip-path="url(#pf13de17fc3)" style="fill: #59595c"/>
   </g>
   <g id="patch_269">
    <path d="M 91.99778 113.635014 
L 93.97655 113.635014 
L 93.97655 98.308884 
L 91.99778 98.308884 
z
" clip-path="url(#pf13de17fc3)" style="fill: #f49f7b"/>
   </g>
   <g id="patch_270">
    <path d="M 93.97655 113.635014 
L 95.707973 113.635014 
L 95.707973 98.308884 
L 93.97655 98.308884 
z
" clip-path="url(#pf13de17fc3)" style="fill: #59595c"/>
   </g>
   <g id="patch_271">
    <path d="M 95.707973 113.635014 
L 96.59055 113.635014 
L 96.59055 98.308884 
L 95.707973 98.308884 
z
" clip-path="url(#pf13de17fc3)" style="fill: #f49f7b"/>
   </g>
   <g id="patch_272">
    <path d="M 96.59055 113.635014 
L 102.369457 113.635014 
L 102.369457 98.308884 
L 96.59055 98.308884 
z
" clip-path="url(#pf13de17fc3)" style="fill: #59595c"/>
   </g>
   <g id="patch_273">
    <path d="M 102.369457 113.635014 
L 102.999066 113.635014 
L 102.999066 98.308884 
L 102.369457 98.308884 
z
" clip-path="url(#pf13de17fc3)" style="fill: #f49f7b"/>
   </g>
   <g id="patch_274">
    <path d="M 102.999066 113.635014 
L 109.958489 113.635014 
L 109.958489 98.308884 
L 102.999066 98.308884 
z
" clip-path="url(#pf13de17fc3)" style="fill: #59595c"/>
   </g>
   <g id="patch_275">
    <path d="M 109.958489 113.635014 
L 110.29578 113.635014 
L 110.29578 98.308884 
L 109.958489 98.308884 
z
" clip-path="url(#pf13de17fc3)" style="fill: #f49f7b"/>
   </g>
   <g id="patch_276">
    <path d="M 110.29578 113.635014 
L 124.079711 113.635014 
L 124.079711 98.308884 
L 110.29578 98.308884 
z
" clip-path="url(#pf13de17fc3)" style="fill: #59595c"/>
   </g>
   <g id="patch_277">
    <path d="M 124.079711 113.635014 
L 124.501324 113.635014 
L 124.501324 98.308884 
L 124.079711 98.308884 
z
" clip-path="url(#pf13de17fc3)" style="fill: #f49f7b"/>
   </g>
   <g id="patch_278">
    <path d="M 124.501324 113.635014 
L 127.705582 113.635014 
L 127.705582 98.308884 
L 124.501324 98.308884 
z
" clip-path="url(#pf13de17fc3)" style="fill: #59595c"/>
   </g>
   <g id="patch_279">
    <path d="M 127.705582 113.635014 
L 127.95855 113.635014 
L 127.95855 98.308884 
L 127.705582 98.308884 
z
" clip-path="url(#pf13de17fc3)" style="fill: #f49f7b"/>
   </g>
   <g id="patch_280">
    <path d="M 127.95855 113.635014 
L 128.678102 113.635014 
L 128.678102 98.308884 
L 127.95855 98.308884 
z
" clip-path="url(#pf13de17fc3)" style="fill: #59595c"/>
   </g>
   <g id="patch_281">
    <path d="M 128.678102 113.635014 
L 128.970421 113.635014 
L 128.970421 98.308884 
L 128.678102 98.308884 
z
" clip-path="url(#pf13de17fc3)" style="fill: #f49f7b"/>
   </g>
   <g id="patch_282">
    <path d="M 128.970421 113.635014 
L 147.015453 113.635014 
L 147.015453 98.308884 
L 128.970421 98.308884 
z
" clip-path="url(#pf13de17fc3)" style="fill: #59595c"/>
   </g>
   <g id="patch_283">
    <path d="M 147.015453 113.635014 
L 148.831199 113.635014 
L 148.831199 98.308884 
L 147.015453 98.308884 
z
" clip-path="url(#pf13de17fc3)" style="fill: #f49f7b"/>
   </g>
   <g id="patch_284">
    <path d="M 148.831199 113.635014 
L 157.212863 113.635014 
L 157.212863 98.308884 
L 148.831199 98.308884 
z
" clip-path="url(#pf13de17fc3)" style="fill: #59595c"/>
   </g>
   <g id="patch_285">
    <path d="M 157.212863 113.635014 
L 157.634476 113.635014 
L 157.634476 98.308884 
L 157.212863 98.308884 
z
" clip-path="url(#pf13de17fc3)" style="fill: #f49f7b"/>
   </g>
   <g id="patch_286">
    <path d="M 157.634476 113.635014 
L 162.744425 113.635014 
L 162.744425 98.308884 
L 157.634476 98.308884 
z
" clip-path="url(#pf13de17fc3)" style="fill: #59595c"/>
   </g>
   <g id="patch_287">
    <path d="M 162.744425 113.635014 
L 163.627001 113.635014 
L 163.627001 98.308884 
L 162.744425 98.308884 
z
" clip-path="url(#pf13de17fc3)" style="fill: #f49f7b"/>
   </g>
   <g id="patch_288">
    <path d="M 163.627001 113.635014 
L 164.953676 113.635014 
L 164.953676 98.308884 
L 163.627001 98.308884 
z
" clip-path="url(#pf13de17fc3)" style="fill: #59595c"/>
   </g>
   <g id="patch_289">
    <path d="M 164.953676 113.635014 
L 165.712579 113.635014 
L 165.712579 98.308884 
L 164.953676 98.308884 
z
" clip-path="url(#pf13de17fc3)" style="fill: #f49f7b"/>
   </g>
   <g id="patch_290">
    <path d="M 165.712579 113.635014 
L 167.567676 113.635014 
L 167.567676 98.308884 
L 165.712579 98.308884 
z
" clip-path="url(#pf13de17fc3)" style="fill: #59595c"/>
   </g>
   <g id="patch_291">
    <path d="M 167.567676 113.635014 
L 167.989289 113.635014 
L 167.989289 98.308884 
L 167.567676 98.308884 
z
" clip-path="url(#pf13de17fc3)" style="fill: #f49f7b"/>
   </g>
   <g id="patch_292">
    <path d="M 167.989289 113.635014 
L 235.700321 113.635014 
L 235.700321 98.308884 
L 167.989289 98.308884 
z
" clip-path="url(#pf13de17fc3)" style="fill: #59595c"/>
   </g>
   <g id="patch_293">
    <path d="M 235.700321 113.635014 
L 236.037611 113.635014 
L 236.037611 98.308884 
L 235.700321 98.308884 
z
" clip-path="url(#pf13de17fc3)" style="fill: #f49f7b"/>
   </g>
   <g id="patch_294">
    <path d="M 236.037611 113.635014 
L 239.28122 113.635014 
L 239.28122 98.308884 
L 236.037611 98.308884 
z
" clip-path="url(#pf13de17fc3)" style="fill: #59595c"/>
   </g>
   <g id="patch_295">
    <path d="M 239.28122 113.635014 
L 239.57916 113.635014 
L 239.57916 98.308884 
L 239.28122 98.308884 
z
" clip-path="url(#pf13de17fc3)" style="fill: #f49f7b"/>
   </g>
   <g id="patch_296">
    <path d="M 239.57916 113.635014 
L 242.361805 113.635014 
L 242.361805 98.308884 
L 239.57916 98.308884 
z
" clip-path="url(#pf13de17fc3)" style="fill: #59595c"/>
   </g>
   <g id="patch_297">
    <path d="M 242.361805 113.635014 
L 245.566063 113.635014 
L 245.566063 98.308884 
L 242.361805 98.308884 
z
" clip-path="url(#pf13de17fc3)" style="fill: #f49f7b"/>
   </g>
   <g id="patch_298">
    <path d="M 245.566063 113.635014 
L 246.364317 113.635014 
L 246.364317 98.308884 
L 245.566063 98.308884 
z
" clip-path="url(#pf13de17fc3)" style="fill: #59595c"/>
   </g>
   <g id="patch_299">
    <path d="M 246.364317 113.635014 
L 247.291865 113.635014 
L 247.291865 98.308884 
L 246.364317 98.308884 
z
" clip-path="url(#pf13de17fc3)" style="fill: #f49f7b"/>
   </g>
   <g id="patch_300">
    <path d="M 247.291865 113.635014 
L 255.724123 113.635014 
L 255.724123 98.308884 
L 247.291865 98.308884 
z
" clip-path="url(#pf13de17fc3)" style="fill: #59595c"/>
   </g>
   <g id="patch_301">
    <path d="M 255.724123 113.635014 
L 256.398704 113.635014 
L 256.398704 98.308884 
L 255.724123 98.308884 
z
" clip-path="url(#pf13de17fc3)" style="fill: #f49f7b"/>
   </g>
   <g id="patch_302">
    <path d="M 256.398704 113.635014 
L 258.636063 113.635014 
L 258.636063 98.308884 
L 256.398704 98.308884 
z
" clip-path="url(#pf13de17fc3)" style="fill: #59595c"/>
   </g>
   <g id="patch_303">
    <path d="M 258.636063 113.635014 
L 259.602962 113.635014 
L 259.602962 98.308884 
L 258.636063 98.308884 
z
" clip-path="url(#pf13de17fc3)" style="fill: #91d1bc"/>
   </g>
   <g id="patch_304">
    <path d="M 259.602962 113.635014 
L 259.799715 113.635014 
L 259.799715 98.308884 
L 259.602962 98.308884 
z
" clip-path="url(#pf13de17fc3)" style="fill: #f49f7b"/>
   </g>
   <g id="patch_305">
    <path d="M 259.799715 113.635014 
L 262.28442 113.635014 
L 262.28442 98.308884 
L 259.799715 98.308884 
z
" clip-path="url(#pf13de17fc3)" style="fill: #59595c"/>
   </g>
   <g id="patch_306">
    <path d="M 262.28442 113.635014 
L 262.751005 113.635014 
L 262.751005 98.308884 
L 262.28442 98.308884 
z
" clip-path="url(#pf13de17fc3)" style="fill: #f49f7b"/>
   </g>
   <g id="patch_307">
    <path d="M 262.751005 113.635014 
L 263.043323 113.635014 
L 263.043323 98.308884 
L 262.751005 98.308884 
z
" clip-path="url(#pf13de17fc3)" style="fill: #59595c"/>
   </g>
   <g id="patch_308">
    <path d="M 263.043323 113.635014 
L 268.822231 113.635014 
L 268.822231 98.308884 
L 263.043323 98.308884 
z
" clip-path="url(#pf13de17fc3)" style="fill: #91d1bc"/>
   </g>
   <g id="patch_309">
    <path d="M 268.822231 113.635014 
L 268.923418 113.635014 
L 268.923418 98.308884 
L 268.822231 98.308884 
z
" clip-path="url(#pf13de17fc3)" style="fill: #59595c"/>
   </g>
   <g id="patch_310">
    <path d="M 268.923418 113.635014 
L 269.513676 113.635014 
L 269.513676 98.308884 
L 268.923418 98.308884 
z
" clip-path="url(#pf13de17fc3)" style="fill: #f49f7b"/>
   </g>
   <g id="patch_311">
    <path d="M 269.513676 113.635014 
L 270.272579 113.635014 
L 270.272579 98.308884 
L 269.513676 98.308884 
z
" clip-path="url(#pf13de17fc3)" style="fill: #59595c"/>
   </g>
   <g id="patch_312">
    <path d="M 270.272579 113.635014 
L 270.441224 113.635014 
L 270.441224 98.308884 
L 270.272579 98.308884 
z
" clip-path="url(#pf13de17fc3)" style="fill: #f49f7b"/>
   </g>
   <g id="patch_313">
    <path d="M 270.441224 113.635014 
L 271.453095 113.635014 
L 271.453095 98.308884 
L 270.441224 98.308884 
z
" clip-path="url(#pf13de17fc3)" style="fill: #59595c"/>
   </g>
   <g id="patch_314">
    <path d="M 271.453095 113.635014 
L 271.998381 113.635014 
L 271.998381 98.308884 
L 271.453095 98.308884 
z
" clip-path="url(#pf13de17fc3)" style="fill: #91d1bc"/>
   </g>
   <g id="patch_315">
    <path d="M 271.998381 113.635014 
L 272.335671 113.635014 
L 272.335671 98.308884 
L 271.998381 98.308884 
z
" clip-path="url(#pf13de17fc3)" style="fill: #59595c"/>
   </g>
   <g id="patch_316">
    <path d="M 272.335671 113.635014 
L 272.841607 113.635014 
L 272.841607 98.308884 
L 272.335671 98.308884 
z
" clip-path="url(#pf13de17fc3)" style="fill: #91d1bc"/>
   </g>
   <g id="patch_317">
    <path d="M 272.841607 113.635014 
L 277.203895 113.635014 
L 277.203895 98.308884 
L 272.841607 98.308884 
z
" clip-path="url(#pf13de17fc3)" style="fill: #59595c"/>
   </g>
   <g id="patch_318">
    <path d="M 277.203895 113.635014 
L 281.588669 113.635014 
L 281.588669 98.308884 
L 277.203895 98.308884 
z
" clip-path="url(#pf13de17fc3)" style="fill: #91d1bc"/>
   </g>
   <g id="patch_319">
    <path d="M 281.588669 113.635014 
L 286.350084 113.635014 
L 286.350084 98.308884 
L 281.588669 98.308884 
z
" clip-path="url(#pf13de17fc3)" style="fill: #59595c"/>
   </g>
   <g id="patch_320">
    <path d="M 286.350084 113.635014 
L 289.009056 113.635014 
L 289.009056 98.308884 
L 286.350084 98.308884 
z
" clip-path="url(#pf13de17fc3)" style="fill: #91d1bc"/>
   </g>
   <g id="patch_321">
    <path d="M 289.009056 113.635014 
L 295.923508 113.635014 
L 295.923508 98.308884 
L 289.009056 98.308884 
z
" clip-path="url(#pf13de17fc3)" style="fill: #59595c"/>
   </g>
   <g id="patch_322">
    <path d="M 295.923508 113.635014 
L 297.272669 113.635014 
L 297.272669 98.308884 
L 295.923508 98.308884 
z
" clip-path="url(#pf13de17fc3)" style="fill: #f49f7b"/>
   </g>
   <g id="patch_323">
    <path d="M 297.272669 113.635014 
L 314.643121 113.635014 
L 314.643121 98.308884 
L 297.272669 98.308884 
z
" clip-path="url(#pf13de17fc3)" style="fill: #59595c"/>
   </g>
   <g id="patch_324">
    <path d="M 314.643121 113.635014 
L 315.019762 113.635014 
L 315.019762 98.308884 
L 314.643121 98.308884 
z
" clip-path="url(#pf13de17fc3)" style="fill: #f49f7b"/>
   </g>
   <g id="patch_325">
    <path d="M 315.019762 113.635014 
L 319.112218 113.635014 
L 319.112218 98.308884 
L 315.019762 98.308884 
z
" clip-path="url(#pf13de17fc3)" style="fill: #59595c"/>
   </g>
   <g id="patch_326">
    <path d="M 319.112218 113.635014 
L 320.585052 113.635014 
L 320.585052 98.308884 
L 319.112218 98.308884 
z
" clip-path="url(#pf13de17fc3)" style="fill: #f49f7b"/>
   </g>
   <g id="patch_327">
    <path d="M 320.585052 113.635014 
L 332.052923 113.635014 
L 332.052923 98.308884 
L 320.585052 98.308884 
z
" clip-path="url(#pf13de17fc3)" style="fill: #59595c"/>
   </g>
   <g id="patch_328">
    <path d="M 332.052923 113.635014 
L 332.856798 113.635014 
L 332.856798 98.308884 
L 332.052923 98.308884 
z
" clip-path="url(#pf13de17fc3)" style="fill: #f49f7b"/>
   </g>
   <g id="patch_329">
    <path d="M 332.856798 113.635014 
L 345.207245 113.635014 
L 345.207245 98.308884 
L 332.856798 98.308884 
z
" clip-path="url(#pf13de17fc3)" style="fill: #59595c"/>
   </g>
   <g id="patch_330">
    <path d="M 345.207245 113.635014 
L 347.062342 113.635014 
L 347.062342 98.308884 
L 345.207245 98.308884 
z
" clip-path="url(#pf13de17fc3)" style="fill: #f49f7b"/>
   </g>
   <g id="patch_331">
    <path d="M 347.062342 113.635014 
L 351.660733 113.635014 
L 351.660733 98.308884 
L 347.062342 98.308884 
z
" clip-path="url(#pf13de17fc3)" style="fill: #59595c"/>
   </g>
   <g id="patch_332">
    <path d="M 351.660733 113.635014 
L 353.892471 113.635014 
L 353.892471 98.308884 
L 351.660733 98.308884 
z
" clip-path="url(#pf13de17fc3)" style="fill: #f49f7b"/>
   </g>
   <g id="patch_333">
    <path d="M 353.892471 113.635014 
L 362.156084 113.635014 
L 362.156084 98.308884 
L 353.892471 98.308884 
z
" clip-path="url(#pf13de17fc3)" style="fill: #59595c"/>
   </g>
   <g id="patch_334">
    <path d="M 362.156084 113.635014 
L 365.152346 113.635014 
L 365.152346 98.308884 
L 362.156084 98.308884 
z
" clip-path="url(#pf13de17fc3)" style="fill: #f49f7b"/>
   </g>
   <g id="patch_335">
    <path d="M 365.152346 113.635014 
L 367.260411 113.635014 
L 367.260411 98.308884 
L 365.152346 98.308884 
z
" clip-path="url(#pf13de17fc3)" style="fill: #59595c"/>
   </g>
   <g id="patch_336">
    <path d="M 367.260411 113.635014 
L 367.597701 113.635014 
L 367.597701 98.308884 
L 367.260411 98.308884 
z
" clip-path="url(#pf13de17fc3)" style="fill: #f49f7b"/>
   </g>
   <g id="patch_337">
    <path d="M 367.597701 113.635014 
L 368.699516 113.635014 
L 368.699516 98.308884 
L 367.597701 98.308884 
z
" clip-path="url(#pf13de17fc3)" style="fill: #59595c"/>
   </g>
   <g id="matplotlib.axis_11"/>
   <g id="matplotlib.axis_12"/>
   <g id="text_9">
    <text style="font-size: 9px; font-family: 'Arial'; text-anchor: end" x="46.220625" y="108.29859" transform="rotate(-0 46.220625 108.29859)">labels</text>
   </g>
  </g>
  <g id="axes_7">
   <g id="patch_338">
    <path d="M 50.044485 134.961624 
L 50.1007 134.961624 
L 50.1007 119.635494 
L 50.044485 119.635494 
z
" clip-path="url(#p6aabf5daae)" style="fill: #f49f7b"/>
   </g>
   <g id="patch_339">
    <path d="M 50.1007 134.961624 
L 53.928946 134.961624 
L 53.928946 119.635494 
L 50.1007 119.635494 
z
" clip-path="url(#p6aabf5daae)" style="fill: #59595c"/>
   </g>
   <g id="patch_340">
    <path d="M 53.928946 134.961624 
L 54.530447 134.961624 
L 54.530447 119.635494 
L 53.928946 119.635494 
z
" clip-path="url(#p6aabf5daae)" style="fill: #f49f7b"/>
   </g>
   <g id="patch_341">
    <path d="M 54.530447 134.961624 
L 57.341199 134.961624 
L 57.341199 119.635494 
L 54.530447 119.635494 
z
" clip-path="url(#p6aabf5daae)" style="fill: #59595c"/>
   </g>
   <g id="patch_342">
    <path d="M 57.341199 134.961624 
L 57.875242 134.961624 
L 57.875242 119.635494 
L 57.341199 119.635494 
z
" clip-path="url(#p6aabf5daae)" style="fill: #f49f7b"/>
   </g>
   <g id="patch_343">
    <path d="M 57.875242 134.961624 
L 66.054533 134.961624 
L 66.054533 119.635494 
L 57.875242 119.635494 
z
" clip-path="url(#p6aabf5daae)" style="fill: #59595c"/>
   </g>
   <g id="patch_344">
    <path d="M 66.054533 134.961624 
L 66.762842 134.961624 
L 66.762842 119.635494 
L 66.054533 119.635494 
z
" clip-path="url(#p6aabf5daae)" style="fill: #f49f7b"/>
   </g>
   <g id="patch_345">
    <path d="M 66.762842 134.961624 
L 70.726004 134.961624 
L 70.726004 119.635494 
L 66.762842 119.635494 
z
" clip-path="url(#p6aabf5daae)" style="fill: #59595c"/>
   </g>
   <g id="patch_346">
    <path d="M 70.726004 134.961624 
L 71.810954 134.961624 
L 71.810954 119.635494 
L 70.726004 119.635494 
z
" clip-path="url(#p6aabf5daae)" style="fill: #f49f7b"/>
   </g>
   <g id="patch_347">
    <path d="M 71.810954 134.961624 
L 71.990842 134.961624 
L 71.990842 119.635494 
L 71.810954 119.635494 
z
" clip-path="url(#p6aabf5daae)" style="fill: #59595c"/>
   </g>
   <g id="patch_348">
    <path d="M 71.990842 134.961624 
L 73.429948 134.961624 
L 73.429948 119.635494 
L 71.990842 119.635494 
z
" clip-path="url(#p6aabf5daae)" style="fill: #f49f7b"/>
   </g>
   <g id="patch_349">
    <path d="M 73.429948 134.961624 
L 89.979659 134.961624 
L 89.979659 119.635494 
L 73.429948 119.635494 
z
" clip-path="url(#p6aabf5daae)" style="fill: #59595c"/>
   </g>
   <g id="patch_350">
    <path d="M 89.979659 134.961624 
L 90.95218 134.961624 
L 90.95218 119.635494 
L 89.979659 119.635494 
z
" clip-path="url(#p6aabf5daae)" style="fill: #f49f7b"/>
   </g>
   <g id="patch_351">
    <path d="M 90.95218 134.961624 
L 91.930322 134.961624 
L 91.930322 119.635494 
L 90.95218 119.635494 
z
" clip-path="url(#p6aabf5daae)" style="fill: #59595c"/>
   </g>
   <g id="patch_352">
    <path d="M 91.930322 134.961624 
L 94.060872 134.961624 
L 94.060872 119.635494 
L 91.930322 119.635494 
z
" clip-path="url(#p6aabf5daae)" style="fill: #f49f7b"/>
   </g>
   <g id="patch_353">
    <path d="M 94.060872 134.961624 
L 95.747324 134.961624 
L 95.747324 119.635494 
L 94.060872 119.635494 
z
" clip-path="url(#p6aabf5daae)" style="fill: #59595c"/>
   </g>
   <g id="patch_354">
    <path d="M 95.747324 134.961624 
L 95.915969 134.961624 
L 95.915969 119.635494 
L 95.747324 119.635494 
z
" clip-path="url(#p6aabf5daae)" style="fill: #f49f7b"/>
   </g>
   <g id="patch_355">
    <path d="M 95.915969 134.961624 
L 96.095857 134.961624 
L 96.095857 119.635494 
L 95.915969 119.635494 
z
" clip-path="url(#p6aabf5daae)" style="fill: #59595c"/>
   </g>
   <g id="patch_356">
    <path d="M 96.095857 134.961624 
L 96.641143 134.961624 
L 96.641143 119.635494 
L 96.095857 119.635494 
z
" clip-path="url(#p6aabf5daae)" style="fill: #f49f7b"/>
   </g>
   <g id="patch_357">
    <path d="M 96.641143 134.961624 
L 102.301999 134.961624 
L 102.301999 119.635494 
L 96.641143 119.635494 
z
" clip-path="url(#p6aabf5daae)" style="fill: #59595c"/>
   </g>
   <g id="patch_358">
    <path d="M 102.301999 134.961624 
L 102.897879 134.961624 
L 102.897879 119.635494 
L 102.301999 119.635494 
z
" clip-path="url(#p6aabf5daae)" style="fill: #f49f7b"/>
   </g>
   <g id="patch_359">
    <path d="M 102.897879 134.961624 
L 103.291384 134.961624 
L 103.291384 119.635494 
L 102.897879 119.635494 
z
" clip-path="url(#p6aabf5daae)" style="fill: #59595c"/>
   </g>
   <g id="patch_360">
    <path d="M 103.291384 134.961624 
L 103.353221 134.961624 
L 103.353221 119.635494 
L 103.291384 119.635494 
z
" clip-path="url(#p6aabf5daae)" style="fill: #f49f7b"/>
   </g>
   <g id="patch_361">
    <path d="M 103.353221 134.961624 
L 109.88541 134.961624 
L 109.88541 119.635494 
L 103.353221 119.635494 
z
" clip-path="url(#p6aabf5daae)" style="fill: #59595c"/>
   </g>
   <g id="patch_362">
    <path d="M 109.88541 134.961624 
L 110.278915 134.961624 
L 110.278915 119.635494 
L 109.88541 119.635494 
z
" clip-path="url(#p6aabf5daae)" style="fill: #f49f7b"/>
   </g>
   <g id="patch_363">
    <path d="M 110.278915 134.961624 
L 124.107818 134.961624 
L 124.107818 119.635494 
L 110.278915 119.635494 
z
" clip-path="url(#p6aabf5daae)" style="fill: #59595c"/>
   </g>
   <g id="patch_364">
    <path d="M 124.107818 134.961624 
L 124.158412 134.961624 
L 124.158412 119.635494 
L 124.107818 119.635494 
z
" clip-path="url(#p6aabf5daae)" style="fill: #f49f7b"/>
   </g>
   <g id="patch_365">
    <path d="M 124.158412 134.961624 
L 126.496958 134.961624 
L 126.496958 119.635494 
L 124.158412 119.635494 
z
" clip-path="url(#p6aabf5daae)" style="fill: #59595c"/>
   </g>
   <g id="patch_366">
    <path d="M 126.496958 134.961624 
L 126.901707 134.961624 
L 126.901707 119.635494 
L 126.496958 119.635494 
z
" clip-path="url(#p6aabf5daae)" style="fill: #f49f7b"/>
   </g>
   <g id="patch_367">
    <path d="M 126.901707 134.961624 
L 127.688717 134.961624 
L 127.688717 119.635494 
L 126.901707 119.635494 
z
" clip-path="url(#p6aabf5daae)" style="fill: #59595c"/>
   </g>
   <g id="patch_368">
    <path d="M 127.688717 134.961624 
L 127.95855 134.961624 
L 127.95855 119.635494 
L 127.688717 119.635494 
z
" clip-path="url(#p6aabf5daae)" style="fill: #f49f7b"/>
   </g>
   <g id="patch_369">
    <path d="M 127.95855 134.961624 
L 128.700588 134.961624 
L 128.700588 119.635494 
L 127.95855 119.635494 
z
" clip-path="url(#p6aabf5daae)" style="fill: #59595c"/>
   </g>
   <g id="patch_370">
    <path d="M 128.700588 134.961624 
L 128.835504 134.961624 
L 128.835504 119.635494 
L 128.700588 119.635494 
z
" clip-path="url(#p6aabf5daae)" style="fill: #f49f7b"/>
   </g>
   <g id="patch_371">
    <path d="M 128.835504 134.961624 
L 147.161612 134.961624 
L 147.161612 119.635494 
L 128.835504 119.635494 
z
" clip-path="url(#p6aabf5daae)" style="fill: #59595c"/>
   </g>
   <g id="patch_372">
    <path d="M 147.161612 134.961624 
L 147.172855 134.961624 
L 147.172855 119.635494 
L 147.161612 119.635494 
z
" clip-path="url(#p6aabf5daae)" style="fill: #f49f7b"/>
   </g>
   <g id="patch_373">
    <path d="M 147.172855 134.961624 
L 147.178476 134.961624 
L 147.178476 119.635494 
L 147.172855 119.635494 
z
" clip-path="url(#p6aabf5daae)" style="fill: #59595c"/>
   </g>
   <g id="patch_374">
    <path d="M 147.178476 134.961624 
L 148.780605 134.961624 
L 148.780605 119.635494 
L 147.178476 119.635494 
z
" clip-path="url(#p6aabf5daae)" style="fill: #f49f7b"/>
   </g>
   <g id="patch_375">
    <path d="M 148.780605 134.961624 
L 154.778752 134.961624 
L 154.778752 119.635494 
L 148.780605 119.635494 
z
" clip-path="url(#p6aabf5daae)" style="fill: #59595c"/>
   </g>
   <g id="patch_376">
    <path d="M 154.778752 134.961624 
L 155.093556 134.961624 
L 155.093556 119.635494 
L 154.778752 119.635494 
z
" clip-path="url(#p6aabf5daae)" style="fill: #f49f7b"/>
   </g>
   <g id="patch_377">
    <path d="M 155.093556 134.961624 
L 157.212863 134.961624 
L 157.212863 119.635494 
L 155.093556 119.635494 
z
" clip-path="url(#p6aabf5daae)" style="fill: #59595c"/>
   </g>
   <g id="patch_378">
    <path d="M 157.212863 134.961624 
L 157.72442 134.961624 
L 157.72442 119.635494 
L 157.212863 119.635494 
z
" clip-path="url(#p6aabf5daae)" style="fill: #f49f7b"/>
   </g>
   <g id="patch_379">
    <path d="M 157.72442 134.961624 
L 162.795018 134.961624 
L 162.795018 119.635494 
L 157.72442 119.635494 
z
" clip-path="url(#p6aabf5daae)" style="fill: #59595c"/>
   </g>
   <g id="patch_380">
    <path d="M 162.795018 134.961624 
L 163.677595 134.961624 
L 163.677595 119.635494 
L 162.795018 119.635494 
z
" clip-path="url(#p6aabf5daae)" style="fill: #f49f7b"/>
   </g>
   <g id="patch_381">
    <path d="M 163.677595 134.961624 
L 164.993027 134.961624 
L 164.993027 119.635494 
L 163.677595 119.635494 
z
" clip-path="url(#p6aabf5daae)" style="fill: #59595c"/>
   </g>
   <g id="patch_382">
    <path d="M 164.993027 134.961624 
L 165.768795 134.961624 
L 165.768795 119.635494 
L 164.993027 119.635494 
z
" clip-path="url(#p6aabf5daae)" style="fill: #f49f7b"/>
   </g>
   <g id="patch_383">
    <path d="M 165.768795 134.961624 
L 167.635134 134.961624 
L 167.635134 119.635494 
L 165.768795 119.635494 
z
" clip-path="url(#p6aabf5daae)" style="fill: #59595c"/>
   </g>
   <g id="patch_384">
    <path d="M 167.635134 134.961624 
L 167.944317 134.961624 
L 167.944317 119.635494 
L 167.635134 119.635494 
z
" clip-path="url(#p6aabf5daae)" style="fill: #f49f7b"/>
   </g>
   <g id="patch_385">
    <path d="M 167.944317 134.961624 
L 192.470945 134.961624 
L 192.470945 119.635494 
L 167.944317 119.635494 
z
" clip-path="url(#p6aabf5daae)" style="fill: #59595c"/>
   </g>
   <g id="patch_386">
    <path d="M 192.470945 134.961624 
L 192.515917 134.961624 
L 192.515917 119.635494 
L 192.470945 119.635494 
z
" clip-path="url(#p6aabf5daae)" style="fill: #f49f7b"/>
   </g>
   <g id="patch_387">
    <path d="M 192.515917 134.961624 
L 206.906971 134.961624 
L 206.906971 119.635494 
L 192.515917 119.635494 
z
" clip-path="url(#p6aabf5daae)" style="fill: #59595c"/>
   </g>
   <g id="patch_388">
    <path d="M 206.906971 134.961624 
L 207.446635 134.961624 
L 207.446635 119.635494 
L 206.906971 119.635494 
z
" clip-path="url(#p6aabf5daae)" style="fill: #f49f7b"/>
   </g>
   <g id="patch_389">
    <path d="M 207.446635 134.961624 
L 207.626523 134.961624 
L 207.626523 119.635494 
L 207.446635 119.635494 
z
" clip-path="url(#p6aabf5daae)" style="fill: #59595c"/>
   </g>
   <g id="patch_390">
    <path d="M 207.626523 134.961624 
L 207.9863 134.961624 
L 207.9863 119.635494 
L 207.626523 119.635494 
z
" clip-path="url(#p6aabf5daae)" style="fill: #f49f7b"/>
   </g>
   <g id="patch_391">
    <path d="M 207.9863 134.961624 
L 219.858919 134.961624 
L 219.858919 119.635494 
L 207.9863 119.635494 
z
" clip-path="url(#p6aabf5daae)" style="fill: #59595c"/>
   </g>
   <g id="patch_392">
    <path d="M 219.858919 134.961624 
L 220.325504 134.961624 
L 220.325504 119.635494 
L 219.858919 119.635494 
z
" clip-path="url(#p6aabf5daae)" style="fill: #f49f7b"/>
   </g>
   <g id="patch_393">
    <path d="M 220.325504 134.961624 
L 222.197465 134.961624 
L 222.197465 119.635494 
L 220.325504 119.635494 
z
" clip-path="url(#p6aabf5daae)" style="fill: #59595c"/>
   </g>
   <g id="patch_394">
    <path d="M 222.197465 134.961624 
L 222.377353 134.961624 
L 222.377353 119.635494 
L 222.197465 119.635494 
z
" clip-path="url(#p6aabf5daae)" style="fill: #f49f7b"/>
   </g>
   <g id="patch_395">
    <path d="M 222.377353 134.961624 
L 228.724033 134.961624 
L 228.724033 119.635494 
L 222.377353 119.635494 
z
" clip-path="url(#p6aabf5daae)" style="fill: #59595c"/>
   </g>
   <g id="patch_396">
    <path d="M 228.724033 134.961624 
L 229.184996 134.961624 
L 229.184996 119.635494 
L 228.724033 119.635494 
z
" clip-path="url(#p6aabf5daae)" style="fill: #f49f7b"/>
   </g>
   <g id="patch_397">
    <path d="M 229.184996 134.961624 
L 235.627242 134.961624 
L 235.627242 119.635494 
L 229.184996 119.635494 
z
" clip-path="url(#p6aabf5daae)" style="fill: #59595c"/>
   </g>
   <g id="patch_398">
    <path d="M 235.627242 134.961624 
L 236.048854 134.961624 
L 236.048854 119.635494 
L 235.627242 119.635494 
z
" clip-path="url(#p6aabf5daae)" style="fill: #f49f7b"/>
   </g>
   <g id="patch_399">
    <path d="M 236.048854 134.961624 
L 239.20814 134.961624 
L 239.20814 119.635494 
L 236.048854 119.635494 
z
" clip-path="url(#p6aabf5daae)" style="fill: #59595c"/>
   </g>
   <g id="patch_400">
    <path d="M 239.20814 134.961624 
L 239.472351 134.961624 
L 239.472351 119.635494 
L 239.20814 119.635494 
z
" clip-path="url(#p6aabf5daae)" style="fill: #f49f7b"/>
   </g>
   <g id="patch_401">
    <path d="M 239.472351 134.961624 
L 242.34494 134.961624 
L 242.34494 119.635494 
L 239.472351 119.635494 
z
" clip-path="url(#p6aabf5daae)" style="fill: #59595c"/>
   </g>
   <g id="patch_402">
    <path d="M 242.34494 134.961624 
L 243.963934 134.961624 
L 243.963934 119.635494 
L 242.34494 119.635494 
z
" clip-path="url(#p6aabf5daae)" style="fill: #f49f7b"/>
   </g>
   <g id="patch_403">
    <path d="M 243.963934 134.961624 
L 244.143822 134.961624 
L 244.143822 119.635494 
L 243.963934 119.635494 
z
" clip-path="url(#p6aabf5daae)" style="fill: #59595c"/>
   </g>
   <g id="patch_404">
    <path d="M 244.143822 134.961624 
L 245.537955 134.961624 
L 245.537955 119.635494 
L 244.143822 119.635494 
z
" clip-path="url(#p6aabf5daae)" style="fill: #f49f7b"/>
   </g>
   <g id="patch_405">
    <path d="M 245.537955 134.961624 
L 246.426153 134.961624 
L 246.426153 119.635494 
L 245.537955 119.635494 
z
" clip-path="url(#p6aabf5daae)" style="fill: #59595c"/>
   </g>
   <g id="patch_406">
    <path d="M 246.426153 134.961624 
L 247.381809 134.961624 
L 247.381809 119.635494 
L 246.426153 119.635494 
z
" clip-path="url(#p6aabf5daae)" style="fill: #f49f7b"/>
   </g>
   <g id="patch_407">
    <path d="M 247.381809 134.961624 
L 255.656665 134.961624 
L 255.656665 119.635494 
L 247.381809 119.635494 
z
" clip-path="url(#p6aabf5daae)" style="fill: #59595c"/>
   </g>
   <g id="patch_408">
    <path d="M 255.656665 134.961624 
L 256.415568 134.961624 
L 256.415568 119.635494 
L 255.656665 119.635494 
z
" clip-path="url(#p6aabf5daae)" style="fill: #f49f7b"/>
   </g>
   <g id="patch_409">
    <path d="M 256.415568 134.961624 
L 262.194476 134.961624 
L 262.194476 119.635494 
L 256.415568 119.635494 
z
" clip-path="url(#p6aabf5daae)" style="fill: #59595c"/>
   </g>
   <g id="patch_410">
    <path d="M 262.194476 134.961624 
L 262.599224 134.961624 
L 262.599224 119.635494 
L 262.194476 119.635494 
z
" clip-path="url(#p6aabf5daae)" style="fill: #f49f7b"/>
   </g>
   <g id="patch_411">
    <path d="M 262.599224 134.961624 
L 263.931521 134.961624 
L 263.931521 119.635494 
L 262.599224 119.635494 
z
" clip-path="url(#p6aabf5daae)" style="fill: #59595c"/>
   </g>
   <g id="patch_412">
    <path d="M 263.931521 134.961624 
L 268.96839 134.961624 
L 268.96839 119.635494 
L 263.931521 119.635494 
z
" clip-path="url(#p6aabf5daae)" style="fill: #91d1bc"/>
   </g>
   <g id="patch_413">
    <path d="M 268.96839 134.961624 
L 269.092063 134.961624 
L 269.092063 119.635494 
L 268.96839 119.635494 
z
" clip-path="url(#p6aabf5daae)" style="fill: #59595c"/>
   </g>
   <g id="patch_414">
    <path d="M 269.092063 134.961624 
L 269.614863 134.961624 
L 269.614863 119.635494 
L 269.092063 119.635494 
z
" clip-path="url(#p6aabf5daae)" style="fill: #f49f7b"/>
   </g>
   <g id="patch_415">
    <path d="M 269.614863 134.961624 
L 270.935917 134.961624 
L 270.935917 119.635494 
L 269.614863 119.635494 
z
" clip-path="url(#p6aabf5daae)" style="fill: #59595c"/>
   </g>
   <g id="patch_416">
    <path d="M 270.935917 134.961624 
L 273.313813 134.961624 
L 273.313813 119.635494 
L 270.935917 119.635494 
z
" clip-path="url(#p6aabf5daae)" style="fill: #91d1bc"/>
   </g>
   <g id="patch_417">
    <path d="M 273.313813 134.961624 
L 277.603022 134.961624 
L 277.603022 119.635494 
L 273.313813 119.635494 
z
" clip-path="url(#p6aabf5daae)" style="fill: #59595c"/>
   </g>
   <g id="patch_418">
    <path d="M 277.603022 134.961624 
L 281.386295 134.961624 
L 281.386295 119.635494 
L 277.603022 119.635494 
z
" clip-path="url(#p6aabf5daae)" style="fill: #91d1bc"/>
   </g>
   <g id="patch_419">
    <path d="M 281.386295 134.961624 
L 284.438773 134.961624 
L 284.438773 119.635494 
L 281.386295 119.635494 
z
" clip-path="url(#p6aabf5daae)" style="fill: #59595c"/>
   </g>
   <g id="patch_420">
    <path d="M 284.438773 134.961624 
L 284.494988 134.961624 
L 284.494988 119.635494 
L 284.438773 119.635494 
z
" clip-path="url(#p6aabf5daae)" style="fill: #91d1bc"/>
   </g>
   <g id="patch_421">
    <path d="M 284.494988 134.961624 
L 284.978437 134.961624 
L 284.978437 119.635494 
L 284.494988 119.635494 
z
" clip-path="url(#p6aabf5daae)" style="fill: #59595c"/>
   </g>
   <g id="patch_422">
    <path d="M 284.978437 134.961624 
L 285.411293 134.961624 
L 285.411293 119.635494 
L 284.978437 119.635494 
z
" clip-path="url(#p6aabf5daae)" style="fill: #91d1bc"/>
   </g>
   <g id="patch_423">
    <path d="M 285.411293 134.961624 
L 285.416914 134.961624 
L 285.416914 119.635494 
L 285.411293 119.635494 
z
" clip-path="url(#p6aabf5daae)" style="fill: #59595c"/>
   </g>
   <g id="patch_424">
    <path d="M 285.416914 134.961624 
L 285.433779 134.961624 
L 285.433779 119.635494 
L 285.416914 119.635494 
z
" clip-path="url(#p6aabf5daae)" style="fill: #91d1bc"/>
   </g>
   <g id="patch_425">
    <path d="M 285.433779 134.961624 
L 285.877878 134.961624 
L 285.877878 119.635494 
L 285.433779 119.635494 
z
" clip-path="url(#p6aabf5daae)" style="fill: #59595c"/>
   </g>
   <g id="patch_426">
    <path d="M 285.877878 134.961624 
L 291.679271 134.961624 
L 291.679271 119.635494 
L 285.877878 119.635494 
z
" clip-path="url(#p6aabf5daae)" style="fill: #91d1bc"/>
   </g>
   <g id="patch_427">
    <path d="M 291.679271 134.961624 
L 291.684893 134.961624 
L 291.684893 119.635494 
L 291.679271 119.635494 
z
" clip-path="url(#p6aabf5daae)" style="fill: #59595c"/>
   </g>
   <g id="patch_428">
    <path d="M 291.684893 134.961624 
L 291.769215 134.961624 
L 291.769215 119.635494 
L 291.684893 119.635494 
z
" clip-path="url(#p6aabf5daae)" style="fill: #91d1bc"/>
   </g>
   <g id="patch_429">
    <path d="M 291.769215 134.961624 
L 291.774837 134.961624 
L 291.774837 119.635494 
L 291.769215 119.635494 
z
" clip-path="url(#p6aabf5daae)" style="fill: #59595c"/>
   </g>
   <g id="patch_430">
    <path d="M 291.774837 134.961624 
L 292.173964 134.961624 
L 292.173964 119.635494 
L 291.774837 119.635494 
z
" clip-path="url(#p6aabf5daae)" style="fill: #91d1bc"/>
   </g>
   <g id="patch_431">
    <path d="M 292.173964 134.961624 
L 293.253293 134.961624 
L 293.253293 119.635494 
L 292.173964 119.635494 
z
" clip-path="url(#p6aabf5daae)" style="fill: #59595c"/>
   </g>
   <g id="patch_432">
    <path d="M 293.253293 134.961624 
L 293.416317 134.961624 
L 293.416317 119.635494 
L 293.253293 119.635494 
z
" clip-path="url(#p6aabf5daae)" style="fill: #91d1bc"/>
   </g>
   <g id="patch_433">
    <path d="M 293.416317 134.961624 
L 293.421938 134.961624 
L 293.421938 119.635494 
L 293.416317 119.635494 
z
" clip-path="url(#p6aabf5daae)" style="fill: #59595c"/>
   </g>
   <g id="patch_434">
    <path d="M 293.421938 134.961624 
L 293.433181 134.961624 
L 293.433181 119.635494 
L 293.421938 119.635494 
z
" clip-path="url(#p6aabf5daae)" style="fill: #91d1bc"/>
   </g>
   <g id="patch_435">
    <path d="M 293.433181 134.961624 
L 295.827942 134.961624 
L 295.827942 119.635494 
L 293.433181 119.635494 
z
" clip-path="url(#p6aabf5daae)" style="fill: #59595c"/>
   </g>
   <g id="patch_436">
    <path d="M 295.827942 134.961624 
L 297.227697 134.961624 
L 297.227697 119.635494 
L 295.827942 119.635494 
z
" clip-path="url(#p6aabf5daae)" style="fill: #f49f7b"/>
   </g>
   <g id="patch_437">
    <path d="M 297.227697 134.961624 
L 307.464458 134.961624 
L 307.464458 119.635494 
L 297.227697 119.635494 
z
" clip-path="url(#p6aabf5daae)" style="fill: #59595c"/>
   </g>
   <g id="patch_438">
    <path d="M 307.464458 134.961624 
L 307.486944 134.961624 
L 307.486944 119.635494 
L 307.464458 119.635494 
z
" clip-path="url(#p6aabf5daae)" style="fill: #f49f7b"/>
   </g>
   <g id="patch_439">
    <path d="M 307.486944 134.961624 
L 307.492566 134.961624 
L 307.492566 119.635494 
L 307.486944 119.635494 
z
" clip-path="url(#p6aabf5daae)" style="fill: #59595c"/>
   </g>
   <g id="patch_440">
    <path d="M 307.492566 134.961624 
L 307.498187 134.961624 
L 307.498187 119.635494 
L 307.492566 119.635494 
z
" clip-path="url(#p6aabf5daae)" style="fill: #f49f7b"/>
   </g>
   <g id="patch_441">
    <path d="M 307.498187 134.961624 
L 314.761172 134.961624 
L 314.761172 119.635494 
L 307.498187 119.635494 
z
" clip-path="url(#p6aabf5daae)" style="fill: #59595c"/>
   </g>
   <g id="patch_442">
    <path d="M 314.761172 134.961624 
L 315.019762 134.961624 
L 315.019762 119.635494 
L 314.761172 119.635494 
z
" clip-path="url(#p6aabf5daae)" style="fill: #f49f7b"/>
   </g>
   <g id="patch_443">
    <path d="M 315.019762 134.961624 
L 319.039138 134.961624 
L 319.039138 119.635494 
L 315.019762 119.635494 
z
" clip-path="url(#p6aabf5daae)" style="fill: #59595c"/>
   </g>
   <g id="patch_444">
    <path d="M 319.039138 134.961624 
L 320.596295 134.961624 
L 320.596295 119.635494 
L 319.039138 119.635494 
z
" clip-path="url(#p6aabf5daae)" style="fill: #f49f7b"/>
   </g>
   <g id="patch_445">
    <path d="M 320.596295 134.961624 
L 324.553835 134.961624 
L 324.553835 119.635494 
L 320.596295 119.635494 
z
" clip-path="url(#p6aabf5daae)" style="fill: #59595c"/>
   </g>
   <g id="patch_446">
    <path d="M 324.553835 134.961624 
L 324.688751 134.961624 
L 324.688751 119.635494 
L 324.553835 119.635494 
z
" clip-path="url(#p6aabf5daae)" style="fill: #f49f7b"/>
   </g>
   <g id="patch_447">
    <path d="M 324.688751 134.961624 
L 332.064166 134.961624 
L 332.064166 119.635494 
L 324.688751 119.635494 
z
" clip-path="url(#p6aabf5daae)" style="fill: #59595c"/>
   </g>
   <g id="patch_448">
    <path d="M 332.064166 134.961624 
L 332.873663 134.961624 
L 332.873663 119.635494 
L 332.064166 119.635494 
z
" clip-path="url(#p6aabf5daae)" style="fill: #f49f7b"/>
   </g>
   <g id="patch_449">
    <path d="M 332.873663 134.961624 
L 340.282807 134.961624 
L 340.282807 119.635494 
L 332.873663 119.635494 
z
" clip-path="url(#p6aabf5daae)" style="fill: #59595c"/>
   </g>
   <g id="patch_450">
    <path d="M 340.282807 134.961624 
L 340.698798 134.961624 
L 340.698798 119.635494 
L 340.282807 119.635494 
z
" clip-path="url(#p6aabf5daae)" style="fill: #f49f7b"/>
   </g>
   <g id="patch_451">
    <path d="M 340.698798 134.961624 
L 345.134166 134.961624 
L 345.134166 119.635494 
L 340.698798 119.635494 
z
" clip-path="url(#p6aabf5daae)" style="fill: #59595c"/>
   </g>
   <g id="patch_452">
    <path d="M 345.134166 134.961624 
L 347.079207 134.961624 
L 347.079207 119.635494 
L 345.134166 119.635494 
z
" clip-path="url(#p6aabf5daae)" style="fill: #f49f7b"/>
   </g>
   <g id="patch_453">
    <path d="M 347.079207 134.961624 
L 351.705706 134.961624 
L 351.705706 119.635494 
L 347.079207 119.635494 
z
" clip-path="url(#p6aabf5daae)" style="fill: #59595c"/>
   </g>
   <g id="patch_454">
    <path d="M 351.705706 134.961624 
L 352.256613 134.961624 
L 352.256613 119.635494 
L 351.705706 119.635494 
z
" clip-path="url(#p6aabf5daae)" style="fill: #f49f7b"/>
   </g>
   <g id="patch_455">
    <path d="M 352.256613 134.961624 
L 352.436501 134.961624 
L 352.436501 119.635494 
L 352.256613 119.635494 
z
" clip-path="url(#p6aabf5daae)" style="fill: #59595c"/>
   </g>
   <g id="patch_456">
    <path d="M 352.436501 134.961624 
L 352.796278 134.961624 
L 352.796278 119.635494 
L 352.436501 119.635494 
z
" clip-path="url(#p6aabf5daae)" style="fill: #f49f7b"/>
   </g>
   <g id="patch_457">
    <path d="M 352.796278 134.961624 
L 353.088596 134.961624 
L 353.088596 119.635494 
L 352.796278 119.635494 
z
" clip-path="url(#p6aabf5daae)" style="fill: #59595c"/>
   </g>
   <g id="patch_458">
    <path d="M 353.088596 134.961624 
L 353.9262 134.961624 
L 353.9262 119.635494 
L 353.088596 119.635494 
z
" clip-path="url(#p6aabf5daae)" style="fill: #f49f7b"/>
   </g>
   <g id="patch_459">
    <path d="M 353.9262 134.961624 
L 361.071133 134.961624 
L 361.071133 119.635494 
L 353.9262 119.635494 
z
" clip-path="url(#p6aabf5daae)" style="fill: #59595c"/>
   </g>
   <g id="patch_460">
    <path d="M 361.071133 134.961624 
L 361.116106 134.961624 
L 361.116106 119.635494 
L 361.071133 119.635494 
z
" clip-path="url(#p6aabf5daae)" style="fill: #f49f7b"/>
   </g>
   <g id="patch_461">
    <path d="M 361.116106 134.961624 
L 362.150462 134.961624 
L 362.150462 119.635494 
L 361.116106 119.635494 
z
" clip-path="url(#p6aabf5daae)" style="fill: #59595c"/>
   </g>
   <g id="patch_462">
    <path d="M 362.150462 134.961624 
L 365.163589 134.961624 
L 365.163589 119.635494 
L 362.150462 119.635494 
z
" clip-path="url(#p6aabf5daae)" style="fill: #f49f7b"/>
   </g>
   <g id="patch_463">
    <path d="M 365.163589 134.961624 
L 367.226682 134.961624 
L 367.226682 119.635494 
L 365.163589 119.635494 
z
" clip-path="url(#p6aabf5daae)" style="fill: #59595c"/>
   </g>
   <g id="patch_464">
    <path d="M 367.226682 134.961624 
L 367.676402 134.961624 
L 367.676402 119.635494 
L 367.226682 119.635494 
z
" clip-path="url(#p6aabf5daae)" style="fill: #f49f7b"/>
   </g>
   <g id="patch_465">
    <path d="M 367.676402 134.961624 
L 368.699516 134.961624 
L 368.699516 119.635494 
L 367.676402 119.635494 
z
" clip-path="url(#p6aabf5daae)" style="fill: #59595c"/>
   </g>
   <g id="matplotlib.axis_13"/>
   <g id="matplotlib.axis_14"/>
   <g id="text_10">
    <text style="font-size: 9px; font-family: 'Arial'; text-anchor: end" x="46.220625" y="129.625199" transform="rotate(-0 46.220625 129.625199)">prediction</text>
   </g>
  </g>
  <g id="axes_8">
   <g id="matplotlib.axis_15"/>
   <g id="matplotlib.axis_16"/>
   <g id="text_11">
    <text style="font-size: 9px; font-family: 'Arial'; text-anchor: start" x="50.044485" y="147.404135" transform="rotate(-0 50.044485 147.404135)">0</text>
   </g>
   <g id="text_12">
    <text style="font-size: 9px; font-family: 'Arial'; text-anchor: end" x="368.699516" y="147.404135" transform="rotate(-0 368.699516 147.404135)">56685</text>
   </g>
   <g id="text_13">
    <text style="font-size: 10px; font-family: 'Arial'; text-anchor: middle" x="209.372001" y="164.212353" transform="rotate(-0 209.372001 164.212353)">frames</text>
   </g>
  </g>
 </g>
 <defs>
  <clipPath id="p3046a92004">
   <rect x="50.044485" y="23.928771" width="318.655031" height="15.32613"/>
  </clipPath>
  <clipPath id="p99c7290112">
   <rect x="50.044485" y="45.255381" width="318.655031" height="15.32613"/>
  </clipPath>
  <clipPath id="pf13de17fc3">
   <rect x="50.044485" y="98.308884" width="318.655031" height="15.32613"/>
  </clipPath>
  <clipPath id="p6aabf5daae">
   <rect x="50.044485" y="119.635494" width="318.655031" height="15.32613"/>
  </clipPath>
 </defs>
</svg>
