<?xml version="1.0" encoding="utf-8" standalone="no"?>
<!DOCTYPE svg PUBLIC "-//W3C//DTD SVG 1.1//EN"
  "http://www.w3.org/Graphics/SVG/1.1/DTD/svg11.dtd">
<svg xmlns:xlink="http://www.w3.org/1999/xlink" width="367.5pt" height="165pt" viewBox="0 0 367.5 165" xmlns="http://www.w3.org/2000/svg" version="1.1">
 <metadata>
  <rdf:RDF xmlns:dc="http://purl.org/dc/elements/1.1/" xmlns:cc="http://creativecommons.org/ns#" xmlns:rdf="http://www.w3.org/1999/02/22-rdf-syntax-ns#">
   <cc:Work>
    <dc:type rdf:resource="http://purl.org/dc/dcmitype/StillImage"/>
    <dc:date>2026-05-13T19:11:19.144695</dc:date>
    <dc:format>image/svg+xml</dc:format>
    <dc:creator>
     <cc:Agent>
      <dc:title>Matplotlib v3.9.4, https://matplotlib.org/</dc:title>
     </cc:Agent>
    </dc:creator>
   </cc:Work>
  </rdf:RDF>
 </metadata>
 <defs>
  <style type="text/css">*{stroke-linejoin: round; stroke-linecap: butt}</style>
 </defs>
 <g id="figure_1">
  <g id="patch_1">
   <path d="M 0 165 
L 367.5 165 
L 367.5 0 
L 0 0 
z
" style="fill: #ffffff"/>
  </g>
  <g id="axes_1">
   <g id="matplotlib.axis_1"/>
   <g id="matplotlib.axis_2"/>
   <g id="text_1">
    <text style="font: italic 10px 'Arial'; text-anchor: start" x="45.9375" y="27.787101" transform="rotate(-0 45.9375 27.787101)">Example video 1: accuracy </text>
   </g>
   <g id="text_2">
    <text style="font: italic 700 10px 'Arial'; text-anchor: start" x="167.859375" y="27.835538" transform="rotate(-0 167.859375 27.835538)">93.9%</text>
   </g>
  </g>
  <g id="axes_2">
   <g id="patch_2">
    <path d="M 45.9375 49.508209 
L 46.780595 49.508209 
L 46.780595 33.949082 
L 45.9375 33.949082 
z
" clip-path="url(#p474e1a212b)" style="fill: #f49f7b"/>
   </g>
   <g id="patch_3">
    <path d="M 46.780595 49.508209 
L 50.311677 49.508209 
L 50.311677 33.949082 
L 46.780595 33.949082 
z
" clip-path="url(#p474e1a212b)" style="fill: #59595c"/>
   </g>
   <g id="patch_4">
    <path d="M 50.311677 49.508209 
L 50.758022 49.508209 
L 50.758022 33.949082 
L 50.311677 33.949082 
z
" clip-path="url(#p474e1a212b)" style="fill: #f49f7b"/>
   </g>
   <g id="patch_5">
    <path d="M 50.758022 49.508209 
L 55.781878 49.508209 
L 55.781878 33.949082 
L 50.758022 33.949082 
z
" clip-path="url(#p474e1a212b)" style="fill: #59595c"/>
   </g>
   <g id="patch_6">
    <path d="M 55.781878 49.508209 
L 56.302614 49.508209 
L 56.302614 33.949082 
L 55.781878 33.949082 
z
" clip-path="url(#p474e1a212b)" style="fill: #f49f7b"/>
   </g>
   <g id="patch_7">
    <path d="M 56.302614 49.508209 
L 94.643616 49.508209 
L 94.643616 33.949082 
L 56.302614 33.949082 
z
" clip-path="url(#p474e1a212b)" style="fill: #59595c"/>
   </g>
   <g id="patch_8">
    <path d="M 94.643616 49.508209 
L 95.238743 49.508209 
L 95.238743 33.949082 
L 94.643616 33.949082 
z
" clip-path="url(#p474e1a212b)" style="fill: #f49f7b"/>
   </g>
   <g id="patch_9">
    <path d="M 95.238743 49.508209 
L 101.904156 49.508209 
L 101.904156 33.949082 
L 95.238743 33.949082 
z
" clip-path="url(#p474e1a212b)" style="fill: #59595c"/>
   </g>
   <g id="patch_10">
    <path d="M 101.904156 49.508209 
L 102.276109 49.508209 
L 102.276109 33.949082 
L 101.904156 33.949082 
z
" clip-path="url(#p474e1a212b)" style="fill: #f49f7b"/>
   </g>
   <g id="patch_11">
    <path d="M 102.276109 49.508209 
L 108.004199 49.508209 
L 108.004199 33.949082 
L 102.276109 33.949082 
z
" clip-path="url(#p474e1a212b)" style="fill: #59595c"/>
   </g>
   <g id="patch_12">
    <path d="M 108.004199 49.508209 
L 108.376153 49.508209 
L 108.376153 33.949082 
L 108.004199 33.949082 
z
" clip-path="url(#p474e1a212b)" style="fill: #f49f7b"/>
   </g>
   <g id="patch_13">
    <path d="M 108.376153 49.508209 
L 120.610954 49.508209 
L 120.610954 33.949082 
L 108.376153 33.949082 
z
" clip-path="url(#p474e1a212b)" style="fill: #59595c"/>
   </g>
   <g id="patch_14">
    <path d="M 120.610954 49.508209 
L 121.022583 49.508209 
L 121.022583 33.949082 
L 120.610954 33.949082 
z
" clip-path="url(#p474e1a212b)" style="fill: #f49f7b"/>
   </g>
   <g id="patch_15">
    <path d="M 121.022583 49.508209 
L 122.733571 49.508209 
L 122.733571 33.949082 
L 121.022583 33.949082 
z
" clip-path="url(#p474e1a212b)" style="fill: #59595c"/>
   </g>
   <g id="patch_16">
    <path d="M 122.733571 49.508209 
L 124.295777 49.508209 
L 124.295777 33.949082 
L 122.733571 33.949082 
z
" clip-path="url(#p474e1a212b)" style="fill: #f49f7b"/>
   </g>
   <g id="patch_17">
    <path d="M 124.295777 49.508209 
L 126.710997 49.508209 
L 126.710997 33.949082 
L 124.295777 33.949082 
z
" clip-path="url(#p474e1a212b)" style="fill: #59595c"/>
   </g>
   <g id="patch_18">
    <path d="M 126.710997 49.508209 
L 128.610442 49.508209 
L 128.610442 33.949082 
L 126.710997 33.949082 
z
" clip-path="url(#p474e1a212b)" style="fill: #f49f7b"/>
   </g>
   <g id="patch_19">
    <path d="M 128.610442 49.508209 
L 130.504927 49.508209 
L 130.504927 33.949082 
L 128.610442 33.949082 
z
" clip-path="url(#p474e1a212b)" style="fill: #59595c"/>
   </g>
   <g id="patch_20">
    <path d="M 130.504927 49.508209 
L 130.693383 49.508209 
L 130.693383 33.949082 
L 130.504927 33.949082 
z
" clip-path="url(#p474e1a212b)" style="fill: #f49f7b"/>
   </g>
   <g id="patch_21">
    <path d="M 130.693383 49.508209 
L 135.573418 49.508209 
L 135.573418 33.949082 
L 130.693383 33.949082 
z
" clip-path="url(#p474e1a212b)" style="fill: #59595c"/>
   </g>
   <g id="patch_22">
    <path d="M 135.573418 49.508209 
L 135.722199 49.508209 
L 135.722199 33.949082 
L 135.573418 33.949082 
z
" clip-path="url(#p474e1a212b)" style="fill: #f49f7b"/>
   </g>
   <g id="patch_23">
    <path d="M 135.722199 49.508209 
L 136.540498 49.508209 
L 136.540498 33.949082 
L 135.722199 33.949082 
z
" clip-path="url(#p474e1a212b)" style="fill: #59595c"/>
   </g>
   <g id="patch_24">
    <path d="M 136.540498 49.508209 
L 137.988638 49.508209 
L 137.988638 33.949082 
L 136.540498 33.949082 
z
" clip-path="url(#p474e1a212b)" style="fill: #f49f7b"/>
   </g>
   <g id="patch_25">
    <path d="M 137.988638 49.508209 
L 141.485004 49.508209 
L 141.485004 33.949082 
L 137.988638 33.949082 
z
" clip-path="url(#p474e1a212b)" style="fill: #59595c"/>
   </g>
   <g id="patch_26">
    <path d="M 141.485004 49.508209 
L 141.673461 49.508209 
L 141.673461 33.949082 
L 141.485004 33.949082 
z
" clip-path="url(#p474e1a212b)" style="fill: #f49f7b"/>
   </g>
   <g id="patch_27">
    <path d="M 141.673461 49.508209 
L 147.213094 49.508209 
L 147.213094 33.949082 
L 141.673461 33.949082 
z
" clip-path="url(#p474e1a212b)" style="fill: #59595c"/>
   </g>
   <g id="patch_28">
    <path d="M 147.213094 49.508209 
L 148.328955 49.508209 
L 148.328955 33.949082 
L 147.213094 33.949082 
z
" clip-path="url(#p474e1a212b)" style="fill: #f49f7b"/>
   </g>
   <g id="patch_29">
    <path d="M 148.328955 49.508209 
L 158.932119 49.508209 
L 158.932119 33.949082 
L 148.328955 33.949082 
z
" clip-path="url(#p474e1a212b)" style="fill: #59595c"/>
   </g>
   <g id="patch_30">
    <path d="M 158.932119 49.508209 
L 160.231478 49.508209 
L 160.231478 33.949082 
L 158.932119 33.949082 
z
" clip-path="url(#p474e1a212b)" style="fill: #f49f7b"/>
   </g>
   <g id="patch_31">
    <path d="M 160.231478 49.508209 
L 163.008734 49.508209 
L 163.008734 33.949082 
L 160.231478 33.949082 
z
" clip-path="url(#p474e1a212b)" style="fill: #59595c"/>
   </g>
   <g id="patch_32">
    <path d="M 163.008734 49.508209 
L 163.11784 49.508209 
L 163.11784 33.949082 
L 163.008734 33.949082 
z
" clip-path="url(#p474e1a212b)" style="fill: #f49f7b"/>
   </g>
   <g id="patch_33">
    <path d="M 163.11784 49.508209 
L 174.464912 49.508209 
L 174.464912 33.949082 
L 163.11784 33.949082 
z
" clip-path="url(#p474e1a212b)" style="fill: #59595c"/>
   </g>
   <g id="patch_34">
    <path d="M 174.464912 49.508209 
L 174.985647 49.508209 
L 174.985647 33.949082 
L 174.464912 33.949082 
z
" clip-path="url(#p474e1a212b)" style="fill: #f49f7b"/>
   </g>
   <g id="patch_35">
    <path d="M 174.985647 49.508209 
L 182.950419 49.508209 
L 182.950419 33.949082 
L 174.985647 33.949082 
z
" clip-path="url(#p474e1a212b)" style="fill: #59595c"/>
   </g>
   <g id="patch_36">
    <path d="M 182.950419 49.508209 
L 183.51083 49.508209 
L 183.51083 33.949082 
L 182.950419 33.949082 
z
" clip-path="url(#p474e1a212b)" style="fill: #91d1bc"/>
   </g>
   <g id="patch_37">
    <path d="M 183.51083 49.508209 
L 186.456704 49.508209 
L 186.456704 33.949082 
L 183.51083 33.949082 
z
" clip-path="url(#p474e1a212b)" style="fill: #59595c"/>
   </g>
   <g id="patch_38">
    <path d="M 186.456704 49.508209 
L 188.688427 49.508209 
L 188.688427 33.949082 
L 186.456704 33.949082 
z
" clip-path="url(#p474e1a212b)" style="fill: #f49f7b"/>
   </g>
   <g id="patch_39">
    <path d="M 188.688427 49.508209 
L 190.325024 49.508209 
L 190.325024 33.949082 
L 188.688427 33.949082 
z
" clip-path="url(#p474e1a212b)" style="fill: #59595c"/>
   </g>
   <g id="patch_40">
    <path d="M 190.325024 49.508209 
L 190.548196 49.508209 
L 190.548196 33.949082 
L 190.325024 33.949082 
z
" clip-path="url(#p474e1a212b)" style="fill: #f49f7b"/>
   </g>
   <g id="patch_41">
    <path d="M 190.548196 49.508209 
L 200.367778 49.508209 
L 200.367778 33.949082 
L 190.548196 33.949082 
z
" clip-path="url(#p474e1a212b)" style="fill: #59595c"/>
   </g>
   <g id="patch_42">
    <path d="M 200.367778 49.508209 
L 201.186077 49.508209 
L 201.186077 33.949082 
L 200.367778 33.949082 
z
" clip-path="url(#p474e1a212b)" style="fill: #f49f7b"/>
   </g>
   <g id="patch_43">
    <path d="M 201.186077 49.508209 
L 202.822673 49.508209 
L 202.822673 33.949082 
L 201.186077 33.949082 
z
" clip-path="url(#p474e1a212b)" style="fill: #59595c"/>
   </g>
   <g id="patch_44">
    <path d="M 202.822673 49.508209 
L 205.530497 49.508209 
L 205.530497 33.949082 
L 202.822673 33.949082 
z
" clip-path="url(#p474e1a212b)" style="fill: #f49f7b"/>
   </g>
   <g id="patch_45">
    <path d="M 205.530497 49.508209 
L 208.600357 49.508209 
L 208.600357 33.949082 
L 205.530497 33.949082 
z
" clip-path="url(#p474e1a212b)" style="fill: #59595c"/>
   </g>
   <g id="patch_46">
    <path d="M 208.600357 49.508209 
L 209.681502 49.508209 
L 209.681502 33.949082 
L 208.600357 33.949082 
z
" clip-path="url(#p474e1a212b)" style="fill: #f49f7b"/>
   </g>
   <g id="patch_47">
    <path d="M 209.681502 49.508209 
L 210.098091 49.508209 
L 210.098091 33.949082 
L 209.681502 33.949082 
z
" clip-path="url(#p474e1a212b)" style="fill: #59595c"/>
   </g>
   <g id="patch_48">
    <path d="M 210.098091 49.508209 
L 211.139561 49.508209 
L 211.139561 33.949082 
L 210.098091 33.949082 
z
" clip-path="url(#p474e1a212b)" style="fill: #f49f7b"/>
   </g>
   <g id="patch_49">
    <path d="M 211.139561 49.508209 
L 212.334773 49.508209 
L 212.334773 33.949082 
L 211.139561 33.949082 
z
" clip-path="url(#p474e1a212b)" style="fill: #59595c"/>
   </g>
   <g id="patch_50">
    <path d="M 212.334773 49.508209 
L 214.308608 49.508209 
L 214.308608 33.949082 
L 212.334773 33.949082 
z
" clip-path="url(#p474e1a212b)" style="fill: #f49f7b"/>
   </g>
   <g id="patch_51">
    <path d="M 214.308608 49.508209 
L 214.754953 49.508209 
L 214.754953 33.949082 
L 214.308608 33.949082 
z
" clip-path="url(#p474e1a212b)" style="fill: #59595c"/>
   </g>
   <g id="patch_52">
    <path d="M 214.754953 49.508209 
L 215.216176 49.508209 
L 215.216176 33.949082 
L 214.754953 33.949082 
z
" clip-path="url(#p474e1a212b)" style="fill: #f49f7b"/>
   </g>
   <g id="patch_53">
    <path d="M 215.216176 49.508209 
L 215.588129 49.508209 
L 215.588129 33.949082 
L 215.216176 33.949082 
z
" clip-path="url(#p474e1a212b)" style="fill: #59595c"/>
   </g>
   <g id="patch_54">
    <path d="M 215.588129 49.508209 
L 216.332037 49.508209 
L 216.332037 33.949082 
L 215.588129 33.949082 
z
" clip-path="url(#p474e1a212b)" style="fill: #f49f7b"/>
   </g>
   <g id="patch_55">
    <path d="M 216.332037 49.508209 
L 216.927163 49.508209 
L 216.927163 33.949082 
L 216.332037 33.949082 
z
" clip-path="url(#p474e1a212b)" style="fill: #59595c"/>
   </g>
   <g id="patch_56">
    <path d="M 216.927163 49.508209 
L 217.259442 49.508209 
L 217.259442 33.949082 
L 216.927163 33.949082 
z
" clip-path="url(#p474e1a212b)" style="fill: #f49f7b"/>
   </g>
   <g id="patch_57">
    <path d="M 217.259442 49.508209 
L 217.928959 49.508209 
L 217.928959 33.949082 
L 217.259442 33.949082 
z
" clip-path="url(#p474e1a212b)" style="fill: #59595c"/>
   </g>
   <g id="patch_58">
    <path d="M 217.928959 49.508209 
L 218.638151 49.508209 
L 218.638151 33.949082 
L 217.928959 33.949082 
z
" clip-path="url(#p474e1a212b)" style="fill: #f49f7b"/>
   </g>
   <g id="patch_59">
    <path d="M 218.638151 49.508209 
L 219.307668 49.508209 
L 219.307668 33.949082 
L 218.638151 33.949082 
z
" clip-path="url(#p474e1a212b)" style="fill: #59595c"/>
   </g>
   <g id="patch_60">
    <path d="M 219.307668 49.508209 
L 220.200357 49.508209 
L 220.200357 33.949082 
L 219.307668 33.949082 
z
" clip-path="url(#p474e1a212b)" style="fill: #f49f7b"/>
   </g>
   <g id="patch_61">
    <path d="M 220.200357 49.508209 
L 223.587617 49.508209 
L 223.587617 33.949082 
L 220.200357 33.949082 
z
" clip-path="url(#p474e1a212b)" style="fill: #59595c"/>
   </g>
   <g id="patch_62">
    <path d="M 223.587617 49.508209 
L 224.04388 49.508209 
L 224.04388 33.949082 
L 223.587617 33.949082 
z
" clip-path="url(#p474e1a212b)" style="fill: #f49f7b"/>
   </g>
   <g id="patch_63">
    <path d="M 224.04388 49.508209 
L 224.232337 49.508209 
L 224.232337 33.949082 
L 224.04388 33.949082 
z
" clip-path="url(#p474e1a212b)" style="fill: #59595c"/>
   </g>
   <g id="patch_64">
    <path d="M 224.232337 49.508209 
L 224.753072 49.508209 
L 224.753072 33.949082 
L 224.232337 33.949082 
z
" clip-path="url(#p474e1a212b)" style="fill: #f49f7b"/>
   </g>
   <g id="patch_65">
    <path d="M 224.753072 49.508209 
L 224.976245 49.508209 
L 224.976245 33.949082 
L 224.753072 33.949082 
z
" clip-path="url(#p474e1a212b)" style="fill: #59595c"/>
   </g>
   <g id="patch_66">
    <path d="M 224.976245 49.508209 
L 226.538451 49.508209 
L 226.538451 33.949082 
L 224.976245 33.949082 
z
" clip-path="url(#p474e1a212b)" style="fill: #f49f7b"/>
   </g>
   <g id="patch_67">
    <path d="M 226.538451 49.508209 
L 228.695783 49.508209 
L 228.695783 33.949082 
L 226.538451 33.949082 
z
" clip-path="url(#p474e1a212b)" style="fill: #59595c"/>
   </g>
   <g id="patch_68">
    <path d="M 228.695783 49.508209 
L 236.283642 49.508209 
L 236.283642 33.949082 
L 228.695783 33.949082 
z
" clip-path="url(#p474e1a212b)" style="fill: #f49f7b"/>
   </g>
   <g id="patch_69">
    <path d="M 236.283642 49.508209 
L 239.333663 49.508209 
L 239.333663 33.949082 
L 236.283642 33.949082 
z
" clip-path="url(#p474e1a212b)" style="fill: #59595c"/>
   </g>
   <g id="patch_70">
    <path d="M 239.333663 49.508209 
L 240.077571 49.508209 
L 240.077571 33.949082 
L 239.333663 33.949082 
z
" clip-path="url(#p474e1a212b)" style="fill: #f49f7b"/>
   </g>
   <g id="patch_71">
    <path d="M 240.077571 49.508209 
L 245.513056 49.508209 
L 245.513056 33.949082 
L 240.077571 33.949082 
z
" clip-path="url(#p474e1a212b)" style="fill: #59595c"/>
   </g>
   <g id="patch_72">
    <path d="M 245.513056 49.508209 
L 246.331355 49.508209 
L 246.331355 33.949082 
L 245.513056 33.949082 
z
" clip-path="url(#p474e1a212b)" style="fill: #f49f7b"/>
   </g>
   <g id="patch_73">
    <path d="M 246.331355 49.508209 
L 248.935032 49.508209 
L 248.935032 33.949082 
L 246.331355 33.949082 
z
" clip-path="url(#p474e1a212b)" style="fill: #59595c"/>
   </g>
   <g id="patch_74">
    <path d="M 248.935032 49.508209 
L 250.313741 49.508209 
L 250.313741 33.949082 
L 248.935032 33.949082 
z
" clip-path="url(#p474e1a212b)" style="fill: #f49f7b"/>
   </g>
   <g id="patch_75">
    <path d="M 250.313741 49.508209 
L 250.869192 49.508209 
L 250.869192 33.949082 
L 250.313741 33.949082 
z
" clip-path="url(#p474e1a212b)" style="fill: #59595c"/>
   </g>
   <g id="patch_76">
    <path d="M 250.869192 49.508209 
L 251.836272 49.508209 
L 251.836272 33.949082 
L 250.869192 33.949082 
z
" clip-path="url(#p474e1a212b)" style="fill: #f49f7b"/>
   </g>
   <g id="patch_77">
    <path d="M 251.836272 49.508209 
L 252.65457 49.508209 
L 252.65457 33.949082 
L 251.836272 33.949082 
z
" clip-path="url(#p474e1a212b)" style="fill: #59595c"/>
   </g>
   <g id="patch_78">
    <path d="M 252.65457 49.508209 
L 253.289371 49.508209 
L 253.289371 33.949082 
L 252.65457 33.949082 
z
" clip-path="url(#p474e1a212b)" style="fill: #f49f7b"/>
   </g>
   <g id="patch_79">
    <path d="M 253.289371 49.508209 
L 258.680223 49.508209 
L 258.680223 33.949082 
L 253.289371 33.949082 
z
" clip-path="url(#p474e1a212b)" style="fill: #59595c"/>
   </g>
   <g id="patch_80">
    <path d="M 258.680223 49.508209 
L 259.315024 49.508209 
L 259.315024 33.949082 
L 258.680223 33.949082 
z
" clip-path="url(#p474e1a212b)" style="fill: #f49f7b"/>
   </g>
   <g id="patch_81">
    <path d="M 259.315024 49.508209 
L 262.920496 49.508209 
L 262.920496 33.949082 
L 259.315024 33.949082 
z
" clip-path="url(#p474e1a212b)" style="fill: #59595c"/>
   </g>
   <g id="patch_82">
    <path d="M 262.920496 49.508209 
L 263.515623 49.508209 
L 263.515623 33.949082 
L 262.920496 33.949082 
z
" clip-path="url(#p474e1a212b)" style="fill: #f49f7b"/>
   </g>
   <g id="patch_83">
    <path d="M 263.515623 49.508209 
L 267.845165 49.508209 
L 267.845165 33.949082 
L 263.515623 33.949082 
z
" clip-path="url(#p474e1a212b)" style="fill: #59595c"/>
   </g>
   <g id="patch_84">
    <path d="M 267.845165 49.508209 
L 294.744868 49.508209 
L 294.744868 33.949082 
L 267.845165 33.949082 
z
" clip-path="url(#p474e1a212b)" style="fill: #91d1bc"/>
   </g>
   <g id="patch_85">
    <path d="M 294.744868 49.508209 
L 299.981978 49.508209 
L 299.981978 33.949082 
L 294.744868 33.949082 
z
" clip-path="url(#p474e1a212b)" style="fill: #59595c"/>
   </g>
   <g id="patch_86">
    <path d="M 299.981978 49.508209 
L 300.988733 49.508209 
L 300.988733 33.949082 
L 299.981978 33.949082 
z
" clip-path="url(#p474e1a212b)" style="fill: #f49f7b"/>
   </g>
   <g id="patch_87">
    <path d="M 300.988733 49.508209 
L 306.067143 49.508209 
L 306.067143 33.949082 
L 300.988733 33.949082 
z
" clip-path="url(#p474e1a212b)" style="fill: #59595c"/>
   </g>
   <g id="patch_88">
    <path d="M 306.067143 49.508209 
L 306.81105 49.508209 
L 306.81105 33.949082 
L 306.067143 33.949082 
z
" clip-path="url(#p474e1a212b)" style="fill: #f49f7b"/>
   </g>
   <g id="patch_89">
    <path d="M 306.81105 49.508209 
L 307.966587 49.508209 
L 307.966587 33.949082 
L 306.81105 33.949082 
z
" clip-path="url(#p474e1a212b)" style="fill: #59595c"/>
   </g>
   <g id="patch_90">
    <path d="M 307.966587 49.508209 
L 308.407972 49.508209 
L 308.407972 33.949082 
L 307.966587 33.949082 
z
" clip-path="url(#p474e1a212b)" style="fill: #f49f7b"/>
   </g>
   <g id="patch_91">
    <path d="M 308.407972 49.508209 
L 309.563509 49.508209 
L 309.563509 33.949082 
L 308.407972 33.949082 
z
" clip-path="url(#p474e1a212b)" style="fill: #59595c"/>
   </g>
   <g id="patch_92">
    <path d="M 309.563509 49.508209 
L 309.935463 49.508209 
L 309.935463 33.949082 
L 309.563509 33.949082 
z
" clip-path="url(#p474e1a212b)" style="fill: #f49f7b"/>
   </g>
   <g id="patch_93">
    <path d="M 309.935463 49.508209 
L 310.530589 49.508209 
L 310.530589 33.949082 
L 309.935463 33.949082 
z
" clip-path="url(#p474e1a212b)" style="fill: #59595c"/>
   </g>
   <g id="patch_94">
    <path d="M 310.530589 49.508209 
L 310.942218 49.508209 
L 310.942218 33.949082 
L 310.530589 33.949082 
z
" clip-path="url(#p474e1a212b)" style="fill: #f49f7b"/>
   </g>
   <g id="patch_95">
    <path d="M 310.942218 49.508209 
L 313.168981 49.508209 
L 313.168981 33.949082 
L 310.942218 33.949082 
z
" clip-path="url(#p474e1a212b)" style="fill: #59595c"/>
   </g>
   <g id="patch_96">
    <path d="M 313.168981 49.508209 
L 314.026955 49.508209 
L 314.026955 33.949082 
L 313.168981 33.949082 
z
" clip-path="url(#p474e1a212b)" style="fill: #f49f7b"/>
   </g>
   <g id="patch_97">
    <path d="M 314.026955 49.508209 
L 315.777618 49.508209 
L 315.777618 33.949082 
L 314.026955 33.949082 
z
" clip-path="url(#p474e1a212b)" style="fill: #59595c"/>
   </g>
   <g id="patch_98">
    <path d="M 315.777618 49.508209 
L 317.076977 49.508209 
L 317.076977 33.949082 
L 315.777618 33.949082 
z
" clip-path="url(#p474e1a212b)" style="fill: #f49f7b"/>
   </g>
   <g id="patch_99">
    <path d="M 317.076977 49.508209 
L 320.647734 49.508209 
L 320.647734 33.949082 
L 317.076977 33.949082 
z
" clip-path="url(#p474e1a212b)" style="fill: #59595c"/>
   </g>
   <g id="patch_100">
    <path d="M 320.647734 49.508209 
L 321.24286 49.508209 
L 321.24286 33.949082 
L 320.647734 33.949082 
z
" clip-path="url(#p474e1a212b)" style="fill: #f49f7b"/>
   </g>
   <g id="patch_101">
    <path d="M 321.24286 49.508209 
L 322.175224 49.508209 
L 322.175224 33.949082 
L 321.24286 33.949082 
z
" clip-path="url(#p474e1a212b)" style="fill: #59595c"/>
   </g>
   <g id="patch_102">
    <path d="M 322.175224 49.508209 
L 323.067913 49.508209 
L 323.067913 33.949082 
L 322.175224 33.949082 
z
" clip-path="url(#p474e1a212b)" style="fill: #f49f7b"/>
   </g>
   <g id="patch_103">
    <path d="M 323.067913 49.508209 
L 330.75 49.508209 
L 330.75 33.949082 
L 323.067913 33.949082 
z
" clip-path="url(#p474e1a212b)" style="fill: #59595c"/>
   </g>
   <g id="matplotlib.axis_3"/>
   <g id="matplotlib.axis_4"/>
   <g id="text_3">
    <text style="font: 9px 'Arial'; text-anchor: end" x="42.51975" y="44.055286" transform="rotate(-0 42.51975 44.055286)">labels</text>
   </g>
  </g>
  <g id="axes_3">
   <g id="patch_104">
    <path d="M 45.9375 68.325029 
L 46.82027 68.325029 
L 46.82027 52.765901 
L 45.9375 52.765901 
z
" clip-path="url(#p8b923eb632)" style="fill: #f49f7b"/>
   </g>
   <g id="patch_105">
    <path d="M 46.82027 68.325029 
L 47.425315 68.325029 
L 47.425315 52.765901 
L 46.82027 52.765901 
z
" clip-path="url(#p8b923eb632)" style="fill: #59595c"/>
   </g>
   <g id="patch_106">
    <path d="M 47.425315 68.325029 
L 47.683203 68.325029 
L 47.683203 52.765901 
L 47.425315 52.765901 
z
" clip-path="url(#p8b923eb632)" style="fill: #f49f7b"/>
   </g>
   <g id="patch_107">
    <path d="M 47.683203 68.325029 
L 50.351352 68.325029 
L 50.351352 52.765901 
L 47.683203 52.765901 
z
" clip-path="url(#p8b923eb632)" style="fill: #59595c"/>
   </g>
   <g id="patch_108">
    <path d="M 50.351352 68.325029 
L 50.758022 68.325029 
L 50.758022 52.765901 
L 50.351352 52.765901 
z
" clip-path="url(#p8b923eb632)" style="fill: #f49f7b"/>
   </g>
   <g id="patch_109">
    <path d="M 50.758022 68.325029 
L 55.776919 68.325029 
L 55.776919 52.765901 
L 50.758022 52.765901 
z
" clip-path="url(#p8b923eb632)" style="fill: #59595c"/>
   </g>
   <g id="patch_110">
    <path d="M 55.776919 68.325029 
L 56.357167 68.325029 
L 56.357167 52.765901 
L 55.776919 52.765901 
z
" clip-path="url(#p8b923eb632)" style="fill: #f49f7b"/>
   </g>
   <g id="patch_111">
    <path d="M 56.357167 68.325029 
L 92.962385 68.325029 
L 92.962385 52.765901 
L 56.357167 52.765901 
z
" clip-path="url(#p8b923eb632)" style="fill: #59595c"/>
   </g>
   <g id="patch_112">
    <path d="M 92.962385 68.325029 
L 93.354176 68.325029 
L 93.354176 52.765901 
L 92.962385 52.765901 
z
" clip-path="url(#p8b923eb632)" style="fill: #f49f7b"/>
   </g>
   <g id="patch_113">
    <path d="M 93.354176 68.325029 
L 94.718007 68.325029 
L 94.718007 52.765901 
L 93.354176 52.765901 
z
" clip-path="url(#p8b923eb632)" style="fill: #59595c"/>
   </g>
   <g id="patch_114">
    <path d="M 94.718007 68.325029 
L 94.817195 68.325029 
L 94.817195 52.765901 
L 94.718007 52.765901 
z
" clip-path="url(#p8b923eb632)" style="fill: #f49f7b"/>
   </g>
   <g id="patch_115">
    <path d="M 94.817195 68.325029 
L 94.975895 68.325029 
L 94.975895 52.765901 
L 94.817195 52.765901 
z
" clip-path="url(#p8b923eb632)" style="fill: #59595c"/>
   </g>
   <g id="patch_116">
    <path d="M 94.975895 68.325029 
L 94.980855 68.325029 
L 94.980855 52.765901 
L 94.975895 52.765901 
z
" clip-path="url(#p8b923eb632)" style="fill: #f49f7b"/>
   </g>
   <g id="patch_117">
    <path d="M 94.980855 68.325029 
L 94.985814 68.325029 
L 94.985814 52.765901 
L 94.980855 52.765901 
z
" clip-path="url(#p8b923eb632)" style="fill: #59595c"/>
   </g>
   <g id="patch_118">
    <path d="M 94.985814 68.325029 
L 95.02053 68.325029 
L 95.02053 52.765901 
L 94.985814 52.765901 
z
" clip-path="url(#p8b923eb632)" style="fill: #f49f7b"/>
   </g>
   <g id="patch_119">
    <path d="M 95.02053 68.325029 
L 95.025489 68.325029 
L 95.025489 52.765901 
L 95.02053 52.765901 
z
" clip-path="url(#p8b923eb632)" style="fill: #59595c"/>
   </g>
   <g id="patch_120">
    <path d="M 95.025489 68.325029 
L 95.223864 68.325029 
L 95.223864 52.765901 
L 95.025489 52.765901 
z
" clip-path="url(#p8b923eb632)" style="fill: #f49f7b"/>
   </g>
   <g id="patch_121">
    <path d="M 95.223864 68.325029 
L 108.088508 68.325029 
L 108.088508 52.765901 
L 95.223864 52.765901 
z
" clip-path="url(#p8b923eb632)" style="fill: #59595c"/>
   </g>
   <g id="patch_122">
    <path d="M 108.088508 68.325029 
L 108.148021 68.325029 
L 108.148021 52.765901 
L 108.088508 52.765901 
z
" clip-path="url(#p8b923eb632)" style="fill: #f49f7b"/>
   </g>
   <g id="patch_123">
    <path d="M 108.148021 68.325029 
L 120.605995 68.325029 
L 120.605995 52.765901 
L 108.148021 52.765901 
z
" clip-path="url(#p8b923eb632)" style="fill: #59595c"/>
   </g>
   <g id="patch_124">
    <path d="M 120.605995 68.325029 
L 121.012665 68.325029 
L 121.012665 52.765901 
L 120.605995 52.765901 
z
" clip-path="url(#p8b923eb632)" style="fill: #f49f7b"/>
   </g>
   <g id="patch_125">
    <path d="M 121.012665 68.325029 
L 122.718693 68.325029 
L 122.718693 52.765901 
L 121.012665 52.765901 
z
" clip-path="url(#p8b923eb632)" style="fill: #59595c"/>
   </g>
   <g id="patch_126">
    <path d="M 122.718693 68.325029 
L 124.285858 68.325029 
L 124.285858 52.765901 
L 122.718693 52.765901 
z
" clip-path="url(#p8b923eb632)" style="fill: #f49f7b"/>
   </g>
   <g id="patch_127">
    <path d="M 124.285858 68.325029 
L 126.715957 68.325029 
L 126.715957 52.765901 
L 124.285858 52.765901 
z
" clip-path="url(#p8b923eb632)" style="fill: #59595c"/>
   </g>
   <g id="patch_128">
    <path d="M 126.715957 68.325029 
L 128.521173 68.325029 
L 128.521173 52.765901 
L 126.715957 52.765901 
z
" clip-path="url(#p8b923eb632)" style="fill: #f49f7b"/>
   </g>
   <g id="patch_129">
    <path d="M 128.521173 68.325029 
L 131.000865 68.325029 
L 131.000865 52.765901 
L 128.521173 52.765901 
z
" clip-path="url(#p8b923eb632)" style="fill: #59595c"/>
   </g>
   <g id="patch_130">
    <path d="M 131.000865 68.325029 
L 131.318266 68.325029 
L 131.318266 52.765901 
L 131.000865 52.765901 
z
" clip-path="url(#p8b923eb632)" style="fill: #f49f7b"/>
   </g>
   <g id="patch_131">
    <path d="M 131.318266 68.325029 
L 131.476966 68.325029 
L 131.476966 52.765901 
L 131.318266 52.765901 
z
" clip-path="url(#p8b923eb632)" style="fill: #59595c"/>
   </g>
   <g id="patch_132">
    <path d="M 131.476966 68.325029 
L 131.784448 68.325029 
L 131.784448 52.765901 
L 131.476966 52.765901 
z
" clip-path="url(#p8b923eb632)" style="fill: #f49f7b"/>
   </g>
   <g id="patch_133">
    <path d="M 131.784448 68.325029 
L 136.555376 68.325029 
L 136.555376 52.765901 
L 131.784448 52.765901 
z
" clip-path="url(#p8b923eb632)" style="fill: #59595c"/>
   </g>
   <g id="patch_134">
    <path d="M 136.555376 68.325029 
L 137.983679 68.325029 
L 137.983679 52.765901 
L 136.555376 52.765901 
z
" clip-path="url(#p8b923eb632)" style="fill: #f49f7b"/>
   </g>
   <g id="patch_135">
    <path d="M 137.983679 68.325029 
L 141.524679 68.325029 
L 141.524679 52.765901 
L 137.983679 52.765901 
z
" clip-path="url(#p8b923eb632)" style="fill: #59595c"/>
   </g>
   <g id="patch_136">
    <path d="M 141.524679 68.325029 
L 141.569314 68.325029 
L 141.569314 52.765901 
L 141.524679 52.765901 
z
" clip-path="url(#p8b923eb632)" style="fill: #f49f7b"/>
   </g>
   <g id="patch_137">
    <path d="M 141.569314 68.325029 
L 147.188297 68.325029 
L 147.188297 52.765901 
L 141.569314 52.765901 
z
" clip-path="url(#p8b923eb632)" style="fill: #59595c"/>
   </g>
   <g id="patch_138">
    <path d="M 147.188297 68.325029 
L 148.20993 68.325029 
L 148.20993 52.765901 
L 147.188297 52.765901 
z
" clip-path="url(#p8b923eb632)" style="fill: #f49f7b"/>
   </g>
   <g id="patch_139">
    <path d="M 148.20993 68.325029 
L 159.09082 68.325029 
L 159.09082 52.765901 
L 148.20993 52.765901 
z
" clip-path="url(#p8b923eb632)" style="fill: #59595c"/>
   </g>
   <g id="patch_140">
    <path d="M 159.09082 68.325029 
L 159.24952 68.325029 
L 159.24952 52.765901 
L 159.09082 52.765901 
z
" clip-path="url(#p8b923eb632)" style="fill: #f49f7b"/>
   </g>
   <g id="patch_141">
    <path d="M 159.24952 68.325029 
L 159.725621 68.325029 
L 159.725621 52.765901 
L 159.24952 52.765901 
z
" clip-path="url(#p8b923eb632)" style="fill: #59595c"/>
   </g>
   <g id="patch_142">
    <path d="M 159.725621 68.325029 
L 160.201722 68.325029 
L 160.201722 52.765901 
L 159.725621 52.765901 
z
" clip-path="url(#p8b923eb632)" style="fill: #f49f7b"/>
   </g>
   <g id="patch_143">
    <path d="M 160.201722 68.325029 
L 183.054566 68.325029 
L 183.054566 52.765901 
L 160.201722 52.765901 
z
" clip-path="url(#p8b923eb632)" style="fill: #59595c"/>
   </g>
   <g id="patch_144">
    <path d="M 183.054566 68.325029 
L 183.877824 68.325029 
L 183.877824 52.765901 
L 183.054566 52.765901 
z
" clip-path="url(#p8b923eb632)" style="fill: #91d1bc"/>
   </g>
   <g id="patch_145">
    <path d="M 183.877824 68.325029 
L 183.922459 68.325029 
L 183.922459 52.765901 
L 183.877824 52.765901 
z
" clip-path="url(#p8b923eb632)" style="fill: #59595c"/>
   </g>
   <g id="patch_146">
    <path d="M 183.922459 68.325029 
L 183.927418 68.325029 
L 183.927418 52.765901 
L 183.922459 52.765901 
z
" clip-path="url(#p8b923eb632)" style="fill: #91d1bc"/>
   </g>
   <g id="patch_147">
    <path d="M 183.927418 68.325029 
L 183.952215 68.325029 
L 183.952215 52.765901 
L 183.927418 52.765901 
z
" clip-path="url(#p8b923eb632)" style="fill: #59595c"/>
   </g>
   <g id="patch_148">
    <path d="M 183.952215 68.325029 
L 183.957174 68.325029 
L 183.957174 52.765901 
L 183.952215 52.765901 
z
" clip-path="url(#p8b923eb632)" style="fill: #91d1bc"/>
   </g>
   <g id="patch_149">
    <path d="M 183.957174 68.325029 
L 183.996849 68.325029 
L 183.996849 52.765901 
L 183.957174 52.765901 
z
" clip-path="url(#p8b923eb632)" style="fill: #59595c"/>
   </g>
   <g id="patch_150">
    <path d="M 183.996849 68.325029 
L 184.001809 68.325029 
L 184.001809 52.765901 
L 183.996849 52.765901 
z
" clip-path="url(#p8b923eb632)" style="fill: #91d1bc"/>
   </g>
   <g id="patch_151">
    <path d="M 184.001809 68.325029 
L 184.006768 68.325029 
L 184.006768 52.765901 
L 184.001809 52.765901 
z
" clip-path="url(#p8b923eb632)" style="fill: #59595c"/>
   </g>
   <g id="patch_152">
    <path d="M 184.006768 68.325029 
L 184.190265 68.325029 
L 184.190265 52.765901 
L 184.006768 52.765901 
z
" clip-path="url(#p8b923eb632)" style="fill: #91d1bc"/>
   </g>
   <g id="patch_153">
    <path d="M 184.190265 68.325029 
L 186.506298 68.325029 
L 186.506298 52.765901 
L 184.190265 52.765901 
z
" clip-path="url(#p8b923eb632)" style="fill: #59595c"/>
   </g>
   <g id="patch_154">
    <path d="M 186.506298 68.325029 
L 188.673549 68.325029 
L 188.673549 52.765901 
L 186.506298 52.765901 
z
" clip-path="url(#p8b923eb632)" style="fill: #f49f7b"/>
   </g>
   <g id="patch_155">
    <path d="M 188.673549 68.325029 
L 190.315105 68.325029 
L 190.315105 52.765901 
L 188.673549 52.765901 
z
" clip-path="url(#p8b923eb632)" style="fill: #59595c"/>
   </g>
   <g id="patch_156">
    <path d="M 190.315105 68.325029 
L 190.513481 68.325029 
L 190.513481 52.765901 
L 190.315105 52.765901 
z
" clip-path="url(#p8b923eb632)" style="fill: #f49f7b"/>
   </g>
   <g id="patch_157">
    <path d="M 190.513481 68.325029 
L 200.1942 68.325029 
L 200.1942 52.765901 
L 190.513481 52.765901 
z
" clip-path="url(#p8b923eb632)" style="fill: #59595c"/>
   </g>
   <g id="patch_158">
    <path d="M 200.1942 68.325029 
L 201.205914 68.325029 
L 201.205914 52.765901 
L 200.1942 52.765901 
z
" clip-path="url(#p8b923eb632)" style="fill: #f49f7b"/>
   </g>
   <g id="patch_159">
    <path d="M 201.205914 68.325029 
L 202.857389 68.325029 
L 202.857389 52.765901 
L 201.205914 52.765901 
z
" clip-path="url(#p8b923eb632)" style="fill: #59595c"/>
   </g>
   <g id="patch_160">
    <path d="M 202.857389 68.325029 
L 205.540416 68.325029 
L 205.540416 52.765901 
L 202.857389 52.765901 
z
" clip-path="url(#p8b923eb632)" style="fill: #f49f7b"/>
   </g>
   <g id="patch_161">
    <path d="M 205.540416 68.325029 
L 208.605316 68.325029 
L 208.605316 52.765901 
L 205.540416 52.765901 
z
" clip-path="url(#p8b923eb632)" style="fill: #59595c"/>
   </g>
   <g id="patch_162">
    <path d="M 208.605316 68.325029 
L 209.671584 68.325029 
L 209.671584 52.765901 
L 208.605316 52.765901 
z
" clip-path="url(#p8b923eb632)" style="fill: #f49f7b"/>
   </g>
   <g id="patch_163">
    <path d="M 209.671584 68.325029 
L 210.033619 68.325029 
L 210.033619 52.765901 
L 209.671584 52.765901 
z
" clip-path="url(#p8b923eb632)" style="fill: #59595c"/>
   </g>
   <g id="patch_164">
    <path d="M 210.033619 68.325029 
L 211.144521 68.325029 
L 211.144521 52.765901 
L 210.033619 52.765901 
z
" clip-path="url(#p8b923eb632)" style="fill: #f49f7b"/>
   </g>
   <g id="patch_165">
    <path d="M 211.144521 68.325029 
L 212.255423 68.325029 
L 212.255423 52.765901 
L 211.144521 52.765901 
z
" clip-path="url(#p8b923eb632)" style="fill: #59595c"/>
   </g>
   <g id="patch_166">
    <path d="M 212.255423 68.325029 
L 214.442512 68.325029 
L 214.442512 52.765901 
L 212.255423 52.765901 
z
" clip-path="url(#p8b923eb632)" style="fill: #f49f7b"/>
   </g>
   <g id="patch_167">
    <path d="M 214.442512 68.325029 
L 214.606171 68.325029 
L 214.606171 52.765901 
L 214.442512 52.765901 
z
" clip-path="url(#p8b923eb632)" style="fill: #59595c"/>
   </g>
   <g id="patch_168">
    <path d="M 214.606171 68.325029 
L 215.255851 68.325029 
L 215.255851 52.765901 
L 214.606171 52.765901 
z
" clip-path="url(#p8b923eb632)" style="fill: #f49f7b"/>
   </g>
   <g id="patch_169">
    <path d="M 215.255851 68.325029 
L 215.563333 68.325029 
L 215.563333 52.765901 
L 215.255851 52.765901 
z
" clip-path="url(#p8b923eb632)" style="fill: #59595c"/>
   </g>
   <g id="patch_170">
    <path d="M 215.563333 68.325029 
L 216.30724 68.325029 
L 216.30724 52.765901 
L 215.563333 52.765901 
z
" clip-path="url(#p8b923eb632)" style="fill: #f49f7b"/>
   </g>
   <g id="patch_171">
    <path d="M 216.30724 68.325029 
L 216.937082 68.325029 
L 216.937082 52.765901 
L 216.30724 52.765901 
z
" clip-path="url(#p8b923eb632)" style="fill: #59595c"/>
   </g>
   <g id="patch_172">
    <path d="M 216.937082 68.325029 
L 217.11562 68.325029 
L 217.11562 52.765901 
L 216.937082 52.765901 
z
" clip-path="url(#p8b923eb632)" style="fill: #f49f7b"/>
   </g>
   <g id="patch_173">
    <path d="M 217.11562 68.325029 
L 217.809934 68.325029 
L 217.809934 52.765901 
L 217.11562 52.765901 
z
" clip-path="url(#p8b923eb632)" style="fill: #59595c"/>
   </g>
   <g id="patch_174">
    <path d="M 217.809934 68.325029 
L 218.692704 68.325029 
L 218.692704 52.765901 
L 217.809934 52.765901 
z
" clip-path="url(#p8b923eb632)" style="fill: #f49f7b"/>
   </g>
   <g id="patch_175">
    <path d="M 218.692704 68.325029 
L 219.28783 68.325029 
L 219.28783 52.765901 
L 218.692704 52.765901 
z
" clip-path="url(#p8b923eb632)" style="fill: #59595c"/>
   </g>
   <g id="patch_176">
    <path d="M 219.28783 68.325029 
L 220.289626 68.325029 
L 220.289626 52.765901 
L 219.28783 52.765901 
z
" clip-path="url(#p8b923eb632)" style="fill: #f49f7b"/>
   </g>
   <g id="patch_177">
    <path d="M 220.289626 68.325029 
L 223.488429 68.325029 
L 223.488429 52.765901 
L 220.289626 52.765901 
z
" clip-path="url(#p8b923eb632)" style="fill: #59595c"/>
   </g>
   <g id="patch_178">
    <path d="M 223.488429 68.325029 
L 224.157946 68.325029 
L 224.157946 52.765901 
L 223.488429 52.765901 
z
" clip-path="url(#p8b923eb632)" style="fill: #f49f7b"/>
   </g>
   <g id="patch_179">
    <path d="M 224.157946 68.325029 
L 224.232337 68.325029 
L 224.232337 52.765901 
L 224.157946 52.765901 
z
" clip-path="url(#p8b923eb632)" style="fill: #59595c"/>
   </g>
   <g id="patch_180">
    <path d="M 224.232337 68.325029 
L 226.538451 68.325029 
L 226.538451 52.765901 
L 224.232337 52.765901 
z
" clip-path="url(#p8b923eb632)" style="fill: #f49f7b"/>
   </g>
   <g id="patch_181">
    <path d="M 226.538451 68.325029 
L 228.601555 68.325029 
L 228.601555 52.765901 
L 226.538451 52.765901 
z
" clip-path="url(#p8b923eb632)" style="fill: #59595c"/>
   </g>
   <g id="patch_182">
    <path d="M 228.601555 68.325029 
L 235.743069 68.325029 
L 235.743069 52.765901 
L 228.601555 52.765901 
z
" clip-path="url(#p8b923eb632)" style="fill: #f49f7b"/>
   </g>
   <g id="patch_183">
    <path d="M 235.743069 68.325029 
L 239.338622 68.325029 
L 239.338622 52.765901 
L 235.743069 52.765901 
z
" clip-path="url(#p8b923eb632)" style="fill: #59595c"/>
   </g>
   <g id="patch_184">
    <path d="M 239.338622 68.325029 
L 239.551876 68.325029 
L 239.551876 52.765901 
L 239.338622 52.765901 
z
" clip-path="url(#p8b923eb632)" style="fill: #f49f7b"/>
   </g>
   <g id="patch_185">
    <path d="M 239.551876 68.325029 
L 239.631226 68.325029 
L 239.631226 52.765901 
L 239.551876 52.765901 
z
" clip-path="url(#p8b923eb632)" style="fill: #59595c"/>
   </g>
   <g id="patch_186">
    <path d="M 239.631226 68.325029 
L 240.112286 68.325029 
L 240.112286 52.765901 
L 239.631226 52.765901 
z
" clip-path="url(#p8b923eb632)" style="fill: #f49f7b"/>
   </g>
   <g id="patch_187">
    <path d="M 240.112286 68.325029 
L 245.503138 68.325029 
L 245.503138 52.765901 
L 240.112286 52.765901 
z
" clip-path="url(#p8b923eb632)" style="fill: #59595c"/>
   </g>
   <g id="patch_188">
    <path d="M 245.503138 68.325029 
L 246.346233 68.325029 
L 246.346233 52.765901 
L 245.503138 52.765901 
z
" clip-path="url(#p8b923eb632)" style="fill: #f49f7b"/>
   </g>
   <g id="patch_189">
    <path d="M 246.346233 68.325029 
L 248.915194 68.325029 
L 248.915194 52.765901 
L 246.346233 52.765901 
z
" clip-path="url(#p8b923eb632)" style="fill: #59595c"/>
   </g>
   <g id="patch_190">
    <path d="M 248.915194 68.325029 
L 250.343497 68.325029 
L 250.343497 52.765901 
L 248.915194 52.765901 
z
" clip-path="url(#p8b923eb632)" style="fill: #f49f7b"/>
   </g>
   <g id="patch_191">
    <path d="M 250.343497 68.325029 
L 250.819598 68.325029 
L 250.819598 52.765901 
L 250.343497 52.765901 
z
" clip-path="url(#p8b923eb632)" style="fill: #59595c"/>
   </g>
   <g id="patch_192">
    <path d="M 250.819598 68.325029 
L 251.627978 68.325029 
L 251.627978 52.765901 
L 250.819598 52.765901 
z
" clip-path="url(#p8b923eb632)" style="fill: #f49f7b"/>
   </g>
   <g id="patch_193">
    <path d="M 251.627978 68.325029 
L 253.011646 68.325029 
L 253.011646 52.765901 
L 251.627978 52.765901 
z
" clip-path="url(#p8b923eb632)" style="fill: #59595c"/>
   </g>
   <g id="patch_194">
    <path d="M 253.011646 68.325029 
L 253.200103 68.325029 
L 253.200103 52.765901 
L 253.011646 52.765901 
z
" clip-path="url(#p8b923eb632)" style="fill: #f49f7b"/>
   </g>
   <g id="patch_195">
    <path d="M 253.200103 68.325029 
L 258.650466 68.325029 
L 258.650466 52.765901 
L 253.200103 52.765901 
z
" clip-path="url(#p8b923eb632)" style="fill: #59595c"/>
   </g>
   <g id="patch_196">
    <path d="M 258.650466 68.325029 
L 259.032339 68.325029 
L 259.032339 52.765901 
L 258.650466 52.765901 
z
" clip-path="url(#p8b923eb632)" style="fill: #f49f7b"/>
   </g>
   <g id="patch_197">
    <path d="M 259.032339 68.325029 
L 262.910578 68.325029 
L 262.910578 52.765901 
L 259.032339 52.765901 
z
" clip-path="url(#p8b923eb632)" style="fill: #59595c"/>
   </g>
   <g id="patch_198">
    <path d="M 262.910578 68.325029 
L 263.485866 68.325029 
L 263.485866 52.765901 
L 262.910578 52.765901 
z
" clip-path="url(#p8b923eb632)" style="fill: #f49f7b"/>
   </g>
   <g id="patch_199">
    <path d="M 263.485866 68.325029 
L 271.768039 68.325029 
L 271.768039 52.765901 
L 263.485866 52.765901 
z
" clip-path="url(#p8b923eb632)" style="fill: #59595c"/>
   </g>
   <g id="patch_200">
    <path d="M 271.768039 68.325029 
L 272.24414 68.325029 
L 272.24414 52.765901 
L 271.768039 52.765901 
z
" clip-path="url(#p8b923eb632)" style="fill: #91d1bc"/>
   </g>
   <g id="patch_201">
    <path d="M 272.24414 68.325029 
L 273.662524 68.325029 
L 273.662524 52.765901 
L 272.24414 52.765901 
z
" clip-path="url(#p8b923eb632)" style="fill: #59595c"/>
   </g>
   <g id="patch_202">
    <path d="M 273.662524 68.325029 
L 273.672442 68.325029 
L 273.672442 52.765901 
L 273.662524 52.765901 
z
" clip-path="url(#p8b923eb632)" style="fill: #91d1bc"/>
   </g>
   <g id="patch_203">
    <path d="M 273.672442 68.325029 
L 273.989843 68.325029 
L 273.989843 52.765901 
L 273.672442 52.765901 
z
" clip-path="url(#p8b923eb632)" style="fill: #59595c"/>
   </g>
   <g id="patch_204">
    <path d="M 273.989843 68.325029 
L 274.89741 68.325029 
L 274.89741 52.765901 
L 273.989843 52.765901 
z
" clip-path="url(#p8b923eb632)" style="fill: #91d1bc"/>
   </g>
   <g id="patch_205">
    <path d="M 274.89741 68.325029 
L 274.922207 68.325029 
L 274.922207 52.765901 
L 274.89741 52.765901 
z
" clip-path="url(#p8b923eb632)" style="fill: #59595c"/>
   </g>
   <g id="patch_206">
    <path d="M 274.922207 68.325029 
L 274.927167 68.325029 
L 274.927167 52.765901 
L 274.922207 52.765901 
z
" clip-path="url(#p8b923eb632)" style="fill: #91d1bc"/>
   </g>
   <g id="patch_207">
    <path d="M 274.927167 68.325029 
L 274.932126 68.325029 
L 274.932126 52.765901 
L 274.927167 52.765901 
z
" clip-path="url(#p8b923eb632)" style="fill: #59595c"/>
   </g>
   <g id="patch_208">
    <path d="M 274.932126 68.325029 
L 274.937085 68.325029 
L 274.937085 52.765901 
L 274.932126 52.765901 
z
" clip-path="url(#p8b923eb632)" style="fill: #91d1bc"/>
   </g>
   <g id="patch_209">
    <path d="M 274.937085 68.325029 
L 275.259445 68.325029 
L 275.259445 52.765901 
L 274.937085 52.765901 
z
" clip-path="url(#p8b923eb632)" style="fill: #59595c"/>
   </g>
   <g id="patch_210">
    <path d="M 275.259445 68.325029 
L 275.576846 68.325029 
L 275.576846 52.765901 
L 275.259445 52.765901 
z
" clip-path="url(#p8b923eb632)" style="fill: #91d1bc"/>
   </g>
   <g id="patch_211">
    <path d="M 275.576846 68.325029 
L 275.591724 68.325029 
L 275.591724 52.765901 
L 275.576846 52.765901 
z
" clip-path="url(#p8b923eb632)" style="fill: #59595c"/>
   </g>
   <g id="patch_212">
    <path d="M 275.591724 68.325029 
L 275.601643 68.325029 
L 275.601643 52.765901 
L 275.591724 52.765901 
z
" clip-path="url(#p8b923eb632)" style="fill: #91d1bc"/>
   </g>
   <g id="patch_213">
    <path d="M 275.601643 68.325029 
L 275.606602 68.325029 
L 275.606602 52.765901 
L 275.601643 52.765901 
z
" clip-path="url(#p8b923eb632)" style="fill: #59595c"/>
   </g>
   <g id="patch_214">
    <path d="M 275.606602 68.325029 
L 275.611562 68.325029 
L 275.611562 52.765901 
L 275.606602 52.765901 
z
" clip-path="url(#p8b923eb632)" style="fill: #91d1bc"/>
   </g>
   <g id="patch_215">
    <path d="M 275.611562 68.325029 
L 275.62148 68.325029 
L 275.62148 52.765901 
L 275.611562 52.765901 
z
" clip-path="url(#p8b923eb632)" style="fill: #59595c"/>
   </g>
   <g id="patch_216">
    <path d="M 275.62148 68.325029 
L 275.62644 68.325029 
L 275.62644 52.765901 
L 275.62148 52.765901 
z
" clip-path="url(#p8b923eb632)" style="fill: #91d1bc"/>
   </g>
   <g id="patch_217">
    <path d="M 275.62644 68.325029 
L 275.735546 68.325029 
L 275.735546 52.765901 
L 275.62644 52.765901 
z
" clip-path="url(#p8b923eb632)" style="fill: #59595c"/>
   </g>
   <g id="patch_218">
    <path d="M 275.735546 68.325029 
L 279.345978 68.325029 
L 279.345978 52.765901 
L 275.735546 52.765901 
z
" clip-path="url(#p8b923eb632)" style="fill: #91d1bc"/>
   </g>
   <g id="patch_219">
    <path d="M 279.345978 68.325029 
L 279.355897 68.325029 
L 279.355897 52.765901 
L 279.345978 52.765901 
z
" clip-path="url(#p8b923eb632)" style="fill: #59595c"/>
   </g>
   <g id="patch_220">
    <path d="M 279.355897 68.325029 
L 279.370775 68.325029 
L 279.370775 52.765901 
L 279.355897 52.765901 
z
" clip-path="url(#p8b923eb632)" style="fill: #91d1bc"/>
   </g>
   <g id="patch_221">
    <path d="M 279.370775 68.325029 
L 279.375735 68.325029 
L 279.375735 52.765901 
L 279.370775 52.765901 
z
" clip-path="url(#p8b923eb632)" style="fill: #59595c"/>
   </g>
   <g id="patch_222">
    <path d="M 279.375735 68.325029 
L 279.380694 68.325029 
L 279.380694 52.765901 
L 279.375735 52.765901 
z
" clip-path="url(#p8b923eb632)" style="fill: #91d1bc"/>
   </g>
   <g id="patch_223">
    <path d="M 279.380694 68.325029 
L 279.385653 68.325029 
L 279.385653 52.765901 
L 279.380694 52.765901 
z
" clip-path="url(#p8b923eb632)" style="fill: #59595c"/>
   </g>
   <g id="patch_224">
    <path d="M 279.385653 68.325029 
L 294.715111 68.325029 
L 294.715111 52.765901 
L 279.385653 52.765901 
z
" clip-path="url(#p8b923eb632)" style="fill: #91d1bc"/>
   </g>
   <g id="patch_225">
    <path d="M 294.715111 68.325029 
L 300.492794 68.325029 
L 300.492794 52.765901 
L 294.715111 52.765901 
z
" clip-path="url(#p8b923eb632)" style="fill: #59595c"/>
   </g>
   <g id="patch_226">
    <path d="M 300.492794 68.325029 
L 300.810195 68.325029 
L 300.810195 52.765901 
L 300.492794 52.765901 
z
" clip-path="url(#p8b923eb632)" style="fill: #f49f7b"/>
   </g>
   <g id="patch_227">
    <path d="M 300.810195 68.325029 
L 306.206005 68.325029 
L 306.206005 52.765901 
L 300.810195 52.765901 
z
" clip-path="url(#p8b923eb632)" style="fill: #59595c"/>
   </g>
   <g id="patch_228">
    <path d="M 306.206005 68.325029 
L 306.235762 68.325029 
L 306.235762 52.765901 
L 306.206005 52.765901 
z
" clip-path="url(#p8b923eb632)" style="fill: #f49f7b"/>
   </g>
   <g id="patch_229">
    <path d="M 306.235762 68.325029 
L 306.40934 68.325029 
L 306.40934 52.765901 
L 306.235762 52.765901 
z
" clip-path="url(#p8b923eb632)" style="fill: #59595c"/>
   </g>
   <g id="patch_230">
    <path d="M 306.40934 68.325029 
L 306.830888 68.325029 
L 306.830888 52.765901 
L 306.40934 52.765901 
z
" clip-path="url(#p8b923eb632)" style="fill: #f49f7b"/>
   </g>
   <g id="patch_231">
    <path d="M 306.830888 68.325029 
L 307.966587 68.325029 
L 307.966587 52.765901 
L 306.830888 52.765901 
z
" clip-path="url(#p8b923eb632)" style="fill: #59595c"/>
   </g>
   <g id="patch_232">
    <path d="M 307.966587 68.325029 
L 308.313744 68.325029 
L 308.313744 52.765901 
L 307.966587 52.765901 
z
" clip-path="url(#p8b923eb632)" style="fill: #f49f7b"/>
   </g>
   <g id="patch_233">
    <path d="M 308.313744 68.325029 
L 309.697412 68.325029 
L 309.697412 52.765901 
L 308.313744 52.765901 
z
" clip-path="url(#p8b923eb632)" style="fill: #59595c"/>
   </g>
   <g id="patch_234">
    <path d="M 309.697412 68.325029 
L 309.87595 68.325029 
L 309.87595 52.765901 
L 309.697412 52.765901 
z
" clip-path="url(#p8b923eb632)" style="fill: #f49f7b"/>
   </g>
   <g id="patch_235">
    <path d="M 309.87595 68.325029 
L 310.490914 68.325029 
L 310.490914 52.765901 
L 309.87595 52.765901 
z
" clip-path="url(#p8b923eb632)" style="fill: #59595c"/>
   </g>
   <g id="patch_236">
    <path d="M 310.490914 68.325029 
L 310.952137 68.325029 
L 310.952137 52.765901 
L 310.490914 52.765901 
z
" clip-path="url(#p8b923eb632)" style="fill: #f49f7b"/>
   </g>
   <g id="patch_237">
    <path d="M 310.952137 68.325029 
L 313.168981 68.325029 
L 313.168981 52.765901 
L 310.952137 52.765901 
z
" clip-path="url(#p8b923eb632)" style="fill: #59595c"/>
   </g>
   <g id="patch_238">
    <path d="M 313.168981 68.325029 
L 313.188819 68.325029 
L 313.188819 52.765901 
L 313.168981 52.765901 
z
" clip-path="url(#p8b923eb632)" style="fill: #f49f7b"/>
   </g>
   <g id="patch_239">
    <path d="M 313.188819 68.325029 
L 313.213616 68.325029 
L 313.213616 52.765901 
L 313.188819 52.765901 
z
" clip-path="url(#p8b923eb632)" style="fill: #59595c"/>
   </g>
   <g id="patch_240">
    <path d="M 313.213616 68.325029 
L 313.982321 68.325029 
L 313.982321 52.765901 
L 313.213616 52.765901 
z
" clip-path="url(#p8b923eb632)" style="fill: #f49f7b"/>
   </g>
   <g id="patch_241">
    <path d="M 313.982321 68.325029 
L 315.787537 68.325029 
L 315.787537 52.765901 
L 313.982321 52.765901 
z
" clip-path="url(#p8b923eb632)" style="fill: #59595c"/>
   </g>
   <g id="patch_242">
    <path d="M 315.787537 68.325029 
L 316.997626 68.325029 
L 316.997626 52.765901 
L 315.787537 52.765901 
z
" clip-path="url(#p8b923eb632)" style="fill: #f49f7b"/>
   </g>
   <g id="patch_243">
    <path d="M 316.997626 68.325029 
L 320.603099 68.325029 
L 320.603099 52.765901 
L 316.997626 52.765901 
z
" clip-path="url(#p8b923eb632)" style="fill: #59595c"/>
   </g>
   <g id="patch_244">
    <path d="M 320.603099 68.325029 
L 321.183347 68.325029 
L 321.183347 52.765901 
L 320.603099 52.765901 
z
" clip-path="url(#p8b923eb632)" style="fill: #f49f7b"/>
   </g>
   <g id="patch_245">
    <path d="M 321.183347 68.325029 
L 322.120671 68.325029 
L 322.120671 52.765901 
L 321.183347 52.765901 
z
" clip-path="url(#p8b923eb632)" style="fill: #59595c"/>
   </g>
   <g id="patch_246">
    <path d="M 322.120671 68.325029 
L 323.186938 68.325029 
L 323.186938 52.765901 
L 322.120671 52.765901 
z
" clip-path="url(#p8b923eb632)" style="fill: #f49f7b"/>
   </g>
   <g id="patch_247">
    <path d="M 323.186938 68.325029 
L 327.471847 68.325029 
L 327.471847 52.765901 
L 323.186938 52.765901 
z
" clip-path="url(#p8b923eb632)" style="fill: #59595c"/>
   </g>
   <g id="patch_248">
    <path d="M 327.471847 68.325029 
L 327.590872 68.325029 
L 327.590872 52.765901 
L 327.471847 52.765901 
z
" clip-path="url(#p8b923eb632)" style="fill: #f49f7b"/>
   </g>
   <g id="patch_249">
    <path d="M 327.590872 68.325029 
L 327.630547 68.325029 
L 327.630547 52.765901 
L 327.590872 52.765901 
z
" clip-path="url(#p8b923eb632)" style="fill: #59595c"/>
   </g>
   <g id="patch_250">
    <path d="M 327.630547 68.325029 
L 327.789247 68.325029 
L 327.789247 52.765901 
L 327.630547 52.765901 
z
" clip-path="url(#p8b923eb632)" style="fill: #f49f7b"/>
   </g>
   <g id="patch_251">
    <path d="M 327.789247 68.325029 
L 329.37625 68.325029 
L 329.37625 52.765901 
L 327.789247 52.765901 
z
" clip-path="url(#p8b923eb632)" style="fill: #59595c"/>
   </g>
   <g id="patch_252">
    <path d="M 329.37625 68.325029 
L 329.852351 68.325029 
L 329.852351 52.765901 
L 329.37625 52.765901 
z
" clip-path="url(#p8b923eb632)" style="fill: #f49f7b"/>
   </g>
   <g id="patch_253">
    <path d="M 329.852351 68.325029 
L 330.75 68.325029 
L 330.75 52.765901 
L 329.852351 52.765901 
z
" clip-path="url(#p8b923eb632)" style="fill: #59595c"/>
   </g>
   <g id="matplotlib.axis_5"/>
   <g id="matplotlib.axis_6"/>
   <g id="text_4">
    <text style="font: 9px 'Arial'; text-anchor: end" x="42.51975" y="62.872106" transform="rotate(-0 42.51975 62.872106)">prediction</text>
   </g>
  </g>
  <g id="axes_4">
   <g id="matplotlib.axis_7"/>
   <g id="matplotlib.axis_8"/>
   <g id="text_5">
    <text style="font: 9px 'Arial'; text-anchor: start" x="45.9375" y="78.024752" transform="rotate(-0 45.9375 78.024752)">0</text>
   </g>
   <g id="text_6">
    <text style="font: 9px 'Arial'; text-anchor: end" x="330.75" y="78.024752" transform="rotate(-0 330.75 78.024752)">57429</text>
   </g>
  </g>
  <g id="axes_5">
   <g id="matplotlib.axis_9"/>
   <g id="matplotlib.axis_10"/>
   <g id="text_7">
    <text style="font: italic 10px 'Arial'; text-anchor: start" x="45.9375" y="90.996056" transform="rotate(-0 45.9375 90.996056)">Example video 2: accuracy </text>
   </g>
   <g id="text_8">
    <text style="font: italic 700 10px 'Arial'; text-anchor: start" x="167.859375" y="91.044494" transform="rotate(-0 167.859375 91.044494)">94.4%</text>
   </g>
  </g>
  <g id="axes_6">
   <g id="patch_254">
    <path d="M 45.9375 113.106142 
L 49.464683 113.106142 
L 49.464683 97.547015 
L 45.9375 97.547015 
z
" clip-path="url(#pbd39715f4e)" style="fill: #59595c"/>
   </g>
   <g id="patch_255">
    <path d="M 49.464683 113.106142 
L 49.881715 113.106142 
L 49.881715 97.547015 
L 49.464683 97.547015 
z
" clip-path="url(#pbd39715f4e)" style="fill: #f49f7b"/>
   </g>
   <g id="patch_256">
    <path d="M 49.881715 113.106142 
L 52.358782 113.106142 
L 52.358782 97.547015 
L 49.881715 97.547015 
z
" clip-path="url(#pbd39715f4e)" style="fill: #59595c"/>
   </g>
   <g id="patch_257">
    <path d="M 52.358782 113.106142 
L 52.886352 113.106142 
L 52.886352 97.547015 
L 52.358782 97.547015 
z
" clip-path="url(#pbd39715f4e)" style="fill: #f49f7b"/>
   </g>
   <g id="patch_258">
    <path d="M 52.886352 113.106142 
L 57.704826 113.106142 
L 57.704826 97.547015 
L 52.886352 97.547015 
z
" clip-path="url(#pbd39715f4e)" style="fill: #59595c"/>
   </g>
   <g id="patch_259">
    <path d="M 57.704826 113.106142 
L 57.930927 113.106142 
L 57.930927 97.547015 
L 57.704826 97.547015 
z
" clip-path="url(#pbd39715f4e)" style="fill: #f49f7b"/>
   </g>
   <g id="patch_260">
    <path d="M 57.930927 113.106142 
L 59.654323 113.106142 
L 59.654323 97.547015 
L 57.930927 97.547015 
z
" clip-path="url(#pbd39715f4e)" style="fill: #59595c"/>
   </g>
   <g id="patch_261">
    <path d="M 59.654323 113.106142 
L 59.995988 113.106142 
L 59.995988 97.547015 
L 59.654323 97.547015 
z
" clip-path="url(#pbd39715f4e)" style="fill: #f49f7b"/>
   </g>
   <g id="patch_262">
    <path d="M 59.995988 113.106142 
L 60.297456 113.106142 
L 60.297456 97.547015 
L 59.995988 97.547015 
z
" clip-path="url(#pbd39715f4e)" style="fill: #59595c"/>
   </g>
   <g id="patch_263">
    <path d="M 60.297456 113.106142 
L 60.860198 113.106142 
L 60.860198 97.547015 
L 60.297456 97.547015 
z
" clip-path="url(#pbd39715f4e)" style="fill: #f49f7b"/>
   </g>
   <g id="patch_264">
    <path d="M 60.860198 113.106142 
L 64.367283 113.106142 
L 64.367283 97.547015 
L 60.860198 97.547015 
z
" clip-path="url(#pbd39715f4e)" style="fill: #59595c"/>
   </g>
   <g id="patch_265">
    <path d="M 64.367283 113.106142 
L 66.779032 113.106142 
L 66.779032 97.547015 
L 64.367283 97.547015 
z
" clip-path="url(#pbd39715f4e)" style="fill: #f49f7b"/>
   </g>
   <g id="patch_266">
    <path d="M 66.779032 113.106142 
L 81.736901 113.106142 
L 81.736901 97.547015 
L 66.779032 97.547015 
z
" clip-path="url(#pbd39715f4e)" style="fill: #59595c"/>
   </g>
   <g id="patch_267">
    <path d="M 81.736901 113.106142 
L 82.415206 113.106142 
L 82.415206 97.547015 
L 81.736901 97.547015 
z
" clip-path="url(#pbd39715f4e)" style="fill: #f49f7b"/>
   </g>
   <g id="patch_268">
    <path d="M 82.415206 113.106142 
L 83.435175 113.106142 
L 83.435175 97.547015 
L 82.415206 97.547015 
z
" clip-path="url(#pbd39715f4e)" style="fill: #59595c"/>
   </g>
   <g id="patch_269">
    <path d="M 83.435175 113.106142 
L 85.203791 113.106142 
L 85.203791 97.547015 
L 83.435175 97.547015 
z
" clip-path="url(#pbd39715f4e)" style="fill: #f49f7b"/>
   </g>
   <g id="patch_270">
    <path d="M 85.203791 113.106142 
L 86.75133 113.106142 
L 86.75133 97.547015 
L 85.203791 97.547015 
z
" clip-path="url(#pbd39715f4e)" style="fill: #59595c"/>
   </g>
   <g id="patch_271">
    <path d="M 86.75133 113.106142 
L 87.540173 113.106142 
L 87.540173 97.547015 
L 86.75133 97.547015 
z
" clip-path="url(#pbd39715f4e)" style="fill: #f49f7b"/>
   </g>
   <g id="patch_272">
    <path d="M 87.540173 113.106142 
L 92.705335 113.106142 
L 92.705335 97.547015 
L 87.540173 97.547015 
z
" clip-path="url(#pbd39715f4e)" style="fill: #59595c"/>
   </g>
   <g id="patch_273">
    <path d="M 92.705335 113.106142 
L 93.268077 113.106142 
L 93.268077 97.547015 
L 92.705335 97.547015 
z
" clip-path="url(#pbd39715f4e)" style="fill: #f49f7b"/>
   </g>
   <g id="patch_274">
    <path d="M 93.268077 113.106142 
L 99.48838 113.106142 
L 99.48838 97.547015 
L 93.268077 97.547015 
z
" clip-path="url(#pbd39715f4e)" style="fill: #59595c"/>
   </g>
   <g id="patch_275">
    <path d="M 99.48838 113.106142 
L 99.789849 113.106142 
L 99.789849 97.547015 
L 99.48838 97.547015 
z
" clip-path="url(#pbd39715f4e)" style="fill: #f49f7b"/>
   </g>
   <g id="patch_276">
    <path d="M 99.789849 113.106142 
L 112.109867 113.106142 
L 112.109867 97.547015 
L 99.789849 97.547015 
z
" clip-path="url(#pbd39715f4e)" style="fill: #59595c"/>
   </g>
   <g id="patch_277">
    <path d="M 112.109867 113.106142 
L 112.486703 113.106142 
L 112.486703 97.547015 
L 112.109867 97.547015 
z
" clip-path="url(#pbd39715f4e)" style="fill: #f49f7b"/>
   </g>
   <g id="patch_278">
    <path d="M 112.486703 113.106142 
L 115.350655 113.106142 
L 115.350655 97.547015 
L 112.486703 97.547015 
z
" clip-path="url(#pbd39715f4e)" style="fill: #59595c"/>
   </g>
   <g id="patch_279">
    <path d="M 115.350655 113.106142 
L 115.576756 113.106142 
L 115.576756 97.547015 
L 115.350655 97.547015 
z
" clip-path="url(#pbd39715f4e)" style="fill: #f49f7b"/>
   </g>
   <g id="patch_280">
    <path d="M 115.576756 113.106142 
L 116.21989 113.106142 
L 116.21989 97.547015 
L 115.576756 97.547015 
z
" clip-path="url(#pbd39715f4e)" style="fill: #59595c"/>
   </g>
   <g id="patch_281">
    <path d="M 116.21989 113.106142 
L 116.481162 113.106142 
L 116.481162 97.547015 
L 116.21989 97.547015 
z
" clip-path="url(#pbd39715f4e)" style="fill: #f49f7b"/>
   </g>
   <g id="patch_282">
    <path d="M 116.481162 113.106142 
L 132.609735 113.106142 
L 132.609735 97.547015 
L 116.481162 97.547015 
z
" clip-path="url(#pbd39715f4e)" style="fill: #59595c"/>
   </g>
   <g id="patch_283">
    <path d="M 132.609735 113.106142 
L 134.232641 113.106142 
L 134.232641 97.547015 
L 132.609735 97.547015 
z
" clip-path="url(#pbd39715f4e)" style="fill: #f49f7b"/>
   </g>
   <g id="patch_284">
    <path d="M 134.232641 113.106142 
L 141.724137 113.106142 
L 141.724137 97.547015 
L 134.232641 97.547015 
z
" clip-path="url(#pbd39715f4e)" style="fill: #59595c"/>
   </g>
   <g id="patch_285">
    <path d="M 141.724137 113.106142 
L 142.100972 113.106142 
L 142.100972 97.547015 
L 141.724137 97.547015 
z
" clip-path="url(#pbd39715f4e)" style="fill: #f49f7b"/>
   </g>
   <g id="patch_286">
    <path d="M 142.100972 113.106142 
L 146.668222 113.106142 
L 146.668222 97.547015 
L 142.100972 97.547015 
z
" clip-path="url(#pbd39715f4e)" style="fill: #59595c"/>
   </g>
   <g id="patch_287">
    <path d="M 146.668222 113.106142 
L 147.457065 113.106142 
L 147.457065 97.547015 
L 146.668222 97.547015 
z
" clip-path="url(#pbd39715f4e)" style="fill: #f49f7b"/>
   </g>
   <g id="patch_288">
    <path d="M 147.457065 113.106142 
L 148.642842 113.106142 
L 148.642842 97.547015 
L 147.457065 97.547015 
z
" clip-path="url(#pbd39715f4e)" style="fill: #59595c"/>
   </g>
   <g id="patch_289">
    <path d="M 148.642842 113.106142 
L 149.321146 113.106142 
L 149.321146 97.547015 
L 148.642842 97.547015 
z
" clip-path="url(#pbd39715f4e)" style="fill: #f49f7b"/>
   </g>
   <g id="patch_290">
    <path d="M 149.321146 113.106142 
L 150.979224 113.106142 
L 150.979224 97.547015 
L 149.321146 97.547015 
z
" clip-path="url(#pbd39715f4e)" style="fill: #59595c"/>
   </g>
   <g id="patch_291">
    <path d="M 150.979224 113.106142 
L 151.35606 113.106142 
L 151.35606 97.547015 
L 150.979224 97.547015 
z
" clip-path="url(#pbd39715f4e)" style="fill: #f49f7b"/>
   </g>
   <g id="patch_292">
    <path d="M 151.35606 113.106142 
L 211.87589 113.106142 
L 211.87589 97.547015 
L 151.35606 97.547015 
z
" clip-path="url(#pbd39715f4e)" style="fill: #59595c"/>
   </g>
   <g id="patch_293">
    <path d="M 211.87589 113.106142 
L 212.177358 113.106142 
L 212.177358 97.547015 
L 211.87589 97.547015 
z
" clip-path="url(#pbd39715f4e)" style="fill: #f49f7b"/>
   </g>
   <g id="patch_294">
    <path d="M 212.177358 113.106142 
L 215.076482 113.106142 
L 215.076482 97.547015 
L 212.177358 97.547015 
z
" clip-path="url(#pbd39715f4e)" style="fill: #59595c"/>
   </g>
   <g id="patch_295">
    <path d="M 215.076482 113.106142 
L 215.342779 113.106142 
L 215.342779 97.547015 
L 215.076482 97.547015 
z
" clip-path="url(#pbd39715f4e)" style="fill: #f49f7b"/>
   </g>
   <g id="patch_296">
    <path d="M 215.342779 113.106142 
L 217.829895 113.106142 
L 217.829895 97.547015 
L 215.342779 97.547015 
z
" clip-path="url(#pbd39715f4e)" style="fill: #59595c"/>
   </g>
   <g id="patch_297">
    <path d="M 217.829895 113.106142 
L 220.693848 113.106142 
L 220.693848 97.547015 
L 217.829895 97.547015 
z
" clip-path="url(#pbd39715f4e)" style="fill: #f49f7b"/>
   </g>
   <g id="patch_298">
    <path d="M 220.693848 113.106142 
L 221.407323 113.106142 
L 221.407323 97.547015 
L 220.693848 97.547015 
z
" clip-path="url(#pbd39715f4e)" style="fill: #59595c"/>
   </g>
   <g id="patch_299">
    <path d="M 221.407323 113.106142 
L 222.236362 113.106142 
L 222.236362 97.547015 
L 221.407323 97.547015 
z
" clip-path="url(#pbd39715f4e)" style="fill: #f49f7b"/>
   </g>
   <g id="patch_300">
    <path d="M 222.236362 113.106142 
L 229.773078 113.106142 
L 229.773078 97.547015 
L 222.236362 97.547015 
z
" clip-path="url(#pbd39715f4e)" style="fill: #59595c"/>
   </g>
   <g id="patch_301">
    <path d="M 229.773078 113.106142 
L 230.376015 113.106142 
L 230.376015 97.547015 
L 229.773078 97.547015 
z
" clip-path="url(#pbd39715f4e)" style="fill: #f49f7b"/>
   </g>
   <g id="patch_302">
    <path d="M 230.376015 113.106142 
L 232.375757 113.106142 
L 232.375757 97.547015 
L 230.376015 97.547015 
z
" clip-path="url(#pbd39715f4e)" style="fill: #59595c"/>
   </g>
   <g id="patch_303">
    <path d="M 232.375757 113.106142 
L 233.239968 113.106142 
L 233.239968 97.547015 
L 232.375757 97.547015 
z
" clip-path="url(#pbd39715f4e)" style="fill: #91d1bc"/>
   </g>
   <g id="patch_304">
    <path d="M 233.239968 113.106142 
L 233.415824 113.106142 
L 233.415824 97.547015 
L 233.239968 97.547015 
z
" clip-path="url(#pbd39715f4e)" style="fill: #f49f7b"/>
   </g>
   <g id="patch_305">
    <path d="M 233.415824 113.106142 
L 235.636643 113.106142 
L 235.636643 97.547015 
L 233.415824 97.547015 
z
" clip-path="url(#pbd39715f4e)" style="fill: #59595c"/>
   </g>
   <g id="patch_306">
    <path d="M 235.636643 113.106142 
L 236.053675 113.106142 
L 236.053675 97.547015 
L 235.636643 97.547015 
z
" clip-path="url(#pbd39715f4e)" style="fill: #f49f7b"/>
   </g>
   <g id="patch_307">
    <path d="M 236.053675 113.106142 
L 236.314948 113.106142 
L 236.314948 97.547015 
L 236.053675 97.547015 
z
" clip-path="url(#pbd39715f4e)" style="fill: #59595c"/>
   </g>
   <g id="patch_308">
    <path d="M 236.314948 113.106142 
L 241.48011 113.106142 
L 241.48011 97.547015 
L 236.314948 97.547015 
z
" clip-path="url(#pbd39715f4e)" style="fill: #91d1bc"/>
   </g>
   <g id="patch_309">
    <path d="M 241.48011 113.106142 
L 241.570551 113.106142 
L 241.570551 97.547015 
L 241.48011 97.547015 
z
" clip-path="url(#pbd39715f4e)" style="fill: #59595c"/>
   </g>
   <g id="patch_310">
    <path d="M 241.570551 113.106142 
L 242.098121 113.106142 
L 242.098121 97.547015 
L 241.570551 97.547015 
z
" clip-path="url(#pbd39715f4e)" style="fill: #f49f7b"/>
   </g>
   <g id="patch_311">
    <path d="M 242.098121 113.106142 
L 242.776426 113.106142 
L 242.776426 97.547015 
L 242.098121 97.547015 
z
" clip-path="url(#pbd39715f4e)" style="fill: #59595c"/>
   </g>
   <g id="patch_312">
    <path d="M 242.776426 113.106142 
L 242.92716 113.106142 
L 242.92716 97.547015 
L 242.776426 97.547015 
z
" clip-path="url(#pbd39715f4e)" style="fill: #f49f7b"/>
   </g>
   <g id="patch_313">
    <path d="M 242.92716 113.106142 
L 243.831566 113.106142 
L 243.831566 97.547015 
L 242.92716 97.547015 
z
" clip-path="url(#pbd39715f4e)" style="fill: #59595c"/>
   </g>
   <g id="patch_314">
    <path d="M 243.831566 113.106142 
L 244.31894 113.106142 
L 244.31894 97.547015 
L 243.831566 97.547015 
z
" clip-path="url(#pbd39715f4e)" style="fill: #91d1bc"/>
   </g>
   <g id="patch_315">
    <path d="M 244.31894 113.106142 
L 244.620409 113.106142 
L 244.620409 97.547015 
L 244.31894 97.547015 
z
" clip-path="url(#pbd39715f4e)" style="fill: #59595c"/>
   </g>
   <g id="patch_316">
    <path d="M 244.620409 113.106142 
L 245.072612 113.106142 
L 245.072612 97.547015 
L 244.620409 97.547015 
z
" clip-path="url(#pbd39715f4e)" style="fill: #91d1bc"/>
   </g>
   <g id="patch_317">
    <path d="M 245.072612 113.106142 
L 248.971606 113.106142 
L 248.971606 97.547015 
L 245.072612 97.547015 
z
" clip-path="url(#pbd39715f4e)" style="fill: #59595c"/>
   </g>
   <g id="patch_318">
    <path d="M 248.971606 113.106142 
L 252.890699 113.106142 
L 252.890699 97.547015 
L 248.971606 97.547015 
z
" clip-path="url(#pbd39715f4e)" style="fill: #91d1bc"/>
   </g>
   <g id="patch_319">
    <path d="M 252.890699 113.106142 
L 257.146431 113.106142 
L 257.146431 97.547015 
L 252.890699 97.547015 
z
" clip-path="url(#pbd39715f4e)" style="fill: #59595c"/>
   </g>
   <g id="patch_320">
    <path d="M 257.146431 113.106142 
L 259.523009 113.106142 
L 259.523009 97.547015 
L 257.146431 97.547015 
z
" clip-path="url(#pbd39715f4e)" style="fill: #91d1bc"/>
   </g>
   <g id="patch_321">
    <path d="M 259.523009 113.106142 
L 265.703116 113.106142 
L 265.703116 97.547015 
L 259.523009 97.547015 
z
" clip-path="url(#pbd39715f4e)" style="fill: #59595c"/>
   </g>
   <g id="patch_322">
    <path d="M 265.703116 113.106142 
L 266.90899 113.106142 
L 266.90899 97.547015 
L 265.703116 97.547015 
z
" clip-path="url(#pbd39715f4e)" style="fill: #f49f7b"/>
   </g>
   <g id="patch_323">
    <path d="M 266.90899 113.106142 
L 282.434626 113.106142 
L 282.434626 97.547015 
L 266.90899 97.547015 
z
" clip-path="url(#pbd39715f4e)" style="fill: #59595c"/>
   </g>
   <g id="patch_324">
    <path d="M 282.434626 113.106142 
L 282.771266 113.106142 
L 282.771266 97.547015 
L 282.434626 97.547015 
z
" clip-path="url(#pbd39715f4e)" style="fill: #f49f7b"/>
   </g>
   <g id="patch_325">
    <path d="M 282.771266 113.106142 
L 286.429085 113.106142 
L 286.429085 97.547015 
L 282.771266 97.547015 
z
" clip-path="url(#pbd39715f4e)" style="fill: #59595c"/>
   </g>
   <g id="patch_326">
    <path d="M 286.429085 113.106142 
L 287.745498 113.106142 
L 287.745498 97.547015 
L 286.429085 97.547015 
z
" clip-path="url(#pbd39715f4e)" style="fill: #f49f7b"/>
   </g>
   <g id="patch_327">
    <path d="M 287.745498 113.106142 
L 297.995432 113.106142 
L 297.995432 97.547015 
L 287.745498 97.547015 
z
" clip-path="url(#pbd39715f4e)" style="fill: #59595c"/>
   </g>
   <g id="patch_328">
    <path d="M 297.995432 113.106142 
L 298.713932 113.106142 
L 298.713932 97.547015 
L 297.995432 97.547015 
z
" clip-path="url(#pbd39715f4e)" style="fill: #f49f7b"/>
   </g>
   <g id="patch_329">
    <path d="M 298.713932 113.106142 
L 309.752709 113.106142 
L 309.752709 97.547015 
L 298.713932 97.547015 
z
" clip-path="url(#pbd39715f4e)" style="fill: #59595c"/>
   </g>
   <g id="patch_330">
    <path d="M 309.752709 113.106142 
L 311.410787 113.106142 
L 311.410787 97.547015 
L 309.752709 97.547015 
z
" clip-path="url(#pbd39715f4e)" style="fill: #f49f7b"/>
   </g>
   <g id="patch_331">
    <path d="M 311.410787 113.106142 
L 315.520809 113.106142 
L 315.520809 97.547015 
L 311.410787 97.547015 
z
" clip-path="url(#pbd39715f4e)" style="fill: #59595c"/>
   </g>
   <g id="patch_332">
    <path d="M 315.520809 113.106142 
L 317.515527 113.106142 
L 317.515527 97.547015 
L 315.520809 97.547015 
z
" clip-path="url(#pbd39715f4e)" style="fill: #f49f7b"/>
   </g>
   <g id="patch_333">
    <path d="M 317.515527 113.106142 
L 324.901508 113.106142 
L 324.901508 97.547015 
L 317.515527 97.547015 
z
" clip-path="url(#pbd39715f4e)" style="fill: #59595c"/>
   </g>
   <g id="patch_334">
    <path d="M 324.901508 113.106142 
L 327.579555 113.106142 
L 327.579555 97.547015 
L 324.901508 97.547015 
z
" clip-path="url(#pbd39715f4e)" style="fill: #f49f7b"/>
   </g>
   <g id="patch_335">
    <path d="M 327.579555 113.106142 
L 329.463734 113.106142 
L 329.463734 97.547015 
L 327.579555 97.547015 
z
" clip-path="url(#pbd39715f4e)" style="fill: #59595c"/>
   </g>
   <g id="patch_336">
    <path d="M 329.463734 113.106142 
L 329.765202 113.106142 
L 329.765202 97.547015 
L 329.463734 97.547015 
z
" clip-path="url(#pbd39715f4e)" style="fill: #f49f7b"/>
   </g>
   <g id="patch_337">
    <path d="M 329.765202 113.106142 
L 330.75 113.106142 
L 330.75 97.547015 
L 329.765202 97.547015 
z
" clip-path="url(#pbd39715f4e)" style="fill: #59595c"/>
   </g>
   <g id="matplotlib.axis_11"/>
   <g id="matplotlib.axis_12"/>
   <g id="text_9">
    <text style="font: 9px 'Arial'; text-anchor: end" x="42.51975" y="107.653219" transform="rotate(-0 42.51975 107.653219)">labels</text>
   </g>
  </g>
  <g id="axes_7">
   <g id="patch_338">
    <path d="M 45.9375 131.922962 
L 45.987745 131.922962 
L 45.987745 116.363835 
L 45.9375 116.363835 
z
" clip-path="url(#p8b21602597)" style="fill: #f49f7b"/>
   </g>
   <g id="patch_339">
    <path d="M 45.987745 131.922962 
L 49.409414 131.922962 
L 49.409414 116.363835 
L 45.987745 116.363835 
z
" clip-path="url(#p8b21602597)" style="fill: #59595c"/>
   </g>
   <g id="patch_340">
    <path d="M 49.409414 131.922962 
L 49.947033 131.922962 
L 49.947033 116.363835 
L 49.409414 116.363835 
z
" clip-path="url(#p8b21602597)" style="fill: #f49f7b"/>
   </g>
   <g id="patch_341">
    <path d="M 49.947033 131.922962 
L 52.459272 131.922962 
L 52.459272 116.363835 
L 49.947033 116.363835 
z
" clip-path="url(#p8b21602597)" style="fill: #59595c"/>
   </g>
   <g id="patch_342">
    <path d="M 52.459272 131.922962 
L 52.936597 131.922962 
L 52.936597 116.363835 
L 52.459272 116.363835 
z
" clip-path="url(#p8b21602597)" style="fill: #f49f7b"/>
   </g>
   <g id="patch_343">
    <path d="M 52.936597 131.922962 
L 60.247212 131.922962 
L 60.247212 116.363835 
L 52.936597 116.363835 
z
" clip-path="url(#p8b21602597)" style="fill: #59595c"/>
   </g>
   <g id="patch_344">
    <path d="M 60.247212 131.922962 
L 60.880296 131.922962 
L 60.880296 116.363835 
L 60.247212 116.363835 
z
" clip-path="url(#p8b21602597)" style="fill: #f49f7b"/>
   </g>
   <g id="patch_345">
    <path d="M 60.880296 131.922962 
L 64.422552 131.922962 
L 64.422552 116.363835 
L 60.880296 116.363835 
z
" clip-path="url(#p8b21602597)" style="fill: #59595c"/>
   </g>
   <g id="patch_346">
    <path d="M 64.422552 131.922962 
L 65.392276 131.922962 
L 65.392276 116.363835 
L 64.422552 116.363835 
z
" clip-path="url(#p8b21602597)" style="fill: #f49f7b"/>
   </g>
   <g id="patch_347">
    <path d="M 65.392276 131.922962 
L 65.55306 131.922962 
L 65.55306 116.363835 
L 65.392276 116.363835 
z
" clip-path="url(#p8b21602597)" style="fill: #59595c"/>
   </g>
   <g id="patch_348">
    <path d="M 65.55306 131.922962 
L 66.839326 131.922962 
L 66.839326 116.363835 
L 65.55306 116.363835 
z
" clip-path="url(#p8b21602597)" style="fill: #f49f7b"/>
   </g>
   <g id="patch_349">
    <path d="M 66.839326 131.922962 
L 81.631387 131.922962 
L 81.631387 116.363835 
L 66.839326 116.363835 
z
" clip-path="url(#p8b21602597)" style="fill: #59595c"/>
   </g>
   <g id="patch_350">
    <path d="M 81.631387 131.922962 
L 82.500622 131.922962 
L 82.500622 116.363835 
L 81.631387 116.363835 
z
" clip-path="url(#p8b21602597)" style="fill: #f49f7b"/>
   </g>
   <g id="patch_351">
    <path d="M 82.500622 131.922962 
L 83.374881 131.922962 
L 83.374881 116.363835 
L 82.500622 116.363835 
z
" clip-path="url(#p8b21602597)" style="fill: #59595c"/>
   </g>
   <g id="patch_352">
    <path d="M 83.374881 131.922962 
L 85.279158 131.922962 
L 85.279158 116.363835 
L 83.374881 116.363835 
z
" clip-path="url(#p8b21602597)" style="fill: #f49f7b"/>
   </g>
   <g id="patch_353">
    <path d="M 85.279158 131.922962 
L 86.786501 131.922962 
L 86.786501 116.363835 
L 85.279158 116.363835 
z
" clip-path="url(#p8b21602597)" style="fill: #59595c"/>
   </g>
   <g id="patch_354">
    <path d="M 86.786501 131.922962 
L 86.937235 131.922962 
L 86.937235 116.363835 
L 86.786501 116.363835 
z
" clip-path="url(#p8b21602597)" style="fill: #f49f7b"/>
   </g>
   <g id="patch_355">
    <path d="M 86.937235 131.922962 
L 87.098019 131.922962 
L 87.098019 116.363835 
L 86.937235 116.363835 
z
" clip-path="url(#p8b21602597)" style="fill: #59595c"/>
   </g>
   <g id="patch_356">
    <path d="M 87.098019 131.922962 
L 87.585393 131.922962 
L 87.585393 116.363835 
L 87.098019 116.363835 
z
" clip-path="url(#p8b21602597)" style="fill: #f49f7b"/>
   </g>
   <g id="patch_357">
    <path d="M 87.585393 131.922962 
L 92.645042 131.922962 
L 92.645042 116.363835 
L 87.585393 116.363835 
z
" clip-path="url(#p8b21602597)" style="fill: #59595c"/>
   </g>
   <g id="patch_358">
    <path d="M 92.645042 131.922962 
L 93.177636 131.922962 
L 93.177636 116.363835 
L 92.645042 116.363835 
z
" clip-path="url(#p8b21602597)" style="fill: #f49f7b"/>
   </g>
   <g id="patch_359">
    <path d="M 93.177636 131.922962 
L 93.52935 131.922962 
L 93.52935 116.363835 
L 93.177636 116.363835 
z
" clip-path="url(#p8b21602597)" style="fill: #59595c"/>
   </g>
   <g id="patch_360">
    <path d="M 93.52935 131.922962 
L 93.584619 131.922962 
L 93.584619 116.363835 
L 93.52935 116.363835 
z
" clip-path="url(#p8b21602597)" style="fill: #f49f7b"/>
   </g>
   <g id="patch_361">
    <path d="M 93.584619 131.922962 
L 99.423062 131.922962 
L 99.423062 116.363835 
L 93.584619 116.363835 
z
" clip-path="url(#p8b21602597)" style="fill: #59595c"/>
   </g>
   <g id="patch_362">
    <path d="M 99.423062 131.922962 
L 99.774775 131.922962 
L 99.774775 116.363835 
L 99.423062 116.363835 
z
" clip-path="url(#p8b21602597)" style="fill: #f49f7b"/>
   </g>
   <g id="patch_363">
    <path d="M 99.774775 131.922962 
L 112.134989 131.922962 
L 112.134989 116.363835 
L 99.774775 116.363835 
z
" clip-path="url(#p8b21602597)" style="fill: #59595c"/>
   </g>
   <g id="patch_364">
    <path d="M 112.134989 131.922962 
L 112.18021 131.922962 
L 112.18021 116.363835 
L 112.134989 116.363835 
z
" clip-path="url(#p8b21602597)" style="fill: #f49f7b"/>
   </g>
   <g id="patch_365">
    <path d="M 112.18021 131.922962 
L 114.270392 131.922962 
L 114.270392 116.363835 
L 112.18021 116.363835 
z
" clip-path="url(#p8b21602597)" style="fill: #59595c"/>
   </g>
   <g id="patch_366">
    <path d="M 114.270392 131.922962 
L 114.632155 131.922962 
L 114.632155 116.363835 
L 114.270392 116.363835 
z
" clip-path="url(#p8b21602597)" style="fill: #f49f7b"/>
   </g>
   <g id="patch_367">
    <path d="M 114.632155 131.922962 
L 115.335582 131.922962 
L 115.335582 116.363835 
L 114.632155 116.363835 
z
" clip-path="url(#p8b21602597)" style="fill: #59595c"/>
   </g>
   <g id="patch_368">
    <path d="M 115.335582 131.922962 
L 115.576756 131.922962 
L 115.576756 116.363835 
L 115.335582 116.363835 
z
" clip-path="url(#p8b21602597)" style="fill: #f49f7b"/>
   </g>
   <g id="patch_369">
    <path d="M 115.576756 131.922962 
L 116.239987 131.922962 
L 116.239987 116.363835 
L 115.576756 116.363835 
z
" clip-path="url(#p8b21602597)" style="fill: #59595c"/>
   </g>
   <g id="patch_370">
    <path d="M 116.239987 131.922962 
L 116.360575 131.922962 
L 116.360575 116.363835 
L 116.239987 116.363835 
z
" clip-path="url(#p8b21602597)" style="fill: #f49f7b"/>
   </g>
   <g id="patch_371">
    <path d="M 116.360575 131.922962 
L 132.740371 131.922962 
L 132.740371 116.363835 
L 116.360575 116.363835 
z
" clip-path="url(#p8b21602597)" style="fill: #59595c"/>
   </g>
   <g id="patch_372">
    <path d="M 132.740371 131.922962 
L 132.75042 131.922962 
L 132.75042 116.363835 
L 132.740371 116.363835 
z
" clip-path="url(#p8b21602597)" style="fill: #f49f7b"/>
   </g>
   <g id="patch_373">
    <path d="M 132.75042 131.922962 
L 132.755445 131.922962 
L 132.755445 116.363835 
L 132.75042 116.363835 
z
" clip-path="url(#p8b21602597)" style="fill: #59595c"/>
   </g>
   <g id="patch_374">
    <path d="M 132.755445 131.922962 
L 134.187421 131.922962 
L 134.187421 116.363835 
L 132.755445 116.363835 
z
" clip-path="url(#p8b21602597)" style="fill: #f49f7b"/>
   </g>
   <g id="patch_375">
    <path d="M 134.187421 131.922962 
L 139.548538 131.922962 
L 139.548538 116.363835 
L 134.187421 116.363835 
z
" clip-path="url(#p8b21602597)" style="fill: #59595c"/>
   </g>
   <g id="patch_376">
    <path d="M 139.548538 131.922962 
L 139.829909 131.922962 
L 139.829909 116.363835 
L 139.548538 116.363835 
z
" clip-path="url(#p8b21602597)" style="fill: #f49f7b"/>
   </g>
   <g id="patch_377">
    <path d="M 139.829909 131.922962 
L 141.724137 131.922962 
L 141.724137 116.363835 
L 139.829909 116.363835 
z
" clip-path="url(#p8b21602597)" style="fill: #59595c"/>
   </g>
   <g id="patch_378">
    <path d="M 141.724137 131.922962 
L 142.181364 131.922962 
L 142.181364 116.363835 
L 141.724137 116.363835 
z
" clip-path="url(#p8b21602597)" style="fill: #f49f7b"/>
   </g>
   <g id="patch_379">
    <path d="M 142.181364 131.922962 
L 146.713443 131.922962 
L 146.713443 116.363835 
L 142.181364 116.363835 
z
" clip-path="url(#p8b21602597)" style="fill: #59595c"/>
   </g>
   <g id="patch_380">
    <path d="M 146.713443 131.922962 
L 147.502286 131.922962 
L 147.502286 116.363835 
L 146.713443 116.363835 
z
" clip-path="url(#p8b21602597)" style="fill: #f49f7b"/>
   </g>
   <g id="patch_381">
    <path d="M 147.502286 131.922962 
L 148.678013 131.922962 
L 148.678013 116.363835 
L 147.502286 116.363835 
z
" clip-path="url(#p8b21602597)" style="fill: #59595c"/>
   </g>
   <g id="patch_382">
    <path d="M 148.678013 131.922962 
L 149.371391 131.922962 
L 149.371391 116.363835 
L 148.678013 116.363835 
z
" clip-path="url(#p8b21602597)" style="fill: #f49f7b"/>
   </g>
   <g id="patch_383">
    <path d="M 149.371391 131.922962 
L 151.039518 131.922962 
L 151.039518 116.363835 
L 149.371391 116.363835 
z
" clip-path="url(#p8b21602597)" style="fill: #59595c"/>
   </g>
   <g id="patch_384">
    <path d="M 151.039518 131.922962 
L 151.315864 131.922962 
L 151.315864 116.363835 
L 151.039518 116.363835 
z
" clip-path="url(#p8b21602597)" style="fill: #f49f7b"/>
   </g>
   <g id="patch_385">
    <path d="M 151.315864 131.922962 
L 173.237659 131.922962 
L 173.237659 116.363835 
L 151.315864 116.363835 
z
" clip-path="url(#p8b21602597)" style="fill: #59595c"/>
   </g>
   <g id="patch_386">
    <path d="M 173.237659 131.922962 
L 173.277855 131.922962 
L 173.277855 116.363835 
L 173.237659 116.363835 
z
" clip-path="url(#p8b21602597)" style="fill: #f49f7b"/>
   </g>
   <g id="patch_387">
    <path d="M 173.277855 131.922962 
L 186.140517 131.922962 
L 186.140517 116.363835 
L 173.277855 116.363835 
z
" clip-path="url(#p8b21602597)" style="fill: #59595c"/>
   </g>
   <g id="patch_388">
    <path d="M 186.140517 131.922962 
L 186.622866 131.922962 
L 186.622866 116.363835 
L 186.140517 116.363835 
z
" clip-path="url(#p8b21602597)" style="fill: #f49f7b"/>
   </g>
   <g id="patch_389">
    <path d="M 186.622866 131.922962 
L 186.78365 131.922962 
L 186.78365 116.363835 
L 186.622866 116.363835 
z
" clip-path="url(#p8b21602597)" style="fill: #59595c"/>
   </g>
   <g id="patch_390">
    <path d="M 186.78365 131.922962 
L 187.105216 131.922962 
L 187.105216 116.363835 
L 186.78365 116.363835 
z
" clip-path="url(#p8b21602597)" style="fill: #f49f7b"/>
   </g>
   <g id="patch_391">
    <path d="M 187.105216 131.922962 
L 197.716913 131.922962 
L 197.716913 116.363835 
L 187.105216 116.363835 
z
" clip-path="url(#p8b21602597)" style="fill: #59595c"/>
   </g>
   <g id="patch_392">
    <path d="M 197.716913 131.922962 
L 198.133944 131.922962 
L 198.133944 116.363835 
L 197.716913 116.363835 
z
" clip-path="url(#p8b21602597)" style="fill: #f49f7b"/>
   </g>
   <g id="patch_393">
    <path d="M 198.133944 131.922962 
L 199.807095 131.922962 
L 199.807095 116.363835 
L 198.133944 116.363835 
z
" clip-path="url(#p8b21602597)" style="fill: #59595c"/>
   </g>
   <g id="patch_394">
    <path d="M 199.807095 131.922962 
L 199.967878 131.922962 
L 199.967878 116.363835 
L 199.807095 116.363835 
z
" clip-path="url(#p8b21602597)" style="fill: #f49f7b"/>
   </g>
   <g id="patch_395">
    <path d="M 199.967878 131.922962 
L 205.640513 131.922962 
L 205.640513 116.363835 
L 199.967878 116.363835 
z
" clip-path="url(#p8b21602597)" style="fill: #59595c"/>
   </g>
   <g id="patch_396">
    <path d="M 205.640513 131.922962 
L 206.052521 131.922962 
L 206.052521 116.363835 
L 205.640513 116.363835 
z
" clip-path="url(#p8b21602597)" style="fill: #f49f7b"/>
   </g>
   <g id="patch_397">
    <path d="M 206.052521 131.922962 
L 211.810572 131.922962 
L 211.810572 116.363835 
L 206.052521 116.363835 
z
" clip-path="url(#p8b21602597)" style="fill: #59595c"/>
   </g>
   <g id="patch_398">
    <path d="M 211.810572 131.922962 
L 212.187407 131.922962 
L 212.187407 116.363835 
L 211.810572 116.363835 
z
" clip-path="url(#p8b21602597)" style="fill: #f49f7b"/>
   </g>
   <g id="patch_399">
    <path d="M 212.187407 131.922962 
L 215.011164 131.922962 
L 215.011164 116.363835 
L 212.187407 116.363835 
z
" clip-path="url(#p8b21602597)" style="fill: #59595c"/>
   </g>
   <g id="patch_400">
    <path d="M 215.011164 131.922962 
L 215.247314 131.922962 
L 215.247314 116.363835 
L 215.011164 116.363835 
z
" clip-path="url(#p8b21602597)" style="fill: #f49f7b"/>
   </g>
   <g id="patch_401">
    <path d="M 215.247314 131.922962 
L 217.814822 131.922962 
L 217.814822 116.363835 
L 215.247314 116.363835 
z
" clip-path="url(#p8b21602597)" style="fill: #59595c"/>
   </g>
   <g id="patch_402">
    <path d="M 217.814822 131.922962 
L 219.261872 131.922962 
L 219.261872 116.363835 
L 217.814822 116.363835 
z
" clip-path="url(#p8b21602597)" style="fill: #f49f7b"/>
   </g>
   <g id="patch_403">
    <path d="M 219.261872 131.922962 
L 219.422655 131.922962 
L 219.422655 116.363835 
L 219.261872 116.363835 
z
" clip-path="url(#p8b21602597)" style="fill: #59595c"/>
   </g>
   <g id="patch_404">
    <path d="M 219.422655 131.922962 
L 220.668725 131.922962 
L 220.668725 116.363835 
L 219.422655 116.363835 
z
" clip-path="url(#p8b21602597)" style="fill: #f49f7b"/>
   </g>
   <g id="patch_405">
    <path d="M 220.668725 131.922962 
L 221.462593 131.922962 
L 221.462593 116.363835 
L 220.668725 116.363835 
z
" clip-path="url(#p8b21602597)" style="fill: #59595c"/>
   </g>
   <g id="patch_406">
    <path d="M 221.462593 131.922962 
L 222.316754 131.922962 
L 222.316754 116.363835 
L 221.462593 116.363835 
z
" clip-path="url(#p8b21602597)" style="fill: #f49f7b"/>
   </g>
   <g id="patch_407">
    <path d="M 222.316754 131.922962 
L 229.712784 131.922962 
L 229.712784 116.363835 
L 222.316754 116.363835 
z
" clip-path="url(#p8b21602597)" style="fill: #59595c"/>
   </g>
   <g id="patch_408">
    <path d="M 229.712784 131.922962 
L 230.391089 131.922962 
L 230.391089 116.363835 
L 229.712784 116.363835 
z
" clip-path="url(#p8b21602597)" style="fill: #f49f7b"/>
   </g>
   <g id="patch_409">
    <path d="M 230.391089 131.922962 
L 235.556252 131.922962 
L 235.556252 116.363835 
L 230.391089 116.363835 
z
" clip-path="url(#p8b21602597)" style="fill: #59595c"/>
   </g>
   <g id="patch_410">
    <path d="M 235.556252 131.922962 
L 235.918014 131.922962 
L 235.918014 116.363835 
L 235.556252 116.363835 
z
" clip-path="url(#p8b21602597)" style="fill: #f49f7b"/>
   </g>
   <g id="patch_411">
    <path d="M 235.918014 131.922962 
L 237.108815 131.922962 
L 237.108815 116.363835 
L 235.918014 116.363835 
z
" clip-path="url(#p8b21602597)" style="fill: #59595c"/>
   </g>
   <g id="patch_412">
    <path d="M 237.108815 131.922962 
L 241.610747 131.922962 
L 241.610747 116.363835 
L 237.108815 116.363835 
z
" clip-path="url(#p8b21602597)" style="fill: #91d1bc"/>
   </g>
   <g id="patch_413">
    <path d="M 241.610747 131.922962 
L 241.721285 131.922962 
L 241.721285 116.363835 
L 241.610747 116.363835 
z
" clip-path="url(#p8b21602597)" style="fill: #59595c"/>
   </g>
   <g id="patch_414">
    <path d="M 241.721285 131.922962 
L 242.188562 131.922962 
L 242.188562 116.363835 
L 241.721285 116.363835 
z
" clip-path="url(#p8b21602597)" style="fill: #f49f7b"/>
   </g>
   <g id="patch_415">
    <path d="M 242.188562 131.922962 
L 243.369314 131.922962 
L 243.369314 116.363835 
L 242.188562 116.363835 
z
" clip-path="url(#p8b21602597)" style="fill: #59595c"/>
   </g>
   <g id="patch_416">
    <path d="M 243.369314 131.922962 
L 245.494668 131.922962 
L 245.494668 116.363835 
L 243.369314 116.363835 
z
" clip-path="url(#p8b21602597)" style="fill: #91d1bc"/>
   </g>
   <g id="patch_417">
    <path d="M 245.494668 131.922962 
L 249.328344 131.922962 
L 249.328344 116.363835 
L 245.494668 116.363835 
z
" clip-path="url(#p8b21602597)" style="fill: #59595c"/>
   </g>
   <g id="patch_418">
    <path d="M 249.328344 131.922962 
L 252.709817 131.922962 
L 252.709817 116.363835 
L 249.328344 116.363835 
z
" clip-path="url(#p8b21602597)" style="fill: #91d1bc"/>
   </g>
   <g id="patch_419">
    <path d="M 252.709817 131.922962 
L 255.438109 131.922962 
L 255.438109 116.363835 
L 252.709817 116.363835 
z
" clip-path="url(#p8b21602597)" style="fill: #59595c"/>
   </g>
   <g id="patch_420">
    <path d="M 255.438109 131.922962 
L 255.488353 131.922962 
L 255.488353 116.363835 
L 255.438109 116.363835 
z
" clip-path="url(#p8b21602597)" style="fill: #91d1bc"/>
   </g>
   <g id="patch_421">
    <path d="M 255.488353 131.922962 
L 255.920458 131.922962 
L 255.920458 116.363835 
L 255.488353 116.363835 
z
" clip-path="url(#p8b21602597)" style="fill: #59595c"/>
   </g>
   <g id="patch_422">
    <path d="M 255.920458 131.922962 
L 256.307343 131.922962 
L 256.307343 116.363835 
L 255.920458 116.363835 
z
" clip-path="url(#p8b21602597)" style="fill: #91d1bc"/>
   </g>
   <g id="patch_423">
    <path d="M 256.307343 131.922962 
L 256.312368 131.922962 
L 256.312368 116.363835 
L 256.307343 116.363835 
z
" clip-path="url(#p8b21602597)" style="fill: #59595c"/>
   </g>
   <g id="patch_424">
    <path d="M 256.312368 131.922962 
L 256.327441 131.922962 
L 256.327441 116.363835 
L 256.312368 116.363835 
z
" clip-path="url(#p8b21602597)" style="fill: #91d1bc"/>
   </g>
   <g id="patch_425">
    <path d="M 256.327441 131.922962 
L 256.724375 131.922962 
L 256.724375 116.363835 
L 256.327441 116.363835 
z
" clip-path="url(#p8b21602597)" style="fill: #59595c"/>
   </g>
   <g id="patch_426">
    <path d="M 256.724375 131.922962 
L 261.909635 131.922962 
L 261.909635 116.363835 
L 256.724375 116.363835 
z
" clip-path="url(#p8b21602597)" style="fill: #91d1bc"/>
   </g>
   <g id="patch_427">
    <path d="M 261.909635 131.922962 
L 261.91466 131.922962 
L 261.91466 116.363835 
L 261.909635 116.363835 
z
" clip-path="url(#p8b21602597)" style="fill: #59595c"/>
   </g>
   <g id="patch_428">
    <path d="M 261.91466 131.922962 
L 261.990027 131.922962 
L 261.990027 116.363835 
L 261.91466 116.363835 
z
" clip-path="url(#p8b21602597)" style="fill: #91d1bc"/>
   </g>
   <g id="patch_429">
    <path d="M 261.990027 131.922962 
L 261.995052 131.922962 
L 261.995052 116.363835 
L 261.990027 116.363835 
z
" clip-path="url(#p8b21602597)" style="fill: #59595c"/>
   </g>
   <g id="patch_430">
    <path d="M 261.995052 131.922962 
L 262.351789 131.922962 
L 262.351789 116.363835 
L 261.995052 116.363835 
z
" clip-path="url(#p8b21602597)" style="fill: #91d1bc"/>
   </g>
   <g id="patch_431">
    <path d="M 262.351789 131.922962 
L 263.316489 131.922962 
L 263.316489 116.363835 
L 262.351789 116.363835 
z
" clip-path="url(#p8b21602597)" style="fill: #59595c"/>
   </g>
   <g id="patch_432">
    <path d="M 263.316489 131.922962 
L 263.462199 131.922962 
L 263.462199 116.363835 
L 263.316489 116.363835 
z
" clip-path="url(#p8b21602597)" style="fill: #91d1bc"/>
   </g>
   <g id="patch_433">
    <path d="M 263.462199 131.922962 
L 263.467223 131.922962 
L 263.467223 116.363835 
L 263.462199 116.363835 
z
" clip-path="url(#p8b21602597)" style="fill: #59595c"/>
   </g>
   <g id="patch_434">
    <path d="M 263.467223 131.922962 
L 263.477272 131.922962 
L 263.477272 116.363835 
L 263.467223 116.363835 
z
" clip-path="url(#p8b21602597)" style="fill: #91d1bc"/>
   </g>
   <g id="patch_435">
    <path d="M 263.477272 131.922962 
L 265.6177 131.922962 
L 265.6177 116.363835 
L 263.477272 116.363835 
z
" clip-path="url(#p8b21602597)" style="fill: #59595c"/>
   </g>
   <g id="patch_436">
    <path d="M 265.6177 131.922962 
L 266.868795 131.922962 
L 266.868795 116.363835 
L 265.6177 116.363835 
z
" clip-path="url(#p8b21602597)" style="fill: #f49f7b"/>
   </g>
   <g id="patch_437">
    <path d="M 266.868795 131.922962 
L 276.018368 131.922962 
L 276.018368 116.363835 
L 266.868795 116.363835 
z
" clip-path="url(#p8b21602597)" style="fill: #59595c"/>
   </g>
   <g id="patch_438">
    <path d="M 276.018368 131.922962 
L 276.038466 131.922962 
L 276.038466 116.363835 
L 276.018368 116.363835 
z
" clip-path="url(#p8b21602597)" style="fill: #f49f7b"/>
   </g>
   <g id="patch_439">
    <path d="M 276.038466 131.922962 
L 276.04349 131.922962 
L 276.04349 116.363835 
L 276.038466 116.363835 
z
" clip-path="url(#p8b21602597)" style="fill: #59595c"/>
   </g>
   <g id="patch_440">
    <path d="M 276.04349 131.922962 
L 276.048515 131.922962 
L 276.048515 116.363835 
L 276.04349 116.363835 
z
" clip-path="url(#p8b21602597)" style="fill: #f49f7b"/>
   </g>
   <g id="patch_441">
    <path d="M 276.048515 131.922962 
L 282.54014 131.922962 
L 282.54014 116.363835 
L 276.048515 116.363835 
z
" clip-path="url(#p8b21602597)" style="fill: #59595c"/>
   </g>
   <g id="patch_442">
    <path d="M 282.54014 131.922962 
L 282.771266 131.922962 
L 282.771266 116.363835 
L 282.54014 116.363835 
z
" clip-path="url(#p8b21602597)" style="fill: #f49f7b"/>
   </g>
   <g id="patch_443">
    <path d="M 282.771266 131.922962 
L 286.363767 131.922962 
L 286.363767 116.363835 
L 282.771266 116.363835 
z
" clip-path="url(#p8b21602597)" style="fill: #59595c"/>
   </g>
   <g id="patch_444">
    <path d="M 286.363767 131.922962 
L 287.755547 131.922962 
L 287.755547 116.363835 
L 286.363767 116.363835 
z
" clip-path="url(#p8b21602597)" style="fill: #f49f7b"/>
   </g>
   <g id="patch_445">
    <path d="M 287.755547 131.922962 
L 291.292779 131.922962 
L 291.292779 116.363835 
L 287.755547 116.363835 
z
" clip-path="url(#p8b21602597)" style="fill: #59595c"/>
   </g>
   <g id="patch_446">
    <path d="M 291.292779 131.922962 
L 291.413367 131.922962 
L 291.413367 116.363835 
L 291.292779 116.363835 
z
" clip-path="url(#p8b21602597)" style="fill: #f49f7b"/>
   </g>
   <g id="patch_447">
    <path d="M 291.413367 131.922962 
L 298.005481 131.922962 
L 298.005481 116.363835 
L 291.413367 116.363835 
z
" clip-path="url(#p8b21602597)" style="fill: #59595c"/>
   </g>
   <g id="patch_448">
    <path d="M 298.005481 131.922962 
L 298.729006 131.922962 
L 298.729006 116.363835 
L 298.005481 116.363835 
z
" clip-path="url(#p8b21602597)" style="fill: #f49f7b"/>
   </g>
   <g id="patch_449">
    <path d="M 298.729006 131.922962 
L 305.351267 131.922962 
L 305.351267 116.363835 
L 298.729006 116.363835 
z
" clip-path="url(#p8b21602597)" style="fill: #59595c"/>
   </g>
   <g id="patch_450">
    <path d="M 305.351267 131.922962 
L 305.723078 131.922962 
L 305.723078 116.363835 
L 305.351267 116.363835 
z
" clip-path="url(#p8b21602597)" style="fill: #f49f7b"/>
   </g>
   <g id="patch_451">
    <path d="M 305.723078 131.922962 
L 309.687391 131.922962 
L 309.687391 116.363835 
L 305.723078 116.363835 
z
" clip-path="url(#p8b21602597)" style="fill: #59595c"/>
   </g>
   <g id="patch_452">
    <path d="M 309.687391 131.922962 
L 311.42586 131.922962 
L 311.42586 116.363835 
L 309.687391 116.363835 
z
" clip-path="url(#p8b21602597)" style="fill: #f49f7b"/>
   </g>
   <g id="patch_453">
    <path d="M 311.42586 131.922962 
L 315.561005 131.922962 
L 315.561005 116.363835 
L 311.42586 116.363835 
z
" clip-path="url(#p8b21602597)" style="fill: #59595c"/>
   </g>
   <g id="patch_454">
    <path d="M 315.561005 131.922962 
L 316.053404 131.922962 
L 316.053404 116.363835 
L 315.561005 116.363835 
z
" clip-path="url(#p8b21602597)" style="fill: #f49f7b"/>
   </g>
   <g id="patch_455">
    <path d="M 316.053404 131.922962 
L 316.214187 131.922962 
L 316.214187 116.363835 
L 316.053404 116.363835 
z
" clip-path="url(#p8b21602597)" style="fill: #59595c"/>
   </g>
   <g id="patch_456">
    <path d="M 316.214187 131.922962 
L 316.535754 131.922962 
L 316.535754 116.363835 
L 316.214187 116.363835 
z
" clip-path="url(#p8b21602597)" style="fill: #f49f7b"/>
   </g>
   <g id="patch_457">
    <path d="M 316.535754 131.922962 
L 316.797026 131.922962 
L 316.797026 116.363835 
L 316.535754 116.363835 
z
" clip-path="url(#p8b21602597)" style="fill: #59595c"/>
   </g>
   <g id="patch_458">
    <path d="M 316.797026 131.922962 
L 317.545673 131.922962 
L 317.545673 116.363835 
L 316.797026 116.363835 
z
" clip-path="url(#p8b21602597)" style="fill: #f49f7b"/>
   </g>
   <g id="patch_459">
    <path d="M 317.545673 131.922962 
L 323.931784 131.922962 
L 323.931784 116.363835 
L 317.545673 116.363835 
z
" clip-path="url(#p8b21602597)" style="fill: #59595c"/>
   </g>
   <g id="patch_460">
    <path d="M 323.931784 131.922962 
L 323.97198 131.922962 
L 323.97198 116.363835 
L 323.931784 116.363835 
z
" clip-path="url(#p8b21602597)" style="fill: #f49f7b"/>
   </g>
   <g id="patch_461">
    <path d="M 323.97198 131.922962 
L 324.896484 131.922962 
L 324.896484 116.363835 
L 323.97198 116.363835 
z
" clip-path="url(#p8b21602597)" style="fill: #59595c"/>
   </g>
   <g id="patch_462">
    <path d="M 324.896484 131.922962 
L 327.589604 131.922962 
L 327.589604 116.363835 
L 324.896484 116.363835 
z
" clip-path="url(#p8b21602597)" style="fill: #f49f7b"/>
   </g>
   <g id="patch_463">
    <path d="M 327.589604 131.922962 
L 329.433587 131.922962 
L 329.433587 116.363835 
L 327.589604 116.363835 
z
" clip-path="url(#p8b21602597)" style="fill: #59595c"/>
   </g>
   <g id="patch_464">
    <path d="M 329.433587 131.922962 
L 329.835545 131.922962 
L 329.835545 116.363835 
L 329.433587 116.363835 
z
" clip-path="url(#p8b21602597)" style="fill: #f49f7b"/>
   </g>
   <g id="patch_465">
    <path d="M 329.835545 131.922962 
L 330.75 131.922962 
L 330.75 116.363835 
L 329.835545 116.363835 
z
" clip-path="url(#p8b21602597)" style="fill: #59595c"/>
   </g>
   <g id="matplotlib.axis_13"/>
   <g id="matplotlib.axis_14"/>
   <g id="text_10">
    <text style="font: 9px 'Arial'; text-anchor: end" x="42.51975" y="126.470039" transform="rotate(-0 42.51975 126.470039)">prediction</text>
   </g>
  </g>
  <g id="axes_8">
   <g id="matplotlib.axis_15"/>
   <g id="matplotlib.axis_16"/>
   <g id="text_11">
    <text style="font: 9px 'Arial'; text-anchor: start" x="45.9375" y="141.622686" transform="rotate(-0 45.9375 141.622686)">0</text>
   </g>
   <g id="text_12">
    <text style="font: 9px 'Arial'; text-anchor: end" x="330.75" y="141.622686" transform="rotate(-0 330.75 141.622686)">56685</text>
   </g>
   <g id="text_13">
    <text style="font: 10px 'Arial'; text-anchor: middle" x="188.34375" y="158.675551" transform="rotate(-0 188.34375 158.675551)">frames</text>
   </g>
  </g>
 </g>
 <defs>
  <clipPath id="p474e1a212b">
   <rect x="45.9375" y="33.949082" width="284.8125" height="15.559127"/>
  </clipPath>
  <clipPath id="p8b923eb632">
   <rect x="45.9375" y="52.765901" width="284.8125" height="15.559127"/>
  </clipPath>
  <clipPath id="pbd39715f4e">
   <rect x="45.9375" y="97.547015" width="284.8125" height="15.559127"/>
  </clipPath>
  <clipPath id="p8b21602597">
   <rect x="45.9375" y="116.363835" width="284.8125" height="15.559127"/>
  </clipPath>
 </defs>
</svg>
