<?xml version="1.0" encoding="utf-8" standalone="no"?>
<!DOCTYPE svg PUBLIC "-//W3C//DTD SVG 1.1//EN"
  "http://www.w3.org/Graphics/SVG/1.1/DTD/svg11.dtd">
<svg xmlns:xlink="http://www.w3.org/1999/xlink" width="372.900525pt" height="160.849251pt" viewBox="0 0 372.900525 160.849251" xmlns="http://www.w3.org/2000/svg" version="1.1">
 <metadata>
  <rdf:RDF xmlns:dc="http://purl.org/dc/elements/1.1/" xmlns:cc="http://creativecommons.org/ns#" xmlns:rdf="http://www.w3.org/1999/02/22-rdf-syntax-ns#">
   <cc:Work>
    <dc:type rdf:resource="http://purl.org/dc/dcmitype/StillImage"/>
    <dc:date>2026-05-13T17:43:22.401340</dc:date>
    <dc:format>image/svg+xml</dc:format>
    <dc:creator>
     <cc:Agent>
      <dc:title>Matplotlib v3.9.4, https://matplotlib.org/</dc:title>
     </cc:Agent>
    </dc:creator>
   </cc:Work>
  </rdf:RDF>
 </metadata>
 <defs>
  <style type="text/css">*{stroke-linejoin: round; stroke-linecap: butt}</style>
 </defs>
 <g id="figure_1">
  <g id="patch_1">
   <path d="M 0 160.849251 
L 372.900525 160.849251 
L 372.900525 0 
L 0 0 
z
" style="fill: #ffffff"/>
  </g>
  <g id="axes_1">
   <g id="matplotlib.axis_1"/>
   <g id="matplotlib.axis_2"/>
   <g id="text_1">
    <text style="font: italic 10px 'Arial'; text-anchor: start" x="44.385525" y="10.134334" transform="rotate(-0 44.385525 10.134334)">Example video 1: accuracy </text>
   </g>
   <g id="text_2">
    <text style="font: italic 700 10px 'Arial'; text-anchor: start" x="166.3074" y="10.182771" transform="rotate(-0 166.3074 10.182771)">93.9%</text>
   </g>
  </g>
  <g id="axes_2">
   <g id="patch_2">
    <path d="M 44.385525 35.006418 
L 45.353725 35.006418 
L 45.353725 17.426625 
L 44.385525 17.426625 
z
" clip-path="url(#pc628fcc887)" style="fill: #f49f7b"/>
   </g>
   <g id="patch_3">
    <path d="M 45.353725 35.006418 
L 49.408774 35.006418 
L 49.408774 17.426625 
L 45.353725 17.426625 
z
" clip-path="url(#pc628fcc887)" style="fill: #59595c"/>
   </g>
   <g id="patch_4">
    <path d="M 49.408774 35.006418 
L 49.92135 35.006418 
L 49.92135 17.426625 
L 49.408774 17.426625 
z
" clip-path="url(#pc628fcc887)" style="fill: #f49f7b"/>
   </g>
   <g id="patch_5">
    <path d="M 49.92135 35.006418 
L 55.690682 35.006418 
L 55.690682 17.426625 
L 49.92135 17.426625 
z
" clip-path="url(#pc628fcc887)" style="fill: #59595c"/>
   </g>
   <g id="patch_6">
    <path d="M 55.690682 35.006418 
L 56.288688 35.006418 
L 56.288688 17.426625 
L 55.690682 17.426625 
z
" clip-path="url(#pc628fcc887)" style="fill: #f49f7b"/>
   </g>
   <g id="patch_7">
    <path d="M 56.288688 35.006418 
L 100.319001 35.006418 
L 100.319001 17.426625 
L 56.288688 17.426625 
z
" clip-path="url(#pc628fcc887)" style="fill: #59595c"/>
   </g>
   <g id="patch_8">
    <path d="M 100.319001 35.006418 
L 101.002436 35.006418 
L 101.002436 17.426625 
L 100.319001 17.426625 
z
" clip-path="url(#pc628fcc887)" style="fill: #f49f7b"/>
   </g>
   <g id="patch_9">
    <path d="M 101.002436 35.006418 
L 108.65691 35.006418 
L 108.65691 17.426625 
L 101.002436 17.426625 
z
" clip-path="url(#pc628fcc887)" style="fill: #59595c"/>
   </g>
   <g id="patch_10">
    <path d="M 108.65691 35.006418 
L 109.084057 35.006418 
L 109.084057 17.426625 
L 108.65691 17.426625 
z
" clip-path="url(#pc628fcc887)" style="fill: #f49f7b"/>
   </g>
   <g id="patch_11">
    <path d="M 109.084057 35.006418 
L 115.662121 35.006418 
L 115.662121 17.426625 
L 109.084057 17.426625 
z
" clip-path="url(#pc628fcc887)" style="fill: #59595c"/>
   </g>
   <g id="patch_12">
    <path d="M 115.662121 35.006418 
L 116.089268 35.006418 
L 116.089268 17.426625 
L 115.662121 17.426625 
z
" clip-path="url(#pc628fcc887)" style="fill: #f49f7b"/>
   </g>
   <g id="patch_13">
    <path d="M 116.089268 35.006418 
L 130.139556 35.006418 
L 130.139556 17.426625 
L 116.089268 17.426625 
z
" clip-path="url(#pc628fcc887)" style="fill: #59595c"/>
   </g>
   <g id="patch_14">
    <path d="M 130.139556 35.006418 
L 130.612266 35.006418 
L 130.612266 17.426625 
L 130.139556 17.426625 
z
" clip-path="url(#pc628fcc887)" style="fill: #f49f7b"/>
   </g>
   <g id="patch_15">
    <path d="M 130.612266 35.006418 
L 132.577142 35.006418 
L 132.577142 17.426625 
L 130.612266 17.426625 
z
" clip-path="url(#pc628fcc887)" style="fill: #59595c"/>
   </g>
   <g id="patch_16">
    <path d="M 132.577142 35.006418 
L 134.371159 35.006418 
L 134.371159 17.426625 
L 132.577142 17.426625 
z
" clip-path="url(#pc628fcc887)" style="fill: #f49f7b"/>
   </g>
   <g id="patch_17">
    <path d="M 134.371159 35.006418 
L 137.144767 35.006418 
L 137.144767 17.426625 
L 134.371159 17.426625 
z
" clip-path="url(#pc628fcc887)" style="fill: #59595c"/>
   </g>
   <g id="patch_18">
    <path d="M 137.144767 35.006418 
L 139.326065 35.006418 
L 139.326065 17.426625 
L 137.144767 17.426625 
z
" clip-path="url(#pc628fcc887)" style="fill: #f49f7b"/>
   </g>
   <g id="patch_19">
    <path d="M 139.326065 35.006418 
L 141.501667 35.006418 
L 141.501667 17.426625 
L 139.326065 17.426625 
z
" clip-path="url(#pc628fcc887)" style="fill: #59595c"/>
   </g>
   <g id="patch_20">
    <path d="M 141.501667 35.006418 
L 141.718088 35.006418 
L 141.718088 17.426625 
L 141.501667 17.426625 
z
" clip-path="url(#pc628fcc887)" style="fill: #f49f7b"/>
   </g>
   <g id="patch_21">
    <path d="M 141.718088 35.006418 
L 147.322256 35.006418 
L 147.322256 17.426625 
L 141.718088 17.426625 
z
" clip-path="url(#pc628fcc887)" style="fill: #59595c"/>
   </g>
   <g id="patch_22">
    <path d="M 147.322256 35.006418 
L 147.493115 35.006418 
L 147.493115 17.426625 
L 147.322256 17.426625 
z
" clip-path="url(#pc628fcc887)" style="fill: #f49f7b"/>
   </g>
   <g id="patch_23">
    <path d="M 147.493115 35.006418 
L 148.432839 35.006418 
L 148.432839 17.426625 
L 147.493115 17.426625 
z
" clip-path="url(#pc628fcc887)" style="fill: #59595c"/>
   </g>
   <g id="patch_24">
    <path d="M 148.432839 35.006418 
L 150.095864 35.006418 
L 150.095864 17.426625 
L 148.432839 17.426625 
z
" clip-path="url(#pc628fcc887)" style="fill: #f49f7b"/>
   </g>
   <g id="patch_25">
    <path d="M 150.095864 35.006418 
L 154.111046 35.006418 
L 154.111046 17.426625 
L 150.095864 17.426625 
z
" clip-path="url(#pc628fcc887)" style="fill: #59595c"/>
   </g>
   <g id="patch_26">
    <path d="M 154.111046 35.006418 
L 154.327467 35.006418 
L 154.327467 17.426625 
L 154.111046 17.426625 
z
" clip-path="url(#pc628fcc887)" style="fill: #f49f7b"/>
   </g>
   <g id="patch_27">
    <path d="M 154.327467 35.006418 
L 160.68911 35.006418 
L 160.68911 17.426625 
L 154.327467 17.426625 
z
" clip-path="url(#pc628fcc887)" style="fill: #59595c"/>
   </g>
   <g id="patch_28">
    <path d="M 160.68911 35.006418 
L 161.970551 35.006418 
L 161.970551 17.426625 
L 160.68911 17.426625 
z
" clip-path="url(#pc628fcc887)" style="fill: #f49f7b"/>
   </g>
   <g id="patch_29">
    <path d="M 161.970551 35.006418 
L 174.147088 35.006418 
L 174.147088 17.426625 
L 161.970551 17.426625 
z
" clip-path="url(#pc628fcc887)" style="fill: #59595c"/>
   </g>
   <g id="patch_30">
    <path d="M 174.147088 35.006418 
L 175.639255 35.006418 
L 175.639255 17.426625 
L 174.147088 17.426625 
z
" clip-path="url(#pc628fcc887)" style="fill: #f49f7b"/>
   </g>
   <g id="patch_31">
    <path d="M 175.639255 35.006418 
L 178.828619 35.006418 
L 178.828619 17.426625 
L 175.639255 17.426625 
z
" clip-path="url(#pc628fcc887)" style="fill: #59595c"/>
   </g>
   <g id="patch_32">
    <path d="M 178.828619 35.006418 
L 178.953916 35.006418 
L 178.953916 17.426625 
L 178.828619 17.426625 
z
" clip-path="url(#pc628fcc887)" style="fill: #f49f7b"/>
   </g>
   <g id="patch_33">
    <path d="M 178.953916 35.006418 
L 191.984747 35.006418 
L 191.984747 17.426625 
L 178.953916 17.426625 
z
" clip-path="url(#pc628fcc887)" style="fill: #59595c"/>
   </g>
   <g id="patch_34">
    <path d="M 191.984747 35.006418 
L 192.582752 35.006418 
L 192.582752 17.426625 
L 191.984747 17.426625 
z
" clip-path="url(#pc628fcc887)" style="fill: #f49f7b"/>
   </g>
   <g id="patch_35">
    <path d="M 192.582752 35.006418 
L 201.729394 35.006418 
L 201.729394 17.426625 
L 192.582752 17.426625 
z
" clip-path="url(#pc628fcc887)" style="fill: #59595c"/>
   </g>
   <g id="patch_36">
    <path d="M 201.729394 35.006418 
L 202.372962 35.006418 
L 202.372962 17.426625 
L 201.729394 17.426625 
z
" clip-path="url(#pc628fcc887)" style="fill: #91d1bc"/>
   </g>
   <g id="patch_37">
    <path d="M 202.372962 35.006418 
L 205.755966 35.006418 
L 205.755966 17.426625 
L 202.372962 17.426625 
z
" clip-path="url(#pc628fcc887)" style="fill: #59595c"/>
   </g>
   <g id="patch_38">
    <path d="M 205.755966 35.006418 
L 208.318848 35.006418 
L 208.318848 17.426625 
L 205.755966 17.426625 
z
" clip-path="url(#pc628fcc887)" style="fill: #f49f7b"/>
   </g>
   <g id="patch_39">
    <path d="M 208.318848 35.006418 
L 210.198295 35.006418 
L 210.198295 17.426625 
L 208.318848 17.426625 
z
" clip-path="url(#pc628fcc887)" style="fill: #59595c"/>
   </g>
   <g id="patch_40">
    <path d="M 210.198295 35.006418 
L 210.454583 35.006418 
L 210.454583 17.426625 
L 210.198295 17.426625 
z
" clip-path="url(#pc628fcc887)" style="fill: #f49f7b"/>
   </g>
   <g id="patch_41">
    <path d="M 210.454583 35.006418 
L 221.731264 35.006418 
L 221.731264 17.426625 
L 210.454583 17.426625 
z
" clip-path="url(#pc628fcc887)" style="fill: #59595c"/>
   </g>
   <g id="patch_42">
    <path d="M 221.731264 35.006418 
L 222.670987 35.006418 
L 222.670987 17.426625 
L 221.731264 17.426625 
z
" clip-path="url(#pc628fcc887)" style="fill: #f49f7b"/>
   </g>
   <g id="patch_43">
    <path d="M 222.670987 35.006418 
L 224.550434 35.006418 
L 224.550434 17.426625 
L 222.670987 17.426625 
z
" clip-path="url(#pc628fcc887)" style="fill: #59595c"/>
   </g>
   <g id="patch_44">
    <path d="M 224.550434 35.006418 
L 227.660064 35.006418 
L 227.660064 17.426625 
L 224.550434 17.426625 
z
" clip-path="url(#pc628fcc887)" style="fill: #f49f7b"/>
   </g>
   <g id="patch_45">
    <path d="M 227.660064 35.006418 
L 231.185451 35.006418 
L 231.185451 17.426625 
L 227.660064 17.426625 
z
" clip-path="url(#pc628fcc887)" style="fill: #59595c"/>
   </g>
   <g id="patch_46">
    <path d="M 231.185451 35.006418 
L 232.427025 35.006418 
L 232.427025 17.426625 
L 231.185451 17.426625 
z
" clip-path="url(#pc628fcc887)" style="fill: #f49f7b"/>
   </g>
   <g id="patch_47">
    <path d="M 232.427025 35.006418 
L 232.905429 35.006418 
L 232.905429 17.426625 
L 232.427025 17.426625 
z
" clip-path="url(#pc628fcc887)" style="fill: #59595c"/>
   </g>
   <g id="patch_48">
    <path d="M 232.905429 35.006418 
L 234.101441 35.006418 
L 234.101441 17.426625 
L 232.905429 17.426625 
z
" clip-path="url(#pc628fcc887)" style="fill: #f49f7b"/>
   </g>
   <g id="patch_49">
    <path d="M 234.101441 35.006418 
L 235.474006 35.006418 
L 235.474006 17.426625 
L 234.101441 17.426625 
z
" clip-path="url(#pc628fcc887)" style="fill: #59595c"/>
   </g>
   <g id="patch_50">
    <path d="M 235.474006 35.006418 
L 237.740733 35.006418 
L 237.740733 17.426625 
L 235.474006 17.426625 
z
" clip-path="url(#pc628fcc887)" style="fill: #f49f7b"/>
   </g>
   <g id="patch_51">
    <path d="M 237.740733 35.006418 
L 238.25331 35.006418 
L 238.25331 17.426625 
L 237.740733 17.426625 
z
" clip-path="url(#pc628fcc887)" style="fill: #59595c"/>
   </g>
   <g id="patch_52">
    <path d="M 238.25331 35.006418 
L 238.782972 35.006418 
L 238.782972 17.426625 
L 238.25331 17.426625 
z
" clip-path="url(#pc628fcc887)" style="fill: #f49f7b"/>
   </g>
   <g id="patch_53">
    <path d="M 238.782972 35.006418 
L 239.210119 35.006418 
L 239.210119 17.426625 
L 238.782972 17.426625 
z
" clip-path="url(#pc628fcc887)" style="fill: #59595c"/>
   </g>
   <g id="patch_54">
    <path d="M 239.210119 35.006418 
L 240.064413 35.006418 
L 240.064413 17.426625 
L 239.210119 17.426625 
z
" clip-path="url(#pc628fcc887)" style="fill: #f49f7b"/>
   </g>
   <g id="patch_55">
    <path d="M 240.064413 35.006418 
L 240.747848 35.006418 
L 240.747848 17.426625 
L 240.064413 17.426625 
z
" clip-path="url(#pc628fcc887)" style="fill: #59595c"/>
   </g>
   <g id="patch_56">
    <path d="M 240.747848 35.006418 
L 241.129433 35.006418 
L 241.129433 17.426625 
L 240.747848 17.426625 
z
" clip-path="url(#pc628fcc887)" style="fill: #f49f7b"/>
   </g>
   <g id="patch_57">
    <path d="M 241.129433 35.006418 
L 241.898297 35.006418 
L 241.898297 17.426625 
L 241.129433 17.426625 
z
" clip-path="url(#pc628fcc887)" style="fill: #59595c"/>
   </g>
   <g id="patch_58">
    <path d="M 241.898297 35.006418 
L 242.712724 35.006418 
L 242.712724 17.426625 
L 241.898297 17.426625 
z
" clip-path="url(#pc628fcc887)" style="fill: #f49f7b"/>
   </g>
   <g id="patch_59">
    <path d="M 242.712724 35.006418 
L 243.481589 35.006418 
L 243.481589 17.426625 
L 242.712724 17.426625 
z
" clip-path="url(#pc628fcc887)" style="fill: #59595c"/>
   </g>
   <g id="patch_60">
    <path d="M 243.481589 35.006418 
L 244.506742 35.006418 
L 244.506742 17.426625 
L 243.481589 17.426625 
z
" clip-path="url(#pc628fcc887)" style="fill: #f49f7b"/>
   </g>
   <g id="patch_61">
    <path d="M 244.506742 35.006418 
L 248.396627 35.006418 
L 248.396627 17.426625 
L 244.506742 17.426625 
z
" clip-path="url(#pc628fcc887)" style="fill: #59595c"/>
   </g>
   <g id="patch_62">
    <path d="M 248.396627 35.006418 
L 248.920594 35.006418 
L 248.920594 17.426625 
L 248.396627 17.426625 
z
" clip-path="url(#pc628fcc887)" style="fill: #f49f7b"/>
   </g>
   <g id="patch_63">
    <path d="M 248.920594 35.006418 
L 249.137015 35.006418 
L 249.137015 17.426625 
L 248.920594 17.426625 
z
" clip-path="url(#pc628fcc887)" style="fill: #59595c"/>
   </g>
   <g id="patch_64">
    <path d="M 249.137015 35.006418 
L 249.735021 35.006418 
L 249.735021 17.426625 
L 249.137015 17.426625 
z
" clip-path="url(#pc628fcc887)" style="fill: #f49f7b"/>
   </g>
   <g id="patch_65">
    <path d="M 249.735021 35.006418 
L 249.991309 35.006418 
L 249.991309 17.426625 
L 249.735021 17.426625 
z
" clip-path="url(#pc628fcc887)" style="fill: #59595c"/>
   </g>
   <g id="patch_66">
    <path d="M 249.991309 35.006418 
L 251.785326 35.006418 
L 251.785326 17.426625 
L 249.991309 17.426625 
z
" clip-path="url(#pc628fcc887)" style="fill: #f49f7b"/>
   </g>
   <g id="patch_67">
    <path d="M 251.785326 35.006418 
L 254.262779 35.006418 
L 254.262779 17.426625 
L 251.785326 17.426625 
z
" clip-path="url(#pc628fcc887)" style="fill: #59595c"/>
   </g>
   <g id="patch_68">
    <path d="M 254.262779 35.006418 
L 262.976578 35.006418 
L 262.976578 17.426625 
L 254.262779 17.426625 
z
" clip-path="url(#pc628fcc887)" style="fill: #f49f7b"/>
   </g>
   <g id="patch_69">
    <path d="M 262.976578 35.006418 
L 266.479183 35.006418 
L 266.479183 17.426625 
L 262.976578 17.426625 
z
" clip-path="url(#pc628fcc887)" style="fill: #59595c"/>
   </g>
   <g id="patch_70">
    <path d="M 266.479183 35.006418 
L 267.333477 35.006418 
L 267.333477 17.426625 
L 266.479183 17.426625 
z
" clip-path="url(#pc628fcc887)" style="fill: #f49f7b"/>
   </g>
   <g id="patch_71">
    <path d="M 267.333477 35.006418 
L 273.575519 35.006418 
L 273.575519 17.426625 
L 267.333477 17.426625 
z
" clip-path="url(#pc628fcc887)" style="fill: #59595c"/>
   </g>
   <g id="patch_72">
    <path d="M 273.575519 35.006418 
L 274.515242 35.006418 
L 274.515242 17.426625 
L 273.575519 17.426625 
z
" clip-path="url(#pc628fcc887)" style="fill: #f49f7b"/>
   </g>
   <g id="patch_73">
    <path d="M 274.515242 35.006418 
L 277.505271 35.006418 
L 277.505271 17.426625 
L 274.515242 17.426625 
z
" clip-path="url(#pc628fcc887)" style="fill: #59595c"/>
   </g>
   <g id="patch_74">
    <path d="M 277.505271 35.006418 
L 279.088563 35.006418 
L 279.088563 17.426625 
L 277.505271 17.426625 
z
" clip-path="url(#pc628fcc887)" style="fill: #f49f7b"/>
   </g>
   <g id="patch_75">
    <path d="M 279.088563 35.006418 
L 279.726436 35.006418 
L 279.726436 17.426625 
L 279.088563 17.426625 
z
" clip-path="url(#pc628fcc887)" style="fill: #59595c"/>
   </g>
   <g id="patch_76">
    <path d="M 279.726436 35.006418 
L 280.837018 35.006418 
L 280.837018 17.426625 
L 279.726436 17.426625 
z
" clip-path="url(#pc628fcc887)" style="fill: #f49f7b"/>
   </g>
   <g id="patch_77">
    <path d="M 280.837018 35.006418 
L 281.776741 35.006418 
L 281.776741 17.426625 
L 280.837018 17.426625 
z
" clip-path="url(#pc628fcc887)" style="fill: #59595c"/>
   </g>
   <g id="patch_78">
    <path d="M 281.776741 35.006418 
L 282.505739 35.006418 
L 282.505739 17.426625 
L 281.776741 17.426625 
z
" clip-path="url(#pc628fcc887)" style="fill: #f49f7b"/>
   </g>
   <g id="patch_79">
    <path d="M 282.505739 35.006418 
L 288.696522 35.006418 
L 288.696522 17.426625 
L 282.505739 17.426625 
z
" clip-path="url(#pc628fcc887)" style="fill: #59595c"/>
   </g>
   <g id="patch_80">
    <path d="M 288.696522 35.006418 
L 289.42552 35.006418 
L 289.42552 17.426625 
L 288.696522 17.426625 
z
" clip-path="url(#pc628fcc887)" style="fill: #f49f7b"/>
   </g>
   <g id="patch_81">
    <path d="M 289.42552 35.006418 
L 293.565998 35.006418 
L 293.565998 17.426625 
L 289.42552 17.426625 
z
" clip-path="url(#pc628fcc887)" style="fill: #59595c"/>
   </g>
   <g id="patch_82">
    <path d="M 293.565998 35.006418 
L 294.249433 35.006418 
L 294.249433 17.426625 
L 293.565998 17.426625 
z
" clip-path="url(#pc628fcc887)" style="fill: #f49f7b"/>
   </g>
   <g id="patch_83">
    <path d="M 294.249433 35.006418 
L 299.221425 35.006418 
L 299.221425 17.426625 
L 294.249433 17.426625 
z
" clip-path="url(#pc628fcc887)" style="fill: #59595c"/>
   </g>
   <g id="patch_84">
    <path d="M 299.221425 35.006418 
L 330.112696 35.006418 
L 330.112696 17.426625 
L 299.221425 17.426625 
z
" clip-path="url(#pc628fcc887)" style="fill: #91d1bc"/>
   </g>
   <g id="patch_85">
    <path d="M 330.112696 35.006418 
L 336.126925 35.006418 
L 336.126925 17.426625 
L 330.112696 17.426625 
z
" clip-path="url(#pc628fcc887)" style="fill: #59595c"/>
   </g>
   <g id="patch_86">
    <path d="M 336.126925 35.006418 
L 337.28307 35.006418 
L 337.28307 17.426625 
L 336.126925 17.426625 
z
" clip-path="url(#pc628fcc887)" style="fill: #f49f7b"/>
   </g>
   <g id="patch_87">
    <path d="M 337.28307 35.006418 
L 343.11505 35.006418 
L 343.11505 17.426625 
L 337.28307 17.426625 
z
" clip-path="url(#pc628fcc887)" style="fill: #59595c"/>
   </g>
   <g id="patch_88">
    <path d="M 343.11505 35.006418 
L 343.969344 35.006418 
L 343.969344 17.426625 
L 343.11505 17.426625 
z
" clip-path="url(#pc628fcc887)" style="fill: #f49f7b"/>
   </g>
   <g id="patch_89">
    <path d="M 343.969344 35.006418 
L 345.296347 35.006418 
L 345.296347 17.426625 
L 343.969344 17.426625 
z
" clip-path="url(#pc628fcc887)" style="fill: #59595c"/>
   </g>
   <g id="patch_90">
    <path d="M 345.296347 35.006418 
L 345.803229 35.006418 
L 345.803229 17.426625 
L 345.296347 17.426625 
z
" clip-path="url(#pc628fcc887)" style="fill: #f49f7b"/>
   </g>
   <g id="patch_91">
    <path d="M 345.803229 35.006418 
L 347.130232 35.006418 
L 347.130232 17.426625 
L 345.803229 17.426625 
z
" clip-path="url(#pc628fcc887)" style="fill: #59595c"/>
   </g>
   <g id="patch_92">
    <path d="M 347.130232 35.006418 
L 347.557379 35.006418 
L 347.557379 17.426625 
L 347.130232 17.426625 
z
" clip-path="url(#pc628fcc887)" style="fill: #f49f7b"/>
   </g>
   <g id="patch_93">
    <path d="M 347.557379 35.006418 
L 348.240814 35.006418 
L 348.240814 17.426625 
L 347.557379 17.426625 
z
" clip-path="url(#pc628fcc887)" style="fill: #59595c"/>
   </g>
   <g id="patch_94">
    <path d="M 348.240814 35.006418 
L 348.713523 35.006418 
L 348.713523 17.426625 
L 348.240814 17.426625 
z
" clip-path="url(#pc628fcc887)" style="fill: #f49f7b"/>
   </g>
   <g id="patch_95">
    <path d="M 348.713523 35.006418 
L 351.27071 35.006418 
L 351.27071 17.426625 
L 348.713523 17.426625 
z
" clip-path="url(#pc628fcc887)" style="fill: #59595c"/>
   </g>
   <g id="patch_96">
    <path d="M 351.27071 35.006418 
L 352.255996 35.006418 
L 352.255996 17.426625 
L 351.27071 17.426625 
z
" clip-path="url(#pc628fcc887)" style="fill: #f49f7b"/>
   </g>
   <g id="patch_97">
    <path d="M 352.255996 35.006418 
L 354.266434 35.006418 
L 354.266434 17.426625 
L 352.255996 17.426625 
z
" clip-path="url(#pc628fcc887)" style="fill: #59595c"/>
   </g>
   <g id="patch_98">
    <path d="M 354.266434 35.006418 
L 355.758601 35.006418 
L 355.758601 17.426625 
L 354.266434 17.426625 
z
" clip-path="url(#pc628fcc887)" style="fill: #f49f7b"/>
   </g>
   <g id="patch_99">
    <path d="M 355.758601 35.006418 
L 359.859213 35.006418 
L 359.859213 17.426625 
L 355.758601 17.426625 
z
" clip-path="url(#pc628fcc887)" style="fill: #59595c"/>
   </g>
   <g id="patch_100">
    <path d="M 359.859213 35.006418 
L 360.542648 35.006418 
L 360.542648 17.426625 
L 359.859213 17.426625 
z
" clip-path="url(#pc628fcc887)" style="fill: #f49f7b"/>
   </g>
   <g id="patch_101">
    <path d="M 360.542648 35.006418 
L 361.613363 35.006418 
L 361.613363 17.426625 
L 360.542648 17.426625 
z
" clip-path="url(#pc628fcc887)" style="fill: #59595c"/>
   </g>
   <g id="patch_102">
    <path d="M 361.613363 35.006418 
L 362.638516 35.006418 
L 362.638516 17.426625 
L 361.613363 17.426625 
z
" clip-path="url(#pc628fcc887)" style="fill: #f49f7b"/>
   </g>
   <g id="patch_103">
    <path d="M 362.638516 35.006418 
L 371.460525 35.006418 
L 371.460525 17.426625 
L 362.638516 17.426625 
z
" clip-path="url(#pc628fcc887)" style="fill: #59595c"/>
   </g>
   <g id="matplotlib.axis_3"/>
   <g id="matplotlib.axis_4"/>
   <g id="text_3">
    <text style="font: 9px 'Arial'; text-anchor: end" x="40.460625" y="28.543162" transform="rotate(-0 40.460625 28.543162)">labels</text>
   </g>
  </g>
  <g id="axes_3">
   <g id="patch_104">
    <path d="M 44.385525 56.26698 
L 45.399287 56.26698 
L 45.399287 38.687187 
L 44.385525 38.687187 
z
" clip-path="url(#p9d5f216f53)" style="fill: #f49f7b"/>
   </g>
   <g id="patch_105">
    <path d="M 45.399287 56.26698 
L 46.094113 56.26698 
L 46.094113 38.687187 
L 45.399287 38.687187 
z
" clip-path="url(#p9d5f216f53)" style="fill: #59595c"/>
   </g>
   <g id="patch_106">
    <path d="M 46.094113 56.26698 
L 46.390268 56.26698 
L 46.390268 38.687187 
L 46.094113 38.687187 
z
" clip-path="url(#p9d5f216f53)" style="fill: #f49f7b"/>
   </g>
   <g id="patch_107">
    <path d="M 46.390268 56.26698 
L 49.454336 56.26698 
L 49.454336 38.687187 
L 46.390268 38.687187 
z
" clip-path="url(#p9d5f216f53)" style="fill: #59595c"/>
   </g>
   <g id="patch_108">
    <path d="M 49.454336 56.26698 
L 49.92135 56.26698 
L 49.92135 38.687187 
L 49.454336 38.687187 
z
" clip-path="url(#p9d5f216f53)" style="fill: #f49f7b"/>
   </g>
   <g id="patch_109">
    <path d="M 49.92135 56.26698 
L 55.684987 56.26698 
L 55.684987 38.687187 
L 49.92135 38.687187 
z
" clip-path="url(#p9d5f216f53)" style="fill: #59595c"/>
   </g>
   <g id="patch_110">
    <path d="M 55.684987 56.26698 
L 56.351336 56.26698 
L 56.351336 38.687187 
L 55.684987 38.687187 
z
" clip-path="url(#p9d5f216f53)" style="fill: #f49f7b"/>
   </g>
   <g id="patch_111">
    <path d="M 56.351336 56.26698 
L 98.388296 56.26698 
L 98.388296 38.687187 
L 56.351336 38.687187 
z
" clip-path="url(#p9d5f216f53)" style="fill: #59595c"/>
   </g>
   <g id="patch_112">
    <path d="M 98.388296 56.26698 
L 98.838224 56.26698 
L 98.838224 38.687187 
L 98.388296 38.687187 
z
" clip-path="url(#p9d5f216f53)" style="fill: #f49f7b"/>
   </g>
   <g id="patch_113">
    <path d="M 98.838224 56.26698 
L 100.40443 56.26698 
L 100.40443 38.687187 
L 98.838224 38.687187 
z
" clip-path="url(#p9d5f216f53)" style="fill: #59595c"/>
   </g>
   <g id="patch_114">
    <path d="M 100.40443 56.26698 
L 100.518336 56.26698 
L 100.518336 38.687187 
L 100.40443 38.687187 
z
" clip-path="url(#p9d5f216f53)" style="fill: #f49f7b"/>
   </g>
   <g id="patch_115">
    <path d="M 100.518336 56.26698 
L 100.700585 56.26698 
L 100.700585 38.687187 
L 100.518336 38.687187 
z
" clip-path="url(#p9d5f216f53)" style="fill: #59595c"/>
   </g>
   <g id="patch_116">
    <path d="M 100.700585 56.26698 
L 100.706281 56.26698 
L 100.706281 38.687187 
L 100.700585 38.687187 
z
" clip-path="url(#p9d5f216f53)" style="fill: #f49f7b"/>
   </g>
   <g id="patch_117">
    <path d="M 100.706281 56.26698 
L 100.711976 56.26698 
L 100.711976 38.687187 
L 100.706281 38.687187 
z
" clip-path="url(#p9d5f216f53)" style="fill: #59595c"/>
   </g>
   <g id="patch_118">
    <path d="M 100.711976 56.26698 
L 100.751843 56.26698 
L 100.751843 38.687187 
L 100.711976 38.687187 
z
" clip-path="url(#p9d5f216f53)" style="fill: #f49f7b"/>
   </g>
   <g id="patch_119">
    <path d="M 100.751843 56.26698 
L 100.757538 56.26698 
L 100.757538 38.687187 
L 100.751843 38.687187 
z
" clip-path="url(#p9d5f216f53)" style="fill: #59595c"/>
   </g>
   <g id="patch_120">
    <path d="M 100.757538 56.26698 
L 100.98535 56.26698 
L 100.98535 38.687187 
L 100.757538 38.687187 
z
" clip-path="url(#p9d5f216f53)" style="fill: #f49f7b"/>
   </g>
   <g id="patch_121">
    <path d="M 100.98535 56.26698 
L 115.758941 56.26698 
L 115.758941 38.687187 
L 100.98535 38.687187 
z
" clip-path="url(#p9d5f216f53)" style="fill: #59595c"/>
   </g>
   <g id="patch_122">
    <path d="M 115.758941 56.26698 
L 115.827284 56.26698 
L 115.827284 38.687187 
L 115.758941 38.687187 
z
" clip-path="url(#p9d5f216f53)" style="fill: #f49f7b"/>
   </g>
   <g id="patch_123">
    <path d="M 115.827284 56.26698 
L 130.133861 56.26698 
L 130.133861 38.687187 
L 115.827284 38.687187 
z
" clip-path="url(#p9d5f216f53)" style="fill: #59595c"/>
   </g>
   <g id="patch_124">
    <path d="M 130.133861 56.26698 
L 130.600875 56.26698 
L 130.600875 38.687187 
L 130.133861 38.687187 
z
" clip-path="url(#p9d5f216f53)" style="fill: #f49f7b"/>
   </g>
   <g id="patch_125">
    <path d="M 130.600875 56.26698 
L 132.560056 56.26698 
L 132.560056 38.687187 
L 130.600875 38.687187 
z
" clip-path="url(#p9d5f216f53)" style="fill: #59595c"/>
   </g>
   <g id="patch_126">
    <path d="M 132.560056 56.26698 
L 134.359769 56.26698 
L 134.359769 38.687187 
L 132.560056 38.687187 
z
" clip-path="url(#p9d5f216f53)" style="fill: #f49f7b"/>
   </g>
   <g id="patch_127">
    <path d="M 134.359769 56.26698 
L 137.150463 56.26698 
L 137.150463 38.687187 
L 134.359769 38.687187 
z
" clip-path="url(#p9d5f216f53)" style="fill: #59595c"/>
   </g>
   <g id="patch_128">
    <path d="M 137.150463 56.26698 
L 139.223549 56.26698 
L 139.223549 38.687187 
L 137.150463 38.687187 
z
" clip-path="url(#p9d5f216f53)" style="fill: #f49f7b"/>
   </g>
   <g id="patch_129">
    <path d="M 139.223549 56.26698 
L 142.071196 56.26698 
L 142.071196 38.687187 
L 139.223549 38.687187 
z
" clip-path="url(#p9d5f216f53)" style="fill: #59595c"/>
   </g>
   <g id="patch_130">
    <path d="M 142.071196 56.26698 
L 142.435695 56.26698 
L 142.435695 38.687187 
L 142.071196 38.687187 
z
" clip-path="url(#p9d5f216f53)" style="fill: #f49f7b"/>
   </g>
   <g id="patch_131">
    <path d="M 142.435695 56.26698 
L 142.617944 56.26698 
L 142.617944 38.687187 
L 142.435695 38.687187 
z
" clip-path="url(#p9d5f216f53)" style="fill: #59595c"/>
   </g>
   <g id="patch_132">
    <path d="M 142.617944 56.26698 
L 142.971052 56.26698 
L 142.971052 38.687187 
L 142.617944 38.687187 
z
" clip-path="url(#p9d5f216f53)" style="fill: #f49f7b"/>
   </g>
   <g id="patch_133">
    <path d="M 142.971052 56.26698 
L 148.449925 56.26698 
L 148.449925 38.687187 
L 142.971052 38.687187 
z
" clip-path="url(#p9d5f216f53)" style="fill: #59595c"/>
   </g>
   <g id="patch_134">
    <path d="M 148.449925 56.26698 
L 150.090169 56.26698 
L 150.090169 38.687187 
L 148.449925 38.687187 
z
" clip-path="url(#p9d5f216f53)" style="fill: #f49f7b"/>
   </g>
   <g id="patch_135">
    <path d="M 150.090169 56.26698 
L 154.156608 56.26698 
L 154.156608 38.687187 
L 150.090169 38.687187 
z
" clip-path="url(#p9d5f216f53)" style="fill: #59595c"/>
   </g>
   <g id="patch_136">
    <path d="M 154.156608 56.26698 
L 154.207866 56.26698 
L 154.207866 38.687187 
L 154.156608 38.687187 
z
" clip-path="url(#p9d5f216f53)" style="fill: #f49f7b"/>
   </g>
   <g id="patch_137">
    <path d="M 154.207866 56.26698 
L 160.660633 56.26698 
L 160.660633 38.687187 
L 154.207866 38.687187 
z
" clip-path="url(#p9d5f216f53)" style="fill: #59595c"/>
   </g>
   <g id="patch_138">
    <path d="M 160.660633 56.26698 
L 161.833864 56.26698 
L 161.833864 38.687187 
L 160.660633 38.687187 
z
" clip-path="url(#p9d5f216f53)" style="fill: #f49f7b"/>
   </g>
   <g id="patch_139">
    <path d="M 161.833864 56.26698 
L 174.329337 56.26698 
L 174.329337 38.687187 
L 161.833864 38.687187 
z
" clip-path="url(#p9d5f216f53)" style="fill: #59595c"/>
   </g>
   <g id="patch_140">
    <path d="M 174.329337 56.26698 
L 174.511587 56.26698 
L 174.511587 38.687187 
L 174.329337 38.687187 
z
" clip-path="url(#p9d5f216f53)" style="fill: #f49f7b"/>
   </g>
   <g id="patch_141">
    <path d="M 174.511587 56.26698 
L 175.058335 56.26698 
L 175.058335 38.687187 
L 174.511587 38.687187 
z
" clip-path="url(#p9d5f216f53)" style="fill: #59595c"/>
   </g>
   <g id="patch_142">
    <path d="M 175.058335 56.26698 
L 175.605083 56.26698 
L 175.605083 38.687187 
L 175.058335 38.687187 
z
" clip-path="url(#p9d5f216f53)" style="fill: #f49f7b"/>
   </g>
   <g id="patch_143">
    <path d="M 175.605083 56.26698 
L 201.848995 56.26698 
L 201.848995 38.687187 
L 175.605083 38.687187 
z
" clip-path="url(#p9d5f216f53)" style="fill: #59595c"/>
   </g>
   <g id="patch_144">
    <path d="M 201.848995 56.26698 
L 202.794413 56.26698 
L 202.794413 38.687187 
L 201.848995 38.687187 
z
" clip-path="url(#p9d5f216f53)" style="fill: #91d1bc"/>
   </g>
   <g id="patch_145">
    <path d="M 202.794413 56.26698 
L 202.845671 56.26698 
L 202.845671 38.687187 
L 202.794413 38.687187 
z
" clip-path="url(#p9d5f216f53)" style="fill: #59595c"/>
   </g>
   <g id="patch_146">
    <path d="M 202.845671 56.26698 
L 202.851366 56.26698 
L 202.851366 38.687187 
L 202.845671 38.687187 
z
" clip-path="url(#p9d5f216f53)" style="fill: #91d1bc"/>
   </g>
   <g id="patch_147">
    <path d="M 202.851366 56.26698 
L 202.879843 56.26698 
L 202.879843 38.687187 
L 202.851366 38.687187 
z
" clip-path="url(#p9d5f216f53)" style="fill: #59595c"/>
   </g>
   <g id="patch_148">
    <path d="M 202.879843 56.26698 
L 202.885538 56.26698 
L 202.885538 38.687187 
L 202.879843 38.687187 
z
" clip-path="url(#p9d5f216f53)" style="fill: #91d1bc"/>
   </g>
   <g id="patch_149">
    <path d="M 202.885538 56.26698 
L 202.9311 56.26698 
L 202.9311 38.687187 
L 202.885538 38.687187 
z
" clip-path="url(#p9d5f216f53)" style="fill: #59595c"/>
   </g>
   <g id="patch_150">
    <path d="M 202.9311 56.26698 
L 202.936796 56.26698 
L 202.936796 38.687187 
L 202.9311 38.687187 
z
" clip-path="url(#p9d5f216f53)" style="fill: #91d1bc"/>
   </g>
   <g id="patch_151">
    <path d="M 202.936796 56.26698 
L 202.942491 56.26698 
L 202.942491 38.687187 
L 202.936796 38.687187 
z
" clip-path="url(#p9d5f216f53)" style="fill: #59595c"/>
   </g>
   <g id="patch_152">
    <path d="M 202.942491 56.26698 
L 203.153217 56.26698 
L 203.153217 38.687187 
L 202.942491 38.687187 
z
" clip-path="url(#p9d5f216f53)" style="fill: #91d1bc"/>
   </g>
   <g id="patch_153">
    <path d="M 203.153217 56.26698 
L 205.812919 56.26698 
L 205.812919 38.687187 
L 203.153217 38.687187 
z
" clip-path="url(#p9d5f216f53)" style="fill: #59595c"/>
   </g>
   <g id="patch_154">
    <path d="M 205.812919 56.26698 
L 208.301762 56.26698 
L 208.301762 38.687187 
L 205.812919 38.687187 
z
" clip-path="url(#p9d5f216f53)" style="fill: #f49f7b"/>
   </g>
   <g id="patch_155">
    <path d="M 208.301762 56.26698 
L 210.186904 56.26698 
L 210.186904 38.687187 
L 208.301762 38.687187 
z
" clip-path="url(#p9d5f216f53)" style="fill: #59595c"/>
   </g>
   <g id="patch_156">
    <path d="M 210.186904 56.26698 
L 210.414716 56.26698 
L 210.414716 38.687187 
L 210.186904 38.687187 
z
" clip-path="url(#p9d5f216f53)" style="fill: #f49f7b"/>
   </g>
   <g id="patch_157">
    <path d="M 210.414716 56.26698 
L 221.531928 56.26698 
L 221.531928 38.687187 
L 210.414716 38.687187 
z
" clip-path="url(#p9d5f216f53)" style="fill: #59595c"/>
   </g>
   <g id="patch_158">
    <path d="M 221.531928 56.26698 
L 222.693768 56.26698 
L 222.693768 38.687187 
L 221.531928 38.687187 
z
" clip-path="url(#p9d5f216f53)" style="fill: #f49f7b"/>
   </g>
   <g id="patch_159">
    <path d="M 222.693768 56.26698 
L 224.590301 56.26698 
L 224.590301 38.687187 
L 222.693768 38.687187 
z
" clip-path="url(#p9d5f216f53)" style="fill: #59595c"/>
   </g>
   <g id="patch_160">
    <path d="M 224.590301 56.26698 
L 227.671455 56.26698 
L 227.671455 38.687187 
L 224.590301 38.687187 
z
" clip-path="url(#p9d5f216f53)" style="fill: #f49f7b"/>
   </g>
   <g id="patch_161">
    <path d="M 227.671455 56.26698 
L 231.191146 56.26698 
L 231.191146 38.687187 
L 227.671455 38.687187 
z
" clip-path="url(#p9d5f216f53)" style="fill: #59595c"/>
   </g>
   <g id="patch_162">
    <path d="M 231.191146 56.26698 
L 232.415634 56.26698 
L 232.415634 38.687187 
L 231.191146 38.687187 
z
" clip-path="url(#p9d5f216f53)" style="fill: #f49f7b"/>
   </g>
   <g id="patch_163">
    <path d="M 232.415634 56.26698 
L 232.83139 56.26698 
L 232.83139 38.687187 
L 232.415634 38.687187 
z
" clip-path="url(#p9d5f216f53)" style="fill: #59595c"/>
   </g>
   <g id="patch_164">
    <path d="M 232.83139 56.26698 
L 234.107136 56.26698 
L 234.107136 38.687187 
L 232.83139 38.687187 
z
" clip-path="url(#p9d5f216f53)" style="fill: #f49f7b"/>
   </g>
   <g id="patch_165">
    <path d="M 234.107136 56.26698 
L 235.382882 56.26698 
L 235.382882 38.687187 
L 234.107136 38.687187 
z
" clip-path="url(#p9d5f216f53)" style="fill: #59595c"/>
   </g>
   <g id="patch_166">
    <path d="M 235.382882 56.26698 
L 237.894506 56.26698 
L 237.894506 38.687187 
L 235.382882 38.687187 
z
" clip-path="url(#p9d5f216f53)" style="fill: #f49f7b"/>
   </g>
   <g id="patch_167">
    <path d="M 237.894506 56.26698 
L 238.082451 56.26698 
L 238.082451 38.687187 
L 237.894506 38.687187 
z
" clip-path="url(#p9d5f216f53)" style="fill: #59595c"/>
   </g>
   <g id="patch_168">
    <path d="M 238.082451 56.26698 
L 238.828534 56.26698 
L 238.828534 38.687187 
L 238.082451 38.687187 
z
" clip-path="url(#p9d5f216f53)" style="fill: #f49f7b"/>
   </g>
   <g id="patch_169">
    <path d="M 238.828534 56.26698 
L 239.181642 56.26698 
L 239.181642 38.687187 
L 238.828534 38.687187 
z
" clip-path="url(#p9d5f216f53)" style="fill: #59595c"/>
   </g>
   <g id="patch_170">
    <path d="M 239.181642 56.26698 
L 240.035936 56.26698 
L 240.035936 38.687187 
L 239.181642 38.687187 
z
" clip-path="url(#p9d5f216f53)" style="fill: #f49f7b"/>
   </g>
   <g id="patch_171">
    <path d="M 240.035936 56.26698 
L 240.759239 56.26698 
L 240.759239 38.687187 
L 240.035936 38.687187 
z
" clip-path="url(#p9d5f216f53)" style="fill: #59595c"/>
   </g>
   <g id="patch_172">
    <path d="M 240.759239 56.26698 
L 240.964269 56.26698 
L 240.964269 38.687187 
L 240.759239 38.687187 
z
" clip-path="url(#p9d5f216f53)" style="fill: #f49f7b"/>
   </g>
   <g id="patch_173">
    <path d="M 240.964269 56.26698 
L 241.76161 56.26698 
L 241.76161 38.687187 
L 240.964269 38.687187 
z
" clip-path="url(#p9d5f216f53)" style="fill: #59595c"/>
   </g>
   <g id="patch_174">
    <path d="M 241.76161 56.26698 
L 242.775372 56.26698 
L 242.775372 38.687187 
L 241.76161 38.687187 
z
" clip-path="url(#p9d5f216f53)" style="fill: #f49f7b"/>
   </g>
   <g id="patch_175">
    <path d="M 242.775372 56.26698 
L 243.458808 56.26698 
L 243.458808 38.687187 
L 242.775372 38.687187 
z
" clip-path="url(#p9d5f216f53)" style="fill: #59595c"/>
   </g>
   <g id="patch_176">
    <path d="M 243.458808 56.26698 
L 244.609257 56.26698 
L 244.609257 38.687187 
L 243.458808 38.687187 
z
" clip-path="url(#p9d5f216f53)" style="fill: #f49f7b"/>
   </g>
   <g id="patch_177">
    <path d="M 244.609257 56.26698 
L 248.282721 56.26698 
L 248.282721 38.687187 
L 244.609257 38.687187 
z
" clip-path="url(#p9d5f216f53)" style="fill: #59595c"/>
   </g>
   <g id="patch_178">
    <path d="M 248.282721 56.26698 
L 249.051586 56.26698 
L 249.051586 38.687187 
L 248.282721 38.687187 
z
" clip-path="url(#p9d5f216f53)" style="fill: #f49f7b"/>
   </g>
   <g id="patch_179">
    <path d="M 249.051586 56.26698 
L 249.137015 56.26698 
L 249.137015 38.687187 
L 249.051586 38.687187 
z
" clip-path="url(#p9d5f216f53)" style="fill: #59595c"/>
   </g>
   <g id="patch_180">
    <path d="M 249.137015 56.26698 
L 251.785326 56.26698 
L 251.785326 38.687187 
L 249.137015 38.687187 
z
" clip-path="url(#p9d5f216f53)" style="fill: #f49f7b"/>
   </g>
   <g id="patch_181">
    <path d="M 251.785326 56.26698 
L 254.154569 56.26698 
L 254.154569 38.687187 
L 251.785326 38.687187 
z
" clip-path="url(#p9d5f216f53)" style="fill: #59595c"/>
   </g>
   <g id="patch_182">
    <path d="M 254.154569 56.26698 
L 262.355791 56.26698 
L 262.355791 38.687187 
L 254.154569 38.687187 
z
" clip-path="url(#p9d5f216f53)" style="fill: #f49f7b"/>
   </g>
   <g id="patch_183">
    <path d="M 262.355791 56.26698 
L 266.484879 56.26698 
L 266.484879 38.687187 
L 262.355791 38.687187 
z
" clip-path="url(#p9d5f216f53)" style="fill: #59595c"/>
   </g>
   <g id="patch_184">
    <path d="M 266.484879 56.26698 
L 266.729776 56.26698 
L 266.729776 38.687187 
L 266.484879 38.687187 
z
" clip-path="url(#p9d5f216f53)" style="fill: #f49f7b"/>
   </g>
   <g id="patch_185">
    <path d="M 266.729776 56.26698 
L 266.820901 56.26698 
L 266.820901 38.687187 
L 266.729776 38.687187 
z
" clip-path="url(#p9d5f216f53)" style="fill: #59595c"/>
   </g>
   <g id="patch_186">
    <path d="M 266.820901 56.26698 
L 267.373344 56.26698 
L 267.373344 38.687187 
L 266.820901 38.687187 
z
" clip-path="url(#p9d5f216f53)" style="fill: #f49f7b"/>
   </g>
   <g id="patch_187">
    <path d="M 267.373344 56.26698 
L 273.564128 56.26698 
L 273.564128 38.687187 
L 267.373344 38.687187 
z
" clip-path="url(#p9d5f216f53)" style="fill: #59595c"/>
   </g>
   <g id="patch_188">
    <path d="M 273.564128 56.26698 
L 274.532328 56.26698 
L 274.532328 38.687187 
L 273.564128 38.687187 
z
" clip-path="url(#p9d5f216f53)" style="fill: #f49f7b"/>
   </g>
   <g id="patch_189">
    <path d="M 274.532328 56.26698 
L 277.48249 56.26698 
L 277.48249 38.687187 
L 274.532328 38.687187 
z
" clip-path="url(#p9d5f216f53)" style="fill: #59595c"/>
   </g>
   <g id="patch_190">
    <path d="M 277.48249 56.26698 
L 279.122734 56.26698 
L 279.122734 38.687187 
L 277.48249 38.687187 
z
" clip-path="url(#p9d5f216f53)" style="fill: #f49f7b"/>
   </g>
   <g id="patch_191">
    <path d="M 279.122734 56.26698 
L 279.669483 56.26698 
L 279.669483 38.687187 
L 279.122734 38.687187 
z
" clip-path="url(#p9d5f216f53)" style="fill: #59595c"/>
   </g>
   <g id="patch_192">
    <path d="M 279.669483 56.26698 
L 280.597815 56.26698 
L 280.597815 38.687187 
L 279.669483 38.687187 
z
" clip-path="url(#p9d5f216f53)" style="fill: #f49f7b"/>
   </g>
   <g id="patch_193">
    <path d="M 280.597815 56.26698 
L 282.186802 56.26698 
L 282.186802 38.687187 
L 280.597815 38.687187 
z
" clip-path="url(#p9d5f216f53)" style="fill: #59595c"/>
   </g>
   <g id="patch_194">
    <path d="M 282.186802 56.26698 
L 282.403223 56.26698 
L 282.403223 38.687187 
L 282.186802 38.687187 
z
" clip-path="url(#p9d5f216f53)" style="fill: #f49f7b"/>
   </g>
   <g id="patch_195">
    <path d="M 282.403223 56.26698 
L 288.662351 56.26698 
L 288.662351 38.687187 
L 282.403223 38.687187 
z
" clip-path="url(#p9d5f216f53)" style="fill: #59595c"/>
   </g>
   <g id="patch_196">
    <path d="M 288.662351 56.26698 
L 289.100888 56.26698 
L 289.100888 38.687187 
L 288.662351 38.687187 
z
" clip-path="url(#p9d5f216f53)" style="fill: #f49f7b"/>
   </g>
   <g id="patch_197">
    <path d="M 289.100888 56.26698 
L 293.554608 56.26698 
L 293.554608 38.687187 
L 289.100888 38.687187 
z
" clip-path="url(#p9d5f216f53)" style="fill: #59595c"/>
   </g>
   <g id="patch_198">
    <path d="M 293.554608 56.26698 
L 294.215262 56.26698 
L 294.215262 38.687187 
L 293.554608 38.687187 
z
" clip-path="url(#p9d5f216f53)" style="fill: #f49f7b"/>
   </g>
   <g id="patch_199">
    <path d="M 294.215262 56.26698 
L 303.726402 56.26698 
L 303.726402 38.687187 
L 294.215262 38.687187 
z
" clip-path="url(#p9d5f216f53)" style="fill: #59595c"/>
   </g>
   <g id="patch_200">
    <path d="M 303.726402 56.26698 
L 304.27315 56.26698 
L 304.27315 38.687187 
L 303.726402 38.687187 
z
" clip-path="url(#p9d5f216f53)" style="fill: #91d1bc"/>
   </g>
   <g id="patch_201">
    <path d="M 304.27315 56.26698 
L 305.902004 56.26698 
L 305.902004 38.687187 
L 304.27315 38.687187 
z
" clip-path="url(#p9d5f216f53)" style="fill: #59595c"/>
   </g>
   <g id="patch_202">
    <path d="M 305.902004 56.26698 
L 305.913394 56.26698 
L 305.913394 38.687187 
L 305.902004 38.687187 
z
" clip-path="url(#p9d5f216f53)" style="fill: #91d1bc"/>
   </g>
   <g id="patch_203">
    <path d="M 305.913394 56.26698 
L 306.277893 56.26698 
L 306.277893 38.687187 
L 305.913394 38.687187 
z
" clip-path="url(#p9d5f216f53)" style="fill: #59595c"/>
   </g>
   <g id="patch_204">
    <path d="M 306.277893 56.26698 
L 307.320132 56.26698 
L 307.320132 38.687187 
L 306.277893 38.687187 
z
" clip-path="url(#p9d5f216f53)" style="fill: #91d1bc"/>
   </g>
   <g id="patch_205">
    <path d="M 307.320132 56.26698 
L 307.348608 56.26698 
L 307.348608 38.687187 
L 307.320132 38.687187 
z
" clip-path="url(#p9d5f216f53)" style="fill: #59595c"/>
   </g>
   <g id="patch_206">
    <path d="M 307.348608 56.26698 
L 307.354303 56.26698 
L 307.354303 38.687187 
L 307.348608 38.687187 
z
" clip-path="url(#p9d5f216f53)" style="fill: #91d1bc"/>
   </g>
   <g id="patch_207">
    <path d="M 307.354303 56.26698 
L 307.359999 56.26698 
L 307.359999 38.687187 
L 307.354303 38.687187 
z
" clip-path="url(#p9d5f216f53)" style="fill: #59595c"/>
   </g>
   <g id="patch_208">
    <path d="M 307.359999 56.26698 
L 307.365694 56.26698 
L 307.365694 38.687187 
L 307.359999 38.687187 
z
" clip-path="url(#p9d5f216f53)" style="fill: #91d1bc"/>
   </g>
   <g id="patch_209">
    <path d="M 307.365694 56.26698 
L 307.735888 56.26698 
L 307.735888 38.687187 
L 307.365694 38.687187 
z
" clip-path="url(#p9d5f216f53)" style="fill: #59595c"/>
   </g>
   <g id="patch_210">
    <path d="M 307.735888 56.26698 
L 308.100387 56.26698 
L 308.100387 38.687187 
L 307.735888 38.687187 
z
" clip-path="url(#p9d5f216f53)" style="fill: #91d1bc"/>
   </g>
   <g id="patch_211">
    <path d="M 308.100387 56.26698 
L 308.117473 56.26698 
L 308.117473 38.687187 
L 308.100387 38.687187 
z
" clip-path="url(#p9d5f216f53)" style="fill: #59595c"/>
   </g>
   <g id="patch_212">
    <path d="M 308.117473 56.26698 
L 308.128863 56.26698 
L 308.128863 38.687187 
L 308.117473 38.687187 
z
" clip-path="url(#p9d5f216f53)" style="fill: #91d1bc"/>
   </g>
   <g id="patch_213">
    <path d="M 308.128863 56.26698 
L 308.134559 56.26698 
L 308.134559 38.687187 
L 308.128863 38.687187 
z
" clip-path="url(#p9d5f216f53)" style="fill: #59595c"/>
   </g>
   <g id="patch_214">
    <path d="M 308.134559 56.26698 
L 308.140254 56.26698 
L 308.140254 38.687187 
L 308.134559 38.687187 
z
" clip-path="url(#p9d5f216f53)" style="fill: #91d1bc"/>
   </g>
   <g id="patch_215">
    <path d="M 308.140254 56.26698 
L 308.151644 56.26698 
L 308.151644 38.687187 
L 308.140254 38.687187 
z
" clip-path="url(#p9d5f216f53)" style="fill: #59595c"/>
   </g>
   <g id="patch_216">
    <path d="M 308.151644 56.26698 
L 308.15734 56.26698 
L 308.15734 38.687187 
L 308.151644 38.687187 
z
" clip-path="url(#p9d5f216f53)" style="fill: #91d1bc"/>
   </g>
   <g id="patch_217">
    <path d="M 308.15734 56.26698 
L 308.282636 56.26698 
L 308.282636 38.687187 
L 308.15734 38.687187 
z
" clip-path="url(#p9d5f216f53)" style="fill: #59595c"/>
   </g>
   <g id="patch_218">
    <path d="M 308.282636 56.26698 
L 312.42881 56.26698 
L 312.42881 38.687187 
L 308.282636 38.687187 
z
" clip-path="url(#p9d5f216f53)" style="fill: #91d1bc"/>
   </g>
   <g id="patch_219">
    <path d="M 312.42881 56.26698 
L 312.4402 56.26698 
L 312.4402 38.687187 
L 312.42881 38.687187 
z
" clip-path="url(#p9d5f216f53)" style="fill: #59595c"/>
   </g>
   <g id="patch_220">
    <path d="M 312.4402 56.26698 
L 312.457286 56.26698 
L 312.457286 38.687187 
L 312.4402 38.687187 
z
" clip-path="url(#p9d5f216f53)" style="fill: #91d1bc"/>
   </g>
   <g id="patch_221">
    <path d="M 312.457286 56.26698 
L 312.462982 56.26698 
L 312.462982 38.687187 
L 312.457286 38.687187 
z
" clip-path="url(#p9d5f216f53)" style="fill: #59595c"/>
   </g>
   <g id="patch_222">
    <path d="M 312.462982 56.26698 
L 312.468677 56.26698 
L 312.468677 38.687187 
L 312.462982 38.687187 
z
" clip-path="url(#p9d5f216f53)" style="fill: #91d1bc"/>
   </g>
   <g id="patch_223">
    <path d="M 312.468677 56.26698 
L 312.474372 56.26698 
L 312.474372 38.687187 
L 312.468677 38.687187 
z
" clip-path="url(#p9d5f216f53)" style="fill: #59595c"/>
   </g>
   <g id="patch_224">
    <path d="M 312.474372 56.26698 
L 330.078524 56.26698 
L 330.078524 38.687187 
L 312.474372 38.687187 
z
" clip-path="url(#p9d5f216f53)" style="fill: #91d1bc"/>
   </g>
   <g id="patch_225">
    <path d="M 330.078524 56.26698 
L 336.71354 56.26698 
L 336.71354 38.687187 
L 330.078524 38.687187 
z
" clip-path="url(#p9d5f216f53)" style="fill: #59595c"/>
   </g>
   <g id="patch_226">
    <path d="M 336.71354 56.26698 
L 337.078039 56.26698 
L 337.078039 38.687187 
L 336.71354 38.687187 
z
" clip-path="url(#p9d5f216f53)" style="fill: #f49f7b"/>
   </g>
   <g id="patch_227">
    <path d="M 337.078039 56.26698 
L 343.274518 56.26698 
L 343.274518 38.687187 
L 337.078039 38.687187 
z
" clip-path="url(#p9d5f216f53)" style="fill: #59595c"/>
   </g>
   <g id="patch_228">
    <path d="M 343.274518 56.26698 
L 343.30869 56.26698 
L 343.30869 38.687187 
L 343.274518 38.687187 
z
" clip-path="url(#p9d5f216f53)" style="fill: #f49f7b"/>
   </g>
   <g id="patch_229">
    <path d="M 343.30869 56.26698 
L 343.508025 56.26698 
L 343.508025 38.687187 
L 343.30869 38.687187 
z
" clip-path="url(#p9d5f216f53)" style="fill: #59595c"/>
   </g>
   <g id="patch_230">
    <path d="M 343.508025 56.26698 
L 343.992125 56.26698 
L 343.992125 38.687187 
L 343.508025 38.687187 
z
" clip-path="url(#p9d5f216f53)" style="fill: #f49f7b"/>
   </g>
   <g id="patch_231">
    <path d="M 343.992125 56.26698 
L 345.296347 56.26698 
L 345.296347 38.687187 
L 343.992125 38.687187 
z
" clip-path="url(#p9d5f216f53)" style="fill: #59595c"/>
   </g>
   <g id="patch_232">
    <path d="M 345.296347 56.26698 
L 345.695018 56.26698 
L 345.695018 38.687187 
L 345.296347 38.687187 
z
" clip-path="url(#p9d5f216f53)" style="fill: #f49f7b"/>
   </g>
   <g id="patch_233">
    <path d="M 345.695018 56.26698 
L 347.284005 56.26698 
L 347.284005 38.687187 
L 345.695018 38.687187 
z
" clip-path="url(#p9d5f216f53)" style="fill: #59595c"/>
   </g>
   <g id="patch_234">
    <path d="M 347.284005 56.26698 
L 347.489035 56.26698 
L 347.489035 38.687187 
L 347.284005 38.687187 
z
" clip-path="url(#p9d5f216f53)" style="fill: #f49f7b"/>
   </g>
   <g id="patch_235">
    <path d="M 347.489035 56.26698 
L 348.195252 56.26698 
L 348.195252 38.687187 
L 347.489035 38.687187 
z
" clip-path="url(#p9d5f216f53)" style="fill: #59595c"/>
   </g>
   <g id="patch_236">
    <path d="M 348.195252 56.26698 
L 348.724914 56.26698 
L 348.724914 38.687187 
L 348.195252 38.687187 
z
" clip-path="url(#p9d5f216f53)" style="fill: #f49f7b"/>
   </g>
   <g id="patch_237">
    <path d="M 348.724914 56.26698 
L 351.27071 56.26698 
L 351.27071 38.687187 
L 348.724914 38.687187 
z
" clip-path="url(#p9d5f216f53)" style="fill: #59595c"/>
   </g>
   <g id="patch_238">
    <path d="M 351.27071 56.26698 
L 351.293491 56.26698 
L 351.293491 38.687187 
L 351.27071 38.687187 
z
" clip-path="url(#p9d5f216f53)" style="fill: #f49f7b"/>
   </g>
   <g id="patch_239">
    <path d="M 351.293491 56.26698 
L 351.321968 56.26698 
L 351.321968 38.687187 
L 351.293491 38.687187 
z
" clip-path="url(#p9d5f216f53)" style="fill: #59595c"/>
   </g>
   <g id="patch_240">
    <path d="M 351.321968 56.26698 
L 352.204738 56.26698 
L 352.204738 38.687187 
L 351.321968 38.687187 
z
" clip-path="url(#p9d5f216f53)" style="fill: #f49f7b"/>
   </g>
   <g id="patch_241">
    <path d="M 352.204738 56.26698 
L 354.277825 56.26698 
L 354.277825 38.687187 
L 352.204738 38.687187 
z
" clip-path="url(#p9d5f216f53)" style="fill: #59595c"/>
   </g>
   <g id="patch_242">
    <path d="M 354.277825 56.26698 
L 355.667477 56.26698 
L 355.667477 38.687187 
L 354.277825 38.687187 
z
" clip-path="url(#p9d5f216f53)" style="fill: #f49f7b"/>
   </g>
   <g id="patch_243">
    <path d="M 355.667477 56.26698 
L 359.807955 56.26698 
L 359.807955 38.687187 
L 355.667477 38.687187 
z
" clip-path="url(#p9d5f216f53)" style="fill: #59595c"/>
   </g>
   <g id="patch_244">
    <path d="M 359.807955 56.26698 
L 360.474304 56.26698 
L 360.474304 38.687187 
L 359.807955 38.687187 
z
" clip-path="url(#p9d5f216f53)" style="fill: #f49f7b"/>
   </g>
   <g id="patch_245">
    <path d="M 360.474304 56.26698 
L 361.550715 56.26698 
L 361.550715 38.687187 
L 360.474304 38.687187 
z
" clip-path="url(#p9d5f216f53)" style="fill: #59595c"/>
   </g>
   <g id="patch_246">
    <path d="M 361.550715 56.26698 
L 362.775203 56.26698 
L 362.775203 38.687187 
L 361.550715 38.687187 
z
" clip-path="url(#p9d5f216f53)" style="fill: #f49f7b"/>
   </g>
   <g id="patch_247">
    <path d="M 362.775203 56.26698 
L 367.695936 56.26698 
L 367.695936 38.687187 
L 362.775203 38.687187 
z
" clip-path="url(#p9d5f216f53)" style="fill: #59595c"/>
   </g>
   <g id="patch_248">
    <path d="M 367.695936 56.26698 
L 367.832623 56.26698 
L 367.832623 38.687187 
L 367.695936 38.687187 
z
" clip-path="url(#p9d5f216f53)" style="fill: #f49f7b"/>
   </g>
   <g id="patch_249">
    <path d="M 367.832623 56.26698 
L 367.878186 56.26698 
L 367.878186 38.687187 
L 367.832623 38.687187 
z
" clip-path="url(#p9d5f216f53)" style="fill: #59595c"/>
   </g>
   <g id="patch_250">
    <path d="M 367.878186 56.26698 
L 368.060435 56.26698 
L 368.060435 38.687187 
L 367.878186 38.687187 
z
" clip-path="url(#p9d5f216f53)" style="fill: #f49f7b"/>
   </g>
   <g id="patch_251">
    <path d="M 368.060435 56.26698 
L 369.882929 56.26698 
L 369.882929 38.687187 
L 368.060435 38.687187 
z
" clip-path="url(#p9d5f216f53)" style="fill: #59595c"/>
   </g>
   <g id="patch_252">
    <path d="M 369.882929 56.26698 
L 370.429677 56.26698 
L 370.429677 38.687187 
L 369.882929 38.687187 
z
" clip-path="url(#p9d5f216f53)" style="fill: #f49f7b"/>
   </g>
   <g id="patch_253">
    <path d="M 370.429677 56.26698 
L 371.460525 56.26698 
L 371.460525 38.687187 
L 370.429677 38.687187 
z
" clip-path="url(#p9d5f216f53)" style="fill: #59595c"/>
   </g>
   <g id="matplotlib.axis_5"/>
   <g id="matplotlib.axis_6"/>
   <g id="text_4">
    <text style="font: 9px 'Arial'; text-anchor: end" x="40.460625" y="49.803724" transform="rotate(-0 40.460625 49.803724)">prediction</text>
   </g>
  </g>
  <g id="axes_4">
   <g id="matplotlib.axis_7"/>
   <g id="matplotlib.axis_8"/>
   <g id="text_5">
    <text style="font: 9px 'Arial'; text-anchor: start" x="44.385525" y="66.389781" transform="rotate(-0 44.385525 66.389781)">0</text>
   </g>
   <g id="text_6">
    <text style="font: 9px 'Arial'; text-anchor: end" x="371.460525" y="66.389781" transform="rotate(-0 371.460525 66.389781)">57429</text>
   </g>
  </g>
  <g id="axes_5">
   <g id="matplotlib.axis_9"/>
   <g id="matplotlib.axis_10"/>
   <g id="text_7">
    <text style="font: italic 10px 'Arial'; text-anchor: start" x="44.385525" y="81.552244" transform="rotate(-0 44.385525 81.552244)">Example video 2: accuracy </text>
   </g>
   <g id="text_8">
    <text style="font: italic 700 10px 'Arial'; text-anchor: start" x="166.3074" y="81.600682" transform="rotate(-0 166.3074 81.600682)">94.4%</text>
   </g>
  </g>
  <g id="axes_6">
   <g id="patch_254">
    <path d="M 44.385525 106.863823 
L 48.436097 106.863823 
L 48.436097 89.28403 
L 44.385525 89.28403 
z
" clip-path="url(#p7a0c252cd8)" style="fill: #59595c"/>
   </g>
   <g id="patch_255">
    <path d="M 48.436097 106.863823 
L 48.91501 106.863823 
L 48.91501 89.28403 
L 48.436097 89.28403 
z
" clip-path="url(#p7a0c252cd8)" style="fill: #f49f7b"/>
   </g>
   <g id="patch_256">
    <path d="M 48.91501 106.863823 
L 51.759642 106.863823 
L 51.759642 89.28403 
L 48.91501 89.28403 
z
" clip-path="url(#p7a0c252cd8)" style="fill: #59595c"/>
   </g>
   <g id="patch_257">
    <path d="M 51.759642 106.863823 
L 52.365497 106.863823 
L 52.365497 89.28403 
L 51.759642 89.28403 
z
" clip-path="url(#p7a0c252cd8)" style="fill: #f49f7b"/>
   </g>
   <g id="patch_258">
    <path d="M 52.365497 106.863823 
L 57.89897 106.863823 
L 57.89897 89.28403 
L 52.365497 89.28403 
z
" clip-path="url(#p7a0c252cd8)" style="fill: #59595c"/>
   </g>
   <g id="patch_259">
    <path d="M 57.89897 106.863823 
L 58.158622 106.863823 
L 58.158622 89.28403 
L 57.89897 89.28403 
z
" clip-path="url(#p7a0c252cd8)" style="fill: #f49f7b"/>
   </g>
   <g id="patch_260">
    <path d="M 58.158622 106.863823 
L 60.137748 106.863823 
L 60.137748 89.28403 
L 58.158622 89.28403 
z
" clip-path="url(#p7a0c252cd8)" style="fill: #59595c"/>
   </g>
   <g id="patch_261">
    <path d="M 60.137748 106.863823 
L 60.530111 106.863823 
L 60.530111 89.28403 
L 60.137748 89.28403 
z
" clip-path="url(#p7a0c252cd8)" style="fill: #f49f7b"/>
   </g>
   <g id="patch_262">
    <path d="M 60.530111 106.863823 
L 60.876314 106.863823 
L 60.876314 89.28403 
L 60.530111 89.28403 
z
" clip-path="url(#p7a0c252cd8)" style="fill: #59595c"/>
   </g>
   <g id="patch_263">
    <path d="M 60.876314 106.863823 
L 61.522559 106.863823 
L 61.522559 89.28403 
L 60.876314 89.28403 
z
" clip-path="url(#p7a0c252cd8)" style="fill: #f49f7b"/>
   </g>
   <g id="patch_264">
    <path d="M 61.522559 106.863823 
L 65.55005 106.863823 
L 65.55005 89.28403 
L 61.522559 89.28403 
z
" clip-path="url(#p7a0c252cd8)" style="fill: #59595c"/>
   </g>
   <g id="patch_265">
    <path d="M 65.55005 106.863823 
L 68.319672 106.863823 
L 68.319672 89.28403 
L 65.55005 89.28403 
z
" clip-path="url(#p7a0c252cd8)" style="fill: #f49f7b"/>
   </g>
   <g id="patch_266">
    <path d="M 68.319672 106.863823 
L 85.497096 106.863823 
L 85.497096 89.28403 
L 68.319672 89.28403 
z
" clip-path="url(#p7a0c252cd8)" style="fill: #59595c"/>
   </g>
   <g id="patch_267">
    <path d="M 85.497096 106.863823 
L 86.276052 106.863823 
L 86.276052 89.28403 
L 85.497096 89.28403 
z
" clip-path="url(#p7a0c252cd8)" style="fill: #f49f7b"/>
   </g>
   <g id="patch_268">
    <path d="M 86.276052 106.863823 
L 87.447371 106.863823 
L 87.447371 89.28403 
L 86.276052 89.28403 
z
" clip-path="url(#p7a0c252cd8)" style="fill: #59595c"/>
   </g>
   <g id="patch_269">
    <path d="M 87.447371 106.863823 
L 89.478427 106.863823 
L 89.478427 89.28403 
L 87.447371 89.28403 
z
" clip-path="url(#p7a0c252cd8)" style="fill: #f49f7b"/>
   </g>
   <g id="patch_270">
    <path d="M 89.478427 106.863823 
L 91.2556 106.863823 
L 91.2556 89.28403 
L 89.478427 89.28403 
z
" clip-path="url(#p7a0c252cd8)" style="fill: #59595c"/>
   </g>
   <g id="patch_271">
    <path d="M 91.2556 106.863823 
L 92.161497 106.863823 
L 92.161497 89.28403 
L 91.2556 89.28403 
z
" clip-path="url(#p7a0c252cd8)" style="fill: #f49f7b"/>
   </g>
   <g id="patch_272">
    <path d="M 92.161497 106.863823 
L 98.093104 106.863823 
L 98.093104 89.28403 
L 92.161497 89.28403 
z
" clip-path="url(#p7a0c252cd8)" style="fill: #59595c"/>
   </g>
   <g id="patch_273">
    <path d="M 98.093104 106.863823 
L 98.739349 106.863823 
L 98.739349 89.28403 
L 98.093104 89.28403 
z
" clip-path="url(#p7a0c252cd8)" style="fill: #f49f7b"/>
   </g>
   <g id="patch_274">
    <path d="M 98.739349 106.863823 
L 105.882664 106.863823 
L 105.882664 89.28403 
L 98.739349 89.28403 
z
" clip-path="url(#p7a0c252cd8)" style="fill: #59595c"/>
   </g>
   <g id="patch_275">
    <path d="M 105.882664 106.863823 
L 106.228867 106.863823 
L 106.228867 89.28403 
L 105.882664 89.28403 
z
" clip-path="url(#p7a0c252cd8)" style="fill: #f49f7b"/>
   </g>
   <g id="patch_276">
    <path d="M 106.228867 106.863823 
L 120.377017 106.863823 
L 120.377017 89.28403 
L 106.228867 89.28403 
z
" clip-path="url(#p7a0c252cd8)" style="fill: #59595c"/>
   </g>
   <g id="patch_277">
    <path d="M 120.377017 106.863823 
L 120.809771 106.863823 
L 120.809771 89.28403 
L 120.377017 89.28403 
z
" clip-path="url(#p7a0c252cd8)" style="fill: #f49f7b"/>
   </g>
   <g id="patch_278">
    <path d="M 120.809771 106.863823 
L 124.098696 106.863823 
L 124.098696 89.28403 
L 120.809771 89.28403 
z
" clip-path="url(#p7a0c252cd8)" style="fill: #59595c"/>
   </g>
   <g id="patch_279">
    <path d="M 124.098696 106.863823 
L 124.358348 106.863823 
L 124.358348 89.28403 
L 124.098696 89.28403 
z
" clip-path="url(#p7a0c252cd8)" style="fill: #f49f7b"/>
   </g>
   <g id="patch_280">
    <path d="M 124.358348 106.863823 
L 125.096914 106.863823 
L 125.096914 89.28403 
L 124.358348 89.28403 
z
" clip-path="url(#p7a0c252cd8)" style="fill: #59595c"/>
   </g>
   <g id="patch_281">
    <path d="M 125.096914 106.863823 
L 125.396957 106.863823 
L 125.396957 89.28403 
L 125.096914 89.28403 
z
" clip-path="url(#p7a0c252cd8)" style="fill: #f49f7b"/>
   </g>
   <g id="patch_282">
    <path d="M 125.396957 106.863823 
L 143.918801 106.863823 
L 143.918801 89.28403 
L 125.396957 89.28403 
z
" clip-path="url(#p7a0c252cd8)" style="fill: #59595c"/>
   </g>
   <g id="patch_283">
    <path d="M 143.918801 106.863823 
L 145.782526 106.863823 
L 145.782526 89.28403 
L 143.918801 89.28403 
z
" clip-path="url(#p7a0c252cd8)" style="fill: #f49f7b"/>
   </g>
   <g id="patch_284">
    <path d="M 145.782526 106.863823 
L 154.385663 106.863823 
L 154.385663 89.28403 
L 145.782526 89.28403 
z
" clip-path="url(#p7a0c252cd8)" style="fill: #59595c"/>
   </g>
   <g id="patch_285">
    <path d="M 154.385663 106.863823 
L 154.818416 106.863823 
L 154.818416 89.28403 
L 154.385663 89.28403 
z
" clip-path="url(#p7a0c252cd8)" style="fill: #f49f7b"/>
   </g>
   <g id="patch_286">
    <path d="M 154.818416 106.863823 
L 160.063387 106.863823 
L 160.063387 89.28403 
L 154.818416 89.28403 
z
" clip-path="url(#p7a0c252cd8)" style="fill: #59595c"/>
   </g>
   <g id="patch_287">
    <path d="M 160.063387 106.863823 
L 160.969284 106.863823 
L 160.969284 89.28403 
L 160.063387 89.28403 
z
" clip-path="url(#p7a0c252cd8)" style="fill: #f49f7b"/>
   </g>
   <g id="patch_288">
    <path d="M 160.969284 106.863823 
L 162.331015 106.863823 
L 162.331015 89.28403 
L 160.969284 89.28403 
z
" clip-path="url(#p7a0c252cd8)" style="fill: #59595c"/>
   </g>
   <g id="patch_289">
    <path d="M 162.331015 106.863823 
L 163.109971 106.863823 
L 163.109971 89.28403 
L 162.331015 89.28403 
z
" clip-path="url(#p7a0c252cd8)" style="fill: #f49f7b"/>
   </g>
   <g id="patch_290">
    <path d="M 163.109971 106.863823 
L 165.014085 106.863823 
L 165.014085 89.28403 
L 163.109971 89.28403 
z
" clip-path="url(#p7a0c252cd8)" style="fill: #59595c"/>
   </g>
   <g id="patch_291">
    <path d="M 165.014085 106.863823 
L 165.446839 106.863823 
L 165.446839 89.28403 
L 165.014085 89.28403 
z
" clip-path="url(#p7a0c252cd8)" style="fill: #f49f7b"/>
   </g>
   <g id="patch_292">
    <path d="M 165.446839 106.863823 
L 234.947031 106.863823 
L 234.947031 89.28403 
L 165.446839 89.28403 
z
" clip-path="url(#p7a0c252cd8)" style="fill: #59595c"/>
   </g>
   <g id="patch_293">
    <path d="M 234.947031 106.863823 
L 235.293233 106.863823 
L 235.293233 89.28403 
L 234.947031 89.28403 
z
" clip-path="url(#p7a0c252cd8)" style="fill: #f49f7b"/>
   </g>
   <g id="patch_294">
    <path d="M 235.293233 106.863823 
L 238.622549 106.863823 
L 238.622549 89.28403 
L 235.293233 89.28403 
z
" clip-path="url(#p7a0c252cd8)" style="fill: #59595c"/>
   </g>
   <g id="patch_295">
    <path d="M 238.622549 106.863823 
L 238.928362 106.863823 
L 238.928362 89.28403 
L 238.622549 89.28403 
z
" clip-path="url(#p7a0c252cd8)" style="fill: #f49f7b"/>
   </g>
   <g id="patch_296">
    <path d="M 238.928362 106.863823 
L 241.784534 106.863823 
L 241.784534 89.28403 
L 238.928362 89.28403 
z
" clip-path="url(#p7a0c252cd8)" style="fill: #59595c"/>
   </g>
   <g id="patch_297">
    <path d="M 241.784534 106.863823 
L 245.07346 106.863823 
L 245.07346 89.28403 
L 241.784534 89.28403 
z
" clip-path="url(#p7a0c252cd8)" style="fill: #f49f7b"/>
   </g>
   <g id="patch_298">
    <path d="M 245.07346 106.863823 
L 245.892806 106.863823 
L 245.892806 89.28403 
L 245.07346 89.28403 
z
" clip-path="url(#p7a0c252cd8)" style="fill: #59595c"/>
   </g>
   <g id="patch_299">
    <path d="M 245.892806 106.863823 
L 246.844863 106.863823 
L 246.844863 89.28403 
L 245.892806 89.28403 
z
" clip-path="url(#p7a0c252cd8)" style="fill: #f49f7b"/>
   </g>
   <g id="patch_300">
    <path d="M 246.844863 106.863823 
L 255.499931 106.863823 
L 255.499931 89.28403 
L 246.844863 89.28403 
z
" clip-path="url(#p7a0c252cd8)" style="fill: #59595c"/>
   </g>
   <g id="patch_301">
    <path d="M 255.499931 106.863823 
L 256.192336 106.863823 
L 256.192336 89.28403 
L 255.499931 89.28403 
z
" clip-path="url(#p7a0c252cd8)" style="fill: #f49f7b"/>
   </g>
   <g id="patch_302">
    <path d="M 256.192336 106.863823 
L 258.488814 106.863823 
L 258.488814 89.28403 
L 256.192336 89.28403 
z
" clip-path="url(#p7a0c252cd8)" style="fill: #59595c"/>
   </g>
   <g id="patch_303">
    <path d="M 258.488814 106.863823 
L 259.481262 106.863823 
L 259.481262 89.28403 
L 258.488814 89.28403 
z
" clip-path="url(#p7a0c252cd8)" style="fill: #91d1bc"/>
   </g>
   <g id="patch_304">
    <path d="M 259.481262 106.863823 
L 259.683214 106.863823 
L 259.683214 89.28403 
L 259.481262 89.28403 
z
" clip-path="url(#p7a0c252cd8)" style="fill: #f49f7b"/>
   </g>
   <g id="patch_305">
    <path d="M 259.683214 106.863823 
L 262.233573 106.863823 
L 262.233573 89.28403 
L 259.683214 89.28403 
z
" clip-path="url(#p7a0c252cd8)" style="fill: #59595c"/>
   </g>
   <g id="patch_306">
    <path d="M 262.233573 106.863823 
L 262.712487 106.863823 
L 262.712487 89.28403 
L 262.233573 89.28403 
z
" clip-path="url(#p7a0c252cd8)" style="fill: #f49f7b"/>
   </g>
   <g id="patch_307">
    <path d="M 262.712487 106.863823 
L 263.012529 106.863823 
L 263.012529 89.28403 
L 262.712487 89.28403 
z
" clip-path="url(#p7a0c252cd8)" style="fill: #59595c"/>
   </g>
   <g id="patch_308">
    <path d="M 263.012529 106.863823 
L 268.944136 106.863823 
L 268.944136 89.28403 
L 263.012529 89.28403 
z
" clip-path="url(#p7a0c252cd8)" style="fill: #91d1bc"/>
   </g>
   <g id="patch_309">
    <path d="M 268.944136 106.863823 
L 269.047997 106.863823 
L 269.047997 89.28403 
L 268.944136 89.28403 
z
" clip-path="url(#p7a0c252cd8)" style="fill: #59595c"/>
   </g>
   <g id="patch_310">
    <path d="M 269.047997 106.863823 
L 269.653851 106.863823 
L 269.653851 89.28403 
L 269.047997 89.28403 
z
" clip-path="url(#p7a0c252cd8)" style="fill: #f49f7b"/>
   </g>
   <g id="patch_311">
    <path d="M 269.653851 106.863823 
L 270.432807 106.863823 
L 270.432807 89.28403 
L 269.653851 89.28403 
z
" clip-path="url(#p7a0c252cd8)" style="fill: #59595c"/>
   </g>
   <g id="patch_312">
    <path d="M 270.432807 106.863823 
L 270.605909 106.863823 
L 270.605909 89.28403 
L 270.432807 89.28403 
z
" clip-path="url(#p7a0c252cd8)" style="fill: #f49f7b"/>
   </g>
   <g id="patch_313">
    <path d="M 270.605909 106.863823 
L 271.644517 106.863823 
L 271.644517 89.28403 
L 270.605909 89.28403 
z
" clip-path="url(#p7a0c252cd8)" style="fill: #59595c"/>
   </g>
   <g id="patch_314">
    <path d="M 271.644517 106.863823 
L 272.204211 106.863823 
L 272.204211 89.28403 
L 271.644517 89.28403 
z
" clip-path="url(#p7a0c252cd8)" style="fill: #91d1bc"/>
   </g>
   <g id="patch_315">
    <path d="M 272.204211 106.863823 
L 272.550414 106.863823 
L 272.550414 89.28403 
L 272.204211 89.28403 
z
" clip-path="url(#p7a0c252cd8)" style="fill: #59595c"/>
   </g>
   <g id="patch_316">
    <path d="M 272.550414 106.863823 
L 273.069718 106.863823 
L 273.069718 89.28403 
L 272.550414 89.28403 
z
" clip-path="url(#p7a0c252cd8)" style="fill: #91d1bc"/>
   </g>
   <g id="patch_317">
    <path d="M 273.069718 106.863823 
L 277.547273 106.863823 
L 277.547273 89.28403 
L 273.069718 89.28403 
z
" clip-path="url(#p7a0c252cd8)" style="fill: #59595c"/>
   </g>
   <g id="patch_318">
    <path d="M 277.547273 106.863823 
L 282.047908 106.863823 
L 282.047908 89.28403 
L 277.547273 89.28403 
z
" clip-path="url(#p7a0c252cd8)" style="fill: #91d1bc"/>
   </g>
   <g id="patch_319">
    <path d="M 282.047908 106.863823 
L 286.935136 106.863823 
L 286.935136 89.28403 
L 282.047908 89.28403 
z
" clip-path="url(#p7a0c252cd8)" style="fill: #59595c"/>
   </g>
   <g id="patch_320">
    <path d="M 286.935136 106.863823 
L 289.664367 106.863823 
L 289.664367 89.28403 
L 286.935136 89.28403 
z
" clip-path="url(#p7a0c252cd8)" style="fill: #91d1bc"/>
   </g>
   <g id="patch_321">
    <path d="M 289.664367 106.863823 
L 296.761523 106.863823 
L 296.761523 89.28403 
L 289.664367 89.28403 
z
" clip-path="url(#p7a0c252cd8)" style="fill: #59595c"/>
   </g>
   <g id="patch_322">
    <path d="M 296.761523 106.863823 
L 298.146333 106.863823 
L 298.146333 89.28403 
L 296.761523 89.28403 
z
" clip-path="url(#p7a0c252cd8)" style="fill: #f49f7b"/>
   </g>
   <g id="patch_323">
    <path d="M 298.146333 106.863823 
L 315.975772 106.863823 
L 315.975772 89.28403 
L 298.146333 89.28403 
z
" clip-path="url(#p7a0c252cd8)" style="fill: #59595c"/>
   </g>
   <g id="patch_324">
    <path d="M 315.975772 106.863823 
L 316.362365 106.863823 
L 316.362365 89.28403 
L 315.975772 89.28403 
z
" clip-path="url(#p7a0c252cd8)" style="fill: #f49f7b"/>
   </g>
   <g id="patch_325">
    <path d="M 316.362365 106.863823 
L 320.562958 106.863823 
L 320.562958 89.28403 
L 316.362365 89.28403 
z
" clip-path="url(#p7a0c252cd8)" style="fill: #59595c"/>
   </g>
   <g id="patch_326">
    <path d="M 320.562958 106.863823 
L 322.07471 106.863823 
L 322.07471 89.28403 
L 320.562958 89.28403 
z
" clip-path="url(#p7a0c252cd8)" style="fill: #f49f7b"/>
   </g>
   <g id="patch_327">
    <path d="M 322.07471 106.863823 
L 333.845602 106.863823 
L 333.845602 89.28403 
L 322.07471 89.28403 
z
" clip-path="url(#p7a0c252cd8)" style="fill: #59595c"/>
   </g>
   <g id="patch_328">
    <path d="M 333.845602 106.863823 
L 334.670718 106.863823 
L 334.670718 89.28403 
L 333.845602 89.28403 
z
" clip-path="url(#p7a0c252cd8)" style="fill: #f49f7b"/>
   </g>
   <g id="patch_329">
    <path d="M 334.670718 106.863823 
L 347.347507 106.863823 
L 347.347507 89.28403 
L 334.670718 89.28403 
z
" clip-path="url(#p7a0c252cd8)" style="fill: #59595c"/>
   </g>
   <g id="patch_330">
    <path d="M 347.347507 106.863823 
L 349.251622 106.863823 
L 349.251622 89.28403 
L 347.347507 89.28403 
z
" clip-path="url(#p7a0c252cd8)" style="fill: #f49f7b"/>
   </g>
   <g id="patch_331">
    <path d="M 349.251622 106.863823 
L 353.971519 106.863823 
L 353.971519 89.28403 
L 349.251622 89.28403 
z
" clip-path="url(#p7a0c252cd8)" style="fill: #59595c"/>
   </g>
   <g id="patch_332">
    <path d="M 353.971519 106.863823 
L 356.262227 106.863823 
L 356.262227 89.28403 
L 353.971519 89.28403 
z
" clip-path="url(#p7a0c252cd8)" style="fill: #f49f7b"/>
   </g>
   <g id="patch_333">
    <path d="M 356.262227 106.863823 
L 364.744193 106.863823 
L 364.744193 89.28403 
L 356.262227 89.28403 
z
" clip-path="url(#p7a0c252cd8)" style="fill: #59595c"/>
   </g>
   <g id="patch_334">
    <path d="M 364.744193 106.863823 
L 367.819627 106.863823 
L 367.819627 89.28403 
L 364.744193 89.28403 
z
" clip-path="url(#p7a0c252cd8)" style="fill: #f49f7b"/>
   </g>
   <g id="patch_335">
    <path d="M 367.819627 106.863823 
L 369.983393 106.863823 
L 369.983393 89.28403 
L 367.819627 89.28403 
z
" clip-path="url(#p7a0c252cd8)" style="fill: #59595c"/>
   </g>
   <g id="patch_336">
    <path d="M 369.983393 106.863823 
L 370.329596 106.863823 
L 370.329596 89.28403 
L 369.983393 89.28403 
z
" clip-path="url(#p7a0c252cd8)" style="fill: #f49f7b"/>
   </g>
   <g id="patch_337">
    <path d="M 370.329596 106.863823 
L 371.460525 106.863823 
L 371.460525 89.28403 
L 370.329596 89.28403 
z
" clip-path="url(#p7a0c252cd8)" style="fill: #59595c"/>
   </g>
   <g id="matplotlib.axis_11"/>
   <g id="matplotlib.axis_12"/>
   <g id="text_9">
    <text style="font: 9px 'Arial'; text-anchor: end" x="40.460625" y="100.400567" transform="rotate(-0 40.460625 100.400567)">labels</text>
   </g>
  </g>
  <g id="axes_7">
   <g id="patch_338">
    <path d="M 44.385525 128.124386 
L 44.443225 128.124386 
L 44.443225 110.544592 
L 44.385525 110.544592 
z
" clip-path="url(#p7b1188cbdb)" style="fill: #f49f7b"/>
   </g>
   <g id="patch_339">
    <path d="M 44.443225 128.124386 
L 48.372626 128.124386 
L 48.372626 110.544592 
L 44.443225 110.544592 
z
" clip-path="url(#p7b1188cbdb)" style="fill: #59595c"/>
   </g>
   <g id="patch_340">
    <path d="M 48.372626 128.124386 
L 48.990021 128.124386 
L 48.990021 110.544592 
L 48.372626 110.544592 
z
" clip-path="url(#p7b1188cbdb)" style="fill: #f49f7b"/>
   </g>
   <g id="patch_341">
    <path d="M 48.990021 128.124386 
L 51.875043 128.124386 
L 51.875043 110.544592 
L 48.990021 110.544592 
z
" clip-path="url(#p7b1188cbdb)" style="fill: #59595c"/>
   </g>
   <g id="patch_342">
    <path d="M 51.875043 128.124386 
L 52.423198 128.124386 
L 52.423198 110.544592 
L 51.875043 110.544592 
z
" clip-path="url(#p7b1188cbdb)" style="fill: #f49f7b"/>
   </g>
   <g id="patch_343">
    <path d="M 52.423198 128.124386 
L 60.818613 128.124386 
L 60.818613 110.544592 
L 52.423198 110.544592 
z
" clip-path="url(#p7b1188cbdb)" style="fill: #59595c"/>
   </g>
   <g id="patch_344">
    <path d="M 60.818613 128.124386 
L 61.545639 128.124386 
L 61.545639 110.544592 
L 60.818613 110.544592 
z
" clip-path="url(#p7b1188cbdb)" style="fill: #f49f7b"/>
   </g>
   <g id="patch_345">
    <path d="M 61.545639 128.124386 
L 65.613521 128.124386 
L 65.613521 110.544592 
L 61.545639 110.544592 
z
" clip-path="url(#p7b1188cbdb)" style="fill: #59595c"/>
   </g>
   <g id="patch_346">
    <path d="M 65.613521 128.124386 
L 66.727139 128.124386 
L 66.727139 110.544592 
L 65.613521 110.544592 
z
" clip-path="url(#p7b1188cbdb)" style="fill: #f49f7b"/>
   </g>
   <g id="patch_347">
    <path d="M 66.727139 128.124386 
L 66.911781 128.124386 
L 66.911781 110.544592 
L 66.727139 110.544592 
z
" clip-path="url(#p7b1188cbdb)" style="fill: #59595c"/>
   </g>
   <g id="patch_348">
    <path d="M 66.911781 128.124386 
L 68.388912 128.124386 
L 68.388912 110.544592 
L 66.911781 110.544592 
z
" clip-path="url(#p7b1188cbdb)" style="fill: #f49f7b"/>
   </g>
   <g id="patch_349">
    <path d="M 68.388912 128.124386 
L 85.375925 128.124386 
L 85.375925 110.544592 
L 68.388912 110.544592 
z
" clip-path="url(#p7b1188cbdb)" style="fill: #59595c"/>
   </g>
   <g id="patch_350">
    <path d="M 85.375925 128.124386 
L 86.374142 128.124386 
L 86.374142 110.544592 
L 85.375925 110.544592 
z
" clip-path="url(#p7b1188cbdb)" style="fill: #f49f7b"/>
   </g>
   <g id="patch_351">
    <path d="M 86.374142 128.124386 
L 87.37813 128.124386 
L 87.37813 110.544592 
L 86.374142 110.544592 
z
" clip-path="url(#p7b1188cbdb)" style="fill: #59595c"/>
   </g>
   <g id="patch_352">
    <path d="M 87.37813 128.124386 
L 89.564977 128.124386 
L 89.564977 110.544592 
L 87.37813 110.544592 
z
" clip-path="url(#p7b1188cbdb)" style="fill: #f49f7b"/>
   </g>
   <g id="patch_353">
    <path d="M 89.564977 128.124386 
L 91.295991 128.124386 
L 91.295991 110.544592 
L 89.564977 110.544592 
z
" clip-path="url(#p7b1188cbdb)" style="fill: #59595c"/>
   </g>
   <g id="patch_354">
    <path d="M 91.295991 128.124386 
L 91.469092 128.124386 
L 91.469092 110.544592 
L 91.295991 110.544592 
z
" clip-path="url(#p7b1188cbdb)" style="fill: #f49f7b"/>
   </g>
   <g id="patch_355">
    <path d="M 91.469092 128.124386 
L 91.653734 128.124386 
L 91.653734 110.544592 
L 91.469092 110.544592 
z
" clip-path="url(#p7b1188cbdb)" style="fill: #59595c"/>
   </g>
   <g id="patch_356">
    <path d="M 91.653734 128.124386 
L 92.213428 128.124386 
L 92.213428 110.544592 
L 91.653734 110.544592 
z
" clip-path="url(#p7b1188cbdb)" style="fill: #f49f7b"/>
   </g>
   <g id="patch_357">
    <path d="M 92.213428 128.124386 
L 98.023863 128.124386 
L 98.023863 110.544592 
L 92.213428 110.544592 
z
" clip-path="url(#p7b1188cbdb)" style="fill: #59595c"/>
   </g>
   <g id="patch_358">
    <path d="M 98.023863 128.124386 
L 98.635488 128.124386 
L 98.635488 110.544592 
L 98.023863 110.544592 
z
" clip-path="url(#p7b1188cbdb)" style="fill: #f49f7b"/>
   </g>
   <g id="patch_359">
    <path d="M 98.635488 128.124386 
L 99.039391 128.124386 
L 99.039391 110.544592 
L 98.635488 110.544592 
z
" clip-path="url(#p7b1188cbdb)" style="fill: #59595c"/>
   </g>
   <g id="patch_360">
    <path d="M 99.039391 128.124386 
L 99.102862 128.124386 
L 99.102862 110.544592 
L 99.039391 110.544592 
z
" clip-path="url(#p7b1188cbdb)" style="fill: #f49f7b"/>
   </g>
   <g id="patch_361">
    <path d="M 99.102862 128.124386 
L 105.807654 128.124386 
L 105.807654 110.544592 
L 99.102862 110.544592 
z
" clip-path="url(#p7b1188cbdb)" style="fill: #59595c"/>
   </g>
   <g id="patch_362">
    <path d="M 105.807654 128.124386 
L 106.211557 128.124386 
L 106.211557 110.544592 
L 105.807654 110.544592 
z
" clip-path="url(#p7b1188cbdb)" style="fill: #f49f7b"/>
   </g>
   <g id="patch_363">
    <path d="M 106.211557 128.124386 
L 120.405868 128.124386 
L 120.405868 110.544592 
L 106.211557 110.544592 
z
" clip-path="url(#p7b1188cbdb)" style="fill: #59595c"/>
   </g>
   <g id="patch_364">
    <path d="M 120.405868 128.124386 
L 120.457798 128.124386 
L 120.457798 110.544592 
L 120.405868 110.544592 
z
" clip-path="url(#p7b1188cbdb)" style="fill: #f49f7b"/>
   </g>
   <g id="patch_365">
    <path d="M 120.457798 128.124386 
L 122.858137 128.124386 
L 122.858137 110.544592 
L 120.457798 110.544592 
z
" clip-path="url(#p7b1188cbdb)" style="fill: #59595c"/>
   </g>
   <g id="patch_366">
    <path d="M 122.858137 128.124386 
L 123.27358 128.124386 
L 123.27358 110.544592 
L 122.858137 110.544592 
z
" clip-path="url(#p7b1188cbdb)" style="fill: #f49f7b"/>
   </g>
   <g id="patch_367">
    <path d="M 123.27358 128.124386 
L 124.081386 128.124386 
L 124.081386 110.544592 
L 123.27358 110.544592 
z
" clip-path="url(#p7b1188cbdb)" style="fill: #59595c"/>
   </g>
   <g id="patch_368">
    <path d="M 124.081386 128.124386 
L 124.358348 128.124386 
L 124.358348 110.544592 
L 124.081386 110.544592 
z
" clip-path="url(#p7b1188cbdb)" style="fill: #f49f7b"/>
   </g>
   <g id="patch_369">
    <path d="M 124.358348 128.124386 
L 125.119994 128.124386 
L 125.119994 110.544592 
L 124.358348 110.544592 
z
" clip-path="url(#p7b1188cbdb)" style="fill: #59595c"/>
   </g>
   <g id="patch_370">
    <path d="M 125.119994 128.124386 
L 125.258476 128.124386 
L 125.258476 110.544592 
L 125.119994 110.544592 
z
" clip-path="url(#p7b1188cbdb)" style="fill: #f49f7b"/>
   </g>
   <g id="patch_371">
    <path d="M 125.258476 128.124386 
L 144.068822 128.124386 
L 144.068822 110.544592 
L 125.258476 110.544592 
z
" clip-path="url(#p7b1188cbdb)" style="fill: #59595c"/>
   </g>
   <g id="patch_372">
    <path d="M 144.068822 128.124386 
L 144.080362 128.124386 
L 144.080362 110.544592 
L 144.068822 110.544592 
z
" clip-path="url(#p7b1188cbdb)" style="fill: #f49f7b"/>
   </g>
   <g id="patch_373">
    <path d="M 144.080362 128.124386 
L 144.086132 128.124386 
L 144.086132 110.544592 
L 144.080362 110.544592 
z
" clip-path="url(#p7b1188cbdb)" style="fill: #59595c"/>
   </g>
   <g id="patch_374">
    <path d="M 144.086132 128.124386 
L 145.730595 128.124386 
L 145.730595 110.544592 
L 144.086132 110.544592 
z
" clip-path="url(#p7b1188cbdb)" style="fill: #f49f7b"/>
   </g>
   <g id="patch_375">
    <path d="M 145.730595 128.124386 
L 151.887233 128.124386 
L 151.887233 110.544592 
L 145.730595 110.544592 
z
" clip-path="url(#p7b1188cbdb)" style="fill: #59595c"/>
   </g>
   <g id="patch_376">
    <path d="M 151.887233 128.124386 
L 152.210356 128.124386 
L 152.210356 110.544592 
L 151.887233 110.544592 
z
" clip-path="url(#p7b1188cbdb)" style="fill: #f49f7b"/>
   </g>
   <g id="patch_377">
    <path d="M 152.210356 128.124386 
L 154.385663 128.124386 
L 154.385663 110.544592 
L 152.210356 110.544592 
z
" clip-path="url(#p7b1188cbdb)" style="fill: #59595c"/>
   </g>
   <g id="patch_378">
    <path d="M 154.385663 128.124386 
L 154.910737 128.124386 
L 154.910737 110.544592 
L 154.385663 110.544592 
z
" clip-path="url(#p7b1188cbdb)" style="fill: #f49f7b"/>
   </g>
   <g id="patch_379">
    <path d="M 154.910737 128.124386 
L 160.115317 128.124386 
L 160.115317 110.544592 
L 154.910737 110.544592 
z
" clip-path="url(#p7b1188cbdb)" style="fill: #59595c"/>
   </g>
   <g id="patch_380">
    <path d="M 160.115317 128.124386 
L 161.021214 128.124386 
L 161.021214 110.544592 
L 160.115317 110.544592 
z
" clip-path="url(#p7b1188cbdb)" style="fill: #f49f7b"/>
   </g>
   <g id="patch_381">
    <path d="M 161.021214 128.124386 
L 162.371405 128.124386 
L 162.371405 110.544592 
L 161.021214 110.544592 
z
" clip-path="url(#p7b1188cbdb)" style="fill: #59595c"/>
   </g>
   <g id="patch_382">
    <path d="M 162.371405 128.124386 
L 163.167671 128.124386 
L 163.167671 110.544592 
L 162.371405 110.544592 
z
" clip-path="url(#p7b1188cbdb)" style="fill: #f49f7b"/>
   </g>
   <g id="patch_383">
    <path d="M 163.167671 128.124386 
L 165.083326 128.124386 
L 165.083326 110.544592 
L 163.167671 110.544592 
z
" clip-path="url(#p7b1188cbdb)" style="fill: #59595c"/>
   </g>
   <g id="patch_384">
    <path d="M 165.083326 128.124386 
L 165.400678 128.124386 
L 165.400678 110.544592 
L 165.083326 110.544592 
z
" clip-path="url(#p7b1188cbdb)" style="fill: #f49f7b"/>
   </g>
   <g id="patch_385">
    <path d="M 165.400678 128.124386 
L 190.575385 128.124386 
L 190.575385 110.544592 
L 165.400678 110.544592 
z
" clip-path="url(#p7b1188cbdb)" style="fill: #59595c"/>
   </g>
   <g id="patch_386">
    <path d="M 190.575385 128.124386 
L 190.621545 128.124386 
L 190.621545 110.544592 
L 190.575385 110.544592 
z
" clip-path="url(#p7b1188cbdb)" style="fill: #f49f7b"/>
   </g>
   <g id="patch_387">
    <path d="M 190.621545 128.124386 
L 205.39286 128.124386 
L 205.39286 110.544592 
L 190.621545 110.544592 
z
" clip-path="url(#p7b1188cbdb)" style="fill: #59595c"/>
   </g>
   <g id="patch_388">
    <path d="M 205.39286 128.124386 
L 205.946785 128.124386 
L 205.946785 110.544592 
L 205.39286 110.544592 
z
" clip-path="url(#p7b1188cbdb)" style="fill: #f49f7b"/>
   </g>
   <g id="patch_389">
    <path d="M 205.946785 128.124386 
L 206.131426 128.124386 
L 206.131426 110.544592 
L 205.946785 110.544592 
z
" clip-path="url(#p7b1188cbdb)" style="fill: #59595c"/>
   </g>
   <g id="patch_390">
    <path d="M 206.131426 128.124386 
L 206.500709 128.124386 
L 206.500709 110.544592 
L 206.131426 110.544592 
z
" clip-path="url(#p7b1188cbdb)" style="fill: #f49f7b"/>
   </g>
   <g id="patch_391">
    <path d="M 206.500709 128.124386 
L 218.687044 128.124386 
L 218.687044 110.544592 
L 206.500709 110.544592 
z
" clip-path="url(#p7b1188cbdb)" style="fill: #59595c"/>
   </g>
   <g id="patch_392">
    <path d="M 218.687044 128.124386 
L 219.165958 128.124386 
L 219.165958 110.544592 
L 218.687044 110.544592 
z
" clip-path="url(#p7b1188cbdb)" style="fill: #f49f7b"/>
   </g>
   <g id="patch_393">
    <path d="M 219.165958 128.124386 
L 221.087383 128.124386 
L 221.087383 110.544592 
L 219.165958 110.544592 
z
" clip-path="url(#p7b1188cbdb)" style="fill: #59595c"/>
   </g>
   <g id="patch_394">
    <path d="M 221.087383 128.124386 
L 221.272024 128.124386 
L 221.272024 110.544592 
L 221.087383 110.544592 
z
" clip-path="url(#p7b1188cbdb)" style="fill: #f49f7b"/>
   </g>
   <g id="patch_395">
    <path d="M 221.272024 128.124386 
L 227.786405 128.124386 
L 227.786405 110.544592 
L 221.272024 110.544592 
z
" clip-path="url(#p7b1188cbdb)" style="fill: #59595c"/>
   </g>
   <g id="patch_396">
    <path d="M 227.786405 128.124386 
L 228.259549 128.124386 
L 228.259549 110.544592 
L 227.786405 110.544592 
z
" clip-path="url(#p7b1188cbdb)" style="fill: #f49f7b"/>
   </g>
   <g id="patch_397">
    <path d="M 228.259549 128.124386 
L 234.87202 128.124386 
L 234.87202 110.544592 
L 228.259549 110.544592 
z
" clip-path="url(#p7b1188cbdb)" style="fill: #59595c"/>
   </g>
   <g id="patch_398">
    <path d="M 234.87202 128.124386 
L 235.304773 128.124386 
L 235.304773 110.544592 
L 234.87202 110.544592 
z
" clip-path="url(#p7b1188cbdb)" style="fill: #f49f7b"/>
   </g>
   <g id="patch_399">
    <path d="M 235.304773 128.124386 
L 238.547539 128.124386 
L 238.547539 110.544592 
L 235.304773 110.544592 
z
" clip-path="url(#p7b1188cbdb)" style="fill: #59595c"/>
   </g>
   <g id="patch_400">
    <path d="M 238.547539 128.124386 
L 238.818731 128.124386 
L 238.818731 110.544592 
L 238.547539 110.544592 
z
" clip-path="url(#p7b1188cbdb)" style="fill: #f49f7b"/>
   </g>
   <g id="patch_401">
    <path d="M 238.818731 128.124386 
L 241.767224 128.124386 
L 241.767224 110.544592 
L 238.818731 110.544592 
z
" clip-path="url(#p7b1188cbdb)" style="fill: #59595c"/>
   </g>
   <g id="patch_402">
    <path d="M 241.767224 128.124386 
L 243.428997 128.124386 
L 243.428997 110.544592 
L 241.767224 110.544592 
z
" clip-path="url(#p7b1188cbdb)" style="fill: #f49f7b"/>
   </g>
   <g id="patch_403">
    <path d="M 243.428997 128.124386 
L 243.613638 128.124386 
L 243.613638 110.544592 
L 243.428997 110.544592 
z
" clip-path="url(#p7b1188cbdb)" style="fill: #59595c"/>
   </g>
   <g id="patch_404">
    <path d="M 243.613638 128.124386 
L 245.044609 128.124386 
L 245.044609 110.544592 
L 243.613638 110.544592 
z
" clip-path="url(#p7b1188cbdb)" style="fill: #f49f7b"/>
   </g>
   <g id="patch_405">
    <path d="M 245.044609 128.124386 
L 245.956277 128.124386 
L 245.956277 110.544592 
L 245.044609 110.544592 
z
" clip-path="url(#p7b1188cbdb)" style="fill: #59595c"/>
   </g>
   <g id="patch_406">
    <path d="M 245.956277 128.124386 
L 246.937184 128.124386 
L 246.937184 110.544592 
L 245.956277 110.544592 
z
" clip-path="url(#p7b1188cbdb)" style="fill: #f49f7b"/>
   </g>
   <g id="patch_407">
    <path d="M 246.937184 128.124386 
L 255.43069 128.124386 
L 255.43069 110.544592 
L 246.937184 110.544592 
z
" clip-path="url(#p7b1188cbdb)" style="fill: #59595c"/>
   </g>
   <g id="patch_408">
    <path d="M 255.43069 128.124386 
L 256.209646 128.124386 
L 256.209646 110.544592 
L 255.43069 110.544592 
z
" clip-path="url(#p7b1188cbdb)" style="fill: #f49f7b"/>
   </g>
   <g id="patch_409">
    <path d="M 256.209646 128.124386 
L 262.141253 128.124386 
L 262.141253 110.544592 
L 256.209646 110.544592 
z
" clip-path="url(#p7b1188cbdb)" style="fill: #59595c"/>
   </g>
   <g id="patch_410">
    <path d="M 262.141253 128.124386 
L 262.556696 128.124386 
L 262.556696 110.544592 
L 262.141253 110.544592 
z
" clip-path="url(#p7b1188cbdb)" style="fill: #f49f7b"/>
   </g>
   <g id="patch_411">
    <path d="M 262.556696 128.124386 
L 263.924197 128.124386 
L 263.924197 110.544592 
L 262.556696 110.544592 
z
" clip-path="url(#p7b1188cbdb)" style="fill: #59595c"/>
   </g>
   <g id="patch_412">
    <path d="M 263.924197 128.124386 
L 269.094157 128.124386 
L 269.094157 110.544592 
L 263.924197 110.544592 
z
" clip-path="url(#p7b1188cbdb)" style="fill: #91d1bc"/>
   </g>
   <g id="patch_413">
    <path d="M 269.094157 128.124386 
L 269.221098 128.124386 
L 269.221098 110.544592 
L 269.094157 110.544592 
z
" clip-path="url(#p7b1188cbdb)" style="fill: #59595c"/>
   </g>
   <g id="patch_414">
    <path d="M 269.221098 128.124386 
L 269.757712 128.124386 
L 269.757712 110.544592 
L 269.221098 110.544592 
z
" clip-path="url(#p7b1188cbdb)" style="fill: #f49f7b"/>
   </g>
   <g id="patch_415">
    <path d="M 269.757712 128.124386 
L 271.113673 128.124386 
L 271.113673 110.544592 
L 269.757712 110.544592 
z
" clip-path="url(#p7b1188cbdb)" style="fill: #59595c"/>
   </g>
   <g id="patch_416">
    <path d="M 271.113673 128.124386 
L 273.554402 128.124386 
L 273.554402 110.544592 
L 271.113673 110.544592 
z
" clip-path="url(#p7b1188cbdb)" style="fill: #91d1bc"/>
   </g>
   <g id="patch_417">
    <path d="M 273.554402 128.124386 
L 277.956946 128.124386 
L 277.956946 110.544592 
L 273.554402 110.544592 
z
" clip-path="url(#p7b1188cbdb)" style="fill: #59595c"/>
   </g>
   <g id="patch_418">
    <path d="M 277.956946 128.124386 
L 281.840186 128.124386 
L 281.840186 110.544592 
L 277.956946 110.544592 
z
" clip-path="url(#p7b1188cbdb)" style="fill: #91d1bc"/>
   </g>
   <g id="patch_419">
    <path d="M 281.840186 128.124386 
L 284.973321 128.124386 
L 284.973321 110.544592 
L 281.840186 110.544592 
z
" clip-path="url(#p7b1188cbdb)" style="fill: #59595c"/>
   </g>
   <g id="patch_420">
    <path d="M 284.973321 128.124386 
L 285.031021 128.124386 
L 285.031021 110.544592 
L 284.973321 110.544592 
z
" clip-path="url(#p7b1188cbdb)" style="fill: #91d1bc"/>
   </g>
   <g id="patch_421">
    <path d="M 285.031021 128.124386 
L 285.527245 128.124386 
L 285.527245 110.544592 
L 285.031021 110.544592 
z
" clip-path="url(#p7b1188cbdb)" style="fill: #59595c"/>
   </g>
   <g id="patch_422">
    <path d="M 285.527245 128.124386 
L 285.971538 128.124386 
L 285.971538 110.544592 
L 285.527245 110.544592 
z
" clip-path="url(#p7b1188cbdb)" style="fill: #91d1bc"/>
   </g>
   <g id="patch_423">
    <path d="M 285.971538 128.124386 
L 285.977309 128.124386 
L 285.977309 110.544592 
L 285.971538 110.544592 
z
" clip-path="url(#p7b1188cbdb)" style="fill: #59595c"/>
   </g>
   <g id="patch_424">
    <path d="M 285.977309 128.124386 
L 285.994619 128.124386 
L 285.994619 110.544592 
L 285.977309 110.544592 
z
" clip-path="url(#p7b1188cbdb)" style="fill: #91d1bc"/>
   </g>
   <g id="patch_425">
    <path d="M 285.994619 128.124386 
L 286.450452 128.124386 
L 286.450452 110.544592 
L 285.994619 110.544592 
z
" clip-path="url(#p7b1188cbdb)" style="fill: #59595c"/>
   </g>
   <g id="patch_426">
    <path d="M 286.450452 128.124386 
L 292.405139 128.124386 
L 292.405139 110.544592 
L 286.450452 110.544592 
z
" clip-path="url(#p7b1188cbdb)" style="fill: #91d1bc"/>
   </g>
   <g id="patch_427">
    <path d="M 292.405139 128.124386 
L 292.410909 128.124386 
L 292.410909 110.544592 
L 292.405139 110.544592 
z
" clip-path="url(#p7b1188cbdb)" style="fill: #59595c"/>
   </g>
   <g id="patch_428">
    <path d="M 292.410909 128.124386 
L 292.497459 128.124386 
L 292.497459 110.544592 
L 292.410909 110.544592 
z
" clip-path="url(#p7b1188cbdb)" style="fill: #91d1bc"/>
   </g>
   <g id="patch_429">
    <path d="M 292.497459 128.124386 
L 292.503229 128.124386 
L 292.503229 110.544592 
L 292.497459 110.544592 
z
" clip-path="url(#p7b1188cbdb)" style="fill: #59595c"/>
   </g>
   <g id="patch_430">
    <path d="M 292.503229 128.124386 
L 292.912903 128.124386 
L 292.912903 110.544592 
L 292.503229 110.544592 
z
" clip-path="url(#p7b1188cbdb)" style="fill: #91d1bc"/>
   </g>
   <g id="patch_431">
    <path d="M 292.912903 128.124386 
L 294.020751 128.124386 
L 294.020751 110.544592 
L 292.912903 110.544592 
z
" clip-path="url(#p7b1188cbdb)" style="fill: #59595c"/>
   </g>
   <g id="patch_432">
    <path d="M 294.020751 128.124386 
L 294.188083 128.124386 
L 294.188083 110.544592 
L 294.020751 110.544592 
z
" clip-path="url(#p7b1188cbdb)" style="fill: #91d1bc"/>
   </g>
   <g id="patch_433">
    <path d="M 294.188083 128.124386 
L 294.193853 128.124386 
L 294.193853 110.544592 
L 294.188083 110.544592 
z
" clip-path="url(#p7b1188cbdb)" style="fill: #59595c"/>
   </g>
   <g id="patch_434">
    <path d="M 294.193853 128.124386 
L 294.205393 128.124386 
L 294.205393 110.544592 
L 294.193853 110.544592 
z
" clip-path="url(#p7b1188cbdb)" style="fill: #91d1bc"/>
   </g>
   <g id="patch_435">
    <path d="M 294.205393 128.124386 
L 296.663432 128.124386 
L 296.663432 110.544592 
L 294.205393 110.544592 
z
" clip-path="url(#p7b1188cbdb)" style="fill: #59595c"/>
   </g>
   <g id="patch_436">
    <path d="M 296.663432 128.124386 
L 298.100173 128.124386 
L 298.100173 110.544592 
L 296.663432 110.544592 
z
" clip-path="url(#p7b1188cbdb)" style="fill: #f49f7b"/>
   </g>
   <g id="patch_437">
    <path d="M 298.100173 128.124386 
L 308.607425 128.124386 
L 308.607425 110.544592 
L 298.100173 110.544592 
z
" clip-path="url(#p7b1188cbdb)" style="fill: #59595c"/>
   </g>
   <g id="patch_438">
    <path d="M 308.607425 128.124386 
L 308.630505 128.124386 
L 308.630505 110.544592 
L 308.607425 110.544592 
z
" clip-path="url(#p7b1188cbdb)" style="fill: #f49f7b"/>
   </g>
   <g id="patch_439">
    <path d="M 308.630505 128.124386 
L 308.636275 128.124386 
L 308.636275 110.544592 
L 308.630505 110.544592 
z
" clip-path="url(#p7b1188cbdb)" style="fill: #59595c"/>
   </g>
   <g id="patch_440">
    <path d="M 308.636275 128.124386 
L 308.642045 128.124386 
L 308.642045 110.544592 
L 308.636275 110.544592 
z
" clip-path="url(#p7b1188cbdb)" style="fill: #f49f7b"/>
   </g>
   <g id="patch_441">
    <path d="M 308.642045 128.124386 
L 316.096943 128.124386 
L 316.096943 110.544592 
L 308.642045 110.544592 
z
" clip-path="url(#p7b1188cbdb)" style="fill: #59595c"/>
   </g>
   <g id="patch_442">
    <path d="M 316.096943 128.124386 
L 316.362365 128.124386 
L 316.362365 110.544592 
L 316.096943 110.544592 
z
" clip-path="url(#p7b1188cbdb)" style="fill: #f49f7b"/>
   </g>
   <g id="patch_443">
    <path d="M 316.362365 128.124386 
L 320.487948 128.124386 
L 320.487948 110.544592 
L 316.362365 110.544592 
z
" clip-path="url(#p7b1188cbdb)" style="fill: #59595c"/>
   </g>
   <g id="patch_444">
    <path d="M 320.487948 128.124386 
L 322.08625 128.124386 
L 322.08625 110.544592 
L 320.487948 110.544592 
z
" clip-path="url(#p7b1188cbdb)" style="fill: #f49f7b"/>
   </g>
   <g id="patch_445">
    <path d="M 322.08625 128.124386 
L 326.148362 128.124386 
L 326.148362 110.544592 
L 322.08625 110.544592 
z
" clip-path="url(#p7b1188cbdb)" style="fill: #59595c"/>
   </g>
   <g id="patch_446">
    <path d="M 326.148362 128.124386 
L 326.286843 128.124386 
L 326.286843 110.544592 
L 326.148362 110.544592 
z
" clip-path="url(#p7b1188cbdb)" style="fill: #f49f7b"/>
   </g>
   <g id="patch_447">
    <path d="M 326.286843 128.124386 
L 333.857142 128.124386 
L 333.857142 110.544592 
L 326.286843 110.544592 
z
" clip-path="url(#p7b1188cbdb)" style="fill: #59595c"/>
   </g>
   <g id="patch_448">
    <path d="M 333.857142 128.124386 
L 334.688028 128.124386 
L 334.688028 110.544592 
L 333.857142 110.544592 
z
" clip-path="url(#p7b1188cbdb)" style="fill: #f49f7b"/>
   </g>
   <g id="patch_449">
    <path d="M 334.688028 128.124386 
L 342.292948 128.124386 
L 342.292948 110.544592 
L 334.688028 110.544592 
z
" clip-path="url(#p7b1188cbdb)" style="fill: #59595c"/>
   </g>
   <g id="patch_450">
    <path d="M 342.292948 128.124386 
L 342.719931 128.124386 
L 342.719931 110.544592 
L 342.292948 110.544592 
z
" clip-path="url(#p7b1188cbdb)" style="fill: #f49f7b"/>
   </g>
   <g id="patch_451">
    <path d="M 342.719931 128.124386 
L 347.272496 128.124386 
L 347.272496 110.544592 
L 342.719931 110.544592 
z
" clip-path="url(#p7b1188cbdb)" style="fill: #59595c"/>
   </g>
   <g id="patch_452">
    <path d="M 347.272496 128.124386 
L 349.268932 128.124386 
L 349.268932 110.544592 
L 347.272496 110.544592 
z
" clip-path="url(#p7b1188cbdb)" style="fill: #f49f7b"/>
   </g>
   <g id="patch_453">
    <path d="M 349.268932 128.124386 
L 354.017679 128.124386 
L 354.017679 110.544592 
L 349.268932 110.544592 
z
" clip-path="url(#p7b1188cbdb)" style="fill: #59595c"/>
   </g>
   <g id="patch_454">
    <path d="M 354.017679 128.124386 
L 354.583143 128.124386 
L 354.583143 110.544592 
L 354.017679 110.544592 
z
" clip-path="url(#p7b1188cbdb)" style="fill: #f49f7b"/>
   </g>
   <g id="patch_455">
    <path d="M 354.583143 128.124386 
L 354.767785 128.124386 
L 354.767785 110.544592 
L 354.583143 110.544592 
z
" clip-path="url(#p7b1188cbdb)" style="fill: #59595c"/>
   </g>
   <g id="patch_456">
    <path d="M 354.767785 128.124386 
L 355.137068 128.124386 
L 355.137068 110.544592 
L 354.767785 110.544592 
z
" clip-path="url(#p7b1188cbdb)" style="fill: #f49f7b"/>
   </g>
   <g id="patch_457">
    <path d="M 355.137068 128.124386 
L 355.43711 128.124386 
L 355.43711 110.544592 
L 355.137068 110.544592 
z
" clip-path="url(#p7b1188cbdb)" style="fill: #59595c"/>
   </g>
   <g id="patch_458">
    <path d="M 355.43711 128.124386 
L 356.296847 128.124386 
L 356.296847 110.544592 
L 355.43711 110.544592 
z
" clip-path="url(#p7b1188cbdb)" style="fill: #f49f7b"/>
   </g>
   <g id="patch_459">
    <path d="M 356.296847 128.124386 
L 363.630574 128.124386 
L 363.630574 110.544592 
L 356.296847 110.544592 
z
" clip-path="url(#p7b1188cbdb)" style="fill: #59595c"/>
   </g>
   <g id="patch_460">
    <path d="M 363.630574 128.124386 
L 363.676734 128.124386 
L 363.676734 110.544592 
L 363.630574 110.544592 
z
" clip-path="url(#p7b1188cbdb)" style="fill: #f49f7b"/>
   </g>
   <g id="patch_461">
    <path d="M 363.676734 128.124386 
L 364.738423 128.124386 
L 364.738423 110.544592 
L 363.676734 110.544592 
z
" clip-path="url(#p7b1188cbdb)" style="fill: #59595c"/>
   </g>
   <g id="patch_462">
    <path d="M 364.738423 128.124386 
L 367.831167 128.124386 
L 367.831167 110.544592 
L 364.738423 110.544592 
z
" clip-path="url(#p7b1188cbdb)" style="fill: #f49f7b"/>
   </g>
   <g id="patch_463">
    <path d="M 367.831167 128.124386 
L 369.948773 128.124386 
L 369.948773 110.544592 
L 367.831167 110.544592 
z
" clip-path="url(#p7b1188cbdb)" style="fill: #59595c"/>
   </g>
   <g id="patch_464">
    <path d="M 369.948773 128.124386 
L 370.410377 128.124386 
L 370.410377 110.544592 
L 369.948773 110.544592 
z
" clip-path="url(#p7b1188cbdb)" style="fill: #f49f7b"/>
   </g>
   <g id="patch_465">
    <path d="M 370.410377 128.124386 
L 371.460525 128.124386 
L 371.460525 110.544592 
L 370.410377 110.544592 
z
" clip-path="url(#p7b1188cbdb)" style="fill: #59595c"/>
   </g>
   <g id="matplotlib.axis_13"/>
   <g id="matplotlib.axis_14"/>
   <g id="text_10">
    <text style="font: 9px 'Arial'; text-anchor: end" x="40.460625" y="121.66113" transform="rotate(-0 40.460625 121.66113)">prediction</text>
   </g>
  </g>
  <g id="axes_8">
   <g id="matplotlib.axis_15"/>
   <g id="matplotlib.axis_16"/>
   <g id="text_11">
    <text style="font: 9px 'Arial'; text-anchor: start" x="44.385525" y="138.247186" transform="rotate(-0 44.385525 138.247186)">0</text>
   </g>
   <g id="text_12">
    <text style="font: 9px 'Arial'; text-anchor: end" x="371.460525" y="138.247186" transform="rotate(-0 371.460525 138.247186)">56685</text>
   </g>
   <g id="text_13">
    <text style="font: 10px 'Arial'; text-anchor: middle" x="207.923025" y="157.421751" transform="rotate(-0 207.923025 157.421751)">frames</text>
   </g>
  </g>
 </g>
 <defs>
  <clipPath id="pc628fcc887">
   <rect x="44.385525" y="17.426625" width="327.075" height="17.579793"/>
  </clipPath>
  <clipPath id="p9d5f216f53">
   <rect x="44.385525" y="38.687187" width="327.075" height="17.579793"/>
  </clipPath>
  <clipPath id="p7a0c252cd8">
   <rect x="44.385525" y="89.28403" width="327.075" height="17.579793"/>
  </clipPath>
  <clipPath id="p7b1188cbdb">
   <rect x="44.385525" y="110.544592" width="327.075" height="17.579793"/>
  </clipPath>
 </defs>
</svg>
