<?xml version="1.0" encoding="utf-8" standalone="no"?>
<!DOCTYPE svg PUBLIC "-//W3C//DTD SVG 1.1//EN"
  "http://www.w3.org/Graphics/SVG/1.1/DTD/svg11.dtd">
<svg xmlns:xlink="http://www.w3.org/1999/xlink" width="384.420525pt" height="172.369251pt" viewBox="0 0 384.420525 172.369251" xmlns="http://www.w3.org/2000/svg" version="1.1">
 <metadata>
  <rdf:RDF xmlns:dc="http://purl.org/dc/elements/1.1/" xmlns:cc="http://creativecommons.org/ns#" xmlns:rdf="http://www.w3.org/1999/02/22-rdf-syntax-ns#">
   <cc:Work>
    <dc:type rdf:resource="http://purl.org/dc/dcmitype/StillImage"/>
    <dc:date>2026-05-13T17:51:58.974719</dc:date>
    <dc:format>image/svg+xml</dc:format>
    <dc:creator>
     <cc:Agent>
      <dc:title>Matplotlib v3.9.4, https://matplotlib.org/</dc:title>
     </cc:Agent>
    </dc:creator>
   </cc:Work>
  </rdf:RDF>
 </metadata>
 <defs>
  <style type="text/css">*{stroke-linejoin: round; stroke-linecap: butt}</style>
 </defs>
 <g id="figure_1">
  <g id="patch_1">
   <path d="M 0 172.369251 
L 384.420525 172.369251 
L 384.420525 0 
L 0 0 
z
" style="fill: #ffffff"/>
  </g>
  <g id="axes_1">
   <g id="matplotlib.axis_1"/>
   <g id="matplotlib.axis_2"/>
   <g id="text_1">
    <text style="font: italic 10px 'Arial'; text-anchor: start" x="50.145525" y="15.894334" transform="rotate(-0 50.145525 15.894334)">Example video 1: accuracy </text>
   </g>
   <g id="text_2">
    <text style="font: italic 700 10px 'Arial'; text-anchor: start" x="172.0674" y="15.942771" transform="rotate(-0 172.0674 15.942771)">93.9%</text>
   </g>
  </g>
  <g id="axes_2">
   <g id="patch_2">
    <path d="M 50.145525 40.766418 
L 51.113725 40.766418 
L 51.113725 23.186625 
L 50.145525 23.186625 
z
" clip-path="url(#p8131135396)" style="fill: #f49f7b"/>
   </g>
   <g id="patch_3">
    <path d="M 51.113725 40.766418 
L 55.168774 40.766418 
L 55.168774 23.186625 
L 51.113725 23.186625 
z
" clip-path="url(#p8131135396)" style="fill: #59595c"/>
   </g>
   <g id="patch_4">
    <path d="M 55.168774 40.766418 
L 55.68135 40.766418 
L 55.68135 23.186625 
L 55.168774 23.186625 
z
" clip-path="url(#p8131135396)" style="fill: #f49f7b"/>
   </g>
   <g id="patch_5">
    <path d="M 55.68135 40.766418 
L 61.450682 40.766418 
L 61.450682 23.186625 
L 55.68135 23.186625 
z
" clip-path="url(#p8131135396)" style="fill: #59595c"/>
   </g>
   <g id="patch_6">
    <path d="M 61.450682 40.766418 
L 62.048688 40.766418 
L 62.048688 23.186625 
L 61.450682 23.186625 
z
" clip-path="url(#p8131135396)" style="fill: #f49f7b"/>
   </g>
   <g id="patch_7">
    <path d="M 62.048688 40.766418 
L 106.079001 40.766418 
L 106.079001 23.186625 
L 62.048688 23.186625 
z
" clip-path="url(#p8131135396)" style="fill: #59595c"/>
   </g>
   <g id="patch_8">
    <path d="M 106.079001 40.766418 
L 106.762436 40.766418 
L 106.762436 23.186625 
L 106.079001 23.186625 
z
" clip-path="url(#p8131135396)" style="fill: #f49f7b"/>
   </g>
   <g id="patch_9">
    <path d="M 106.762436 40.766418 
L 114.41691 40.766418 
L 114.41691 23.186625 
L 106.762436 23.186625 
z
" clip-path="url(#p8131135396)" style="fill: #59595c"/>
   </g>
   <g id="patch_10">
    <path d="M 114.41691 40.766418 
L 114.844057 40.766418 
L 114.844057 23.186625 
L 114.41691 23.186625 
z
" clip-path="url(#p8131135396)" style="fill: #f49f7b"/>
   </g>
   <g id="patch_11">
    <path d="M 114.844057 40.766418 
L 121.422121 40.766418 
L 121.422121 23.186625 
L 114.844057 23.186625 
z
" clip-path="url(#p8131135396)" style="fill: #59595c"/>
   </g>
   <g id="patch_12">
    <path d="M 121.422121 40.766418 
L 121.849268 40.766418 
L 121.849268 23.186625 
L 121.422121 23.186625 
z
" clip-path="url(#p8131135396)" style="fill: #f49f7b"/>
   </g>
   <g id="patch_13">
    <path d="M 121.849268 40.766418 
L 135.899556 40.766418 
L 135.899556 23.186625 
L 121.849268 23.186625 
z
" clip-path="url(#p8131135396)" style="fill: #59595c"/>
   </g>
   <g id="patch_14">
    <path d="M 135.899556 40.766418 
L 136.372266 40.766418 
L 136.372266 23.186625 
L 135.899556 23.186625 
z
" clip-path="url(#p8131135396)" style="fill: #f49f7b"/>
   </g>
   <g id="patch_15">
    <path d="M 136.372266 40.766418 
L 138.337142 40.766418 
L 138.337142 23.186625 
L 136.372266 23.186625 
z
" clip-path="url(#p8131135396)" style="fill: #59595c"/>
   </g>
   <g id="patch_16">
    <path d="M 138.337142 40.766418 
L 140.131159 40.766418 
L 140.131159 23.186625 
L 138.337142 23.186625 
z
" clip-path="url(#p8131135396)" style="fill: #f49f7b"/>
   </g>
   <g id="patch_17">
    <path d="M 140.131159 40.766418 
L 142.904767 40.766418 
L 142.904767 23.186625 
L 140.131159 23.186625 
z
" clip-path="url(#p8131135396)" style="fill: #59595c"/>
   </g>
   <g id="patch_18">
    <path d="M 142.904767 40.766418 
L 145.086065 40.766418 
L 145.086065 23.186625 
L 142.904767 23.186625 
z
" clip-path="url(#p8131135396)" style="fill: #f49f7b"/>
   </g>
   <g id="patch_19">
    <path d="M 145.086065 40.766418 
L 147.261667 40.766418 
L 147.261667 23.186625 
L 145.086065 23.186625 
z
" clip-path="url(#p8131135396)" style="fill: #59595c"/>
   </g>
   <g id="patch_20">
    <path d="M 147.261667 40.766418 
L 147.478088 40.766418 
L 147.478088 23.186625 
L 147.261667 23.186625 
z
" clip-path="url(#p8131135396)" style="fill: #f49f7b"/>
   </g>
   <g id="patch_21">
    <path d="M 147.478088 40.766418 
L 153.082256 40.766418 
L 153.082256 23.186625 
L 147.478088 23.186625 
z
" clip-path="url(#p8131135396)" style="fill: #59595c"/>
   </g>
   <g id="patch_22">
    <path d="M 153.082256 40.766418 
L 153.253115 40.766418 
L 153.253115 23.186625 
L 153.082256 23.186625 
z
" clip-path="url(#p8131135396)" style="fill: #f49f7b"/>
   </g>
   <g id="patch_23">
    <path d="M 153.253115 40.766418 
L 154.192839 40.766418 
L 154.192839 23.186625 
L 153.253115 23.186625 
z
" clip-path="url(#p8131135396)" style="fill: #59595c"/>
   </g>
   <g id="patch_24">
    <path d="M 154.192839 40.766418 
L 155.855864 40.766418 
L 155.855864 23.186625 
L 154.192839 23.186625 
z
" clip-path="url(#p8131135396)" style="fill: #f49f7b"/>
   </g>
   <g id="patch_25">
    <path d="M 155.855864 40.766418 
L 159.871046 40.766418 
L 159.871046 23.186625 
L 155.855864 23.186625 
z
" clip-path="url(#p8131135396)" style="fill: #59595c"/>
   </g>
   <g id="patch_26">
    <path d="M 159.871046 40.766418 
L 160.087467 40.766418 
L 160.087467 23.186625 
L 159.871046 23.186625 
z
" clip-path="url(#p8131135396)" style="fill: #f49f7b"/>
   </g>
   <g id="patch_27">
    <path d="M 160.087467 40.766418 
L 166.44911 40.766418 
L 166.44911 23.186625 
L 160.087467 23.186625 
z
" clip-path="url(#p8131135396)" style="fill: #59595c"/>
   </g>
   <g id="patch_28">
    <path d="M 166.44911 40.766418 
L 167.730551 40.766418 
L 167.730551 23.186625 
L 166.44911 23.186625 
z
" clip-path="url(#p8131135396)" style="fill: #f49f7b"/>
   </g>
   <g id="patch_29">
    <path d="M 167.730551 40.766418 
L 179.907088 40.766418 
L 179.907088 23.186625 
L 167.730551 23.186625 
z
" clip-path="url(#p8131135396)" style="fill: #59595c"/>
   </g>
   <g id="patch_30">
    <path d="M 179.907088 40.766418 
L 181.399255 40.766418 
L 181.399255 23.186625 
L 179.907088 23.186625 
z
" clip-path="url(#p8131135396)" style="fill: #f49f7b"/>
   </g>
   <g id="patch_31">
    <path d="M 181.399255 40.766418 
L 184.588619 40.766418 
L 184.588619 23.186625 
L 181.399255 23.186625 
z
" clip-path="url(#p8131135396)" style="fill: #59595c"/>
   </g>
   <g id="patch_32">
    <path d="M 184.588619 40.766418 
L 184.713916 40.766418 
L 184.713916 23.186625 
L 184.588619 23.186625 
z
" clip-path="url(#p8131135396)" style="fill: #f49f7b"/>
   </g>
   <g id="patch_33">
    <path d="M 184.713916 40.766418 
L 197.744747 40.766418 
L 197.744747 23.186625 
L 184.713916 23.186625 
z
" clip-path="url(#p8131135396)" style="fill: #59595c"/>
   </g>
   <g id="patch_34">
    <path d="M 197.744747 40.766418 
L 198.342752 40.766418 
L 198.342752 23.186625 
L 197.744747 23.186625 
z
" clip-path="url(#p8131135396)" style="fill: #f49f7b"/>
   </g>
   <g id="patch_35">
    <path d="M 198.342752 40.766418 
L 207.489394 40.766418 
L 207.489394 23.186625 
L 198.342752 23.186625 
z
" clip-path="url(#p8131135396)" style="fill: #59595c"/>
   </g>
   <g id="patch_36">
    <path d="M 207.489394 40.766418 
L 208.132962 40.766418 
L 208.132962 23.186625 
L 207.489394 23.186625 
z
" clip-path="url(#p8131135396)" style="fill: #91d1bc"/>
   </g>
   <g id="patch_37">
    <path d="M 208.132962 40.766418 
L 211.515966 40.766418 
L 211.515966 23.186625 
L 208.132962 23.186625 
z
" clip-path="url(#p8131135396)" style="fill: #59595c"/>
   </g>
   <g id="patch_38">
    <path d="M 211.515966 40.766418 
L 214.078848 40.766418 
L 214.078848 23.186625 
L 211.515966 23.186625 
z
" clip-path="url(#p8131135396)" style="fill: #f49f7b"/>
   </g>
   <g id="patch_39">
    <path d="M 214.078848 40.766418 
L 215.958295 40.766418 
L 215.958295 23.186625 
L 214.078848 23.186625 
z
" clip-path="url(#p8131135396)" style="fill: #59595c"/>
   </g>
   <g id="patch_40">
    <path d="M 215.958295 40.766418 
L 216.214583 40.766418 
L 216.214583 23.186625 
L 215.958295 23.186625 
z
" clip-path="url(#p8131135396)" style="fill: #f49f7b"/>
   </g>
   <g id="patch_41">
    <path d="M 216.214583 40.766418 
L 227.491264 40.766418 
L 227.491264 23.186625 
L 216.214583 23.186625 
z
" clip-path="url(#p8131135396)" style="fill: #59595c"/>
   </g>
   <g id="patch_42">
    <path d="M 227.491264 40.766418 
L 228.430987 40.766418 
L 228.430987 23.186625 
L 227.491264 23.186625 
z
" clip-path="url(#p8131135396)" style="fill: #f49f7b"/>
   </g>
   <g id="patch_43">
    <path d="M 228.430987 40.766418 
L 230.310434 40.766418 
L 230.310434 23.186625 
L 228.430987 23.186625 
z
" clip-path="url(#p8131135396)" style="fill: #59595c"/>
   </g>
   <g id="patch_44">
    <path d="M 230.310434 40.766418 
L 233.420064 40.766418 
L 233.420064 23.186625 
L 230.310434 23.186625 
z
" clip-path="url(#p8131135396)" style="fill: #f49f7b"/>
   </g>
   <g id="patch_45">
    <path d="M 233.420064 40.766418 
L 236.945451 40.766418 
L 236.945451 23.186625 
L 233.420064 23.186625 
z
" clip-path="url(#p8131135396)" style="fill: #59595c"/>
   </g>
   <g id="patch_46">
    <path d="M 236.945451 40.766418 
L 238.187025 40.766418 
L 238.187025 23.186625 
L 236.945451 23.186625 
z
" clip-path="url(#p8131135396)" style="fill: #f49f7b"/>
   </g>
   <g id="patch_47">
    <path d="M 238.187025 40.766418 
L 238.665429 40.766418 
L 238.665429 23.186625 
L 238.187025 23.186625 
z
" clip-path="url(#p8131135396)" style="fill: #59595c"/>
   </g>
   <g id="patch_48">
    <path d="M 238.665429 40.766418 
L 239.861441 40.766418 
L 239.861441 23.186625 
L 238.665429 23.186625 
z
" clip-path="url(#p8131135396)" style="fill: #f49f7b"/>
   </g>
   <g id="patch_49">
    <path d="M 239.861441 40.766418 
L 241.234006 40.766418 
L 241.234006 23.186625 
L 239.861441 23.186625 
z
" clip-path="url(#p8131135396)" style="fill: #59595c"/>
   </g>
   <g id="patch_50">
    <path d="M 241.234006 40.766418 
L 243.500733 40.766418 
L 243.500733 23.186625 
L 241.234006 23.186625 
z
" clip-path="url(#p8131135396)" style="fill: #f49f7b"/>
   </g>
   <g id="patch_51">
    <path d="M 243.500733 40.766418 
L 244.01331 40.766418 
L 244.01331 23.186625 
L 243.500733 23.186625 
z
" clip-path="url(#p8131135396)" style="fill: #59595c"/>
   </g>
   <g id="patch_52">
    <path d="M 244.01331 40.766418 
L 244.542972 40.766418 
L 244.542972 23.186625 
L 244.01331 23.186625 
z
" clip-path="url(#p8131135396)" style="fill: #f49f7b"/>
   </g>
   <g id="patch_53">
    <path d="M 244.542972 40.766418 
L 244.970119 40.766418 
L 244.970119 23.186625 
L 244.542972 23.186625 
z
" clip-path="url(#p8131135396)" style="fill: #59595c"/>
   </g>
   <g id="patch_54">
    <path d="M 244.970119 40.766418 
L 245.824413 40.766418 
L 245.824413 23.186625 
L 244.970119 23.186625 
z
" clip-path="url(#p8131135396)" style="fill: #f49f7b"/>
   </g>
   <g id="patch_55">
    <path d="M 245.824413 40.766418 
L 246.507848 40.766418 
L 246.507848 23.186625 
L 245.824413 23.186625 
z
" clip-path="url(#p8131135396)" style="fill: #59595c"/>
   </g>
   <g id="patch_56">
    <path d="M 246.507848 40.766418 
L 246.889433 40.766418 
L 246.889433 23.186625 
L 246.507848 23.186625 
z
" clip-path="url(#p8131135396)" style="fill: #f49f7b"/>
   </g>
   <g id="patch_57">
    <path d="M 246.889433 40.766418 
L 247.658297 40.766418 
L 247.658297 23.186625 
L 246.889433 23.186625 
z
" clip-path="url(#p8131135396)" style="fill: #59595c"/>
   </g>
   <g id="patch_58">
    <path d="M 247.658297 40.766418 
L 248.472724 40.766418 
L 248.472724 23.186625 
L 247.658297 23.186625 
z
" clip-path="url(#p8131135396)" style="fill: #f49f7b"/>
   </g>
   <g id="patch_59">
    <path d="M 248.472724 40.766418 
L 249.241589 40.766418 
L 249.241589 23.186625 
L 248.472724 23.186625 
z
" clip-path="url(#p8131135396)" style="fill: #59595c"/>
   </g>
   <g id="patch_60">
    <path d="M 249.241589 40.766418 
L 250.266742 40.766418 
L 250.266742 23.186625 
L 249.241589 23.186625 
z
" clip-path="url(#p8131135396)" style="fill: #f49f7b"/>
   </g>
   <g id="patch_61">
    <path d="M 250.266742 40.766418 
L 254.156627 40.766418 
L 254.156627 23.186625 
L 250.266742 23.186625 
z
" clip-path="url(#p8131135396)" style="fill: #59595c"/>
   </g>
   <g id="patch_62">
    <path d="M 254.156627 40.766418 
L 254.680594 40.766418 
L 254.680594 23.186625 
L 254.156627 23.186625 
z
" clip-path="url(#p8131135396)" style="fill: #f49f7b"/>
   </g>
   <g id="patch_63">
    <path d="M 254.680594 40.766418 
L 254.897015 40.766418 
L 254.897015 23.186625 
L 254.680594 23.186625 
z
" clip-path="url(#p8131135396)" style="fill: #59595c"/>
   </g>
   <g id="patch_64">
    <path d="M 254.897015 40.766418 
L 255.495021 40.766418 
L 255.495021 23.186625 
L 254.897015 23.186625 
z
" clip-path="url(#p8131135396)" style="fill: #f49f7b"/>
   </g>
   <g id="patch_65">
    <path d="M 255.495021 40.766418 
L 255.751309 40.766418 
L 255.751309 23.186625 
L 255.495021 23.186625 
z
" clip-path="url(#p8131135396)" style="fill: #59595c"/>
   </g>
   <g id="patch_66">
    <path d="M 255.751309 40.766418 
L 257.545326 40.766418 
L 257.545326 23.186625 
L 255.751309 23.186625 
z
" clip-path="url(#p8131135396)" style="fill: #f49f7b"/>
   </g>
   <g id="patch_67">
    <path d="M 257.545326 40.766418 
L 260.022779 40.766418 
L 260.022779 23.186625 
L 257.545326 23.186625 
z
" clip-path="url(#p8131135396)" style="fill: #59595c"/>
   </g>
   <g id="patch_68">
    <path d="M 260.022779 40.766418 
L 268.736578 40.766418 
L 268.736578 23.186625 
L 260.022779 23.186625 
z
" clip-path="url(#p8131135396)" style="fill: #f49f7b"/>
   </g>
   <g id="patch_69">
    <path d="M 268.736578 40.766418 
L 272.239183 40.766418 
L 272.239183 23.186625 
L 268.736578 23.186625 
z
" clip-path="url(#p8131135396)" style="fill: #59595c"/>
   </g>
   <g id="patch_70">
    <path d="M 272.239183 40.766418 
L 273.093477 40.766418 
L 273.093477 23.186625 
L 272.239183 23.186625 
z
" clip-path="url(#p8131135396)" style="fill: #f49f7b"/>
   </g>
   <g id="patch_71">
    <path d="M 273.093477 40.766418 
L 279.335519 40.766418 
L 279.335519 23.186625 
L 273.093477 23.186625 
z
" clip-path="url(#p8131135396)" style="fill: #59595c"/>
   </g>
   <g id="patch_72">
    <path d="M 279.335519 40.766418 
L 280.275242 40.766418 
L 280.275242 23.186625 
L 279.335519 23.186625 
z
" clip-path="url(#p8131135396)" style="fill: #f49f7b"/>
   </g>
   <g id="patch_73">
    <path d="M 280.275242 40.766418 
L 283.265271 40.766418 
L 283.265271 23.186625 
L 280.275242 23.186625 
z
" clip-path="url(#p8131135396)" style="fill: #59595c"/>
   </g>
   <g id="patch_74">
    <path d="M 283.265271 40.766418 
L 284.848563 40.766418 
L 284.848563 23.186625 
L 283.265271 23.186625 
z
" clip-path="url(#p8131135396)" style="fill: #f49f7b"/>
   </g>
   <g id="patch_75">
    <path d="M 284.848563 40.766418 
L 285.486436 40.766418 
L 285.486436 23.186625 
L 284.848563 23.186625 
z
" clip-path="url(#p8131135396)" style="fill: #59595c"/>
   </g>
   <g id="patch_76">
    <path d="M 285.486436 40.766418 
L 286.597018 40.766418 
L 286.597018 23.186625 
L 285.486436 23.186625 
z
" clip-path="url(#p8131135396)" style="fill: #f49f7b"/>
   </g>
   <g id="patch_77">
    <path d="M 286.597018 40.766418 
L 287.536741 40.766418 
L 287.536741 23.186625 
L 286.597018 23.186625 
z
" clip-path="url(#p8131135396)" style="fill: #59595c"/>
   </g>
   <g id="patch_78">
    <path d="M 287.536741 40.766418 
L 288.265739 40.766418 
L 288.265739 23.186625 
L 287.536741 23.186625 
z
" clip-path="url(#p8131135396)" style="fill: #f49f7b"/>
   </g>
   <g id="patch_79">
    <path d="M 288.265739 40.766418 
L 294.456522 40.766418 
L 294.456522 23.186625 
L 288.265739 23.186625 
z
" clip-path="url(#p8131135396)" style="fill: #59595c"/>
   </g>
   <g id="patch_80">
    <path d="M 294.456522 40.766418 
L 295.18552 40.766418 
L 295.18552 23.186625 
L 294.456522 23.186625 
z
" clip-path="url(#p8131135396)" style="fill: #f49f7b"/>
   </g>
   <g id="patch_81">
    <path d="M 295.18552 40.766418 
L 299.325998 40.766418 
L 299.325998 23.186625 
L 295.18552 23.186625 
z
" clip-path="url(#p8131135396)" style="fill: #59595c"/>
   </g>
   <g id="patch_82">
    <path d="M 299.325998 40.766418 
L 300.009433 40.766418 
L 300.009433 23.186625 
L 299.325998 23.186625 
z
" clip-path="url(#p8131135396)" style="fill: #f49f7b"/>
   </g>
   <g id="patch_83">
    <path d="M 300.009433 40.766418 
L 304.981425 40.766418 
L 304.981425 23.186625 
L 300.009433 23.186625 
z
" clip-path="url(#p8131135396)" style="fill: #59595c"/>
   </g>
   <g id="patch_84">
    <path d="M 304.981425 40.766418 
L 335.872696 40.766418 
L 335.872696 23.186625 
L 304.981425 23.186625 
z
" clip-path="url(#p8131135396)" style="fill: #91d1bc"/>
   </g>
   <g id="patch_85">
    <path d="M 335.872696 40.766418 
L 341.886925 40.766418 
L 341.886925 23.186625 
L 335.872696 23.186625 
z
" clip-path="url(#p8131135396)" style="fill: #59595c"/>
   </g>
   <g id="patch_86">
    <path d="M 341.886925 40.766418 
L 343.04307 40.766418 
L 343.04307 23.186625 
L 341.886925 23.186625 
z
" clip-path="url(#p8131135396)" style="fill: #f49f7b"/>
   </g>
   <g id="patch_87">
    <path d="M 343.04307 40.766418 
L 348.87505 40.766418 
L 348.87505 23.186625 
L 343.04307 23.186625 
z
" clip-path="url(#p8131135396)" style="fill: #59595c"/>
   </g>
   <g id="patch_88">
    <path d="M 348.87505 40.766418 
L 349.729344 40.766418 
L 349.729344 23.186625 
L 348.87505 23.186625 
z
" clip-path="url(#p8131135396)" style="fill: #f49f7b"/>
   </g>
   <g id="patch_89">
    <path d="M 349.729344 40.766418 
L 351.056347 40.766418 
L 351.056347 23.186625 
L 349.729344 23.186625 
z
" clip-path="url(#p8131135396)" style="fill: #59595c"/>
   </g>
   <g id="patch_90">
    <path d="M 351.056347 40.766418 
L 351.563229 40.766418 
L 351.563229 23.186625 
L 351.056347 23.186625 
z
" clip-path="url(#p8131135396)" style="fill: #f49f7b"/>
   </g>
   <g id="patch_91">
    <path d="M 351.563229 40.766418 
L 352.890232 40.766418 
L 352.890232 23.186625 
L 351.563229 23.186625 
z
" clip-path="url(#p8131135396)" style="fill: #59595c"/>
   </g>
   <g id="patch_92">
    <path d="M 352.890232 40.766418 
L 353.317379 40.766418 
L 353.317379 23.186625 
L 352.890232 23.186625 
z
" clip-path="url(#p8131135396)" style="fill: #f49f7b"/>
   </g>
   <g id="patch_93">
    <path d="M 353.317379 40.766418 
L 354.000814 40.766418 
L 354.000814 23.186625 
L 353.317379 23.186625 
z
" clip-path="url(#p8131135396)" style="fill: #59595c"/>
   </g>
   <g id="patch_94">
    <path d="M 354.000814 40.766418 
L 354.473523 40.766418 
L 354.473523 23.186625 
L 354.000814 23.186625 
z
" clip-path="url(#p8131135396)" style="fill: #f49f7b"/>
   </g>
   <g id="patch_95">
    <path d="M 354.473523 40.766418 
L 357.03071 40.766418 
L 357.03071 23.186625 
L 354.473523 23.186625 
z
" clip-path="url(#p8131135396)" style="fill: #59595c"/>
   </g>
   <g id="patch_96">
    <path d="M 357.03071 40.766418 
L 358.015996 40.766418 
L 358.015996 23.186625 
L 357.03071 23.186625 
z
" clip-path="url(#p8131135396)" style="fill: #f49f7b"/>
   </g>
   <g id="patch_97">
    <path d="M 358.015996 40.766418 
L 360.026434 40.766418 
L 360.026434 23.186625 
L 358.015996 23.186625 
z
" clip-path="url(#p8131135396)" style="fill: #59595c"/>
   </g>
   <g id="patch_98">
    <path d="M 360.026434 40.766418 
L 361.518601 40.766418 
L 361.518601 23.186625 
L 360.026434 23.186625 
z
" clip-path="url(#p8131135396)" style="fill: #f49f7b"/>
   </g>
   <g id="patch_99">
    <path d="M 361.518601 40.766418 
L 365.619213 40.766418 
L 365.619213 23.186625 
L 361.518601 23.186625 
z
" clip-path="url(#p8131135396)" style="fill: #59595c"/>
   </g>
   <g id="patch_100">
    <path d="M 365.619213 40.766418 
L 366.302648 40.766418 
L 366.302648 23.186625 
L 365.619213 23.186625 
z
" clip-path="url(#p8131135396)" style="fill: #f49f7b"/>
   </g>
   <g id="patch_101">
    <path d="M 366.302648 40.766418 
L 367.373363 40.766418 
L 367.373363 23.186625 
L 366.302648 23.186625 
z
" clip-path="url(#p8131135396)" style="fill: #59595c"/>
   </g>
   <g id="patch_102">
    <path d="M 367.373363 40.766418 
L 368.398516 40.766418 
L 368.398516 23.186625 
L 367.373363 23.186625 
z
" clip-path="url(#p8131135396)" style="fill: #f49f7b"/>
   </g>
   <g id="patch_103">
    <path d="M 368.398516 40.766418 
L 377.220525 40.766418 
L 377.220525 23.186625 
L 368.398516 23.186625 
z
" clip-path="url(#p8131135396)" style="fill: #59595c"/>
   </g>
   <g id="matplotlib.axis_3"/>
   <g id="matplotlib.axis_4"/>
   <g id="text_3">
    <text style="font: 9px 'Arial'; text-anchor: end" x="46.220625" y="34.303162" transform="rotate(-0 46.220625 34.303162)">labels</text>
   </g>
  </g>
  <g id="axes_3">
   <g id="patch_104">
    <path d="M 50.145525 62.02698 
L 51.159287 62.02698 
L 51.159287 44.447187 
L 50.145525 44.447187 
z
" clip-path="url(#p868852343e)" style="fill: #f49f7b"/>
   </g>
   <g id="patch_105">
    <path d="M 51.159287 62.02698 
L 51.854113 62.02698 
L 51.854113 44.447187 
L 51.159287 44.447187 
z
" clip-path="url(#p868852343e)" style="fill: #59595c"/>
   </g>
   <g id="patch_106">
    <path d="M 51.854113 62.02698 
L 52.150268 62.02698 
L 52.150268 44.447187 
L 51.854113 44.447187 
z
" clip-path="url(#p868852343e)" style="fill: #f49f7b"/>
   </g>
   <g id="patch_107">
    <path d="M 52.150268 62.02698 
L 55.214336 62.02698 
L 55.214336 44.447187 
L 52.150268 44.447187 
z
" clip-path="url(#p868852343e)" style="fill: #59595c"/>
   </g>
   <g id="patch_108">
    <path d="M 55.214336 62.02698 
L 55.68135 62.02698 
L 55.68135 44.447187 
L 55.214336 44.447187 
z
" clip-path="url(#p868852343e)" style="fill: #f49f7b"/>
   </g>
   <g id="patch_109">
    <path d="M 55.68135 62.02698 
L 61.444987 62.02698 
L 61.444987 44.447187 
L 55.68135 44.447187 
z
" clip-path="url(#p868852343e)" style="fill: #59595c"/>
   </g>
   <g id="patch_110">
    <path d="M 61.444987 62.02698 
L 62.111336 62.02698 
L 62.111336 44.447187 
L 61.444987 44.447187 
z
" clip-path="url(#p868852343e)" style="fill: #f49f7b"/>
   </g>
   <g id="patch_111">
    <path d="M 62.111336 62.02698 
L 104.148296 62.02698 
L 104.148296 44.447187 
L 62.111336 44.447187 
z
" clip-path="url(#p868852343e)" style="fill: #59595c"/>
   </g>
   <g id="patch_112">
    <path d="M 104.148296 62.02698 
L 104.598224 62.02698 
L 104.598224 44.447187 
L 104.148296 44.447187 
z
" clip-path="url(#p868852343e)" style="fill: #f49f7b"/>
   </g>
   <g id="patch_113">
    <path d="M 104.598224 62.02698 
L 106.16443 62.02698 
L 106.16443 44.447187 
L 104.598224 44.447187 
z
" clip-path="url(#p868852343e)" style="fill: #59595c"/>
   </g>
   <g id="patch_114">
    <path d="M 106.16443 62.02698 
L 106.278336 62.02698 
L 106.278336 44.447187 
L 106.16443 44.447187 
z
" clip-path="url(#p868852343e)" style="fill: #f49f7b"/>
   </g>
   <g id="patch_115">
    <path d="M 106.278336 62.02698 
L 106.460585 62.02698 
L 106.460585 44.447187 
L 106.278336 44.447187 
z
" clip-path="url(#p868852343e)" style="fill: #59595c"/>
   </g>
   <g id="patch_116">
    <path d="M 106.460585 62.02698 
L 106.466281 62.02698 
L 106.466281 44.447187 
L 106.460585 44.447187 
z
" clip-path="url(#p868852343e)" style="fill: #f49f7b"/>
   </g>
   <g id="patch_117">
    <path d="M 106.466281 62.02698 
L 106.471976 62.02698 
L 106.471976 44.447187 
L 106.466281 44.447187 
z
" clip-path="url(#p868852343e)" style="fill: #59595c"/>
   </g>
   <g id="patch_118">
    <path d="M 106.471976 62.02698 
L 106.511843 62.02698 
L 106.511843 44.447187 
L 106.471976 44.447187 
z
" clip-path="url(#p868852343e)" style="fill: #f49f7b"/>
   </g>
   <g id="patch_119">
    <path d="M 106.511843 62.02698 
L 106.517538 62.02698 
L 106.517538 44.447187 
L 106.511843 44.447187 
z
" clip-path="url(#p868852343e)" style="fill: #59595c"/>
   </g>
   <g id="patch_120">
    <path d="M 106.517538 62.02698 
L 106.74535 62.02698 
L 106.74535 44.447187 
L 106.517538 44.447187 
z
" clip-path="url(#p868852343e)" style="fill: #f49f7b"/>
   </g>
   <g id="patch_121">
    <path d="M 106.74535 62.02698 
L 121.518941 62.02698 
L 121.518941 44.447187 
L 106.74535 44.447187 
z
" clip-path="url(#p868852343e)" style="fill: #59595c"/>
   </g>
   <g id="patch_122">
    <path d="M 121.518941 62.02698 
L 121.587284 62.02698 
L 121.587284 44.447187 
L 121.518941 44.447187 
z
" clip-path="url(#p868852343e)" style="fill: #f49f7b"/>
   </g>
   <g id="patch_123">
    <path d="M 121.587284 62.02698 
L 135.893861 62.02698 
L 135.893861 44.447187 
L 121.587284 44.447187 
z
" clip-path="url(#p868852343e)" style="fill: #59595c"/>
   </g>
   <g id="patch_124">
    <path d="M 135.893861 62.02698 
L 136.360875 62.02698 
L 136.360875 44.447187 
L 135.893861 44.447187 
z
" clip-path="url(#p868852343e)" style="fill: #f49f7b"/>
   </g>
   <g id="patch_125">
    <path d="M 136.360875 62.02698 
L 138.320056 62.02698 
L 138.320056 44.447187 
L 136.360875 44.447187 
z
" clip-path="url(#p868852343e)" style="fill: #59595c"/>
   </g>
   <g id="patch_126">
    <path d="M 138.320056 62.02698 
L 140.119769 62.02698 
L 140.119769 44.447187 
L 138.320056 44.447187 
z
" clip-path="url(#p868852343e)" style="fill: #f49f7b"/>
   </g>
   <g id="patch_127">
    <path d="M 140.119769 62.02698 
L 142.910463 62.02698 
L 142.910463 44.447187 
L 140.119769 44.447187 
z
" clip-path="url(#p868852343e)" style="fill: #59595c"/>
   </g>
   <g id="patch_128">
    <path d="M 142.910463 62.02698 
L 144.983549 62.02698 
L 144.983549 44.447187 
L 142.910463 44.447187 
z
" clip-path="url(#p868852343e)" style="fill: #f49f7b"/>
   </g>
   <g id="patch_129">
    <path d="M 144.983549 62.02698 
L 147.831196 62.02698 
L 147.831196 44.447187 
L 144.983549 44.447187 
z
" clip-path="url(#p868852343e)" style="fill: #59595c"/>
   </g>
   <g id="patch_130">
    <path d="M 147.831196 62.02698 
L 148.195695 62.02698 
L 148.195695 44.447187 
L 147.831196 44.447187 
z
" clip-path="url(#p868852343e)" style="fill: #f49f7b"/>
   </g>
   <g id="patch_131">
    <path d="M 148.195695 62.02698 
L 148.377944 62.02698 
L 148.377944 44.447187 
L 148.195695 44.447187 
z
" clip-path="url(#p868852343e)" style="fill: #59595c"/>
   </g>
   <g id="patch_132">
    <path d="M 148.377944 62.02698 
L 148.731052 62.02698 
L 148.731052 44.447187 
L 148.377944 44.447187 
z
" clip-path="url(#p868852343e)" style="fill: #f49f7b"/>
   </g>
   <g id="patch_133">
    <path d="M 148.731052 62.02698 
L 154.209925 62.02698 
L 154.209925 44.447187 
L 148.731052 44.447187 
z
" clip-path="url(#p868852343e)" style="fill: #59595c"/>
   </g>
   <g id="patch_134">
    <path d="M 154.209925 62.02698 
L 155.850169 62.02698 
L 155.850169 44.447187 
L 154.209925 44.447187 
z
" clip-path="url(#p868852343e)" style="fill: #f49f7b"/>
   </g>
   <g id="patch_135">
    <path d="M 155.850169 62.02698 
L 159.916608 62.02698 
L 159.916608 44.447187 
L 155.850169 44.447187 
z
" clip-path="url(#p868852343e)" style="fill: #59595c"/>
   </g>
   <g id="patch_136">
    <path d="M 159.916608 62.02698 
L 159.967866 62.02698 
L 159.967866 44.447187 
L 159.916608 44.447187 
z
" clip-path="url(#p868852343e)" style="fill: #f49f7b"/>
   </g>
   <g id="patch_137">
    <path d="M 159.967866 62.02698 
L 166.420633 62.02698 
L 166.420633 44.447187 
L 159.967866 44.447187 
z
" clip-path="url(#p868852343e)" style="fill: #59595c"/>
   </g>
   <g id="patch_138">
    <path d="M 166.420633 62.02698 
L 167.593864 62.02698 
L 167.593864 44.447187 
L 166.420633 44.447187 
z
" clip-path="url(#p868852343e)" style="fill: #f49f7b"/>
   </g>
   <g id="patch_139">
    <path d="M 167.593864 62.02698 
L 180.089337 62.02698 
L 180.089337 44.447187 
L 167.593864 44.447187 
z
" clip-path="url(#p868852343e)" style="fill: #59595c"/>
   </g>
   <g id="patch_140">
    <path d="M 180.089337 62.02698 
L 180.271587 62.02698 
L 180.271587 44.447187 
L 180.089337 44.447187 
z
" clip-path="url(#p868852343e)" style="fill: #f49f7b"/>
   </g>
   <g id="patch_141">
    <path d="M 180.271587 62.02698 
L 180.818335 62.02698 
L 180.818335 44.447187 
L 180.271587 44.447187 
z
" clip-path="url(#p868852343e)" style="fill: #59595c"/>
   </g>
   <g id="patch_142">
    <path d="M 180.818335 62.02698 
L 181.365083 62.02698 
L 181.365083 44.447187 
L 180.818335 44.447187 
z
" clip-path="url(#p868852343e)" style="fill: #f49f7b"/>
   </g>
   <g id="patch_143">
    <path d="M 181.365083 62.02698 
L 207.608995 62.02698 
L 207.608995 44.447187 
L 181.365083 44.447187 
z
" clip-path="url(#p868852343e)" style="fill: #59595c"/>
   </g>
   <g id="patch_144">
    <path d="M 207.608995 62.02698 
L 208.554413 62.02698 
L 208.554413 44.447187 
L 207.608995 44.447187 
z
" clip-path="url(#p868852343e)" style="fill: #91d1bc"/>
   </g>
   <g id="patch_145">
    <path d="M 208.554413 62.02698 
L 208.605671 62.02698 
L 208.605671 44.447187 
L 208.554413 44.447187 
z
" clip-path="url(#p868852343e)" style="fill: #59595c"/>
   </g>
   <g id="patch_146">
    <path d="M 208.605671 62.02698 
L 208.611366 62.02698 
L 208.611366 44.447187 
L 208.605671 44.447187 
z
" clip-path="url(#p868852343e)" style="fill: #91d1bc"/>
   </g>
   <g id="patch_147">
    <path d="M 208.611366 62.02698 
L 208.639843 62.02698 
L 208.639843 44.447187 
L 208.611366 44.447187 
z
" clip-path="url(#p868852343e)" style="fill: #59595c"/>
   </g>
   <g id="patch_148">
    <path d="M 208.639843 62.02698 
L 208.645538 62.02698 
L 208.645538 44.447187 
L 208.639843 44.447187 
z
" clip-path="url(#p868852343e)" style="fill: #91d1bc"/>
   </g>
   <g id="patch_149">
    <path d="M 208.645538 62.02698 
L 208.6911 62.02698 
L 208.6911 44.447187 
L 208.645538 44.447187 
z
" clip-path="url(#p868852343e)" style="fill: #59595c"/>
   </g>
   <g id="patch_150">
    <path d="M 208.6911 62.02698 
L 208.696796 62.02698 
L 208.696796 44.447187 
L 208.6911 44.447187 
z
" clip-path="url(#p868852343e)" style="fill: #91d1bc"/>
   </g>
   <g id="patch_151">
    <path d="M 208.696796 62.02698 
L 208.702491 62.02698 
L 208.702491 44.447187 
L 208.696796 44.447187 
z
" clip-path="url(#p868852343e)" style="fill: #59595c"/>
   </g>
   <g id="patch_152">
    <path d="M 208.702491 62.02698 
L 208.913217 62.02698 
L 208.913217 44.447187 
L 208.702491 44.447187 
z
" clip-path="url(#p868852343e)" style="fill: #91d1bc"/>
   </g>
   <g id="patch_153">
    <path d="M 208.913217 62.02698 
L 211.572919 62.02698 
L 211.572919 44.447187 
L 208.913217 44.447187 
z
" clip-path="url(#p868852343e)" style="fill: #59595c"/>
   </g>
   <g id="patch_154">
    <path d="M 211.572919 62.02698 
L 214.061762 62.02698 
L 214.061762 44.447187 
L 211.572919 44.447187 
z
" clip-path="url(#p868852343e)" style="fill: #f49f7b"/>
   </g>
   <g id="patch_155">
    <path d="M 214.061762 62.02698 
L 215.946904 62.02698 
L 215.946904 44.447187 
L 214.061762 44.447187 
z
" clip-path="url(#p868852343e)" style="fill: #59595c"/>
   </g>
   <g id="patch_156">
    <path d="M 215.946904 62.02698 
L 216.174716 62.02698 
L 216.174716 44.447187 
L 215.946904 44.447187 
z
" clip-path="url(#p868852343e)" style="fill: #f49f7b"/>
   </g>
   <g id="patch_157">
    <path d="M 216.174716 62.02698 
L 227.291928 62.02698 
L 227.291928 44.447187 
L 216.174716 44.447187 
z
" clip-path="url(#p868852343e)" style="fill: #59595c"/>
   </g>
   <g id="patch_158">
    <path d="M 227.291928 62.02698 
L 228.453768 62.02698 
L 228.453768 44.447187 
L 227.291928 44.447187 
z
" clip-path="url(#p868852343e)" style="fill: #f49f7b"/>
   </g>
   <g id="patch_159">
    <path d="M 228.453768 62.02698 
L 230.350301 62.02698 
L 230.350301 44.447187 
L 228.453768 44.447187 
z
" clip-path="url(#p868852343e)" style="fill: #59595c"/>
   </g>
   <g id="patch_160">
    <path d="M 230.350301 62.02698 
L 233.431455 62.02698 
L 233.431455 44.447187 
L 230.350301 44.447187 
z
" clip-path="url(#p868852343e)" style="fill: #f49f7b"/>
   </g>
   <g id="patch_161">
    <path d="M 233.431455 62.02698 
L 236.951146 62.02698 
L 236.951146 44.447187 
L 233.431455 44.447187 
z
" clip-path="url(#p868852343e)" style="fill: #59595c"/>
   </g>
   <g id="patch_162">
    <path d="M 236.951146 62.02698 
L 238.175634 62.02698 
L 238.175634 44.447187 
L 236.951146 44.447187 
z
" clip-path="url(#p868852343e)" style="fill: #f49f7b"/>
   </g>
   <g id="patch_163">
    <path d="M 238.175634 62.02698 
L 238.59139 62.02698 
L 238.59139 44.447187 
L 238.175634 44.447187 
z
" clip-path="url(#p868852343e)" style="fill: #59595c"/>
   </g>
   <g id="patch_164">
    <path d="M 238.59139 62.02698 
L 239.867136 62.02698 
L 239.867136 44.447187 
L 238.59139 44.447187 
z
" clip-path="url(#p868852343e)" style="fill: #f49f7b"/>
   </g>
   <g id="patch_165">
    <path d="M 239.867136 62.02698 
L 241.142882 62.02698 
L 241.142882 44.447187 
L 239.867136 44.447187 
z
" clip-path="url(#p868852343e)" style="fill: #59595c"/>
   </g>
   <g id="patch_166">
    <path d="M 241.142882 62.02698 
L 243.654506 62.02698 
L 243.654506 44.447187 
L 241.142882 44.447187 
z
" clip-path="url(#p868852343e)" style="fill: #f49f7b"/>
   </g>
   <g id="patch_167">
    <path d="M 243.654506 62.02698 
L 243.842451 62.02698 
L 243.842451 44.447187 
L 243.654506 44.447187 
z
" clip-path="url(#p868852343e)" style="fill: #59595c"/>
   </g>
   <g id="patch_168">
    <path d="M 243.842451 62.02698 
L 244.588534 62.02698 
L 244.588534 44.447187 
L 243.842451 44.447187 
z
" clip-path="url(#p868852343e)" style="fill: #f49f7b"/>
   </g>
   <g id="patch_169">
    <path d="M 244.588534 62.02698 
L 244.941642 62.02698 
L 244.941642 44.447187 
L 244.588534 44.447187 
z
" clip-path="url(#p868852343e)" style="fill: #59595c"/>
   </g>
   <g id="patch_170">
    <path d="M 244.941642 62.02698 
L 245.795936 62.02698 
L 245.795936 44.447187 
L 244.941642 44.447187 
z
" clip-path="url(#p868852343e)" style="fill: #f49f7b"/>
   </g>
   <g id="patch_171">
    <path d="M 245.795936 62.02698 
L 246.519239 62.02698 
L 246.519239 44.447187 
L 245.795936 44.447187 
z
" clip-path="url(#p868852343e)" style="fill: #59595c"/>
   </g>
   <g id="patch_172">
    <path d="M 246.519239 62.02698 
L 246.724269 62.02698 
L 246.724269 44.447187 
L 246.519239 44.447187 
z
" clip-path="url(#p868852343e)" style="fill: #f49f7b"/>
   </g>
   <g id="patch_173">
    <path d="M 246.724269 62.02698 
L 247.52161 62.02698 
L 247.52161 44.447187 
L 246.724269 44.447187 
z
" clip-path="url(#p868852343e)" style="fill: #59595c"/>
   </g>
   <g id="patch_174">
    <path d="M 247.52161 62.02698 
L 248.535372 62.02698 
L 248.535372 44.447187 
L 247.52161 44.447187 
z
" clip-path="url(#p868852343e)" style="fill: #f49f7b"/>
   </g>
   <g id="patch_175">
    <path d="M 248.535372 62.02698 
L 249.218808 62.02698 
L 249.218808 44.447187 
L 248.535372 44.447187 
z
" clip-path="url(#p868852343e)" style="fill: #59595c"/>
   </g>
   <g id="patch_176">
    <path d="M 249.218808 62.02698 
L 250.369257 62.02698 
L 250.369257 44.447187 
L 249.218808 44.447187 
z
" clip-path="url(#p868852343e)" style="fill: #f49f7b"/>
   </g>
   <g id="patch_177">
    <path d="M 250.369257 62.02698 
L 254.042721 62.02698 
L 254.042721 44.447187 
L 250.369257 44.447187 
z
" clip-path="url(#p868852343e)" style="fill: #59595c"/>
   </g>
   <g id="patch_178">
    <path d="M 254.042721 62.02698 
L 254.811586 62.02698 
L 254.811586 44.447187 
L 254.042721 44.447187 
z
" clip-path="url(#p868852343e)" style="fill: #f49f7b"/>
   </g>
   <g id="patch_179">
    <path d="M 254.811586 62.02698 
L 254.897015 62.02698 
L 254.897015 44.447187 
L 254.811586 44.447187 
z
" clip-path="url(#p868852343e)" style="fill: #59595c"/>
   </g>
   <g id="patch_180">
    <path d="M 254.897015 62.02698 
L 257.545326 62.02698 
L 257.545326 44.447187 
L 254.897015 44.447187 
z
" clip-path="url(#p868852343e)" style="fill: #f49f7b"/>
   </g>
   <g id="patch_181">
    <path d="M 257.545326 62.02698 
L 259.914569 62.02698 
L 259.914569 44.447187 
L 257.545326 44.447187 
z
" clip-path="url(#p868852343e)" style="fill: #59595c"/>
   </g>
   <g id="patch_182">
    <path d="M 259.914569 62.02698 
L 268.115791 62.02698 
L 268.115791 44.447187 
L 259.914569 44.447187 
z
" clip-path="url(#p868852343e)" style="fill: #f49f7b"/>
   </g>
   <g id="patch_183">
    <path d="M 268.115791 62.02698 
L 272.244879 62.02698 
L 272.244879 44.447187 
L 268.115791 44.447187 
z
" clip-path="url(#p868852343e)" style="fill: #59595c"/>
   </g>
   <g id="patch_184">
    <path d="M 272.244879 62.02698 
L 272.489776 62.02698 
L 272.489776 44.447187 
L 272.244879 44.447187 
z
" clip-path="url(#p868852343e)" style="fill: #f49f7b"/>
   </g>
   <g id="patch_185">
    <path d="M 272.489776 62.02698 
L 272.580901 62.02698 
L 272.580901 44.447187 
L 272.489776 44.447187 
z
" clip-path="url(#p868852343e)" style="fill: #59595c"/>
   </g>
   <g id="patch_186">
    <path d="M 272.580901 62.02698 
L 273.133344 62.02698 
L 273.133344 44.447187 
L 272.580901 44.447187 
z
" clip-path="url(#p868852343e)" style="fill: #f49f7b"/>
   </g>
   <g id="patch_187">
    <path d="M 273.133344 62.02698 
L 279.324128 62.02698 
L 279.324128 44.447187 
L 273.133344 44.447187 
z
" clip-path="url(#p868852343e)" style="fill: #59595c"/>
   </g>
   <g id="patch_188">
    <path d="M 279.324128 62.02698 
L 280.292328 62.02698 
L 280.292328 44.447187 
L 279.324128 44.447187 
z
" clip-path="url(#p868852343e)" style="fill: #f49f7b"/>
   </g>
   <g id="patch_189">
    <path d="M 280.292328 62.02698 
L 283.24249 62.02698 
L 283.24249 44.447187 
L 280.292328 44.447187 
z
" clip-path="url(#p868852343e)" style="fill: #59595c"/>
   </g>
   <g id="patch_190">
    <path d="M 283.24249 62.02698 
L 284.882734 62.02698 
L 284.882734 44.447187 
L 283.24249 44.447187 
z
" clip-path="url(#p868852343e)" style="fill: #f49f7b"/>
   </g>
   <g id="patch_191">
    <path d="M 284.882734 62.02698 
L 285.429483 62.02698 
L 285.429483 44.447187 
L 284.882734 44.447187 
z
" clip-path="url(#p868852343e)" style="fill: #59595c"/>
   </g>
   <g id="patch_192">
    <path d="M 285.429483 62.02698 
L 286.357815 62.02698 
L 286.357815 44.447187 
L 285.429483 44.447187 
z
" clip-path="url(#p868852343e)" style="fill: #f49f7b"/>
   </g>
   <g id="patch_193">
    <path d="M 286.357815 62.02698 
L 287.946802 62.02698 
L 287.946802 44.447187 
L 286.357815 44.447187 
z
" clip-path="url(#p868852343e)" style="fill: #59595c"/>
   </g>
   <g id="patch_194">
    <path d="M 287.946802 62.02698 
L 288.163223 62.02698 
L 288.163223 44.447187 
L 287.946802 44.447187 
z
" clip-path="url(#p868852343e)" style="fill: #f49f7b"/>
   </g>
   <g id="patch_195">
    <path d="M 288.163223 62.02698 
L 294.422351 62.02698 
L 294.422351 44.447187 
L 288.163223 44.447187 
z
" clip-path="url(#p868852343e)" style="fill: #59595c"/>
   </g>
   <g id="patch_196">
    <path d="M 294.422351 62.02698 
L 294.860888 62.02698 
L 294.860888 44.447187 
L 294.422351 44.447187 
z
" clip-path="url(#p868852343e)" style="fill: #f49f7b"/>
   </g>
   <g id="patch_197">
    <path d="M 294.860888 62.02698 
L 299.314608 62.02698 
L 299.314608 44.447187 
L 294.860888 44.447187 
z
" clip-path="url(#p868852343e)" style="fill: #59595c"/>
   </g>
   <g id="patch_198">
    <path d="M 299.314608 62.02698 
L 299.975262 62.02698 
L 299.975262 44.447187 
L 299.314608 44.447187 
z
" clip-path="url(#p868852343e)" style="fill: #f49f7b"/>
   </g>
   <g id="patch_199">
    <path d="M 299.975262 62.02698 
L 309.486402 62.02698 
L 309.486402 44.447187 
L 299.975262 44.447187 
z
" clip-path="url(#p868852343e)" style="fill: #59595c"/>
   </g>
   <g id="patch_200">
    <path d="M 309.486402 62.02698 
L 310.03315 62.02698 
L 310.03315 44.447187 
L 309.486402 44.447187 
z
" clip-path="url(#p868852343e)" style="fill: #91d1bc"/>
   </g>
   <g id="patch_201">
    <path d="M 310.03315 62.02698 
L 311.662004 62.02698 
L 311.662004 44.447187 
L 310.03315 44.447187 
z
" clip-path="url(#p868852343e)" style="fill: #59595c"/>
   </g>
   <g id="patch_202">
    <path d="M 311.662004 62.02698 
L 311.673394 62.02698 
L 311.673394 44.447187 
L 311.662004 44.447187 
z
" clip-path="url(#p868852343e)" style="fill: #91d1bc"/>
   </g>
   <g id="patch_203">
    <path d="M 311.673394 62.02698 
L 312.037893 62.02698 
L 312.037893 44.447187 
L 311.673394 44.447187 
z
" clip-path="url(#p868852343e)" style="fill: #59595c"/>
   </g>
   <g id="patch_204">
    <path d="M 312.037893 62.02698 
L 313.080132 62.02698 
L 313.080132 44.447187 
L 312.037893 44.447187 
z
" clip-path="url(#p868852343e)" style="fill: #91d1bc"/>
   </g>
   <g id="patch_205">
    <path d="M 313.080132 62.02698 
L 313.108608 62.02698 
L 313.108608 44.447187 
L 313.080132 44.447187 
z
" clip-path="url(#p868852343e)" style="fill: #59595c"/>
   </g>
   <g id="patch_206">
    <path d="M 313.108608 62.02698 
L 313.114303 62.02698 
L 313.114303 44.447187 
L 313.108608 44.447187 
z
" clip-path="url(#p868852343e)" style="fill: #91d1bc"/>
   </g>
   <g id="patch_207">
    <path d="M 313.114303 62.02698 
L 313.119999 62.02698 
L 313.119999 44.447187 
L 313.114303 44.447187 
z
" clip-path="url(#p868852343e)" style="fill: #59595c"/>
   </g>
   <g id="patch_208">
    <path d="M 313.119999 62.02698 
L 313.125694 62.02698 
L 313.125694 44.447187 
L 313.119999 44.447187 
z
" clip-path="url(#p868852343e)" style="fill: #91d1bc"/>
   </g>
   <g id="patch_209">
    <path d="M 313.125694 62.02698 
L 313.495888 62.02698 
L 313.495888 44.447187 
L 313.125694 44.447187 
z
" clip-path="url(#p868852343e)" style="fill: #59595c"/>
   </g>
   <g id="patch_210">
    <path d="M 313.495888 62.02698 
L 313.860387 62.02698 
L 313.860387 44.447187 
L 313.495888 44.447187 
z
" clip-path="url(#p868852343e)" style="fill: #91d1bc"/>
   </g>
   <g id="patch_211">
    <path d="M 313.860387 62.02698 
L 313.877473 62.02698 
L 313.877473 44.447187 
L 313.860387 44.447187 
z
" clip-path="url(#p868852343e)" style="fill: #59595c"/>
   </g>
   <g id="patch_212">
    <path d="M 313.877473 62.02698 
L 313.888863 62.02698 
L 313.888863 44.447187 
L 313.877473 44.447187 
z
" clip-path="url(#p868852343e)" style="fill: #91d1bc"/>
   </g>
   <g id="patch_213">
    <path d="M 313.888863 62.02698 
L 313.894559 62.02698 
L 313.894559 44.447187 
L 313.888863 44.447187 
z
" clip-path="url(#p868852343e)" style="fill: #59595c"/>
   </g>
   <g id="patch_214">
    <path d="M 313.894559 62.02698 
L 313.900254 62.02698 
L 313.900254 44.447187 
L 313.894559 44.447187 
z
" clip-path="url(#p868852343e)" style="fill: #91d1bc"/>
   </g>
   <g id="patch_215">
    <path d="M 313.900254 62.02698 
L 313.911644 62.02698 
L 313.911644 44.447187 
L 313.900254 44.447187 
z
" clip-path="url(#p868852343e)" style="fill: #59595c"/>
   </g>
   <g id="patch_216">
    <path d="M 313.911644 62.02698 
L 313.91734 62.02698 
L 313.91734 44.447187 
L 313.911644 44.447187 
z
" clip-path="url(#p868852343e)" style="fill: #91d1bc"/>
   </g>
   <g id="patch_217">
    <path d="M 313.91734 62.02698 
L 314.042636 62.02698 
L 314.042636 44.447187 
L 313.91734 44.447187 
z
" clip-path="url(#p868852343e)" style="fill: #59595c"/>
   </g>
   <g id="patch_218">
    <path d="M 314.042636 62.02698 
L 318.18881 62.02698 
L 318.18881 44.447187 
L 314.042636 44.447187 
z
" clip-path="url(#p868852343e)" style="fill: #91d1bc"/>
   </g>
   <g id="patch_219">
    <path d="M 318.18881 62.02698 
L 318.2002 62.02698 
L 318.2002 44.447187 
L 318.18881 44.447187 
z
" clip-path="url(#p868852343e)" style="fill: #59595c"/>
   </g>
   <g id="patch_220">
    <path d="M 318.2002 62.02698 
L 318.217286 62.02698 
L 318.217286 44.447187 
L 318.2002 44.447187 
z
" clip-path="url(#p868852343e)" style="fill: #91d1bc"/>
   </g>
   <g id="patch_221">
    <path d="M 318.217286 62.02698 
L 318.222982 62.02698 
L 318.222982 44.447187 
L 318.217286 44.447187 
z
" clip-path="url(#p868852343e)" style="fill: #59595c"/>
   </g>
   <g id="patch_222">
    <path d="M 318.222982 62.02698 
L 318.228677 62.02698 
L 318.228677 44.447187 
L 318.222982 44.447187 
z
" clip-path="url(#p868852343e)" style="fill: #91d1bc"/>
   </g>
   <g id="patch_223">
    <path d="M 318.228677 62.02698 
L 318.234372 62.02698 
L 318.234372 44.447187 
L 318.228677 44.447187 
z
" clip-path="url(#p868852343e)" style="fill: #59595c"/>
   </g>
   <g id="patch_224">
    <path d="M 318.234372 62.02698 
L 335.838524 62.02698 
L 335.838524 44.447187 
L 318.234372 44.447187 
z
" clip-path="url(#p868852343e)" style="fill: #91d1bc"/>
   </g>
   <g id="patch_225">
    <path d="M 335.838524 62.02698 
L 342.47354 62.02698 
L 342.47354 44.447187 
L 335.838524 44.447187 
z
" clip-path="url(#p868852343e)" style="fill: #59595c"/>
   </g>
   <g id="patch_226">
    <path d="M 342.47354 62.02698 
L 342.838039 62.02698 
L 342.838039 44.447187 
L 342.47354 44.447187 
z
" clip-path="url(#p868852343e)" style="fill: #f49f7b"/>
   </g>
   <g id="patch_227">
    <path d="M 342.838039 62.02698 
L 349.034518 62.02698 
L 349.034518 44.447187 
L 342.838039 44.447187 
z
" clip-path="url(#p868852343e)" style="fill: #59595c"/>
   </g>
   <g id="patch_228">
    <path d="M 349.034518 62.02698 
L 349.06869 62.02698 
L 349.06869 44.447187 
L 349.034518 44.447187 
z
" clip-path="url(#p868852343e)" style="fill: #f49f7b"/>
   </g>
   <g id="patch_229">
    <path d="M 349.06869 62.02698 
L 349.268025 62.02698 
L 349.268025 44.447187 
L 349.06869 44.447187 
z
" clip-path="url(#p868852343e)" style="fill: #59595c"/>
   </g>
   <g id="patch_230">
    <path d="M 349.268025 62.02698 
L 349.752125 62.02698 
L 349.752125 44.447187 
L 349.268025 44.447187 
z
" clip-path="url(#p868852343e)" style="fill: #f49f7b"/>
   </g>
   <g id="patch_231">
    <path d="M 349.752125 62.02698 
L 351.056347 62.02698 
L 351.056347 44.447187 
L 349.752125 44.447187 
z
" clip-path="url(#p868852343e)" style="fill: #59595c"/>
   </g>
   <g id="patch_232">
    <path d="M 351.056347 62.02698 
L 351.455018 62.02698 
L 351.455018 44.447187 
L 351.056347 44.447187 
z
" clip-path="url(#p868852343e)" style="fill: #f49f7b"/>
   </g>
   <g id="patch_233">
    <path d="M 351.455018 62.02698 
L 353.044005 62.02698 
L 353.044005 44.447187 
L 351.455018 44.447187 
z
" clip-path="url(#p868852343e)" style="fill: #59595c"/>
   </g>
   <g id="patch_234">
    <path d="M 353.044005 62.02698 
L 353.249035 62.02698 
L 353.249035 44.447187 
L 353.044005 44.447187 
z
" clip-path="url(#p868852343e)" style="fill: #f49f7b"/>
   </g>
   <g id="patch_235">
    <path d="M 353.249035 62.02698 
L 353.955252 62.02698 
L 353.955252 44.447187 
L 353.249035 44.447187 
z
" clip-path="url(#p868852343e)" style="fill: #59595c"/>
   </g>
   <g id="patch_236">
    <path d="M 353.955252 62.02698 
L 354.484914 62.02698 
L 354.484914 44.447187 
L 353.955252 44.447187 
z
" clip-path="url(#p868852343e)" style="fill: #f49f7b"/>
   </g>
   <g id="patch_237">
    <path d="M 354.484914 62.02698 
L 357.03071 62.02698 
L 357.03071 44.447187 
L 354.484914 44.447187 
z
" clip-path="url(#p868852343e)" style="fill: #59595c"/>
   </g>
   <g id="patch_238">
    <path d="M 357.03071 62.02698 
L 357.053491 62.02698 
L 357.053491 44.447187 
L 357.03071 44.447187 
z
" clip-path="url(#p868852343e)" style="fill: #f49f7b"/>
   </g>
   <g id="patch_239">
    <path d="M 357.053491 62.02698 
L 357.081968 62.02698 
L 357.081968 44.447187 
L 357.053491 44.447187 
z
" clip-path="url(#p868852343e)" style="fill: #59595c"/>
   </g>
   <g id="patch_240">
    <path d="M 357.081968 62.02698 
L 357.964738 62.02698 
L 357.964738 44.447187 
L 357.081968 44.447187 
z
" clip-path="url(#p868852343e)" style="fill: #f49f7b"/>
   </g>
   <g id="patch_241">
    <path d="M 357.964738 62.02698 
L 360.037825 62.02698 
L 360.037825 44.447187 
L 357.964738 44.447187 
z
" clip-path="url(#p868852343e)" style="fill: #59595c"/>
   </g>
   <g id="patch_242">
    <path d="M 360.037825 62.02698 
L 361.427477 62.02698 
L 361.427477 44.447187 
L 360.037825 44.447187 
z
" clip-path="url(#p868852343e)" style="fill: #f49f7b"/>
   </g>
   <g id="patch_243">
    <path d="M 361.427477 62.02698 
L 365.567955 62.02698 
L 365.567955 44.447187 
L 361.427477 44.447187 
z
" clip-path="url(#p868852343e)" style="fill: #59595c"/>
   </g>
   <g id="patch_244">
    <path d="M 365.567955 62.02698 
L 366.234304 62.02698 
L 366.234304 44.447187 
L 365.567955 44.447187 
z
" clip-path="url(#p868852343e)" style="fill: #f49f7b"/>
   </g>
   <g id="patch_245">
    <path d="M 366.234304 62.02698 
L 367.310715 62.02698 
L 367.310715 44.447187 
L 366.234304 44.447187 
z
" clip-path="url(#p868852343e)" style="fill: #59595c"/>
   </g>
   <g id="patch_246">
    <path d="M 367.310715 62.02698 
L 368.535203 62.02698 
L 368.535203 44.447187 
L 367.310715 44.447187 
z
" clip-path="url(#p868852343e)" style="fill: #f49f7b"/>
   </g>
   <g id="patch_247">
    <path d="M 368.535203 62.02698 
L 373.455936 62.02698 
L 373.455936 44.447187 
L 368.535203 44.447187 
z
" clip-path="url(#p868852343e)" style="fill: #59595c"/>
   </g>
   <g id="patch_248">
    <path d="M 373.455936 62.02698 
L 373.592623 62.02698 
L 373.592623 44.447187 
L 373.455936 44.447187 
z
" clip-path="url(#p868852343e)" style="fill: #f49f7b"/>
   </g>
   <g id="patch_249">
    <path d="M 373.592623 62.02698 
L 373.638186 62.02698 
L 373.638186 44.447187 
L 373.592623 44.447187 
z
" clip-path="url(#p868852343e)" style="fill: #59595c"/>
   </g>
   <g id="patch_250">
    <path d="M 373.638186 62.02698 
L 373.820435 62.02698 
L 373.820435 44.447187 
L 373.638186 44.447187 
z
" clip-path="url(#p868852343e)" style="fill: #f49f7b"/>
   </g>
   <g id="patch_251">
    <path d="M 373.820435 62.02698 
L 375.642929 62.02698 
L 375.642929 44.447187 
L 373.820435 44.447187 
z
" clip-path="url(#p868852343e)" style="fill: #59595c"/>
   </g>
   <g id="patch_252">
    <path d="M 375.642929 62.02698 
L 376.189677 62.02698 
L 376.189677 44.447187 
L 375.642929 44.447187 
z
" clip-path="url(#p868852343e)" style="fill: #f49f7b"/>
   </g>
   <g id="patch_253">
    <path d="M 376.189677 62.02698 
L 377.220525 62.02698 
L 377.220525 44.447187 
L 376.189677 44.447187 
z
" clip-path="url(#p868852343e)" style="fill: #59595c"/>
   </g>
   <g id="matplotlib.axis_5"/>
   <g id="matplotlib.axis_6"/>
   <g id="text_4">
    <text style="font: 9px 'Arial'; text-anchor: end" x="46.220625" y="55.563724" transform="rotate(-0 46.220625 55.563724)">prediction</text>
   </g>
  </g>
  <g id="axes_4">
   <g id="matplotlib.axis_7"/>
   <g id="matplotlib.axis_8"/>
   <g id="text_5">
    <text style="font: 9px 'Arial'; text-anchor: start" x="50.145525" y="72.149781" transform="rotate(-0 50.145525 72.149781)">0</text>
   </g>
   <g id="text_6">
    <text style="font: 9px 'Arial'; text-anchor: end" x="377.220525" y="72.149781" transform="rotate(-0 377.220525 72.149781)">57429</text>
   </g>
  </g>
  <g id="axes_5">
   <g id="matplotlib.axis_9"/>
   <g id="matplotlib.axis_10"/>
   <g id="text_7">
    <text style="font: italic 10px 'Arial'; text-anchor: start" x="50.145525" y="87.312244" transform="rotate(-0 50.145525 87.312244)">Example video 2: accuracy </text>
   </g>
   <g id="text_8">
    <text style="font: italic 700 10px 'Arial'; text-anchor: start" x="172.0674" y="87.360682" transform="rotate(-0 172.0674 87.360682)">94.4%</text>
   </g>
  </g>
  <g id="axes_6">
   <g id="patch_254">
    <path d="M 50.145525 112.623823 
L 54.196097 112.623823 
L 54.196097 95.04403 
L 50.145525 95.04403 
z
" clip-path="url(#pe94e01bb5b)" style="fill: #59595c"/>
   </g>
   <g id="patch_255">
    <path d="M 54.196097 112.623823 
L 54.67501 112.623823 
L 54.67501 95.04403 
L 54.196097 95.04403 
z
" clip-path="url(#pe94e01bb5b)" style="fill: #f49f7b"/>
   </g>
   <g id="patch_256">
    <path d="M 54.67501 112.623823 
L 57.519642 112.623823 
L 57.519642 95.04403 
L 54.67501 95.04403 
z
" clip-path="url(#pe94e01bb5b)" style="fill: #59595c"/>
   </g>
   <g id="patch_257">
    <path d="M 57.519642 112.623823 
L 58.125497 112.623823 
L 58.125497 95.04403 
L 57.519642 95.04403 
z
" clip-path="url(#pe94e01bb5b)" style="fill: #f49f7b"/>
   </g>
   <g id="patch_258">
    <path d="M 58.125497 112.623823 
L 63.65897 112.623823 
L 63.65897 95.04403 
L 58.125497 95.04403 
z
" clip-path="url(#pe94e01bb5b)" style="fill: #59595c"/>
   </g>
   <g id="patch_259">
    <path d="M 63.65897 112.623823 
L 63.918622 112.623823 
L 63.918622 95.04403 
L 63.65897 95.04403 
z
" clip-path="url(#pe94e01bb5b)" style="fill: #f49f7b"/>
   </g>
   <g id="patch_260">
    <path d="M 63.918622 112.623823 
L 65.897748 112.623823 
L 65.897748 95.04403 
L 63.918622 95.04403 
z
" clip-path="url(#pe94e01bb5b)" style="fill: #59595c"/>
   </g>
   <g id="patch_261">
    <path d="M 65.897748 112.623823 
L 66.290111 112.623823 
L 66.290111 95.04403 
L 65.897748 95.04403 
z
" clip-path="url(#pe94e01bb5b)" style="fill: #f49f7b"/>
   </g>
   <g id="patch_262">
    <path d="M 66.290111 112.623823 
L 66.636314 112.623823 
L 66.636314 95.04403 
L 66.290111 95.04403 
z
" clip-path="url(#pe94e01bb5b)" style="fill: #59595c"/>
   </g>
   <g id="patch_263">
    <path d="M 66.636314 112.623823 
L 67.282559 112.623823 
L 67.282559 95.04403 
L 66.636314 95.04403 
z
" clip-path="url(#pe94e01bb5b)" style="fill: #f49f7b"/>
   </g>
   <g id="patch_264">
    <path d="M 67.282559 112.623823 
L 71.31005 112.623823 
L 71.31005 95.04403 
L 67.282559 95.04403 
z
" clip-path="url(#pe94e01bb5b)" style="fill: #59595c"/>
   </g>
   <g id="patch_265">
    <path d="M 71.31005 112.623823 
L 74.079672 112.623823 
L 74.079672 95.04403 
L 71.31005 95.04403 
z
" clip-path="url(#pe94e01bb5b)" style="fill: #f49f7b"/>
   </g>
   <g id="patch_266">
    <path d="M 74.079672 112.623823 
L 91.257096 112.623823 
L 91.257096 95.04403 
L 74.079672 95.04403 
z
" clip-path="url(#pe94e01bb5b)" style="fill: #59595c"/>
   </g>
   <g id="patch_267">
    <path d="M 91.257096 112.623823 
L 92.036052 112.623823 
L 92.036052 95.04403 
L 91.257096 95.04403 
z
" clip-path="url(#pe94e01bb5b)" style="fill: #f49f7b"/>
   </g>
   <g id="patch_268">
    <path d="M 92.036052 112.623823 
L 93.207371 112.623823 
L 93.207371 95.04403 
L 92.036052 95.04403 
z
" clip-path="url(#pe94e01bb5b)" style="fill: #59595c"/>
   </g>
   <g id="patch_269">
    <path d="M 93.207371 112.623823 
L 95.238427 112.623823 
L 95.238427 95.04403 
L 93.207371 95.04403 
z
" clip-path="url(#pe94e01bb5b)" style="fill: #f49f7b"/>
   </g>
   <g id="patch_270">
    <path d="M 95.238427 112.623823 
L 97.0156 112.623823 
L 97.0156 95.04403 
L 95.238427 95.04403 
z
" clip-path="url(#pe94e01bb5b)" style="fill: #59595c"/>
   </g>
   <g id="patch_271">
    <path d="M 97.0156 112.623823 
L 97.921497 112.623823 
L 97.921497 95.04403 
L 97.0156 95.04403 
z
" clip-path="url(#pe94e01bb5b)" style="fill: #f49f7b"/>
   </g>
   <g id="patch_272">
    <path d="M 97.921497 112.623823 
L 103.853104 112.623823 
L 103.853104 95.04403 
L 97.921497 95.04403 
z
" clip-path="url(#pe94e01bb5b)" style="fill: #59595c"/>
   </g>
   <g id="patch_273">
    <path d="M 103.853104 112.623823 
L 104.499349 112.623823 
L 104.499349 95.04403 
L 103.853104 95.04403 
z
" clip-path="url(#pe94e01bb5b)" style="fill: #f49f7b"/>
   </g>
   <g id="patch_274">
    <path d="M 104.499349 112.623823 
L 111.642664 112.623823 
L 111.642664 95.04403 
L 104.499349 95.04403 
z
" clip-path="url(#pe94e01bb5b)" style="fill: #59595c"/>
   </g>
   <g id="patch_275">
    <path d="M 111.642664 112.623823 
L 111.988867 112.623823 
L 111.988867 95.04403 
L 111.642664 95.04403 
z
" clip-path="url(#pe94e01bb5b)" style="fill: #f49f7b"/>
   </g>
   <g id="patch_276">
    <path d="M 111.988867 112.623823 
L 126.137017 112.623823 
L 126.137017 95.04403 
L 111.988867 95.04403 
z
" clip-path="url(#pe94e01bb5b)" style="fill: #59595c"/>
   </g>
   <g id="patch_277">
    <path d="M 126.137017 112.623823 
L 126.569771 112.623823 
L 126.569771 95.04403 
L 126.137017 95.04403 
z
" clip-path="url(#pe94e01bb5b)" style="fill: #f49f7b"/>
   </g>
   <g id="patch_278">
    <path d="M 126.569771 112.623823 
L 129.858696 112.623823 
L 129.858696 95.04403 
L 126.569771 95.04403 
z
" clip-path="url(#pe94e01bb5b)" style="fill: #59595c"/>
   </g>
   <g id="patch_279">
    <path d="M 129.858696 112.623823 
L 130.118348 112.623823 
L 130.118348 95.04403 
L 129.858696 95.04403 
z
" clip-path="url(#pe94e01bb5b)" style="fill: #f49f7b"/>
   </g>
   <g id="patch_280">
    <path d="M 130.118348 112.623823 
L 130.856914 112.623823 
L 130.856914 95.04403 
L 130.118348 95.04403 
z
" clip-path="url(#pe94e01bb5b)" style="fill: #59595c"/>
   </g>
   <g id="patch_281">
    <path d="M 130.856914 112.623823 
L 131.156957 112.623823 
L 131.156957 95.04403 
L 130.856914 95.04403 
z
" clip-path="url(#pe94e01bb5b)" style="fill: #f49f7b"/>
   </g>
   <g id="patch_282">
    <path d="M 131.156957 112.623823 
L 149.678801 112.623823 
L 149.678801 95.04403 
L 131.156957 95.04403 
z
" clip-path="url(#pe94e01bb5b)" style="fill: #59595c"/>
   </g>
   <g id="patch_283">
    <path d="M 149.678801 112.623823 
L 151.542526 112.623823 
L 151.542526 95.04403 
L 149.678801 95.04403 
z
" clip-path="url(#pe94e01bb5b)" style="fill: #f49f7b"/>
   </g>
   <g id="patch_284">
    <path d="M 151.542526 112.623823 
L 160.145663 112.623823 
L 160.145663 95.04403 
L 151.542526 95.04403 
z
" clip-path="url(#pe94e01bb5b)" style="fill: #59595c"/>
   </g>
   <g id="patch_285">
    <path d="M 160.145663 112.623823 
L 160.578416 112.623823 
L 160.578416 95.04403 
L 160.145663 95.04403 
z
" clip-path="url(#pe94e01bb5b)" style="fill: #f49f7b"/>
   </g>
   <g id="patch_286">
    <path d="M 160.578416 112.623823 
L 165.823387 112.623823 
L 165.823387 95.04403 
L 160.578416 95.04403 
z
" clip-path="url(#pe94e01bb5b)" style="fill: #59595c"/>
   </g>
   <g id="patch_287">
    <path d="M 165.823387 112.623823 
L 166.729284 112.623823 
L 166.729284 95.04403 
L 165.823387 95.04403 
z
" clip-path="url(#pe94e01bb5b)" style="fill: #f49f7b"/>
   </g>
   <g id="patch_288">
    <path d="M 166.729284 112.623823 
L 168.091015 112.623823 
L 168.091015 95.04403 
L 166.729284 95.04403 
z
" clip-path="url(#pe94e01bb5b)" style="fill: #59595c"/>
   </g>
   <g id="patch_289">
    <path d="M 168.091015 112.623823 
L 168.869971 112.623823 
L 168.869971 95.04403 
L 168.091015 95.04403 
z
" clip-path="url(#pe94e01bb5b)" style="fill: #f49f7b"/>
   </g>
   <g id="patch_290">
    <path d="M 168.869971 112.623823 
L 170.774085 112.623823 
L 170.774085 95.04403 
L 168.869971 95.04403 
z
" clip-path="url(#pe94e01bb5b)" style="fill: #59595c"/>
   </g>
   <g id="patch_291">
    <path d="M 170.774085 112.623823 
L 171.206839 112.623823 
L 171.206839 95.04403 
L 170.774085 95.04403 
z
" clip-path="url(#pe94e01bb5b)" style="fill: #f49f7b"/>
   </g>
   <g id="patch_292">
    <path d="M 171.206839 112.623823 
L 240.707031 112.623823 
L 240.707031 95.04403 
L 171.206839 95.04403 
z
" clip-path="url(#pe94e01bb5b)" style="fill: #59595c"/>
   </g>
   <g id="patch_293">
    <path d="M 240.707031 112.623823 
L 241.053233 112.623823 
L 241.053233 95.04403 
L 240.707031 95.04403 
z
" clip-path="url(#pe94e01bb5b)" style="fill: #f49f7b"/>
   </g>
   <g id="patch_294">
    <path d="M 241.053233 112.623823 
L 244.382549 112.623823 
L 244.382549 95.04403 
L 241.053233 95.04403 
z
" clip-path="url(#pe94e01bb5b)" style="fill: #59595c"/>
   </g>
   <g id="patch_295">
    <path d="M 244.382549 112.623823 
L 244.688362 112.623823 
L 244.688362 95.04403 
L 244.382549 95.04403 
z
" clip-path="url(#pe94e01bb5b)" style="fill: #f49f7b"/>
   </g>
   <g id="patch_296">
    <path d="M 244.688362 112.623823 
L 247.544534 112.623823 
L 247.544534 95.04403 
L 244.688362 95.04403 
z
" clip-path="url(#pe94e01bb5b)" style="fill: #59595c"/>
   </g>
   <g id="patch_297">
    <path d="M 247.544534 112.623823 
L 250.83346 112.623823 
L 250.83346 95.04403 
L 247.544534 95.04403 
z
" clip-path="url(#pe94e01bb5b)" style="fill: #f49f7b"/>
   </g>
   <g id="patch_298">
    <path d="M 250.83346 112.623823 
L 251.652806 112.623823 
L 251.652806 95.04403 
L 250.83346 95.04403 
z
" clip-path="url(#pe94e01bb5b)" style="fill: #59595c"/>
   </g>
   <g id="patch_299">
    <path d="M 251.652806 112.623823 
L 252.604863 112.623823 
L 252.604863 95.04403 
L 251.652806 95.04403 
z
" clip-path="url(#pe94e01bb5b)" style="fill: #f49f7b"/>
   </g>
   <g id="patch_300">
    <path d="M 252.604863 112.623823 
L 261.259931 112.623823 
L 261.259931 95.04403 
L 252.604863 95.04403 
z
" clip-path="url(#pe94e01bb5b)" style="fill: #59595c"/>
   </g>
   <g id="patch_301">
    <path d="M 261.259931 112.623823 
L 261.952336 112.623823 
L 261.952336 95.04403 
L 261.259931 95.04403 
z
" clip-path="url(#pe94e01bb5b)" style="fill: #f49f7b"/>
   </g>
   <g id="patch_302">
    <path d="M 261.952336 112.623823 
L 264.248814 112.623823 
L 264.248814 95.04403 
L 261.952336 95.04403 
z
" clip-path="url(#pe94e01bb5b)" style="fill: #59595c"/>
   </g>
   <g id="patch_303">
    <path d="M 264.248814 112.623823 
L 265.241262 112.623823 
L 265.241262 95.04403 
L 264.248814 95.04403 
z
" clip-path="url(#pe94e01bb5b)" style="fill: #91d1bc"/>
   </g>
   <g id="patch_304">
    <path d="M 265.241262 112.623823 
L 265.443214 112.623823 
L 265.443214 95.04403 
L 265.241262 95.04403 
z
" clip-path="url(#pe94e01bb5b)" style="fill: #f49f7b"/>
   </g>
   <g id="patch_305">
    <path d="M 265.443214 112.623823 
L 267.993573 112.623823 
L 267.993573 95.04403 
L 265.443214 95.04403 
z
" clip-path="url(#pe94e01bb5b)" style="fill: #59595c"/>
   </g>
   <g id="patch_306">
    <path d="M 267.993573 112.623823 
L 268.472487 112.623823 
L 268.472487 95.04403 
L 267.993573 95.04403 
z
" clip-path="url(#pe94e01bb5b)" style="fill: #f49f7b"/>
   </g>
   <g id="patch_307">
    <path d="M 268.472487 112.623823 
L 268.772529 112.623823 
L 268.772529 95.04403 
L 268.472487 95.04403 
z
" clip-path="url(#pe94e01bb5b)" style="fill: #59595c"/>
   </g>
   <g id="patch_308">
    <path d="M 268.772529 112.623823 
L 274.704136 112.623823 
L 274.704136 95.04403 
L 268.772529 95.04403 
z
" clip-path="url(#pe94e01bb5b)" style="fill: #91d1bc"/>
   </g>
   <g id="patch_309">
    <path d="M 274.704136 112.623823 
L 274.807997 112.623823 
L 274.807997 95.04403 
L 274.704136 95.04403 
z
" clip-path="url(#pe94e01bb5b)" style="fill: #59595c"/>
   </g>
   <g id="patch_310">
    <path d="M 274.807997 112.623823 
L 275.413851 112.623823 
L 275.413851 95.04403 
L 274.807997 95.04403 
z
" clip-path="url(#pe94e01bb5b)" style="fill: #f49f7b"/>
   </g>
   <g id="patch_311">
    <path d="M 275.413851 112.623823 
L 276.192807 112.623823 
L 276.192807 95.04403 
L 275.413851 95.04403 
z
" clip-path="url(#pe94e01bb5b)" style="fill: #59595c"/>
   </g>
   <g id="patch_312">
    <path d="M 276.192807 112.623823 
L 276.365909 112.623823 
L 276.365909 95.04403 
L 276.192807 95.04403 
z
" clip-path="url(#pe94e01bb5b)" style="fill: #f49f7b"/>
   </g>
   <g id="patch_313">
    <path d="M 276.365909 112.623823 
L 277.404517 112.623823 
L 277.404517 95.04403 
L 276.365909 95.04403 
z
" clip-path="url(#pe94e01bb5b)" style="fill: #59595c"/>
   </g>
   <g id="patch_314">
    <path d="M 277.404517 112.623823 
L 277.964211 112.623823 
L 277.964211 95.04403 
L 277.404517 95.04403 
z
" clip-path="url(#pe94e01bb5b)" style="fill: #91d1bc"/>
   </g>
   <g id="patch_315">
    <path d="M 277.964211 112.623823 
L 278.310414 112.623823 
L 278.310414 95.04403 
L 277.964211 95.04403 
z
" clip-path="url(#pe94e01bb5b)" style="fill: #59595c"/>
   </g>
   <g id="patch_316">
    <path d="M 278.310414 112.623823 
L 278.829718 112.623823 
L 278.829718 95.04403 
L 278.310414 95.04403 
z
" clip-path="url(#pe94e01bb5b)" style="fill: #91d1bc"/>
   </g>
   <g id="patch_317">
    <path d="M 278.829718 112.623823 
L 283.307273 112.623823 
L 283.307273 95.04403 
L 278.829718 95.04403 
z
" clip-path="url(#pe94e01bb5b)" style="fill: #59595c"/>
   </g>
   <g id="patch_318">
    <path d="M 283.307273 112.623823 
L 287.807908 112.623823 
L 287.807908 95.04403 
L 283.307273 95.04403 
z
" clip-path="url(#pe94e01bb5b)" style="fill: #91d1bc"/>
   </g>
   <g id="patch_319">
    <path d="M 287.807908 112.623823 
L 292.695136 112.623823 
L 292.695136 95.04403 
L 287.807908 95.04403 
z
" clip-path="url(#pe94e01bb5b)" style="fill: #59595c"/>
   </g>
   <g id="patch_320">
    <path d="M 292.695136 112.623823 
L 295.424367 112.623823 
L 295.424367 95.04403 
L 292.695136 95.04403 
z
" clip-path="url(#pe94e01bb5b)" style="fill: #91d1bc"/>
   </g>
   <g id="patch_321">
    <path d="M 295.424367 112.623823 
L 302.521523 112.623823 
L 302.521523 95.04403 
L 295.424367 95.04403 
z
" clip-path="url(#pe94e01bb5b)" style="fill: #59595c"/>
   </g>
   <g id="patch_322">
    <path d="M 302.521523 112.623823 
L 303.906333 112.623823 
L 303.906333 95.04403 
L 302.521523 95.04403 
z
" clip-path="url(#pe94e01bb5b)" style="fill: #f49f7b"/>
   </g>
   <g id="patch_323">
    <path d="M 303.906333 112.623823 
L 321.735772 112.623823 
L 321.735772 95.04403 
L 303.906333 95.04403 
z
" clip-path="url(#pe94e01bb5b)" style="fill: #59595c"/>
   </g>
   <g id="patch_324">
    <path d="M 321.735772 112.623823 
L 322.122365 112.623823 
L 322.122365 95.04403 
L 321.735772 95.04403 
z
" clip-path="url(#pe94e01bb5b)" style="fill: #f49f7b"/>
   </g>
   <g id="patch_325">
    <path d="M 322.122365 112.623823 
L 326.322958 112.623823 
L 326.322958 95.04403 
L 322.122365 95.04403 
z
" clip-path="url(#pe94e01bb5b)" style="fill: #59595c"/>
   </g>
   <g id="patch_326">
    <path d="M 326.322958 112.623823 
L 327.83471 112.623823 
L 327.83471 95.04403 
L 326.322958 95.04403 
z
" clip-path="url(#pe94e01bb5b)" style="fill: #f49f7b"/>
   </g>
   <g id="patch_327">
    <path d="M 327.83471 112.623823 
L 339.605602 112.623823 
L 339.605602 95.04403 
L 327.83471 95.04403 
z
" clip-path="url(#pe94e01bb5b)" style="fill: #59595c"/>
   </g>
   <g id="patch_328">
    <path d="M 339.605602 112.623823 
L 340.430718 112.623823 
L 340.430718 95.04403 
L 339.605602 95.04403 
z
" clip-path="url(#pe94e01bb5b)" style="fill: #f49f7b"/>
   </g>
   <g id="patch_329">
    <path d="M 340.430718 112.623823 
L 353.107507 112.623823 
L 353.107507 95.04403 
L 340.430718 95.04403 
z
" clip-path="url(#pe94e01bb5b)" style="fill: #59595c"/>
   </g>
   <g id="patch_330">
    <path d="M 353.107507 112.623823 
L 355.011622 112.623823 
L 355.011622 95.04403 
L 353.107507 95.04403 
z
" clip-path="url(#pe94e01bb5b)" style="fill: #f49f7b"/>
   </g>
   <g id="patch_331">
    <path d="M 355.011622 112.623823 
L 359.731519 112.623823 
L 359.731519 95.04403 
L 355.011622 95.04403 
z
" clip-path="url(#pe94e01bb5b)" style="fill: #59595c"/>
   </g>
   <g id="patch_332">
    <path d="M 359.731519 112.623823 
L 362.022227 112.623823 
L 362.022227 95.04403 
L 359.731519 95.04403 
z
" clip-path="url(#pe94e01bb5b)" style="fill: #f49f7b"/>
   </g>
   <g id="patch_333">
    <path d="M 362.022227 112.623823 
L 370.504193 112.623823 
L 370.504193 95.04403 
L 362.022227 95.04403 
z
" clip-path="url(#pe94e01bb5b)" style="fill: #59595c"/>
   </g>
   <g id="patch_334">
    <path d="M 370.504193 112.623823 
L 373.579627 112.623823 
L 373.579627 95.04403 
L 370.504193 95.04403 
z
" clip-path="url(#pe94e01bb5b)" style="fill: #f49f7b"/>
   </g>
   <g id="patch_335">
    <path d="M 373.579627 112.623823 
L 375.743393 112.623823 
L 375.743393 95.04403 
L 373.579627 95.04403 
z
" clip-path="url(#pe94e01bb5b)" style="fill: #59595c"/>
   </g>
   <g id="patch_336">
    <path d="M 375.743393 112.623823 
L 376.089596 112.623823 
L 376.089596 95.04403 
L 375.743393 95.04403 
z
" clip-path="url(#pe94e01bb5b)" style="fill: #f49f7b"/>
   </g>
   <g id="patch_337">
    <path d="M 376.089596 112.623823 
L 377.220525 112.623823 
L 377.220525 95.04403 
L 376.089596 95.04403 
z
" clip-path="url(#pe94e01bb5b)" style="fill: #59595c"/>
   </g>
   <g id="matplotlib.axis_11"/>
   <g id="matplotlib.axis_12"/>
   <g id="text_9">
    <text style="font: 9px 'Arial'; text-anchor: end" x="46.220625" y="106.160567" transform="rotate(-0 46.220625 106.160567)">labels</text>
   </g>
  </g>
  <g id="axes_7">
   <g id="patch_338">
    <path d="M 50.145525 133.884386 
L 50.203225 133.884386 
L 50.203225 116.304592 
L 50.145525 116.304592 
z
" clip-path="url(#peae687ebc1)" style="fill: #f49f7b"/>
   </g>
   <g id="patch_339">
    <path d="M 50.203225 133.884386 
L 54.132626 133.884386 
L 54.132626 116.304592 
L 50.203225 116.304592 
z
" clip-path="url(#peae687ebc1)" style="fill: #59595c"/>
   </g>
   <g id="patch_340">
    <path d="M 54.132626 133.884386 
L 54.750021 133.884386 
L 54.750021 116.304592 
L 54.132626 116.304592 
z
" clip-path="url(#peae687ebc1)" style="fill: #f49f7b"/>
   </g>
   <g id="patch_341">
    <path d="M 54.750021 133.884386 
L 57.635043 133.884386 
L 57.635043 116.304592 
L 54.750021 116.304592 
z
" clip-path="url(#peae687ebc1)" style="fill: #59595c"/>
   </g>
   <g id="patch_342">
    <path d="M 57.635043 133.884386 
L 58.183198 133.884386 
L 58.183198 116.304592 
L 57.635043 116.304592 
z
" clip-path="url(#peae687ebc1)" style="fill: #f49f7b"/>
   </g>
   <g id="patch_343">
    <path d="M 58.183198 133.884386 
L 66.578613 133.884386 
L 66.578613 116.304592 
L 58.183198 116.304592 
z
" clip-path="url(#peae687ebc1)" style="fill: #59595c"/>
   </g>
   <g id="patch_344">
    <path d="M 66.578613 133.884386 
L 67.305639 133.884386 
L 67.305639 116.304592 
L 66.578613 116.304592 
z
" clip-path="url(#peae687ebc1)" style="fill: #f49f7b"/>
   </g>
   <g id="patch_345">
    <path d="M 67.305639 133.884386 
L 71.373521 133.884386 
L 71.373521 116.304592 
L 67.305639 116.304592 
z
" clip-path="url(#peae687ebc1)" style="fill: #59595c"/>
   </g>
   <g id="patch_346">
    <path d="M 71.373521 133.884386 
L 72.487139 133.884386 
L 72.487139 116.304592 
L 71.373521 116.304592 
z
" clip-path="url(#peae687ebc1)" style="fill: #f49f7b"/>
   </g>
   <g id="patch_347">
    <path d="M 72.487139 133.884386 
L 72.671781 133.884386 
L 72.671781 116.304592 
L 72.487139 116.304592 
z
" clip-path="url(#peae687ebc1)" style="fill: #59595c"/>
   </g>
   <g id="patch_348">
    <path d="M 72.671781 133.884386 
L 74.148912 133.884386 
L 74.148912 116.304592 
L 72.671781 116.304592 
z
" clip-path="url(#peae687ebc1)" style="fill: #f49f7b"/>
   </g>
   <g id="patch_349">
    <path d="M 74.148912 133.884386 
L 91.135925 133.884386 
L 91.135925 116.304592 
L 74.148912 116.304592 
z
" clip-path="url(#peae687ebc1)" style="fill: #59595c"/>
   </g>
   <g id="patch_350">
    <path d="M 91.135925 133.884386 
L 92.134142 133.884386 
L 92.134142 116.304592 
L 91.135925 116.304592 
z
" clip-path="url(#peae687ebc1)" style="fill: #f49f7b"/>
   </g>
   <g id="patch_351">
    <path d="M 92.134142 133.884386 
L 93.13813 133.884386 
L 93.13813 116.304592 
L 92.134142 116.304592 
z
" clip-path="url(#peae687ebc1)" style="fill: #59595c"/>
   </g>
   <g id="patch_352">
    <path d="M 93.13813 133.884386 
L 95.324977 133.884386 
L 95.324977 116.304592 
L 93.13813 116.304592 
z
" clip-path="url(#peae687ebc1)" style="fill: #f49f7b"/>
   </g>
   <g id="patch_353">
    <path d="M 95.324977 133.884386 
L 97.055991 133.884386 
L 97.055991 116.304592 
L 95.324977 116.304592 
z
" clip-path="url(#peae687ebc1)" style="fill: #59595c"/>
   </g>
   <g id="patch_354">
    <path d="M 97.055991 133.884386 
L 97.229092 133.884386 
L 97.229092 116.304592 
L 97.055991 116.304592 
z
" clip-path="url(#peae687ebc1)" style="fill: #f49f7b"/>
   </g>
   <g id="patch_355">
    <path d="M 97.229092 133.884386 
L 97.413734 133.884386 
L 97.413734 116.304592 
L 97.229092 116.304592 
z
" clip-path="url(#peae687ebc1)" style="fill: #59595c"/>
   </g>
   <g id="patch_356">
    <path d="M 97.413734 133.884386 
L 97.973428 133.884386 
L 97.973428 116.304592 
L 97.413734 116.304592 
z
" clip-path="url(#peae687ebc1)" style="fill: #f49f7b"/>
   </g>
   <g id="patch_357">
    <path d="M 97.973428 133.884386 
L 103.783863 133.884386 
L 103.783863 116.304592 
L 97.973428 116.304592 
z
" clip-path="url(#peae687ebc1)" style="fill: #59595c"/>
   </g>
   <g id="patch_358">
    <path d="M 103.783863 133.884386 
L 104.395488 133.884386 
L 104.395488 116.304592 
L 103.783863 116.304592 
z
" clip-path="url(#peae687ebc1)" style="fill: #f49f7b"/>
   </g>
   <g id="patch_359">
    <path d="M 104.395488 133.884386 
L 104.799391 133.884386 
L 104.799391 116.304592 
L 104.395488 116.304592 
z
" clip-path="url(#peae687ebc1)" style="fill: #59595c"/>
   </g>
   <g id="patch_360">
    <path d="M 104.799391 133.884386 
L 104.862862 133.884386 
L 104.862862 116.304592 
L 104.799391 116.304592 
z
" clip-path="url(#peae687ebc1)" style="fill: #f49f7b"/>
   </g>
   <g id="patch_361">
    <path d="M 104.862862 133.884386 
L 111.567654 133.884386 
L 111.567654 116.304592 
L 104.862862 116.304592 
z
" clip-path="url(#peae687ebc1)" style="fill: #59595c"/>
   </g>
   <g id="patch_362">
    <path d="M 111.567654 133.884386 
L 111.971557 133.884386 
L 111.971557 116.304592 
L 111.567654 116.304592 
z
" clip-path="url(#peae687ebc1)" style="fill: #f49f7b"/>
   </g>
   <g id="patch_363">
    <path d="M 111.971557 133.884386 
L 126.165868 133.884386 
L 126.165868 116.304592 
L 111.971557 116.304592 
z
" clip-path="url(#peae687ebc1)" style="fill: #59595c"/>
   </g>
   <g id="patch_364">
    <path d="M 126.165868 133.884386 
L 126.217798 133.884386 
L 126.217798 116.304592 
L 126.165868 116.304592 
z
" clip-path="url(#peae687ebc1)" style="fill: #f49f7b"/>
   </g>
   <g id="patch_365">
    <path d="M 126.217798 133.884386 
L 128.618137 133.884386 
L 128.618137 116.304592 
L 126.217798 116.304592 
z
" clip-path="url(#peae687ebc1)" style="fill: #59595c"/>
   </g>
   <g id="patch_366">
    <path d="M 128.618137 133.884386 
L 129.03358 133.884386 
L 129.03358 116.304592 
L 128.618137 116.304592 
z
" clip-path="url(#peae687ebc1)" style="fill: #f49f7b"/>
   </g>
   <g id="patch_367">
    <path d="M 129.03358 133.884386 
L 129.841386 133.884386 
L 129.841386 116.304592 
L 129.03358 116.304592 
z
" clip-path="url(#peae687ebc1)" style="fill: #59595c"/>
   </g>
   <g id="patch_368">
    <path d="M 129.841386 133.884386 
L 130.118348 133.884386 
L 130.118348 116.304592 
L 129.841386 116.304592 
z
" clip-path="url(#peae687ebc1)" style="fill: #f49f7b"/>
   </g>
   <g id="patch_369">
    <path d="M 130.118348 133.884386 
L 130.879994 133.884386 
L 130.879994 116.304592 
L 130.118348 116.304592 
z
" clip-path="url(#peae687ebc1)" style="fill: #59595c"/>
   </g>
   <g id="patch_370">
    <path d="M 130.879994 133.884386 
L 131.018476 133.884386 
L 131.018476 116.304592 
L 130.879994 116.304592 
z
" clip-path="url(#peae687ebc1)" style="fill: #f49f7b"/>
   </g>
   <g id="patch_371">
    <path d="M 131.018476 133.884386 
L 149.828822 133.884386 
L 149.828822 116.304592 
L 131.018476 116.304592 
z
" clip-path="url(#peae687ebc1)" style="fill: #59595c"/>
   </g>
   <g id="patch_372">
    <path d="M 149.828822 133.884386 
L 149.840362 133.884386 
L 149.840362 116.304592 
L 149.828822 116.304592 
z
" clip-path="url(#peae687ebc1)" style="fill: #f49f7b"/>
   </g>
   <g id="patch_373">
    <path d="M 149.840362 133.884386 
L 149.846132 133.884386 
L 149.846132 116.304592 
L 149.840362 116.304592 
z
" clip-path="url(#peae687ebc1)" style="fill: #59595c"/>
   </g>
   <g id="patch_374">
    <path d="M 149.846132 133.884386 
L 151.490595 133.884386 
L 151.490595 116.304592 
L 149.846132 116.304592 
z
" clip-path="url(#peae687ebc1)" style="fill: #f49f7b"/>
   </g>
   <g id="patch_375">
    <path d="M 151.490595 133.884386 
L 157.647233 133.884386 
L 157.647233 116.304592 
L 151.490595 116.304592 
z
" clip-path="url(#peae687ebc1)" style="fill: #59595c"/>
   </g>
   <g id="patch_376">
    <path d="M 157.647233 133.884386 
L 157.970356 133.884386 
L 157.970356 116.304592 
L 157.647233 116.304592 
z
" clip-path="url(#peae687ebc1)" style="fill: #f49f7b"/>
   </g>
   <g id="patch_377">
    <path d="M 157.970356 133.884386 
L 160.145663 133.884386 
L 160.145663 116.304592 
L 157.970356 116.304592 
z
" clip-path="url(#peae687ebc1)" style="fill: #59595c"/>
   </g>
   <g id="patch_378">
    <path d="M 160.145663 133.884386 
L 160.670737 133.884386 
L 160.670737 116.304592 
L 160.145663 116.304592 
z
" clip-path="url(#peae687ebc1)" style="fill: #f49f7b"/>
   </g>
   <g id="patch_379">
    <path d="M 160.670737 133.884386 
L 165.875317 133.884386 
L 165.875317 116.304592 
L 160.670737 116.304592 
z
" clip-path="url(#peae687ebc1)" style="fill: #59595c"/>
   </g>
   <g id="patch_380">
    <path d="M 165.875317 133.884386 
L 166.781214 133.884386 
L 166.781214 116.304592 
L 165.875317 116.304592 
z
" clip-path="url(#peae687ebc1)" style="fill: #f49f7b"/>
   </g>
   <g id="patch_381">
    <path d="M 166.781214 133.884386 
L 168.131405 133.884386 
L 168.131405 116.304592 
L 166.781214 116.304592 
z
" clip-path="url(#peae687ebc1)" style="fill: #59595c"/>
   </g>
   <g id="patch_382">
    <path d="M 168.131405 133.884386 
L 168.927671 133.884386 
L 168.927671 116.304592 
L 168.131405 116.304592 
z
" clip-path="url(#peae687ebc1)" style="fill: #f49f7b"/>
   </g>
   <g id="patch_383">
    <path d="M 168.927671 133.884386 
L 170.843326 133.884386 
L 170.843326 116.304592 
L 168.927671 116.304592 
z
" clip-path="url(#peae687ebc1)" style="fill: #59595c"/>
   </g>
   <g id="patch_384">
    <path d="M 170.843326 133.884386 
L 171.160678 133.884386 
L 171.160678 116.304592 
L 170.843326 116.304592 
z
" clip-path="url(#peae687ebc1)" style="fill: #f49f7b"/>
   </g>
   <g id="patch_385">
    <path d="M 171.160678 133.884386 
L 196.335385 133.884386 
L 196.335385 116.304592 
L 171.160678 116.304592 
z
" clip-path="url(#peae687ebc1)" style="fill: #59595c"/>
   </g>
   <g id="patch_386">
    <path d="M 196.335385 133.884386 
L 196.381545 133.884386 
L 196.381545 116.304592 
L 196.335385 116.304592 
z
" clip-path="url(#peae687ebc1)" style="fill: #f49f7b"/>
   </g>
   <g id="patch_387">
    <path d="M 196.381545 133.884386 
L 211.15286 133.884386 
L 211.15286 116.304592 
L 196.381545 116.304592 
z
" clip-path="url(#peae687ebc1)" style="fill: #59595c"/>
   </g>
   <g id="patch_388">
    <path d="M 211.15286 133.884386 
L 211.706785 133.884386 
L 211.706785 116.304592 
L 211.15286 116.304592 
z
" clip-path="url(#peae687ebc1)" style="fill: #f49f7b"/>
   </g>
   <g id="patch_389">
    <path d="M 211.706785 133.884386 
L 211.891426 133.884386 
L 211.891426 116.304592 
L 211.706785 116.304592 
z
" clip-path="url(#peae687ebc1)" style="fill: #59595c"/>
   </g>
   <g id="patch_390">
    <path d="M 211.891426 133.884386 
L 212.260709 133.884386 
L 212.260709 116.304592 
L 211.891426 116.304592 
z
" clip-path="url(#peae687ebc1)" style="fill: #f49f7b"/>
   </g>
   <g id="patch_391">
    <path d="M 212.260709 133.884386 
L 224.447044 133.884386 
L 224.447044 116.304592 
L 212.260709 116.304592 
z
" clip-path="url(#peae687ebc1)" style="fill: #59595c"/>
   </g>
   <g id="patch_392">
    <path d="M 224.447044 133.884386 
L 224.925958 133.884386 
L 224.925958 116.304592 
L 224.447044 116.304592 
z
" clip-path="url(#peae687ebc1)" style="fill: #f49f7b"/>
   </g>
   <g id="patch_393">
    <path d="M 224.925958 133.884386 
L 226.847383 133.884386 
L 226.847383 116.304592 
L 224.925958 116.304592 
z
" clip-path="url(#peae687ebc1)" style="fill: #59595c"/>
   </g>
   <g id="patch_394">
    <path d="M 226.847383 133.884386 
L 227.032024 133.884386 
L 227.032024 116.304592 
L 226.847383 116.304592 
z
" clip-path="url(#peae687ebc1)" style="fill: #f49f7b"/>
   </g>
   <g id="patch_395">
    <path d="M 227.032024 133.884386 
L 233.546405 133.884386 
L 233.546405 116.304592 
L 227.032024 116.304592 
z
" clip-path="url(#peae687ebc1)" style="fill: #59595c"/>
   </g>
   <g id="patch_396">
    <path d="M 233.546405 133.884386 
L 234.019549 133.884386 
L 234.019549 116.304592 
L 233.546405 116.304592 
z
" clip-path="url(#peae687ebc1)" style="fill: #f49f7b"/>
   </g>
   <g id="patch_397">
    <path d="M 234.019549 133.884386 
L 240.63202 133.884386 
L 240.63202 116.304592 
L 234.019549 116.304592 
z
" clip-path="url(#peae687ebc1)" style="fill: #59595c"/>
   </g>
   <g id="patch_398">
    <path d="M 240.63202 133.884386 
L 241.064773 133.884386 
L 241.064773 116.304592 
L 240.63202 116.304592 
z
" clip-path="url(#peae687ebc1)" style="fill: #f49f7b"/>
   </g>
   <g id="patch_399">
    <path d="M 241.064773 133.884386 
L 244.307539 133.884386 
L 244.307539 116.304592 
L 241.064773 116.304592 
z
" clip-path="url(#peae687ebc1)" style="fill: #59595c"/>
   </g>
   <g id="patch_400">
    <path d="M 244.307539 133.884386 
L 244.578731 133.884386 
L 244.578731 116.304592 
L 244.307539 116.304592 
z
" clip-path="url(#peae687ebc1)" style="fill: #f49f7b"/>
   </g>
   <g id="patch_401">
    <path d="M 244.578731 133.884386 
L 247.527224 133.884386 
L 247.527224 116.304592 
L 244.578731 116.304592 
z
" clip-path="url(#peae687ebc1)" style="fill: #59595c"/>
   </g>
   <g id="patch_402">
    <path d="M 247.527224 133.884386 
L 249.188997 133.884386 
L 249.188997 116.304592 
L 247.527224 116.304592 
z
" clip-path="url(#peae687ebc1)" style="fill: #f49f7b"/>
   </g>
   <g id="patch_403">
    <path d="M 249.188997 133.884386 
L 249.373638 133.884386 
L 249.373638 116.304592 
L 249.188997 116.304592 
z
" clip-path="url(#peae687ebc1)" style="fill: #59595c"/>
   </g>
   <g id="patch_404">
    <path d="M 249.373638 133.884386 
L 250.804609 133.884386 
L 250.804609 116.304592 
L 249.373638 116.304592 
z
" clip-path="url(#peae687ebc1)" style="fill: #f49f7b"/>
   </g>
   <g id="patch_405">
    <path d="M 250.804609 133.884386 
L 251.716277 133.884386 
L 251.716277 116.304592 
L 250.804609 116.304592 
z
" clip-path="url(#peae687ebc1)" style="fill: #59595c"/>
   </g>
   <g id="patch_406">
    <path d="M 251.716277 133.884386 
L 252.697184 133.884386 
L 252.697184 116.304592 
L 251.716277 116.304592 
z
" clip-path="url(#peae687ebc1)" style="fill: #f49f7b"/>
   </g>
   <g id="patch_407">
    <path d="M 252.697184 133.884386 
L 261.19069 133.884386 
L 261.19069 116.304592 
L 252.697184 116.304592 
z
" clip-path="url(#peae687ebc1)" style="fill: #59595c"/>
   </g>
   <g id="patch_408">
    <path d="M 261.19069 133.884386 
L 261.969646 133.884386 
L 261.969646 116.304592 
L 261.19069 116.304592 
z
" clip-path="url(#peae687ebc1)" style="fill: #f49f7b"/>
   </g>
   <g id="patch_409">
    <path d="M 261.969646 133.884386 
L 267.901253 133.884386 
L 267.901253 116.304592 
L 261.969646 116.304592 
z
" clip-path="url(#peae687ebc1)" style="fill: #59595c"/>
   </g>
   <g id="patch_410">
    <path d="M 267.901253 133.884386 
L 268.316696 133.884386 
L 268.316696 116.304592 
L 267.901253 116.304592 
z
" clip-path="url(#peae687ebc1)" style="fill: #f49f7b"/>
   </g>
   <g id="patch_411">
    <path d="M 268.316696 133.884386 
L 269.684197 133.884386 
L 269.684197 116.304592 
L 268.316696 116.304592 
z
" clip-path="url(#peae687ebc1)" style="fill: #59595c"/>
   </g>
   <g id="patch_412">
    <path d="M 269.684197 133.884386 
L 274.854157 133.884386 
L 274.854157 116.304592 
L 269.684197 116.304592 
z
" clip-path="url(#peae687ebc1)" style="fill: #91d1bc"/>
   </g>
   <g id="patch_413">
    <path d="M 274.854157 133.884386 
L 274.981098 133.884386 
L 274.981098 116.304592 
L 274.854157 116.304592 
z
" clip-path="url(#peae687ebc1)" style="fill: #59595c"/>
   </g>
   <g id="patch_414">
    <path d="M 274.981098 133.884386 
L 275.517712 133.884386 
L 275.517712 116.304592 
L 274.981098 116.304592 
z
" clip-path="url(#peae687ebc1)" style="fill: #f49f7b"/>
   </g>
   <g id="patch_415">
    <path d="M 275.517712 133.884386 
L 276.873673 133.884386 
L 276.873673 116.304592 
L 275.517712 116.304592 
z
" clip-path="url(#peae687ebc1)" style="fill: #59595c"/>
   </g>
   <g id="patch_416">
    <path d="M 276.873673 133.884386 
L 279.314402 133.884386 
L 279.314402 116.304592 
L 276.873673 116.304592 
z
" clip-path="url(#peae687ebc1)" style="fill: #91d1bc"/>
   </g>
   <g id="patch_417">
    <path d="M 279.314402 133.884386 
L 283.716946 133.884386 
L 283.716946 116.304592 
L 279.314402 116.304592 
z
" clip-path="url(#peae687ebc1)" style="fill: #59595c"/>
   </g>
   <g id="patch_418">
    <path d="M 283.716946 133.884386 
L 287.600186 133.884386 
L 287.600186 116.304592 
L 283.716946 116.304592 
z
" clip-path="url(#peae687ebc1)" style="fill: #91d1bc"/>
   </g>
   <g id="patch_419">
    <path d="M 287.600186 133.884386 
L 290.733321 133.884386 
L 290.733321 116.304592 
L 287.600186 116.304592 
z
" clip-path="url(#peae687ebc1)" style="fill: #59595c"/>
   </g>
   <g id="patch_420">
    <path d="M 290.733321 133.884386 
L 290.791021 133.884386 
L 290.791021 116.304592 
L 290.733321 116.304592 
z
" clip-path="url(#peae687ebc1)" style="fill: #91d1bc"/>
   </g>
   <g id="patch_421">
    <path d="M 290.791021 133.884386 
L 291.287245 133.884386 
L 291.287245 116.304592 
L 290.791021 116.304592 
z
" clip-path="url(#peae687ebc1)" style="fill: #59595c"/>
   </g>
   <g id="patch_422">
    <path d="M 291.287245 133.884386 
L 291.731538 133.884386 
L 291.731538 116.304592 
L 291.287245 116.304592 
z
" clip-path="url(#peae687ebc1)" style="fill: #91d1bc"/>
   </g>
   <g id="patch_423">
    <path d="M 291.731538 133.884386 
L 291.737309 133.884386 
L 291.737309 116.304592 
L 291.731538 116.304592 
z
" clip-path="url(#peae687ebc1)" style="fill: #59595c"/>
   </g>
   <g id="patch_424">
    <path d="M 291.737309 133.884386 
L 291.754619 133.884386 
L 291.754619 116.304592 
L 291.737309 116.304592 
z
" clip-path="url(#peae687ebc1)" style="fill: #91d1bc"/>
   </g>
   <g id="patch_425">
    <path d="M 291.754619 133.884386 
L 292.210452 133.884386 
L 292.210452 116.304592 
L 291.754619 116.304592 
z
" clip-path="url(#peae687ebc1)" style="fill: #59595c"/>
   </g>
   <g id="patch_426">
    <path d="M 292.210452 133.884386 
L 298.165139 133.884386 
L 298.165139 116.304592 
L 292.210452 116.304592 
z
" clip-path="url(#peae687ebc1)" style="fill: #91d1bc"/>
   </g>
   <g id="patch_427">
    <path d="M 298.165139 133.884386 
L 298.170909 133.884386 
L 298.170909 116.304592 
L 298.165139 116.304592 
z
" clip-path="url(#peae687ebc1)" style="fill: #59595c"/>
   </g>
   <g id="patch_428">
    <path d="M 298.170909 133.884386 
L 298.257459 133.884386 
L 298.257459 116.304592 
L 298.170909 116.304592 
z
" clip-path="url(#peae687ebc1)" style="fill: #91d1bc"/>
   </g>
   <g id="patch_429">
    <path d="M 298.257459 133.884386 
L 298.263229 133.884386 
L 298.263229 116.304592 
L 298.257459 116.304592 
z
" clip-path="url(#peae687ebc1)" style="fill: #59595c"/>
   </g>
   <g id="patch_430">
    <path d="M 298.263229 133.884386 
L 298.672903 133.884386 
L 298.672903 116.304592 
L 298.263229 116.304592 
z
" clip-path="url(#peae687ebc1)" style="fill: #91d1bc"/>
   </g>
   <g id="patch_431">
    <path d="M 298.672903 133.884386 
L 299.780751 133.884386 
L 299.780751 116.304592 
L 298.672903 116.304592 
z
" clip-path="url(#peae687ebc1)" style="fill: #59595c"/>
   </g>
   <g id="patch_432">
    <path d="M 299.780751 133.884386 
L 299.948083 133.884386 
L 299.948083 116.304592 
L 299.780751 116.304592 
z
" clip-path="url(#peae687ebc1)" style="fill: #91d1bc"/>
   </g>
   <g id="patch_433">
    <path d="M 299.948083 133.884386 
L 299.953853 133.884386 
L 299.953853 116.304592 
L 299.948083 116.304592 
z
" clip-path="url(#peae687ebc1)" style="fill: #59595c"/>
   </g>
   <g id="patch_434">
    <path d="M 299.953853 133.884386 
L 299.965393 133.884386 
L 299.965393 116.304592 
L 299.953853 116.304592 
z
" clip-path="url(#peae687ebc1)" style="fill: #91d1bc"/>
   </g>
   <g id="patch_435">
    <path d="M 299.965393 133.884386 
L 302.423432 133.884386 
L 302.423432 116.304592 
L 299.965393 116.304592 
z
" clip-path="url(#peae687ebc1)" style="fill: #59595c"/>
   </g>
   <g id="patch_436">
    <path d="M 302.423432 133.884386 
L 303.860173 133.884386 
L 303.860173 116.304592 
L 302.423432 116.304592 
z
" clip-path="url(#peae687ebc1)" style="fill: #f49f7b"/>
   </g>
   <g id="patch_437">
    <path d="M 303.860173 133.884386 
L 314.367425 133.884386 
L 314.367425 116.304592 
L 303.860173 116.304592 
z
" clip-path="url(#peae687ebc1)" style="fill: #59595c"/>
   </g>
   <g id="patch_438">
    <path d="M 314.367425 133.884386 
L 314.390505 133.884386 
L 314.390505 116.304592 
L 314.367425 116.304592 
z
" clip-path="url(#peae687ebc1)" style="fill: #f49f7b"/>
   </g>
   <g id="patch_439">
    <path d="M 314.390505 133.884386 
L 314.396275 133.884386 
L 314.396275 116.304592 
L 314.390505 116.304592 
z
" clip-path="url(#peae687ebc1)" style="fill: #59595c"/>
   </g>
   <g id="patch_440">
    <path d="M 314.396275 133.884386 
L 314.402045 133.884386 
L 314.402045 116.304592 
L 314.396275 116.304592 
z
" clip-path="url(#peae687ebc1)" style="fill: #f49f7b"/>
   </g>
   <g id="patch_441">
    <path d="M 314.402045 133.884386 
L 321.856943 133.884386 
L 321.856943 116.304592 
L 314.402045 116.304592 
z
" clip-path="url(#peae687ebc1)" style="fill: #59595c"/>
   </g>
   <g id="patch_442">
    <path d="M 321.856943 133.884386 
L 322.122365 133.884386 
L 322.122365 116.304592 
L 321.856943 116.304592 
z
" clip-path="url(#peae687ebc1)" style="fill: #f49f7b"/>
   </g>
   <g id="patch_443">
    <path d="M 322.122365 133.884386 
L 326.247948 133.884386 
L 326.247948 116.304592 
L 322.122365 116.304592 
z
" clip-path="url(#peae687ebc1)" style="fill: #59595c"/>
   </g>
   <g id="patch_444">
    <path d="M 326.247948 133.884386 
L 327.84625 133.884386 
L 327.84625 116.304592 
L 326.247948 116.304592 
z
" clip-path="url(#peae687ebc1)" style="fill: #f49f7b"/>
   </g>
   <g id="patch_445">
    <path d="M 327.84625 133.884386 
L 331.908362 133.884386 
L 331.908362 116.304592 
L 327.84625 116.304592 
z
" clip-path="url(#peae687ebc1)" style="fill: #59595c"/>
   </g>
   <g id="patch_446">
    <path d="M 331.908362 133.884386 
L 332.046843 133.884386 
L 332.046843 116.304592 
L 331.908362 116.304592 
z
" clip-path="url(#peae687ebc1)" style="fill: #f49f7b"/>
   </g>
   <g id="patch_447">
    <path d="M 332.046843 133.884386 
L 339.617142 133.884386 
L 339.617142 116.304592 
L 332.046843 116.304592 
z
" clip-path="url(#peae687ebc1)" style="fill: #59595c"/>
   </g>
   <g id="patch_448">
    <path d="M 339.617142 133.884386 
L 340.448028 133.884386 
L 340.448028 116.304592 
L 339.617142 116.304592 
z
" clip-path="url(#peae687ebc1)" style="fill: #f49f7b"/>
   </g>
   <g id="patch_449">
    <path d="M 340.448028 133.884386 
L 348.052948 133.884386 
L 348.052948 116.304592 
L 340.448028 116.304592 
z
" clip-path="url(#peae687ebc1)" style="fill: #59595c"/>
   </g>
   <g id="patch_450">
    <path d="M 348.052948 133.884386 
L 348.479931 133.884386 
L 348.479931 116.304592 
L 348.052948 116.304592 
z
" clip-path="url(#peae687ebc1)" style="fill: #f49f7b"/>
   </g>
   <g id="patch_451">
    <path d="M 348.479931 133.884386 
L 353.032496 133.884386 
L 353.032496 116.304592 
L 348.479931 116.304592 
z
" clip-path="url(#peae687ebc1)" style="fill: #59595c"/>
   </g>
   <g id="patch_452">
    <path d="M 353.032496 133.884386 
L 355.028932 133.884386 
L 355.028932 116.304592 
L 353.032496 116.304592 
z
" clip-path="url(#peae687ebc1)" style="fill: #f49f7b"/>
   </g>
   <g id="patch_453">
    <path d="M 355.028932 133.884386 
L 359.777679 133.884386 
L 359.777679 116.304592 
L 355.028932 116.304592 
z
" clip-path="url(#peae687ebc1)" style="fill: #59595c"/>
   </g>
   <g id="patch_454">
    <path d="M 359.777679 133.884386 
L 360.343143 133.884386 
L 360.343143 116.304592 
L 359.777679 116.304592 
z
" clip-path="url(#peae687ebc1)" style="fill: #f49f7b"/>
   </g>
   <g id="patch_455">
    <path d="M 360.343143 133.884386 
L 360.527785 133.884386 
L 360.527785 116.304592 
L 360.343143 116.304592 
z
" clip-path="url(#peae687ebc1)" style="fill: #59595c"/>
   </g>
   <g id="patch_456">
    <path d="M 360.527785 133.884386 
L 360.897068 133.884386 
L 360.897068 116.304592 
L 360.527785 116.304592 
z
" clip-path="url(#peae687ebc1)" style="fill: #f49f7b"/>
   </g>
   <g id="patch_457">
    <path d="M 360.897068 133.884386 
L 361.19711 133.884386 
L 361.19711 116.304592 
L 360.897068 116.304592 
z
" clip-path="url(#peae687ebc1)" style="fill: #59595c"/>
   </g>
   <g id="patch_458">
    <path d="M 361.19711 133.884386 
L 362.056847 133.884386 
L 362.056847 116.304592 
L 361.19711 116.304592 
z
" clip-path="url(#peae687ebc1)" style="fill: #f49f7b"/>
   </g>
   <g id="patch_459">
    <path d="M 362.056847 133.884386 
L 369.390574 133.884386 
L 369.390574 116.304592 
L 362.056847 116.304592 
z
" clip-path="url(#peae687ebc1)" style="fill: #59595c"/>
   </g>
   <g id="patch_460">
    <path d="M 369.390574 133.884386 
L 369.436734 133.884386 
L 369.436734 116.304592 
L 369.390574 116.304592 
z
" clip-path="url(#peae687ebc1)" style="fill: #f49f7b"/>
   </g>
   <g id="patch_461">
    <path d="M 369.436734 133.884386 
L 370.498423 133.884386 
L 370.498423 116.304592 
L 369.436734 116.304592 
z
" clip-path="url(#peae687ebc1)" style="fill: #59595c"/>
   </g>
   <g id="patch_462">
    <path d="M 370.498423 133.884386 
L 373.591167 133.884386 
L 373.591167 116.304592 
L 370.498423 116.304592 
z
" clip-path="url(#peae687ebc1)" style="fill: #f49f7b"/>
   </g>
   <g id="patch_463">
    <path d="M 373.591167 133.884386 
L 375.708773 133.884386 
L 375.708773 116.304592 
L 373.591167 116.304592 
z
" clip-path="url(#peae687ebc1)" style="fill: #59595c"/>
   </g>
   <g id="patch_464">
    <path d="M 375.708773 133.884386 
L 376.170377 133.884386 
L 376.170377 116.304592 
L 375.708773 116.304592 
z
" clip-path="url(#peae687ebc1)" style="fill: #f49f7b"/>
   </g>
   <g id="patch_465">
    <path d="M 376.170377 133.884386 
L 377.220525 133.884386 
L 377.220525 116.304592 
L 376.170377 116.304592 
z
" clip-path="url(#peae687ebc1)" style="fill: #59595c"/>
   </g>
   <g id="matplotlib.axis_13"/>
   <g id="matplotlib.axis_14"/>
   <g id="text_10">
    <text style="font: 9px 'Arial'; text-anchor: end" x="46.220625" y="127.42113" transform="rotate(-0 46.220625 127.42113)">prediction</text>
   </g>
  </g>
  <g id="axes_8">
   <g id="matplotlib.axis_15"/>
   <g id="matplotlib.axis_16"/>
   <g id="text_11">
    <text style="font: 9px 'Arial'; text-anchor: start" x="50.145525" y="144.007186" transform="rotate(-0 50.145525 144.007186)">0</text>
   </g>
   <g id="text_12">
    <text style="font: 9px 'Arial'; text-anchor: end" x="377.220525" y="144.007186" transform="rotate(-0 377.220525 144.007186)">56685</text>
   </g>
   <g id="text_13">
    <text style="font: 10px 'Arial'; text-anchor: middle" x="213.683025" y="163.181751" transform="rotate(-0 213.683025 163.181751)">frames</text>
   </g>
  </g>
 </g>
 <defs>
  <clipPath id="p8131135396">
   <rect x="50.145525" y="23.186625" width="327.075" height="17.579793"/>
  </clipPath>
  <clipPath id="p868852343e">
   <rect x="50.145525" y="44.447187" width="327.075" height="17.579793"/>
  </clipPath>
  <clipPath id="pe94e01bb5b">
   <rect x="50.145525" y="95.04403" width="327.075" height="17.579793"/>
  </clipPath>
  <clipPath id="peae687ebc1">
   <rect x="50.145525" y="116.304592" width="327.075" height="17.579793"/>
  </clipPath>
 </defs>
</svg>
