<?xml version="1.0" encoding="utf-8" standalone="no"?>
<!DOCTYPE svg PUBLIC "-//W3C//DTD SVG 1.1//EN"
  "http://www.w3.org/Graphics/SVG/1.1/DTD/svg11.dtd">
<svg xmlns:xlink="http://www.w3.org/1999/xlink" width="263.39952pt" height="158.407583pt" viewBox="0 0 263.39952 158.407583" xmlns="http://www.w3.org/2000/svg" version="1.1">
 <metadata>
  <rdf:RDF xmlns:dc="http://purl.org/dc/elements/1.1/" xmlns:cc="http://creativecommons.org/ns#" xmlns:rdf="http://www.w3.org/1999/02/22-rdf-syntax-ns#">
   <cc:Work>
    <dc:type rdf:resource="http://purl.org/dc/dcmitype/StillImage"/>
    <dc:date>2026-05-13T18:15:00.438776</dc:date>
    <dc:format>image/svg+xml</dc:format>
    <dc:creator>
     <cc:Agent>
      <dc:title>Matplotlib v3.10.9, https://matplotlib.org/</dc:title>
     </cc:Agent>
    </dc:creator>
   </cc:Work>
  </rdf:RDF>
 </metadata>
 <defs>
  <style type="text/css">*{stroke-linejoin: round; stroke-linecap: butt}</style>
 </defs>
 <g id="figure_1">
  <g id="patch_1">
   <path d="M 0 158.407583 
L 263.39952 158.407583 
L 263.39952 -0 
L 0 -0 
z
" style="fill: #ffffff"/>
  </g>
  <g id="axes_1">
   <g id="patch_2">
    <path d="M 39.277031 113.673895 
L 256.19952 113.673895 
L 256.19952 10.063125 
L 39.277031 10.063125 
z
" style="fill: #ffffff"/>
   </g>
   <g id="patch_3">
    <path d="M 43.403274 113.673895 
L 63.445026 113.673895 
L 63.445026 13.260295 
L 43.403274 13.260295 
z
" clip-path="url(#p605ee3156c)" style="fill: #bfb3d8"/>
   </g>
   <g id="patch_4">
    <path d="M 66.981806 113.673895 
L 87.023557 113.673895 
L 87.023557 15.063552 
L 66.981806 15.063552 
z
" clip-path="url(#p605ee3156c)" style="fill: #bfb3d8"/>
   </g>
   <g id="patch_5">
    <path d="M 90.560337 113.673895 
L 110.602089 113.673895 
L 110.602089 15.855531 
L 90.560337 15.855531 
z
" clip-path="url(#p605ee3156c)" style="fill: #bfb3d8"/>
   </g>
   <g id="patch_6">
    <path d="M 114.138868 113.673895 
L 134.18062 113.673895 
L 134.18062 16.424573 
L 114.138868 16.424573 
z
" clip-path="url(#p605ee3156c)" style="fill: #bfb3d8"/>
   </g>
   <g id="patch_7">
    <path d="M 137.7174 113.673895 
L 157.759151 113.673895 
L 157.759151 19.086798 
L 137.7174 19.086798 
z
" clip-path="url(#p605ee3156c)" style="fill: #bfb3d8"/>
   </g>
   <g id="patch_8">
    <path d="M 161.295931 113.673895 
L 181.337683 113.673895 
L 181.337683 20.333226 
L 161.295931 20.333226 
z
" clip-path="url(#p605ee3156c)" style="fill: #bfb3d8"/>
   </g>
   <g id="patch_9">
    <path d="M 184.874463 113.673895 
L 204.916214 113.673895 
L 204.916214 20.621969 
L 184.874463 20.621969 
z
" clip-path="url(#p605ee3156c)" style="fill: #bfb3d8"/>
   </g>
   <g id="patch_10">
    <path d="M 208.452994 113.673895 
L 228.494746 113.673895 
L 228.494746 22.786559 
L 208.452994 22.786559 
z
" clip-path="url(#p605ee3156c)" style="fill: #bfb3d8"/>
   </g>
   <g id="patch_11">
    <path d="M 232.031525 113.673895 
L 252.073277 113.673895 
L 252.073277 44.697887 
L 232.031525 44.697887 
z
" clip-path="url(#p605ee3156c)" style="fill: #bfb3d8"/>
   </g>
   <g id="patch_12">
    <path d="M 43.403274 13.260295 
L 63.445026 13.260295 
L 63.445026 10.063125 
L 43.403274 10.063125 
z
" clip-path="url(#p605ee3156c)" style="fill: #991b1e"/>
   </g>
   <g id="patch_13">
    <path d="M 66.981806 15.063552 
L 87.023557 15.063552 
L 87.023557 10.063125 
L 66.981806 10.063125 
z
" clip-path="url(#p605ee3156c)" style="fill: #991b1e"/>
   </g>
   <g id="patch_14">
    <path d="M 90.560337 15.855531 
L 110.602089 15.855531 
L 110.602089 10.063125 
L 90.560337 10.063125 
z
" clip-path="url(#p605ee3156c)" style="fill: #991b1e"/>
   </g>
   <g id="patch_15">
    <path d="M 114.138868 16.424573 
L 134.18062 16.424573 
L 134.18062 10.063125 
L 114.138868 10.063125 
z
" clip-path="url(#p605ee3156c)" style="fill: #991b1e"/>
   </g>
   <g id="patch_16">
    <path d="M 137.7174 19.086798 
L 157.759151 19.086798 
L 157.759151 10.063125 
L 137.7174 10.063125 
z
" clip-path="url(#p605ee3156c)" style="fill: #991b1e"/>
   </g>
   <g id="patch_17">
    <path d="M 161.295931 20.333226 
L 181.337683 20.333226 
L 181.337683 10.063125 
L 161.295931 10.063125 
z
" clip-path="url(#p605ee3156c)" style="fill: #991b1e"/>
   </g>
   <g id="patch_18">
    <path d="M 184.874463 20.621969 
L 204.916214 20.621969 
L 204.916214 10.063125 
L 184.874463 10.063125 
z
" clip-path="url(#p605ee3156c)" style="fill: #991b1e"/>
   </g>
   <g id="patch_19">
    <path d="M 208.452994 22.786559 
L 228.494746 22.786559 
L 228.494746 10.063125 
L 208.452994 10.063125 
z
" clip-path="url(#p605ee3156c)" style="fill: #991b1e"/>
   </g>
   <g id="patch_20">
    <path d="M 232.031525 44.697887 
L 252.073277 44.697887 
L 252.073277 10.063125 
L 232.031525 10.063125 
z
" clip-path="url(#p605ee3156c)" style="fill: #991b1e"/>
   </g>
   <g id="matplotlib.axis_1">
    <g id="text_1">
     <text style="font-size: 9px; font-family: 'Arial'; text-anchor: middle" x="147.738276" y="124.115926" transform="rotate(-0 147.738276 124.115926)">videos</text>
    </g>
   </g>
   <g id="matplotlib.axis_2">
    <g id="ytick_1">
     <g id="line2d_1">
      <defs>
       <path id="me1cdf6b30c" d="M 0 0 
L -3 0 
" style="stroke: #1a1a1a; stroke-width: 0.8"/>
      </defs>
      <g>
       <use xlink:href="#me1cdf6b30c" x="39.277031" y="113.673895" style="fill: #1a1a1a; stroke: #1a1a1a; stroke-width: 0.8"/>
      </g>
     </g>
     <g id="text_2">
      <text style="font-size: 8px; font-family: 'Arial'; text-anchor: end; fill: #1a1a1a" x="32.777031" y="116.53702" transform="rotate(-0 32.777031 116.53702)">0</text>
     </g>
    </g>
    <g id="ytick_2">
     <g id="line2d_2">
      <g>
       <use xlink:href="#me1cdf6b30c" x="39.277031" y="87.771202" style="fill: #1a1a1a; stroke: #1a1a1a; stroke-width: 0.8"/>
      </g>
     </g>
     <g id="text_3">
      <text style="font-size: 8px; font-family: 'Arial'; text-anchor: end; fill: #1a1a1a" x="32.777031" y="90.634327" transform="rotate(-0 32.777031 90.634327)">25</text>
     </g>
    </g>
    <g id="ytick_3">
     <g id="line2d_3">
      <g>
       <use xlink:href="#me1cdf6b30c" x="39.277031" y="61.86851" style="fill: #1a1a1a; stroke: #1a1a1a; stroke-width: 0.8"/>
      </g>
     </g>
     <g id="text_4">
      <text style="font-size: 8px; font-family: 'Arial'; text-anchor: end; fill: #1a1a1a" x="32.777031" y="64.731635" transform="rotate(-0 32.777031 64.731635)">50</text>
     </g>
    </g>
    <g id="ytick_4">
     <g id="line2d_4">
      <g>
       <use xlink:href="#me1cdf6b30c" x="39.277031" y="35.965817" style="fill: #1a1a1a; stroke: #1a1a1a; stroke-width: 0.8"/>
      </g>
     </g>
     <g id="text_5">
      <text style="font-size: 8px; font-family: 'Arial'; text-anchor: end; fill: #1a1a1a" x="32.777031" y="38.828942" transform="rotate(-0 32.777031 38.828942)">75</text>
     </g>
    </g>
    <g id="ytick_5">
     <g id="line2d_5">
      <g>
       <use xlink:href="#me1cdf6b30c" x="39.277031" y="10.063125" style="fill: #1a1a1a; stroke: #1a1a1a; stroke-width: 0.8"/>
      </g>
     </g>
     <g id="text_6">
      <text style="font-size: 8px; font-family: 'Arial'; text-anchor: end; fill: #1a1a1a" x="32.777031" y="12.92625" transform="rotate(-0 32.777031 12.92625)">100</text>
     </g>
    </g>
    <g id="text_7">
     <text style="font-size: 9px; font-family: 'Arial'; text-anchor: middle" x="13.642031" y="61.86851" transform="rotate(-90 13.642031 61.86851)">% of frames</text>
    </g>
   </g>
   <g id="patch_21">
    <path d="M 39.277031 113.673895 
L 39.277031 10.063125 
" style="fill: none; stroke: #1a1a1a; stroke-width: 0.8; stroke-linejoin: miter; stroke-linecap: square"/>
   </g>
   <g id="patch_22">
    <path d="M 39.277031 113.673895 
L 256.19952 113.673895 
" style="fill: none; stroke: #1a1a1a; stroke-width: 0.8; stroke-linejoin: miter; stroke-linecap: square"/>
   </g>
   <g id="legend_1">
    <g id="patch_23">
     <path d="M 90.082026 147.723833 
L 99.682026 147.723833 
L 99.682026 139.523833 
L 90.082026 139.523833 
z
" style="fill: #bfb3d8"/>
    </g>
    <g id="text_8">
     <text style="font-size: 8px; font-family: 'Arial'; text-anchor: start" x="103.682026" y="146.323833" transform="rotate(-0 103.682026 146.323833)">correctly labelled</text>
    </g>
    <g id="patch_24">
     <path d="M 174.905776 147.723833 
L 184.505776 147.723833 
L 184.505776 139.523833 
L 174.905776 139.523833 
z
" style="fill: #991b1e"/>
    </g>
    <g id="text_9">
     <text style="font-size: 8px; font-family: 'Arial'; text-anchor: start" x="188.505776" y="146.323833" transform="rotate(-0 188.505776 146.323833)">error</text>
    </g>
   </g>
  </g>
 </g>
 <defs>
  <clipPath id="p605ee3156c">
   <rect x="39.277031" y="10.063125" width="216.922489" height="103.61077"/>
  </clipPath>
 </defs>
</svg>
