<?xml version="1.0" encoding="utf-8" standalone="no"?>
<!DOCTYPE svg PUBLIC "-//W3C//DTD SVG 1.1//EN"
  "http://www.w3.org/Graphics/SVG/1.1/DTD/svg11.dtd">
<svg xmlns:xlink="http://www.w3.org/1999/xlink" width="277.79952pt" height="172.807583pt" viewBox="0 0 277.79952 172.807583" xmlns="http://www.w3.org/2000/svg" version="1.1">
 <metadata>
  <rdf:RDF xmlns:dc="http://purl.org/dc/elements/1.1/" xmlns:cc="http://creativecommons.org/ns#" xmlns:rdf="http://www.w3.org/1999/02/22-rdf-syntax-ns#">
   <cc:Work>
    <dc:type rdf:resource="http://purl.org/dc/dcmitype/StillImage"/>
    <dc:date>2026-05-13T18:22:37.450313</dc:date>
    <dc:format>image/svg+xml</dc:format>
    <dc:creator>
     <cc:Agent>
      <dc:title>Matplotlib v3.10.9, https://matplotlib.org/</dc:title>
     </cc:Agent>
    </dc:creator>
   </cc:Work>
  </rdf:RDF>
 </metadata>
 <defs>
  <style type="text/css">*{stroke-linejoin: round; stroke-linecap: butt}</style>
 </defs>
 <g id="figure_1">
  <g id="patch_1">
   <path d="M 0 172.807583 
L 277.79952 172.807583 
L 277.79952 0 
L 0 0 
z
" style="fill: #ffffff"/>
  </g>
  <g id="axes_1">
   <g id="patch_2">
    <path d="M 46.477031 120.873895 
L 263.39952 120.873895 
L 263.39952 17.263125 
L 46.477031 17.263125 
z
" style="fill: #ffffff"/>
   </g>
   <g id="patch_3">
    <path d="M 50.603274 120.873895 
L 70.645026 120.873895 
L 70.645026 20.460295 
L 50.603274 20.460295 
z
" clip-path="url(#pc310827929)" style="fill: #bfb3d8"/>
   </g>
   <g id="patch_4">
    <path d="M 74.181806 120.873895 
L 94.223557 120.873895 
L 94.223557 22.263552 
L 74.181806 22.263552 
z
" clip-path="url(#pc310827929)" style="fill: #bfb3d8"/>
   </g>
   <g id="patch_5">
    <path d="M 97.760337 120.873895 
L 117.802089 120.873895 
L 117.802089 23.055531 
L 97.760337 23.055531 
z
" clip-path="url(#pc310827929)" style="fill: #bfb3d8"/>
   </g>
   <g id="patch_6">
    <path d="M 121.338868 120.873895 
L 141.38062 120.873895 
L 141.38062 23.624573 
L 121.338868 23.624573 
z
" clip-path="url(#pc310827929)" style="fill: #bfb3d8"/>
   </g>
   <g id="patch_7">
    <path d="M 144.9174 120.873895 
L 164.959151 120.873895 
L 164.959151 26.286798 
L 144.9174 26.286798 
z
" clip-path="url(#pc310827929)" style="fill: #bfb3d8"/>
   </g>
   <g id="patch_8">
    <path d="M 168.495931 120.873895 
L 188.537683 120.873895 
L 188.537683 27.533226 
L 168.495931 27.533226 
z
" clip-path="url(#pc310827929)" style="fill: #bfb3d8"/>
   </g>
   <g id="patch_9">
    <path d="M 192.074463 120.873895 
L 212.116214 120.873895 
L 212.116214 27.821969 
L 192.074463 27.821969 
z
" clip-path="url(#pc310827929)" style="fill: #bfb3d8"/>
   </g>
   <g id="patch_10">
    <path d="M 215.652994 120.873895 
L 235.694746 120.873895 
L 235.694746 29.986559 
L 215.652994 29.986559 
z
" clip-path="url(#pc310827929)" style="fill: #bfb3d8"/>
   </g>
   <g id="patch_11">
    <path d="M 239.231525 120.873895 
L 259.273277 120.873895 
L 259.273277 51.897887 
L 239.231525 51.897887 
z
" clip-path="url(#pc310827929)" style="fill: #bfb3d8"/>
   </g>
   <g id="patch_12">
    <path d="M 50.603274 20.460295 
L 70.645026 20.460295 
L 70.645026 17.263125 
L 50.603274 17.263125 
z
" clip-path="url(#pc310827929)" style="fill: #991b1e"/>
   </g>
   <g id="patch_13">
    <path d="M 74.181806 22.263552 
L 94.223557 22.263552 
L 94.223557 17.263125 
L 74.181806 17.263125 
z
" clip-path="url(#pc310827929)" style="fill: #991b1e"/>
   </g>
   <g id="patch_14">
    <path d="M 97.760337 23.055531 
L 117.802089 23.055531 
L 117.802089 17.263125 
L 97.760337 17.263125 
z
" clip-path="url(#pc310827929)" style="fill: #991b1e"/>
   </g>
   <g id="patch_15">
    <path d="M 121.338868 23.624573 
L 141.38062 23.624573 
L 141.38062 17.263125 
L 121.338868 17.263125 
z
" clip-path="url(#pc310827929)" style="fill: #991b1e"/>
   </g>
   <g id="patch_16">
    <path d="M 144.9174 26.286798 
L 164.959151 26.286798 
L 164.959151 17.263125 
L 144.9174 17.263125 
z
" clip-path="url(#pc310827929)" style="fill: #991b1e"/>
   </g>
   <g id="patch_17">
    <path d="M 168.495931 27.533226 
L 188.537683 27.533226 
L 188.537683 17.263125 
L 168.495931 17.263125 
z
" clip-path="url(#pc310827929)" style="fill: #991b1e"/>
   </g>
   <g id="patch_18">
    <path d="M 192.074463 27.821969 
L 212.116214 27.821969 
L 212.116214 17.263125 
L 192.074463 17.263125 
z
" clip-path="url(#pc310827929)" style="fill: #991b1e"/>
   </g>
   <g id="patch_19">
    <path d="M 215.652994 29.986559 
L 235.694746 29.986559 
L 235.694746 17.263125 
L 215.652994 17.263125 
z
" clip-path="url(#pc310827929)" style="fill: #991b1e"/>
   </g>
   <g id="patch_20">
    <path d="M 239.231525 51.897887 
L 259.273277 51.897887 
L 259.273277 17.263125 
L 239.231525 17.263125 
z
" clip-path="url(#pc310827929)" style="fill: #991b1e"/>
   </g>
   <g id="matplotlib.axis_1">
    <g id="text_1">
     <text style="font-size: 9px; font-family: 'Arial'; text-anchor: middle" x="154.938276" y="131.315926" transform="rotate(-0 154.938276 131.315926)">videos</text>
    </g>
   </g>
   <g id="matplotlib.axis_2">
    <g id="ytick_1">
     <g id="line2d_1">
      <defs>
       <path id="m7eae7036f7" d="M 0 0 
L -3 0 
" style="stroke: #1a1a1a; stroke-width: 0.8"/>
      </defs>
      <g>
       <use xlink:href="#m7eae7036f7" x="46.477031" y="120.873895" style="fill: #1a1a1a; stroke: #1a1a1a; stroke-width: 0.8"/>
      </g>
     </g>
     <g id="text_2">
      <text style="font-size: 8px; font-family: 'Arial'; text-anchor: end; fill: #1a1a1a" x="39.977031" y="123.73702" transform="rotate(-0 39.977031 123.73702)">0</text>
     </g>
    </g>
    <g id="ytick_2">
     <g id="line2d_2">
      <g>
       <use xlink:href="#m7eae7036f7" x="46.477031" y="94.971202" style="fill: #1a1a1a; stroke: #1a1a1a; stroke-width: 0.8"/>
      </g>
     </g>
     <g id="text_3">
      <text style="font-size: 8px; font-family: 'Arial'; text-anchor: end; fill: #1a1a1a" x="39.977031" y="97.834327" transform="rotate(-0 39.977031 97.834327)">25</text>
     </g>
    </g>
    <g id="ytick_3">
     <g id="line2d_3">
      <g>
       <use xlink:href="#m7eae7036f7" x="46.477031" y="69.06851" style="fill: #1a1a1a; stroke: #1a1a1a; stroke-width: 0.8"/>
      </g>
     </g>
     <g id="text_4">
      <text style="font-size: 8px; font-family: 'Arial'; text-anchor: end; fill: #1a1a1a" x="39.977031" y="71.931635" transform="rotate(-0 39.977031 71.931635)">50</text>
     </g>
    </g>
    <g id="ytick_4">
     <g id="line2d_4">
      <g>
       <use xlink:href="#m7eae7036f7" x="46.477031" y="43.165817" style="fill: #1a1a1a; stroke: #1a1a1a; stroke-width: 0.8"/>
      </g>
     </g>
     <g id="text_5">
      <text style="font-size: 8px; font-family: 'Arial'; text-anchor: end; fill: #1a1a1a" x="39.977031" y="46.028942" transform="rotate(-0 39.977031 46.028942)">75</text>
     </g>
    </g>
    <g id="ytick_5">
     <g id="line2d_5">
      <g>
       <use xlink:href="#m7eae7036f7" x="46.477031" y="17.263125" style="fill: #1a1a1a; stroke: #1a1a1a; stroke-width: 0.8"/>
      </g>
     </g>
     <g id="text_6">
      <text style="font-size: 8px; font-family: 'Arial'; text-anchor: end; fill: #1a1a1a" x="39.977031" y="20.12625" transform="rotate(-0 39.977031 20.12625)">100</text>
     </g>
    </g>
    <g id="text_7">
     <text style="font-size: 9px; font-family: 'Arial'; text-anchor: middle" x="20.842031" y="69.06851" transform="rotate(-90 20.842031 69.06851)">% of frames</text>
    </g>
   </g>
   <g id="patch_21">
    <path d="M 46.477031 120.873895 
L 46.477031 17.263125 
" style="fill: none; stroke: #1a1a1a; stroke-width: 0.8; stroke-linejoin: miter; stroke-linecap: square"/>
   </g>
   <g id="patch_22">
    <path d="M 46.477031 120.873895 
L 263.39952 120.873895 
" style="fill: none; stroke: #1a1a1a; stroke-width: 0.8; stroke-linejoin: miter; stroke-linecap: square"/>
   </g>
   <g id="legend_1">
    <g id="patch_23">
     <path d="M 97.282026 154.923833 
L 106.882026 154.923833 
L 106.882026 146.723833 
L 97.282026 146.723833 
z
" style="fill: #bfb3d8"/>
    </g>
    <g id="text_8">
     <text style="font-size: 8px; font-family: 'Arial'; text-anchor: start" x="110.882026" y="153.523833" transform="rotate(-0 110.882026 153.523833)">correctly labelled</text>
    </g>
    <g id="patch_24">
     <path d="M 182.105776 154.923833 
L 191.705776 154.923833 
L 191.705776 146.723833 
L 182.105776 146.723833 
z
" style="fill: #991b1e"/>
    </g>
    <g id="text_9">
     <text style="font-size: 8px; font-family: 'Arial'; text-anchor: start" x="195.705776" y="153.523833" transform="rotate(-0 195.705776 153.523833)">error</text>
    </g>
   </g>
  </g>
 </g>
 <defs>
  <clipPath id="pc310827929">
   <rect x="46.477031" y="17.263125" width="216.922489" height="103.61077"/>
  </clipPath>
 </defs>
</svg>
