<?xml version="1.0" encoding="utf-8" standalone="no"?>
<!DOCTYPE svg PUBLIC "-//W3C//DTD SVG 1.1//EN"
  "http://www.w3.org/Graphics/SVG/1.1/DTD/svg11.dtd">
<svg xmlns:xlink="http://www.w3.org/1999/xlink" width="263.227031pt" height="138.806875pt" viewBox="0 0 263.227031 138.806875" xmlns="http://www.w3.org/2000/svg" version="1.1">
 <metadata>
  <rdf:RDF xmlns:dc="http://purl.org/dc/elements/1.1/" xmlns:cc="http://creativecommons.org/ns#" xmlns:rdf="http://www.w3.org/1999/02/22-rdf-syntax-ns#">
   <cc:Work>
    <dc:type rdf:resource="http://purl.org/dc/dcmitype/StillImage"/>
    <dc:date>2026-05-13T17:59:46.723907</dc:date>
    <dc:format>image/svg+xml</dc:format>
    <dc:creator>
     <cc:Agent>
      <dc:title>Matplotlib v3.9.4, https://matplotlib.org/</dc:title>
     </cc:Agent>
    </dc:creator>
   </cc:Work>
  </rdf:RDF>
 </metadata>
 <defs>
  <style type="text/css">*{stroke-linejoin: round; stroke-linecap: butt}</style>
 </defs>
 <g id="figure_1">
  <g id="patch_1">
   <path d="M 0 138.806875 
L 263.227031 138.806875 
L 263.227031 0 
L 0 0 
z
" style="fill: #ffffff"/>
  </g>
  <g id="axes_1">
   <g id="patch_2">
    <path d="M 39.277031 97.063125 
L 256.027031 97.063125 
L 256.027031 10.063125 
L 39.277031 10.063125 
z
" style="fill: #ffffff"/>
   </g>
   <g id="patch_3">
    <path d="M 43.399993 97.063125 
L 63.425808 97.063125 
L 63.425808 12.747728 
L 43.399993 12.747728 
z
" clip-path="url(#pc72d2358e8)" style="fill: #bfb3d8"/>
   </g>
   <g id="patch_4">
    <path d="M 66.959776 97.063125 
L 86.985591 97.063125 
L 86.985591 14.261889 
L 66.959776 14.261889 
z
" clip-path="url(#pc72d2358e8)" style="fill: #bfb3d8"/>
   </g>
   <g id="patch_5">
    <path d="M 90.519558 97.063125 
L 110.545374 97.063125 
L 110.545374 14.926898 
L 90.519558 14.926898 
z
" clip-path="url(#pc72d2358e8)" style="fill: #bfb3d8"/>
   </g>
   <g id="patch_6">
    <path d="M 114.079341 97.063125 
L 134.105156 97.063125 
L 134.105156 15.404712 
L 114.079341 15.404712 
z
" clip-path="url(#pc72d2358e8)" style="fill: #bfb3d8"/>
   </g>
   <g id="patch_7">
    <path d="M 137.639124 97.063125 
L 157.664939 97.063125 
L 157.664939 17.640132 
L 137.639124 17.640132 
z
" clip-path="url(#pc72d2358e8)" style="fill: #bfb3d8"/>
   </g>
   <g id="patch_8">
    <path d="M 161.198906 97.063125 
L 181.224721 97.063125 
L 181.224721 18.686734 
L 161.198906 18.686734 
z
" clip-path="url(#pc72d2358e8)" style="fill: #bfb3d8"/>
   </g>
   <g id="patch_9">
    <path d="M 184.758689 97.063125 
L 204.784504 97.063125 
L 204.784504 18.929186 
L 184.758689 18.929186 
z
" clip-path="url(#pc72d2358e8)" style="fill: #bfb3d8"/>
   </g>
   <g id="patch_10">
    <path d="M 208.318471 97.063125 
L 228.344287 97.063125 
L 228.344287 20.746752 
L 208.318471 20.746752 
z
" clip-path="url(#pc72d2358e8)" style="fill: #bfb3d8"/>
   </g>
   <g id="patch_11">
    <path d="M 231.878254 97.063125 
L 251.904069 97.063125 
L 251.904069 39.145278 
L 231.878254 39.145278 
z
" clip-path="url(#pc72d2358e8)" style="fill: #bfb3d8"/>
   </g>
   <g id="patch_12">
    <path d="M 43.399993 12.747728 
L 63.425808 12.747728 
L 63.425808 10.063125 
L 43.399993 10.063125 
z
" clip-path="url(#pc72d2358e8)" style="fill: #991b1e"/>
   </g>
   <g id="patch_13">
    <path d="M 66.959776 14.261889 
L 86.985591 14.261889 
L 86.985591 10.063125 
L 66.959776 10.063125 
z
" clip-path="url(#pc72d2358e8)" style="fill: #991b1e"/>
   </g>
   <g id="patch_14">
    <path d="M 90.519558 14.926898 
L 110.545374 14.926898 
L 110.545374 10.063125 
L 90.519558 10.063125 
z
" clip-path="url(#pc72d2358e8)" style="fill: #991b1e"/>
   </g>
   <g id="patch_15">
    <path d="M 114.079341 15.404712 
L 134.105156 15.404712 
L 134.105156 10.063125 
L 114.079341 10.063125 
z
" clip-path="url(#pc72d2358e8)" style="fill: #991b1e"/>
   </g>
   <g id="patch_16">
    <path d="M 137.639124 17.640132 
L 157.664939 17.640132 
L 157.664939 10.063125 
L 137.639124 10.063125 
z
" clip-path="url(#pc72d2358e8)" style="fill: #991b1e"/>
   </g>
   <g id="patch_17">
    <path d="M 161.198906 18.686734 
L 181.224721 18.686734 
L 181.224721 10.063125 
L 161.198906 10.063125 
z
" clip-path="url(#pc72d2358e8)" style="fill: #991b1e"/>
   </g>
   <g id="patch_18">
    <path d="M 184.758689 18.929186 
L 204.784504 18.929186 
L 204.784504 10.063125 
L 184.758689 10.063125 
z
" clip-path="url(#pc72d2358e8)" style="fill: #991b1e"/>
   </g>
   <g id="patch_19">
    <path d="M 208.318471 20.746752 
L 228.344287 20.746752 
L 228.344287 10.063125 
L 208.318471 10.063125 
z
" clip-path="url(#pc72d2358e8)" style="fill: #991b1e"/>
   </g>
   <g id="patch_20">
    <path d="M 231.878254 39.145278 
L 251.904069 39.145278 
L 251.904069 10.063125 
L 231.878254 10.063125 
z
" clip-path="url(#pc72d2358e8)" style="fill: #991b1e"/>
   </g>
   <g id="matplotlib.axis_1">
    <g id="text_1">
     <text style="font: 9px 'Arial'; text-anchor: middle" x="147.652031" y="107.505156" transform="rotate(-0 147.652031 107.505156)">videos</text>
    </g>
   </g>
   <g id="matplotlib.axis_2">
    <g id="ytick_1">
     <g id="line2d_1">
      <defs>
       <path id="m76d21e748d" d="M 0 0 
L -3 0 
" style="stroke: #1a1a1a; stroke-width: 0.8"/>
      </defs>
      <g>
       <use xlink:href="#m76d21e748d" x="39.277031" y="97.063125" style="fill: #1a1a1a; stroke: #1a1a1a; stroke-width: 0.8"/>
      </g>
     </g>
     <g id="text_2">
      <text style="fill: #1a1a1a; font: 8px 'Arial'; text-anchor: end" x="32.777031" y="99.92625" transform="rotate(-0 32.777031 99.92625)">0</text>
     </g>
    </g>
    <g id="ytick_2">
     <g id="line2d_2">
      <g>
       <use xlink:href="#m76d21e748d" x="39.277031" y="75.313125" style="fill: #1a1a1a; stroke: #1a1a1a; stroke-width: 0.8"/>
      </g>
     </g>
     <g id="text_3">
      <text style="fill: #1a1a1a; font: 8px 'Arial'; text-anchor: end" x="32.777031" y="78.17625" transform="rotate(-0 32.777031 78.17625)">25</text>
     </g>
    </g>
    <g id="ytick_3">
     <g id="line2d_3">
      <g>
       <use xlink:href="#m76d21e748d" x="39.277031" y="53.563125" style="fill: #1a1a1a; stroke: #1a1a1a; stroke-width: 0.8"/>
      </g>
     </g>
     <g id="text_4">
      <text style="fill: #1a1a1a; font: 8px 'Arial'; text-anchor: end" x="32.777031" y="56.42625" transform="rotate(-0 32.777031 56.42625)">50</text>
     </g>
    </g>
    <g id="ytick_4">
     <g id="line2d_4">
      <g>
       <use xlink:href="#m76d21e748d" x="39.277031" y="31.813125" style="fill: #1a1a1a; stroke: #1a1a1a; stroke-width: 0.8"/>
      </g>
     </g>
     <g id="text_5">
      <text style="fill: #1a1a1a; font: 8px 'Arial'; text-anchor: end" x="32.777031" y="34.67625" transform="rotate(-0 32.777031 34.67625)">75</text>
     </g>
    </g>
    <g id="ytick_5">
     <g id="line2d_5">
      <g>
       <use xlink:href="#m76d21e748d" x="39.277031" y="10.063125" style="fill: #1a1a1a; stroke: #1a1a1a; stroke-width: 0.8"/>
      </g>
     </g>
     <g id="text_6">
      <text style="fill: #1a1a1a; font: 8px 'Arial'; text-anchor: end" x="32.777031" y="12.92625" transform="rotate(-0 32.777031 12.92625)">100</text>
     </g>
    </g>
    <g id="text_7">
     <text style="font: 9px 'Arial'; text-anchor: middle" x="13.642031" y="53.563125" transform="rotate(-90 13.642031 53.563125)">% of frames</text>
    </g>
   </g>
   <g id="patch_21">
    <path d="M 39.277031 97.063125 
L 39.277031 10.063125 
" style="fill: none; stroke: #1a1a1a; stroke-width: 0.8; stroke-linejoin: miter; stroke-linecap: square"/>
   </g>
   <g id="patch_22">
    <path d="M 39.277031 97.063125 
L 256.027031 97.063125 
" style="fill: none; stroke: #1a1a1a; stroke-width: 0.8; stroke-linejoin: miter; stroke-linecap: square"/>
   </g>
   <g id="legend_1">
    <g id="patch_23">
     <path d="M 89.995781 128.123125 
L 99.595781 128.123125 
L 99.595781 119.923125 
L 89.995781 119.923125 
z
" style="fill: #bfb3d8"/>
    </g>
    <g id="text_8">
     <text style="font: 8px 'Arial'; text-anchor: start" x="103.595781" y="126.723125" transform="rotate(-0 103.595781 126.723125)">correctly labelled</text>
    </g>
    <g id="patch_24">
     <path d="M 174.819531 128.123125 
L 184.419531 128.123125 
L 184.419531 119.923125 
L 174.819531 119.923125 
z
" style="fill: #991b1e"/>
    </g>
    <g id="text_9">
     <text style="font: 8px 'Arial'; text-anchor: start" x="188.419531" y="126.723125" transform="rotate(-0 188.419531 126.723125)">error</text>
    </g>
   </g>
  </g>
 </g>
 <defs>
  <clipPath id="pc72d2358e8">
   <rect x="39.277031" y="10.063125" width="216.75" height="87"/>
  </clipPath>
 </defs>
</svg>
