<?xml version="1.0" encoding="utf-8" standalone="no"?>
<!DOCTYPE svg PUBLIC "-//W3C//DTD SVG 1.1//EN"
  "http://www.w3.org/Graphics/SVG/1.1/DTD/svg11.dtd">
<svg xmlns:xlink="http://www.w3.org/1999/xlink" width="251.707031pt" height="127.286875pt" viewBox="0 0 251.707031 127.286875" xmlns="http://www.w3.org/2000/svg" version="1.1">
 <metadata>
  <rdf:RDF xmlns:dc="http://purl.org/dc/elements/1.1/" xmlns:cc="http://creativecommons.org/ns#" xmlns:rdf="http://www.w3.org/1999/02/22-rdf-syntax-ns#">
   <cc:Work>
    <dc:type rdf:resource="http://purl.org/dc/dcmitype/StillImage"/>
    <dc:date>2026-05-13T17:39:05.969194</dc:date>
    <dc:format>image/svg+xml</dc:format>
    <dc:creator>
     <cc:Agent>
      <dc:title>Matplotlib v3.9.4, https://matplotlib.org/</dc:title>
     </cc:Agent>
    </dc:creator>
   </cc:Work>
  </rdf:RDF>
 </metadata>
 <defs>
  <style type="text/css">*{stroke-linejoin: round; stroke-linecap: butt}</style>
 </defs>
 <g id="figure_1">
  <g id="patch_1">
   <path d="M 0 127.286875 
L 251.707031 127.286875 
L 251.707031 0 
L 0 0 
z
" style="fill: #ffffff"/>
  </g>
  <g id="axes_1">
   <g id="patch_2">
    <path d="M 33.517031 91.303125 
L 250.267031 91.303125 
L 250.267031 4.303125 
L 33.517031 4.303125 
z
" style="fill: #ffffff"/>
   </g>
   <g id="patch_3">
    <path d="M 37.639993 91.303125 
L 57.665808 91.303125 
L 57.665808 6.987728 
L 37.639993 6.987728 
z
" clip-path="url(#pab0926b47d)" style="fill: #bfb3d8"/>
   </g>
   <g id="patch_4">
    <path d="M 61.199776 91.303125 
L 81.225591 91.303125 
L 81.225591 8.501889 
L 61.199776 8.501889 
z
" clip-path="url(#pab0926b47d)" style="fill: #bfb3d8"/>
   </g>
   <g id="patch_5">
    <path d="M 84.759558 91.303125 
L 104.785374 91.303125 
L 104.785374 9.166898 
L 84.759558 9.166898 
z
" clip-path="url(#pab0926b47d)" style="fill: #bfb3d8"/>
   </g>
   <g id="patch_6">
    <path d="M 108.319341 91.303125 
L 128.345156 91.303125 
L 128.345156 9.644712 
L 108.319341 9.644712 
z
" clip-path="url(#pab0926b47d)" style="fill: #bfb3d8"/>
   </g>
   <g id="patch_7">
    <path d="M 131.879124 91.303125 
L 151.904939 91.303125 
L 151.904939 11.880132 
L 131.879124 11.880132 
z
" clip-path="url(#pab0926b47d)" style="fill: #bfb3d8"/>
   </g>
   <g id="patch_8">
    <path d="M 155.438906 91.303125 
L 175.464721 91.303125 
L 175.464721 12.926734 
L 155.438906 12.926734 
z
" clip-path="url(#pab0926b47d)" style="fill: #bfb3d8"/>
   </g>
   <g id="patch_9">
    <path d="M 178.998689 91.303125 
L 199.024504 91.303125 
L 199.024504 13.169186 
L 178.998689 13.169186 
z
" clip-path="url(#pab0926b47d)" style="fill: #bfb3d8"/>
   </g>
   <g id="patch_10">
    <path d="M 202.558471 91.303125 
L 222.584287 91.303125 
L 222.584287 14.986752 
L 202.558471 14.986752 
z
" clip-path="url(#pab0926b47d)" style="fill: #bfb3d8"/>
   </g>
   <g id="patch_11">
    <path d="M 226.118254 91.303125 
L 246.144069 91.303125 
L 246.144069 33.385278 
L 226.118254 33.385278 
z
" clip-path="url(#pab0926b47d)" style="fill: #bfb3d8"/>
   </g>
   <g id="patch_12">
    <path d="M 37.639993 6.987728 
L 57.665808 6.987728 
L 57.665808 4.303125 
L 37.639993 4.303125 
z
" clip-path="url(#pab0926b47d)" style="fill: #991b1e"/>
   </g>
   <g id="patch_13">
    <path d="M 61.199776 8.501889 
L 81.225591 8.501889 
L 81.225591 4.303125 
L 61.199776 4.303125 
z
" clip-path="url(#pab0926b47d)" style="fill: #991b1e"/>
   </g>
   <g id="patch_14">
    <path d="M 84.759558 9.166898 
L 104.785374 9.166898 
L 104.785374 4.303125 
L 84.759558 4.303125 
z
" clip-path="url(#pab0926b47d)" style="fill: #991b1e"/>
   </g>
   <g id="patch_15">
    <path d="M 108.319341 9.644712 
L 128.345156 9.644712 
L 128.345156 4.303125 
L 108.319341 4.303125 
z
" clip-path="url(#pab0926b47d)" style="fill: #991b1e"/>
   </g>
   <g id="patch_16">
    <path d="M 131.879124 11.880132 
L 151.904939 11.880132 
L 151.904939 4.303125 
L 131.879124 4.303125 
z
" clip-path="url(#pab0926b47d)" style="fill: #991b1e"/>
   </g>
   <g id="patch_17">
    <path d="M 155.438906 12.926734 
L 175.464721 12.926734 
L 175.464721 4.303125 
L 155.438906 4.303125 
z
" clip-path="url(#pab0926b47d)" style="fill: #991b1e"/>
   </g>
   <g id="patch_18">
    <path d="M 178.998689 13.169186 
L 199.024504 13.169186 
L 199.024504 4.303125 
L 178.998689 4.303125 
z
" clip-path="url(#pab0926b47d)" style="fill: #991b1e"/>
   </g>
   <g id="patch_19">
    <path d="M 202.558471 14.986752 
L 222.584287 14.986752 
L 222.584287 4.303125 
L 202.558471 4.303125 
z
" clip-path="url(#pab0926b47d)" style="fill: #991b1e"/>
   </g>
   <g id="patch_20">
    <path d="M 226.118254 33.385278 
L 246.144069 33.385278 
L 246.144069 4.303125 
L 226.118254 4.303125 
z
" clip-path="url(#pab0926b47d)" style="fill: #991b1e"/>
   </g>
   <g id="matplotlib.axis_1">
    <g id="text_1">
     <text style="font: 9px 'Arial'; text-anchor: middle" x="141.892031" y="101.745156" transform="rotate(-0 141.892031 101.745156)">videos</text>
    </g>
   </g>
   <g id="matplotlib.axis_2">
    <g id="ytick_1">
     <g id="line2d_1">
      <defs>
       <path id="m606deeec2c" d="M 0 0 
L -3 0 
" style="stroke: #1a1a1a; stroke-width: 0.8"/>
      </defs>
      <g>
       <use xlink:href="#m606deeec2c" x="33.517031" y="91.303125" style="fill: #1a1a1a; stroke: #1a1a1a; stroke-width: 0.8"/>
      </g>
     </g>
     <g id="text_2">
      <text style="fill: #1a1a1a; font: 8px 'Arial'; text-anchor: end" x="27.017031" y="94.16625" transform="rotate(-0 27.017031 94.16625)">0</text>
     </g>
    </g>
    <g id="ytick_2">
     <g id="line2d_2">
      <g>
       <use xlink:href="#m606deeec2c" x="33.517031" y="69.553125" style="fill: #1a1a1a; stroke: #1a1a1a; stroke-width: 0.8"/>
      </g>
     </g>
     <g id="text_3">
      <text style="fill: #1a1a1a; font: 8px 'Arial'; text-anchor: end" x="27.017031" y="72.41625" transform="rotate(-0 27.017031 72.41625)">25</text>
     </g>
    </g>
    <g id="ytick_3">
     <g id="line2d_3">
      <g>
       <use xlink:href="#m606deeec2c" x="33.517031" y="47.803125" style="fill: #1a1a1a; stroke: #1a1a1a; stroke-width: 0.8"/>
      </g>
     </g>
     <g id="text_4">
      <text style="fill: #1a1a1a; font: 8px 'Arial'; text-anchor: end" x="27.017031" y="50.66625" transform="rotate(-0 27.017031 50.66625)">50</text>
     </g>
    </g>
    <g id="ytick_4">
     <g id="line2d_4">
      <g>
       <use xlink:href="#m606deeec2c" x="33.517031" y="26.053125" style="fill: #1a1a1a; stroke: #1a1a1a; stroke-width: 0.8"/>
      </g>
     </g>
     <g id="text_5">
      <text style="fill: #1a1a1a; font: 8px 'Arial'; text-anchor: end" x="27.017031" y="28.91625" transform="rotate(-0 27.017031 28.91625)">75</text>
     </g>
    </g>
    <g id="ytick_5">
     <g id="line2d_5">
      <g>
       <use xlink:href="#m606deeec2c" x="33.517031" y="4.303125" style="fill: #1a1a1a; stroke: #1a1a1a; stroke-width: 0.8"/>
      </g>
     </g>
     <g id="text_6">
      <text style="fill: #1a1a1a; font: 8px 'Arial'; text-anchor: end" x="27.017031" y="7.16625" transform="rotate(-0 27.017031 7.16625)">100</text>
     </g>
    </g>
    <g id="text_7">
     <text style="font: 9px 'Arial'; text-anchor: middle" x="7.882031" y="47.803125" transform="rotate(-90 7.882031 47.803125)">% of frames</text>
    </g>
   </g>
   <g id="patch_21">
    <path d="M 33.517031 91.303125 
L 33.517031 4.303125 
" style="fill: none; stroke: #1a1a1a; stroke-width: 0.8; stroke-linejoin: miter; stroke-linecap: square"/>
   </g>
   <g id="patch_22">
    <path d="M 33.517031 91.303125 
L 250.267031 91.303125 
" style="fill: none; stroke: #1a1a1a; stroke-width: 0.8; stroke-linejoin: miter; stroke-linecap: square"/>
   </g>
   <g id="legend_1">
    <g id="patch_23">
     <path d="M 84.235781 122.363125 
L 93.835781 122.363125 
L 93.835781 114.163125 
L 84.235781 114.163125 
z
" style="fill: #bfb3d8"/>
    </g>
    <g id="text_8">
     <text style="font: 8px 'Arial'; text-anchor: start" x="97.835781" y="120.963125" transform="rotate(-0 97.835781 120.963125)">correctly labelled</text>
    </g>
    <g id="patch_24">
     <path d="M 169.059531 122.363125 
L 178.659531 122.363125 
L 178.659531 114.163125 
L 169.059531 114.163125 
z
" style="fill: #991b1e"/>
    </g>
    <g id="text_9">
     <text style="font: 8px 'Arial'; text-anchor: start" x="182.659531" y="120.963125" transform="rotate(-0 182.659531 120.963125)">error</text>
    </g>
   </g>
  </g>
 </g>
 <defs>
  <clipPath id="pab0926b47d">
   <rect x="33.517031" y="4.303125" width="216.75" height="87"/>
  </clipPath>
 </defs>
</svg>
