<?xml version="1.0" encoding="utf-8" standalone="no"?>
<!DOCTYPE svg PUBLIC "-//W3C//DTD SVG 1.1//EN"
  "http://www.w3.org/Graphics/SVG/1.1/DTD/svg11.dtd">
<svg xmlns:xlink="http://www.w3.org/1999/xlink" width="255pt" height="150pt" viewBox="0 0 255 150" xmlns="http://www.w3.org/2000/svg" version="1.1">
 <metadata>
  <rdf:RDF xmlns:dc="http://purl.org/dc/elements/1.1/" xmlns:cc="http://creativecommons.org/ns#" xmlns:rdf="http://www.w3.org/1999/02/22-rdf-syntax-ns#">
   <cc:Work>
    <dc:type rdf:resource="http://purl.org/dc/dcmitype/StillImage"/>
    <dc:date>2026-05-13T17:16:47.109067</dc:date>
    <dc:format>image/svg+xml</dc:format>
    <dc:creator>
     <cc:Agent>
      <dc:title>Matplotlib v3.9.4, https://matplotlib.org/</dc:title>
     </cc:Agent>
    </dc:creator>
   </cc:Work>
  </rdf:RDF>
 </metadata>
 <defs>
  <style type="text/css">*{stroke-linejoin: round; stroke-linecap: butt}</style>
 </defs>
 <g id="figure_1">
  <g id="patch_1">
   <path d="M 0 150 
L 255 150 
L 255 0 
L 0 0 
z
" style="fill: #ffffff"/>
  </g>
  <g id="axes_1">
   <g id="patch_2">
    <path d="M 33.15 102 
L 249.9 102 
L 249.9 15 
L 33.15 15 
z
" style="fill: #ffffff"/>
   </g>
   <g id="patch_3">
    <path d="M 37.272962 102 
L 57.298777 102 
L 57.298777 17.684603 
L 37.272962 17.684603 
z
" clip-path="url(#p57327c837c)" style="fill: #bfb3d8"/>
   </g>
   <g id="patch_4">
    <path d="M 60.832745 102 
L 80.85856 102 
L 80.85856 19.198764 
L 60.832745 19.198764 
z
" clip-path="url(#p57327c837c)" style="fill: #bfb3d8"/>
   </g>
   <g id="patch_5">
    <path d="M 84.392527 102 
L 104.418342 102 
L 104.418342 19.863773 
L 84.392527 19.863773 
z
" clip-path="url(#p57327c837c)" style="fill: #bfb3d8"/>
   </g>
   <g id="patch_6">
    <path d="M 107.95231 102 
L 127.978125 102 
L 127.978125 20.341587 
L 107.95231 20.341587 
z
" clip-path="url(#p57327c837c)" style="fill: #bfb3d8"/>
   </g>
   <g id="patch_7">
    <path d="M 131.512092 102 
L 151.537908 102 
L 151.537908 22.577007 
L 131.512092 22.577007 
z
" clip-path="url(#p57327c837c)" style="fill: #bfb3d8"/>
   </g>
   <g id="patch_8">
    <path d="M 155.071875 102 
L 175.09769 102 
L 175.09769 23.623609 
L 155.071875 23.623609 
z
" clip-path="url(#p57327c837c)" style="fill: #bfb3d8"/>
   </g>
   <g id="patch_9">
    <path d="M 178.631658 102 
L 198.657473 102 
L 198.657473 23.866061 
L 178.631658 23.866061 
z
" clip-path="url(#p57327c837c)" style="fill: #bfb3d8"/>
   </g>
   <g id="patch_10">
    <path d="M 202.19144 102 
L 222.217255 102 
L 222.217255 25.683627 
L 202.19144 25.683627 
z
" clip-path="url(#p57327c837c)" style="fill: #bfb3d8"/>
   </g>
   <g id="patch_11">
    <path d="M 225.751223 102 
L 245.777038 102 
L 245.777038 44.082153 
L 225.751223 44.082153 
z
" clip-path="url(#p57327c837c)" style="fill: #bfb3d8"/>
   </g>
   <g id="patch_12">
    <path d="M 37.272962 17.684603 
L 57.298777 17.684603 
L 57.298777 15 
L 37.272962 15 
z
" clip-path="url(#p57327c837c)" style="fill: #991b1e"/>
   </g>
   <g id="patch_13">
    <path d="M 60.832745 19.198764 
L 80.85856 19.198764 
L 80.85856 15 
L 60.832745 15 
z
" clip-path="url(#p57327c837c)" style="fill: #991b1e"/>
   </g>
   <g id="patch_14">
    <path d="M 84.392527 19.863773 
L 104.418342 19.863773 
L 104.418342 15 
L 84.392527 15 
z
" clip-path="url(#p57327c837c)" style="fill: #991b1e"/>
   </g>
   <g id="patch_15">
    <path d="M 107.95231 20.341587 
L 127.978125 20.341587 
L 127.978125 15 
L 107.95231 15 
z
" clip-path="url(#p57327c837c)" style="fill: #991b1e"/>
   </g>
   <g id="patch_16">
    <path d="M 131.512092 22.577007 
L 151.537908 22.577007 
L 151.537908 15 
L 131.512092 15 
z
" clip-path="url(#p57327c837c)" style="fill: #991b1e"/>
   </g>
   <g id="patch_17">
    <path d="M 155.071875 23.623609 
L 175.09769 23.623609 
L 175.09769 15 
L 155.071875 15 
z
" clip-path="url(#p57327c837c)" style="fill: #991b1e"/>
   </g>
   <g id="patch_18">
    <path d="M 178.631658 23.866061 
L 198.657473 23.866061 
L 198.657473 15 
L 178.631658 15 
z
" clip-path="url(#p57327c837c)" style="fill: #991b1e"/>
   </g>
   <g id="patch_19">
    <path d="M 202.19144 25.683627 
L 222.217255 25.683627 
L 222.217255 15 
L 202.19144 15 
z
" clip-path="url(#p57327c837c)" style="fill: #991b1e"/>
   </g>
   <g id="patch_20">
    <path d="M 225.751223 44.082153 
L 245.777038 44.082153 
L 245.777038 15 
L 225.751223 15 
z
" clip-path="url(#p57327c837c)" style="fill: #991b1e"/>
   </g>
   <g id="matplotlib.axis_1">
    <g id="text_1">
     <text style="font: 9px 'Arial'; text-anchor: middle" x="141.525" y="112.442031" transform="rotate(-0 141.525 112.442031)">videos</text>
    </g>
   </g>
   <g id="matplotlib.axis_2">
    <g id="ytick_1">
     <g id="line2d_1">
      <defs>
       <path id="m28791290f0" d="M 0 0 
L -3 0 
" style="stroke: #1a1a1a; stroke-width: 0.8"/>
      </defs>
      <g>
       <use xlink:href="#m28791290f0" x="33.15" y="102" style="fill: #1a1a1a; stroke: #1a1a1a; stroke-width: 0.8"/>
      </g>
     </g>
     <g id="text_2">
      <text style="fill: #1a1a1a; font: 8px 'Arial'; text-anchor: end" x="26.65" y="104.863125" transform="rotate(-0 26.65 104.863125)">0</text>
     </g>
    </g>
    <g id="ytick_2">
     <g id="line2d_2">
      <g>
       <use xlink:href="#m28791290f0" x="33.15" y="80.25" style="fill: #1a1a1a; stroke: #1a1a1a; stroke-width: 0.8"/>
      </g>
     </g>
     <g id="text_3">
      <text style="fill: #1a1a1a; font: 8px 'Arial'; text-anchor: end" x="26.65" y="83.113125" transform="rotate(-0 26.65 83.113125)">25</text>
     </g>
    </g>
    <g id="ytick_3">
     <g id="line2d_3">
      <g>
       <use xlink:href="#m28791290f0" x="33.15" y="58.5" style="fill: #1a1a1a; stroke: #1a1a1a; stroke-width: 0.8"/>
      </g>
     </g>
     <g id="text_4">
      <text style="fill: #1a1a1a; font: 8px 'Arial'; text-anchor: end" x="26.65" y="61.363125" transform="rotate(-0 26.65 61.363125)">50</text>
     </g>
    </g>
    <g id="ytick_4">
     <g id="line2d_4">
      <g>
       <use xlink:href="#m28791290f0" x="33.15" y="36.75" style="fill: #1a1a1a; stroke: #1a1a1a; stroke-width: 0.8"/>
      </g>
     </g>
     <g id="text_5">
      <text style="fill: #1a1a1a; font: 8px 'Arial'; text-anchor: end" x="26.65" y="39.613125" transform="rotate(-0 26.65 39.613125)">75</text>
     </g>
    </g>
    <g id="ytick_5">
     <g id="line2d_5">
      <g>
       <use xlink:href="#m28791290f0" x="33.15" y="15" style="fill: #1a1a1a; stroke: #1a1a1a; stroke-width: 0.8"/>
      </g>
     </g>
     <g id="text_6">
      <text style="fill: #1a1a1a; font: 8px 'Arial'; text-anchor: end" x="26.65" y="17.863125" transform="rotate(-0 26.65 17.863125)">100</text>
     </g>
    </g>
    <g id="text_7">
     <text style="font: 9px 'Arial'; text-anchor: middle" x="7.515" y="58.5" transform="rotate(-90 7.515 58.5)">% of frames</text>
    </g>
   </g>
   <g id="patch_21">
    <path d="M 33.15 102 
L 33.15 15 
" style="fill: none; stroke: #1a1a1a; stroke-width: 0.8; stroke-linejoin: miter; stroke-linecap: square"/>
   </g>
   <g id="patch_22">
    <path d="M 33.15 102 
L 249.9 102 
" style="fill: none; stroke: #1a1a1a; stroke-width: 0.8; stroke-linejoin: miter; stroke-linecap: square"/>
   </g>
   <g id="legend_1">
    <g id="patch_23">
     <path d="M 83.86875 133.06 
L 93.46875 133.06 
L 93.46875 124.86 
L 83.86875 124.86 
z
" style="fill: #bfb3d8"/>
    </g>
    <g id="text_8">
     <text style="font: 8px 'Arial'; text-anchor: start" x="97.46875" y="131.66" transform="rotate(-0 97.46875 131.66)">correctly labelled</text>
    </g>
    <g id="patch_24">
     <path d="M 168.6925 133.06 
L 178.2925 133.06 
L 178.2925 124.86 
L 168.6925 124.86 
z
" style="fill: #991b1e"/>
    </g>
    <g id="text_9">
     <text style="font: 8px 'Arial'; text-anchor: start" x="182.2925" y="131.66" transform="rotate(-0 182.2925 131.66)">error</text>
    </g>
   </g>
  </g>
 </g>
 <defs>
  <clipPath id="p57327c837c">
   <rect x="33.15" y="15" width="216.75" height="87"/>
  </clipPath>
 </defs>
</svg>
