<?xml version="1.0" encoding="utf-8" standalone="no"?>
<!DOCTYPE svg PUBLIC "-//W3C//DTD SVG 1.1//EN"
  "http://www.w3.org/Graphics/SVG/1.1/DTD/svg11.dtd">
<svg xmlns:xlink="http://www.w3.org/1999/xlink" width="626.062563pt" height="134.532897pt" viewBox="0 0 626.062563 134.532897" xmlns="http://www.w3.org/2000/svg" version="1.1">
 <metadata>
  <rdf:RDF xmlns:dc="http://purl.org/dc/elements/1.1/" xmlns:cc="http://creativecommons.org/ns#" xmlns:rdf="http://www.w3.org/1999/02/22-rdf-syntax-ns#">
   <cc:Work>
    <dc:type rdf:resource="http://purl.org/dc/dcmitype/StillImage"/>
    <dc:date>2026-05-13T17:51:59.805281</dc:date>
    <dc:format>image/svg+xml</dc:format>
    <dc:creator>
     <cc:Agent>
      <dc:title>Matplotlib v3.9.4, https://matplotlib.org/</dc:title>
     </cc:Agent>
    </dc:creator>
   </cc:Work>
  </rdf:RDF>
 </metadata>
 <defs>
  <style type="text/css">*{stroke-linejoin: round; stroke-linecap: butt}</style>
 </defs>
 <g id="figure_1">
  <g id="patch_1">
   <path d="M 0 134.532897 
L 626.062563 134.532897 
L 626.062563 0 
L 0 0 
z
" style="fill: #ffffff"/>
  </g>
  <g id="axes_1">
   <g id="patch_2">
    <path d="M 46.912563 124.69256 
L 618.862563 124.69256 
L 618.862563 7.69256 
L 46.912563 7.69256 
z
" style="fill: #ffffff"/>
   </g>
   <g id="patch_3">
    <path d="M 47.152306 21.269352 
L 91.186849 21.269352 
L 91.186849 17.675495 
L 47.152306 17.675495 
z
" clip-path="url(#p4a5cffb9ab)" style="fill: #ebeced"/>
   </g>
   <g id="patch_4">
    <path d="M 47.152306 71.184027 
L 91.186849 71.184027 
L 91.186849 67.590171 
L 47.152306 67.590171 
z
" clip-path="url(#p4a5cffb9ab)" style="fill: #ebeced"/>
   </g>
   <g id="patch_5">
    <path d="M 47.152306 26.460478 
L 91.186849 26.460478 
L 91.186849 22.866621 
L 47.152306 22.866621 
z
" clip-path="url(#p4a5cffb9ab)" style="fill: #ebeced"/>
   </g>
   <g id="patch_6">
    <path d="M 47.152306 76.375154 
L 91.186849 76.375154 
L 91.186849 72.781297 
L 47.152306 72.781297 
z
" clip-path="url(#p4a5cffb9ab)" style="fill: #ebeced"/>
   </g>
   <g id="patch_7">
    <path d="M 47.152306 31.651604 
L 91.186849 31.651604 
L 91.186849 28.057748 
L 47.152306 28.057748 
z
" clip-path="url(#p4a5cffb9ab)" style="fill: #ebeced"/>
   </g>
   <g id="patch_8">
    <path d="M 47.152306 81.56628 
L 91.186849 81.56628 
L 91.186849 77.972423 
L 47.152306 77.972423 
z
" clip-path="url(#p4a5cffb9ab)" style="fill: #ebeced"/>
   </g>
   <g id="patch_9">
    <path d="M 47.152306 36.842731 
L 91.186849 36.842731 
L 91.186849 33.248874 
L 47.152306 33.248874 
z
" clip-path="url(#p4a5cffb9ab)" style="fill: #ebeced"/>
   </g>
   <g id="patch_10">
    <path d="M 47.152306 86.757406 
L 91.186849 86.757406 
L 91.186849 83.16355 
L 47.152306 83.16355 
z
" clip-path="url(#p4a5cffb9ab)" style="fill: #ebeced"/>
   </g>
   <g id="patch_11">
    <path d="M 47.152306 42.033857 
L 91.186849 42.033857 
L 91.186849 38.44 
L 47.152306 38.44 
z
" clip-path="url(#p4a5cffb9ab)" style="fill: #ebeced"/>
   </g>
   <g id="patch_12">
    <path d="M 47.152306 91.948533 
L 91.186849 91.948533 
L 91.186849 88.354676 
L 47.152306 88.354676 
z
" clip-path="url(#p4a5cffb9ab)" style="fill: #ebeced"/>
   </g>
   <g id="patch_13">
    <path d="M 47.152306 47.224983 
L 91.186849 47.224983 
L 91.186849 43.631126 
L 47.152306 43.631126 
z
" clip-path="url(#p4a5cffb9ab)" style="fill: #ebeced"/>
   </g>
   <g id="patch_14">
    <path d="M 47.152306 97.139659 
L 91.186849 97.139659 
L 91.186849 93.545802 
L 47.152306 93.545802 
z
" clip-path="url(#p4a5cffb9ab)" style="fill: #ebeced"/>
   </g>
   <g id="patch_15">
    <path d="M 47.152306 52.416109 
L 91.186849 52.416109 
L 91.186849 48.822253 
L 47.152306 48.822253 
z
" clip-path="url(#p4a5cffb9ab)" style="fill: #ebeced"/>
   </g>
   <g id="patch_16">
    <path d="M 47.152306 102.330785 
L 91.186849 102.330785 
L 91.186849 98.736928 
L 47.152306 98.736928 
z
" clip-path="url(#p4a5cffb9ab)" style="fill: #ebeced"/>
   </g>
   <g id="patch_17">
    <path d="M 47.152306 57.607236 
L 91.186849 57.607236 
L 91.186849 54.013379 
L 47.152306 54.013379 
z
" clip-path="url(#p4a5cffb9ab)" style="fill: #ebeced"/>
   </g>
   <g id="patch_18">
    <path d="M 47.152306 107.521911 
L 91.186849 107.521911 
L 91.186849 103.928055 
L 47.152306 103.928055 
z
" clip-path="url(#p4a5cffb9ab)" style="fill: #ebeced"/>
   </g>
   <g id="patch_19">
    <path d="M 47.152306 62.798362 
L 91.186849 62.798362 
L 91.186849 59.204505 
L 47.152306 59.204505 
z
" clip-path="url(#p4a5cffb9ab)" style="fill: #ebeced"/>
   </g>
   <g id="patch_20">
    <path d="M 47.152306 112.713038 
L 91.186849 112.713038 
L 91.186849 109.119181 
L 47.152306 109.119181 
z
" clip-path="url(#p4a5cffb9ab)" style="fill: #ebeced"/>
   </g>
   <g id="patch_21">
    <path d="M 47.152306 12.883686 
L 91.186849 12.883686 
L 91.186849 9.289829 
L 47.152306 9.289829 
z
" clip-path="url(#p4a5cffb9ab)" style="fill: #ebeced"/>
   </g>
   <g id="patch_22">
    <path d="M 95.101031 21.269352 
L 139.135574 21.269352 
L 139.135574 17.675495 
L 95.101031 17.675495 
z
" clip-path="url(#p4a5cffb9ab)" style="fill: #ebeced"/>
   </g>
   <g id="patch_23">
    <path d="M 95.101031 71.184027 
L 139.135574 71.184027 
L 139.135574 67.590171 
L 95.101031 67.590171 
z
" clip-path="url(#p4a5cffb9ab)" style="fill: #ebeced"/>
   </g>
   <g id="patch_24">
    <path d="M 95.101031 26.460478 
L 139.135574 26.460478 
L 139.135574 22.866621 
L 95.101031 22.866621 
z
" clip-path="url(#p4a5cffb9ab)" style="fill: #ebeced"/>
   </g>
   <g id="patch_25">
    <path d="M 95.101031 76.375154 
L 139.135574 76.375154 
L 139.135574 72.781297 
L 95.101031 72.781297 
z
" clip-path="url(#p4a5cffb9ab)" style="fill: #ebeced"/>
   </g>
   <g id="patch_26">
    <path d="M 95.101031 31.651604 
L 139.135574 31.651604 
L 139.135574 28.057748 
L 95.101031 28.057748 
z
" clip-path="url(#p4a5cffb9ab)" style="fill: #ebeced"/>
   </g>
   <g id="patch_27">
    <path d="M 95.101031 81.56628 
L 139.135574 81.56628 
L 139.135574 77.972423 
L 95.101031 77.972423 
z
" clip-path="url(#p4a5cffb9ab)" style="fill: #ebeced"/>
   </g>
   <g id="patch_28">
    <path d="M 95.101031 36.842731 
L 139.135574 36.842731 
L 139.135574 33.248874 
L 95.101031 33.248874 
z
" clip-path="url(#p4a5cffb9ab)" style="fill: #ebeced"/>
   </g>
   <g id="patch_29">
    <path d="M 95.101031 86.757406 
L 139.135574 86.757406 
L 139.135574 83.16355 
L 95.101031 83.16355 
z
" clip-path="url(#p4a5cffb9ab)" style="fill: #ebeced"/>
   </g>
   <g id="patch_30">
    <path d="M 95.101031 42.033857 
L 139.135574 42.033857 
L 139.135574 38.44 
L 95.101031 38.44 
z
" clip-path="url(#p4a5cffb9ab)" style="fill: #ebeced"/>
   </g>
   <g id="patch_31">
    <path d="M 95.101031 91.948533 
L 139.135574 91.948533 
L 139.135574 88.354676 
L 95.101031 88.354676 
z
" clip-path="url(#p4a5cffb9ab)" style="fill: #ebeced"/>
   </g>
   <g id="patch_32">
    <path d="M 95.101031 47.224983 
L 139.135574 47.224983 
L 139.135574 43.631126 
L 95.101031 43.631126 
z
" clip-path="url(#p4a5cffb9ab)" style="fill: #ebeced"/>
   </g>
   <g id="patch_33">
    <path d="M 95.101031 97.139659 
L 139.135574 97.139659 
L 139.135574 93.545802 
L 95.101031 93.545802 
z
" clip-path="url(#p4a5cffb9ab)" style="fill: #ebeced"/>
   </g>
   <g id="patch_34">
    <path d="M 95.101031 52.416109 
L 139.135574 52.416109 
L 139.135574 48.822253 
L 95.101031 48.822253 
z
" clip-path="url(#p4a5cffb9ab)" style="fill: #ebeced"/>
   </g>
   <g id="patch_35">
    <path d="M 95.101031 102.330785 
L 139.135574 102.330785 
L 139.135574 98.736928 
L 95.101031 98.736928 
z
" clip-path="url(#p4a5cffb9ab)" style="fill: #ebeced"/>
   </g>
   <g id="patch_36">
    <path d="M 95.101031 57.607236 
L 139.135574 57.607236 
L 139.135574 54.013379 
L 95.101031 54.013379 
z
" clip-path="url(#p4a5cffb9ab)" style="fill: #ebeced"/>
   </g>
   <g id="patch_37">
    <path d="M 95.101031 107.521911 
L 139.135574 107.521911 
L 139.135574 103.928055 
L 95.101031 103.928055 
z
" clip-path="url(#p4a5cffb9ab)" style="fill: #ebeced"/>
   </g>
   <g id="patch_38">
    <path d="M 95.101031 62.798362 
L 139.135574 62.798362 
L 139.135574 59.204505 
L 95.101031 59.204505 
z
" clip-path="url(#p4a5cffb9ab)" style="fill: #ebeced"/>
   </g>
   <g id="patch_39">
    <path d="M 95.101031 112.713038 
L 139.135574 112.713038 
L 139.135574 109.119181 
L 95.101031 109.119181 
z
" clip-path="url(#p4a5cffb9ab)" style="fill: #ebeced"/>
   </g>
   <g id="patch_40">
    <path d="M 95.101031 12.883686 
L 139.135574 12.883686 
L 139.135574 9.289829 
L 95.101031 9.289829 
z
" clip-path="url(#p4a5cffb9ab)" style="fill: #ebeced"/>
   </g>
   <g id="patch_41">
    <path d="M 143.049755 21.269352 
L 187.084298 21.269352 
L 187.084298 17.675495 
L 143.049755 17.675495 
z
" clip-path="url(#p4a5cffb9ab)" style="fill: #ebeced"/>
   </g>
   <g id="patch_42">
    <path d="M 143.049755 71.184027 
L 187.084298 71.184027 
L 187.084298 67.590171 
L 143.049755 67.590171 
z
" clip-path="url(#p4a5cffb9ab)" style="fill: #ebeced"/>
   </g>
   <g id="patch_43">
    <path d="M 143.049755 26.460478 
L 187.084298 26.460478 
L 187.084298 22.866621 
L 143.049755 22.866621 
z
" clip-path="url(#p4a5cffb9ab)" style="fill: #ebeced"/>
   </g>
   <g id="patch_44">
    <path d="M 143.049755 76.375154 
L 187.084298 76.375154 
L 187.084298 72.781297 
L 143.049755 72.781297 
z
" clip-path="url(#p4a5cffb9ab)" style="fill: #ebeced"/>
   </g>
   <g id="patch_45">
    <path d="M 143.049755 31.651604 
L 187.084298 31.651604 
L 187.084298 28.057748 
L 143.049755 28.057748 
z
" clip-path="url(#p4a5cffb9ab)" style="fill: #ebeced"/>
   </g>
   <g id="patch_46">
    <path d="M 143.049755 81.56628 
L 187.084298 81.56628 
L 187.084298 77.972423 
L 143.049755 77.972423 
z
" clip-path="url(#p4a5cffb9ab)" style="fill: #ebeced"/>
   </g>
   <g id="patch_47">
    <path d="M 143.049755 36.842731 
L 187.084298 36.842731 
L 187.084298 33.248874 
L 143.049755 33.248874 
z
" clip-path="url(#p4a5cffb9ab)" style="fill: #ebeced"/>
   </g>
   <g id="patch_48">
    <path d="M 143.049755 86.757406 
L 187.084298 86.757406 
L 187.084298 83.16355 
L 143.049755 83.16355 
z
" clip-path="url(#p4a5cffb9ab)" style="fill: #ebeced"/>
   </g>
   <g id="patch_49">
    <path d="M 143.049755 42.033857 
L 187.084298 42.033857 
L 187.084298 38.44 
L 143.049755 38.44 
z
" clip-path="url(#p4a5cffb9ab)" style="fill: #ebeced"/>
   </g>
   <g id="patch_50">
    <path d="M 143.049755 91.948533 
L 187.084298 91.948533 
L 187.084298 88.354676 
L 143.049755 88.354676 
z
" clip-path="url(#p4a5cffb9ab)" style="fill: #ebeced"/>
   </g>
   <g id="patch_51">
    <path d="M 143.049755 47.224983 
L 187.084298 47.224983 
L 187.084298 43.631126 
L 143.049755 43.631126 
z
" clip-path="url(#p4a5cffb9ab)" style="fill: #ebeced"/>
   </g>
   <g id="patch_52">
    <path d="M 143.049755 97.139659 
L 187.084298 97.139659 
L 187.084298 93.545802 
L 143.049755 93.545802 
z
" clip-path="url(#p4a5cffb9ab)" style="fill: #ebeced"/>
   </g>
   <g id="patch_53">
    <path d="M 143.049755 52.416109 
L 187.084298 52.416109 
L 187.084298 48.822253 
L 143.049755 48.822253 
z
" clip-path="url(#p4a5cffb9ab)" style="fill: #ebeced"/>
   </g>
   <g id="patch_54">
    <path d="M 143.049755 102.330785 
L 187.084298 102.330785 
L 187.084298 98.736928 
L 143.049755 98.736928 
z
" clip-path="url(#p4a5cffb9ab)" style="fill: #ebeced"/>
   </g>
   <g id="patch_55">
    <path d="M 143.049755 57.607236 
L 187.084298 57.607236 
L 187.084298 54.013379 
L 143.049755 54.013379 
z
" clip-path="url(#p4a5cffb9ab)" style="fill: #ebeced"/>
   </g>
   <g id="patch_56">
    <path d="M 143.049755 107.521911 
L 187.084298 107.521911 
L 187.084298 103.928055 
L 143.049755 103.928055 
z
" clip-path="url(#p4a5cffb9ab)" style="fill: #ebeced"/>
   </g>
   <g id="patch_57">
    <path d="M 143.049755 62.798362 
L 187.084298 62.798362 
L 187.084298 59.204505 
L 143.049755 59.204505 
z
" clip-path="url(#p4a5cffb9ab)" style="fill: #ebeced"/>
   </g>
   <g id="patch_58">
    <path d="M 143.049755 112.713038 
L 187.084298 112.713038 
L 187.084298 109.119181 
L 143.049755 109.119181 
z
" clip-path="url(#p4a5cffb9ab)" style="fill: #ebeced"/>
   </g>
   <g id="patch_59">
    <path d="M 143.049755 12.883686 
L 187.084298 12.883686 
L 187.084298 9.289829 
L 143.049755 9.289829 
z
" clip-path="url(#p4a5cffb9ab)" style="fill: #ebeced"/>
   </g>
   <g id="patch_60">
    <path d="M 190.99848 21.269352 
L 235.033023 21.269352 
L 235.033023 17.675495 
L 190.99848 17.675495 
z
" clip-path="url(#p4a5cffb9ab)" style="fill: #ebeced"/>
   </g>
   <g id="patch_61">
    <path d="M 190.99848 71.184027 
L 235.033023 71.184027 
L 235.033023 67.590171 
L 190.99848 67.590171 
z
" clip-path="url(#p4a5cffb9ab)" style="fill: #ebeced"/>
   </g>
   <g id="patch_62">
    <path d="M 190.99848 26.460478 
L 235.033023 26.460478 
L 235.033023 22.866621 
L 190.99848 22.866621 
z
" clip-path="url(#p4a5cffb9ab)" style="fill: #ebeced"/>
   </g>
   <g id="patch_63">
    <path d="M 190.99848 76.375154 
L 235.033023 76.375154 
L 235.033023 72.781297 
L 190.99848 72.781297 
z
" clip-path="url(#p4a5cffb9ab)" style="fill: #ebeced"/>
   </g>
   <g id="patch_64">
    <path d="M 190.99848 31.651604 
L 235.033023 31.651604 
L 235.033023 28.057748 
L 190.99848 28.057748 
z
" clip-path="url(#p4a5cffb9ab)" style="fill: #ebeced"/>
   </g>
   <g id="patch_65">
    <path d="M 190.99848 81.56628 
L 235.033023 81.56628 
L 235.033023 77.972423 
L 190.99848 77.972423 
z
" clip-path="url(#p4a5cffb9ab)" style="fill: #ebeced"/>
   </g>
   <g id="patch_66">
    <path d="M 190.99848 36.842731 
L 235.033023 36.842731 
L 235.033023 33.248874 
L 190.99848 33.248874 
z
" clip-path="url(#p4a5cffb9ab)" style="fill: #ebeced"/>
   </g>
   <g id="patch_67">
    <path d="M 190.99848 86.757406 
L 235.033023 86.757406 
L 235.033023 83.16355 
L 190.99848 83.16355 
z
" clip-path="url(#p4a5cffb9ab)" style="fill: #ebeced"/>
   </g>
   <g id="patch_68">
    <path d="M 190.99848 42.033857 
L 235.033023 42.033857 
L 235.033023 38.44 
L 190.99848 38.44 
z
" clip-path="url(#p4a5cffb9ab)" style="fill: #ebeced"/>
   </g>
   <g id="patch_69">
    <path d="M 190.99848 91.948533 
L 235.033023 91.948533 
L 235.033023 88.354676 
L 190.99848 88.354676 
z
" clip-path="url(#p4a5cffb9ab)" style="fill: #ebeced"/>
   </g>
   <g id="patch_70">
    <path d="M 190.99848 47.224983 
L 235.033023 47.224983 
L 235.033023 43.631126 
L 190.99848 43.631126 
z
" clip-path="url(#p4a5cffb9ab)" style="fill: #ebeced"/>
   </g>
   <g id="patch_71">
    <path d="M 190.99848 97.139659 
L 235.033023 97.139659 
L 235.033023 93.545802 
L 190.99848 93.545802 
z
" clip-path="url(#p4a5cffb9ab)" style="fill: #ebeced"/>
   </g>
   <g id="patch_72">
    <path d="M 190.99848 52.416109 
L 235.033023 52.416109 
L 235.033023 48.822253 
L 190.99848 48.822253 
z
" clip-path="url(#p4a5cffb9ab)" style="fill: #ebeced"/>
   </g>
   <g id="patch_73">
    <path d="M 190.99848 102.330785 
L 235.033023 102.330785 
L 235.033023 98.736928 
L 190.99848 98.736928 
z
" clip-path="url(#p4a5cffb9ab)" style="fill: #ebeced"/>
   </g>
   <g id="patch_74">
    <path d="M 190.99848 57.607236 
L 235.033023 57.607236 
L 235.033023 54.013379 
L 190.99848 54.013379 
z
" clip-path="url(#p4a5cffb9ab)" style="fill: #ebeced"/>
   </g>
   <g id="patch_75">
    <path d="M 190.99848 107.521911 
L 235.033023 107.521911 
L 235.033023 103.928055 
L 190.99848 103.928055 
z
" clip-path="url(#p4a5cffb9ab)" style="fill: #ebeced"/>
   </g>
   <g id="patch_76">
    <path d="M 190.99848 62.798362 
L 235.033023 62.798362 
L 235.033023 59.204505 
L 190.99848 59.204505 
z
" clip-path="url(#p4a5cffb9ab)" style="fill: #ebeced"/>
   </g>
   <g id="patch_77">
    <path d="M 190.99848 112.713038 
L 235.033023 112.713038 
L 235.033023 109.119181 
L 190.99848 109.119181 
z
" clip-path="url(#p4a5cffb9ab)" style="fill: #ebeced"/>
   </g>
   <g id="patch_78">
    <path d="M 190.99848 12.883686 
L 235.033023 12.883686 
L 235.033023 9.289829 
L 190.99848 9.289829 
z
" clip-path="url(#p4a5cffb9ab)" style="fill: #ebeced"/>
   </g>
   <g id="patch_79">
    <path d="M 238.947204 21.269352 
L 282.981747 21.269352 
L 282.981747 17.675495 
L 238.947204 17.675495 
z
" clip-path="url(#p4a5cffb9ab)" style="fill: #ebeced"/>
   </g>
   <g id="patch_80">
    <path d="M 238.947204 71.184027 
L 282.981747 71.184027 
L 282.981747 67.590171 
L 238.947204 67.590171 
z
" clip-path="url(#p4a5cffb9ab)" style="fill: #ebeced"/>
   </g>
   <g id="patch_81">
    <path d="M 238.947204 26.460478 
L 282.981747 26.460478 
L 282.981747 22.866621 
L 238.947204 22.866621 
z
" clip-path="url(#p4a5cffb9ab)" style="fill: #ebeced"/>
   </g>
   <g id="patch_82">
    <path d="M 238.947204 76.375154 
L 282.981747 76.375154 
L 282.981747 72.781297 
L 238.947204 72.781297 
z
" clip-path="url(#p4a5cffb9ab)" style="fill: #ebeced"/>
   </g>
   <g id="patch_83">
    <path d="M 238.947204 31.651604 
L 282.981747 31.651604 
L 282.981747 28.057748 
L 238.947204 28.057748 
z
" clip-path="url(#p4a5cffb9ab)" style="fill: #ebeced"/>
   </g>
   <g id="patch_84">
    <path d="M 238.947204 81.56628 
L 282.981747 81.56628 
L 282.981747 77.972423 
L 238.947204 77.972423 
z
" clip-path="url(#p4a5cffb9ab)" style="fill: #ebeced"/>
   </g>
   <g id="patch_85">
    <path d="M 238.947204 36.842731 
L 282.981747 36.842731 
L 282.981747 33.248874 
L 238.947204 33.248874 
z
" clip-path="url(#p4a5cffb9ab)" style="fill: #ebeced"/>
   </g>
   <g id="patch_86">
    <path d="M 238.947204 86.757406 
L 282.981747 86.757406 
L 282.981747 83.16355 
L 238.947204 83.16355 
z
" clip-path="url(#p4a5cffb9ab)" style="fill: #ebeced"/>
   </g>
   <g id="patch_87">
    <path d="M 238.947204 42.033857 
L 282.981747 42.033857 
L 282.981747 38.44 
L 238.947204 38.44 
z
" clip-path="url(#p4a5cffb9ab)" style="fill: #ebeced"/>
   </g>
   <g id="patch_88">
    <path d="M 238.947204 91.948533 
L 282.981747 91.948533 
L 282.981747 88.354676 
L 238.947204 88.354676 
z
" clip-path="url(#p4a5cffb9ab)" style="fill: #ebeced"/>
   </g>
   <g id="patch_89">
    <path d="M 238.947204 47.224983 
L 282.981747 47.224983 
L 282.981747 43.631126 
L 238.947204 43.631126 
z
" clip-path="url(#p4a5cffb9ab)" style="fill: #ebeced"/>
   </g>
   <g id="patch_90">
    <path d="M 238.947204 97.139659 
L 282.981747 97.139659 
L 282.981747 93.545802 
L 238.947204 93.545802 
z
" clip-path="url(#p4a5cffb9ab)" style="fill: #ebeced"/>
   </g>
   <g id="patch_91">
    <path d="M 238.947204 52.416109 
L 282.981747 52.416109 
L 282.981747 48.822253 
L 238.947204 48.822253 
z
" clip-path="url(#p4a5cffb9ab)" style="fill: #ebeced"/>
   </g>
   <g id="patch_92">
    <path d="M 238.947204 102.330785 
L 282.981747 102.330785 
L 282.981747 98.736928 
L 238.947204 98.736928 
z
" clip-path="url(#p4a5cffb9ab)" style="fill: #ebeced"/>
   </g>
   <g id="patch_93">
    <path d="M 238.947204 57.607236 
L 282.981747 57.607236 
L 282.981747 54.013379 
L 238.947204 54.013379 
z
" clip-path="url(#p4a5cffb9ab)" style="fill: #ebeced"/>
   </g>
   <g id="patch_94">
    <path d="M 238.947204 107.521911 
L 282.981747 107.521911 
L 282.981747 103.928055 
L 238.947204 103.928055 
z
" clip-path="url(#p4a5cffb9ab)" style="fill: #ebeced"/>
   </g>
   <g id="patch_95">
    <path d="M 238.947204 62.798362 
L 282.981747 62.798362 
L 282.981747 59.204505 
L 238.947204 59.204505 
z
" clip-path="url(#p4a5cffb9ab)" style="fill: #ebeced"/>
   </g>
   <g id="patch_96">
    <path d="M 238.947204 112.713038 
L 282.981747 112.713038 
L 282.981747 109.119181 
L 238.947204 109.119181 
z
" clip-path="url(#p4a5cffb9ab)" style="fill: #ebeced"/>
   </g>
   <g id="patch_97">
    <path d="M 238.947204 12.883686 
L 282.981747 12.883686 
L 282.981747 9.289829 
L 238.947204 9.289829 
z
" clip-path="url(#p4a5cffb9ab)" style="fill: #ebeced"/>
   </g>
   <g id="patch_98">
    <path d="M 286.895929 21.269352 
L 330.930472 21.269352 
L 330.930472 17.675495 
L 286.895929 17.675495 
z
" clip-path="url(#p4a5cffb9ab)" style="fill: #ebeced"/>
   </g>
   <g id="patch_99">
    <path d="M 286.895929 71.184027 
L 330.930472 71.184027 
L 330.930472 67.590171 
L 286.895929 67.590171 
z
" clip-path="url(#p4a5cffb9ab)" style="fill: #ebeced"/>
   </g>
   <g id="patch_100">
    <path d="M 286.895929 26.460478 
L 330.930472 26.460478 
L 330.930472 22.866621 
L 286.895929 22.866621 
z
" clip-path="url(#p4a5cffb9ab)" style="fill: #ebeced"/>
   </g>
   <g id="patch_101">
    <path d="M 286.895929 76.375154 
L 330.930472 76.375154 
L 330.930472 72.781297 
L 286.895929 72.781297 
z
" clip-path="url(#p4a5cffb9ab)" style="fill: #ebeced"/>
   </g>
   <g id="patch_102">
    <path d="M 286.895929 31.651604 
L 330.930472 31.651604 
L 330.930472 28.057748 
L 286.895929 28.057748 
z
" clip-path="url(#p4a5cffb9ab)" style="fill: #ebeced"/>
   </g>
   <g id="patch_103">
    <path d="M 286.895929 81.56628 
L 330.930472 81.56628 
L 330.930472 77.972423 
L 286.895929 77.972423 
z
" clip-path="url(#p4a5cffb9ab)" style="fill: #ebeced"/>
   </g>
   <g id="patch_104">
    <path d="M 286.895929 36.842731 
L 330.930472 36.842731 
L 330.930472 33.248874 
L 286.895929 33.248874 
z
" clip-path="url(#p4a5cffb9ab)" style="fill: #ebeced"/>
   </g>
   <g id="patch_105">
    <path d="M 286.895929 86.757406 
L 330.930472 86.757406 
L 330.930472 83.16355 
L 286.895929 83.16355 
z
" clip-path="url(#p4a5cffb9ab)" style="fill: #ebeced"/>
   </g>
   <g id="patch_106">
    <path d="M 286.895929 42.033857 
L 330.930472 42.033857 
L 330.930472 38.44 
L 286.895929 38.44 
z
" clip-path="url(#p4a5cffb9ab)" style="fill: #ebeced"/>
   </g>
   <g id="patch_107">
    <path d="M 286.895929 91.948533 
L 330.930472 91.948533 
L 330.930472 88.354676 
L 286.895929 88.354676 
z
" clip-path="url(#p4a5cffb9ab)" style="fill: #ebeced"/>
   </g>
   <g id="patch_108">
    <path d="M 286.895929 47.224983 
L 330.930472 47.224983 
L 330.930472 43.631126 
L 286.895929 43.631126 
z
" clip-path="url(#p4a5cffb9ab)" style="fill: #ebeced"/>
   </g>
   <g id="patch_109">
    <path d="M 286.895929 97.139659 
L 330.930472 97.139659 
L 330.930472 93.545802 
L 286.895929 93.545802 
z
" clip-path="url(#p4a5cffb9ab)" style="fill: #ebeced"/>
   </g>
   <g id="patch_110">
    <path d="M 286.895929 52.416109 
L 330.930472 52.416109 
L 330.930472 48.822253 
L 286.895929 48.822253 
z
" clip-path="url(#p4a5cffb9ab)" style="fill: #ebeced"/>
   </g>
   <g id="patch_111">
    <path d="M 286.895929 102.330785 
L 330.930472 102.330785 
L 330.930472 98.736928 
L 286.895929 98.736928 
z
" clip-path="url(#p4a5cffb9ab)" style="fill: #ebeced"/>
   </g>
   <g id="patch_112">
    <path d="M 286.895929 57.607236 
L 330.930472 57.607236 
L 330.930472 54.013379 
L 286.895929 54.013379 
z
" clip-path="url(#p4a5cffb9ab)" style="fill: #ebeced"/>
   </g>
   <g id="patch_113">
    <path d="M 286.895929 107.521911 
L 330.930472 107.521911 
L 330.930472 103.928055 
L 286.895929 103.928055 
z
" clip-path="url(#p4a5cffb9ab)" style="fill: #ebeced"/>
   </g>
   <g id="patch_114">
    <path d="M 286.895929 62.798362 
L 330.930472 62.798362 
L 330.930472 59.204505 
L 286.895929 59.204505 
z
" clip-path="url(#p4a5cffb9ab)" style="fill: #ebeced"/>
   </g>
   <g id="patch_115">
    <path d="M 286.895929 112.713038 
L 330.930472 112.713038 
L 330.930472 109.119181 
L 286.895929 109.119181 
z
" clip-path="url(#p4a5cffb9ab)" style="fill: #ebeced"/>
   </g>
   <g id="patch_116">
    <path d="M 286.895929 12.883686 
L 330.930472 12.883686 
L 330.930472 9.289829 
L 286.895929 9.289829 
z
" clip-path="url(#p4a5cffb9ab)" style="fill: #ebeced"/>
   </g>
   <g id="patch_117">
    <path d="M 334.844653 21.269352 
L 378.879196 21.269352 
L 378.879196 17.675495 
L 334.844653 17.675495 
z
" clip-path="url(#p4a5cffb9ab)" style="fill: #ebeced"/>
   </g>
   <g id="patch_118">
    <path d="M 334.844653 71.184027 
L 378.879196 71.184027 
L 378.879196 67.590171 
L 334.844653 67.590171 
z
" clip-path="url(#p4a5cffb9ab)" style="fill: #ebeced"/>
   </g>
   <g id="patch_119">
    <path d="M 334.844653 26.460478 
L 378.879196 26.460478 
L 378.879196 22.866621 
L 334.844653 22.866621 
z
" clip-path="url(#p4a5cffb9ab)" style="fill: #ebeced"/>
   </g>
   <g id="patch_120">
    <path d="M 334.844653 76.375154 
L 378.879196 76.375154 
L 378.879196 72.781297 
L 334.844653 72.781297 
z
" clip-path="url(#p4a5cffb9ab)" style="fill: #ebeced"/>
   </g>
   <g id="patch_121">
    <path d="M 334.844653 31.651604 
L 378.879196 31.651604 
L 378.879196 28.057748 
L 334.844653 28.057748 
z
" clip-path="url(#p4a5cffb9ab)" style="fill: #ebeced"/>
   </g>
   <g id="patch_122">
    <path d="M 334.844653 81.56628 
L 378.879196 81.56628 
L 378.879196 77.972423 
L 334.844653 77.972423 
z
" clip-path="url(#p4a5cffb9ab)" style="fill: #ebeced"/>
   </g>
   <g id="patch_123">
    <path d="M 334.844653 36.842731 
L 378.879196 36.842731 
L 378.879196 33.248874 
L 334.844653 33.248874 
z
" clip-path="url(#p4a5cffb9ab)" style="fill: #ebeced"/>
   </g>
   <g id="patch_124">
    <path d="M 334.844653 86.757406 
L 378.879196 86.757406 
L 378.879196 83.16355 
L 334.844653 83.16355 
z
" clip-path="url(#p4a5cffb9ab)" style="fill: #ebeced"/>
   </g>
   <g id="patch_125">
    <path d="M 334.844653 42.033857 
L 378.879196 42.033857 
L 378.879196 38.44 
L 334.844653 38.44 
z
" clip-path="url(#p4a5cffb9ab)" style="fill: #ebeced"/>
   </g>
   <g id="patch_126">
    <path d="M 334.844653 91.948533 
L 378.879196 91.948533 
L 378.879196 88.354676 
L 334.844653 88.354676 
z
" clip-path="url(#p4a5cffb9ab)" style="fill: #ebeced"/>
   </g>
   <g id="patch_127">
    <path d="M 334.844653 47.224983 
L 378.879196 47.224983 
L 378.879196 43.631126 
L 334.844653 43.631126 
z
" clip-path="url(#p4a5cffb9ab)" style="fill: #ebeced"/>
   </g>
   <g id="patch_128">
    <path d="M 334.844653 97.139659 
L 378.879196 97.139659 
L 378.879196 93.545802 
L 334.844653 93.545802 
z
" clip-path="url(#p4a5cffb9ab)" style="fill: #ebeced"/>
   </g>
   <g id="patch_129">
    <path d="M 334.844653 52.416109 
L 378.879196 52.416109 
L 378.879196 48.822253 
L 334.844653 48.822253 
z
" clip-path="url(#p4a5cffb9ab)" style="fill: #ebeced"/>
   </g>
   <g id="patch_130">
    <path d="M 334.844653 102.330785 
L 378.879196 102.330785 
L 378.879196 98.736928 
L 334.844653 98.736928 
z
" clip-path="url(#p4a5cffb9ab)" style="fill: #ebeced"/>
   </g>
   <g id="patch_131">
    <path d="M 334.844653 57.607236 
L 378.879196 57.607236 
L 378.879196 54.013379 
L 334.844653 54.013379 
z
" clip-path="url(#p4a5cffb9ab)" style="fill: #ebeced"/>
   </g>
   <g id="patch_132">
    <path d="M 334.844653 107.521911 
L 378.879196 107.521911 
L 378.879196 103.928055 
L 334.844653 103.928055 
z
" clip-path="url(#p4a5cffb9ab)" style="fill: #ebeced"/>
   </g>
   <g id="patch_133">
    <path d="M 334.844653 62.798362 
L 378.879196 62.798362 
L 378.879196 59.204505 
L 334.844653 59.204505 
z
" clip-path="url(#p4a5cffb9ab)" style="fill: #ebeced"/>
   </g>
   <g id="patch_134">
    <path d="M 334.844653 112.713038 
L 378.879196 112.713038 
L 378.879196 109.119181 
L 334.844653 109.119181 
z
" clip-path="url(#p4a5cffb9ab)" style="fill: #ebeced"/>
   </g>
   <g id="patch_135">
    <path d="M 334.844653 12.883686 
L 378.879196 12.883686 
L 378.879196 9.289829 
L 334.844653 9.289829 
z
" clip-path="url(#p4a5cffb9ab)" style="fill: #ebeced"/>
   </g>
   <g id="patch_136">
    <path d="M 382.793378 21.269352 
L 426.827921 21.269352 
L 426.827921 17.675495 
L 382.793378 17.675495 
z
" clip-path="url(#p4a5cffb9ab)" style="fill: #ebeced"/>
   </g>
   <g id="patch_137">
    <path d="M 382.793378 71.184027 
L 426.827921 71.184027 
L 426.827921 67.590171 
L 382.793378 67.590171 
z
" clip-path="url(#p4a5cffb9ab)" style="fill: #ebeced"/>
   </g>
   <g id="patch_138">
    <path d="M 382.793378 26.460478 
L 426.827921 26.460478 
L 426.827921 22.866621 
L 382.793378 22.866621 
z
" clip-path="url(#p4a5cffb9ab)" style="fill: #ebeced"/>
   </g>
   <g id="patch_139">
    <path d="M 382.793378 76.375154 
L 426.827921 76.375154 
L 426.827921 72.781297 
L 382.793378 72.781297 
z
" clip-path="url(#p4a5cffb9ab)" style="fill: #ebeced"/>
   </g>
   <g id="patch_140">
    <path d="M 382.793378 31.651604 
L 426.827921 31.651604 
L 426.827921 28.057748 
L 382.793378 28.057748 
z
" clip-path="url(#p4a5cffb9ab)" style="fill: #ebeced"/>
   </g>
   <g id="patch_141">
    <path d="M 382.793378 81.56628 
L 426.827921 81.56628 
L 426.827921 77.972423 
L 382.793378 77.972423 
z
" clip-path="url(#p4a5cffb9ab)" style="fill: #ebeced"/>
   </g>
   <g id="patch_142">
    <path d="M 382.793378 36.842731 
L 426.827921 36.842731 
L 426.827921 33.248874 
L 382.793378 33.248874 
z
" clip-path="url(#p4a5cffb9ab)" style="fill: #ebeced"/>
   </g>
   <g id="patch_143">
    <path d="M 382.793378 86.757406 
L 426.827921 86.757406 
L 426.827921 83.16355 
L 382.793378 83.16355 
z
" clip-path="url(#p4a5cffb9ab)" style="fill: #ebeced"/>
   </g>
   <g id="patch_144">
    <path d="M 382.793378 42.033857 
L 426.827921 42.033857 
L 426.827921 38.44 
L 382.793378 38.44 
z
" clip-path="url(#p4a5cffb9ab)" style="fill: #ebeced"/>
   </g>
   <g id="patch_145">
    <path d="M 382.793378 91.948533 
L 426.827921 91.948533 
L 426.827921 88.354676 
L 382.793378 88.354676 
z
" clip-path="url(#p4a5cffb9ab)" style="fill: #ebeced"/>
   </g>
   <g id="patch_146">
    <path d="M 382.793378 47.224983 
L 426.827921 47.224983 
L 426.827921 43.631126 
L 382.793378 43.631126 
z
" clip-path="url(#p4a5cffb9ab)" style="fill: #ebeced"/>
   </g>
   <g id="patch_147">
    <path d="M 382.793378 97.139659 
L 426.827921 97.139659 
L 426.827921 93.545802 
L 382.793378 93.545802 
z
" clip-path="url(#p4a5cffb9ab)" style="fill: #ebeced"/>
   </g>
   <g id="patch_148">
    <path d="M 382.793378 52.416109 
L 426.827921 52.416109 
L 426.827921 48.822253 
L 382.793378 48.822253 
z
" clip-path="url(#p4a5cffb9ab)" style="fill: #ebeced"/>
   </g>
   <g id="patch_149">
    <path d="M 382.793378 102.330785 
L 426.827921 102.330785 
L 426.827921 98.736928 
L 382.793378 98.736928 
z
" clip-path="url(#p4a5cffb9ab)" style="fill: #ebeced"/>
   </g>
   <g id="patch_150">
    <path d="M 382.793378 57.607236 
L 426.827921 57.607236 
L 426.827921 54.013379 
L 382.793378 54.013379 
z
" clip-path="url(#p4a5cffb9ab)" style="fill: #ebeced"/>
   </g>
   <g id="patch_151">
    <path d="M 382.793378 107.521911 
L 426.827921 107.521911 
L 426.827921 103.928055 
L 382.793378 103.928055 
z
" clip-path="url(#p4a5cffb9ab)" style="fill: #ebeced"/>
   </g>
   <g id="patch_152">
    <path d="M 382.793378 62.798362 
L 426.827921 62.798362 
L 426.827921 59.204505 
L 382.793378 59.204505 
z
" clip-path="url(#p4a5cffb9ab)" style="fill: #ebeced"/>
   </g>
   <g id="patch_153">
    <path d="M 382.793378 112.713038 
L 426.827921 112.713038 
L 426.827921 109.119181 
L 382.793378 109.119181 
z
" clip-path="url(#p4a5cffb9ab)" style="fill: #ebeced"/>
   </g>
   <g id="patch_154">
    <path d="M 382.793378 12.883686 
L 426.827921 12.883686 
L 426.827921 9.289829 
L 382.793378 9.289829 
z
" clip-path="url(#p4a5cffb9ab)" style="fill: #ebeced"/>
   </g>
   <g id="patch_155">
    <path d="M 430.742102 21.269352 
L 474.776645 21.269352 
L 474.776645 17.675495 
L 430.742102 17.675495 
z
" clip-path="url(#p4a5cffb9ab)" style="fill: #ebeced"/>
   </g>
   <g id="patch_156">
    <path d="M 430.742102 71.184027 
L 474.776645 71.184027 
L 474.776645 67.590171 
L 430.742102 67.590171 
z
" clip-path="url(#p4a5cffb9ab)" style="fill: #ebeced"/>
   </g>
   <g id="patch_157">
    <path d="M 430.742102 26.460478 
L 474.776645 26.460478 
L 474.776645 22.866621 
L 430.742102 22.866621 
z
" clip-path="url(#p4a5cffb9ab)" style="fill: #ebeced"/>
   </g>
   <g id="patch_158">
    <path d="M 430.742102 76.375154 
L 474.776645 76.375154 
L 474.776645 72.781297 
L 430.742102 72.781297 
z
" clip-path="url(#p4a5cffb9ab)" style="fill: #ebeced"/>
   </g>
   <g id="patch_159">
    <path d="M 430.742102 31.651604 
L 474.776645 31.651604 
L 474.776645 28.057748 
L 430.742102 28.057748 
z
" clip-path="url(#p4a5cffb9ab)" style="fill: #ebeced"/>
   </g>
   <g id="patch_160">
    <path d="M 430.742102 81.56628 
L 474.776645 81.56628 
L 474.776645 77.972423 
L 430.742102 77.972423 
z
" clip-path="url(#p4a5cffb9ab)" style="fill: #ebeced"/>
   </g>
   <g id="patch_161">
    <path d="M 430.742102 36.842731 
L 474.776645 36.842731 
L 474.776645 33.248874 
L 430.742102 33.248874 
z
" clip-path="url(#p4a5cffb9ab)" style="fill: #ebeced"/>
   </g>
   <g id="patch_162">
    <path d="M 430.742102 86.757406 
L 474.776645 86.757406 
L 474.776645 83.16355 
L 430.742102 83.16355 
z
" clip-path="url(#p4a5cffb9ab)" style="fill: #ebeced"/>
   </g>
   <g id="patch_163">
    <path d="M 430.742102 42.033857 
L 474.776645 42.033857 
L 474.776645 38.44 
L 430.742102 38.44 
z
" clip-path="url(#p4a5cffb9ab)" style="fill: #ebeced"/>
   </g>
   <g id="patch_164">
    <path d="M 430.742102 91.948533 
L 474.776645 91.948533 
L 474.776645 88.354676 
L 430.742102 88.354676 
z
" clip-path="url(#p4a5cffb9ab)" style="fill: #ebeced"/>
   </g>
   <g id="patch_165">
    <path d="M 430.742102 47.224983 
L 474.776645 47.224983 
L 474.776645 43.631126 
L 430.742102 43.631126 
z
" clip-path="url(#p4a5cffb9ab)" style="fill: #ebeced"/>
   </g>
   <g id="patch_166">
    <path d="M 430.742102 97.139659 
L 474.776645 97.139659 
L 474.776645 93.545802 
L 430.742102 93.545802 
z
" clip-path="url(#p4a5cffb9ab)" style="fill: #ebeced"/>
   </g>
   <g id="patch_167">
    <path d="M 430.742102 52.416109 
L 474.776645 52.416109 
L 474.776645 48.822253 
L 430.742102 48.822253 
z
" clip-path="url(#p4a5cffb9ab)" style="fill: #ebeced"/>
   </g>
   <g id="patch_168">
    <path d="M 430.742102 102.330785 
L 474.776645 102.330785 
L 474.776645 98.736928 
L 430.742102 98.736928 
z
" clip-path="url(#p4a5cffb9ab)" style="fill: #ebeced"/>
   </g>
   <g id="patch_169">
    <path d="M 430.742102 57.607236 
L 474.776645 57.607236 
L 474.776645 54.013379 
L 430.742102 54.013379 
z
" clip-path="url(#p4a5cffb9ab)" style="fill: #ebeced"/>
   </g>
   <g id="patch_170">
    <path d="M 430.742102 107.521911 
L 474.776645 107.521911 
L 474.776645 103.928055 
L 430.742102 103.928055 
z
" clip-path="url(#p4a5cffb9ab)" style="fill: #ebeced"/>
   </g>
   <g id="patch_171">
    <path d="M 430.742102 62.798362 
L 474.776645 62.798362 
L 474.776645 59.204505 
L 430.742102 59.204505 
z
" clip-path="url(#p4a5cffb9ab)" style="fill: #ebeced"/>
   </g>
   <g id="patch_172">
    <path d="M 430.742102 112.713038 
L 474.776645 112.713038 
L 474.776645 109.119181 
L 430.742102 109.119181 
z
" clip-path="url(#p4a5cffb9ab)" style="fill: #ebeced"/>
   </g>
   <g id="patch_173">
    <path d="M 430.742102 12.883686 
L 474.776645 12.883686 
L 474.776645 9.289829 
L 430.742102 9.289829 
z
" clip-path="url(#p4a5cffb9ab)" style="fill: #ebeced"/>
   </g>
   <g id="patch_174">
    <path d="M 478.690827 21.269352 
L 522.72537 21.269352 
L 522.72537 17.675495 
L 478.690827 17.675495 
z
" clip-path="url(#p4a5cffb9ab)" style="fill: #ebeced"/>
   </g>
   <g id="patch_175">
    <path d="M 478.690827 71.184027 
L 522.72537 71.184027 
L 522.72537 67.590171 
L 478.690827 67.590171 
z
" clip-path="url(#p4a5cffb9ab)" style="fill: #ebeced"/>
   </g>
   <g id="patch_176">
    <path d="M 478.690827 26.460478 
L 522.72537 26.460478 
L 522.72537 22.866621 
L 478.690827 22.866621 
z
" clip-path="url(#p4a5cffb9ab)" style="fill: #ebeced"/>
   </g>
   <g id="patch_177">
    <path d="M 478.690827 76.375154 
L 522.72537 76.375154 
L 522.72537 72.781297 
L 478.690827 72.781297 
z
" clip-path="url(#p4a5cffb9ab)" style="fill: #ebeced"/>
   </g>
   <g id="patch_178">
    <path d="M 478.690827 31.651604 
L 522.72537 31.651604 
L 522.72537 28.057748 
L 478.690827 28.057748 
z
" clip-path="url(#p4a5cffb9ab)" style="fill: #ebeced"/>
   </g>
   <g id="patch_179">
    <path d="M 478.690827 81.56628 
L 522.72537 81.56628 
L 522.72537 77.972423 
L 478.690827 77.972423 
z
" clip-path="url(#p4a5cffb9ab)" style="fill: #ebeced"/>
   </g>
   <g id="patch_180">
    <path d="M 478.690827 36.842731 
L 522.72537 36.842731 
L 522.72537 33.248874 
L 478.690827 33.248874 
z
" clip-path="url(#p4a5cffb9ab)" style="fill: #ebeced"/>
   </g>
   <g id="patch_181">
    <path d="M 478.690827 86.757406 
L 522.72537 86.757406 
L 522.72537 83.16355 
L 478.690827 83.16355 
z
" clip-path="url(#p4a5cffb9ab)" style="fill: #ebeced"/>
   </g>
   <g id="patch_182">
    <path d="M 478.690827 42.033857 
L 522.72537 42.033857 
L 522.72537 38.44 
L 478.690827 38.44 
z
" clip-path="url(#p4a5cffb9ab)" style="fill: #ebeced"/>
   </g>
   <g id="patch_183">
    <path d="M 478.690827 91.948533 
L 522.72537 91.948533 
L 522.72537 88.354676 
L 478.690827 88.354676 
z
" clip-path="url(#p4a5cffb9ab)" style="fill: #ebeced"/>
   </g>
   <g id="patch_184">
    <path d="M 478.690827 47.224983 
L 522.72537 47.224983 
L 522.72537 43.631126 
L 478.690827 43.631126 
z
" clip-path="url(#p4a5cffb9ab)" style="fill: #ebeced"/>
   </g>
   <g id="patch_185">
    <path d="M 478.690827 97.139659 
L 522.72537 97.139659 
L 522.72537 93.545802 
L 478.690827 93.545802 
z
" clip-path="url(#p4a5cffb9ab)" style="fill: #ebeced"/>
   </g>
   <g id="patch_186">
    <path d="M 478.690827 52.416109 
L 522.72537 52.416109 
L 522.72537 48.822253 
L 478.690827 48.822253 
z
" clip-path="url(#p4a5cffb9ab)" style="fill: #ebeced"/>
   </g>
   <g id="patch_187">
    <path d="M 478.690827 102.330785 
L 522.72537 102.330785 
L 522.72537 98.736928 
L 478.690827 98.736928 
z
" clip-path="url(#p4a5cffb9ab)" style="fill: #ebeced"/>
   </g>
   <g id="patch_188">
    <path d="M 478.690827 57.607236 
L 522.72537 57.607236 
L 522.72537 54.013379 
L 478.690827 54.013379 
z
" clip-path="url(#p4a5cffb9ab)" style="fill: #ebeced"/>
   </g>
   <g id="patch_189">
    <path d="M 478.690827 107.521911 
L 522.72537 107.521911 
L 522.72537 103.928055 
L 478.690827 103.928055 
z
" clip-path="url(#p4a5cffb9ab)" style="fill: #ebeced"/>
   </g>
   <g id="patch_190">
    <path d="M 478.690827 62.798362 
L 522.72537 62.798362 
L 522.72537 59.204505 
L 478.690827 59.204505 
z
" clip-path="url(#p4a5cffb9ab)" style="fill: #ebeced"/>
   </g>
   <g id="patch_191">
    <path d="M 478.690827 112.713038 
L 522.72537 112.713038 
L 522.72537 109.119181 
L 478.690827 109.119181 
z
" clip-path="url(#p4a5cffb9ab)" style="fill: #ebeced"/>
   </g>
   <g id="patch_192">
    <path d="M 478.690827 12.883686 
L 522.72537 12.883686 
L 522.72537 9.289829 
L 478.690827 9.289829 
z
" clip-path="url(#p4a5cffb9ab)" style="fill: #ebeced"/>
   </g>
   <g id="patch_193">
    <path d="M 526.639551 21.269352 
L 570.674094 21.269352 
L 570.674094 17.675495 
L 526.639551 17.675495 
z
" clip-path="url(#p4a5cffb9ab)" style="fill: #ebeced"/>
   </g>
   <g id="patch_194">
    <path d="M 526.639551 71.184027 
L 570.674094 71.184027 
L 570.674094 67.590171 
L 526.639551 67.590171 
z
" clip-path="url(#p4a5cffb9ab)" style="fill: #ebeced"/>
   </g>
   <g id="patch_195">
    <path d="M 526.639551 26.460478 
L 570.674094 26.460478 
L 570.674094 22.866621 
L 526.639551 22.866621 
z
" clip-path="url(#p4a5cffb9ab)" style="fill: #ebeced"/>
   </g>
   <g id="patch_196">
    <path d="M 526.639551 76.375154 
L 570.674094 76.375154 
L 570.674094 72.781297 
L 526.639551 72.781297 
z
" clip-path="url(#p4a5cffb9ab)" style="fill: #ebeced"/>
   </g>
   <g id="patch_197">
    <path d="M 526.639551 31.651604 
L 570.674094 31.651604 
L 570.674094 28.057748 
L 526.639551 28.057748 
z
" clip-path="url(#p4a5cffb9ab)" style="fill: #ebeced"/>
   </g>
   <g id="patch_198">
    <path d="M 526.639551 81.56628 
L 570.674094 81.56628 
L 570.674094 77.972423 
L 526.639551 77.972423 
z
" clip-path="url(#p4a5cffb9ab)" style="fill: #ebeced"/>
   </g>
   <g id="patch_199">
    <path d="M 526.639551 36.842731 
L 570.674094 36.842731 
L 570.674094 33.248874 
L 526.639551 33.248874 
z
" clip-path="url(#p4a5cffb9ab)" style="fill: #ebeced"/>
   </g>
   <g id="patch_200">
    <path d="M 526.639551 86.757406 
L 570.674094 86.757406 
L 570.674094 83.16355 
L 526.639551 83.16355 
z
" clip-path="url(#p4a5cffb9ab)" style="fill: #ebeced"/>
   </g>
   <g id="patch_201">
    <path d="M 526.639551 42.033857 
L 570.674094 42.033857 
L 570.674094 38.44 
L 526.639551 38.44 
z
" clip-path="url(#p4a5cffb9ab)" style="fill: #ebeced"/>
   </g>
   <g id="patch_202">
    <path d="M 526.639551 91.948533 
L 570.674094 91.948533 
L 570.674094 88.354676 
L 526.639551 88.354676 
z
" clip-path="url(#p4a5cffb9ab)" style="fill: #ebeced"/>
   </g>
   <g id="patch_203">
    <path d="M 526.639551 47.224983 
L 570.674094 47.224983 
L 570.674094 43.631126 
L 526.639551 43.631126 
z
" clip-path="url(#p4a5cffb9ab)" style="fill: #ebeced"/>
   </g>
   <g id="patch_204">
    <path d="M 526.639551 97.139659 
L 570.674094 97.139659 
L 570.674094 93.545802 
L 526.639551 93.545802 
z
" clip-path="url(#p4a5cffb9ab)" style="fill: #ebeced"/>
   </g>
   <g id="patch_205">
    <path d="M 526.639551 52.416109 
L 570.674094 52.416109 
L 570.674094 48.822253 
L 526.639551 48.822253 
z
" clip-path="url(#p4a5cffb9ab)" style="fill: #ebeced"/>
   </g>
   <g id="patch_206">
    <path d="M 526.639551 102.330785 
L 570.674094 102.330785 
L 570.674094 98.736928 
L 526.639551 98.736928 
z
" clip-path="url(#p4a5cffb9ab)" style="fill: #ebeced"/>
   </g>
   <g id="patch_207">
    <path d="M 526.639551 57.607236 
L 570.674094 57.607236 
L 570.674094 54.013379 
L 526.639551 54.013379 
z
" clip-path="url(#p4a5cffb9ab)" style="fill: #ebeced"/>
   </g>
   <g id="patch_208">
    <path d="M 526.639551 107.521911 
L 570.674094 107.521911 
L 570.674094 103.928055 
L 526.639551 103.928055 
z
" clip-path="url(#p4a5cffb9ab)" style="fill: #ebeced"/>
   </g>
   <g id="patch_209">
    <path d="M 526.639551 62.798362 
L 570.674094 62.798362 
L 570.674094 59.204505 
L 526.639551 59.204505 
z
" clip-path="url(#p4a5cffb9ab)" style="fill: #ebeced"/>
   </g>
   <g id="patch_210">
    <path d="M 526.639551 112.713038 
L 570.674094 112.713038 
L 570.674094 109.119181 
L 526.639551 109.119181 
z
" clip-path="url(#p4a5cffb9ab)" style="fill: #ebeced"/>
   </g>
   <g id="patch_211">
    <path d="M 526.639551 12.883686 
L 570.674094 12.883686 
L 570.674094 9.289829 
L 526.639551 9.289829 
z
" clip-path="url(#p4a5cffb9ab)" style="fill: #ebeced"/>
   </g>
   <g id="patch_212">
    <path d="M 574.588276 21.269352 
L 618.622819 21.269352 
L 618.622819 17.675495 
L 574.588276 17.675495 
z
" clip-path="url(#p4a5cffb9ab)" style="fill: #ebeced"/>
   </g>
   <g id="patch_213">
    <path d="M 574.588276 71.184027 
L 618.622819 71.184027 
L 618.622819 67.590171 
L 574.588276 67.590171 
z
" clip-path="url(#p4a5cffb9ab)" style="fill: #ebeced"/>
   </g>
   <g id="patch_214">
    <path d="M 574.588276 26.460478 
L 618.622819 26.460478 
L 618.622819 22.866621 
L 574.588276 22.866621 
z
" clip-path="url(#p4a5cffb9ab)" style="fill: #ebeced"/>
   </g>
   <g id="patch_215">
    <path d="M 574.588276 76.375154 
L 618.622819 76.375154 
L 618.622819 72.781297 
L 574.588276 72.781297 
z
" clip-path="url(#p4a5cffb9ab)" style="fill: #ebeced"/>
   </g>
   <g id="patch_216">
    <path d="M 574.588276 31.651604 
L 618.622819 31.651604 
L 618.622819 28.057748 
L 574.588276 28.057748 
z
" clip-path="url(#p4a5cffb9ab)" style="fill: #ebeced"/>
   </g>
   <g id="patch_217">
    <path d="M 574.588276 81.56628 
L 618.622819 81.56628 
L 618.622819 77.972423 
L 574.588276 77.972423 
z
" clip-path="url(#p4a5cffb9ab)" style="fill: #ebeced"/>
   </g>
   <g id="patch_218">
    <path d="M 574.588276 36.842731 
L 618.622819 36.842731 
L 618.622819 33.248874 
L 574.588276 33.248874 
z
" clip-path="url(#p4a5cffb9ab)" style="fill: #ebeced"/>
   </g>
   <g id="patch_219">
    <path d="M 574.588276 86.757406 
L 618.622819 86.757406 
L 618.622819 83.16355 
L 574.588276 83.16355 
z
" clip-path="url(#p4a5cffb9ab)" style="fill: #ebeced"/>
   </g>
   <g id="patch_220">
    <path d="M 574.588276 42.033857 
L 618.622819 42.033857 
L 618.622819 38.44 
L 574.588276 38.44 
z
" clip-path="url(#p4a5cffb9ab)" style="fill: #ebeced"/>
   </g>
   <g id="patch_221">
    <path d="M 574.588276 91.948533 
L 618.622819 91.948533 
L 618.622819 88.354676 
L 574.588276 88.354676 
z
" clip-path="url(#p4a5cffb9ab)" style="fill: #ebeced"/>
   </g>
   <g id="patch_222">
    <path d="M 574.588276 47.224983 
L 618.622819 47.224983 
L 618.622819 43.631126 
L 574.588276 43.631126 
z
" clip-path="url(#p4a5cffb9ab)" style="fill: #ebeced"/>
   </g>
   <g id="patch_223">
    <path d="M 574.588276 97.139659 
L 618.622819 97.139659 
L 618.622819 93.545802 
L 574.588276 93.545802 
z
" clip-path="url(#p4a5cffb9ab)" style="fill: #ebeced"/>
   </g>
   <g id="patch_224">
    <path d="M 574.588276 52.416109 
L 618.622819 52.416109 
L 618.622819 48.822253 
L 574.588276 48.822253 
z
" clip-path="url(#p4a5cffb9ab)" style="fill: #ebeced"/>
   </g>
   <g id="patch_225">
    <path d="M 574.588276 102.330785 
L 618.622819 102.330785 
L 618.622819 98.736928 
L 574.588276 98.736928 
z
" clip-path="url(#p4a5cffb9ab)" style="fill: #ebeced"/>
   </g>
   <g id="patch_226">
    <path d="M 574.588276 57.607236 
L 618.622819 57.607236 
L 618.622819 54.013379 
L 574.588276 54.013379 
z
" clip-path="url(#p4a5cffb9ab)" style="fill: #ebeced"/>
   </g>
   <g id="patch_227">
    <path d="M 574.588276 107.521911 
L 618.622819 107.521911 
L 618.622819 103.928055 
L 574.588276 103.928055 
z
" clip-path="url(#p4a5cffb9ab)" style="fill: #ebeced"/>
   </g>
   <g id="patch_228">
    <path d="M 574.588276 62.798362 
L 618.622819 62.798362 
L 618.622819 59.204505 
L 574.588276 59.204505 
z
" clip-path="url(#p4a5cffb9ab)" style="fill: #ebeced"/>
   </g>
   <g id="patch_229">
    <path d="M 574.588276 112.713038 
L 618.622819 112.713038 
L 618.622819 109.119181 
L 574.588276 109.119181 
z
" clip-path="url(#p4a5cffb9ab)" style="fill: #ebeced"/>
   </g>
   <g id="patch_230">
    <path d="M 574.588276 12.883686 
L 618.622819 12.883686 
L 618.622819 9.289829 
L 574.588276 9.289829 
z
" clip-path="url(#p4a5cffb9ab)" style="fill: #ebeced"/>
   </g>
   <g id="matplotlib.axis_1"/>
   <g id="matplotlib.axis_2"/>
   <g id="patch_231">
    <path d="M 47.152306 42.033857 
L 91.186849 42.033857 
L 91.186849 38.44 
L 47.152306 38.44 
z
" clip-path="url(#p4a5cffb9ab)" style="fill: #e36aae"/>
   </g>
   <g id="patch_232">
    <path d="M 47.152306 91.948533 
L 91.186849 91.948533 
L 91.186849 88.354676 
L 47.152306 88.354676 
z
" clip-path="url(#p4a5cffb9ab)" style="fill: #e36aae"/>
   </g>
   <g id="patch_233">
    <path d="M 95.101031 57.607236 
L 139.135574 57.607236 
L 139.135574 54.013379 
L 95.101031 54.013379 
z
" clip-path="url(#p4a5cffb9ab)" style="fill: #dbdc8d"/>
   </g>
   <g id="patch_234">
    <path d="M 95.101031 107.521911 
L 139.135574 107.521911 
L 139.135574 103.928055 
L 95.101031 103.928055 
z
" clip-path="url(#p4a5cffb9ab)" style="fill: #dbdc8d"/>
   </g>
   <g id="patch_235">
    <path d="M 143.049755 42.033857 
L 187.084298 42.033857 
L 187.084298 38.44 
L 143.049755 38.44 
z
" clip-path="url(#p4a5cffb9ab)" style="fill: #e36aae"/>
   </g>
   <g id="patch_236">
    <path d="M 143.049755 91.948533 
L 187.084298 91.948533 
L 187.084298 88.354676 
L 143.049755 88.354676 
z
" clip-path="url(#p4a5cffb9ab)" style="fill: #e36aae"/>
   </g>
   <g id="patch_237">
    <path d="M 192.221661 21.269352 
L 192.833252 21.269352 
L 192.833252 17.675495 
L 192.221661 17.675495 
z
" clip-path="url(#p4a5cffb9ab)" style="fill: #1f5aa6"/>
   </g>
   <g id="patch_238">
    <path d="M 194.423389 21.269352 
L 198.826843 21.269352 
L 198.826843 17.675495 
L 194.423389 17.675495 
z
" clip-path="url(#p4a5cffb9ab)" style="fill: #1f5aa6"/>
   </g>
   <g id="patch_239">
    <path d="M 190.99848 71.184027 
L 198.826843 71.184027 
L 198.826843 67.590171 
L 190.99848 67.590171 
z
" clip-path="url(#p4a5cffb9ab)" style="fill: #1f5aa6"/>
   </g>
   <g id="patch_240">
    <path d="M 190.99848 57.607236 
L 192.221661 57.607236 
L 192.221661 54.013379 
L 190.99848 54.013379 
z
" clip-path="url(#p4a5cffb9ab)" style="fill: #dbdc8d"/>
   </g>
   <g id="patch_241">
    <path d="M 192.833252 57.607236 
L 194.423389 57.607236 
L 194.423389 54.013379 
L 192.833252 54.013379 
z
" clip-path="url(#p4a5cffb9ab)" style="fill: #dbdc8d"/>
   </g>
   <g id="patch_242">
    <path d="M 198.826843 57.607236 
L 235.033023 57.607236 
L 235.033023 54.013379 
L 198.826843 54.013379 
z
" clip-path="url(#p4a5cffb9ab)" style="fill: #dbdc8d"/>
   </g>
   <g id="patch_243">
    <path d="M 198.826843 107.521911 
L 235.033023 107.521911 
L 235.033023 103.928055 
L 198.826843 103.928055 
z
" clip-path="url(#p4a5cffb9ab)" style="fill: #dbdc8d"/>
   </g>
   <g id="patch_244">
    <path d="M 190.99848 12.883686 
L 192.221661 12.883686 
L 192.221661 9.289829 
L 190.99848 9.289829 
z
" clip-path="url(#p4a5cffb9ab)" style="fill: #1f5aa6"/>
   </g>
   <g id="patch_245">
    <path d="M 192.833252 12.883686 
L 194.423389 12.883686 
L 194.423389 9.289829 
L 192.833252 9.289829 
z
" clip-path="url(#p4a5cffb9ab)" style="fill: #1f5aa6"/>
   </g>
   <g id="patch_246">
    <path d="M 277.722066 21.269352 
L 282.981747 21.269352 
L 282.981747 17.675495 
L 277.722066 17.675495 
z
" clip-path="url(#p4a5cffb9ab)" style="fill: #1f5aa6"/>
   </g>
   <g id="patch_247">
    <path d="M 271.606157 71.184027 
L 274.174839 71.184027 
L 274.174839 67.590171 
L 271.606157 67.590171 
z
" clip-path="url(#p4a5cffb9ab)" style="fill: #1f5aa6"/>
   </g>
   <g id="patch_248">
    <path d="M 277.232793 71.184027 
L 277.477429 71.184027 
L 277.477429 67.590171 
L 277.232793 67.590171 
z
" clip-path="url(#p4a5cffb9ab)" style="fill: #1f5aa6"/>
   </g>
   <g id="patch_249">
    <path d="M 277.599747 71.184027 
L 282.981747 71.184027 
L 282.981747 67.590171 
L 277.599747 67.590171 
z
" clip-path="url(#p4a5cffb9ab)" style="fill: #1f5aa6"/>
   </g>
   <g id="patch_250">
    <path d="M 241.27125 97.139659 
L 241.393568 97.139659 
L 241.393568 93.545802 
L 241.27125 93.545802 
z
" clip-path="url(#p4a5cffb9ab)" style="fill: #a7a9ac"/>
   </g>
   <g id="patch_251">
    <path d="M 241.515886 97.139659 
L 242.005159 97.139659 
L 242.005159 93.545802 
L 241.515886 93.545802 
z
" clip-path="url(#p4a5cffb9ab)" style="fill: #a7a9ac"/>
   </g>
   <g id="patch_252">
    <path d="M 242.249795 97.139659 
L 242.861386 97.139659 
L 242.861386 93.545802 
L 242.249795 93.545802 
z
" clip-path="url(#p4a5cffb9ab)" style="fill: #a7a9ac"/>
   </g>
   <g id="patch_253">
    <path d="M 272.584702 57.607236 
L 277.722066 57.607236 
L 277.722066 54.013379 
L 272.584702 54.013379 
z
" clip-path="url(#p4a5cffb9ab)" style="fill: #dbdc8d"/>
   </g>
   <g id="patch_254">
    <path d="M 274.174839 107.521911 
L 277.232793 107.521911 
L 277.232793 103.928055 
L 274.174839 103.928055 
z
" clip-path="url(#p4a5cffb9ab)" style="fill: #dbdc8d"/>
   </g>
   <g id="patch_255">
    <path d="M 277.477429 107.521911 
L 277.599747 107.521911 
L 277.599747 103.928055 
L 277.477429 103.928055 
z
" clip-path="url(#p4a5cffb9ab)" style="fill: #dbdc8d"/>
   </g>
   <g id="patch_256">
    <path d="M 238.947204 62.798362 
L 272.584702 62.798362 
L 272.584702 59.204505 
L 238.947204 59.204505 
z
" clip-path="url(#p4a5cffb9ab)" style="fill: #9edae6"/>
   </g>
   <g id="patch_257">
    <path d="M 238.947204 112.713038 
L 241.27125 112.713038 
L 241.27125 109.119181 
L 238.947204 109.119181 
z
" clip-path="url(#p4a5cffb9ab)" style="fill: #9edae6"/>
   </g>
   <g id="patch_258">
    <path d="M 241.393568 112.713038 
L 241.515886 112.713038 
L 241.515886 109.119181 
L 241.393568 109.119181 
z
" clip-path="url(#p4a5cffb9ab)" style="fill: #9edae6"/>
   </g>
   <g id="patch_259">
    <path d="M 242.005159 112.713038 
L 242.249795 112.713038 
L 242.249795 109.119181 
L 242.005159 109.119181 
z
" clip-path="url(#p4a5cffb9ab)" style="fill: #9edae6"/>
   </g>
   <g id="patch_260">
    <path d="M 242.861386 112.713038 
L 271.606157 112.713038 
L 271.606157 109.119181 
L 242.861386 109.119181 
z
" clip-path="url(#p4a5cffb9ab)" style="fill: #9edae6"/>
   </g>
   <g id="patch_261">
    <path d="M 241.27125 12.883686 
L 241.393568 12.883686 
L 241.393568 9.289829 
L 241.27125 9.289829 
z
" clip-path="url(#p4a5cffb9ab)" style="fill: #a7a9ac"/>
   </g>
   <g id="patch_262">
    <path d="M 241.515886 12.883686 
L 242.005159 12.883686 
L 242.005159 9.289829 
L 241.515886 9.289829 
z
" clip-path="url(#p4a5cffb9ab)" style="fill: #a7a9ac"/>
   </g>
   <g id="patch_263">
    <path d="M 242.249795 12.883686 
L 242.861386 12.883686 
L 242.861386 9.289829 
L 242.249795 9.289829 
z
" clip-path="url(#p4a5cffb9ab)" style="fill: #a7a9ac"/>
   </g>
   <g id="patch_264">
    <path d="M 271.606157 12.883686 
L 274.174839 12.883686 
L 274.174839 9.289829 
L 271.606157 9.289829 
z
" clip-path="url(#p4a5cffb9ab)" style="fill: #1f5aa6"/>
   </g>
   <g id="patch_265">
    <path d="M 277.232793 12.883686 
L 277.477429 12.883686 
L 277.477429 9.289829 
L 277.232793 9.289829 
z
" clip-path="url(#p4a5cffb9ab)" style="fill: #1f5aa6"/>
   </g>
   <g id="patch_266">
    <path d="M 277.599747 12.883686 
L 277.722066 12.883686 
L 277.722066 9.289829 
L 277.599747 9.289829 
z
" clip-path="url(#p4a5cffb9ab)" style="fill: #1f5aa6"/>
   </g>
   <g id="patch_267">
    <path d="M 306.711473 21.269352 
L 306.833791 21.269352 
L 306.833791 17.675495 
L 306.711473 17.675495 
z
" clip-path="url(#p4a5cffb9ab)" style="fill: #1f5aa6"/>
   </g>
   <g id="patch_268">
    <path d="M 318.209382 71.184027 
L 321.145018 71.184027 
L 321.145018 67.590171 
L 318.209382 67.590171 
z
" clip-path="url(#p4a5cffb9ab)" style="fill: #1f5aa6"/>
   </g>
   <g id="patch_269">
    <path d="M 321.267336 71.184027 
L 321.511972 71.184027 
L 321.511972 67.590171 
L 321.267336 67.590171 
z
" clip-path="url(#p4a5cffb9ab)" style="fill: #1f5aa6"/>
   </g>
   <g id="patch_270">
    <path d="M 326.649336 57.607236 
L 330.930472 57.607236 
L 330.930472 54.013379 
L 326.649336 54.013379 
z
" clip-path="url(#p4a5cffb9ab)" style="fill: #dbdc8d"/>
   </g>
   <g id="patch_271">
    <path d="M 286.895929 62.798362 
L 306.711473 62.798362 
L 306.711473 59.204505 
L 286.895929 59.204505 
z
" clip-path="url(#p4a5cffb9ab)" style="fill: #9edae6"/>
   </g>
   <g id="patch_272">
    <path d="M 306.833791 62.798362 
L 326.649336 62.798362 
L 326.649336 59.204505 
L 306.833791 59.204505 
z
" clip-path="url(#p4a5cffb9ab)" style="fill: #9edae6"/>
   </g>
   <g id="patch_273">
    <path d="M 286.895929 112.713038 
L 318.209382 112.713038 
L 318.209382 109.119181 
L 286.895929 109.119181 
z
" clip-path="url(#p4a5cffb9ab)" style="fill: #9edae6"/>
   </g>
   <g id="patch_274">
    <path d="M 321.145018 112.713038 
L 321.267336 112.713038 
L 321.267336 109.119181 
L 321.145018 109.119181 
z
" clip-path="url(#p4a5cffb9ab)" style="fill: #9edae6"/>
   </g>
   <g id="patch_275">
    <path d="M 321.511972 112.713038 
L 330.930472 112.713038 
L 330.930472 109.119181 
L 321.511972 109.119181 
z
" clip-path="url(#p4a5cffb9ab)" style="fill: #9edae6"/>
   </g>
   <g id="patch_276">
    <path d="M 306.711473 12.883686 
L 306.833791 12.883686 
L 306.833791 9.289829 
L 306.711473 9.289829 
z
" clip-path="url(#p4a5cffb9ab)" style="fill: #9edae6"/>
   </g>
   <g id="patch_277">
    <path d="M 318.209382 12.883686 
L 321.145018 12.883686 
L 321.145018 9.289829 
L 318.209382 9.289829 
z
" clip-path="url(#p4a5cffb9ab)" style="fill: #1f5aa6"/>
   </g>
   <g id="patch_278">
    <path d="M 321.267336 12.883686 
L 321.511972 12.883686 
L 321.511972 9.289829 
L 321.267336 9.289829 
z
" clip-path="url(#p4a5cffb9ab)" style="fill: #1f5aa6"/>
   </g>
   <g id="patch_279">
    <path d="M 326.649336 12.883686 
L 330.930472 12.883686 
L 330.930472 9.289829 
L 326.649336 9.289829 
z
" clip-path="url(#p4a5cffb9ab)" style="fill: #9edae6"/>
   </g>
   <g id="patch_280">
    <path d="M 361.265379 71.184027 
L 363.100152 71.184027 
L 363.100152 67.590171 
L 361.265379 67.590171 
z
" clip-path="url(#p4a5cffb9ab)" style="fill: #1f5aa6"/>
   </g>
   <g id="patch_281">
    <path d="M 366.158106 71.184027 
L 370.072288 71.184027 
L 370.072288 67.590171 
L 366.158106 67.590171 
z
" clip-path="url(#p4a5cffb9ab)" style="fill: #1f5aa6"/>
   </g>
   <g id="patch_282">
    <path d="M 366.647379 42.033857 
L 378.879196 42.033857 
L 378.879196 38.44 
L 366.647379 38.44 
z
" clip-path="url(#p4a5cffb9ab)" style="fill: #e36aae"/>
   </g>
   <g id="patch_283">
    <path d="M 370.072288 91.948533 
L 378.879196 91.948533 
L 378.879196 88.354676 
L 370.072288 88.354676 
z
" clip-path="url(#p4a5cffb9ab)" style="fill: #e36aae"/>
   </g>
   <g id="patch_284">
    <path d="M 334.844653 57.607236 
L 366.647379 57.607236 
L 366.647379 54.013379 
L 334.844653 54.013379 
z
" clip-path="url(#p4a5cffb9ab)" style="fill: #dbdc8d"/>
   </g>
   <g id="patch_285">
    <path d="M 334.844653 107.521911 
L 361.265379 107.521911 
L 361.265379 103.928055 
L 334.844653 103.928055 
z
" clip-path="url(#p4a5cffb9ab)" style="fill: #dbdc8d"/>
   </g>
   <g id="patch_286">
    <path d="M 363.100152 112.713038 
L 366.158106 112.713038 
L 366.158106 109.119181 
L 363.100152 109.119181 
z
" clip-path="url(#p4a5cffb9ab)" style="fill: #9edae6"/>
   </g>
   <g id="patch_287">
    <path d="M 361.265379 12.883686 
L 370.072288 12.883686 
L 370.072288 9.289829 
L 361.265379 9.289829 
z
" clip-path="url(#p4a5cffb9ab)" style="fill: #1f5aa6"/>
   </g>
   <g id="patch_288">
    <path d="M 390.621741 71.184027 
L 402.364286 71.184027 
L 402.364286 67.590171 
L 390.621741 67.590171 
z
" clip-path="url(#p4a5cffb9ab)" style="fill: #1f5aa6"/>
   </g>
   <g id="patch_289">
    <path d="M 382.793378 52.416109 
L 426.827921 52.416109 
L 426.827921 48.822253 
L 382.793378 48.822253 
z
" clip-path="url(#p4a5cffb9ab)" style="fill: #f2856e"/>
   </g>
   <g id="patch_290">
    <path d="M 382.793378 102.330785 
L 390.621741 102.330785 
L 390.621741 98.736928 
L 382.793378 98.736928 
z
" clip-path="url(#p4a5cffb9ab)" style="fill: #f2856e"/>
   </g>
   <g id="patch_291">
    <path d="M 402.364286 102.330785 
L 426.827921 102.330785 
L 426.827921 98.736928 
L 402.364286 98.736928 
z
" clip-path="url(#p4a5cffb9ab)" style="fill: #f2856e"/>
   </g>
   <g id="patch_292">
    <path d="M 390.621741 12.883686 
L 402.364286 12.883686 
L 402.364286 9.289829 
L 390.621741 9.289829 
z
" clip-path="url(#p4a5cffb9ab)" style="fill: #1f5aa6"/>
   </g>
   <g id="patch_293">
    <path d="M 430.742102 71.184027 
L 432.087602 71.184027 
L 432.087602 67.590171 
L 430.742102 67.590171 
z
" clip-path="url(#p4a5cffb9ab)" style="fill: #1f5aa6"/>
   </g>
   <g id="patch_294">
    <path d="M 462.42251 71.184027 
L 462.544828 71.184027 
L 462.544828 67.590171 
L 462.42251 67.590171 
z
" clip-path="url(#p4a5cffb9ab)" style="fill: #1f5aa6"/>
   </g>
   <g id="patch_295">
    <path d="M 462.667146 71.184027 
L 465.480464 71.184027 
L 465.480464 67.590171 
L 462.667146 67.590171 
z
" clip-path="url(#p4a5cffb9ab)" style="fill: #1f5aa6"/>
   </g>
   <g id="patch_296">
    <path d="M 465.602782 71.184027 
L 465.847419 71.184027 
L 465.847419 67.590171 
L 465.602782 67.590171 
z
" clip-path="url(#p4a5cffb9ab)" style="fill: #1f5aa6"/>
   </g>
   <g id="patch_297">
    <path d="M 430.742102 57.607236 
L 474.776645 57.607236 
L 474.776645 54.013379 
L 430.742102 54.013379 
z
" clip-path="url(#p4a5cffb9ab)" style="fill: #dbdc8d"/>
   </g>
   <g id="patch_298">
    <path d="M 432.087602 107.521911 
L 462.42251 107.521911 
L 462.42251 103.928055 
L 432.087602 103.928055 
z
" clip-path="url(#p4a5cffb9ab)" style="fill: #dbdc8d"/>
   </g>
   <g id="patch_299">
    <path d="M 462.544828 107.521911 
L 462.667146 107.521911 
L 462.667146 103.928055 
L 462.544828 103.928055 
z
" clip-path="url(#p4a5cffb9ab)" style="fill: #dbdc8d"/>
   </g>
   <g id="patch_300">
    <path d="M 465.480464 112.713038 
L 465.602782 112.713038 
L 465.602782 109.119181 
L 465.480464 109.119181 
z
" clip-path="url(#p4a5cffb9ab)" style="fill: #9edae6"/>
   </g>
   <g id="patch_301">
    <path d="M 465.847419 112.713038 
L 474.776645 112.713038 
L 474.776645 109.119181 
L 465.847419 109.119181 
z
" clip-path="url(#p4a5cffb9ab)" style="fill: #9edae6"/>
   </g>
   <g id="patch_302">
    <path d="M 430.742102 12.883686 
L 432.087602 12.883686 
L 432.087602 9.289829 
L 430.742102 9.289829 
z
" clip-path="url(#p4a5cffb9ab)" style="fill: #1f5aa6"/>
   </g>
   <g id="patch_303">
    <path d="M 462.42251 12.883686 
L 462.544828 12.883686 
L 462.544828 9.289829 
L 462.42251 9.289829 
z
" clip-path="url(#p4a5cffb9ab)" style="fill: #1f5aa6"/>
   </g>
   <g id="patch_304">
    <path d="M 462.667146 12.883686 
L 474.776645 12.883686 
L 474.776645 9.289829 
L 462.667146 9.289829 
z
" clip-path="url(#p4a5cffb9ab)" style="fill: #9edae6"/>
   </g>
   <g id="patch_305">
    <path d="M 506.090098 71.184027 
L 507.190962 71.184027 
L 507.190962 67.590171 
L 506.090098 67.590171 
z
" clip-path="url(#p4a5cffb9ab)" style="fill: #1f5aa6"/>
   </g>
   <g id="patch_306">
    <path d="M 480.5256 42.033857 
L 522.72537 42.033857 
L 522.72537 38.44 
L 480.5256 38.44 
z
" clip-path="url(#p4a5cffb9ab)" style="fill: #e36aae"/>
   </g>
   <g id="patch_307">
    <path d="M 478.690827 91.948533 
L 506.090098 91.948533 
L 506.090098 88.354676 
L 478.690827 88.354676 
z
" clip-path="url(#p4a5cffb9ab)" style="fill: #e36aae"/>
   </g>
   <g id="patch_308">
    <path d="M 507.190962 91.948533 
L 510.00428 91.948533 
L 510.00428 88.354676 
L 507.190962 88.354676 
z
" clip-path="url(#p4a5cffb9ab)" style="fill: #e36aae"/>
   </g>
   <g id="patch_309">
    <path d="M 478.690827 57.607236 
L 480.5256 57.607236 
L 480.5256 54.013379 
L 478.690827 54.013379 
z
" clip-path="url(#p4a5cffb9ab)" style="fill: #dbdc8d"/>
   </g>
   <g id="patch_310">
    <path d="M 510.00428 107.521911 
L 522.72537 107.521911 
L 522.72537 103.928055 
L 510.00428 103.928055 
z
" clip-path="url(#p4a5cffb9ab)" style="fill: #dbdc8d"/>
   </g>
   <g id="patch_311">
    <path d="M 478.690827 12.883686 
L 480.5256 12.883686 
L 480.5256 9.289829 
L 478.690827 9.289829 
z
" clip-path="url(#p4a5cffb9ab)" style="fill: #e36aae"/>
   </g>
   <g id="patch_312">
    <path d="M 506.090098 12.883686 
L 507.190962 12.883686 
L 507.190962 9.289829 
L 506.090098 9.289829 
z
" clip-path="url(#p4a5cffb9ab)" style="fill: #1f5aa6"/>
   </g>
   <g id="patch_313">
    <path d="M 510.00428 12.883686 
L 522.72537 12.883686 
L 522.72537 9.289829 
L 510.00428 9.289829 
z
" clip-path="url(#p4a5cffb9ab)" style="fill: #dbdc8d"/>
   </g>
   <g id="patch_314">
    <path d="M 570.551776 21.269352 
L 570.674094 21.269352 
L 570.674094 17.675495 
L 570.551776 17.675495 
z
" clip-path="url(#p4a5cffb9ab)" style="fill: #1f5aa6"/>
   </g>
   <g id="patch_315">
    <path d="M 531.776915 71.184027 
L 533.000097 71.184027 
L 533.000097 67.590171 
L 531.776915 67.590171 
z
" clip-path="url(#p4a5cffb9ab)" style="fill: #1f5aa6"/>
   </g>
   <g id="patch_316">
    <path d="M 534.467915 71.184027 
L 535.568778 71.184027 
L 535.568778 67.590171 
L 534.467915 67.590171 
z
" clip-path="url(#p4a5cffb9ab)" style="fill: #1f5aa6"/>
   </g>
   <g id="patch_317">
    <path d="M 535.691096 71.184027 
L 535.813415 71.184027 
L 535.813415 67.590171 
L 535.691096 67.590171 
z
" clip-path="url(#p4a5cffb9ab)" style="fill: #1f5aa6"/>
   </g>
   <g id="patch_318">
    <path d="M 544.864959 71.184027 
L 547.189005 71.184027 
L 547.189005 67.590171 
L 544.864959 67.590171 
z
" clip-path="url(#p4a5cffb9ab)" style="fill: #1f5aa6"/>
   </g>
   <g id="patch_319">
    <path d="M 547.311323 71.184027 
L 547.800596 71.184027 
L 547.800596 67.590171 
L 547.311323 67.590171 
z
" clip-path="url(#p4a5cffb9ab)" style="fill: #1f5aa6"/>
   </g>
   <g id="patch_320">
    <path d="M 548.045232 71.184027 
L 548.16755 71.184027 
L 548.16755 67.590171 
L 548.045232 67.590171 
z
" clip-path="url(#p4a5cffb9ab)" style="fill: #1f5aa6"/>
   </g>
   <g id="patch_321">
    <path d="M 558.809231 71.184027 
L 559.176186 71.184027 
L 559.176186 67.590171 
L 558.809231 67.590171 
z
" clip-path="url(#p4a5cffb9ab)" style="fill: #1f5aa6"/>
   </g>
   <g id="patch_322">
    <path d="M 559.298504 71.184027 
L 561.867186 71.184027 
L 561.867186 67.590171 
L 559.298504 67.590171 
z
" clip-path="url(#p4a5cffb9ab)" style="fill: #1f5aa6"/>
   </g>
   <g id="patch_323">
    <path d="M 565.781367 71.184027 
L 570.674094 71.184027 
L 570.674094 67.590171 
L 565.781367 67.590171 
z
" clip-path="url(#p4a5cffb9ab)" style="fill: #1f5aa6"/>
   </g>
   <g id="patch_324">
    <path d="M 533.611687 31.651604 
L 545.721187 31.651604 
L 545.721187 28.057748 
L 533.611687 28.057748 
z
" clip-path="url(#p4a5cffb9ab)" style="fill: #e97f2e"/>
   </g>
   <g id="patch_325">
    <path d="M 553.060277 31.651604 
L 556.729822 31.651604 
L 556.729822 28.057748 
L 553.060277 28.057748 
z
" clip-path="url(#p4a5cffb9ab)" style="fill: #e97f2e"/>
   </g>
   <g id="patch_326">
    <path d="M 556.852141 31.651604 
L 558.809231 31.651604 
L 558.809231 28.057748 
L 556.852141 28.057748 
z
" clip-path="url(#p4a5cffb9ab)" style="fill: #e97f2e"/>
   </g>
   <g id="patch_327">
    <path d="M 533.000097 81.56628 
L 534.467915 81.56628 
L 534.467915 77.972423 
L 533.000097 77.972423 
z
" clip-path="url(#p4a5cffb9ab)" style="fill: #e97f2e"/>
   </g>
   <g id="patch_328">
    <path d="M 535.568778 81.56628 
L 535.691096 81.56628 
L 535.691096 77.972423 
L 535.568778 77.972423 
z
" clip-path="url(#p4a5cffb9ab)" style="fill: #e97f2e"/>
   </g>
   <g id="patch_329">
    <path d="M 535.813415 81.56628 
L 544.864959 81.56628 
L 544.864959 77.972423 
L 535.813415 77.972423 
z
" clip-path="url(#p4a5cffb9ab)" style="fill: #e97f2e"/>
   </g>
   <g id="patch_330">
    <path d="M 552.815641 81.56628 
L 558.809231 81.56628 
L 558.809231 77.972423 
L 552.815641 77.972423 
z
" clip-path="url(#p4a5cffb9ab)" style="fill: #e97f2e"/>
   </g>
   <g id="patch_331">
    <path d="M 559.176186 81.56628 
L 559.298504 81.56628 
L 559.298504 77.972423 
L 559.176186 77.972423 
z
" clip-path="url(#p4a5cffb9ab)" style="fill: #e97f2e"/>
   </g>
   <g id="patch_332">
    <path d="M 526.639551 36.842731 
L 533.611687 36.842731 
L 533.611687 33.248874 
L 526.639551 33.248874 
z
" clip-path="url(#p4a5cffb9ab)" style="fill: #8c564b"/>
   </g>
   <g id="patch_333">
    <path d="M 545.721187 36.842731 
L 553.060277 36.842731 
L 553.060277 33.248874 
L 545.721187 33.248874 
z
" clip-path="url(#p4a5cffb9ab)" style="fill: #8c564b"/>
   </g>
   <g id="patch_334">
    <path d="M 556.729822 36.842731 
L 556.852141 36.842731 
L 556.852141 33.248874 
L 556.729822 33.248874 
z
" clip-path="url(#p4a5cffb9ab)" style="fill: #8c564b"/>
   </g>
   <g id="patch_335">
    <path d="M 558.809231 36.842731 
L 570.551776 36.842731 
L 570.551776 33.248874 
L 558.809231 33.248874 
z
" clip-path="url(#p4a5cffb9ab)" style="fill: #8c564b"/>
   </g>
   <g id="patch_336">
    <path d="M 547.189005 86.757406 
L 547.311323 86.757406 
L 547.311323 83.16355 
L 547.189005 83.16355 
z
" clip-path="url(#p4a5cffb9ab)" style="fill: #8c564b"/>
   </g>
   <g id="patch_337">
    <path d="M 547.800596 86.757406 
L 548.045232 86.757406 
L 548.045232 83.16355 
L 547.800596 83.16355 
z
" clip-path="url(#p4a5cffb9ab)" style="fill: #8c564b"/>
   </g>
   <g id="patch_338">
    <path d="M 548.16755 86.757406 
L 550.124641 86.757406 
L 550.124641 83.16355 
L 548.16755 83.16355 
z
" clip-path="url(#p4a5cffb9ab)" style="fill: #8c564b"/>
   </g>
   <g id="patch_339">
    <path d="M 526.639551 112.713038 
L 531.776915 112.713038 
L 531.776915 109.119181 
L 526.639551 109.119181 
z
" clip-path="url(#p4a5cffb9ab)" style="fill: #9edae6"/>
   </g>
   <g id="patch_340">
    <path d="M 550.124641 112.713038 
L 552.815641 112.713038 
L 552.815641 109.119181 
L 550.124641 109.119181 
z
" clip-path="url(#p4a5cffb9ab)" style="fill: #9edae6"/>
   </g>
   <g id="patch_341">
    <path d="M 561.867186 112.713038 
L 565.781367 112.713038 
L 565.781367 109.119181 
L 561.867186 109.119181 
z
" clip-path="url(#p4a5cffb9ab)" style="fill: #9edae6"/>
   </g>
   <g id="patch_342">
    <path d="M 526.639551 12.883686 
L 533.611687 12.883686 
L 533.611687 9.289829 
L 526.639551 9.289829 
z
" clip-path="url(#p4a5cffb9ab)" style="fill: #9edae6"/>
   </g>
   <g id="patch_343">
    <path d="M 534.467915 12.883686 
L 535.568778 12.883686 
L 535.568778 9.289829 
L 534.467915 9.289829 
z
" clip-path="url(#p4a5cffb9ab)" style="fill: #1f5aa6"/>
   </g>
   <g id="patch_344">
    <path d="M 535.691096 12.883686 
L 535.813415 12.883686 
L 535.813415 9.289829 
L 535.691096 9.289829 
z
" clip-path="url(#p4a5cffb9ab)" style="fill: #1f5aa6"/>
   </g>
   <g id="patch_345">
    <path d="M 544.864959 12.883686 
L 547.189005 12.883686 
L 547.189005 9.289829 
L 544.864959 9.289829 
z
" clip-path="url(#p4a5cffb9ab)" style="fill: #1f5aa6"/>
   </g>
   <g id="patch_346">
    <path d="M 547.311323 12.883686 
L 547.800596 12.883686 
L 547.800596 9.289829 
L 547.311323 9.289829 
z
" clip-path="url(#p4a5cffb9ab)" style="fill: #1f5aa6"/>
   </g>
   <g id="patch_347">
    <path d="M 548.045232 12.883686 
L 548.16755 12.883686 
L 548.16755 9.289829 
L 548.045232 9.289829 
z
" clip-path="url(#p4a5cffb9ab)" style="fill: #1f5aa6"/>
   </g>
   <g id="patch_348">
    <path d="M 550.124641 12.883686 
L 553.060277 12.883686 
L 553.060277 9.289829 
L 550.124641 9.289829 
z
" clip-path="url(#p4a5cffb9ab)" style="fill: #9edae6"/>
   </g>
   <g id="patch_349">
    <path d="M 556.729822 12.883686 
L 556.852141 12.883686 
L 556.852141 9.289829 
L 556.729822 9.289829 
z
" clip-path="url(#p4a5cffb9ab)" style="fill: #e97f2e"/>
   </g>
   <g id="patch_350">
    <path d="M 558.809231 12.883686 
L 570.551776 12.883686 
L 570.551776 9.289829 
L 558.809231 9.289829 
z
" clip-path="url(#p4a5cffb9ab)" style="fill: #1f5aa6"/>
   </g>
   <g id="patch_351">
    <path d="M 588.043275 21.269352 
L 618.622819 21.269352 
L 618.622819 17.675495 
L 588.043275 17.675495 
z
" clip-path="url(#p4a5cffb9ab)" style="fill: #1f5aa6"/>
   </g>
   <g id="patch_352">
    <path d="M 574.588276 71.184027 
L 582.416639 71.184027 
L 582.416639 67.590171 
L 574.588276 67.590171 
z
" clip-path="url(#p4a5cffb9ab)" style="fill: #1f5aa6"/>
   </g>
   <g id="patch_353">
    <path d="M 594.281502 71.184027 
L 594.40382 71.184027 
L 594.40382 67.590171 
L 594.281502 67.590171 
z
" clip-path="url(#p4a5cffb9ab)" style="fill: #1f5aa6"/>
   </g>
   <g id="patch_354">
    <path d="M 594.526138 71.184027 
L 594.648457 71.184027 
L 594.648457 67.590171 
L 594.526138 67.590171 
z
" clip-path="url(#p4a5cffb9ab)" style="fill: #1f5aa6"/>
   </g>
   <g id="patch_355">
    <path d="M 594.770775 71.184027 
L 595.137729 71.184027 
L 595.137729 67.590171 
L 594.770775 67.590171 
z
" clip-path="url(#p4a5cffb9ab)" style="fill: #1f5aa6"/>
   </g>
   <g id="patch_356">
    <path d="M 595.260047 71.184027 
L 602.966093 71.184027 
L 602.966093 67.590171 
L 595.260047 67.590171 
z
" clip-path="url(#p4a5cffb9ab)" style="fill: #1f5aa6"/>
   </g>
   <g id="patch_357">
    <path d="M 603.210729 71.184027 
L 603.333047 71.184027 
L 603.333047 67.590171 
L 603.210729 67.590171 
z
" clip-path="url(#p4a5cffb9ab)" style="fill: #1f5aa6"/>
   </g>
   <g id="patch_358">
    <path d="M 574.588276 52.416109 
L 588.043275 52.416109 
L 588.043275 48.822253 
L 574.588276 48.822253 
z
" clip-path="url(#p4a5cffb9ab)" style="fill: #f2856e"/>
   </g>
   <g id="patch_359">
    <path d="M 582.416639 102.330785 
L 594.281502 102.330785 
L 594.281502 98.736928 
L 582.416639 98.736928 
z
" clip-path="url(#p4a5cffb9ab)" style="fill: #f2856e"/>
   </g>
   <g id="patch_360">
    <path d="M 594.40382 102.330785 
L 594.526138 102.330785 
L 594.526138 98.736928 
L 594.40382 98.736928 
z
" clip-path="url(#p4a5cffb9ab)" style="fill: #f2856e"/>
   </g>
   <g id="patch_361">
    <path d="M 594.648457 102.330785 
L 594.770775 102.330785 
L 594.770775 98.736928 
L 594.648457 98.736928 
z
" clip-path="url(#p4a5cffb9ab)" style="fill: #f2856e"/>
   </g>
   <g id="patch_362">
    <path d="M 595.137729 102.330785 
L 595.260047 102.330785 
L 595.260047 98.736928 
L 595.137729 98.736928 
z
" clip-path="url(#p4a5cffb9ab)" style="fill: #f2856e"/>
   </g>
   <g id="patch_363">
    <path d="M 602.966093 107.521911 
L 603.210729 107.521911 
L 603.210729 103.928055 
L 602.966093 103.928055 
z
" clip-path="url(#p4a5cffb9ab)" style="fill: #dbdc8d"/>
   </g>
   <g id="patch_364">
    <path d="M 603.333047 107.521911 
L 618.622819 107.521911 
L 618.622819 103.928055 
L 603.333047 103.928055 
z
" clip-path="url(#p4a5cffb9ab)" style="fill: #dbdc8d"/>
   </g>
   <g id="patch_365">
    <path d="M 574.588276 12.883686 
L 582.416639 12.883686 
L 582.416639 9.289829 
L 574.588276 9.289829 
z
" clip-path="url(#p4a5cffb9ab)" style="fill: #1f5aa6"/>
   </g>
   <g id="patch_366">
    <path d="M 588.043275 12.883686 
L 594.281502 12.883686 
L 594.281502 9.289829 
L 588.043275 9.289829 
z
" clip-path="url(#p4a5cffb9ab)" style="fill: #f2856e"/>
   </g>
   <g id="patch_367">
    <path d="M 594.40382 12.883686 
L 594.526138 12.883686 
L 594.526138 9.289829 
L 594.40382 9.289829 
z
" clip-path="url(#p4a5cffb9ab)" style="fill: #f2856e"/>
   </g>
   <g id="patch_368">
    <path d="M 594.648457 12.883686 
L 594.770775 12.883686 
L 594.770775 9.289829 
L 594.648457 9.289829 
z
" clip-path="url(#p4a5cffb9ab)" style="fill: #f2856e"/>
   </g>
   <g id="patch_369">
    <path d="M 595.137729 12.883686 
L 595.260047 12.883686 
L 595.260047 9.289829 
L 595.137729 9.289829 
z
" clip-path="url(#p4a5cffb9ab)" style="fill: #f2856e"/>
   </g>
   <g id="patch_370">
    <path d="M 602.966093 12.883686 
L 603.210729 12.883686 
L 603.210729 9.289829 
L 602.966093 9.289829 
z
" clip-path="url(#p4a5cffb9ab)" style="fill: #dbdc8d"/>
   </g>
   <g id="patch_371">
    <path d="M 603.333047 12.883686 
L 618.622819 12.883686 
L 618.622819 9.289829 
L 603.333047 9.289829 
z
" clip-path="url(#p4a5cffb9ab)" style="fill: #dbdc8d"/>
   </g>
   <g id="line2d_1">
    <path d="M 47.152306 116.706212 
L 91.186849 116.706212 
" clip-path="url(#p4a5cffb9ab)" style="fill: none; stroke: #5a5a5a; stroke-width: 1.4"/>
   </g>
   <g id="text_1">
    <text style="font: 8.5px 'Arial'; text-anchor: end" x="44.052813" y="13.184531" transform="rotate(-0 44.052813 13.184531)">accuracy</text>
   </g>
   <g id="text_2">
    <text style="font: 8.5px 'Arial'; text-anchor: end" x="44.052813" y="42.434311" transform="rotate(-0 44.052813 42.434311)">labels</text>
   </g>
   <g id="text_3">
    <text style="font: 8.5px 'Arial'; text-anchor: end" x="44.052813" y="92.348987" transform="rotate(-0 44.052813 92.348987)">prediction</text>
   </g>
   <g id="text_4">
    <text style="font: 8px 'Arial'; text-anchor: middle" x="69.169578" y="124.828366" transform="rotate(-0 69.169578 124.828366)">15 secs</text>
   </g>
   <g id="text_5">
    <text style="font: 9px 'Arial'; text-anchor: middle" x="332.887563" y="125.544147" transform="rotate(-0 332.887563 125.544147)">videos</text>
   </g>
  </g>
 </g>
 <defs>
  <clipPath id="p4a5cffb9ab">
   <rect x="46.912563" y="7.69256" width="571.95" height="117"/>
  </clipPath>
 </defs>
</svg>
