<?xml version="1.0" encoding="utf-8" standalone="no"?>
<!DOCTYPE svg PUBLIC "-//W3C//DTD SVG 1.1//EN"
  "http://www.w3.org/Graphics/SVG/1.1/DTD/svg11.dtd">
<svg xmlns:xlink="http://www.w3.org/1999/xlink" width="614.542563pt" height="123.012897pt" viewBox="0 0 614.542563 123.012897" xmlns="http://www.w3.org/2000/svg" version="1.1">
 <metadata>
  <rdf:RDF xmlns:dc="http://purl.org/dc/elements/1.1/" xmlns:cc="http://creativecommons.org/ns#" xmlns:rdf="http://www.w3.org/1999/02/22-rdf-syntax-ns#">
   <cc:Work>
    <dc:type rdf:resource="http://purl.org/dc/dcmitype/StillImage"/>
    <dc:date>2026-05-13T17:39:06.707718</dc:date>
    <dc:format>image/svg+xml</dc:format>
    <dc:creator>
     <cc:Agent>
      <dc:title>Matplotlib v3.9.4, https://matplotlib.org/</dc:title>
     </cc:Agent>
    </dc:creator>
   </cc:Work>
  </rdf:RDF>
 </metadata>
 <defs>
  <style type="text/css">*{stroke-linejoin: round; stroke-linecap: butt}</style>
 </defs>
 <g id="figure_1">
  <g id="patch_1">
   <path d="M -0 123.012897 
L 614.542563 123.012897 
L 614.542563 0 
L -0 0 
z
" style="fill: #ffffff"/>
  </g>
  <g id="axes_1">
   <g id="patch_2">
    <path d="M 41.152563 118.93256 
L 613.102563 118.93256 
L 613.102563 1.93256 
L 41.152563 1.93256 
z
" style="fill: #ffffff"/>
   </g>
   <g id="patch_3">
    <path d="M 41.392306 15.509352 
L 85.426849 15.509352 
L 85.426849 11.915495 
L 41.392306 11.915495 
z
" clip-path="url(#p8e54604beb)" style="fill: #ebeced"/>
   </g>
   <g id="patch_4">
    <path d="M 41.392306 65.424027 
L 85.426849 65.424027 
L 85.426849 61.830171 
L 41.392306 61.830171 
z
" clip-path="url(#p8e54604beb)" style="fill: #ebeced"/>
   </g>
   <g id="patch_5">
    <path d="M 41.392306 20.700478 
L 85.426849 20.700478 
L 85.426849 17.106621 
L 41.392306 17.106621 
z
" clip-path="url(#p8e54604beb)" style="fill: #ebeced"/>
   </g>
   <g id="patch_6">
    <path d="M 41.392306 70.615154 
L 85.426849 70.615154 
L 85.426849 67.021297 
L 41.392306 67.021297 
z
" clip-path="url(#p8e54604beb)" style="fill: #ebeced"/>
   </g>
   <g id="patch_7">
    <path d="M 41.392306 25.891604 
L 85.426849 25.891604 
L 85.426849 22.297748 
L 41.392306 22.297748 
z
" clip-path="url(#p8e54604beb)" style="fill: #ebeced"/>
   </g>
   <g id="patch_8">
    <path d="M 41.392306 75.80628 
L 85.426849 75.80628 
L 85.426849 72.212423 
L 41.392306 72.212423 
z
" clip-path="url(#p8e54604beb)" style="fill: #ebeced"/>
   </g>
   <g id="patch_9">
    <path d="M 41.392306 31.082731 
L 85.426849 31.082731 
L 85.426849 27.488874 
L 41.392306 27.488874 
z
" clip-path="url(#p8e54604beb)" style="fill: #ebeced"/>
   </g>
   <g id="patch_10">
    <path d="M 41.392306 80.997406 
L 85.426849 80.997406 
L 85.426849 77.40355 
L 41.392306 77.40355 
z
" clip-path="url(#p8e54604beb)" style="fill: #ebeced"/>
   </g>
   <g id="patch_11">
    <path d="M 41.392306 36.273857 
L 85.426849 36.273857 
L 85.426849 32.68 
L 41.392306 32.68 
z
" clip-path="url(#p8e54604beb)" style="fill: #ebeced"/>
   </g>
   <g id="patch_12">
    <path d="M 41.392306 86.188533 
L 85.426849 86.188533 
L 85.426849 82.594676 
L 41.392306 82.594676 
z
" clip-path="url(#p8e54604beb)" style="fill: #ebeced"/>
   </g>
   <g id="patch_13">
    <path d="M 41.392306 41.464983 
L 85.426849 41.464983 
L 85.426849 37.871126 
L 41.392306 37.871126 
z
" clip-path="url(#p8e54604beb)" style="fill: #ebeced"/>
   </g>
   <g id="patch_14">
    <path d="M 41.392306 91.379659 
L 85.426849 91.379659 
L 85.426849 87.785802 
L 41.392306 87.785802 
z
" clip-path="url(#p8e54604beb)" style="fill: #ebeced"/>
   </g>
   <g id="patch_15">
    <path d="M 41.392306 46.656109 
L 85.426849 46.656109 
L 85.426849 43.062253 
L 41.392306 43.062253 
z
" clip-path="url(#p8e54604beb)" style="fill: #ebeced"/>
   </g>
   <g id="patch_16">
    <path d="M 41.392306 96.570785 
L 85.426849 96.570785 
L 85.426849 92.976928 
L 41.392306 92.976928 
z
" clip-path="url(#p8e54604beb)" style="fill: #ebeced"/>
   </g>
   <g id="patch_17">
    <path d="M 41.392306 51.847236 
L 85.426849 51.847236 
L 85.426849 48.253379 
L 41.392306 48.253379 
z
" clip-path="url(#p8e54604beb)" style="fill: #ebeced"/>
   </g>
   <g id="patch_18">
    <path d="M 41.392306 101.761911 
L 85.426849 101.761911 
L 85.426849 98.168055 
L 41.392306 98.168055 
z
" clip-path="url(#p8e54604beb)" style="fill: #ebeced"/>
   </g>
   <g id="patch_19">
    <path d="M 41.392306 57.038362 
L 85.426849 57.038362 
L 85.426849 53.444505 
L 41.392306 53.444505 
z
" clip-path="url(#p8e54604beb)" style="fill: #ebeced"/>
   </g>
   <g id="patch_20">
    <path d="M 41.392306 106.953038 
L 85.426849 106.953038 
L 85.426849 103.359181 
L 41.392306 103.359181 
z
" clip-path="url(#p8e54604beb)" style="fill: #ebeced"/>
   </g>
   <g id="patch_21">
    <path d="M 41.392306 7.123686 
L 85.426849 7.123686 
L 85.426849 3.529829 
L 41.392306 3.529829 
z
" clip-path="url(#p8e54604beb)" style="fill: #ebeced"/>
   </g>
   <g id="patch_22">
    <path d="M 89.341031 15.509352 
L 133.375574 15.509352 
L 133.375574 11.915495 
L 89.341031 11.915495 
z
" clip-path="url(#p8e54604beb)" style="fill: #ebeced"/>
   </g>
   <g id="patch_23">
    <path d="M 89.341031 65.424027 
L 133.375574 65.424027 
L 133.375574 61.830171 
L 89.341031 61.830171 
z
" clip-path="url(#p8e54604beb)" style="fill: #ebeced"/>
   </g>
   <g id="patch_24">
    <path d="M 89.341031 20.700478 
L 133.375574 20.700478 
L 133.375574 17.106621 
L 89.341031 17.106621 
z
" clip-path="url(#p8e54604beb)" style="fill: #ebeced"/>
   </g>
   <g id="patch_25">
    <path d="M 89.341031 70.615154 
L 133.375574 70.615154 
L 133.375574 67.021297 
L 89.341031 67.021297 
z
" clip-path="url(#p8e54604beb)" style="fill: #ebeced"/>
   </g>
   <g id="patch_26">
    <path d="M 89.341031 25.891604 
L 133.375574 25.891604 
L 133.375574 22.297748 
L 89.341031 22.297748 
z
" clip-path="url(#p8e54604beb)" style="fill: #ebeced"/>
   </g>
   <g id="patch_27">
    <path d="M 89.341031 75.80628 
L 133.375574 75.80628 
L 133.375574 72.212423 
L 89.341031 72.212423 
z
" clip-path="url(#p8e54604beb)" style="fill: #ebeced"/>
   </g>
   <g id="patch_28">
    <path d="M 89.341031 31.082731 
L 133.375574 31.082731 
L 133.375574 27.488874 
L 89.341031 27.488874 
z
" clip-path="url(#p8e54604beb)" style="fill: #ebeced"/>
   </g>
   <g id="patch_29">
    <path d="M 89.341031 80.997406 
L 133.375574 80.997406 
L 133.375574 77.40355 
L 89.341031 77.40355 
z
" clip-path="url(#p8e54604beb)" style="fill: #ebeced"/>
   </g>
   <g id="patch_30">
    <path d="M 89.341031 36.273857 
L 133.375574 36.273857 
L 133.375574 32.68 
L 89.341031 32.68 
z
" clip-path="url(#p8e54604beb)" style="fill: #ebeced"/>
   </g>
   <g id="patch_31">
    <path d="M 89.341031 86.188533 
L 133.375574 86.188533 
L 133.375574 82.594676 
L 89.341031 82.594676 
z
" clip-path="url(#p8e54604beb)" style="fill: #ebeced"/>
   </g>
   <g id="patch_32">
    <path d="M 89.341031 41.464983 
L 133.375574 41.464983 
L 133.375574 37.871126 
L 89.341031 37.871126 
z
" clip-path="url(#p8e54604beb)" style="fill: #ebeced"/>
   </g>
   <g id="patch_33">
    <path d="M 89.341031 91.379659 
L 133.375574 91.379659 
L 133.375574 87.785802 
L 89.341031 87.785802 
z
" clip-path="url(#p8e54604beb)" style="fill: #ebeced"/>
   </g>
   <g id="patch_34">
    <path d="M 89.341031 46.656109 
L 133.375574 46.656109 
L 133.375574 43.062253 
L 89.341031 43.062253 
z
" clip-path="url(#p8e54604beb)" style="fill: #ebeced"/>
   </g>
   <g id="patch_35">
    <path d="M 89.341031 96.570785 
L 133.375574 96.570785 
L 133.375574 92.976928 
L 89.341031 92.976928 
z
" clip-path="url(#p8e54604beb)" style="fill: #ebeced"/>
   </g>
   <g id="patch_36">
    <path d="M 89.341031 51.847236 
L 133.375574 51.847236 
L 133.375574 48.253379 
L 89.341031 48.253379 
z
" clip-path="url(#p8e54604beb)" style="fill: #ebeced"/>
   </g>
   <g id="patch_37">
    <path d="M 89.341031 101.761911 
L 133.375574 101.761911 
L 133.375574 98.168055 
L 89.341031 98.168055 
z
" clip-path="url(#p8e54604beb)" style="fill: #ebeced"/>
   </g>
   <g id="patch_38">
    <path d="M 89.341031 57.038362 
L 133.375574 57.038362 
L 133.375574 53.444505 
L 89.341031 53.444505 
z
" clip-path="url(#p8e54604beb)" style="fill: #ebeced"/>
   </g>
   <g id="patch_39">
    <path d="M 89.341031 106.953038 
L 133.375574 106.953038 
L 133.375574 103.359181 
L 89.341031 103.359181 
z
" clip-path="url(#p8e54604beb)" style="fill: #ebeced"/>
   </g>
   <g id="patch_40">
    <path d="M 89.341031 7.123686 
L 133.375574 7.123686 
L 133.375574 3.529829 
L 89.341031 3.529829 
z
" clip-path="url(#p8e54604beb)" style="fill: #ebeced"/>
   </g>
   <g id="patch_41">
    <path d="M 137.289755 15.509352 
L 181.324298 15.509352 
L 181.324298 11.915495 
L 137.289755 11.915495 
z
" clip-path="url(#p8e54604beb)" style="fill: #ebeced"/>
   </g>
   <g id="patch_42">
    <path d="M 137.289755 65.424027 
L 181.324298 65.424027 
L 181.324298 61.830171 
L 137.289755 61.830171 
z
" clip-path="url(#p8e54604beb)" style="fill: #ebeced"/>
   </g>
   <g id="patch_43">
    <path d="M 137.289755 20.700478 
L 181.324298 20.700478 
L 181.324298 17.106621 
L 137.289755 17.106621 
z
" clip-path="url(#p8e54604beb)" style="fill: #ebeced"/>
   </g>
   <g id="patch_44">
    <path d="M 137.289755 70.615154 
L 181.324298 70.615154 
L 181.324298 67.021297 
L 137.289755 67.021297 
z
" clip-path="url(#p8e54604beb)" style="fill: #ebeced"/>
   </g>
   <g id="patch_45">
    <path d="M 137.289755 25.891604 
L 181.324298 25.891604 
L 181.324298 22.297748 
L 137.289755 22.297748 
z
" clip-path="url(#p8e54604beb)" style="fill: #ebeced"/>
   </g>
   <g id="patch_46">
    <path d="M 137.289755 75.80628 
L 181.324298 75.80628 
L 181.324298 72.212423 
L 137.289755 72.212423 
z
" clip-path="url(#p8e54604beb)" style="fill: #ebeced"/>
   </g>
   <g id="patch_47">
    <path d="M 137.289755 31.082731 
L 181.324298 31.082731 
L 181.324298 27.488874 
L 137.289755 27.488874 
z
" clip-path="url(#p8e54604beb)" style="fill: #ebeced"/>
   </g>
   <g id="patch_48">
    <path d="M 137.289755 80.997406 
L 181.324298 80.997406 
L 181.324298 77.40355 
L 137.289755 77.40355 
z
" clip-path="url(#p8e54604beb)" style="fill: #ebeced"/>
   </g>
   <g id="patch_49">
    <path d="M 137.289755 36.273857 
L 181.324298 36.273857 
L 181.324298 32.68 
L 137.289755 32.68 
z
" clip-path="url(#p8e54604beb)" style="fill: #ebeced"/>
   </g>
   <g id="patch_50">
    <path d="M 137.289755 86.188533 
L 181.324298 86.188533 
L 181.324298 82.594676 
L 137.289755 82.594676 
z
" clip-path="url(#p8e54604beb)" style="fill: #ebeced"/>
   </g>
   <g id="patch_51">
    <path d="M 137.289755 41.464983 
L 181.324298 41.464983 
L 181.324298 37.871126 
L 137.289755 37.871126 
z
" clip-path="url(#p8e54604beb)" style="fill: #ebeced"/>
   </g>
   <g id="patch_52">
    <path d="M 137.289755 91.379659 
L 181.324298 91.379659 
L 181.324298 87.785802 
L 137.289755 87.785802 
z
" clip-path="url(#p8e54604beb)" style="fill: #ebeced"/>
   </g>
   <g id="patch_53">
    <path d="M 137.289755 46.656109 
L 181.324298 46.656109 
L 181.324298 43.062253 
L 137.289755 43.062253 
z
" clip-path="url(#p8e54604beb)" style="fill: #ebeced"/>
   </g>
   <g id="patch_54">
    <path d="M 137.289755 96.570785 
L 181.324298 96.570785 
L 181.324298 92.976928 
L 137.289755 92.976928 
z
" clip-path="url(#p8e54604beb)" style="fill: #ebeced"/>
   </g>
   <g id="patch_55">
    <path d="M 137.289755 51.847236 
L 181.324298 51.847236 
L 181.324298 48.253379 
L 137.289755 48.253379 
z
" clip-path="url(#p8e54604beb)" style="fill: #ebeced"/>
   </g>
   <g id="patch_56">
    <path d="M 137.289755 101.761911 
L 181.324298 101.761911 
L 181.324298 98.168055 
L 137.289755 98.168055 
z
" clip-path="url(#p8e54604beb)" style="fill: #ebeced"/>
   </g>
   <g id="patch_57">
    <path d="M 137.289755 57.038362 
L 181.324298 57.038362 
L 181.324298 53.444505 
L 137.289755 53.444505 
z
" clip-path="url(#p8e54604beb)" style="fill: #ebeced"/>
   </g>
   <g id="patch_58">
    <path d="M 137.289755 106.953038 
L 181.324298 106.953038 
L 181.324298 103.359181 
L 137.289755 103.359181 
z
" clip-path="url(#p8e54604beb)" style="fill: #ebeced"/>
   </g>
   <g id="patch_59">
    <path d="M 137.289755 7.123686 
L 181.324298 7.123686 
L 181.324298 3.529829 
L 137.289755 3.529829 
z
" clip-path="url(#p8e54604beb)" style="fill: #ebeced"/>
   </g>
   <g id="patch_60">
    <path d="M 185.23848 15.509352 
L 229.273023 15.509352 
L 229.273023 11.915495 
L 185.23848 11.915495 
z
" clip-path="url(#p8e54604beb)" style="fill: #ebeced"/>
   </g>
   <g id="patch_61">
    <path d="M 185.23848 65.424027 
L 229.273023 65.424027 
L 229.273023 61.830171 
L 185.23848 61.830171 
z
" clip-path="url(#p8e54604beb)" style="fill: #ebeced"/>
   </g>
   <g id="patch_62">
    <path d="M 185.23848 20.700478 
L 229.273023 20.700478 
L 229.273023 17.106621 
L 185.23848 17.106621 
z
" clip-path="url(#p8e54604beb)" style="fill: #ebeced"/>
   </g>
   <g id="patch_63">
    <path d="M 185.23848 70.615154 
L 229.273023 70.615154 
L 229.273023 67.021297 
L 185.23848 67.021297 
z
" clip-path="url(#p8e54604beb)" style="fill: #ebeced"/>
   </g>
   <g id="patch_64">
    <path d="M 185.23848 25.891604 
L 229.273023 25.891604 
L 229.273023 22.297748 
L 185.23848 22.297748 
z
" clip-path="url(#p8e54604beb)" style="fill: #ebeced"/>
   </g>
   <g id="patch_65">
    <path d="M 185.23848 75.80628 
L 229.273023 75.80628 
L 229.273023 72.212423 
L 185.23848 72.212423 
z
" clip-path="url(#p8e54604beb)" style="fill: #ebeced"/>
   </g>
   <g id="patch_66">
    <path d="M 185.23848 31.082731 
L 229.273023 31.082731 
L 229.273023 27.488874 
L 185.23848 27.488874 
z
" clip-path="url(#p8e54604beb)" style="fill: #ebeced"/>
   </g>
   <g id="patch_67">
    <path d="M 185.23848 80.997406 
L 229.273023 80.997406 
L 229.273023 77.40355 
L 185.23848 77.40355 
z
" clip-path="url(#p8e54604beb)" style="fill: #ebeced"/>
   </g>
   <g id="patch_68">
    <path d="M 185.23848 36.273857 
L 229.273023 36.273857 
L 229.273023 32.68 
L 185.23848 32.68 
z
" clip-path="url(#p8e54604beb)" style="fill: #ebeced"/>
   </g>
   <g id="patch_69">
    <path d="M 185.23848 86.188533 
L 229.273023 86.188533 
L 229.273023 82.594676 
L 185.23848 82.594676 
z
" clip-path="url(#p8e54604beb)" style="fill: #ebeced"/>
   </g>
   <g id="patch_70">
    <path d="M 185.23848 41.464983 
L 229.273023 41.464983 
L 229.273023 37.871126 
L 185.23848 37.871126 
z
" clip-path="url(#p8e54604beb)" style="fill: #ebeced"/>
   </g>
   <g id="patch_71">
    <path d="M 185.23848 91.379659 
L 229.273023 91.379659 
L 229.273023 87.785802 
L 185.23848 87.785802 
z
" clip-path="url(#p8e54604beb)" style="fill: #ebeced"/>
   </g>
   <g id="patch_72">
    <path d="M 185.23848 46.656109 
L 229.273023 46.656109 
L 229.273023 43.062253 
L 185.23848 43.062253 
z
" clip-path="url(#p8e54604beb)" style="fill: #ebeced"/>
   </g>
   <g id="patch_73">
    <path d="M 185.23848 96.570785 
L 229.273023 96.570785 
L 229.273023 92.976928 
L 185.23848 92.976928 
z
" clip-path="url(#p8e54604beb)" style="fill: #ebeced"/>
   </g>
   <g id="patch_74">
    <path d="M 185.23848 51.847236 
L 229.273023 51.847236 
L 229.273023 48.253379 
L 185.23848 48.253379 
z
" clip-path="url(#p8e54604beb)" style="fill: #ebeced"/>
   </g>
   <g id="patch_75">
    <path d="M 185.23848 101.761911 
L 229.273023 101.761911 
L 229.273023 98.168055 
L 185.23848 98.168055 
z
" clip-path="url(#p8e54604beb)" style="fill: #ebeced"/>
   </g>
   <g id="patch_76">
    <path d="M 185.23848 57.038362 
L 229.273023 57.038362 
L 229.273023 53.444505 
L 185.23848 53.444505 
z
" clip-path="url(#p8e54604beb)" style="fill: #ebeced"/>
   </g>
   <g id="patch_77">
    <path d="M 185.23848 106.953038 
L 229.273023 106.953038 
L 229.273023 103.359181 
L 185.23848 103.359181 
z
" clip-path="url(#p8e54604beb)" style="fill: #ebeced"/>
   </g>
   <g id="patch_78">
    <path d="M 185.23848 7.123686 
L 229.273023 7.123686 
L 229.273023 3.529829 
L 185.23848 3.529829 
z
" clip-path="url(#p8e54604beb)" style="fill: #ebeced"/>
   </g>
   <g id="patch_79">
    <path d="M 233.187204 15.509352 
L 277.221747 15.509352 
L 277.221747 11.915495 
L 233.187204 11.915495 
z
" clip-path="url(#p8e54604beb)" style="fill: #ebeced"/>
   </g>
   <g id="patch_80">
    <path d="M 233.187204 65.424027 
L 277.221747 65.424027 
L 277.221747 61.830171 
L 233.187204 61.830171 
z
" clip-path="url(#p8e54604beb)" style="fill: #ebeced"/>
   </g>
   <g id="patch_81">
    <path d="M 233.187204 20.700478 
L 277.221747 20.700478 
L 277.221747 17.106621 
L 233.187204 17.106621 
z
" clip-path="url(#p8e54604beb)" style="fill: #ebeced"/>
   </g>
   <g id="patch_82">
    <path d="M 233.187204 70.615154 
L 277.221747 70.615154 
L 277.221747 67.021297 
L 233.187204 67.021297 
z
" clip-path="url(#p8e54604beb)" style="fill: #ebeced"/>
   </g>
   <g id="patch_83">
    <path d="M 233.187204 25.891604 
L 277.221747 25.891604 
L 277.221747 22.297748 
L 233.187204 22.297748 
z
" clip-path="url(#p8e54604beb)" style="fill: #ebeced"/>
   </g>
   <g id="patch_84">
    <path d="M 233.187204 75.80628 
L 277.221747 75.80628 
L 277.221747 72.212423 
L 233.187204 72.212423 
z
" clip-path="url(#p8e54604beb)" style="fill: #ebeced"/>
   </g>
   <g id="patch_85">
    <path d="M 233.187204 31.082731 
L 277.221747 31.082731 
L 277.221747 27.488874 
L 233.187204 27.488874 
z
" clip-path="url(#p8e54604beb)" style="fill: #ebeced"/>
   </g>
   <g id="patch_86">
    <path d="M 233.187204 80.997406 
L 277.221747 80.997406 
L 277.221747 77.40355 
L 233.187204 77.40355 
z
" clip-path="url(#p8e54604beb)" style="fill: #ebeced"/>
   </g>
   <g id="patch_87">
    <path d="M 233.187204 36.273857 
L 277.221747 36.273857 
L 277.221747 32.68 
L 233.187204 32.68 
z
" clip-path="url(#p8e54604beb)" style="fill: #ebeced"/>
   </g>
   <g id="patch_88">
    <path d="M 233.187204 86.188533 
L 277.221747 86.188533 
L 277.221747 82.594676 
L 233.187204 82.594676 
z
" clip-path="url(#p8e54604beb)" style="fill: #ebeced"/>
   </g>
   <g id="patch_89">
    <path d="M 233.187204 41.464983 
L 277.221747 41.464983 
L 277.221747 37.871126 
L 233.187204 37.871126 
z
" clip-path="url(#p8e54604beb)" style="fill: #ebeced"/>
   </g>
   <g id="patch_90">
    <path d="M 233.187204 91.379659 
L 277.221747 91.379659 
L 277.221747 87.785802 
L 233.187204 87.785802 
z
" clip-path="url(#p8e54604beb)" style="fill: #ebeced"/>
   </g>
   <g id="patch_91">
    <path d="M 233.187204 46.656109 
L 277.221747 46.656109 
L 277.221747 43.062253 
L 233.187204 43.062253 
z
" clip-path="url(#p8e54604beb)" style="fill: #ebeced"/>
   </g>
   <g id="patch_92">
    <path d="M 233.187204 96.570785 
L 277.221747 96.570785 
L 277.221747 92.976928 
L 233.187204 92.976928 
z
" clip-path="url(#p8e54604beb)" style="fill: #ebeced"/>
   </g>
   <g id="patch_93">
    <path d="M 233.187204 51.847236 
L 277.221747 51.847236 
L 277.221747 48.253379 
L 233.187204 48.253379 
z
" clip-path="url(#p8e54604beb)" style="fill: #ebeced"/>
   </g>
   <g id="patch_94">
    <path d="M 233.187204 101.761911 
L 277.221747 101.761911 
L 277.221747 98.168055 
L 233.187204 98.168055 
z
" clip-path="url(#p8e54604beb)" style="fill: #ebeced"/>
   </g>
   <g id="patch_95">
    <path d="M 233.187204 57.038362 
L 277.221747 57.038362 
L 277.221747 53.444505 
L 233.187204 53.444505 
z
" clip-path="url(#p8e54604beb)" style="fill: #ebeced"/>
   </g>
   <g id="patch_96">
    <path d="M 233.187204 106.953038 
L 277.221747 106.953038 
L 277.221747 103.359181 
L 233.187204 103.359181 
z
" clip-path="url(#p8e54604beb)" style="fill: #ebeced"/>
   </g>
   <g id="patch_97">
    <path d="M 233.187204 7.123686 
L 277.221747 7.123686 
L 277.221747 3.529829 
L 233.187204 3.529829 
z
" clip-path="url(#p8e54604beb)" style="fill: #ebeced"/>
   </g>
   <g id="patch_98">
    <path d="M 281.135929 15.509352 
L 325.170472 15.509352 
L 325.170472 11.915495 
L 281.135929 11.915495 
z
" clip-path="url(#p8e54604beb)" style="fill: #ebeced"/>
   </g>
   <g id="patch_99">
    <path d="M 281.135929 65.424027 
L 325.170472 65.424027 
L 325.170472 61.830171 
L 281.135929 61.830171 
z
" clip-path="url(#p8e54604beb)" style="fill: #ebeced"/>
   </g>
   <g id="patch_100">
    <path d="M 281.135929 20.700478 
L 325.170472 20.700478 
L 325.170472 17.106621 
L 281.135929 17.106621 
z
" clip-path="url(#p8e54604beb)" style="fill: #ebeced"/>
   </g>
   <g id="patch_101">
    <path d="M 281.135929 70.615154 
L 325.170472 70.615154 
L 325.170472 67.021297 
L 281.135929 67.021297 
z
" clip-path="url(#p8e54604beb)" style="fill: #ebeced"/>
   </g>
   <g id="patch_102">
    <path d="M 281.135929 25.891604 
L 325.170472 25.891604 
L 325.170472 22.297748 
L 281.135929 22.297748 
z
" clip-path="url(#p8e54604beb)" style="fill: #ebeced"/>
   </g>
   <g id="patch_103">
    <path d="M 281.135929 75.80628 
L 325.170472 75.80628 
L 325.170472 72.212423 
L 281.135929 72.212423 
z
" clip-path="url(#p8e54604beb)" style="fill: #ebeced"/>
   </g>
   <g id="patch_104">
    <path d="M 281.135929 31.082731 
L 325.170472 31.082731 
L 325.170472 27.488874 
L 281.135929 27.488874 
z
" clip-path="url(#p8e54604beb)" style="fill: #ebeced"/>
   </g>
   <g id="patch_105">
    <path d="M 281.135929 80.997406 
L 325.170472 80.997406 
L 325.170472 77.40355 
L 281.135929 77.40355 
z
" clip-path="url(#p8e54604beb)" style="fill: #ebeced"/>
   </g>
   <g id="patch_106">
    <path d="M 281.135929 36.273857 
L 325.170472 36.273857 
L 325.170472 32.68 
L 281.135929 32.68 
z
" clip-path="url(#p8e54604beb)" style="fill: #ebeced"/>
   </g>
   <g id="patch_107">
    <path d="M 281.135929 86.188533 
L 325.170472 86.188533 
L 325.170472 82.594676 
L 281.135929 82.594676 
z
" clip-path="url(#p8e54604beb)" style="fill: #ebeced"/>
   </g>
   <g id="patch_108">
    <path d="M 281.135929 41.464983 
L 325.170472 41.464983 
L 325.170472 37.871126 
L 281.135929 37.871126 
z
" clip-path="url(#p8e54604beb)" style="fill: #ebeced"/>
   </g>
   <g id="patch_109">
    <path d="M 281.135929 91.379659 
L 325.170472 91.379659 
L 325.170472 87.785802 
L 281.135929 87.785802 
z
" clip-path="url(#p8e54604beb)" style="fill: #ebeced"/>
   </g>
   <g id="patch_110">
    <path d="M 281.135929 46.656109 
L 325.170472 46.656109 
L 325.170472 43.062253 
L 281.135929 43.062253 
z
" clip-path="url(#p8e54604beb)" style="fill: #ebeced"/>
   </g>
   <g id="patch_111">
    <path d="M 281.135929 96.570785 
L 325.170472 96.570785 
L 325.170472 92.976928 
L 281.135929 92.976928 
z
" clip-path="url(#p8e54604beb)" style="fill: #ebeced"/>
   </g>
   <g id="patch_112">
    <path d="M 281.135929 51.847236 
L 325.170472 51.847236 
L 325.170472 48.253379 
L 281.135929 48.253379 
z
" clip-path="url(#p8e54604beb)" style="fill: #ebeced"/>
   </g>
   <g id="patch_113">
    <path d="M 281.135929 101.761911 
L 325.170472 101.761911 
L 325.170472 98.168055 
L 281.135929 98.168055 
z
" clip-path="url(#p8e54604beb)" style="fill: #ebeced"/>
   </g>
   <g id="patch_114">
    <path d="M 281.135929 57.038362 
L 325.170472 57.038362 
L 325.170472 53.444505 
L 281.135929 53.444505 
z
" clip-path="url(#p8e54604beb)" style="fill: #ebeced"/>
   </g>
   <g id="patch_115">
    <path d="M 281.135929 106.953038 
L 325.170472 106.953038 
L 325.170472 103.359181 
L 281.135929 103.359181 
z
" clip-path="url(#p8e54604beb)" style="fill: #ebeced"/>
   </g>
   <g id="patch_116">
    <path d="M 281.135929 7.123686 
L 325.170472 7.123686 
L 325.170472 3.529829 
L 281.135929 3.529829 
z
" clip-path="url(#p8e54604beb)" style="fill: #ebeced"/>
   </g>
   <g id="patch_117">
    <path d="M 329.084653 15.509352 
L 373.119196 15.509352 
L 373.119196 11.915495 
L 329.084653 11.915495 
z
" clip-path="url(#p8e54604beb)" style="fill: #ebeced"/>
   </g>
   <g id="patch_118">
    <path d="M 329.084653 65.424027 
L 373.119196 65.424027 
L 373.119196 61.830171 
L 329.084653 61.830171 
z
" clip-path="url(#p8e54604beb)" style="fill: #ebeced"/>
   </g>
   <g id="patch_119">
    <path d="M 329.084653 20.700478 
L 373.119196 20.700478 
L 373.119196 17.106621 
L 329.084653 17.106621 
z
" clip-path="url(#p8e54604beb)" style="fill: #ebeced"/>
   </g>
   <g id="patch_120">
    <path d="M 329.084653 70.615154 
L 373.119196 70.615154 
L 373.119196 67.021297 
L 329.084653 67.021297 
z
" clip-path="url(#p8e54604beb)" style="fill: #ebeced"/>
   </g>
   <g id="patch_121">
    <path d="M 329.084653 25.891604 
L 373.119196 25.891604 
L 373.119196 22.297748 
L 329.084653 22.297748 
z
" clip-path="url(#p8e54604beb)" style="fill: #ebeced"/>
   </g>
   <g id="patch_122">
    <path d="M 329.084653 75.80628 
L 373.119196 75.80628 
L 373.119196 72.212423 
L 329.084653 72.212423 
z
" clip-path="url(#p8e54604beb)" style="fill: #ebeced"/>
   </g>
   <g id="patch_123">
    <path d="M 329.084653 31.082731 
L 373.119196 31.082731 
L 373.119196 27.488874 
L 329.084653 27.488874 
z
" clip-path="url(#p8e54604beb)" style="fill: #ebeced"/>
   </g>
   <g id="patch_124">
    <path d="M 329.084653 80.997406 
L 373.119196 80.997406 
L 373.119196 77.40355 
L 329.084653 77.40355 
z
" clip-path="url(#p8e54604beb)" style="fill: #ebeced"/>
   </g>
   <g id="patch_125">
    <path d="M 329.084653 36.273857 
L 373.119196 36.273857 
L 373.119196 32.68 
L 329.084653 32.68 
z
" clip-path="url(#p8e54604beb)" style="fill: #ebeced"/>
   </g>
   <g id="patch_126">
    <path d="M 329.084653 86.188533 
L 373.119196 86.188533 
L 373.119196 82.594676 
L 329.084653 82.594676 
z
" clip-path="url(#p8e54604beb)" style="fill: #ebeced"/>
   </g>
   <g id="patch_127">
    <path d="M 329.084653 41.464983 
L 373.119196 41.464983 
L 373.119196 37.871126 
L 329.084653 37.871126 
z
" clip-path="url(#p8e54604beb)" style="fill: #ebeced"/>
   </g>
   <g id="patch_128">
    <path d="M 329.084653 91.379659 
L 373.119196 91.379659 
L 373.119196 87.785802 
L 329.084653 87.785802 
z
" clip-path="url(#p8e54604beb)" style="fill: #ebeced"/>
   </g>
   <g id="patch_129">
    <path d="M 329.084653 46.656109 
L 373.119196 46.656109 
L 373.119196 43.062253 
L 329.084653 43.062253 
z
" clip-path="url(#p8e54604beb)" style="fill: #ebeced"/>
   </g>
   <g id="patch_130">
    <path d="M 329.084653 96.570785 
L 373.119196 96.570785 
L 373.119196 92.976928 
L 329.084653 92.976928 
z
" clip-path="url(#p8e54604beb)" style="fill: #ebeced"/>
   </g>
   <g id="patch_131">
    <path d="M 329.084653 51.847236 
L 373.119196 51.847236 
L 373.119196 48.253379 
L 329.084653 48.253379 
z
" clip-path="url(#p8e54604beb)" style="fill: #ebeced"/>
   </g>
   <g id="patch_132">
    <path d="M 329.084653 101.761911 
L 373.119196 101.761911 
L 373.119196 98.168055 
L 329.084653 98.168055 
z
" clip-path="url(#p8e54604beb)" style="fill: #ebeced"/>
   </g>
   <g id="patch_133">
    <path d="M 329.084653 57.038362 
L 373.119196 57.038362 
L 373.119196 53.444505 
L 329.084653 53.444505 
z
" clip-path="url(#p8e54604beb)" style="fill: #ebeced"/>
   </g>
   <g id="patch_134">
    <path d="M 329.084653 106.953038 
L 373.119196 106.953038 
L 373.119196 103.359181 
L 329.084653 103.359181 
z
" clip-path="url(#p8e54604beb)" style="fill: #ebeced"/>
   </g>
   <g id="patch_135">
    <path d="M 329.084653 7.123686 
L 373.119196 7.123686 
L 373.119196 3.529829 
L 329.084653 3.529829 
z
" clip-path="url(#p8e54604beb)" style="fill: #ebeced"/>
   </g>
   <g id="patch_136">
    <path d="M 377.033378 15.509352 
L 421.067921 15.509352 
L 421.067921 11.915495 
L 377.033378 11.915495 
z
" clip-path="url(#p8e54604beb)" style="fill: #ebeced"/>
   </g>
   <g id="patch_137">
    <path d="M 377.033378 65.424027 
L 421.067921 65.424027 
L 421.067921 61.830171 
L 377.033378 61.830171 
z
" clip-path="url(#p8e54604beb)" style="fill: #ebeced"/>
   </g>
   <g id="patch_138">
    <path d="M 377.033378 20.700478 
L 421.067921 20.700478 
L 421.067921 17.106621 
L 377.033378 17.106621 
z
" clip-path="url(#p8e54604beb)" style="fill: #ebeced"/>
   </g>
   <g id="patch_139">
    <path d="M 377.033378 70.615154 
L 421.067921 70.615154 
L 421.067921 67.021297 
L 377.033378 67.021297 
z
" clip-path="url(#p8e54604beb)" style="fill: #ebeced"/>
   </g>
   <g id="patch_140">
    <path d="M 377.033378 25.891604 
L 421.067921 25.891604 
L 421.067921 22.297748 
L 377.033378 22.297748 
z
" clip-path="url(#p8e54604beb)" style="fill: #ebeced"/>
   </g>
   <g id="patch_141">
    <path d="M 377.033378 75.80628 
L 421.067921 75.80628 
L 421.067921 72.212423 
L 377.033378 72.212423 
z
" clip-path="url(#p8e54604beb)" style="fill: #ebeced"/>
   </g>
   <g id="patch_142">
    <path d="M 377.033378 31.082731 
L 421.067921 31.082731 
L 421.067921 27.488874 
L 377.033378 27.488874 
z
" clip-path="url(#p8e54604beb)" style="fill: #ebeced"/>
   </g>
   <g id="patch_143">
    <path d="M 377.033378 80.997406 
L 421.067921 80.997406 
L 421.067921 77.40355 
L 377.033378 77.40355 
z
" clip-path="url(#p8e54604beb)" style="fill: #ebeced"/>
   </g>
   <g id="patch_144">
    <path d="M 377.033378 36.273857 
L 421.067921 36.273857 
L 421.067921 32.68 
L 377.033378 32.68 
z
" clip-path="url(#p8e54604beb)" style="fill: #ebeced"/>
   </g>
   <g id="patch_145">
    <path d="M 377.033378 86.188533 
L 421.067921 86.188533 
L 421.067921 82.594676 
L 377.033378 82.594676 
z
" clip-path="url(#p8e54604beb)" style="fill: #ebeced"/>
   </g>
   <g id="patch_146">
    <path d="M 377.033378 41.464983 
L 421.067921 41.464983 
L 421.067921 37.871126 
L 377.033378 37.871126 
z
" clip-path="url(#p8e54604beb)" style="fill: #ebeced"/>
   </g>
   <g id="patch_147">
    <path d="M 377.033378 91.379659 
L 421.067921 91.379659 
L 421.067921 87.785802 
L 377.033378 87.785802 
z
" clip-path="url(#p8e54604beb)" style="fill: #ebeced"/>
   </g>
   <g id="patch_148">
    <path d="M 377.033378 46.656109 
L 421.067921 46.656109 
L 421.067921 43.062253 
L 377.033378 43.062253 
z
" clip-path="url(#p8e54604beb)" style="fill: #ebeced"/>
   </g>
   <g id="patch_149">
    <path d="M 377.033378 96.570785 
L 421.067921 96.570785 
L 421.067921 92.976928 
L 377.033378 92.976928 
z
" clip-path="url(#p8e54604beb)" style="fill: #ebeced"/>
   </g>
   <g id="patch_150">
    <path d="M 377.033378 51.847236 
L 421.067921 51.847236 
L 421.067921 48.253379 
L 377.033378 48.253379 
z
" clip-path="url(#p8e54604beb)" style="fill: #ebeced"/>
   </g>
   <g id="patch_151">
    <path d="M 377.033378 101.761911 
L 421.067921 101.761911 
L 421.067921 98.168055 
L 377.033378 98.168055 
z
" clip-path="url(#p8e54604beb)" style="fill: #ebeced"/>
   </g>
   <g id="patch_152">
    <path d="M 377.033378 57.038362 
L 421.067921 57.038362 
L 421.067921 53.444505 
L 377.033378 53.444505 
z
" clip-path="url(#p8e54604beb)" style="fill: #ebeced"/>
   </g>
   <g id="patch_153">
    <path d="M 377.033378 106.953038 
L 421.067921 106.953038 
L 421.067921 103.359181 
L 377.033378 103.359181 
z
" clip-path="url(#p8e54604beb)" style="fill: #ebeced"/>
   </g>
   <g id="patch_154">
    <path d="M 377.033378 7.123686 
L 421.067921 7.123686 
L 421.067921 3.529829 
L 377.033378 3.529829 
z
" clip-path="url(#p8e54604beb)" style="fill: #ebeced"/>
   </g>
   <g id="patch_155">
    <path d="M 424.982102 15.509352 
L 469.016645 15.509352 
L 469.016645 11.915495 
L 424.982102 11.915495 
z
" clip-path="url(#p8e54604beb)" style="fill: #ebeced"/>
   </g>
   <g id="patch_156">
    <path d="M 424.982102 65.424027 
L 469.016645 65.424027 
L 469.016645 61.830171 
L 424.982102 61.830171 
z
" clip-path="url(#p8e54604beb)" style="fill: #ebeced"/>
   </g>
   <g id="patch_157">
    <path d="M 424.982102 20.700478 
L 469.016645 20.700478 
L 469.016645 17.106621 
L 424.982102 17.106621 
z
" clip-path="url(#p8e54604beb)" style="fill: #ebeced"/>
   </g>
   <g id="patch_158">
    <path d="M 424.982102 70.615154 
L 469.016645 70.615154 
L 469.016645 67.021297 
L 424.982102 67.021297 
z
" clip-path="url(#p8e54604beb)" style="fill: #ebeced"/>
   </g>
   <g id="patch_159">
    <path d="M 424.982102 25.891604 
L 469.016645 25.891604 
L 469.016645 22.297748 
L 424.982102 22.297748 
z
" clip-path="url(#p8e54604beb)" style="fill: #ebeced"/>
   </g>
   <g id="patch_160">
    <path d="M 424.982102 75.80628 
L 469.016645 75.80628 
L 469.016645 72.212423 
L 424.982102 72.212423 
z
" clip-path="url(#p8e54604beb)" style="fill: #ebeced"/>
   </g>
   <g id="patch_161">
    <path d="M 424.982102 31.082731 
L 469.016645 31.082731 
L 469.016645 27.488874 
L 424.982102 27.488874 
z
" clip-path="url(#p8e54604beb)" style="fill: #ebeced"/>
   </g>
   <g id="patch_162">
    <path d="M 424.982102 80.997406 
L 469.016645 80.997406 
L 469.016645 77.40355 
L 424.982102 77.40355 
z
" clip-path="url(#p8e54604beb)" style="fill: #ebeced"/>
   </g>
   <g id="patch_163">
    <path d="M 424.982102 36.273857 
L 469.016645 36.273857 
L 469.016645 32.68 
L 424.982102 32.68 
z
" clip-path="url(#p8e54604beb)" style="fill: #ebeced"/>
   </g>
   <g id="patch_164">
    <path d="M 424.982102 86.188533 
L 469.016645 86.188533 
L 469.016645 82.594676 
L 424.982102 82.594676 
z
" clip-path="url(#p8e54604beb)" style="fill: #ebeced"/>
   </g>
   <g id="patch_165">
    <path d="M 424.982102 41.464983 
L 469.016645 41.464983 
L 469.016645 37.871126 
L 424.982102 37.871126 
z
" clip-path="url(#p8e54604beb)" style="fill: #ebeced"/>
   </g>
   <g id="patch_166">
    <path d="M 424.982102 91.379659 
L 469.016645 91.379659 
L 469.016645 87.785802 
L 424.982102 87.785802 
z
" clip-path="url(#p8e54604beb)" style="fill: #ebeced"/>
   </g>
   <g id="patch_167">
    <path d="M 424.982102 46.656109 
L 469.016645 46.656109 
L 469.016645 43.062253 
L 424.982102 43.062253 
z
" clip-path="url(#p8e54604beb)" style="fill: #ebeced"/>
   </g>
   <g id="patch_168">
    <path d="M 424.982102 96.570785 
L 469.016645 96.570785 
L 469.016645 92.976928 
L 424.982102 92.976928 
z
" clip-path="url(#p8e54604beb)" style="fill: #ebeced"/>
   </g>
   <g id="patch_169">
    <path d="M 424.982102 51.847236 
L 469.016645 51.847236 
L 469.016645 48.253379 
L 424.982102 48.253379 
z
" clip-path="url(#p8e54604beb)" style="fill: #ebeced"/>
   </g>
   <g id="patch_170">
    <path d="M 424.982102 101.761911 
L 469.016645 101.761911 
L 469.016645 98.168055 
L 424.982102 98.168055 
z
" clip-path="url(#p8e54604beb)" style="fill: #ebeced"/>
   </g>
   <g id="patch_171">
    <path d="M 424.982102 57.038362 
L 469.016645 57.038362 
L 469.016645 53.444505 
L 424.982102 53.444505 
z
" clip-path="url(#p8e54604beb)" style="fill: #ebeced"/>
   </g>
   <g id="patch_172">
    <path d="M 424.982102 106.953038 
L 469.016645 106.953038 
L 469.016645 103.359181 
L 424.982102 103.359181 
z
" clip-path="url(#p8e54604beb)" style="fill: #ebeced"/>
   </g>
   <g id="patch_173">
    <path d="M 424.982102 7.123686 
L 469.016645 7.123686 
L 469.016645 3.529829 
L 424.982102 3.529829 
z
" clip-path="url(#p8e54604beb)" style="fill: #ebeced"/>
   </g>
   <g id="patch_174">
    <path d="M 472.930827 15.509352 
L 516.96537 15.509352 
L 516.96537 11.915495 
L 472.930827 11.915495 
z
" clip-path="url(#p8e54604beb)" style="fill: #ebeced"/>
   </g>
   <g id="patch_175">
    <path d="M 472.930827 65.424027 
L 516.96537 65.424027 
L 516.96537 61.830171 
L 472.930827 61.830171 
z
" clip-path="url(#p8e54604beb)" style="fill: #ebeced"/>
   </g>
   <g id="patch_176">
    <path d="M 472.930827 20.700478 
L 516.96537 20.700478 
L 516.96537 17.106621 
L 472.930827 17.106621 
z
" clip-path="url(#p8e54604beb)" style="fill: #ebeced"/>
   </g>
   <g id="patch_177">
    <path d="M 472.930827 70.615154 
L 516.96537 70.615154 
L 516.96537 67.021297 
L 472.930827 67.021297 
z
" clip-path="url(#p8e54604beb)" style="fill: #ebeced"/>
   </g>
   <g id="patch_178">
    <path d="M 472.930827 25.891604 
L 516.96537 25.891604 
L 516.96537 22.297748 
L 472.930827 22.297748 
z
" clip-path="url(#p8e54604beb)" style="fill: #ebeced"/>
   </g>
   <g id="patch_179">
    <path d="M 472.930827 75.80628 
L 516.96537 75.80628 
L 516.96537 72.212423 
L 472.930827 72.212423 
z
" clip-path="url(#p8e54604beb)" style="fill: #ebeced"/>
   </g>
   <g id="patch_180">
    <path d="M 472.930827 31.082731 
L 516.96537 31.082731 
L 516.96537 27.488874 
L 472.930827 27.488874 
z
" clip-path="url(#p8e54604beb)" style="fill: #ebeced"/>
   </g>
   <g id="patch_181">
    <path d="M 472.930827 80.997406 
L 516.96537 80.997406 
L 516.96537 77.40355 
L 472.930827 77.40355 
z
" clip-path="url(#p8e54604beb)" style="fill: #ebeced"/>
   </g>
   <g id="patch_182">
    <path d="M 472.930827 36.273857 
L 516.96537 36.273857 
L 516.96537 32.68 
L 472.930827 32.68 
z
" clip-path="url(#p8e54604beb)" style="fill: #ebeced"/>
   </g>
   <g id="patch_183">
    <path d="M 472.930827 86.188533 
L 516.96537 86.188533 
L 516.96537 82.594676 
L 472.930827 82.594676 
z
" clip-path="url(#p8e54604beb)" style="fill: #ebeced"/>
   </g>
   <g id="patch_184">
    <path d="M 472.930827 41.464983 
L 516.96537 41.464983 
L 516.96537 37.871126 
L 472.930827 37.871126 
z
" clip-path="url(#p8e54604beb)" style="fill: #ebeced"/>
   </g>
   <g id="patch_185">
    <path d="M 472.930827 91.379659 
L 516.96537 91.379659 
L 516.96537 87.785802 
L 472.930827 87.785802 
z
" clip-path="url(#p8e54604beb)" style="fill: #ebeced"/>
   </g>
   <g id="patch_186">
    <path d="M 472.930827 46.656109 
L 516.96537 46.656109 
L 516.96537 43.062253 
L 472.930827 43.062253 
z
" clip-path="url(#p8e54604beb)" style="fill: #ebeced"/>
   </g>
   <g id="patch_187">
    <path d="M 472.930827 96.570785 
L 516.96537 96.570785 
L 516.96537 92.976928 
L 472.930827 92.976928 
z
" clip-path="url(#p8e54604beb)" style="fill: #ebeced"/>
   </g>
   <g id="patch_188">
    <path d="M 472.930827 51.847236 
L 516.96537 51.847236 
L 516.96537 48.253379 
L 472.930827 48.253379 
z
" clip-path="url(#p8e54604beb)" style="fill: #ebeced"/>
   </g>
   <g id="patch_189">
    <path d="M 472.930827 101.761911 
L 516.96537 101.761911 
L 516.96537 98.168055 
L 472.930827 98.168055 
z
" clip-path="url(#p8e54604beb)" style="fill: #ebeced"/>
   </g>
   <g id="patch_190">
    <path d="M 472.930827 57.038362 
L 516.96537 57.038362 
L 516.96537 53.444505 
L 472.930827 53.444505 
z
" clip-path="url(#p8e54604beb)" style="fill: #ebeced"/>
   </g>
   <g id="patch_191">
    <path d="M 472.930827 106.953038 
L 516.96537 106.953038 
L 516.96537 103.359181 
L 472.930827 103.359181 
z
" clip-path="url(#p8e54604beb)" style="fill: #ebeced"/>
   </g>
   <g id="patch_192">
    <path d="M 472.930827 7.123686 
L 516.96537 7.123686 
L 516.96537 3.529829 
L 472.930827 3.529829 
z
" clip-path="url(#p8e54604beb)" style="fill: #ebeced"/>
   </g>
   <g id="patch_193">
    <path d="M 520.879551 15.509352 
L 564.914094 15.509352 
L 564.914094 11.915495 
L 520.879551 11.915495 
z
" clip-path="url(#p8e54604beb)" style="fill: #ebeced"/>
   </g>
   <g id="patch_194">
    <path d="M 520.879551 65.424027 
L 564.914094 65.424027 
L 564.914094 61.830171 
L 520.879551 61.830171 
z
" clip-path="url(#p8e54604beb)" style="fill: #ebeced"/>
   </g>
   <g id="patch_195">
    <path d="M 520.879551 20.700478 
L 564.914094 20.700478 
L 564.914094 17.106621 
L 520.879551 17.106621 
z
" clip-path="url(#p8e54604beb)" style="fill: #ebeced"/>
   </g>
   <g id="patch_196">
    <path d="M 520.879551 70.615154 
L 564.914094 70.615154 
L 564.914094 67.021297 
L 520.879551 67.021297 
z
" clip-path="url(#p8e54604beb)" style="fill: #ebeced"/>
   </g>
   <g id="patch_197">
    <path d="M 520.879551 25.891604 
L 564.914094 25.891604 
L 564.914094 22.297748 
L 520.879551 22.297748 
z
" clip-path="url(#p8e54604beb)" style="fill: #ebeced"/>
   </g>
   <g id="patch_198">
    <path d="M 520.879551 75.80628 
L 564.914094 75.80628 
L 564.914094 72.212423 
L 520.879551 72.212423 
z
" clip-path="url(#p8e54604beb)" style="fill: #ebeced"/>
   </g>
   <g id="patch_199">
    <path d="M 520.879551 31.082731 
L 564.914094 31.082731 
L 564.914094 27.488874 
L 520.879551 27.488874 
z
" clip-path="url(#p8e54604beb)" style="fill: #ebeced"/>
   </g>
   <g id="patch_200">
    <path d="M 520.879551 80.997406 
L 564.914094 80.997406 
L 564.914094 77.40355 
L 520.879551 77.40355 
z
" clip-path="url(#p8e54604beb)" style="fill: #ebeced"/>
   </g>
   <g id="patch_201">
    <path d="M 520.879551 36.273857 
L 564.914094 36.273857 
L 564.914094 32.68 
L 520.879551 32.68 
z
" clip-path="url(#p8e54604beb)" style="fill: #ebeced"/>
   </g>
   <g id="patch_202">
    <path d="M 520.879551 86.188533 
L 564.914094 86.188533 
L 564.914094 82.594676 
L 520.879551 82.594676 
z
" clip-path="url(#p8e54604beb)" style="fill: #ebeced"/>
   </g>
   <g id="patch_203">
    <path d="M 520.879551 41.464983 
L 564.914094 41.464983 
L 564.914094 37.871126 
L 520.879551 37.871126 
z
" clip-path="url(#p8e54604beb)" style="fill: #ebeced"/>
   </g>
   <g id="patch_204">
    <path d="M 520.879551 91.379659 
L 564.914094 91.379659 
L 564.914094 87.785802 
L 520.879551 87.785802 
z
" clip-path="url(#p8e54604beb)" style="fill: #ebeced"/>
   </g>
   <g id="patch_205">
    <path d="M 520.879551 46.656109 
L 564.914094 46.656109 
L 564.914094 43.062253 
L 520.879551 43.062253 
z
" clip-path="url(#p8e54604beb)" style="fill: #ebeced"/>
   </g>
   <g id="patch_206">
    <path d="M 520.879551 96.570785 
L 564.914094 96.570785 
L 564.914094 92.976928 
L 520.879551 92.976928 
z
" clip-path="url(#p8e54604beb)" style="fill: #ebeced"/>
   </g>
   <g id="patch_207">
    <path d="M 520.879551 51.847236 
L 564.914094 51.847236 
L 564.914094 48.253379 
L 520.879551 48.253379 
z
" clip-path="url(#p8e54604beb)" style="fill: #ebeced"/>
   </g>
   <g id="patch_208">
    <path d="M 520.879551 101.761911 
L 564.914094 101.761911 
L 564.914094 98.168055 
L 520.879551 98.168055 
z
" clip-path="url(#p8e54604beb)" style="fill: #ebeced"/>
   </g>
   <g id="patch_209">
    <path d="M 520.879551 57.038362 
L 564.914094 57.038362 
L 564.914094 53.444505 
L 520.879551 53.444505 
z
" clip-path="url(#p8e54604beb)" style="fill: #ebeced"/>
   </g>
   <g id="patch_210">
    <path d="M 520.879551 106.953038 
L 564.914094 106.953038 
L 564.914094 103.359181 
L 520.879551 103.359181 
z
" clip-path="url(#p8e54604beb)" style="fill: #ebeced"/>
   </g>
   <g id="patch_211">
    <path d="M 520.879551 7.123686 
L 564.914094 7.123686 
L 564.914094 3.529829 
L 520.879551 3.529829 
z
" clip-path="url(#p8e54604beb)" style="fill: #ebeced"/>
   </g>
   <g id="patch_212">
    <path d="M 568.828276 15.509352 
L 612.862819 15.509352 
L 612.862819 11.915495 
L 568.828276 11.915495 
z
" clip-path="url(#p8e54604beb)" style="fill: #ebeced"/>
   </g>
   <g id="patch_213">
    <path d="M 568.828276 65.424027 
L 612.862819 65.424027 
L 612.862819 61.830171 
L 568.828276 61.830171 
z
" clip-path="url(#p8e54604beb)" style="fill: #ebeced"/>
   </g>
   <g id="patch_214">
    <path d="M 568.828276 20.700478 
L 612.862819 20.700478 
L 612.862819 17.106621 
L 568.828276 17.106621 
z
" clip-path="url(#p8e54604beb)" style="fill: #ebeced"/>
   </g>
   <g id="patch_215">
    <path d="M 568.828276 70.615154 
L 612.862819 70.615154 
L 612.862819 67.021297 
L 568.828276 67.021297 
z
" clip-path="url(#p8e54604beb)" style="fill: #ebeced"/>
   </g>
   <g id="patch_216">
    <path d="M 568.828276 25.891604 
L 612.862819 25.891604 
L 612.862819 22.297748 
L 568.828276 22.297748 
z
" clip-path="url(#p8e54604beb)" style="fill: #ebeced"/>
   </g>
   <g id="patch_217">
    <path d="M 568.828276 75.80628 
L 612.862819 75.80628 
L 612.862819 72.212423 
L 568.828276 72.212423 
z
" clip-path="url(#p8e54604beb)" style="fill: #ebeced"/>
   </g>
   <g id="patch_218">
    <path d="M 568.828276 31.082731 
L 612.862819 31.082731 
L 612.862819 27.488874 
L 568.828276 27.488874 
z
" clip-path="url(#p8e54604beb)" style="fill: #ebeced"/>
   </g>
   <g id="patch_219">
    <path d="M 568.828276 80.997406 
L 612.862819 80.997406 
L 612.862819 77.40355 
L 568.828276 77.40355 
z
" clip-path="url(#p8e54604beb)" style="fill: #ebeced"/>
   </g>
   <g id="patch_220">
    <path d="M 568.828276 36.273857 
L 612.862819 36.273857 
L 612.862819 32.68 
L 568.828276 32.68 
z
" clip-path="url(#p8e54604beb)" style="fill: #ebeced"/>
   </g>
   <g id="patch_221">
    <path d="M 568.828276 86.188533 
L 612.862819 86.188533 
L 612.862819 82.594676 
L 568.828276 82.594676 
z
" clip-path="url(#p8e54604beb)" style="fill: #ebeced"/>
   </g>
   <g id="patch_222">
    <path d="M 568.828276 41.464983 
L 612.862819 41.464983 
L 612.862819 37.871126 
L 568.828276 37.871126 
z
" clip-path="url(#p8e54604beb)" style="fill: #ebeced"/>
   </g>
   <g id="patch_223">
    <path d="M 568.828276 91.379659 
L 612.862819 91.379659 
L 612.862819 87.785802 
L 568.828276 87.785802 
z
" clip-path="url(#p8e54604beb)" style="fill: #ebeced"/>
   </g>
   <g id="patch_224">
    <path d="M 568.828276 46.656109 
L 612.862819 46.656109 
L 612.862819 43.062253 
L 568.828276 43.062253 
z
" clip-path="url(#p8e54604beb)" style="fill: #ebeced"/>
   </g>
   <g id="patch_225">
    <path d="M 568.828276 96.570785 
L 612.862819 96.570785 
L 612.862819 92.976928 
L 568.828276 92.976928 
z
" clip-path="url(#p8e54604beb)" style="fill: #ebeced"/>
   </g>
   <g id="patch_226">
    <path d="M 568.828276 51.847236 
L 612.862819 51.847236 
L 612.862819 48.253379 
L 568.828276 48.253379 
z
" clip-path="url(#p8e54604beb)" style="fill: #ebeced"/>
   </g>
   <g id="patch_227">
    <path d="M 568.828276 101.761911 
L 612.862819 101.761911 
L 612.862819 98.168055 
L 568.828276 98.168055 
z
" clip-path="url(#p8e54604beb)" style="fill: #ebeced"/>
   </g>
   <g id="patch_228">
    <path d="M 568.828276 57.038362 
L 612.862819 57.038362 
L 612.862819 53.444505 
L 568.828276 53.444505 
z
" clip-path="url(#p8e54604beb)" style="fill: #ebeced"/>
   </g>
   <g id="patch_229">
    <path d="M 568.828276 106.953038 
L 612.862819 106.953038 
L 612.862819 103.359181 
L 568.828276 103.359181 
z
" clip-path="url(#p8e54604beb)" style="fill: #ebeced"/>
   </g>
   <g id="patch_230">
    <path d="M 568.828276 7.123686 
L 612.862819 7.123686 
L 612.862819 3.529829 
L 568.828276 3.529829 
z
" clip-path="url(#p8e54604beb)" style="fill: #ebeced"/>
   </g>
   <g id="matplotlib.axis_1"/>
   <g id="matplotlib.axis_2"/>
   <g id="patch_231">
    <path d="M 41.392306 36.273857 
L 85.426849 36.273857 
L 85.426849 32.68 
L 41.392306 32.68 
z
" clip-path="url(#p8e54604beb)" style="fill: #e36aae"/>
   </g>
   <g id="patch_232">
    <path d="M 41.392306 86.188533 
L 85.426849 86.188533 
L 85.426849 82.594676 
L 41.392306 82.594676 
z
" clip-path="url(#p8e54604beb)" style="fill: #e36aae"/>
   </g>
   <g id="patch_233">
    <path d="M 89.341031 51.847236 
L 133.375574 51.847236 
L 133.375574 48.253379 
L 89.341031 48.253379 
z
" clip-path="url(#p8e54604beb)" style="fill: #dbdc8d"/>
   </g>
   <g id="patch_234">
    <path d="M 89.341031 101.761911 
L 133.375574 101.761911 
L 133.375574 98.168055 
L 89.341031 98.168055 
z
" clip-path="url(#p8e54604beb)" style="fill: #dbdc8d"/>
   </g>
   <g id="patch_235">
    <path d="M 137.289755 36.273857 
L 181.324298 36.273857 
L 181.324298 32.68 
L 137.289755 32.68 
z
" clip-path="url(#p8e54604beb)" style="fill: #e36aae"/>
   </g>
   <g id="patch_236">
    <path d="M 137.289755 86.188533 
L 181.324298 86.188533 
L 181.324298 82.594676 
L 137.289755 82.594676 
z
" clip-path="url(#p8e54604beb)" style="fill: #e36aae"/>
   </g>
   <g id="patch_237">
    <path d="M 186.461661 15.509352 
L 187.073252 15.509352 
L 187.073252 11.915495 
L 186.461661 11.915495 
z
" clip-path="url(#p8e54604beb)" style="fill: #1f5aa6"/>
   </g>
   <g id="patch_238">
    <path d="M 188.663389 15.509352 
L 193.066843 15.509352 
L 193.066843 11.915495 
L 188.663389 11.915495 
z
" clip-path="url(#p8e54604beb)" style="fill: #1f5aa6"/>
   </g>
   <g id="patch_239">
    <path d="M 185.23848 65.424027 
L 193.066843 65.424027 
L 193.066843 61.830171 
L 185.23848 61.830171 
z
" clip-path="url(#p8e54604beb)" style="fill: #1f5aa6"/>
   </g>
   <g id="patch_240">
    <path d="M 185.23848 51.847236 
L 186.461661 51.847236 
L 186.461661 48.253379 
L 185.23848 48.253379 
z
" clip-path="url(#p8e54604beb)" style="fill: #dbdc8d"/>
   </g>
   <g id="patch_241">
    <path d="M 187.073252 51.847236 
L 188.663389 51.847236 
L 188.663389 48.253379 
L 187.073252 48.253379 
z
" clip-path="url(#p8e54604beb)" style="fill: #dbdc8d"/>
   </g>
   <g id="patch_242">
    <path d="M 193.066843 51.847236 
L 229.273023 51.847236 
L 229.273023 48.253379 
L 193.066843 48.253379 
z
" clip-path="url(#p8e54604beb)" style="fill: #dbdc8d"/>
   </g>
   <g id="patch_243">
    <path d="M 193.066843 101.761911 
L 229.273023 101.761911 
L 229.273023 98.168055 
L 193.066843 98.168055 
z
" clip-path="url(#p8e54604beb)" style="fill: #dbdc8d"/>
   </g>
   <g id="patch_244">
    <path d="M 185.23848 7.123686 
L 186.461661 7.123686 
L 186.461661 3.529829 
L 185.23848 3.529829 
z
" clip-path="url(#p8e54604beb)" style="fill: #1f5aa6"/>
   </g>
   <g id="patch_245">
    <path d="M 187.073252 7.123686 
L 188.663389 7.123686 
L 188.663389 3.529829 
L 187.073252 3.529829 
z
" clip-path="url(#p8e54604beb)" style="fill: #1f5aa6"/>
   </g>
   <g id="patch_246">
    <path d="M 271.962066 15.509352 
L 277.221747 15.509352 
L 277.221747 11.915495 
L 271.962066 11.915495 
z
" clip-path="url(#p8e54604beb)" style="fill: #1f5aa6"/>
   </g>
   <g id="patch_247">
    <path d="M 265.846157 65.424027 
L 268.414839 65.424027 
L 268.414839 61.830171 
L 265.846157 61.830171 
z
" clip-path="url(#p8e54604beb)" style="fill: #1f5aa6"/>
   </g>
   <g id="patch_248">
    <path d="M 271.472793 65.424027 
L 271.717429 65.424027 
L 271.717429 61.830171 
L 271.472793 61.830171 
z
" clip-path="url(#p8e54604beb)" style="fill: #1f5aa6"/>
   </g>
   <g id="patch_249">
    <path d="M 271.839747 65.424027 
L 277.221747 65.424027 
L 277.221747 61.830171 
L 271.839747 61.830171 
z
" clip-path="url(#p8e54604beb)" style="fill: #1f5aa6"/>
   </g>
   <g id="patch_250">
    <path d="M 235.51125 91.379659 
L 235.633568 91.379659 
L 235.633568 87.785802 
L 235.51125 87.785802 
z
" clip-path="url(#p8e54604beb)" style="fill: #a7a9ac"/>
   </g>
   <g id="patch_251">
    <path d="M 235.755886 91.379659 
L 236.245159 91.379659 
L 236.245159 87.785802 
L 235.755886 87.785802 
z
" clip-path="url(#p8e54604beb)" style="fill: #a7a9ac"/>
   </g>
   <g id="patch_252">
    <path d="M 236.489795 91.379659 
L 237.101386 91.379659 
L 237.101386 87.785802 
L 236.489795 87.785802 
z
" clip-path="url(#p8e54604beb)" style="fill: #a7a9ac"/>
   </g>
   <g id="patch_253">
    <path d="M 266.824702 51.847236 
L 271.962066 51.847236 
L 271.962066 48.253379 
L 266.824702 48.253379 
z
" clip-path="url(#p8e54604beb)" style="fill: #dbdc8d"/>
   </g>
   <g id="patch_254">
    <path d="M 268.414839 101.761911 
L 271.472793 101.761911 
L 271.472793 98.168055 
L 268.414839 98.168055 
z
" clip-path="url(#p8e54604beb)" style="fill: #dbdc8d"/>
   </g>
   <g id="patch_255">
    <path d="M 271.717429 101.761911 
L 271.839747 101.761911 
L 271.839747 98.168055 
L 271.717429 98.168055 
z
" clip-path="url(#p8e54604beb)" style="fill: #dbdc8d"/>
   </g>
   <g id="patch_256">
    <path d="M 233.187204 57.038362 
L 266.824702 57.038362 
L 266.824702 53.444505 
L 233.187204 53.444505 
z
" clip-path="url(#p8e54604beb)" style="fill: #9edae6"/>
   </g>
   <g id="patch_257">
    <path d="M 233.187204 106.953038 
L 235.51125 106.953038 
L 235.51125 103.359181 
L 233.187204 103.359181 
z
" clip-path="url(#p8e54604beb)" style="fill: #9edae6"/>
   </g>
   <g id="patch_258">
    <path d="M 235.633568 106.953038 
L 235.755886 106.953038 
L 235.755886 103.359181 
L 235.633568 103.359181 
z
" clip-path="url(#p8e54604beb)" style="fill: #9edae6"/>
   </g>
   <g id="patch_259">
    <path d="M 236.245159 106.953038 
L 236.489795 106.953038 
L 236.489795 103.359181 
L 236.245159 103.359181 
z
" clip-path="url(#p8e54604beb)" style="fill: #9edae6"/>
   </g>
   <g id="patch_260">
    <path d="M 237.101386 106.953038 
L 265.846157 106.953038 
L 265.846157 103.359181 
L 237.101386 103.359181 
z
" clip-path="url(#p8e54604beb)" style="fill: #9edae6"/>
   </g>
   <g id="patch_261">
    <path d="M 235.51125 7.123686 
L 235.633568 7.123686 
L 235.633568 3.529829 
L 235.51125 3.529829 
z
" clip-path="url(#p8e54604beb)" style="fill: #a7a9ac"/>
   </g>
   <g id="patch_262">
    <path d="M 235.755886 7.123686 
L 236.245159 7.123686 
L 236.245159 3.529829 
L 235.755886 3.529829 
z
" clip-path="url(#p8e54604beb)" style="fill: #a7a9ac"/>
   </g>
   <g id="patch_263">
    <path d="M 236.489795 7.123686 
L 237.101386 7.123686 
L 237.101386 3.529829 
L 236.489795 3.529829 
z
" clip-path="url(#p8e54604beb)" style="fill: #a7a9ac"/>
   </g>
   <g id="patch_264">
    <path d="M 265.846157 7.123686 
L 268.414839 7.123686 
L 268.414839 3.529829 
L 265.846157 3.529829 
z
" clip-path="url(#p8e54604beb)" style="fill: #1f5aa6"/>
   </g>
   <g id="patch_265">
    <path d="M 271.472793 7.123686 
L 271.717429 7.123686 
L 271.717429 3.529829 
L 271.472793 3.529829 
z
" clip-path="url(#p8e54604beb)" style="fill: #1f5aa6"/>
   </g>
   <g id="patch_266">
    <path d="M 271.839747 7.123686 
L 271.962066 7.123686 
L 271.962066 3.529829 
L 271.839747 3.529829 
z
" clip-path="url(#p8e54604beb)" style="fill: #1f5aa6"/>
   </g>
   <g id="patch_267">
    <path d="M 300.951473 15.509352 
L 301.073791 15.509352 
L 301.073791 11.915495 
L 300.951473 11.915495 
z
" clip-path="url(#p8e54604beb)" style="fill: #1f5aa6"/>
   </g>
   <g id="patch_268">
    <path d="M 312.449382 65.424027 
L 315.385018 65.424027 
L 315.385018 61.830171 
L 312.449382 61.830171 
z
" clip-path="url(#p8e54604beb)" style="fill: #1f5aa6"/>
   </g>
   <g id="patch_269">
    <path d="M 315.507336 65.424027 
L 315.751972 65.424027 
L 315.751972 61.830171 
L 315.507336 61.830171 
z
" clip-path="url(#p8e54604beb)" style="fill: #1f5aa6"/>
   </g>
   <g id="patch_270">
    <path d="M 320.889336 51.847236 
L 325.170472 51.847236 
L 325.170472 48.253379 
L 320.889336 48.253379 
z
" clip-path="url(#p8e54604beb)" style="fill: #dbdc8d"/>
   </g>
   <g id="patch_271">
    <path d="M 281.135929 57.038362 
L 300.951473 57.038362 
L 300.951473 53.444505 
L 281.135929 53.444505 
z
" clip-path="url(#p8e54604beb)" style="fill: #9edae6"/>
   </g>
   <g id="patch_272">
    <path d="M 301.073791 57.038362 
L 320.889336 57.038362 
L 320.889336 53.444505 
L 301.073791 53.444505 
z
" clip-path="url(#p8e54604beb)" style="fill: #9edae6"/>
   </g>
   <g id="patch_273">
    <path d="M 281.135929 106.953038 
L 312.449382 106.953038 
L 312.449382 103.359181 
L 281.135929 103.359181 
z
" clip-path="url(#p8e54604beb)" style="fill: #9edae6"/>
   </g>
   <g id="patch_274">
    <path d="M 315.385018 106.953038 
L 315.507336 106.953038 
L 315.507336 103.359181 
L 315.385018 103.359181 
z
" clip-path="url(#p8e54604beb)" style="fill: #9edae6"/>
   </g>
   <g id="patch_275">
    <path d="M 315.751972 106.953038 
L 325.170472 106.953038 
L 325.170472 103.359181 
L 315.751972 103.359181 
z
" clip-path="url(#p8e54604beb)" style="fill: #9edae6"/>
   </g>
   <g id="patch_276">
    <path d="M 300.951473 7.123686 
L 301.073791 7.123686 
L 301.073791 3.529829 
L 300.951473 3.529829 
z
" clip-path="url(#p8e54604beb)" style="fill: #9edae6"/>
   </g>
   <g id="patch_277">
    <path d="M 312.449382 7.123686 
L 315.385018 7.123686 
L 315.385018 3.529829 
L 312.449382 3.529829 
z
" clip-path="url(#p8e54604beb)" style="fill: #1f5aa6"/>
   </g>
   <g id="patch_278">
    <path d="M 315.507336 7.123686 
L 315.751972 7.123686 
L 315.751972 3.529829 
L 315.507336 3.529829 
z
" clip-path="url(#p8e54604beb)" style="fill: #1f5aa6"/>
   </g>
   <g id="patch_279">
    <path d="M 320.889336 7.123686 
L 325.170472 7.123686 
L 325.170472 3.529829 
L 320.889336 3.529829 
z
" clip-path="url(#p8e54604beb)" style="fill: #9edae6"/>
   </g>
   <g id="patch_280">
    <path d="M 355.505379 65.424027 
L 357.340152 65.424027 
L 357.340152 61.830171 
L 355.505379 61.830171 
z
" clip-path="url(#p8e54604beb)" style="fill: #1f5aa6"/>
   </g>
   <g id="patch_281">
    <path d="M 360.398106 65.424027 
L 364.312288 65.424027 
L 364.312288 61.830171 
L 360.398106 61.830171 
z
" clip-path="url(#p8e54604beb)" style="fill: #1f5aa6"/>
   </g>
   <g id="patch_282">
    <path d="M 360.887379 36.273857 
L 373.119196 36.273857 
L 373.119196 32.68 
L 360.887379 32.68 
z
" clip-path="url(#p8e54604beb)" style="fill: #e36aae"/>
   </g>
   <g id="patch_283">
    <path d="M 364.312288 86.188533 
L 373.119196 86.188533 
L 373.119196 82.594676 
L 364.312288 82.594676 
z
" clip-path="url(#p8e54604beb)" style="fill: #e36aae"/>
   </g>
   <g id="patch_284">
    <path d="M 329.084653 51.847236 
L 360.887379 51.847236 
L 360.887379 48.253379 
L 329.084653 48.253379 
z
" clip-path="url(#p8e54604beb)" style="fill: #dbdc8d"/>
   </g>
   <g id="patch_285">
    <path d="M 329.084653 101.761911 
L 355.505379 101.761911 
L 355.505379 98.168055 
L 329.084653 98.168055 
z
" clip-path="url(#p8e54604beb)" style="fill: #dbdc8d"/>
   </g>
   <g id="patch_286">
    <path d="M 357.340152 106.953038 
L 360.398106 106.953038 
L 360.398106 103.359181 
L 357.340152 103.359181 
z
" clip-path="url(#p8e54604beb)" style="fill: #9edae6"/>
   </g>
   <g id="patch_287">
    <path d="M 355.505379 7.123686 
L 364.312288 7.123686 
L 364.312288 3.529829 
L 355.505379 3.529829 
z
" clip-path="url(#p8e54604beb)" style="fill: #1f5aa6"/>
   </g>
   <g id="patch_288">
    <path d="M 384.861741 65.424027 
L 396.604286 65.424027 
L 396.604286 61.830171 
L 384.861741 61.830171 
z
" clip-path="url(#p8e54604beb)" style="fill: #1f5aa6"/>
   </g>
   <g id="patch_289">
    <path d="M 377.033378 46.656109 
L 421.067921 46.656109 
L 421.067921 43.062253 
L 377.033378 43.062253 
z
" clip-path="url(#p8e54604beb)" style="fill: #f2856e"/>
   </g>
   <g id="patch_290">
    <path d="M 377.033378 96.570785 
L 384.861741 96.570785 
L 384.861741 92.976928 
L 377.033378 92.976928 
z
" clip-path="url(#p8e54604beb)" style="fill: #f2856e"/>
   </g>
   <g id="patch_291">
    <path d="M 396.604286 96.570785 
L 421.067921 96.570785 
L 421.067921 92.976928 
L 396.604286 92.976928 
z
" clip-path="url(#p8e54604beb)" style="fill: #f2856e"/>
   </g>
   <g id="patch_292">
    <path d="M 384.861741 7.123686 
L 396.604286 7.123686 
L 396.604286 3.529829 
L 384.861741 3.529829 
z
" clip-path="url(#p8e54604beb)" style="fill: #1f5aa6"/>
   </g>
   <g id="patch_293">
    <path d="M 424.982102 65.424027 
L 426.327602 65.424027 
L 426.327602 61.830171 
L 424.982102 61.830171 
z
" clip-path="url(#p8e54604beb)" style="fill: #1f5aa6"/>
   </g>
   <g id="patch_294">
    <path d="M 456.66251 65.424027 
L 456.784828 65.424027 
L 456.784828 61.830171 
L 456.66251 61.830171 
z
" clip-path="url(#p8e54604beb)" style="fill: #1f5aa6"/>
   </g>
   <g id="patch_295">
    <path d="M 456.907146 65.424027 
L 459.720464 65.424027 
L 459.720464 61.830171 
L 456.907146 61.830171 
z
" clip-path="url(#p8e54604beb)" style="fill: #1f5aa6"/>
   </g>
   <g id="patch_296">
    <path d="M 459.842782 65.424027 
L 460.087419 65.424027 
L 460.087419 61.830171 
L 459.842782 61.830171 
z
" clip-path="url(#p8e54604beb)" style="fill: #1f5aa6"/>
   </g>
   <g id="patch_297">
    <path d="M 424.982102 51.847236 
L 469.016645 51.847236 
L 469.016645 48.253379 
L 424.982102 48.253379 
z
" clip-path="url(#p8e54604beb)" style="fill: #dbdc8d"/>
   </g>
   <g id="patch_298">
    <path d="M 426.327602 101.761911 
L 456.66251 101.761911 
L 456.66251 98.168055 
L 426.327602 98.168055 
z
" clip-path="url(#p8e54604beb)" style="fill: #dbdc8d"/>
   </g>
   <g id="patch_299">
    <path d="M 456.784828 101.761911 
L 456.907146 101.761911 
L 456.907146 98.168055 
L 456.784828 98.168055 
z
" clip-path="url(#p8e54604beb)" style="fill: #dbdc8d"/>
   </g>
   <g id="patch_300">
    <path d="M 459.720464 106.953038 
L 459.842782 106.953038 
L 459.842782 103.359181 
L 459.720464 103.359181 
z
" clip-path="url(#p8e54604beb)" style="fill: #9edae6"/>
   </g>
   <g id="patch_301">
    <path d="M 460.087419 106.953038 
L 469.016645 106.953038 
L 469.016645 103.359181 
L 460.087419 103.359181 
z
" clip-path="url(#p8e54604beb)" style="fill: #9edae6"/>
   </g>
   <g id="patch_302">
    <path d="M 424.982102 7.123686 
L 426.327602 7.123686 
L 426.327602 3.529829 
L 424.982102 3.529829 
z
" clip-path="url(#p8e54604beb)" style="fill: #1f5aa6"/>
   </g>
   <g id="patch_303">
    <path d="M 456.66251 7.123686 
L 456.784828 7.123686 
L 456.784828 3.529829 
L 456.66251 3.529829 
z
" clip-path="url(#p8e54604beb)" style="fill: #1f5aa6"/>
   </g>
   <g id="patch_304">
    <path d="M 456.907146 7.123686 
L 469.016645 7.123686 
L 469.016645 3.529829 
L 456.907146 3.529829 
z
" clip-path="url(#p8e54604beb)" style="fill: #9edae6"/>
   </g>
   <g id="patch_305">
    <path d="M 500.330098 65.424027 
L 501.430962 65.424027 
L 501.430962 61.830171 
L 500.330098 61.830171 
z
" clip-path="url(#p8e54604beb)" style="fill: #1f5aa6"/>
   </g>
   <g id="patch_306">
    <path d="M 474.7656 36.273857 
L 516.96537 36.273857 
L 516.96537 32.68 
L 474.7656 32.68 
z
" clip-path="url(#p8e54604beb)" style="fill: #e36aae"/>
   </g>
   <g id="patch_307">
    <path d="M 472.930827 86.188533 
L 500.330098 86.188533 
L 500.330098 82.594676 
L 472.930827 82.594676 
z
" clip-path="url(#p8e54604beb)" style="fill: #e36aae"/>
   </g>
   <g id="patch_308">
    <path d="M 501.430962 86.188533 
L 504.24428 86.188533 
L 504.24428 82.594676 
L 501.430962 82.594676 
z
" clip-path="url(#p8e54604beb)" style="fill: #e36aae"/>
   </g>
   <g id="patch_309">
    <path d="M 472.930827 51.847236 
L 474.7656 51.847236 
L 474.7656 48.253379 
L 472.930827 48.253379 
z
" clip-path="url(#p8e54604beb)" style="fill: #dbdc8d"/>
   </g>
   <g id="patch_310">
    <path d="M 504.24428 101.761911 
L 516.96537 101.761911 
L 516.96537 98.168055 
L 504.24428 98.168055 
z
" clip-path="url(#p8e54604beb)" style="fill: #dbdc8d"/>
   </g>
   <g id="patch_311">
    <path d="M 472.930827 7.123686 
L 474.7656 7.123686 
L 474.7656 3.529829 
L 472.930827 3.529829 
z
" clip-path="url(#p8e54604beb)" style="fill: #e36aae"/>
   </g>
   <g id="patch_312">
    <path d="M 500.330098 7.123686 
L 501.430962 7.123686 
L 501.430962 3.529829 
L 500.330098 3.529829 
z
" clip-path="url(#p8e54604beb)" style="fill: #1f5aa6"/>
   </g>
   <g id="patch_313">
    <path d="M 504.24428 7.123686 
L 516.96537 7.123686 
L 516.96537 3.529829 
L 504.24428 3.529829 
z
" clip-path="url(#p8e54604beb)" style="fill: #dbdc8d"/>
   </g>
   <g id="patch_314">
    <path d="M 564.791776 15.509352 
L 564.914094 15.509352 
L 564.914094 11.915495 
L 564.791776 11.915495 
z
" clip-path="url(#p8e54604beb)" style="fill: #1f5aa6"/>
   </g>
   <g id="patch_315">
    <path d="M 526.016915 65.424027 
L 527.240097 65.424027 
L 527.240097 61.830171 
L 526.016915 61.830171 
z
" clip-path="url(#p8e54604beb)" style="fill: #1f5aa6"/>
   </g>
   <g id="patch_316">
    <path d="M 528.707915 65.424027 
L 529.808778 65.424027 
L 529.808778 61.830171 
L 528.707915 61.830171 
z
" clip-path="url(#p8e54604beb)" style="fill: #1f5aa6"/>
   </g>
   <g id="patch_317">
    <path d="M 529.931096 65.424027 
L 530.053415 65.424027 
L 530.053415 61.830171 
L 529.931096 61.830171 
z
" clip-path="url(#p8e54604beb)" style="fill: #1f5aa6"/>
   </g>
   <g id="patch_318">
    <path d="M 539.104959 65.424027 
L 541.429005 65.424027 
L 541.429005 61.830171 
L 539.104959 61.830171 
z
" clip-path="url(#p8e54604beb)" style="fill: #1f5aa6"/>
   </g>
   <g id="patch_319">
    <path d="M 541.551323 65.424027 
L 542.040596 65.424027 
L 542.040596 61.830171 
L 541.551323 61.830171 
z
" clip-path="url(#p8e54604beb)" style="fill: #1f5aa6"/>
   </g>
   <g id="patch_320">
    <path d="M 542.285232 65.424027 
L 542.40755 65.424027 
L 542.40755 61.830171 
L 542.285232 61.830171 
z
" clip-path="url(#p8e54604beb)" style="fill: #1f5aa6"/>
   </g>
   <g id="patch_321">
    <path d="M 553.049231 65.424027 
L 553.416186 65.424027 
L 553.416186 61.830171 
L 553.049231 61.830171 
z
" clip-path="url(#p8e54604beb)" style="fill: #1f5aa6"/>
   </g>
   <g id="patch_322">
    <path d="M 553.538504 65.424027 
L 556.107186 65.424027 
L 556.107186 61.830171 
L 553.538504 61.830171 
z
" clip-path="url(#p8e54604beb)" style="fill: #1f5aa6"/>
   </g>
   <g id="patch_323">
    <path d="M 560.021367 65.424027 
L 564.914094 65.424027 
L 564.914094 61.830171 
L 560.021367 61.830171 
z
" clip-path="url(#p8e54604beb)" style="fill: #1f5aa6"/>
   </g>
   <g id="patch_324">
    <path d="M 527.851687 25.891604 
L 539.961187 25.891604 
L 539.961187 22.297748 
L 527.851687 22.297748 
z
" clip-path="url(#p8e54604beb)" style="fill: #e97f2e"/>
   </g>
   <g id="patch_325">
    <path d="M 547.300277 25.891604 
L 550.969822 25.891604 
L 550.969822 22.297748 
L 547.300277 22.297748 
z
" clip-path="url(#p8e54604beb)" style="fill: #e97f2e"/>
   </g>
   <g id="patch_326">
    <path d="M 551.092141 25.891604 
L 553.049231 25.891604 
L 553.049231 22.297748 
L 551.092141 22.297748 
z
" clip-path="url(#p8e54604beb)" style="fill: #e97f2e"/>
   </g>
   <g id="patch_327">
    <path d="M 527.240097 75.80628 
L 528.707915 75.80628 
L 528.707915 72.212423 
L 527.240097 72.212423 
z
" clip-path="url(#p8e54604beb)" style="fill: #e97f2e"/>
   </g>
   <g id="patch_328">
    <path d="M 529.808778 75.80628 
L 529.931096 75.80628 
L 529.931096 72.212423 
L 529.808778 72.212423 
z
" clip-path="url(#p8e54604beb)" style="fill: #e97f2e"/>
   </g>
   <g id="patch_329">
    <path d="M 530.053415 75.80628 
L 539.104959 75.80628 
L 539.104959 72.212423 
L 530.053415 72.212423 
z
" clip-path="url(#p8e54604beb)" style="fill: #e97f2e"/>
   </g>
   <g id="patch_330">
    <path d="M 547.055641 75.80628 
L 553.049231 75.80628 
L 553.049231 72.212423 
L 547.055641 72.212423 
z
" clip-path="url(#p8e54604beb)" style="fill: #e97f2e"/>
   </g>
   <g id="patch_331">
    <path d="M 553.416186 75.80628 
L 553.538504 75.80628 
L 553.538504 72.212423 
L 553.416186 72.212423 
z
" clip-path="url(#p8e54604beb)" style="fill: #e97f2e"/>
   </g>
   <g id="patch_332">
    <path d="M 520.879551 31.082731 
L 527.851687 31.082731 
L 527.851687 27.488874 
L 520.879551 27.488874 
z
" clip-path="url(#p8e54604beb)" style="fill: #8c564b"/>
   </g>
   <g id="patch_333">
    <path d="M 539.961187 31.082731 
L 547.300277 31.082731 
L 547.300277 27.488874 
L 539.961187 27.488874 
z
" clip-path="url(#p8e54604beb)" style="fill: #8c564b"/>
   </g>
   <g id="patch_334">
    <path d="M 550.969822 31.082731 
L 551.092141 31.082731 
L 551.092141 27.488874 
L 550.969822 27.488874 
z
" clip-path="url(#p8e54604beb)" style="fill: #8c564b"/>
   </g>
   <g id="patch_335">
    <path d="M 553.049231 31.082731 
L 564.791776 31.082731 
L 564.791776 27.488874 
L 553.049231 27.488874 
z
" clip-path="url(#p8e54604beb)" style="fill: #8c564b"/>
   </g>
   <g id="patch_336">
    <path d="M 541.429005 80.997406 
L 541.551323 80.997406 
L 541.551323 77.40355 
L 541.429005 77.40355 
z
" clip-path="url(#p8e54604beb)" style="fill: #8c564b"/>
   </g>
   <g id="patch_337">
    <path d="M 542.040596 80.997406 
L 542.285232 80.997406 
L 542.285232 77.40355 
L 542.040596 77.40355 
z
" clip-path="url(#p8e54604beb)" style="fill: #8c564b"/>
   </g>
   <g id="patch_338">
    <path d="M 542.40755 80.997406 
L 544.364641 80.997406 
L 544.364641 77.40355 
L 542.40755 77.40355 
z
" clip-path="url(#p8e54604beb)" style="fill: #8c564b"/>
   </g>
   <g id="patch_339">
    <path d="M 520.879551 106.953038 
L 526.016915 106.953038 
L 526.016915 103.359181 
L 520.879551 103.359181 
z
" clip-path="url(#p8e54604beb)" style="fill: #9edae6"/>
   </g>
   <g id="patch_340">
    <path d="M 544.364641 106.953038 
L 547.055641 106.953038 
L 547.055641 103.359181 
L 544.364641 103.359181 
z
" clip-path="url(#p8e54604beb)" style="fill: #9edae6"/>
   </g>
   <g id="patch_341">
    <path d="M 556.107186 106.953038 
L 560.021367 106.953038 
L 560.021367 103.359181 
L 556.107186 103.359181 
z
" clip-path="url(#p8e54604beb)" style="fill: #9edae6"/>
   </g>
   <g id="patch_342">
    <path d="M 520.879551 7.123686 
L 527.851687 7.123686 
L 527.851687 3.529829 
L 520.879551 3.529829 
z
" clip-path="url(#p8e54604beb)" style="fill: #9edae6"/>
   </g>
   <g id="patch_343">
    <path d="M 528.707915 7.123686 
L 529.808778 7.123686 
L 529.808778 3.529829 
L 528.707915 3.529829 
z
" clip-path="url(#p8e54604beb)" style="fill: #1f5aa6"/>
   </g>
   <g id="patch_344">
    <path d="M 529.931096 7.123686 
L 530.053415 7.123686 
L 530.053415 3.529829 
L 529.931096 3.529829 
z
" clip-path="url(#p8e54604beb)" style="fill: #1f5aa6"/>
   </g>
   <g id="patch_345">
    <path d="M 539.104959 7.123686 
L 541.429005 7.123686 
L 541.429005 3.529829 
L 539.104959 3.529829 
z
" clip-path="url(#p8e54604beb)" style="fill: #1f5aa6"/>
   </g>
   <g id="patch_346">
    <path d="M 541.551323 7.123686 
L 542.040596 7.123686 
L 542.040596 3.529829 
L 541.551323 3.529829 
z
" clip-path="url(#p8e54604beb)" style="fill: #1f5aa6"/>
   </g>
   <g id="patch_347">
    <path d="M 542.285232 7.123686 
L 542.40755 7.123686 
L 542.40755 3.529829 
L 542.285232 3.529829 
z
" clip-path="url(#p8e54604beb)" style="fill: #1f5aa6"/>
   </g>
   <g id="patch_348">
    <path d="M 544.364641 7.123686 
L 547.300277 7.123686 
L 547.300277 3.529829 
L 544.364641 3.529829 
z
" clip-path="url(#p8e54604beb)" style="fill: #9edae6"/>
   </g>
   <g id="patch_349">
    <path d="M 550.969822 7.123686 
L 551.092141 7.123686 
L 551.092141 3.529829 
L 550.969822 3.529829 
z
" clip-path="url(#p8e54604beb)" style="fill: #e97f2e"/>
   </g>
   <g id="patch_350">
    <path d="M 553.049231 7.123686 
L 564.791776 7.123686 
L 564.791776 3.529829 
L 553.049231 3.529829 
z
" clip-path="url(#p8e54604beb)" style="fill: #1f5aa6"/>
   </g>
   <g id="patch_351">
    <path d="M 582.283275 15.509352 
L 612.862819 15.509352 
L 612.862819 11.915495 
L 582.283275 11.915495 
z
" clip-path="url(#p8e54604beb)" style="fill: #1f5aa6"/>
   </g>
   <g id="patch_352">
    <path d="M 568.828276 65.424027 
L 576.656639 65.424027 
L 576.656639 61.830171 
L 568.828276 61.830171 
z
" clip-path="url(#p8e54604beb)" style="fill: #1f5aa6"/>
   </g>
   <g id="patch_353">
    <path d="M 588.521502 65.424027 
L 588.64382 65.424027 
L 588.64382 61.830171 
L 588.521502 61.830171 
z
" clip-path="url(#p8e54604beb)" style="fill: #1f5aa6"/>
   </g>
   <g id="patch_354">
    <path d="M 588.766138 65.424027 
L 588.888457 65.424027 
L 588.888457 61.830171 
L 588.766138 61.830171 
z
" clip-path="url(#p8e54604beb)" style="fill: #1f5aa6"/>
   </g>
   <g id="patch_355">
    <path d="M 589.010775 65.424027 
L 589.377729 65.424027 
L 589.377729 61.830171 
L 589.010775 61.830171 
z
" clip-path="url(#p8e54604beb)" style="fill: #1f5aa6"/>
   </g>
   <g id="patch_356">
    <path d="M 589.500047 65.424027 
L 597.206093 65.424027 
L 597.206093 61.830171 
L 589.500047 61.830171 
z
" clip-path="url(#p8e54604beb)" style="fill: #1f5aa6"/>
   </g>
   <g id="patch_357">
    <path d="M 597.450729 65.424027 
L 597.573047 65.424027 
L 597.573047 61.830171 
L 597.450729 61.830171 
z
" clip-path="url(#p8e54604beb)" style="fill: #1f5aa6"/>
   </g>
   <g id="patch_358">
    <path d="M 568.828276 46.656109 
L 582.283275 46.656109 
L 582.283275 43.062253 
L 568.828276 43.062253 
z
" clip-path="url(#p8e54604beb)" style="fill: #f2856e"/>
   </g>
   <g id="patch_359">
    <path d="M 576.656639 96.570785 
L 588.521502 96.570785 
L 588.521502 92.976928 
L 576.656639 92.976928 
z
" clip-path="url(#p8e54604beb)" style="fill: #f2856e"/>
   </g>
   <g id="patch_360">
    <path d="M 588.64382 96.570785 
L 588.766138 96.570785 
L 588.766138 92.976928 
L 588.64382 92.976928 
z
" clip-path="url(#p8e54604beb)" style="fill: #f2856e"/>
   </g>
   <g id="patch_361">
    <path d="M 588.888457 96.570785 
L 589.010775 96.570785 
L 589.010775 92.976928 
L 588.888457 92.976928 
z
" clip-path="url(#p8e54604beb)" style="fill: #f2856e"/>
   </g>
   <g id="patch_362">
    <path d="M 589.377729 96.570785 
L 589.500047 96.570785 
L 589.500047 92.976928 
L 589.377729 92.976928 
z
" clip-path="url(#p8e54604beb)" style="fill: #f2856e"/>
   </g>
   <g id="patch_363">
    <path d="M 597.206093 101.761911 
L 597.450729 101.761911 
L 597.450729 98.168055 
L 597.206093 98.168055 
z
" clip-path="url(#p8e54604beb)" style="fill: #dbdc8d"/>
   </g>
   <g id="patch_364">
    <path d="M 597.573047 101.761911 
L 612.862819 101.761911 
L 612.862819 98.168055 
L 597.573047 98.168055 
z
" clip-path="url(#p8e54604beb)" style="fill: #dbdc8d"/>
   </g>
   <g id="patch_365">
    <path d="M 568.828276 7.123686 
L 576.656639 7.123686 
L 576.656639 3.529829 
L 568.828276 3.529829 
z
" clip-path="url(#p8e54604beb)" style="fill: #1f5aa6"/>
   </g>
   <g id="patch_366">
    <path d="M 582.283275 7.123686 
L 588.521502 7.123686 
L 588.521502 3.529829 
L 582.283275 3.529829 
z
" clip-path="url(#p8e54604beb)" style="fill: #f2856e"/>
   </g>
   <g id="patch_367">
    <path d="M 588.64382 7.123686 
L 588.766138 7.123686 
L 588.766138 3.529829 
L 588.64382 3.529829 
z
" clip-path="url(#p8e54604beb)" style="fill: #f2856e"/>
   </g>
   <g id="patch_368">
    <path d="M 588.888457 7.123686 
L 589.010775 7.123686 
L 589.010775 3.529829 
L 588.888457 3.529829 
z
" clip-path="url(#p8e54604beb)" style="fill: #f2856e"/>
   </g>
   <g id="patch_369">
    <path d="M 589.377729 7.123686 
L 589.500047 7.123686 
L 589.500047 3.529829 
L 589.377729 3.529829 
z
" clip-path="url(#p8e54604beb)" style="fill: #f2856e"/>
   </g>
   <g id="patch_370">
    <path d="M 597.206093 7.123686 
L 597.450729 7.123686 
L 597.450729 3.529829 
L 597.206093 3.529829 
z
" clip-path="url(#p8e54604beb)" style="fill: #dbdc8d"/>
   </g>
   <g id="patch_371">
    <path d="M 597.573047 7.123686 
L 612.862819 7.123686 
L 612.862819 3.529829 
L 597.573047 3.529829 
z
" clip-path="url(#p8e54604beb)" style="fill: #dbdc8d"/>
   </g>
   <g id="line2d_1">
    <path d="M 41.392306 110.946212 
L 85.426849 110.946212 
" clip-path="url(#p8e54604beb)" style="fill: none; stroke: #5a5a5a; stroke-width: 1.4"/>
   </g>
   <g id="text_1">
    <text style="font: 8.5px 'Arial'; text-anchor: end" x="38.292813" y="7.424531" transform="rotate(-0 38.292813 7.424531)">accuracy</text>
   </g>
   <g id="text_2">
    <text style="font: 8.5px 'Arial'; text-anchor: end" x="38.292813" y="36.674311" transform="rotate(-0 38.292813 36.674311)">labels</text>
   </g>
   <g id="text_3">
    <text style="font: 8.5px 'Arial'; text-anchor: end" x="38.292813" y="86.588987" transform="rotate(-0 38.292813 86.588987)">prediction</text>
   </g>
   <g id="text_4">
    <text style="font: 8px 'Arial'; text-anchor: middle" x="63.409578" y="119.068366" transform="rotate(-0 63.409578 119.068366)">15 secs</text>
   </g>
   <g id="text_5">
    <text style="font: 9px 'Arial'; text-anchor: middle" x="327.127563" y="119.784147" transform="rotate(-0 327.127563 119.784147)">videos</text>
   </g>
  </g>
 </g>
 <defs>
  <clipPath id="p8e54604beb">
   <rect x="41.152563" y="1.93256" width="571.95" height="117"/>
  </clipPath>
 </defs>
</svg>
