<?xml version="1.0" encoding="utf-8" standalone="no"?>
<!DOCTYPE svg PUBLIC "-//W3C//DTD SVG 1.1//EN"
  "http://www.w3.org/Graphics/SVG/1.1/DTD/svg11.dtd">
<svg xmlns:xlink="http://www.w3.org/1999/xlink" width="615pt" height="150pt" viewBox="0 0 615 150" xmlns="http://www.w3.org/2000/svg" version="1.1">
 <metadata>
  <rdf:RDF xmlns:dc="http://purl.org/dc/elements/1.1/" xmlns:cc="http://creativecommons.org/ns#" xmlns:rdf="http://www.w3.org/1999/02/22-rdf-syntax-ns#">
   <cc:Work>
    <dc:type rdf:resource="http://purl.org/dc/dcmitype/StillImage"/>
    <dc:date>2026-05-13T18:33:27.599536</dc:date>
    <dc:format>image/svg+xml</dc:format>
    <dc:creator>
     <cc:Agent>
      <dc:title>Matplotlib v3.10.9, https://matplotlib.org/</dc:title>
     </cc:Agent>
    </dc:creator>
   </cc:Work>
  </rdf:RDF>
 </metadata>
 <defs>
  <style type="text/css">*{stroke-linejoin: round; stroke-linecap: butt}</style>
 </defs>
 <g id="figure_1">
  <g id="patch_1">
   <path d="M 0 150 
L 615 150 
L 615 0 
L 0 0 
z
" style="fill: #ffffff"/>
  </g>
  <g id="axes_1">
   <g id="patch_2">
    <path d="M 45.431854 136.98651 
L 609.24 136.98651 
L 609.24 11.033402 
L 45.431854 11.033402 
z
" style="fill: #ffffff"/>
   </g>
   <g id="patch_3">
    <path d="M 45.668185 25.649121 
L 89.075885 25.649121 
L 89.075885 21.780255 
L 45.668185 21.780255 
z
" clip-path="url(#p231005dd29)" style="fill: #ebeced"/>
   </g>
   <g id="patch_4">
    <path d="M 45.668185 79.383382 
L 89.075885 79.383382 
L 89.075885 75.514516 
L 45.668185 75.514516 
z
" clip-path="url(#p231005dd29)" style="fill: #ebeced"/>
   </g>
   <g id="patch_5">
    <path d="M 45.668185 31.237484 
L 89.075885 31.237484 
L 89.075885 27.368618 
L 45.668185 27.368618 
z
" clip-path="url(#p231005dd29)" style="fill: #ebeced"/>
   </g>
   <g id="patch_6">
    <path d="M 45.668185 84.971745 
L 89.075885 84.971745 
L 89.075885 81.102879 
L 45.668185 81.102879 
z
" clip-path="url(#p231005dd29)" style="fill: #ebeced"/>
   </g>
   <g id="patch_7">
    <path d="M 45.668185 36.825848 
L 89.075885 36.825848 
L 89.075885 32.956981 
L 45.668185 32.956981 
z
" clip-path="url(#p231005dd29)" style="fill: #ebeced"/>
   </g>
   <g id="patch_8">
    <path d="M 45.668185 90.560109 
L 89.075885 90.560109 
L 89.075885 86.691242 
L 45.668185 86.691242 
z
" clip-path="url(#p231005dd29)" style="fill: #ebeced"/>
   </g>
   <g id="patch_9">
    <path d="M 45.668185 42.414211 
L 89.075885 42.414211 
L 89.075885 38.545344 
L 45.668185 38.545344 
z
" clip-path="url(#p231005dd29)" style="fill: #ebeced"/>
   </g>
   <g id="patch_10">
    <path d="M 45.668185 96.148472 
L 89.075885 96.148472 
L 89.075885 92.279605 
L 45.668185 92.279605 
z
" clip-path="url(#p231005dd29)" style="fill: #ebeced"/>
   </g>
   <g id="patch_11">
    <path d="M 45.668185 48.002574 
L 89.075885 48.002574 
L 89.075885 44.133707 
L 45.668185 44.133707 
z
" clip-path="url(#p231005dd29)" style="fill: #ebeced"/>
   </g>
   <g id="patch_12">
    <path d="M 45.668185 101.736835 
L 89.075885 101.736835 
L 89.075885 97.867968 
L 45.668185 97.867968 
z
" clip-path="url(#p231005dd29)" style="fill: #ebeced"/>
   </g>
   <g id="patch_13">
    <path d="M 45.668185 53.590937 
L 89.075885 53.590937 
L 89.075885 49.72207 
L 45.668185 49.72207 
z
" clip-path="url(#p231005dd29)" style="fill: #ebeced"/>
   </g>
   <g id="patch_14">
    <path d="M 45.668185 107.325198 
L 89.075885 107.325198 
L 89.075885 103.456331 
L 45.668185 103.456331 
z
" clip-path="url(#p231005dd29)" style="fill: #ebeced"/>
   </g>
   <g id="patch_15">
    <path d="M 45.668185 59.1793 
L 89.075885 59.1793 
L 89.075885 55.310433 
L 45.668185 55.310433 
z
" clip-path="url(#p231005dd29)" style="fill: #ebeced"/>
   </g>
   <g id="patch_16">
    <path d="M 45.668185 112.913561 
L 89.075885 112.913561 
L 89.075885 109.044694 
L 45.668185 109.044694 
z
" clip-path="url(#p231005dd29)" style="fill: #ebeced"/>
   </g>
   <g id="patch_17">
    <path d="M 45.668185 64.767663 
L 89.075885 64.767663 
L 89.075885 60.898797 
L 45.668185 60.898797 
z
" clip-path="url(#p231005dd29)" style="fill: #ebeced"/>
   </g>
   <g id="patch_18">
    <path d="M 45.668185 118.501924 
L 89.075885 118.501924 
L 89.075885 114.633058 
L 45.668185 114.633058 
z
" clip-path="url(#p231005dd29)" style="fill: #ebeced"/>
   </g>
   <g id="patch_19">
    <path d="M 45.668185 70.356026 
L 89.075885 70.356026 
L 89.075885 66.48716 
L 45.668185 66.48716 
z
" clip-path="url(#p231005dd29)" style="fill: #ebeced"/>
   </g>
   <g id="patch_20">
    <path d="M 45.668185 124.090287 
L 89.075885 124.090287 
L 89.075885 120.221421 
L 45.668185 120.221421 
z
" clip-path="url(#p231005dd29)" style="fill: #ebeced"/>
   </g>
   <g id="patch_21">
    <path d="M 45.668185 16.621765 
L 89.075885 16.621765 
L 89.075885 12.752899 
L 45.668185 12.752899 
z
" clip-path="url(#p231005dd29)" style="fill: #ebeced"/>
   </g>
   <g id="patch_22">
    <path d="M 92.934347 25.649121 
L 136.342047 25.649121 
L 136.342047 21.780255 
L 92.934347 21.780255 
z
" clip-path="url(#p231005dd29)" style="fill: #ebeced"/>
   </g>
   <g id="patch_23">
    <path d="M 92.934347 79.383382 
L 136.342047 79.383382 
L 136.342047 75.514516 
L 92.934347 75.514516 
z
" clip-path="url(#p231005dd29)" style="fill: #ebeced"/>
   </g>
   <g id="patch_24">
    <path d="M 92.934347 31.237484 
L 136.342047 31.237484 
L 136.342047 27.368618 
L 92.934347 27.368618 
z
" clip-path="url(#p231005dd29)" style="fill: #ebeced"/>
   </g>
   <g id="patch_25">
    <path d="M 92.934347 84.971745 
L 136.342047 84.971745 
L 136.342047 81.102879 
L 92.934347 81.102879 
z
" clip-path="url(#p231005dd29)" style="fill: #ebeced"/>
   </g>
   <g id="patch_26">
    <path d="M 92.934347 36.825848 
L 136.342047 36.825848 
L 136.342047 32.956981 
L 92.934347 32.956981 
z
" clip-path="url(#p231005dd29)" style="fill: #ebeced"/>
   </g>
   <g id="patch_27">
    <path d="M 92.934347 90.560109 
L 136.342047 90.560109 
L 136.342047 86.691242 
L 92.934347 86.691242 
z
" clip-path="url(#p231005dd29)" style="fill: #ebeced"/>
   </g>
   <g id="patch_28">
    <path d="M 92.934347 42.414211 
L 136.342047 42.414211 
L 136.342047 38.545344 
L 92.934347 38.545344 
z
" clip-path="url(#p231005dd29)" style="fill: #ebeced"/>
   </g>
   <g id="patch_29">
    <path d="M 92.934347 96.148472 
L 136.342047 96.148472 
L 136.342047 92.279605 
L 92.934347 92.279605 
z
" clip-path="url(#p231005dd29)" style="fill: #ebeced"/>
   </g>
   <g id="patch_30">
    <path d="M 92.934347 48.002574 
L 136.342047 48.002574 
L 136.342047 44.133707 
L 92.934347 44.133707 
z
" clip-path="url(#p231005dd29)" style="fill: #ebeced"/>
   </g>
   <g id="patch_31">
    <path d="M 92.934347 101.736835 
L 136.342047 101.736835 
L 136.342047 97.867968 
L 92.934347 97.867968 
z
" clip-path="url(#p231005dd29)" style="fill: #ebeced"/>
   </g>
   <g id="patch_32">
    <path d="M 92.934347 53.590937 
L 136.342047 53.590937 
L 136.342047 49.72207 
L 92.934347 49.72207 
z
" clip-path="url(#p231005dd29)" style="fill: #ebeced"/>
   </g>
   <g id="patch_33">
    <path d="M 92.934347 107.325198 
L 136.342047 107.325198 
L 136.342047 103.456331 
L 92.934347 103.456331 
z
" clip-path="url(#p231005dd29)" style="fill: #ebeced"/>
   </g>
   <g id="patch_34">
    <path d="M 92.934347 59.1793 
L 136.342047 59.1793 
L 136.342047 55.310433 
L 92.934347 55.310433 
z
" clip-path="url(#p231005dd29)" style="fill: #ebeced"/>
   </g>
   <g id="patch_35">
    <path d="M 92.934347 112.913561 
L 136.342047 112.913561 
L 136.342047 109.044694 
L 92.934347 109.044694 
z
" clip-path="url(#p231005dd29)" style="fill: #ebeced"/>
   </g>
   <g id="patch_36">
    <path d="M 92.934347 64.767663 
L 136.342047 64.767663 
L 136.342047 60.898797 
L 92.934347 60.898797 
z
" clip-path="url(#p231005dd29)" style="fill: #ebeced"/>
   </g>
   <g id="patch_37">
    <path d="M 92.934347 118.501924 
L 136.342047 118.501924 
L 136.342047 114.633058 
L 92.934347 114.633058 
z
" clip-path="url(#p231005dd29)" style="fill: #ebeced"/>
   </g>
   <g id="patch_38">
    <path d="M 92.934347 70.356026 
L 136.342047 70.356026 
L 136.342047 66.48716 
L 92.934347 66.48716 
z
" clip-path="url(#p231005dd29)" style="fill: #ebeced"/>
   </g>
   <g id="patch_39">
    <path d="M 92.934347 124.090287 
L 136.342047 124.090287 
L 136.342047 120.221421 
L 92.934347 120.221421 
z
" clip-path="url(#p231005dd29)" style="fill: #ebeced"/>
   </g>
   <g id="patch_40">
    <path d="M 92.934347 16.621765 
L 136.342047 16.621765 
L 136.342047 12.752899 
L 92.934347 12.752899 
z
" clip-path="url(#p231005dd29)" style="fill: #ebeced"/>
   </g>
   <g id="patch_41">
    <path d="M 140.200509 25.649121 
L 183.608209 25.649121 
L 183.608209 21.780255 
L 140.200509 21.780255 
z
" clip-path="url(#p231005dd29)" style="fill: #ebeced"/>
   </g>
   <g id="patch_42">
    <path d="M 140.200509 79.383382 
L 183.608209 79.383382 
L 183.608209 75.514516 
L 140.200509 75.514516 
z
" clip-path="url(#p231005dd29)" style="fill: #ebeced"/>
   </g>
   <g id="patch_43">
    <path d="M 140.200509 31.237484 
L 183.608209 31.237484 
L 183.608209 27.368618 
L 140.200509 27.368618 
z
" clip-path="url(#p231005dd29)" style="fill: #ebeced"/>
   </g>
   <g id="patch_44">
    <path d="M 140.200509 84.971745 
L 183.608209 84.971745 
L 183.608209 81.102879 
L 140.200509 81.102879 
z
" clip-path="url(#p231005dd29)" style="fill: #ebeced"/>
   </g>
   <g id="patch_45">
    <path d="M 140.200509 36.825848 
L 183.608209 36.825848 
L 183.608209 32.956981 
L 140.200509 32.956981 
z
" clip-path="url(#p231005dd29)" style="fill: #ebeced"/>
   </g>
   <g id="patch_46">
    <path d="M 140.200509 90.560109 
L 183.608209 90.560109 
L 183.608209 86.691242 
L 140.200509 86.691242 
z
" clip-path="url(#p231005dd29)" style="fill: #ebeced"/>
   </g>
   <g id="patch_47">
    <path d="M 140.200509 42.414211 
L 183.608209 42.414211 
L 183.608209 38.545344 
L 140.200509 38.545344 
z
" clip-path="url(#p231005dd29)" style="fill: #ebeced"/>
   </g>
   <g id="patch_48">
    <path d="M 140.200509 96.148472 
L 183.608209 96.148472 
L 183.608209 92.279605 
L 140.200509 92.279605 
z
" clip-path="url(#p231005dd29)" style="fill: #ebeced"/>
   </g>
   <g id="patch_49">
    <path d="M 140.200509 48.002574 
L 183.608209 48.002574 
L 183.608209 44.133707 
L 140.200509 44.133707 
z
" clip-path="url(#p231005dd29)" style="fill: #ebeced"/>
   </g>
   <g id="patch_50">
    <path d="M 140.200509 101.736835 
L 183.608209 101.736835 
L 183.608209 97.867968 
L 140.200509 97.867968 
z
" clip-path="url(#p231005dd29)" style="fill: #ebeced"/>
   </g>
   <g id="patch_51">
    <path d="M 140.200509 53.590937 
L 183.608209 53.590937 
L 183.608209 49.72207 
L 140.200509 49.72207 
z
" clip-path="url(#p231005dd29)" style="fill: #ebeced"/>
   </g>
   <g id="patch_52">
    <path d="M 140.200509 107.325198 
L 183.608209 107.325198 
L 183.608209 103.456331 
L 140.200509 103.456331 
z
" clip-path="url(#p231005dd29)" style="fill: #ebeced"/>
   </g>
   <g id="patch_53">
    <path d="M 140.200509 59.1793 
L 183.608209 59.1793 
L 183.608209 55.310433 
L 140.200509 55.310433 
z
" clip-path="url(#p231005dd29)" style="fill: #ebeced"/>
   </g>
   <g id="patch_54">
    <path d="M 140.200509 112.913561 
L 183.608209 112.913561 
L 183.608209 109.044694 
L 140.200509 109.044694 
z
" clip-path="url(#p231005dd29)" style="fill: #ebeced"/>
   </g>
   <g id="patch_55">
    <path d="M 140.200509 64.767663 
L 183.608209 64.767663 
L 183.608209 60.898797 
L 140.200509 60.898797 
z
" clip-path="url(#p231005dd29)" style="fill: #ebeced"/>
   </g>
   <g id="patch_56">
    <path d="M 140.200509 118.501924 
L 183.608209 118.501924 
L 183.608209 114.633058 
L 140.200509 114.633058 
z
" clip-path="url(#p231005dd29)" style="fill: #ebeced"/>
   </g>
   <g id="patch_57">
    <path d="M 140.200509 70.356026 
L 183.608209 70.356026 
L 183.608209 66.48716 
L 140.200509 66.48716 
z
" clip-path="url(#p231005dd29)" style="fill: #ebeced"/>
   </g>
   <g id="patch_58">
    <path d="M 140.200509 124.090287 
L 183.608209 124.090287 
L 183.608209 120.221421 
L 140.200509 120.221421 
z
" clip-path="url(#p231005dd29)" style="fill: #ebeced"/>
   </g>
   <g id="patch_59">
    <path d="M 140.200509 16.621765 
L 183.608209 16.621765 
L 183.608209 12.752899 
L 140.200509 12.752899 
z
" clip-path="url(#p231005dd29)" style="fill: #ebeced"/>
   </g>
   <g id="patch_60">
    <path d="M 187.466672 25.649121 
L 230.874372 25.649121 
L 230.874372 21.780255 
L 187.466672 21.780255 
z
" clip-path="url(#p231005dd29)" style="fill: #ebeced"/>
   </g>
   <g id="patch_61">
    <path d="M 187.466672 79.383382 
L 230.874372 79.383382 
L 230.874372 75.514516 
L 187.466672 75.514516 
z
" clip-path="url(#p231005dd29)" style="fill: #ebeced"/>
   </g>
   <g id="patch_62">
    <path d="M 187.466672 31.237484 
L 230.874372 31.237484 
L 230.874372 27.368618 
L 187.466672 27.368618 
z
" clip-path="url(#p231005dd29)" style="fill: #ebeced"/>
   </g>
   <g id="patch_63">
    <path d="M 187.466672 84.971745 
L 230.874372 84.971745 
L 230.874372 81.102879 
L 187.466672 81.102879 
z
" clip-path="url(#p231005dd29)" style="fill: #ebeced"/>
   </g>
   <g id="patch_64">
    <path d="M 187.466672 36.825848 
L 230.874372 36.825848 
L 230.874372 32.956981 
L 187.466672 32.956981 
z
" clip-path="url(#p231005dd29)" style="fill: #ebeced"/>
   </g>
   <g id="patch_65">
    <path d="M 187.466672 90.560109 
L 230.874372 90.560109 
L 230.874372 86.691242 
L 187.466672 86.691242 
z
" clip-path="url(#p231005dd29)" style="fill: #ebeced"/>
   </g>
   <g id="patch_66">
    <path d="M 187.466672 42.414211 
L 230.874372 42.414211 
L 230.874372 38.545344 
L 187.466672 38.545344 
z
" clip-path="url(#p231005dd29)" style="fill: #ebeced"/>
   </g>
   <g id="patch_67">
    <path d="M 187.466672 96.148472 
L 230.874372 96.148472 
L 230.874372 92.279605 
L 187.466672 92.279605 
z
" clip-path="url(#p231005dd29)" style="fill: #ebeced"/>
   </g>
   <g id="patch_68">
    <path d="M 187.466672 48.002574 
L 230.874372 48.002574 
L 230.874372 44.133707 
L 187.466672 44.133707 
z
" clip-path="url(#p231005dd29)" style="fill: #ebeced"/>
   </g>
   <g id="patch_69">
    <path d="M 187.466672 101.736835 
L 230.874372 101.736835 
L 230.874372 97.867968 
L 187.466672 97.867968 
z
" clip-path="url(#p231005dd29)" style="fill: #ebeced"/>
   </g>
   <g id="patch_70">
    <path d="M 187.466672 53.590937 
L 230.874372 53.590937 
L 230.874372 49.72207 
L 187.466672 49.72207 
z
" clip-path="url(#p231005dd29)" style="fill: #ebeced"/>
   </g>
   <g id="patch_71">
    <path d="M 187.466672 107.325198 
L 230.874372 107.325198 
L 230.874372 103.456331 
L 187.466672 103.456331 
z
" clip-path="url(#p231005dd29)" style="fill: #ebeced"/>
   </g>
   <g id="patch_72">
    <path d="M 187.466672 59.1793 
L 230.874372 59.1793 
L 230.874372 55.310433 
L 187.466672 55.310433 
z
" clip-path="url(#p231005dd29)" style="fill: #ebeced"/>
   </g>
   <g id="patch_73">
    <path d="M 187.466672 112.913561 
L 230.874372 112.913561 
L 230.874372 109.044694 
L 187.466672 109.044694 
z
" clip-path="url(#p231005dd29)" style="fill: #ebeced"/>
   </g>
   <g id="patch_74">
    <path d="M 187.466672 64.767663 
L 230.874372 64.767663 
L 230.874372 60.898797 
L 187.466672 60.898797 
z
" clip-path="url(#p231005dd29)" style="fill: #ebeced"/>
   </g>
   <g id="patch_75">
    <path d="M 187.466672 118.501924 
L 230.874372 118.501924 
L 230.874372 114.633058 
L 187.466672 114.633058 
z
" clip-path="url(#p231005dd29)" style="fill: #ebeced"/>
   </g>
   <g id="patch_76">
    <path d="M 187.466672 70.356026 
L 230.874372 70.356026 
L 230.874372 66.48716 
L 187.466672 66.48716 
z
" clip-path="url(#p231005dd29)" style="fill: #ebeced"/>
   </g>
   <g id="patch_77">
    <path d="M 187.466672 124.090287 
L 230.874372 124.090287 
L 230.874372 120.221421 
L 187.466672 120.221421 
z
" clip-path="url(#p231005dd29)" style="fill: #ebeced"/>
   </g>
   <g id="patch_78">
    <path d="M 187.466672 16.621765 
L 230.874372 16.621765 
L 230.874372 12.752899 
L 187.466672 12.752899 
z
" clip-path="url(#p231005dd29)" style="fill: #ebeced"/>
   </g>
   <g id="patch_79">
    <path d="M 234.732834 25.649121 
L 278.140534 25.649121 
L 278.140534 21.780255 
L 234.732834 21.780255 
z
" clip-path="url(#p231005dd29)" style="fill: #ebeced"/>
   </g>
   <g id="patch_80">
    <path d="M 234.732834 79.383382 
L 278.140534 79.383382 
L 278.140534 75.514516 
L 234.732834 75.514516 
z
" clip-path="url(#p231005dd29)" style="fill: #ebeced"/>
   </g>
   <g id="patch_81">
    <path d="M 234.732834 31.237484 
L 278.140534 31.237484 
L 278.140534 27.368618 
L 234.732834 27.368618 
z
" clip-path="url(#p231005dd29)" style="fill: #ebeced"/>
   </g>
   <g id="patch_82">
    <path d="M 234.732834 84.971745 
L 278.140534 84.971745 
L 278.140534 81.102879 
L 234.732834 81.102879 
z
" clip-path="url(#p231005dd29)" style="fill: #ebeced"/>
   </g>
   <g id="patch_83">
    <path d="M 234.732834 36.825848 
L 278.140534 36.825848 
L 278.140534 32.956981 
L 234.732834 32.956981 
z
" clip-path="url(#p231005dd29)" style="fill: #ebeced"/>
   </g>
   <g id="patch_84">
    <path d="M 234.732834 90.560109 
L 278.140534 90.560109 
L 278.140534 86.691242 
L 234.732834 86.691242 
z
" clip-path="url(#p231005dd29)" style="fill: #ebeced"/>
   </g>
   <g id="patch_85">
    <path d="M 234.732834 42.414211 
L 278.140534 42.414211 
L 278.140534 38.545344 
L 234.732834 38.545344 
z
" clip-path="url(#p231005dd29)" style="fill: #ebeced"/>
   </g>
   <g id="patch_86">
    <path d="M 234.732834 96.148472 
L 278.140534 96.148472 
L 278.140534 92.279605 
L 234.732834 92.279605 
z
" clip-path="url(#p231005dd29)" style="fill: #ebeced"/>
   </g>
   <g id="patch_87">
    <path d="M 234.732834 48.002574 
L 278.140534 48.002574 
L 278.140534 44.133707 
L 234.732834 44.133707 
z
" clip-path="url(#p231005dd29)" style="fill: #ebeced"/>
   </g>
   <g id="patch_88">
    <path d="M 234.732834 101.736835 
L 278.140534 101.736835 
L 278.140534 97.867968 
L 234.732834 97.867968 
z
" clip-path="url(#p231005dd29)" style="fill: #ebeced"/>
   </g>
   <g id="patch_89">
    <path d="M 234.732834 53.590937 
L 278.140534 53.590937 
L 278.140534 49.72207 
L 234.732834 49.72207 
z
" clip-path="url(#p231005dd29)" style="fill: #ebeced"/>
   </g>
   <g id="patch_90">
    <path d="M 234.732834 107.325198 
L 278.140534 107.325198 
L 278.140534 103.456331 
L 234.732834 103.456331 
z
" clip-path="url(#p231005dd29)" style="fill: #ebeced"/>
   </g>
   <g id="patch_91">
    <path d="M 234.732834 59.1793 
L 278.140534 59.1793 
L 278.140534 55.310433 
L 234.732834 55.310433 
z
" clip-path="url(#p231005dd29)" style="fill: #ebeced"/>
   </g>
   <g id="patch_92">
    <path d="M 234.732834 112.913561 
L 278.140534 112.913561 
L 278.140534 109.044694 
L 234.732834 109.044694 
z
" clip-path="url(#p231005dd29)" style="fill: #ebeced"/>
   </g>
   <g id="patch_93">
    <path d="M 234.732834 64.767663 
L 278.140534 64.767663 
L 278.140534 60.898797 
L 234.732834 60.898797 
z
" clip-path="url(#p231005dd29)" style="fill: #ebeced"/>
   </g>
   <g id="patch_94">
    <path d="M 234.732834 118.501924 
L 278.140534 118.501924 
L 278.140534 114.633058 
L 234.732834 114.633058 
z
" clip-path="url(#p231005dd29)" style="fill: #ebeced"/>
   </g>
   <g id="patch_95">
    <path d="M 234.732834 70.356026 
L 278.140534 70.356026 
L 278.140534 66.48716 
L 234.732834 66.48716 
z
" clip-path="url(#p231005dd29)" style="fill: #ebeced"/>
   </g>
   <g id="patch_96">
    <path d="M 234.732834 124.090287 
L 278.140534 124.090287 
L 278.140534 120.221421 
L 234.732834 120.221421 
z
" clip-path="url(#p231005dd29)" style="fill: #ebeced"/>
   </g>
   <g id="patch_97">
    <path d="M 234.732834 16.621765 
L 278.140534 16.621765 
L 278.140534 12.752899 
L 234.732834 12.752899 
z
" clip-path="url(#p231005dd29)" style="fill: #ebeced"/>
   </g>
   <g id="patch_98">
    <path d="M 281.998996 25.649121 
L 325.406696 25.649121 
L 325.406696 21.780255 
L 281.998996 21.780255 
z
" clip-path="url(#p231005dd29)" style="fill: #ebeced"/>
   </g>
   <g id="patch_99">
    <path d="M 281.998996 79.383382 
L 325.406696 79.383382 
L 325.406696 75.514516 
L 281.998996 75.514516 
z
" clip-path="url(#p231005dd29)" style="fill: #ebeced"/>
   </g>
   <g id="patch_100">
    <path d="M 281.998996 31.237484 
L 325.406696 31.237484 
L 325.406696 27.368618 
L 281.998996 27.368618 
z
" clip-path="url(#p231005dd29)" style="fill: #ebeced"/>
   </g>
   <g id="patch_101">
    <path d="M 281.998996 84.971745 
L 325.406696 84.971745 
L 325.406696 81.102879 
L 281.998996 81.102879 
z
" clip-path="url(#p231005dd29)" style="fill: #ebeced"/>
   </g>
   <g id="patch_102">
    <path d="M 281.998996 36.825848 
L 325.406696 36.825848 
L 325.406696 32.956981 
L 281.998996 32.956981 
z
" clip-path="url(#p231005dd29)" style="fill: #ebeced"/>
   </g>
   <g id="patch_103">
    <path d="M 281.998996 90.560109 
L 325.406696 90.560109 
L 325.406696 86.691242 
L 281.998996 86.691242 
z
" clip-path="url(#p231005dd29)" style="fill: #ebeced"/>
   </g>
   <g id="patch_104">
    <path d="M 281.998996 42.414211 
L 325.406696 42.414211 
L 325.406696 38.545344 
L 281.998996 38.545344 
z
" clip-path="url(#p231005dd29)" style="fill: #ebeced"/>
   </g>
   <g id="patch_105">
    <path d="M 281.998996 96.148472 
L 325.406696 96.148472 
L 325.406696 92.279605 
L 281.998996 92.279605 
z
" clip-path="url(#p231005dd29)" style="fill: #ebeced"/>
   </g>
   <g id="patch_106">
    <path d="M 281.998996 48.002574 
L 325.406696 48.002574 
L 325.406696 44.133707 
L 281.998996 44.133707 
z
" clip-path="url(#p231005dd29)" style="fill: #ebeced"/>
   </g>
   <g id="patch_107">
    <path d="M 281.998996 101.736835 
L 325.406696 101.736835 
L 325.406696 97.867968 
L 281.998996 97.867968 
z
" clip-path="url(#p231005dd29)" style="fill: #ebeced"/>
   </g>
   <g id="patch_108">
    <path d="M 281.998996 53.590937 
L 325.406696 53.590937 
L 325.406696 49.72207 
L 281.998996 49.72207 
z
" clip-path="url(#p231005dd29)" style="fill: #ebeced"/>
   </g>
   <g id="patch_109">
    <path d="M 281.998996 107.325198 
L 325.406696 107.325198 
L 325.406696 103.456331 
L 281.998996 103.456331 
z
" clip-path="url(#p231005dd29)" style="fill: #ebeced"/>
   </g>
   <g id="patch_110">
    <path d="M 281.998996 59.1793 
L 325.406696 59.1793 
L 325.406696 55.310433 
L 281.998996 55.310433 
z
" clip-path="url(#p231005dd29)" style="fill: #ebeced"/>
   </g>
   <g id="patch_111">
    <path d="M 281.998996 112.913561 
L 325.406696 112.913561 
L 325.406696 109.044694 
L 281.998996 109.044694 
z
" clip-path="url(#p231005dd29)" style="fill: #ebeced"/>
   </g>
   <g id="patch_112">
    <path d="M 281.998996 64.767663 
L 325.406696 64.767663 
L 325.406696 60.898797 
L 281.998996 60.898797 
z
" clip-path="url(#p231005dd29)" style="fill: #ebeced"/>
   </g>
   <g id="patch_113">
    <path d="M 281.998996 118.501924 
L 325.406696 118.501924 
L 325.406696 114.633058 
L 281.998996 114.633058 
z
" clip-path="url(#p231005dd29)" style="fill: #ebeced"/>
   </g>
   <g id="patch_114">
    <path d="M 281.998996 70.356026 
L 325.406696 70.356026 
L 325.406696 66.48716 
L 281.998996 66.48716 
z
" clip-path="url(#p231005dd29)" style="fill: #ebeced"/>
   </g>
   <g id="patch_115">
    <path d="M 281.998996 124.090287 
L 325.406696 124.090287 
L 325.406696 120.221421 
L 281.998996 120.221421 
z
" clip-path="url(#p231005dd29)" style="fill: #ebeced"/>
   </g>
   <g id="patch_116">
    <path d="M 281.998996 16.621765 
L 325.406696 16.621765 
L 325.406696 12.752899 
L 281.998996 12.752899 
z
" clip-path="url(#p231005dd29)" style="fill: #ebeced"/>
   </g>
   <g id="patch_117">
    <path d="M 329.265158 25.649121 
L 372.672858 25.649121 
L 372.672858 21.780255 
L 329.265158 21.780255 
z
" clip-path="url(#p231005dd29)" style="fill: #ebeced"/>
   </g>
   <g id="patch_118">
    <path d="M 329.265158 79.383382 
L 372.672858 79.383382 
L 372.672858 75.514516 
L 329.265158 75.514516 
z
" clip-path="url(#p231005dd29)" style="fill: #ebeced"/>
   </g>
   <g id="patch_119">
    <path d="M 329.265158 31.237484 
L 372.672858 31.237484 
L 372.672858 27.368618 
L 329.265158 27.368618 
z
" clip-path="url(#p231005dd29)" style="fill: #ebeced"/>
   </g>
   <g id="patch_120">
    <path d="M 329.265158 84.971745 
L 372.672858 84.971745 
L 372.672858 81.102879 
L 329.265158 81.102879 
z
" clip-path="url(#p231005dd29)" style="fill: #ebeced"/>
   </g>
   <g id="patch_121">
    <path d="M 329.265158 36.825848 
L 372.672858 36.825848 
L 372.672858 32.956981 
L 329.265158 32.956981 
z
" clip-path="url(#p231005dd29)" style="fill: #ebeced"/>
   </g>
   <g id="patch_122">
    <path d="M 329.265158 90.560109 
L 372.672858 90.560109 
L 372.672858 86.691242 
L 329.265158 86.691242 
z
" clip-path="url(#p231005dd29)" style="fill: #ebeced"/>
   </g>
   <g id="patch_123">
    <path d="M 329.265158 42.414211 
L 372.672858 42.414211 
L 372.672858 38.545344 
L 329.265158 38.545344 
z
" clip-path="url(#p231005dd29)" style="fill: #ebeced"/>
   </g>
   <g id="patch_124">
    <path d="M 329.265158 96.148472 
L 372.672858 96.148472 
L 372.672858 92.279605 
L 329.265158 92.279605 
z
" clip-path="url(#p231005dd29)" style="fill: #ebeced"/>
   </g>
   <g id="patch_125">
    <path d="M 329.265158 48.002574 
L 372.672858 48.002574 
L 372.672858 44.133707 
L 329.265158 44.133707 
z
" clip-path="url(#p231005dd29)" style="fill: #ebeced"/>
   </g>
   <g id="patch_126">
    <path d="M 329.265158 101.736835 
L 372.672858 101.736835 
L 372.672858 97.867968 
L 329.265158 97.867968 
z
" clip-path="url(#p231005dd29)" style="fill: #ebeced"/>
   </g>
   <g id="patch_127">
    <path d="M 329.265158 53.590937 
L 372.672858 53.590937 
L 372.672858 49.72207 
L 329.265158 49.72207 
z
" clip-path="url(#p231005dd29)" style="fill: #ebeced"/>
   </g>
   <g id="patch_128">
    <path d="M 329.265158 107.325198 
L 372.672858 107.325198 
L 372.672858 103.456331 
L 329.265158 103.456331 
z
" clip-path="url(#p231005dd29)" style="fill: #ebeced"/>
   </g>
   <g id="patch_129">
    <path d="M 329.265158 59.1793 
L 372.672858 59.1793 
L 372.672858 55.310433 
L 329.265158 55.310433 
z
" clip-path="url(#p231005dd29)" style="fill: #ebeced"/>
   </g>
   <g id="patch_130">
    <path d="M 329.265158 112.913561 
L 372.672858 112.913561 
L 372.672858 109.044694 
L 329.265158 109.044694 
z
" clip-path="url(#p231005dd29)" style="fill: #ebeced"/>
   </g>
   <g id="patch_131">
    <path d="M 329.265158 64.767663 
L 372.672858 64.767663 
L 372.672858 60.898797 
L 329.265158 60.898797 
z
" clip-path="url(#p231005dd29)" style="fill: #ebeced"/>
   </g>
   <g id="patch_132">
    <path d="M 329.265158 118.501924 
L 372.672858 118.501924 
L 372.672858 114.633058 
L 329.265158 114.633058 
z
" clip-path="url(#p231005dd29)" style="fill: #ebeced"/>
   </g>
   <g id="patch_133">
    <path d="M 329.265158 70.356026 
L 372.672858 70.356026 
L 372.672858 66.48716 
L 329.265158 66.48716 
z
" clip-path="url(#p231005dd29)" style="fill: #ebeced"/>
   </g>
   <g id="patch_134">
    <path d="M 329.265158 124.090287 
L 372.672858 124.090287 
L 372.672858 120.221421 
L 329.265158 120.221421 
z
" clip-path="url(#p231005dd29)" style="fill: #ebeced"/>
   </g>
   <g id="patch_135">
    <path d="M 329.265158 16.621765 
L 372.672858 16.621765 
L 372.672858 12.752899 
L 329.265158 12.752899 
z
" clip-path="url(#p231005dd29)" style="fill: #ebeced"/>
   </g>
   <g id="patch_136">
    <path d="M 376.53132 25.649121 
L 419.93902 25.649121 
L 419.93902 21.780255 
L 376.53132 21.780255 
z
" clip-path="url(#p231005dd29)" style="fill: #ebeced"/>
   </g>
   <g id="patch_137">
    <path d="M 376.53132 79.383382 
L 419.93902 79.383382 
L 419.93902 75.514516 
L 376.53132 75.514516 
z
" clip-path="url(#p231005dd29)" style="fill: #ebeced"/>
   </g>
   <g id="patch_138">
    <path d="M 376.53132 31.237484 
L 419.93902 31.237484 
L 419.93902 27.368618 
L 376.53132 27.368618 
z
" clip-path="url(#p231005dd29)" style="fill: #ebeced"/>
   </g>
   <g id="patch_139">
    <path d="M 376.53132 84.971745 
L 419.93902 84.971745 
L 419.93902 81.102879 
L 376.53132 81.102879 
z
" clip-path="url(#p231005dd29)" style="fill: #ebeced"/>
   </g>
   <g id="patch_140">
    <path d="M 376.53132 36.825848 
L 419.93902 36.825848 
L 419.93902 32.956981 
L 376.53132 32.956981 
z
" clip-path="url(#p231005dd29)" style="fill: #ebeced"/>
   </g>
   <g id="patch_141">
    <path d="M 376.53132 90.560109 
L 419.93902 90.560109 
L 419.93902 86.691242 
L 376.53132 86.691242 
z
" clip-path="url(#p231005dd29)" style="fill: #ebeced"/>
   </g>
   <g id="patch_142">
    <path d="M 376.53132 42.414211 
L 419.93902 42.414211 
L 419.93902 38.545344 
L 376.53132 38.545344 
z
" clip-path="url(#p231005dd29)" style="fill: #ebeced"/>
   </g>
   <g id="patch_143">
    <path d="M 376.53132 96.148472 
L 419.93902 96.148472 
L 419.93902 92.279605 
L 376.53132 92.279605 
z
" clip-path="url(#p231005dd29)" style="fill: #ebeced"/>
   </g>
   <g id="patch_144">
    <path d="M 376.53132 48.002574 
L 419.93902 48.002574 
L 419.93902 44.133707 
L 376.53132 44.133707 
z
" clip-path="url(#p231005dd29)" style="fill: #ebeced"/>
   </g>
   <g id="patch_145">
    <path d="M 376.53132 101.736835 
L 419.93902 101.736835 
L 419.93902 97.867968 
L 376.53132 97.867968 
z
" clip-path="url(#p231005dd29)" style="fill: #ebeced"/>
   </g>
   <g id="patch_146">
    <path d="M 376.53132 53.590937 
L 419.93902 53.590937 
L 419.93902 49.72207 
L 376.53132 49.72207 
z
" clip-path="url(#p231005dd29)" style="fill: #ebeced"/>
   </g>
   <g id="patch_147">
    <path d="M 376.53132 107.325198 
L 419.93902 107.325198 
L 419.93902 103.456331 
L 376.53132 103.456331 
z
" clip-path="url(#p231005dd29)" style="fill: #ebeced"/>
   </g>
   <g id="patch_148">
    <path d="M 376.53132 59.1793 
L 419.93902 59.1793 
L 419.93902 55.310433 
L 376.53132 55.310433 
z
" clip-path="url(#p231005dd29)" style="fill: #ebeced"/>
   </g>
   <g id="patch_149">
    <path d="M 376.53132 112.913561 
L 419.93902 112.913561 
L 419.93902 109.044694 
L 376.53132 109.044694 
z
" clip-path="url(#p231005dd29)" style="fill: #ebeced"/>
   </g>
   <g id="patch_150">
    <path d="M 376.53132 64.767663 
L 419.93902 64.767663 
L 419.93902 60.898797 
L 376.53132 60.898797 
z
" clip-path="url(#p231005dd29)" style="fill: #ebeced"/>
   </g>
   <g id="patch_151">
    <path d="M 376.53132 118.501924 
L 419.93902 118.501924 
L 419.93902 114.633058 
L 376.53132 114.633058 
z
" clip-path="url(#p231005dd29)" style="fill: #ebeced"/>
   </g>
   <g id="patch_152">
    <path d="M 376.53132 70.356026 
L 419.93902 70.356026 
L 419.93902 66.48716 
L 376.53132 66.48716 
z
" clip-path="url(#p231005dd29)" style="fill: #ebeced"/>
   </g>
   <g id="patch_153">
    <path d="M 376.53132 124.090287 
L 419.93902 124.090287 
L 419.93902 120.221421 
L 376.53132 120.221421 
z
" clip-path="url(#p231005dd29)" style="fill: #ebeced"/>
   </g>
   <g id="patch_154">
    <path d="M 376.53132 16.621765 
L 419.93902 16.621765 
L 419.93902 12.752899 
L 376.53132 12.752899 
z
" clip-path="url(#p231005dd29)" style="fill: #ebeced"/>
   </g>
   <g id="patch_155">
    <path d="M 423.797483 25.649121 
L 467.205183 25.649121 
L 467.205183 21.780255 
L 423.797483 21.780255 
z
" clip-path="url(#p231005dd29)" style="fill: #ebeced"/>
   </g>
   <g id="patch_156">
    <path d="M 423.797483 79.383382 
L 467.205183 79.383382 
L 467.205183 75.514516 
L 423.797483 75.514516 
z
" clip-path="url(#p231005dd29)" style="fill: #ebeced"/>
   </g>
   <g id="patch_157">
    <path d="M 423.797483 31.237484 
L 467.205183 31.237484 
L 467.205183 27.368618 
L 423.797483 27.368618 
z
" clip-path="url(#p231005dd29)" style="fill: #ebeced"/>
   </g>
   <g id="patch_158">
    <path d="M 423.797483 84.971745 
L 467.205183 84.971745 
L 467.205183 81.102879 
L 423.797483 81.102879 
z
" clip-path="url(#p231005dd29)" style="fill: #ebeced"/>
   </g>
   <g id="patch_159">
    <path d="M 423.797483 36.825848 
L 467.205183 36.825848 
L 467.205183 32.956981 
L 423.797483 32.956981 
z
" clip-path="url(#p231005dd29)" style="fill: #ebeced"/>
   </g>
   <g id="patch_160">
    <path d="M 423.797483 90.560109 
L 467.205183 90.560109 
L 467.205183 86.691242 
L 423.797483 86.691242 
z
" clip-path="url(#p231005dd29)" style="fill: #ebeced"/>
   </g>
   <g id="patch_161">
    <path d="M 423.797483 42.414211 
L 467.205183 42.414211 
L 467.205183 38.545344 
L 423.797483 38.545344 
z
" clip-path="url(#p231005dd29)" style="fill: #ebeced"/>
   </g>
   <g id="patch_162">
    <path d="M 423.797483 96.148472 
L 467.205183 96.148472 
L 467.205183 92.279605 
L 423.797483 92.279605 
z
" clip-path="url(#p231005dd29)" style="fill: #ebeced"/>
   </g>
   <g id="patch_163">
    <path d="M 423.797483 48.002574 
L 467.205183 48.002574 
L 467.205183 44.133707 
L 423.797483 44.133707 
z
" clip-path="url(#p231005dd29)" style="fill: #ebeced"/>
   </g>
   <g id="patch_164">
    <path d="M 423.797483 101.736835 
L 467.205183 101.736835 
L 467.205183 97.867968 
L 423.797483 97.867968 
z
" clip-path="url(#p231005dd29)" style="fill: #ebeced"/>
   </g>
   <g id="patch_165">
    <path d="M 423.797483 53.590937 
L 467.205183 53.590937 
L 467.205183 49.72207 
L 423.797483 49.72207 
z
" clip-path="url(#p231005dd29)" style="fill: #ebeced"/>
   </g>
   <g id="patch_166">
    <path d="M 423.797483 107.325198 
L 467.205183 107.325198 
L 467.205183 103.456331 
L 423.797483 103.456331 
z
" clip-path="url(#p231005dd29)" style="fill: #ebeced"/>
   </g>
   <g id="patch_167">
    <path d="M 423.797483 59.1793 
L 467.205183 59.1793 
L 467.205183 55.310433 
L 423.797483 55.310433 
z
" clip-path="url(#p231005dd29)" style="fill: #ebeced"/>
   </g>
   <g id="patch_168">
    <path d="M 423.797483 112.913561 
L 467.205183 112.913561 
L 467.205183 109.044694 
L 423.797483 109.044694 
z
" clip-path="url(#p231005dd29)" style="fill: #ebeced"/>
   </g>
   <g id="patch_169">
    <path d="M 423.797483 64.767663 
L 467.205183 64.767663 
L 467.205183 60.898797 
L 423.797483 60.898797 
z
" clip-path="url(#p231005dd29)" style="fill: #ebeced"/>
   </g>
   <g id="patch_170">
    <path d="M 423.797483 118.501924 
L 467.205183 118.501924 
L 467.205183 114.633058 
L 423.797483 114.633058 
z
" clip-path="url(#p231005dd29)" style="fill: #ebeced"/>
   </g>
   <g id="patch_171">
    <path d="M 423.797483 70.356026 
L 467.205183 70.356026 
L 467.205183 66.48716 
L 423.797483 66.48716 
z
" clip-path="url(#p231005dd29)" style="fill: #ebeced"/>
   </g>
   <g id="patch_172">
    <path d="M 423.797483 124.090287 
L 467.205183 124.090287 
L 467.205183 120.221421 
L 423.797483 120.221421 
z
" clip-path="url(#p231005dd29)" style="fill: #ebeced"/>
   </g>
   <g id="patch_173">
    <path d="M 423.797483 16.621765 
L 467.205183 16.621765 
L 467.205183 12.752899 
L 423.797483 12.752899 
z
" clip-path="url(#p231005dd29)" style="fill: #ebeced"/>
   </g>
   <g id="patch_174">
    <path d="M 471.063645 25.649121 
L 514.471345 25.649121 
L 514.471345 21.780255 
L 471.063645 21.780255 
z
" clip-path="url(#p231005dd29)" style="fill: #ebeced"/>
   </g>
   <g id="patch_175">
    <path d="M 471.063645 79.383382 
L 514.471345 79.383382 
L 514.471345 75.514516 
L 471.063645 75.514516 
z
" clip-path="url(#p231005dd29)" style="fill: #ebeced"/>
   </g>
   <g id="patch_176">
    <path d="M 471.063645 31.237484 
L 514.471345 31.237484 
L 514.471345 27.368618 
L 471.063645 27.368618 
z
" clip-path="url(#p231005dd29)" style="fill: #ebeced"/>
   </g>
   <g id="patch_177">
    <path d="M 471.063645 84.971745 
L 514.471345 84.971745 
L 514.471345 81.102879 
L 471.063645 81.102879 
z
" clip-path="url(#p231005dd29)" style="fill: #ebeced"/>
   </g>
   <g id="patch_178">
    <path d="M 471.063645 36.825848 
L 514.471345 36.825848 
L 514.471345 32.956981 
L 471.063645 32.956981 
z
" clip-path="url(#p231005dd29)" style="fill: #ebeced"/>
   </g>
   <g id="patch_179">
    <path d="M 471.063645 90.560109 
L 514.471345 90.560109 
L 514.471345 86.691242 
L 471.063645 86.691242 
z
" clip-path="url(#p231005dd29)" style="fill: #ebeced"/>
   </g>
   <g id="patch_180">
    <path d="M 471.063645 42.414211 
L 514.471345 42.414211 
L 514.471345 38.545344 
L 471.063645 38.545344 
z
" clip-path="url(#p231005dd29)" style="fill: #ebeced"/>
   </g>
   <g id="patch_181">
    <path d="M 471.063645 96.148472 
L 514.471345 96.148472 
L 514.471345 92.279605 
L 471.063645 92.279605 
z
" clip-path="url(#p231005dd29)" style="fill: #ebeced"/>
   </g>
   <g id="patch_182">
    <path d="M 471.063645 48.002574 
L 514.471345 48.002574 
L 514.471345 44.133707 
L 471.063645 44.133707 
z
" clip-path="url(#p231005dd29)" style="fill: #ebeced"/>
   </g>
   <g id="patch_183">
    <path d="M 471.063645 101.736835 
L 514.471345 101.736835 
L 514.471345 97.867968 
L 471.063645 97.867968 
z
" clip-path="url(#p231005dd29)" style="fill: #ebeced"/>
   </g>
   <g id="patch_184">
    <path d="M 471.063645 53.590937 
L 514.471345 53.590937 
L 514.471345 49.72207 
L 471.063645 49.72207 
z
" clip-path="url(#p231005dd29)" style="fill: #ebeced"/>
   </g>
   <g id="patch_185">
    <path d="M 471.063645 107.325198 
L 514.471345 107.325198 
L 514.471345 103.456331 
L 471.063645 103.456331 
z
" clip-path="url(#p231005dd29)" style="fill: #ebeced"/>
   </g>
   <g id="patch_186">
    <path d="M 471.063645 59.1793 
L 514.471345 59.1793 
L 514.471345 55.310433 
L 471.063645 55.310433 
z
" clip-path="url(#p231005dd29)" style="fill: #ebeced"/>
   </g>
   <g id="patch_187">
    <path d="M 471.063645 112.913561 
L 514.471345 112.913561 
L 514.471345 109.044694 
L 471.063645 109.044694 
z
" clip-path="url(#p231005dd29)" style="fill: #ebeced"/>
   </g>
   <g id="patch_188">
    <path d="M 471.063645 64.767663 
L 514.471345 64.767663 
L 514.471345 60.898797 
L 471.063645 60.898797 
z
" clip-path="url(#p231005dd29)" style="fill: #ebeced"/>
   </g>
   <g id="patch_189">
    <path d="M 471.063645 118.501924 
L 514.471345 118.501924 
L 514.471345 114.633058 
L 471.063645 114.633058 
z
" clip-path="url(#p231005dd29)" style="fill: #ebeced"/>
   </g>
   <g id="patch_190">
    <path d="M 471.063645 70.356026 
L 514.471345 70.356026 
L 514.471345 66.48716 
L 471.063645 66.48716 
z
" clip-path="url(#p231005dd29)" style="fill: #ebeced"/>
   </g>
   <g id="patch_191">
    <path d="M 471.063645 124.090287 
L 514.471345 124.090287 
L 514.471345 120.221421 
L 471.063645 120.221421 
z
" clip-path="url(#p231005dd29)" style="fill: #ebeced"/>
   </g>
   <g id="patch_192">
    <path d="M 471.063645 16.621765 
L 514.471345 16.621765 
L 514.471345 12.752899 
L 471.063645 12.752899 
z
" clip-path="url(#p231005dd29)" style="fill: #ebeced"/>
   </g>
   <g id="patch_193">
    <path d="M 518.329807 25.649121 
L 561.737507 25.649121 
L 561.737507 21.780255 
L 518.329807 21.780255 
z
" clip-path="url(#p231005dd29)" style="fill: #ebeced"/>
   </g>
   <g id="patch_194">
    <path d="M 518.329807 79.383382 
L 561.737507 79.383382 
L 561.737507 75.514516 
L 518.329807 75.514516 
z
" clip-path="url(#p231005dd29)" style="fill: #ebeced"/>
   </g>
   <g id="patch_195">
    <path d="M 518.329807 31.237484 
L 561.737507 31.237484 
L 561.737507 27.368618 
L 518.329807 27.368618 
z
" clip-path="url(#p231005dd29)" style="fill: #ebeced"/>
   </g>
   <g id="patch_196">
    <path d="M 518.329807 84.971745 
L 561.737507 84.971745 
L 561.737507 81.102879 
L 518.329807 81.102879 
z
" clip-path="url(#p231005dd29)" style="fill: #ebeced"/>
   </g>
   <g id="patch_197">
    <path d="M 518.329807 36.825848 
L 561.737507 36.825848 
L 561.737507 32.956981 
L 518.329807 32.956981 
z
" clip-path="url(#p231005dd29)" style="fill: #ebeced"/>
   </g>
   <g id="patch_198">
    <path d="M 518.329807 90.560109 
L 561.737507 90.560109 
L 561.737507 86.691242 
L 518.329807 86.691242 
z
" clip-path="url(#p231005dd29)" style="fill: #ebeced"/>
   </g>
   <g id="patch_199">
    <path d="M 518.329807 42.414211 
L 561.737507 42.414211 
L 561.737507 38.545344 
L 518.329807 38.545344 
z
" clip-path="url(#p231005dd29)" style="fill: #ebeced"/>
   </g>
   <g id="patch_200">
    <path d="M 518.329807 96.148472 
L 561.737507 96.148472 
L 561.737507 92.279605 
L 518.329807 92.279605 
z
" clip-path="url(#p231005dd29)" style="fill: #ebeced"/>
   </g>
   <g id="patch_201">
    <path d="M 518.329807 48.002574 
L 561.737507 48.002574 
L 561.737507 44.133707 
L 518.329807 44.133707 
z
" clip-path="url(#p231005dd29)" style="fill: #ebeced"/>
   </g>
   <g id="patch_202">
    <path d="M 518.329807 101.736835 
L 561.737507 101.736835 
L 561.737507 97.867968 
L 518.329807 97.867968 
z
" clip-path="url(#p231005dd29)" style="fill: #ebeced"/>
   </g>
   <g id="patch_203">
    <path d="M 518.329807 53.590937 
L 561.737507 53.590937 
L 561.737507 49.72207 
L 518.329807 49.72207 
z
" clip-path="url(#p231005dd29)" style="fill: #ebeced"/>
   </g>
   <g id="patch_204">
    <path d="M 518.329807 107.325198 
L 561.737507 107.325198 
L 561.737507 103.456331 
L 518.329807 103.456331 
z
" clip-path="url(#p231005dd29)" style="fill: #ebeced"/>
   </g>
   <g id="patch_205">
    <path d="M 518.329807 59.1793 
L 561.737507 59.1793 
L 561.737507 55.310433 
L 518.329807 55.310433 
z
" clip-path="url(#p231005dd29)" style="fill: #ebeced"/>
   </g>
   <g id="patch_206">
    <path d="M 518.329807 112.913561 
L 561.737507 112.913561 
L 561.737507 109.044694 
L 518.329807 109.044694 
z
" clip-path="url(#p231005dd29)" style="fill: #ebeced"/>
   </g>
   <g id="patch_207">
    <path d="M 518.329807 64.767663 
L 561.737507 64.767663 
L 561.737507 60.898797 
L 518.329807 60.898797 
z
" clip-path="url(#p231005dd29)" style="fill: #ebeced"/>
   </g>
   <g id="patch_208">
    <path d="M 518.329807 118.501924 
L 561.737507 118.501924 
L 561.737507 114.633058 
L 518.329807 114.633058 
z
" clip-path="url(#p231005dd29)" style="fill: #ebeced"/>
   </g>
   <g id="patch_209">
    <path d="M 518.329807 70.356026 
L 561.737507 70.356026 
L 561.737507 66.48716 
L 518.329807 66.48716 
z
" clip-path="url(#p231005dd29)" style="fill: #ebeced"/>
   </g>
   <g id="patch_210">
    <path d="M 518.329807 124.090287 
L 561.737507 124.090287 
L 561.737507 120.221421 
L 518.329807 120.221421 
z
" clip-path="url(#p231005dd29)" style="fill: #ebeced"/>
   </g>
   <g id="patch_211">
    <path d="M 518.329807 16.621765 
L 561.737507 16.621765 
L 561.737507 12.752899 
L 518.329807 12.752899 
z
" clip-path="url(#p231005dd29)" style="fill: #ebeced"/>
   </g>
   <g id="patch_212">
    <path d="M 565.595969 25.649121 
L 609.003669 25.649121 
L 609.003669 21.780255 
L 565.595969 21.780255 
z
" clip-path="url(#p231005dd29)" style="fill: #ebeced"/>
   </g>
   <g id="patch_213">
    <path d="M 565.595969 79.383382 
L 609.003669 79.383382 
L 609.003669 75.514516 
L 565.595969 75.514516 
z
" clip-path="url(#p231005dd29)" style="fill: #ebeced"/>
   </g>
   <g id="patch_214">
    <path d="M 565.595969 31.237484 
L 609.003669 31.237484 
L 609.003669 27.368618 
L 565.595969 27.368618 
z
" clip-path="url(#p231005dd29)" style="fill: #ebeced"/>
   </g>
   <g id="patch_215">
    <path d="M 565.595969 84.971745 
L 609.003669 84.971745 
L 609.003669 81.102879 
L 565.595969 81.102879 
z
" clip-path="url(#p231005dd29)" style="fill: #ebeced"/>
   </g>
   <g id="patch_216">
    <path d="M 565.595969 36.825848 
L 609.003669 36.825848 
L 609.003669 32.956981 
L 565.595969 32.956981 
z
" clip-path="url(#p231005dd29)" style="fill: #ebeced"/>
   </g>
   <g id="patch_217">
    <path d="M 565.595969 90.560109 
L 609.003669 90.560109 
L 609.003669 86.691242 
L 565.595969 86.691242 
z
" clip-path="url(#p231005dd29)" style="fill: #ebeced"/>
   </g>
   <g id="patch_218">
    <path d="M 565.595969 42.414211 
L 609.003669 42.414211 
L 609.003669 38.545344 
L 565.595969 38.545344 
z
" clip-path="url(#p231005dd29)" style="fill: #ebeced"/>
   </g>
   <g id="patch_219">
    <path d="M 565.595969 96.148472 
L 609.003669 96.148472 
L 609.003669 92.279605 
L 565.595969 92.279605 
z
" clip-path="url(#p231005dd29)" style="fill: #ebeced"/>
   </g>
   <g id="patch_220">
    <path d="M 565.595969 48.002574 
L 609.003669 48.002574 
L 609.003669 44.133707 
L 565.595969 44.133707 
z
" clip-path="url(#p231005dd29)" style="fill: #ebeced"/>
   </g>
   <g id="patch_221">
    <path d="M 565.595969 101.736835 
L 609.003669 101.736835 
L 609.003669 97.867968 
L 565.595969 97.867968 
z
" clip-path="url(#p231005dd29)" style="fill: #ebeced"/>
   </g>
   <g id="patch_222">
    <path d="M 565.595969 53.590937 
L 609.003669 53.590937 
L 609.003669 49.72207 
L 565.595969 49.72207 
z
" clip-path="url(#p231005dd29)" style="fill: #ebeced"/>
   </g>
   <g id="patch_223">
    <path d="M 565.595969 107.325198 
L 609.003669 107.325198 
L 609.003669 103.456331 
L 565.595969 103.456331 
z
" clip-path="url(#p231005dd29)" style="fill: #ebeced"/>
   </g>
   <g id="patch_224">
    <path d="M 565.595969 59.1793 
L 609.003669 59.1793 
L 609.003669 55.310433 
L 565.595969 55.310433 
z
" clip-path="url(#p231005dd29)" style="fill: #ebeced"/>
   </g>
   <g id="patch_225">
    <path d="M 565.595969 112.913561 
L 609.003669 112.913561 
L 609.003669 109.044694 
L 565.595969 109.044694 
z
" clip-path="url(#p231005dd29)" style="fill: #ebeced"/>
   </g>
   <g id="patch_226">
    <path d="M 565.595969 64.767663 
L 609.003669 64.767663 
L 609.003669 60.898797 
L 565.595969 60.898797 
z
" clip-path="url(#p231005dd29)" style="fill: #ebeced"/>
   </g>
   <g id="patch_227">
    <path d="M 565.595969 118.501924 
L 609.003669 118.501924 
L 609.003669 114.633058 
L 565.595969 114.633058 
z
" clip-path="url(#p231005dd29)" style="fill: #ebeced"/>
   </g>
   <g id="patch_228">
    <path d="M 565.595969 70.356026 
L 609.003669 70.356026 
L 609.003669 66.48716 
L 565.595969 66.48716 
z
" clip-path="url(#p231005dd29)" style="fill: #ebeced"/>
   </g>
   <g id="patch_229">
    <path d="M 565.595969 124.090287 
L 609.003669 124.090287 
L 609.003669 120.221421 
L 565.595969 120.221421 
z
" clip-path="url(#p231005dd29)" style="fill: #ebeced"/>
   </g>
   <g id="patch_230">
    <path d="M 565.595969 16.621765 
L 609.003669 16.621765 
L 609.003669 12.752899 
L 565.595969 12.752899 
z
" clip-path="url(#p231005dd29)" style="fill: #ebeced"/>
   </g>
   <g id="matplotlib.axis_1"/>
   <g id="matplotlib.axis_2"/>
   <g id="patch_231">
    <path d="M 45.668185 48.002574 
L 89.075885 48.002574 
L 89.075885 44.133707 
L 45.668185 44.133707 
z
" clip-path="url(#p231005dd29)" style="fill: #e36aae"/>
   </g>
   <g id="patch_232">
    <path d="M 45.668185 101.736835 
L 89.075885 101.736835 
L 89.075885 97.867968 
L 45.668185 97.867968 
z
" clip-path="url(#p231005dd29)" style="fill: #e36aae"/>
   </g>
   <g id="patch_233">
    <path d="M 92.934347 64.767663 
L 136.342047 64.767663 
L 136.342047 60.898797 
L 92.934347 60.898797 
z
" clip-path="url(#p231005dd29)" style="fill: #dbdc8d"/>
   </g>
   <g id="patch_234">
    <path d="M 92.934347 118.501924 
L 136.342047 118.501924 
L 136.342047 114.633058 
L 92.934347 114.633058 
z
" clip-path="url(#p231005dd29)" style="fill: #dbdc8d"/>
   </g>
   <g id="patch_235">
    <path d="M 140.200509 48.002574 
L 183.608209 48.002574 
L 183.608209 44.133707 
L 140.200509 44.133707 
z
" clip-path="url(#p231005dd29)" style="fill: #e36aae"/>
   </g>
   <g id="patch_236">
    <path d="M 140.200509 101.736835 
L 183.608209 101.736835 
L 183.608209 97.867968 
L 140.200509 97.867968 
z
" clip-path="url(#p231005dd29)" style="fill: #e36aae"/>
   </g>
   <g id="patch_237">
    <path d="M 188.672441 25.649121 
L 189.275326 25.649121 
L 189.275326 21.780255 
L 188.672441 21.780255 
z
" clip-path="url(#p231005dd29)" style="fill: #1f5aa6"/>
   </g>
   <g id="patch_238">
    <path d="M 190.842826 25.649121 
L 195.183596 25.649121 
L 195.183596 21.780255 
L 190.842826 21.780255 
z
" clip-path="url(#p231005dd29)" style="fill: #1f5aa6"/>
   </g>
   <g id="patch_239">
    <path d="M 187.466672 79.383382 
L 195.183596 79.383382 
L 195.183596 75.514516 
L 187.466672 75.514516 
z
" clip-path="url(#p231005dd29)" style="fill: #1f5aa6"/>
   </g>
   <g id="patch_240">
    <path d="M 187.466672 64.767663 
L 188.672441 64.767663 
L 188.672441 60.898797 
L 187.466672 60.898797 
z
" clip-path="url(#p231005dd29)" style="fill: #dbdc8d"/>
   </g>
   <g id="patch_241">
    <path d="M 189.275326 64.767663 
L 190.842826 64.767663 
L 190.842826 60.898797 
L 189.275326 60.898797 
z
" clip-path="url(#p231005dd29)" style="fill: #dbdc8d"/>
   </g>
   <g id="patch_242">
    <path d="M 195.183596 64.767663 
L 230.874372 64.767663 
L 230.874372 60.898797 
L 195.183596 60.898797 
z
" clip-path="url(#p231005dd29)" style="fill: #dbdc8d"/>
   </g>
   <g id="patch_243">
    <path d="M 195.183596 118.501924 
L 230.874372 118.501924 
L 230.874372 114.633058 
L 195.183596 114.633058 
z
" clip-path="url(#p231005dd29)" style="fill: #dbdc8d"/>
   </g>
   <g id="patch_244">
    <path d="M 187.466672 16.621765 
L 188.672441 16.621765 
L 188.672441 12.752899 
L 187.466672 12.752899 
z
" clip-path="url(#p231005dd29)" style="fill: #1f5aa6"/>
   </g>
   <g id="patch_245">
    <path d="M 189.275326 16.621765 
L 190.842826 16.621765 
L 190.842826 12.752899 
L 189.275326 12.752899 
z
" clip-path="url(#p231005dd29)" style="fill: #1f5aa6"/>
   </g>
   <g id="patch_246">
    <path d="M 272.955725 25.649121 
L 278.140534 25.649121 
L 278.140534 21.780255 
L 272.955725 21.780255 
z
" clip-path="url(#p231005dd29)" style="fill: #1f5aa6"/>
   </g>
   <g id="patch_247">
    <path d="M 266.926878 79.383382 
L 269.458994 79.383382 
L 269.458994 75.514516 
L 266.926878 75.514516 
z
" clip-path="url(#p231005dd29)" style="fill: #1f5aa6"/>
   </g>
   <g id="patch_248">
    <path d="M 272.473417 79.383382 
L 272.714571 79.383382 
L 272.714571 75.514516 
L 272.473417 75.514516 
z
" clip-path="url(#p231005dd29)" style="fill: #1f5aa6"/>
   </g>
   <g id="patch_249">
    <path d="M 272.835148 79.383382 
L 278.140534 79.383382 
L 278.140534 75.514516 
L 272.835148 75.514516 
z
" clip-path="url(#p231005dd29)" style="fill: #1f5aa6"/>
   </g>
   <g id="patch_250">
    <path d="M 237.023796 107.325198 
L 237.144373 107.325198 
L 237.144373 103.456331 
L 237.023796 103.456331 
z
" clip-path="url(#p231005dd29)" style="fill: #a7a9ac"/>
   </g>
   <g id="patch_251">
    <path d="M 237.26495 107.325198 
L 237.747257 107.325198 
L 237.747257 103.456331 
L 237.26495 103.456331 
z
" clip-path="url(#p231005dd29)" style="fill: #a7a9ac"/>
   </g>
   <g id="patch_252">
    <path d="M 237.988411 107.325198 
L 238.591296 107.325198 
L 238.591296 103.456331 
L 237.988411 103.456331 
z
" clip-path="url(#p231005dd29)" style="fill: #a7a9ac"/>
   </g>
   <g id="patch_253">
    <path d="M 267.891494 64.767663 
L 272.955725 64.767663 
L 272.955725 60.898797 
L 267.891494 60.898797 
z
" clip-path="url(#p231005dd29)" style="fill: #dbdc8d"/>
   </g>
   <g id="patch_254">
    <path d="M 269.458994 118.501924 
L 272.473417 118.501924 
L 272.473417 114.633058 
L 269.458994 114.633058 
z
" clip-path="url(#p231005dd29)" style="fill: #dbdc8d"/>
   </g>
   <g id="patch_255">
    <path d="M 272.714571 118.501924 
L 272.835148 118.501924 
L 272.835148 114.633058 
L 272.714571 114.633058 
z
" clip-path="url(#p231005dd29)" style="fill: #dbdc8d"/>
   </g>
   <g id="patch_256">
    <path d="M 234.732834 70.356026 
L 267.891494 70.356026 
L 267.891494 66.48716 
L 234.732834 66.48716 
z
" clip-path="url(#p231005dd29)" style="fill: #9edae6"/>
   </g>
   <g id="patch_257">
    <path d="M 234.732834 124.090287 
L 237.023796 124.090287 
L 237.023796 120.221421 
L 234.732834 120.221421 
z
" clip-path="url(#p231005dd29)" style="fill: #9edae6"/>
   </g>
   <g id="patch_258">
    <path d="M 237.144373 124.090287 
L 237.26495 124.090287 
L 237.26495 120.221421 
L 237.144373 120.221421 
z
" clip-path="url(#p231005dd29)" style="fill: #9edae6"/>
   </g>
   <g id="patch_259">
    <path d="M 237.747257 124.090287 
L 237.988411 124.090287 
L 237.988411 120.221421 
L 237.747257 120.221421 
z
" clip-path="url(#p231005dd29)" style="fill: #9edae6"/>
   </g>
   <g id="patch_260">
    <path d="M 238.591296 124.090287 
L 266.926878 124.090287 
L 266.926878 120.221421 
L 238.591296 120.221421 
z
" clip-path="url(#p231005dd29)" style="fill: #9edae6"/>
   </g>
   <g id="patch_261">
    <path d="M 237.023796 16.621765 
L 237.144373 16.621765 
L 237.144373 12.752899 
L 237.023796 12.752899 
z
" clip-path="url(#p231005dd29)" style="fill: #a7a9ac"/>
   </g>
   <g id="patch_262">
    <path d="M 237.26495 16.621765 
L 237.747257 16.621765 
L 237.747257 12.752899 
L 237.26495 12.752899 
z
" clip-path="url(#p231005dd29)" style="fill: #a7a9ac"/>
   </g>
   <g id="patch_263">
    <path d="M 237.988411 16.621765 
L 238.591296 16.621765 
L 238.591296 12.752899 
L 237.988411 12.752899 
z
" clip-path="url(#p231005dd29)" style="fill: #a7a9ac"/>
   </g>
   <g id="patch_264">
    <path d="M 266.926878 16.621765 
L 269.458994 16.621765 
L 269.458994 12.752899 
L 266.926878 12.752899 
z
" clip-path="url(#p231005dd29)" style="fill: #1f5aa6"/>
   </g>
   <g id="patch_265">
    <path d="M 272.473417 16.621765 
L 272.714571 16.621765 
L 272.714571 12.752899 
L 272.473417 12.752899 
z
" clip-path="url(#p231005dd29)" style="fill: #1f5aa6"/>
   </g>
   <g id="patch_266">
    <path d="M 272.835148 16.621765 
L 272.955725 16.621765 
L 272.955725 12.752899 
L 272.835148 12.752899 
z
" clip-path="url(#p231005dd29)" style="fill: #1f5aa6"/>
   </g>
   <g id="patch_267">
    <path d="M 301.532461 25.649121 
L 301.653038 25.649121 
L 301.653038 21.780255 
L 301.532461 21.780255 
z
" clip-path="url(#p231005dd29)" style="fill: #1f5aa6"/>
   </g>
   <g id="patch_268">
    <path d="M 312.866694 79.383382 
L 315.76054 79.383382 
L 315.76054 75.514516 
L 312.866694 75.514516 
z
" clip-path="url(#p231005dd29)" style="fill: #1f5aa6"/>
   </g>
   <g id="patch_269">
    <path d="M 315.881117 79.383382 
L 316.122271 79.383382 
L 316.122271 75.514516 
L 315.881117 75.514516 
z
" clip-path="url(#p231005dd29)" style="fill: #1f5aa6"/>
   </g>
   <g id="patch_270">
    <path d="M 321.186503 64.767663 
L 325.406696 64.767663 
L 325.406696 60.898797 
L 321.186503 60.898797 
z
" clip-path="url(#p231005dd29)" style="fill: #dbdc8d"/>
   </g>
   <g id="patch_271">
    <path d="M 281.998996 70.356026 
L 301.532461 70.356026 
L 301.532461 66.48716 
L 281.998996 66.48716 
z
" clip-path="url(#p231005dd29)" style="fill: #9edae6"/>
   </g>
   <g id="patch_272">
    <path d="M 301.653038 70.356026 
L 321.186503 70.356026 
L 321.186503 66.48716 
L 301.653038 66.48716 
z
" clip-path="url(#p231005dd29)" style="fill: #9edae6"/>
   </g>
   <g id="patch_273">
    <path d="M 281.998996 124.090287 
L 312.866694 124.090287 
L 312.866694 120.221421 
L 281.998996 120.221421 
z
" clip-path="url(#p231005dd29)" style="fill: #9edae6"/>
   </g>
   <g id="patch_274">
    <path d="M 315.76054 124.090287 
L 315.881117 124.090287 
L 315.881117 120.221421 
L 315.76054 120.221421 
z
" clip-path="url(#p231005dd29)" style="fill: #9edae6"/>
   </g>
   <g id="patch_275">
    <path d="M 316.122271 124.090287 
L 325.406696 124.090287 
L 325.406696 120.221421 
L 316.122271 120.221421 
z
" clip-path="url(#p231005dd29)" style="fill: #9edae6"/>
   </g>
   <g id="patch_276">
    <path d="M 301.532461 16.621765 
L 301.653038 16.621765 
L 301.653038 12.752899 
L 301.532461 12.752899 
z
" clip-path="url(#p231005dd29)" style="fill: #9edae6"/>
   </g>
   <g id="patch_277">
    <path d="M 312.866694 16.621765 
L 315.76054 16.621765 
L 315.76054 12.752899 
L 312.866694 12.752899 
z
" clip-path="url(#p231005dd29)" style="fill: #1f5aa6"/>
   </g>
   <g id="patch_278">
    <path d="M 315.881117 16.621765 
L 316.122271 16.621765 
L 316.122271 12.752899 
L 315.881117 12.752899 
z
" clip-path="url(#p231005dd29)" style="fill: #1f5aa6"/>
   </g>
   <g id="patch_279">
    <path d="M 321.186503 16.621765 
L 325.406696 16.621765 
L 325.406696 12.752899 
L 321.186503 12.752899 
z
" clip-path="url(#p231005dd29)" style="fill: #9edae6"/>
   </g>
   <g id="patch_280">
    <path d="M 355.309778 79.383382 
L 357.118432 79.383382 
L 357.118432 75.514516 
L 355.309778 75.514516 
z
" clip-path="url(#p231005dd29)" style="fill: #1f5aa6"/>
   </g>
   <g id="patch_281">
    <path d="M 360.132856 79.383382 
L 363.991318 79.383382 
L 363.991318 75.514516 
L 360.132856 75.514516 
z
" clip-path="url(#p231005dd29)" style="fill: #1f5aa6"/>
   </g>
   <g id="patch_282">
    <path d="M 360.615164 48.002574 
L 372.672858 48.002574 
L 372.672858 44.133707 
L 360.615164 44.133707 
z
" clip-path="url(#p231005dd29)" style="fill: #e36aae"/>
   </g>
   <g id="patch_283">
    <path d="M 363.991318 101.736835 
L 372.672858 101.736835 
L 372.672858 97.867968 
L 363.991318 97.867968 
z
" clip-path="url(#p231005dd29)" style="fill: #e36aae"/>
   </g>
   <g id="patch_284">
    <path d="M 329.265158 64.767663 
L 360.615164 64.767663 
L 360.615164 60.898797 
L 329.265158 60.898797 
z
" clip-path="url(#p231005dd29)" style="fill: #dbdc8d"/>
   </g>
   <g id="patch_285">
    <path d="M 329.265158 118.501924 
L 355.309778 118.501924 
L 355.309778 114.633058 
L 329.265158 114.633058 
z
" clip-path="url(#p231005dd29)" style="fill: #dbdc8d"/>
   </g>
   <g id="patch_286">
    <path d="M 357.118432 124.090287 
L 360.132856 124.090287 
L 360.132856 120.221421 
L 357.118432 120.221421 
z
" clip-path="url(#p231005dd29)" style="fill: #9edae6"/>
   </g>
   <g id="patch_287">
    <path d="M 355.309778 16.621765 
L 363.991318 16.621765 
L 363.991318 12.752899 
L 355.309778 12.752899 
z
" clip-path="url(#p231005dd29)" style="fill: #1f5aa6"/>
   </g>
   <g id="patch_288">
    <path d="M 384.248245 79.383382 
L 395.823632 79.383382 
L 395.823632 75.514516 
L 384.248245 75.514516 
z
" clip-path="url(#p231005dd29)" style="fill: #1f5aa6"/>
   </g>
   <g id="patch_289">
    <path d="M 376.53132 59.1793 
L 419.93902 59.1793 
L 419.93902 55.310433 
L 376.53132 55.310433 
z
" clip-path="url(#p231005dd29)" style="fill: #f2856e"/>
   </g>
   <g id="patch_290">
    <path d="M 376.53132 112.913561 
L 384.248245 112.913561 
L 384.248245 109.044694 
L 376.53132 109.044694 
z
" clip-path="url(#p231005dd29)" style="fill: #f2856e"/>
   </g>
   <g id="patch_291">
    <path d="M 395.823632 112.913561 
L 419.93902 112.913561 
L 419.93902 109.044694 
L 395.823632 109.044694 
z
" clip-path="url(#p231005dd29)" style="fill: #f2856e"/>
   </g>
   <g id="patch_292">
    <path d="M 384.248245 16.621765 
L 395.823632 16.621765 
L 395.823632 12.752899 
L 384.248245 12.752899 
z
" clip-path="url(#p231005dd29)" style="fill: #1f5aa6"/>
   </g>
   <g id="patch_293">
    <path d="M 423.797483 79.383382 
L 425.123829 79.383382 
L 425.123829 75.514516 
L 423.797483 75.514516 
z
" clip-path="url(#p231005dd29)" style="fill: #1f5aa6"/>
   </g>
   <g id="patch_294">
    <path d="M 455.026911 79.383382 
L 455.147488 79.383382 
L 455.147488 75.514516 
L 455.026911 75.514516 
z
" clip-path="url(#p231005dd29)" style="fill: #1f5aa6"/>
   </g>
   <g id="patch_295">
    <path d="M 455.268065 79.383382 
L 458.041335 79.383382 
L 458.041335 75.514516 
L 455.268065 75.514516 
z
" clip-path="url(#p231005dd29)" style="fill: #1f5aa6"/>
   </g>
   <g id="patch_296">
    <path d="M 458.161912 79.383382 
L 458.403066 79.383382 
L 458.403066 75.514516 
L 458.161912 75.514516 
z
" clip-path="url(#p231005dd29)" style="fill: #1f5aa6"/>
   </g>
   <g id="patch_297">
    <path d="M 423.797483 64.767663 
L 467.205183 64.767663 
L 467.205183 60.898797 
L 423.797483 60.898797 
z
" clip-path="url(#p231005dd29)" style="fill: #dbdc8d"/>
   </g>
   <g id="patch_298">
    <path d="M 425.123829 118.501924 
L 455.026911 118.501924 
L 455.026911 114.633058 
L 425.123829 114.633058 
z
" clip-path="url(#p231005dd29)" style="fill: #dbdc8d"/>
   </g>
   <g id="patch_299">
    <path d="M 455.147488 118.501924 
L 455.268065 118.501924 
L 455.268065 114.633058 
L 455.147488 114.633058 
z
" clip-path="url(#p231005dd29)" style="fill: #dbdc8d"/>
   </g>
   <g id="patch_300">
    <path d="M 458.041335 124.090287 
L 458.161912 124.090287 
L 458.161912 120.221421 
L 458.041335 120.221421 
z
" clip-path="url(#p231005dd29)" style="fill: #9edae6"/>
   </g>
   <g id="patch_301">
    <path d="M 458.403066 124.090287 
L 467.205183 124.090287 
L 467.205183 120.221421 
L 458.403066 120.221421 
z
" clip-path="url(#p231005dd29)" style="fill: #9edae6"/>
   </g>
   <g id="patch_302">
    <path d="M 423.797483 16.621765 
L 425.123829 16.621765 
L 425.123829 12.752899 
L 423.797483 12.752899 
z
" clip-path="url(#p231005dd29)" style="fill: #1f5aa6"/>
   </g>
   <g id="patch_303">
    <path d="M 455.026911 16.621765 
L 455.147488 16.621765 
L 455.147488 12.752899 
L 455.026911 12.752899 
z
" clip-path="url(#p231005dd29)" style="fill: #1f5aa6"/>
   </g>
   <g id="patch_304">
    <path d="M 455.268065 16.621765 
L 467.205183 16.621765 
L 467.205183 12.752899 
L 455.268065 12.752899 
z
" clip-path="url(#p231005dd29)" style="fill: #9edae6"/>
   </g>
   <g id="patch_305">
    <path d="M 498.07288 79.383382 
L 499.158073 79.383382 
L 499.158073 75.514516 
L 498.07288 75.514516 
z
" clip-path="url(#p231005dd29)" style="fill: #1f5aa6"/>
   </g>
   <g id="patch_306">
    <path d="M 472.872299 48.002574 
L 514.471345 48.002574 
L 514.471345 44.133707 
L 472.872299 44.133707 
z
" clip-path="url(#p231005dd29)" style="fill: #e36aae"/>
   </g>
   <g id="patch_307">
    <path d="M 471.063645 101.736835 
L 498.07288 101.736835 
L 498.07288 97.867968 
L 471.063645 97.867968 
z
" clip-path="url(#p231005dd29)" style="fill: #e36aae"/>
   </g>
   <g id="patch_308">
    <path d="M 499.158073 101.736835 
L 501.931343 101.736835 
L 501.931343 97.867968 
L 499.158073 97.867968 
z
" clip-path="url(#p231005dd29)" style="fill: #e36aae"/>
   </g>
   <g id="patch_309">
    <path d="M 471.063645 64.767663 
L 472.872299 64.767663 
L 472.872299 60.898797 
L 471.063645 60.898797 
z
" clip-path="url(#p231005dd29)" style="fill: #dbdc8d"/>
   </g>
   <g id="patch_310">
    <path d="M 501.931343 118.501924 
L 514.471345 118.501924 
L 514.471345 114.633058 
L 501.931343 114.633058 
z
" clip-path="url(#p231005dd29)" style="fill: #dbdc8d"/>
   </g>
   <g id="patch_311">
    <path d="M 471.063645 16.621765 
L 472.872299 16.621765 
L 472.872299 12.752899 
L 471.063645 12.752899 
z
" clip-path="url(#p231005dd29)" style="fill: #e36aae"/>
   </g>
   <g id="patch_312">
    <path d="M 498.07288 16.621765 
L 499.158073 16.621765 
L 499.158073 12.752899 
L 498.07288 12.752899 
z
" clip-path="url(#p231005dd29)" style="fill: #1f5aa6"/>
   </g>
   <g id="patch_313">
    <path d="M 501.931343 16.621765 
L 514.471345 16.621765 
L 514.471345 12.752899 
L 501.931343 12.752899 
z
" clip-path="url(#p231005dd29)" style="fill: #dbdc8d"/>
   </g>
   <g id="patch_314">
    <path d="M 561.61693 25.649121 
L 561.737507 25.649121 
L 561.737507 21.780255 
L 561.61693 21.780255 
z
" clip-path="url(#p231005dd29)" style="fill: #1f5aa6"/>
   </g>
   <g id="patch_315">
    <path d="M 523.394039 79.383382 
L 524.599808 79.383382 
L 524.599808 75.514516 
L 523.394039 75.514516 
z
" clip-path="url(#p231005dd29)" style="fill: #1f5aa6"/>
   </g>
   <g id="patch_316">
    <path d="M 526.046731 79.383382 
L 527.131924 79.383382 
L 527.131924 75.514516 
L 526.046731 75.514516 
z
" clip-path="url(#p231005dd29)" style="fill: #1f5aa6"/>
   </g>
   <g id="patch_317">
    <path d="M 527.252501 79.383382 
L 527.373078 79.383382 
L 527.373078 75.514516 
L 527.252501 75.514516 
z
" clip-path="url(#p231005dd29)" style="fill: #1f5aa6"/>
   </g>
   <g id="patch_318">
    <path d="M 536.295772 79.383382 
L 538.586734 79.383382 
L 538.586734 75.514516 
L 536.295772 75.514516 
z
" clip-path="url(#p231005dd29)" style="fill: #1f5aa6"/>
   </g>
   <g id="patch_319">
    <path d="M 538.707311 79.383382 
L 539.189618 79.383382 
L 539.189618 75.514516 
L 538.707311 75.514516 
z
" clip-path="url(#p231005dd29)" style="fill: #1f5aa6"/>
   </g>
   <g id="patch_320">
    <path d="M 539.430772 79.383382 
L 539.551349 79.383382 
L 539.551349 75.514516 
L 539.430772 75.514516 
z
" clip-path="url(#p231005dd29)" style="fill: #1f5aa6"/>
   </g>
   <g id="patch_321">
    <path d="M 550.041543 79.383382 
L 550.403274 79.383382 
L 550.403274 75.514516 
L 550.041543 75.514516 
z
" clip-path="url(#p231005dd29)" style="fill: #1f5aa6"/>
   </g>
   <g id="patch_322">
    <path d="M 550.523851 79.383382 
L 553.055967 79.383382 
L 553.055967 75.514516 
L 550.523851 75.514516 
z
" clip-path="url(#p231005dd29)" style="fill: #1f5aa6"/>
   </g>
   <g id="patch_323">
    <path d="M 556.914429 79.383382 
L 561.737507 79.383382 
L 561.737507 75.514516 
L 556.914429 75.514516 
z
" clip-path="url(#p231005dd29)" style="fill: #1f5aa6"/>
   </g>
   <g id="patch_324">
    <path d="M 525.202693 36.825848 
L 537.13981 36.825848 
L 537.13981 32.956981 
L 525.202693 32.956981 
z
" clip-path="url(#p231005dd29)" style="fill: #e97f2e"/>
   </g>
   <g id="patch_325">
    <path d="M 544.374427 36.825848 
L 547.991735 36.825848 
L 547.991735 32.956981 
L 544.374427 32.956981 
z
" clip-path="url(#p231005dd29)" style="fill: #e97f2e"/>
   </g>
   <g id="patch_326">
    <path d="M 548.112312 36.825848 
L 550.041543 36.825848 
L 550.041543 32.956981 
L 548.112312 32.956981 
z
" clip-path="url(#p231005dd29)" style="fill: #e97f2e"/>
   </g>
   <g id="patch_327">
    <path d="M 524.599808 90.560109 
L 526.046731 90.560109 
L 526.046731 86.691242 
L 524.599808 86.691242 
z
" clip-path="url(#p231005dd29)" style="fill: #e97f2e"/>
   </g>
   <g id="patch_328">
    <path d="M 527.131924 90.560109 
L 527.252501 90.560109 
L 527.252501 86.691242 
L 527.131924 86.691242 
z
" clip-path="url(#p231005dd29)" style="fill: #e97f2e"/>
   </g>
   <g id="patch_329">
    <path d="M 527.373078 90.560109 
L 536.295772 90.560109 
L 536.295772 86.691242 
L 527.373078 86.691242 
z
" clip-path="url(#p231005dd29)" style="fill: #e97f2e"/>
   </g>
   <g id="patch_330">
    <path d="M 544.133273 90.560109 
L 550.041543 90.560109 
L 550.041543 86.691242 
L 544.133273 86.691242 
z
" clip-path="url(#p231005dd29)" style="fill: #e97f2e"/>
   </g>
   <g id="patch_331">
    <path d="M 550.403274 90.560109 
L 550.523851 90.560109 
L 550.523851 86.691242 
L 550.403274 86.691242 
z
" clip-path="url(#p231005dd29)" style="fill: #e97f2e"/>
   </g>
   <g id="patch_332">
    <path d="M 518.329807 42.414211 
L 525.202693 42.414211 
L 525.202693 38.545344 
L 518.329807 38.545344 
z
" clip-path="url(#p231005dd29)" style="fill: #8c564b"/>
   </g>
   <g id="patch_333">
    <path d="M 537.13981 42.414211 
L 544.374427 42.414211 
L 544.374427 38.545344 
L 537.13981 38.545344 
z
" clip-path="url(#p231005dd29)" style="fill: #8c564b"/>
   </g>
   <g id="patch_334">
    <path d="M 547.991735 42.414211 
L 548.112312 42.414211 
L 548.112312 38.545344 
L 547.991735 38.545344 
z
" clip-path="url(#p231005dd29)" style="fill: #8c564b"/>
   </g>
   <g id="patch_335">
    <path d="M 550.041543 42.414211 
L 561.61693 42.414211 
L 561.61693 38.545344 
L 550.041543 38.545344 
z
" clip-path="url(#p231005dd29)" style="fill: #8c564b"/>
   </g>
   <g id="patch_336">
    <path d="M 538.586734 96.148472 
L 538.707311 96.148472 
L 538.707311 92.279605 
L 538.586734 92.279605 
z
" clip-path="url(#p231005dd29)" style="fill: #8c564b"/>
   </g>
   <g id="patch_337">
    <path d="M 539.189618 96.148472 
L 539.430772 96.148472 
L 539.430772 92.279605 
L 539.189618 92.279605 
z
" clip-path="url(#p231005dd29)" style="fill: #8c564b"/>
   </g>
   <g id="patch_338">
    <path d="M 539.551349 96.148472 
L 541.48058 96.148472 
L 541.48058 92.279605 
L 539.551349 92.279605 
z
" clip-path="url(#p231005dd29)" style="fill: #8c564b"/>
   </g>
   <g id="patch_339">
    <path d="M 518.329807 124.090287 
L 523.394039 124.090287 
L 523.394039 120.221421 
L 518.329807 120.221421 
z
" clip-path="url(#p231005dd29)" style="fill: #9edae6"/>
   </g>
   <g id="patch_340">
    <path d="M 541.48058 124.090287 
L 544.133273 124.090287 
L 544.133273 120.221421 
L 541.48058 120.221421 
z
" clip-path="url(#p231005dd29)" style="fill: #9edae6"/>
   </g>
   <g id="patch_341">
    <path d="M 553.055967 124.090287 
L 556.914429 124.090287 
L 556.914429 120.221421 
L 553.055967 120.221421 
z
" clip-path="url(#p231005dd29)" style="fill: #9edae6"/>
   </g>
   <g id="patch_342">
    <path d="M 518.329807 16.621765 
L 525.202693 16.621765 
L 525.202693 12.752899 
L 518.329807 12.752899 
z
" clip-path="url(#p231005dd29)" style="fill: #9edae6"/>
   </g>
   <g id="patch_343">
    <path d="M 526.046731 16.621765 
L 527.131924 16.621765 
L 527.131924 12.752899 
L 526.046731 12.752899 
z
" clip-path="url(#p231005dd29)" style="fill: #1f5aa6"/>
   </g>
   <g id="patch_344">
    <path d="M 527.252501 16.621765 
L 527.373078 16.621765 
L 527.373078 12.752899 
L 527.252501 12.752899 
z
" clip-path="url(#p231005dd29)" style="fill: #1f5aa6"/>
   </g>
   <g id="patch_345">
    <path d="M 536.295772 16.621765 
L 538.586734 16.621765 
L 538.586734 12.752899 
L 536.295772 12.752899 
z
" clip-path="url(#p231005dd29)" style="fill: #1f5aa6"/>
   </g>
   <g id="patch_346">
    <path d="M 538.707311 16.621765 
L 539.189618 16.621765 
L 539.189618 12.752899 
L 538.707311 12.752899 
z
" clip-path="url(#p231005dd29)" style="fill: #1f5aa6"/>
   </g>
   <g id="patch_347">
    <path d="M 539.430772 16.621765 
L 539.551349 16.621765 
L 539.551349 12.752899 
L 539.430772 12.752899 
z
" clip-path="url(#p231005dd29)" style="fill: #1f5aa6"/>
   </g>
   <g id="patch_348">
    <path d="M 541.48058 16.621765 
L 544.374427 16.621765 
L 544.374427 12.752899 
L 541.48058 12.752899 
z
" clip-path="url(#p231005dd29)" style="fill: #9edae6"/>
   </g>
   <g id="patch_349">
    <path d="M 547.991735 16.621765 
L 548.112312 16.621765 
L 548.112312 12.752899 
L 547.991735 12.752899 
z
" clip-path="url(#p231005dd29)" style="fill: #e97f2e"/>
   </g>
   <g id="patch_350">
    <path d="M 550.041543 16.621765 
L 561.61693 16.621765 
L 561.61693 12.752899 
L 550.041543 12.752899 
z
" clip-path="url(#p231005dd29)" style="fill: #1f5aa6"/>
   </g>
   <g id="patch_351">
    <path d="M 578.859433 25.649121 
L 609.003669 25.649121 
L 609.003669 21.780255 
L 578.859433 21.780255 
z
" clip-path="url(#p231005dd29)" style="fill: #1f5aa6"/>
   </g>
   <g id="patch_352">
    <path d="M 565.595969 79.383382 
L 573.312894 79.383382 
L 573.312894 75.514516 
L 565.595969 75.514516 
z
" clip-path="url(#p231005dd29)" style="fill: #1f5aa6"/>
   </g>
   <g id="patch_353">
    <path d="M 585.008857 79.383382 
L 585.129434 79.383382 
L 585.129434 75.514516 
L 585.008857 75.514516 
z
" clip-path="url(#p231005dd29)" style="fill: #1f5aa6"/>
   </g>
   <g id="patch_354">
    <path d="M 585.250011 79.383382 
L 585.370588 79.383382 
L 585.370588 75.514516 
L 585.250011 75.514516 
z
" clip-path="url(#p231005dd29)" style="fill: #1f5aa6"/>
   </g>
   <g id="patch_355">
    <path d="M 585.491165 79.383382 
L 585.852896 79.383382 
L 585.852896 75.514516 
L 585.491165 75.514516 
z
" clip-path="url(#p231005dd29)" style="fill: #1f5aa6"/>
   </g>
   <g id="patch_356">
    <path d="M 585.973473 79.383382 
L 593.56982 79.383382 
L 593.56982 75.514516 
L 585.973473 75.514516 
z
" clip-path="url(#p231005dd29)" style="fill: #1f5aa6"/>
   </g>
   <g id="patch_357">
    <path d="M 593.810974 79.383382 
L 593.931551 79.383382 
L 593.931551 75.514516 
L 593.810974 75.514516 
z
" clip-path="url(#p231005dd29)" style="fill: #1f5aa6"/>
   </g>
   <g id="patch_358">
    <path d="M 565.595969 59.1793 
L 578.859433 59.1793 
L 578.859433 55.310433 
L 565.595969 55.310433 
z
" clip-path="url(#p231005dd29)" style="fill: #f2856e"/>
   </g>
   <g id="patch_359">
    <path d="M 573.312894 112.913561 
L 585.008857 112.913561 
L 585.008857 109.044694 
L 573.312894 109.044694 
z
" clip-path="url(#p231005dd29)" style="fill: #f2856e"/>
   </g>
   <g id="patch_360">
    <path d="M 585.129434 112.913561 
L 585.250011 112.913561 
L 585.250011 109.044694 
L 585.129434 109.044694 
z
" clip-path="url(#p231005dd29)" style="fill: #f2856e"/>
   </g>
   <g id="patch_361">
    <path d="M 585.370588 112.913561 
L 585.491165 112.913561 
L 585.491165 109.044694 
L 585.370588 109.044694 
z
" clip-path="url(#p231005dd29)" style="fill: #f2856e"/>
   </g>
   <g id="patch_362">
    <path d="M 585.852896 112.913561 
L 585.973473 112.913561 
L 585.973473 109.044694 
L 585.852896 109.044694 
z
" clip-path="url(#p231005dd29)" style="fill: #f2856e"/>
   </g>
   <g id="patch_363">
    <path d="M 593.56982 118.501924 
L 593.810974 118.501924 
L 593.810974 114.633058 
L 593.56982 114.633058 
z
" clip-path="url(#p231005dd29)" style="fill: #dbdc8d"/>
   </g>
   <g id="patch_364">
    <path d="M 593.931551 118.501924 
L 609.003669 118.501924 
L 609.003669 114.633058 
L 593.931551 114.633058 
z
" clip-path="url(#p231005dd29)" style="fill: #dbdc8d"/>
   </g>
   <g id="patch_365">
    <path d="M 565.595969 16.621765 
L 573.312894 16.621765 
L 573.312894 12.752899 
L 565.595969 12.752899 
z
" clip-path="url(#p231005dd29)" style="fill: #1f5aa6"/>
   </g>
   <g id="patch_366">
    <path d="M 578.859433 16.621765 
L 585.008857 16.621765 
L 585.008857 12.752899 
L 578.859433 12.752899 
z
" clip-path="url(#p231005dd29)" style="fill: #f2856e"/>
   </g>
   <g id="patch_367">
    <path d="M 585.129434 16.621765 
L 585.250011 16.621765 
L 585.250011 12.752899 
L 585.129434 12.752899 
z
" clip-path="url(#p231005dd29)" style="fill: #f2856e"/>
   </g>
   <g id="patch_368">
    <path d="M 585.370588 16.621765 
L 585.491165 16.621765 
L 585.491165 12.752899 
L 585.370588 12.752899 
z
" clip-path="url(#p231005dd29)" style="fill: #f2856e"/>
   </g>
   <g id="patch_369">
    <path d="M 585.852896 16.621765 
L 585.973473 16.621765 
L 585.973473 12.752899 
L 585.852896 12.752899 
z
" clip-path="url(#p231005dd29)" style="fill: #f2856e"/>
   </g>
   <g id="patch_370">
    <path d="M 593.56982 16.621765 
L 593.810974 16.621765 
L 593.810974 12.752899 
L 593.56982 12.752899 
z
" clip-path="url(#p231005dd29)" style="fill: #dbdc8d"/>
   </g>
   <g id="patch_371">
    <path d="M 593.931551 16.621765 
L 609.003669 16.621765 
L 609.003669 12.752899 
L 593.931551 12.752899 
z
" clip-path="url(#p231005dd29)" style="fill: #dbdc8d"/>
   </g>
   <g id="line2d_1">
    <path d="M 45.668185 128.389028 
L 89.075885 128.389028 
" clip-path="url(#p231005dd29)" style="fill: none; stroke: #5a5a5a; stroke-width: 1.4"/>
   </g>
   <g id="text_1">
    <text style="font-size: 8.5px; font-family: 'Arial'; text-anchor: end" x="42.612813" y="16.785106" transform="rotate(-0 42.612813 16.785106)">accuracy</text>
   </g>
   <g id="text_2">
    <text style="font-size: 8.5px; font-family: 'Arial'; text-anchor: end" x="42.612813" y="48.265523" transform="rotate(-0 42.612813 48.265523)">labels</text>
   </g>
   <g id="text_3">
    <text style="font-size: 8.5px; font-family: 'Arial'; text-anchor: end" x="42.612813" y="101.999784" transform="rotate(-0 42.612813 101.999784)">prediction</text>
   </g>
   <g id="text_4">
    <text style="font-size: 8px; font-family: 'Arial'; text-anchor: middle" x="67.372035" y="136.694523" transform="rotate(-0 67.372035 136.694523)">15 secs</text>
   </g>
   <g id="text_5">
    <text style="font-size: 9px; font-family: 'Arial'; text-anchor: middle" x="327.335927" y="137.410304" transform="rotate(-0 327.335927 137.410304)">videos</text>
   </g>
  </g>
 </g>
 <defs>
  <clipPath id="p231005dd29">
   <rect x="45.431854" y="11.033402" width="563.808146" height="125.953108"/>
  </clipPath>
 </defs>
</svg>
