<?xml version="1.0" encoding="utf-8" standalone="no"?>
<!DOCTYPE svg PUBLIC "-//W3C//DTD SVG 1.1//EN"
  "http://www.w3.org/Graphics/SVG/1.1/DTD/svg11.dtd">
<svg xmlns:xlink="http://www.w3.org/1999/xlink" width="623.399519pt" height="158.39862pt" viewBox="0 0 623.399519 158.39862" xmlns="http://www.w3.org/2000/svg" version="1.1">
 <metadata>
  <rdf:RDF xmlns:dc="http://purl.org/dc/elements/1.1/" xmlns:cc="http://creativecommons.org/ns#" xmlns:rdf="http://www.w3.org/1999/02/22-rdf-syntax-ns#">
   <cc:Work>
    <dc:type rdf:resource="http://purl.org/dc/dcmitype/StillImage"/>
    <dc:date>2026-05-13T18:15:01.245046</dc:date>
    <dc:format>image/svg+xml</dc:format>
    <dc:creator>
     <cc:Agent>
      <dc:title>Matplotlib v3.10.9, https://matplotlib.org/</dc:title>
     </cc:Agent>
    </dc:creator>
   </cc:Work>
  </rdf:RDF>
 </metadata>
 <defs>
  <style type="text/css">*{stroke-linejoin: round; stroke-linecap: butt}</style>
 </defs>
 <g id="figure_1">
  <g id="patch_1">
   <path d="M 0 158.39862 
L 623.399519 158.39862 
L 623.399519 -0 
L 0 -0 
z
" style="fill: #ffffff"/>
  </g>
  <g id="axes_1">
   <g id="patch_2">
    <path d="M 46.899314 149.780561 
L 616.199519 149.780561 
L 616.199519 7.2 
L 46.899314 7.2 
z
" style="fill: #ffffff"/>
   </g>
   <g id="patch_3">
    <path d="M 47.137946 23.745185 
L 90.968481 23.745185 
L 90.968481 19.365577 
L 47.137946 19.365577 
z
" clip-path="url(#p80ae0f4dbe)" style="fill: #ebeced"/>
   </g>
   <g id="patch_4">
    <path d="M 47.137946 84.573069 
L 90.968481 84.573069 
L 90.968481 80.193461 
L 47.137946 80.193461 
z
" clip-path="url(#p80ae0f4dbe)" style="fill: #ebeced"/>
   </g>
   <g id="patch_5">
    <path d="M 47.137946 30.071285 
L 90.968481 30.071285 
L 90.968481 25.691677 
L 47.137946 25.691677 
z
" clip-path="url(#p80ae0f4dbe)" style="fill: #ebeced"/>
   </g>
   <g id="patch_6">
    <path d="M 47.137946 90.899169 
L 90.968481 90.899169 
L 90.968481 86.519561 
L 47.137946 86.519561 
z
" clip-path="url(#p80ae0f4dbe)" style="fill: #ebeced"/>
   </g>
   <g id="patch_7">
    <path d="M 47.137946 36.397385 
L 90.968481 36.397385 
L 90.968481 32.017777 
L 47.137946 32.017777 
z
" clip-path="url(#p80ae0f4dbe)" style="fill: #ebeced"/>
   </g>
   <g id="patch_8">
    <path d="M 47.137946 97.225269 
L 90.968481 97.225269 
L 90.968481 92.845661 
L 47.137946 92.845661 
z
" clip-path="url(#p80ae0f4dbe)" style="fill: #ebeced"/>
   </g>
   <g id="patch_9">
    <path d="M 47.137946 42.723485 
L 90.968481 42.723485 
L 90.968481 38.343877 
L 47.137946 38.343877 
z
" clip-path="url(#p80ae0f4dbe)" style="fill: #ebeced"/>
   </g>
   <g id="patch_10">
    <path d="M 47.137946 103.551369 
L 90.968481 103.551369 
L 90.968481 99.171761 
L 47.137946 99.171761 
z
" clip-path="url(#p80ae0f4dbe)" style="fill: #ebeced"/>
   </g>
   <g id="patch_11">
    <path d="M 47.137946 49.049585 
L 90.968481 49.049585 
L 90.968481 44.669977 
L 47.137946 44.669977 
z
" clip-path="url(#p80ae0f4dbe)" style="fill: #ebeced"/>
   </g>
   <g id="patch_12">
    <path d="M 47.137946 109.877469 
L 90.968481 109.877469 
L 90.968481 105.497861 
L 47.137946 105.497861 
z
" clip-path="url(#p80ae0f4dbe)" style="fill: #ebeced"/>
   </g>
   <g id="patch_13">
    <path d="M 47.137946 55.375685 
L 90.968481 55.375685 
L 90.968481 50.996077 
L 47.137946 50.996077 
z
" clip-path="url(#p80ae0f4dbe)" style="fill: #ebeced"/>
   </g>
   <g id="patch_14">
    <path d="M 47.137946 116.203569 
L 90.968481 116.203569 
L 90.968481 111.823961 
L 47.137946 111.823961 
z
" clip-path="url(#p80ae0f4dbe)" style="fill: #ebeced"/>
   </g>
   <g id="patch_15">
    <path d="M 47.137946 61.701785 
L 90.968481 61.701785 
L 90.968481 57.322177 
L 47.137946 57.322177 
z
" clip-path="url(#p80ae0f4dbe)" style="fill: #ebeced"/>
   </g>
   <g id="patch_16">
    <path d="M 47.137946 122.529669 
L 90.968481 122.529669 
L 90.968481 118.150061 
L 47.137946 118.150061 
z
" clip-path="url(#p80ae0f4dbe)" style="fill: #ebeced"/>
   </g>
   <g id="patch_17">
    <path d="M 47.137946 68.027885 
L 90.968481 68.027885 
L 90.968481 63.648277 
L 47.137946 63.648277 
z
" clip-path="url(#p80ae0f4dbe)" style="fill: #ebeced"/>
   </g>
   <g id="patch_18">
    <path d="M 47.137946 128.855769 
L 90.968481 128.855769 
L 90.968481 124.476161 
L 47.137946 124.476161 
z
" clip-path="url(#p80ae0f4dbe)" style="fill: #ebeced"/>
   </g>
   <g id="patch_19">
    <path d="M 47.137946 74.353985 
L 90.968481 74.353985 
L 90.968481 69.974377 
L 47.137946 69.974377 
z
" clip-path="url(#p80ae0f4dbe)" style="fill: #ebeced"/>
   </g>
   <g id="patch_20">
    <path d="M 47.137946 135.181869 
L 90.968481 135.181869 
L 90.968481 130.802261 
L 47.137946 130.802261 
z
" clip-path="url(#p80ae0f4dbe)" style="fill: #ebeced"/>
   </g>
   <g id="patch_21">
    <path d="M 47.137946 13.5261 
L 90.968481 13.5261 
L 90.968481 9.146492 
L 47.137946 9.146492 
z
" clip-path="url(#p80ae0f4dbe)" style="fill: #ebeced"/>
   </g>
   <g id="patch_22">
    <path d="M 94.864529 23.745185 
L 138.695063 23.745185 
L 138.695063 19.365577 
L 94.864529 19.365577 
z
" clip-path="url(#p80ae0f4dbe)" style="fill: #ebeced"/>
   </g>
   <g id="patch_23">
    <path d="M 94.864529 84.573069 
L 138.695063 84.573069 
L 138.695063 80.193461 
L 94.864529 80.193461 
z
" clip-path="url(#p80ae0f4dbe)" style="fill: #ebeced"/>
   </g>
   <g id="patch_24">
    <path d="M 94.864529 30.071285 
L 138.695063 30.071285 
L 138.695063 25.691677 
L 94.864529 25.691677 
z
" clip-path="url(#p80ae0f4dbe)" style="fill: #ebeced"/>
   </g>
   <g id="patch_25">
    <path d="M 94.864529 90.899169 
L 138.695063 90.899169 
L 138.695063 86.519561 
L 94.864529 86.519561 
z
" clip-path="url(#p80ae0f4dbe)" style="fill: #ebeced"/>
   </g>
   <g id="patch_26">
    <path d="M 94.864529 36.397385 
L 138.695063 36.397385 
L 138.695063 32.017777 
L 94.864529 32.017777 
z
" clip-path="url(#p80ae0f4dbe)" style="fill: #ebeced"/>
   </g>
   <g id="patch_27">
    <path d="M 94.864529 97.225269 
L 138.695063 97.225269 
L 138.695063 92.845661 
L 94.864529 92.845661 
z
" clip-path="url(#p80ae0f4dbe)" style="fill: #ebeced"/>
   </g>
   <g id="patch_28">
    <path d="M 94.864529 42.723485 
L 138.695063 42.723485 
L 138.695063 38.343877 
L 94.864529 38.343877 
z
" clip-path="url(#p80ae0f4dbe)" style="fill: #ebeced"/>
   </g>
   <g id="patch_29">
    <path d="M 94.864529 103.551369 
L 138.695063 103.551369 
L 138.695063 99.171761 
L 94.864529 99.171761 
z
" clip-path="url(#p80ae0f4dbe)" style="fill: #ebeced"/>
   </g>
   <g id="patch_30">
    <path d="M 94.864529 49.049585 
L 138.695063 49.049585 
L 138.695063 44.669977 
L 94.864529 44.669977 
z
" clip-path="url(#p80ae0f4dbe)" style="fill: #ebeced"/>
   </g>
   <g id="patch_31">
    <path d="M 94.864529 109.877469 
L 138.695063 109.877469 
L 138.695063 105.497861 
L 94.864529 105.497861 
z
" clip-path="url(#p80ae0f4dbe)" style="fill: #ebeced"/>
   </g>
   <g id="patch_32">
    <path d="M 94.864529 55.375685 
L 138.695063 55.375685 
L 138.695063 50.996077 
L 94.864529 50.996077 
z
" clip-path="url(#p80ae0f4dbe)" style="fill: #ebeced"/>
   </g>
   <g id="patch_33">
    <path d="M 94.864529 116.203569 
L 138.695063 116.203569 
L 138.695063 111.823961 
L 94.864529 111.823961 
z
" clip-path="url(#p80ae0f4dbe)" style="fill: #ebeced"/>
   </g>
   <g id="patch_34">
    <path d="M 94.864529 61.701785 
L 138.695063 61.701785 
L 138.695063 57.322177 
L 94.864529 57.322177 
z
" clip-path="url(#p80ae0f4dbe)" style="fill: #ebeced"/>
   </g>
   <g id="patch_35">
    <path d="M 94.864529 122.529669 
L 138.695063 122.529669 
L 138.695063 118.150061 
L 94.864529 118.150061 
z
" clip-path="url(#p80ae0f4dbe)" style="fill: #ebeced"/>
   </g>
   <g id="patch_36">
    <path d="M 94.864529 68.027885 
L 138.695063 68.027885 
L 138.695063 63.648277 
L 94.864529 63.648277 
z
" clip-path="url(#p80ae0f4dbe)" style="fill: #ebeced"/>
   </g>
   <g id="patch_37">
    <path d="M 94.864529 128.855769 
L 138.695063 128.855769 
L 138.695063 124.476161 
L 94.864529 124.476161 
z
" clip-path="url(#p80ae0f4dbe)" style="fill: #ebeced"/>
   </g>
   <g id="patch_38">
    <path d="M 94.864529 74.353985 
L 138.695063 74.353985 
L 138.695063 69.974377 
L 94.864529 69.974377 
z
" clip-path="url(#p80ae0f4dbe)" style="fill: #ebeced"/>
   </g>
   <g id="patch_39">
    <path d="M 94.864529 135.181869 
L 138.695063 135.181869 
L 138.695063 130.802261 
L 94.864529 130.802261 
z
" clip-path="url(#p80ae0f4dbe)" style="fill: #ebeced"/>
   </g>
   <g id="patch_40">
    <path d="M 94.864529 13.5261 
L 138.695063 13.5261 
L 138.695063 9.146492 
L 94.864529 9.146492 
z
" clip-path="url(#p80ae0f4dbe)" style="fill: #ebeced"/>
   </g>
   <g id="patch_41">
    <path d="M 142.591111 23.745185 
L 186.421646 23.745185 
L 186.421646 19.365577 
L 142.591111 19.365577 
z
" clip-path="url(#p80ae0f4dbe)" style="fill: #ebeced"/>
   </g>
   <g id="patch_42">
    <path d="M 142.591111 84.573069 
L 186.421646 84.573069 
L 186.421646 80.193461 
L 142.591111 80.193461 
z
" clip-path="url(#p80ae0f4dbe)" style="fill: #ebeced"/>
   </g>
   <g id="patch_43">
    <path d="M 142.591111 30.071285 
L 186.421646 30.071285 
L 186.421646 25.691677 
L 142.591111 25.691677 
z
" clip-path="url(#p80ae0f4dbe)" style="fill: #ebeced"/>
   </g>
   <g id="patch_44">
    <path d="M 142.591111 90.899169 
L 186.421646 90.899169 
L 186.421646 86.519561 
L 142.591111 86.519561 
z
" clip-path="url(#p80ae0f4dbe)" style="fill: #ebeced"/>
   </g>
   <g id="patch_45">
    <path d="M 142.591111 36.397385 
L 186.421646 36.397385 
L 186.421646 32.017777 
L 142.591111 32.017777 
z
" clip-path="url(#p80ae0f4dbe)" style="fill: #ebeced"/>
   </g>
   <g id="patch_46">
    <path d="M 142.591111 97.225269 
L 186.421646 97.225269 
L 186.421646 92.845661 
L 142.591111 92.845661 
z
" clip-path="url(#p80ae0f4dbe)" style="fill: #ebeced"/>
   </g>
   <g id="patch_47">
    <path d="M 142.591111 42.723485 
L 186.421646 42.723485 
L 186.421646 38.343877 
L 142.591111 38.343877 
z
" clip-path="url(#p80ae0f4dbe)" style="fill: #ebeced"/>
   </g>
   <g id="patch_48">
    <path d="M 142.591111 103.551369 
L 186.421646 103.551369 
L 186.421646 99.171761 
L 142.591111 99.171761 
z
" clip-path="url(#p80ae0f4dbe)" style="fill: #ebeced"/>
   </g>
   <g id="patch_49">
    <path d="M 142.591111 49.049585 
L 186.421646 49.049585 
L 186.421646 44.669977 
L 142.591111 44.669977 
z
" clip-path="url(#p80ae0f4dbe)" style="fill: #ebeced"/>
   </g>
   <g id="patch_50">
    <path d="M 142.591111 109.877469 
L 186.421646 109.877469 
L 186.421646 105.497861 
L 142.591111 105.497861 
z
" clip-path="url(#p80ae0f4dbe)" style="fill: #ebeced"/>
   </g>
   <g id="patch_51">
    <path d="M 142.591111 55.375685 
L 186.421646 55.375685 
L 186.421646 50.996077 
L 142.591111 50.996077 
z
" clip-path="url(#p80ae0f4dbe)" style="fill: #ebeced"/>
   </g>
   <g id="patch_52">
    <path d="M 142.591111 116.203569 
L 186.421646 116.203569 
L 186.421646 111.823961 
L 142.591111 111.823961 
z
" clip-path="url(#p80ae0f4dbe)" style="fill: #ebeced"/>
   </g>
   <g id="patch_53">
    <path d="M 142.591111 61.701785 
L 186.421646 61.701785 
L 186.421646 57.322177 
L 142.591111 57.322177 
z
" clip-path="url(#p80ae0f4dbe)" style="fill: #ebeced"/>
   </g>
   <g id="patch_54">
    <path d="M 142.591111 122.529669 
L 186.421646 122.529669 
L 186.421646 118.150061 
L 142.591111 118.150061 
z
" clip-path="url(#p80ae0f4dbe)" style="fill: #ebeced"/>
   </g>
   <g id="patch_55">
    <path d="M 142.591111 68.027885 
L 186.421646 68.027885 
L 186.421646 63.648277 
L 142.591111 63.648277 
z
" clip-path="url(#p80ae0f4dbe)" style="fill: #ebeced"/>
   </g>
   <g id="patch_56">
    <path d="M 142.591111 128.855769 
L 186.421646 128.855769 
L 186.421646 124.476161 
L 142.591111 124.476161 
z
" clip-path="url(#p80ae0f4dbe)" style="fill: #ebeced"/>
   </g>
   <g id="patch_57">
    <path d="M 142.591111 74.353985 
L 186.421646 74.353985 
L 186.421646 69.974377 
L 142.591111 69.974377 
z
" clip-path="url(#p80ae0f4dbe)" style="fill: #ebeced"/>
   </g>
   <g id="patch_58">
    <path d="M 142.591111 135.181869 
L 186.421646 135.181869 
L 186.421646 130.802261 
L 142.591111 130.802261 
z
" clip-path="url(#p80ae0f4dbe)" style="fill: #ebeced"/>
   </g>
   <g id="patch_59">
    <path d="M 142.591111 13.5261 
L 186.421646 13.5261 
L 186.421646 9.146492 
L 142.591111 9.146492 
z
" clip-path="url(#p80ae0f4dbe)" style="fill: #ebeced"/>
   </g>
   <g id="patch_60">
    <path d="M 190.317693 23.745185 
L 234.148228 23.745185 
L 234.148228 19.365577 
L 190.317693 19.365577 
z
" clip-path="url(#p80ae0f4dbe)" style="fill: #ebeced"/>
   </g>
   <g id="patch_61">
    <path d="M 190.317693 84.573069 
L 234.148228 84.573069 
L 234.148228 80.193461 
L 190.317693 80.193461 
z
" clip-path="url(#p80ae0f4dbe)" style="fill: #ebeced"/>
   </g>
   <g id="patch_62">
    <path d="M 190.317693 30.071285 
L 234.148228 30.071285 
L 234.148228 25.691677 
L 190.317693 25.691677 
z
" clip-path="url(#p80ae0f4dbe)" style="fill: #ebeced"/>
   </g>
   <g id="patch_63">
    <path d="M 190.317693 90.899169 
L 234.148228 90.899169 
L 234.148228 86.519561 
L 190.317693 86.519561 
z
" clip-path="url(#p80ae0f4dbe)" style="fill: #ebeced"/>
   </g>
   <g id="patch_64">
    <path d="M 190.317693 36.397385 
L 234.148228 36.397385 
L 234.148228 32.017777 
L 190.317693 32.017777 
z
" clip-path="url(#p80ae0f4dbe)" style="fill: #ebeced"/>
   </g>
   <g id="patch_65">
    <path d="M 190.317693 97.225269 
L 234.148228 97.225269 
L 234.148228 92.845661 
L 190.317693 92.845661 
z
" clip-path="url(#p80ae0f4dbe)" style="fill: #ebeced"/>
   </g>
   <g id="patch_66">
    <path d="M 190.317693 42.723485 
L 234.148228 42.723485 
L 234.148228 38.343877 
L 190.317693 38.343877 
z
" clip-path="url(#p80ae0f4dbe)" style="fill: #ebeced"/>
   </g>
   <g id="patch_67">
    <path d="M 190.317693 103.551369 
L 234.148228 103.551369 
L 234.148228 99.171761 
L 190.317693 99.171761 
z
" clip-path="url(#p80ae0f4dbe)" style="fill: #ebeced"/>
   </g>
   <g id="patch_68">
    <path d="M 190.317693 49.049585 
L 234.148228 49.049585 
L 234.148228 44.669977 
L 190.317693 44.669977 
z
" clip-path="url(#p80ae0f4dbe)" style="fill: #ebeced"/>
   </g>
   <g id="patch_69">
    <path d="M 190.317693 109.877469 
L 234.148228 109.877469 
L 234.148228 105.497861 
L 190.317693 105.497861 
z
" clip-path="url(#p80ae0f4dbe)" style="fill: #ebeced"/>
   </g>
   <g id="patch_70">
    <path d="M 190.317693 55.375685 
L 234.148228 55.375685 
L 234.148228 50.996077 
L 190.317693 50.996077 
z
" clip-path="url(#p80ae0f4dbe)" style="fill: #ebeced"/>
   </g>
   <g id="patch_71">
    <path d="M 190.317693 116.203569 
L 234.148228 116.203569 
L 234.148228 111.823961 
L 190.317693 111.823961 
z
" clip-path="url(#p80ae0f4dbe)" style="fill: #ebeced"/>
   </g>
   <g id="patch_72">
    <path d="M 190.317693 61.701785 
L 234.148228 61.701785 
L 234.148228 57.322177 
L 190.317693 57.322177 
z
" clip-path="url(#p80ae0f4dbe)" style="fill: #ebeced"/>
   </g>
   <g id="patch_73">
    <path d="M 190.317693 122.529669 
L 234.148228 122.529669 
L 234.148228 118.150061 
L 190.317693 118.150061 
z
" clip-path="url(#p80ae0f4dbe)" style="fill: #ebeced"/>
   </g>
   <g id="patch_74">
    <path d="M 190.317693 68.027885 
L 234.148228 68.027885 
L 234.148228 63.648277 
L 190.317693 63.648277 
z
" clip-path="url(#p80ae0f4dbe)" style="fill: #ebeced"/>
   </g>
   <g id="patch_75">
    <path d="M 190.317693 128.855769 
L 234.148228 128.855769 
L 234.148228 124.476161 
L 190.317693 124.476161 
z
" clip-path="url(#p80ae0f4dbe)" style="fill: #ebeced"/>
   </g>
   <g id="patch_76">
    <path d="M 190.317693 74.353985 
L 234.148228 74.353985 
L 234.148228 69.974377 
L 190.317693 69.974377 
z
" clip-path="url(#p80ae0f4dbe)" style="fill: #ebeced"/>
   </g>
   <g id="patch_77">
    <path d="M 190.317693 135.181869 
L 234.148228 135.181869 
L 234.148228 130.802261 
L 190.317693 130.802261 
z
" clip-path="url(#p80ae0f4dbe)" style="fill: #ebeced"/>
   </g>
   <g id="patch_78">
    <path d="M 190.317693 13.5261 
L 234.148228 13.5261 
L 234.148228 9.146492 
L 190.317693 9.146492 
z
" clip-path="url(#p80ae0f4dbe)" style="fill: #ebeced"/>
   </g>
   <g id="patch_79">
    <path d="M 238.044276 23.745185 
L 281.87481 23.745185 
L 281.87481 19.365577 
L 238.044276 19.365577 
z
" clip-path="url(#p80ae0f4dbe)" style="fill: #ebeced"/>
   </g>
   <g id="patch_80">
    <path d="M 238.044276 84.573069 
L 281.87481 84.573069 
L 281.87481 80.193461 
L 238.044276 80.193461 
z
" clip-path="url(#p80ae0f4dbe)" style="fill: #ebeced"/>
   </g>
   <g id="patch_81">
    <path d="M 238.044276 30.071285 
L 281.87481 30.071285 
L 281.87481 25.691677 
L 238.044276 25.691677 
z
" clip-path="url(#p80ae0f4dbe)" style="fill: #ebeced"/>
   </g>
   <g id="patch_82">
    <path d="M 238.044276 90.899169 
L 281.87481 90.899169 
L 281.87481 86.519561 
L 238.044276 86.519561 
z
" clip-path="url(#p80ae0f4dbe)" style="fill: #ebeced"/>
   </g>
   <g id="patch_83">
    <path d="M 238.044276 36.397385 
L 281.87481 36.397385 
L 281.87481 32.017777 
L 238.044276 32.017777 
z
" clip-path="url(#p80ae0f4dbe)" style="fill: #ebeced"/>
   </g>
   <g id="patch_84">
    <path d="M 238.044276 97.225269 
L 281.87481 97.225269 
L 281.87481 92.845661 
L 238.044276 92.845661 
z
" clip-path="url(#p80ae0f4dbe)" style="fill: #ebeced"/>
   </g>
   <g id="patch_85">
    <path d="M 238.044276 42.723485 
L 281.87481 42.723485 
L 281.87481 38.343877 
L 238.044276 38.343877 
z
" clip-path="url(#p80ae0f4dbe)" style="fill: #ebeced"/>
   </g>
   <g id="patch_86">
    <path d="M 238.044276 103.551369 
L 281.87481 103.551369 
L 281.87481 99.171761 
L 238.044276 99.171761 
z
" clip-path="url(#p80ae0f4dbe)" style="fill: #ebeced"/>
   </g>
   <g id="patch_87">
    <path d="M 238.044276 49.049585 
L 281.87481 49.049585 
L 281.87481 44.669977 
L 238.044276 44.669977 
z
" clip-path="url(#p80ae0f4dbe)" style="fill: #ebeced"/>
   </g>
   <g id="patch_88">
    <path d="M 238.044276 109.877469 
L 281.87481 109.877469 
L 281.87481 105.497861 
L 238.044276 105.497861 
z
" clip-path="url(#p80ae0f4dbe)" style="fill: #ebeced"/>
   </g>
   <g id="patch_89">
    <path d="M 238.044276 55.375685 
L 281.87481 55.375685 
L 281.87481 50.996077 
L 238.044276 50.996077 
z
" clip-path="url(#p80ae0f4dbe)" style="fill: #ebeced"/>
   </g>
   <g id="patch_90">
    <path d="M 238.044276 116.203569 
L 281.87481 116.203569 
L 281.87481 111.823961 
L 238.044276 111.823961 
z
" clip-path="url(#p80ae0f4dbe)" style="fill: #ebeced"/>
   </g>
   <g id="patch_91">
    <path d="M 238.044276 61.701785 
L 281.87481 61.701785 
L 281.87481 57.322177 
L 238.044276 57.322177 
z
" clip-path="url(#p80ae0f4dbe)" style="fill: #ebeced"/>
   </g>
   <g id="patch_92">
    <path d="M 238.044276 122.529669 
L 281.87481 122.529669 
L 281.87481 118.150061 
L 238.044276 118.150061 
z
" clip-path="url(#p80ae0f4dbe)" style="fill: #ebeced"/>
   </g>
   <g id="patch_93">
    <path d="M 238.044276 68.027885 
L 281.87481 68.027885 
L 281.87481 63.648277 
L 238.044276 63.648277 
z
" clip-path="url(#p80ae0f4dbe)" style="fill: #ebeced"/>
   </g>
   <g id="patch_94">
    <path d="M 238.044276 128.855769 
L 281.87481 128.855769 
L 281.87481 124.476161 
L 238.044276 124.476161 
z
" clip-path="url(#p80ae0f4dbe)" style="fill: #ebeced"/>
   </g>
   <g id="patch_95">
    <path d="M 238.044276 74.353985 
L 281.87481 74.353985 
L 281.87481 69.974377 
L 238.044276 69.974377 
z
" clip-path="url(#p80ae0f4dbe)" style="fill: #ebeced"/>
   </g>
   <g id="patch_96">
    <path d="M 238.044276 135.181869 
L 281.87481 135.181869 
L 281.87481 130.802261 
L 238.044276 130.802261 
z
" clip-path="url(#p80ae0f4dbe)" style="fill: #ebeced"/>
   </g>
   <g id="patch_97">
    <path d="M 238.044276 13.5261 
L 281.87481 13.5261 
L 281.87481 9.146492 
L 238.044276 9.146492 
z
" clip-path="url(#p80ae0f4dbe)" style="fill: #ebeced"/>
   </g>
   <g id="patch_98">
    <path d="M 285.770858 23.745185 
L 329.601393 23.745185 
L 329.601393 19.365577 
L 285.770858 19.365577 
z
" clip-path="url(#p80ae0f4dbe)" style="fill: #ebeced"/>
   </g>
   <g id="patch_99">
    <path d="M 285.770858 84.573069 
L 329.601393 84.573069 
L 329.601393 80.193461 
L 285.770858 80.193461 
z
" clip-path="url(#p80ae0f4dbe)" style="fill: #ebeced"/>
   </g>
   <g id="patch_100">
    <path d="M 285.770858 30.071285 
L 329.601393 30.071285 
L 329.601393 25.691677 
L 285.770858 25.691677 
z
" clip-path="url(#p80ae0f4dbe)" style="fill: #ebeced"/>
   </g>
   <g id="patch_101">
    <path d="M 285.770858 90.899169 
L 329.601393 90.899169 
L 329.601393 86.519561 
L 285.770858 86.519561 
z
" clip-path="url(#p80ae0f4dbe)" style="fill: #ebeced"/>
   </g>
   <g id="patch_102">
    <path d="M 285.770858 36.397385 
L 329.601393 36.397385 
L 329.601393 32.017777 
L 285.770858 32.017777 
z
" clip-path="url(#p80ae0f4dbe)" style="fill: #ebeced"/>
   </g>
   <g id="patch_103">
    <path d="M 285.770858 97.225269 
L 329.601393 97.225269 
L 329.601393 92.845661 
L 285.770858 92.845661 
z
" clip-path="url(#p80ae0f4dbe)" style="fill: #ebeced"/>
   </g>
   <g id="patch_104">
    <path d="M 285.770858 42.723485 
L 329.601393 42.723485 
L 329.601393 38.343877 
L 285.770858 38.343877 
z
" clip-path="url(#p80ae0f4dbe)" style="fill: #ebeced"/>
   </g>
   <g id="patch_105">
    <path d="M 285.770858 103.551369 
L 329.601393 103.551369 
L 329.601393 99.171761 
L 285.770858 99.171761 
z
" clip-path="url(#p80ae0f4dbe)" style="fill: #ebeced"/>
   </g>
   <g id="patch_106">
    <path d="M 285.770858 49.049585 
L 329.601393 49.049585 
L 329.601393 44.669977 
L 285.770858 44.669977 
z
" clip-path="url(#p80ae0f4dbe)" style="fill: #ebeced"/>
   </g>
   <g id="patch_107">
    <path d="M 285.770858 109.877469 
L 329.601393 109.877469 
L 329.601393 105.497861 
L 285.770858 105.497861 
z
" clip-path="url(#p80ae0f4dbe)" style="fill: #ebeced"/>
   </g>
   <g id="patch_108">
    <path d="M 285.770858 55.375685 
L 329.601393 55.375685 
L 329.601393 50.996077 
L 285.770858 50.996077 
z
" clip-path="url(#p80ae0f4dbe)" style="fill: #ebeced"/>
   </g>
   <g id="patch_109">
    <path d="M 285.770858 116.203569 
L 329.601393 116.203569 
L 329.601393 111.823961 
L 285.770858 111.823961 
z
" clip-path="url(#p80ae0f4dbe)" style="fill: #ebeced"/>
   </g>
   <g id="patch_110">
    <path d="M 285.770858 61.701785 
L 329.601393 61.701785 
L 329.601393 57.322177 
L 285.770858 57.322177 
z
" clip-path="url(#p80ae0f4dbe)" style="fill: #ebeced"/>
   </g>
   <g id="patch_111">
    <path d="M 285.770858 122.529669 
L 329.601393 122.529669 
L 329.601393 118.150061 
L 285.770858 118.150061 
z
" clip-path="url(#p80ae0f4dbe)" style="fill: #ebeced"/>
   </g>
   <g id="patch_112">
    <path d="M 285.770858 68.027885 
L 329.601393 68.027885 
L 329.601393 63.648277 
L 285.770858 63.648277 
z
" clip-path="url(#p80ae0f4dbe)" style="fill: #ebeced"/>
   </g>
   <g id="patch_113">
    <path d="M 285.770858 128.855769 
L 329.601393 128.855769 
L 329.601393 124.476161 
L 285.770858 124.476161 
z
" clip-path="url(#p80ae0f4dbe)" style="fill: #ebeced"/>
   </g>
   <g id="patch_114">
    <path d="M 285.770858 74.353985 
L 329.601393 74.353985 
L 329.601393 69.974377 
L 285.770858 69.974377 
z
" clip-path="url(#p80ae0f4dbe)" style="fill: #ebeced"/>
   </g>
   <g id="patch_115">
    <path d="M 285.770858 135.181869 
L 329.601393 135.181869 
L 329.601393 130.802261 
L 285.770858 130.802261 
z
" clip-path="url(#p80ae0f4dbe)" style="fill: #ebeced"/>
   </g>
   <g id="patch_116">
    <path d="M 285.770858 13.5261 
L 329.601393 13.5261 
L 329.601393 9.146492 
L 285.770858 9.146492 
z
" clip-path="url(#p80ae0f4dbe)" style="fill: #ebeced"/>
   </g>
   <g id="patch_117">
    <path d="M 333.49744 23.745185 
L 377.327975 23.745185 
L 377.327975 19.365577 
L 333.49744 19.365577 
z
" clip-path="url(#p80ae0f4dbe)" style="fill: #ebeced"/>
   </g>
   <g id="patch_118">
    <path d="M 333.49744 84.573069 
L 377.327975 84.573069 
L 377.327975 80.193461 
L 333.49744 80.193461 
z
" clip-path="url(#p80ae0f4dbe)" style="fill: #ebeced"/>
   </g>
   <g id="patch_119">
    <path d="M 333.49744 30.071285 
L 377.327975 30.071285 
L 377.327975 25.691677 
L 333.49744 25.691677 
z
" clip-path="url(#p80ae0f4dbe)" style="fill: #ebeced"/>
   </g>
   <g id="patch_120">
    <path d="M 333.49744 90.899169 
L 377.327975 90.899169 
L 377.327975 86.519561 
L 333.49744 86.519561 
z
" clip-path="url(#p80ae0f4dbe)" style="fill: #ebeced"/>
   </g>
   <g id="patch_121">
    <path d="M 333.49744 36.397385 
L 377.327975 36.397385 
L 377.327975 32.017777 
L 333.49744 32.017777 
z
" clip-path="url(#p80ae0f4dbe)" style="fill: #ebeced"/>
   </g>
   <g id="patch_122">
    <path d="M 333.49744 97.225269 
L 377.327975 97.225269 
L 377.327975 92.845661 
L 333.49744 92.845661 
z
" clip-path="url(#p80ae0f4dbe)" style="fill: #ebeced"/>
   </g>
   <g id="patch_123">
    <path d="M 333.49744 42.723485 
L 377.327975 42.723485 
L 377.327975 38.343877 
L 333.49744 38.343877 
z
" clip-path="url(#p80ae0f4dbe)" style="fill: #ebeced"/>
   </g>
   <g id="patch_124">
    <path d="M 333.49744 103.551369 
L 377.327975 103.551369 
L 377.327975 99.171761 
L 333.49744 99.171761 
z
" clip-path="url(#p80ae0f4dbe)" style="fill: #ebeced"/>
   </g>
   <g id="patch_125">
    <path d="M 333.49744 49.049585 
L 377.327975 49.049585 
L 377.327975 44.669977 
L 333.49744 44.669977 
z
" clip-path="url(#p80ae0f4dbe)" style="fill: #ebeced"/>
   </g>
   <g id="patch_126">
    <path d="M 333.49744 109.877469 
L 377.327975 109.877469 
L 377.327975 105.497861 
L 333.49744 105.497861 
z
" clip-path="url(#p80ae0f4dbe)" style="fill: #ebeced"/>
   </g>
   <g id="patch_127">
    <path d="M 333.49744 55.375685 
L 377.327975 55.375685 
L 377.327975 50.996077 
L 333.49744 50.996077 
z
" clip-path="url(#p80ae0f4dbe)" style="fill: #ebeced"/>
   </g>
   <g id="patch_128">
    <path d="M 333.49744 116.203569 
L 377.327975 116.203569 
L 377.327975 111.823961 
L 333.49744 111.823961 
z
" clip-path="url(#p80ae0f4dbe)" style="fill: #ebeced"/>
   </g>
   <g id="patch_129">
    <path d="M 333.49744 61.701785 
L 377.327975 61.701785 
L 377.327975 57.322177 
L 333.49744 57.322177 
z
" clip-path="url(#p80ae0f4dbe)" style="fill: #ebeced"/>
   </g>
   <g id="patch_130">
    <path d="M 333.49744 122.529669 
L 377.327975 122.529669 
L 377.327975 118.150061 
L 333.49744 118.150061 
z
" clip-path="url(#p80ae0f4dbe)" style="fill: #ebeced"/>
   </g>
   <g id="patch_131">
    <path d="M 333.49744 68.027885 
L 377.327975 68.027885 
L 377.327975 63.648277 
L 333.49744 63.648277 
z
" clip-path="url(#p80ae0f4dbe)" style="fill: #ebeced"/>
   </g>
   <g id="patch_132">
    <path d="M 333.49744 128.855769 
L 377.327975 128.855769 
L 377.327975 124.476161 
L 333.49744 124.476161 
z
" clip-path="url(#p80ae0f4dbe)" style="fill: #ebeced"/>
   </g>
   <g id="patch_133">
    <path d="M 333.49744 74.353985 
L 377.327975 74.353985 
L 377.327975 69.974377 
L 333.49744 69.974377 
z
" clip-path="url(#p80ae0f4dbe)" style="fill: #ebeced"/>
   </g>
   <g id="patch_134">
    <path d="M 333.49744 135.181869 
L 377.327975 135.181869 
L 377.327975 130.802261 
L 333.49744 130.802261 
z
" clip-path="url(#p80ae0f4dbe)" style="fill: #ebeced"/>
   </g>
   <g id="patch_135">
    <path d="M 333.49744 13.5261 
L 377.327975 13.5261 
L 377.327975 9.146492 
L 333.49744 9.146492 
z
" clip-path="url(#p80ae0f4dbe)" style="fill: #ebeced"/>
   </g>
   <g id="patch_136">
    <path d="M 381.224022 23.745185 
L 425.054557 23.745185 
L 425.054557 19.365577 
L 381.224022 19.365577 
z
" clip-path="url(#p80ae0f4dbe)" style="fill: #ebeced"/>
   </g>
   <g id="patch_137">
    <path d="M 381.224022 84.573069 
L 425.054557 84.573069 
L 425.054557 80.193461 
L 381.224022 80.193461 
z
" clip-path="url(#p80ae0f4dbe)" style="fill: #ebeced"/>
   </g>
   <g id="patch_138">
    <path d="M 381.224022 30.071285 
L 425.054557 30.071285 
L 425.054557 25.691677 
L 381.224022 25.691677 
z
" clip-path="url(#p80ae0f4dbe)" style="fill: #ebeced"/>
   </g>
   <g id="patch_139">
    <path d="M 381.224022 90.899169 
L 425.054557 90.899169 
L 425.054557 86.519561 
L 381.224022 86.519561 
z
" clip-path="url(#p80ae0f4dbe)" style="fill: #ebeced"/>
   </g>
   <g id="patch_140">
    <path d="M 381.224022 36.397385 
L 425.054557 36.397385 
L 425.054557 32.017777 
L 381.224022 32.017777 
z
" clip-path="url(#p80ae0f4dbe)" style="fill: #ebeced"/>
   </g>
   <g id="patch_141">
    <path d="M 381.224022 97.225269 
L 425.054557 97.225269 
L 425.054557 92.845661 
L 381.224022 92.845661 
z
" clip-path="url(#p80ae0f4dbe)" style="fill: #ebeced"/>
   </g>
   <g id="patch_142">
    <path d="M 381.224022 42.723485 
L 425.054557 42.723485 
L 425.054557 38.343877 
L 381.224022 38.343877 
z
" clip-path="url(#p80ae0f4dbe)" style="fill: #ebeced"/>
   </g>
   <g id="patch_143">
    <path d="M 381.224022 103.551369 
L 425.054557 103.551369 
L 425.054557 99.171761 
L 381.224022 99.171761 
z
" clip-path="url(#p80ae0f4dbe)" style="fill: #ebeced"/>
   </g>
   <g id="patch_144">
    <path d="M 381.224022 49.049585 
L 425.054557 49.049585 
L 425.054557 44.669977 
L 381.224022 44.669977 
z
" clip-path="url(#p80ae0f4dbe)" style="fill: #ebeced"/>
   </g>
   <g id="patch_145">
    <path d="M 381.224022 109.877469 
L 425.054557 109.877469 
L 425.054557 105.497861 
L 381.224022 105.497861 
z
" clip-path="url(#p80ae0f4dbe)" style="fill: #ebeced"/>
   </g>
   <g id="patch_146">
    <path d="M 381.224022 55.375685 
L 425.054557 55.375685 
L 425.054557 50.996077 
L 381.224022 50.996077 
z
" clip-path="url(#p80ae0f4dbe)" style="fill: #ebeced"/>
   </g>
   <g id="patch_147">
    <path d="M 381.224022 116.203569 
L 425.054557 116.203569 
L 425.054557 111.823961 
L 381.224022 111.823961 
z
" clip-path="url(#p80ae0f4dbe)" style="fill: #ebeced"/>
   </g>
   <g id="patch_148">
    <path d="M 381.224022 61.701785 
L 425.054557 61.701785 
L 425.054557 57.322177 
L 381.224022 57.322177 
z
" clip-path="url(#p80ae0f4dbe)" style="fill: #ebeced"/>
   </g>
   <g id="patch_149">
    <path d="M 381.224022 122.529669 
L 425.054557 122.529669 
L 425.054557 118.150061 
L 381.224022 118.150061 
z
" clip-path="url(#p80ae0f4dbe)" style="fill: #ebeced"/>
   </g>
   <g id="patch_150">
    <path d="M 381.224022 68.027885 
L 425.054557 68.027885 
L 425.054557 63.648277 
L 381.224022 63.648277 
z
" clip-path="url(#p80ae0f4dbe)" style="fill: #ebeced"/>
   </g>
   <g id="patch_151">
    <path d="M 381.224022 128.855769 
L 425.054557 128.855769 
L 425.054557 124.476161 
L 381.224022 124.476161 
z
" clip-path="url(#p80ae0f4dbe)" style="fill: #ebeced"/>
   </g>
   <g id="patch_152">
    <path d="M 381.224022 74.353985 
L 425.054557 74.353985 
L 425.054557 69.974377 
L 381.224022 69.974377 
z
" clip-path="url(#p80ae0f4dbe)" style="fill: #ebeced"/>
   </g>
   <g id="patch_153">
    <path d="M 381.224022 135.181869 
L 425.054557 135.181869 
L 425.054557 130.802261 
L 381.224022 130.802261 
z
" clip-path="url(#p80ae0f4dbe)" style="fill: #ebeced"/>
   </g>
   <g id="patch_154">
    <path d="M 381.224022 13.5261 
L 425.054557 13.5261 
L 425.054557 9.146492 
L 381.224022 9.146492 
z
" clip-path="url(#p80ae0f4dbe)" style="fill: #ebeced"/>
   </g>
   <g id="patch_155">
    <path d="M 428.950605 23.745185 
L 472.781139 23.745185 
L 472.781139 19.365577 
L 428.950605 19.365577 
z
" clip-path="url(#p80ae0f4dbe)" style="fill: #ebeced"/>
   </g>
   <g id="patch_156">
    <path d="M 428.950605 84.573069 
L 472.781139 84.573069 
L 472.781139 80.193461 
L 428.950605 80.193461 
z
" clip-path="url(#p80ae0f4dbe)" style="fill: #ebeced"/>
   </g>
   <g id="patch_157">
    <path d="M 428.950605 30.071285 
L 472.781139 30.071285 
L 472.781139 25.691677 
L 428.950605 25.691677 
z
" clip-path="url(#p80ae0f4dbe)" style="fill: #ebeced"/>
   </g>
   <g id="patch_158">
    <path d="M 428.950605 90.899169 
L 472.781139 90.899169 
L 472.781139 86.519561 
L 428.950605 86.519561 
z
" clip-path="url(#p80ae0f4dbe)" style="fill: #ebeced"/>
   </g>
   <g id="patch_159">
    <path d="M 428.950605 36.397385 
L 472.781139 36.397385 
L 472.781139 32.017777 
L 428.950605 32.017777 
z
" clip-path="url(#p80ae0f4dbe)" style="fill: #ebeced"/>
   </g>
   <g id="patch_160">
    <path d="M 428.950605 97.225269 
L 472.781139 97.225269 
L 472.781139 92.845661 
L 428.950605 92.845661 
z
" clip-path="url(#p80ae0f4dbe)" style="fill: #ebeced"/>
   </g>
   <g id="patch_161">
    <path d="M 428.950605 42.723485 
L 472.781139 42.723485 
L 472.781139 38.343877 
L 428.950605 38.343877 
z
" clip-path="url(#p80ae0f4dbe)" style="fill: #ebeced"/>
   </g>
   <g id="patch_162">
    <path d="M 428.950605 103.551369 
L 472.781139 103.551369 
L 472.781139 99.171761 
L 428.950605 99.171761 
z
" clip-path="url(#p80ae0f4dbe)" style="fill: #ebeced"/>
   </g>
   <g id="patch_163">
    <path d="M 428.950605 49.049585 
L 472.781139 49.049585 
L 472.781139 44.669977 
L 428.950605 44.669977 
z
" clip-path="url(#p80ae0f4dbe)" style="fill: #ebeced"/>
   </g>
   <g id="patch_164">
    <path d="M 428.950605 109.877469 
L 472.781139 109.877469 
L 472.781139 105.497861 
L 428.950605 105.497861 
z
" clip-path="url(#p80ae0f4dbe)" style="fill: #ebeced"/>
   </g>
   <g id="patch_165">
    <path d="M 428.950605 55.375685 
L 472.781139 55.375685 
L 472.781139 50.996077 
L 428.950605 50.996077 
z
" clip-path="url(#p80ae0f4dbe)" style="fill: #ebeced"/>
   </g>
   <g id="patch_166">
    <path d="M 428.950605 116.203569 
L 472.781139 116.203569 
L 472.781139 111.823961 
L 428.950605 111.823961 
z
" clip-path="url(#p80ae0f4dbe)" style="fill: #ebeced"/>
   </g>
   <g id="patch_167">
    <path d="M 428.950605 61.701785 
L 472.781139 61.701785 
L 472.781139 57.322177 
L 428.950605 57.322177 
z
" clip-path="url(#p80ae0f4dbe)" style="fill: #ebeced"/>
   </g>
   <g id="patch_168">
    <path d="M 428.950605 122.529669 
L 472.781139 122.529669 
L 472.781139 118.150061 
L 428.950605 118.150061 
z
" clip-path="url(#p80ae0f4dbe)" style="fill: #ebeced"/>
   </g>
   <g id="patch_169">
    <path d="M 428.950605 68.027885 
L 472.781139 68.027885 
L 472.781139 63.648277 
L 428.950605 63.648277 
z
" clip-path="url(#p80ae0f4dbe)" style="fill: #ebeced"/>
   </g>
   <g id="patch_170">
    <path d="M 428.950605 128.855769 
L 472.781139 128.855769 
L 472.781139 124.476161 
L 428.950605 124.476161 
z
" clip-path="url(#p80ae0f4dbe)" style="fill: #ebeced"/>
   </g>
   <g id="patch_171">
    <path d="M 428.950605 74.353985 
L 472.781139 74.353985 
L 472.781139 69.974377 
L 428.950605 69.974377 
z
" clip-path="url(#p80ae0f4dbe)" style="fill: #ebeced"/>
   </g>
   <g id="patch_172">
    <path d="M 428.950605 135.181869 
L 472.781139 135.181869 
L 472.781139 130.802261 
L 428.950605 130.802261 
z
" clip-path="url(#p80ae0f4dbe)" style="fill: #ebeced"/>
   </g>
   <g id="patch_173">
    <path d="M 428.950605 13.5261 
L 472.781139 13.5261 
L 472.781139 9.146492 
L 428.950605 9.146492 
z
" clip-path="url(#p80ae0f4dbe)" style="fill: #ebeced"/>
   </g>
   <g id="patch_174">
    <path d="M 476.677187 23.745185 
L 520.507722 23.745185 
L 520.507722 19.365577 
L 476.677187 19.365577 
z
" clip-path="url(#p80ae0f4dbe)" style="fill: #ebeced"/>
   </g>
   <g id="patch_175">
    <path d="M 476.677187 84.573069 
L 520.507722 84.573069 
L 520.507722 80.193461 
L 476.677187 80.193461 
z
" clip-path="url(#p80ae0f4dbe)" style="fill: #ebeced"/>
   </g>
   <g id="patch_176">
    <path d="M 476.677187 30.071285 
L 520.507722 30.071285 
L 520.507722 25.691677 
L 476.677187 25.691677 
z
" clip-path="url(#p80ae0f4dbe)" style="fill: #ebeced"/>
   </g>
   <g id="patch_177">
    <path d="M 476.677187 90.899169 
L 520.507722 90.899169 
L 520.507722 86.519561 
L 476.677187 86.519561 
z
" clip-path="url(#p80ae0f4dbe)" style="fill: #ebeced"/>
   </g>
   <g id="patch_178">
    <path d="M 476.677187 36.397385 
L 520.507722 36.397385 
L 520.507722 32.017777 
L 476.677187 32.017777 
z
" clip-path="url(#p80ae0f4dbe)" style="fill: #ebeced"/>
   </g>
   <g id="patch_179">
    <path d="M 476.677187 97.225269 
L 520.507722 97.225269 
L 520.507722 92.845661 
L 476.677187 92.845661 
z
" clip-path="url(#p80ae0f4dbe)" style="fill: #ebeced"/>
   </g>
   <g id="patch_180">
    <path d="M 476.677187 42.723485 
L 520.507722 42.723485 
L 520.507722 38.343877 
L 476.677187 38.343877 
z
" clip-path="url(#p80ae0f4dbe)" style="fill: #ebeced"/>
   </g>
   <g id="patch_181">
    <path d="M 476.677187 103.551369 
L 520.507722 103.551369 
L 520.507722 99.171761 
L 476.677187 99.171761 
z
" clip-path="url(#p80ae0f4dbe)" style="fill: #ebeced"/>
   </g>
   <g id="patch_182">
    <path d="M 476.677187 49.049585 
L 520.507722 49.049585 
L 520.507722 44.669977 
L 476.677187 44.669977 
z
" clip-path="url(#p80ae0f4dbe)" style="fill: #ebeced"/>
   </g>
   <g id="patch_183">
    <path d="M 476.677187 109.877469 
L 520.507722 109.877469 
L 520.507722 105.497861 
L 476.677187 105.497861 
z
" clip-path="url(#p80ae0f4dbe)" style="fill: #ebeced"/>
   </g>
   <g id="patch_184">
    <path d="M 476.677187 55.375685 
L 520.507722 55.375685 
L 520.507722 50.996077 
L 476.677187 50.996077 
z
" clip-path="url(#p80ae0f4dbe)" style="fill: #ebeced"/>
   </g>
   <g id="patch_185">
    <path d="M 476.677187 116.203569 
L 520.507722 116.203569 
L 520.507722 111.823961 
L 476.677187 111.823961 
z
" clip-path="url(#p80ae0f4dbe)" style="fill: #ebeced"/>
   </g>
   <g id="patch_186">
    <path d="M 476.677187 61.701785 
L 520.507722 61.701785 
L 520.507722 57.322177 
L 476.677187 57.322177 
z
" clip-path="url(#p80ae0f4dbe)" style="fill: #ebeced"/>
   </g>
   <g id="patch_187">
    <path d="M 476.677187 122.529669 
L 520.507722 122.529669 
L 520.507722 118.150061 
L 476.677187 118.150061 
z
" clip-path="url(#p80ae0f4dbe)" style="fill: #ebeced"/>
   </g>
   <g id="patch_188">
    <path d="M 476.677187 68.027885 
L 520.507722 68.027885 
L 520.507722 63.648277 
L 476.677187 63.648277 
z
" clip-path="url(#p80ae0f4dbe)" style="fill: #ebeced"/>
   </g>
   <g id="patch_189">
    <path d="M 476.677187 128.855769 
L 520.507722 128.855769 
L 520.507722 124.476161 
L 476.677187 124.476161 
z
" clip-path="url(#p80ae0f4dbe)" style="fill: #ebeced"/>
   </g>
   <g id="patch_190">
    <path d="M 476.677187 74.353985 
L 520.507722 74.353985 
L 520.507722 69.974377 
L 476.677187 69.974377 
z
" clip-path="url(#p80ae0f4dbe)" style="fill: #ebeced"/>
   </g>
   <g id="patch_191">
    <path d="M 476.677187 135.181869 
L 520.507722 135.181869 
L 520.507722 130.802261 
L 476.677187 130.802261 
z
" clip-path="url(#p80ae0f4dbe)" style="fill: #ebeced"/>
   </g>
   <g id="patch_192">
    <path d="M 476.677187 13.5261 
L 520.507722 13.5261 
L 520.507722 9.146492 
L 476.677187 9.146492 
z
" clip-path="url(#p80ae0f4dbe)" style="fill: #ebeced"/>
   </g>
   <g id="patch_193">
    <path d="M 524.403769 23.745185 
L 568.234304 23.745185 
L 568.234304 19.365577 
L 524.403769 19.365577 
z
" clip-path="url(#p80ae0f4dbe)" style="fill: #ebeced"/>
   </g>
   <g id="patch_194">
    <path d="M 524.403769 84.573069 
L 568.234304 84.573069 
L 568.234304 80.193461 
L 524.403769 80.193461 
z
" clip-path="url(#p80ae0f4dbe)" style="fill: #ebeced"/>
   </g>
   <g id="patch_195">
    <path d="M 524.403769 30.071285 
L 568.234304 30.071285 
L 568.234304 25.691677 
L 524.403769 25.691677 
z
" clip-path="url(#p80ae0f4dbe)" style="fill: #ebeced"/>
   </g>
   <g id="patch_196">
    <path d="M 524.403769 90.899169 
L 568.234304 90.899169 
L 568.234304 86.519561 
L 524.403769 86.519561 
z
" clip-path="url(#p80ae0f4dbe)" style="fill: #ebeced"/>
   </g>
   <g id="patch_197">
    <path d="M 524.403769 36.397385 
L 568.234304 36.397385 
L 568.234304 32.017777 
L 524.403769 32.017777 
z
" clip-path="url(#p80ae0f4dbe)" style="fill: #ebeced"/>
   </g>
   <g id="patch_198">
    <path d="M 524.403769 97.225269 
L 568.234304 97.225269 
L 568.234304 92.845661 
L 524.403769 92.845661 
z
" clip-path="url(#p80ae0f4dbe)" style="fill: #ebeced"/>
   </g>
   <g id="patch_199">
    <path d="M 524.403769 42.723485 
L 568.234304 42.723485 
L 568.234304 38.343877 
L 524.403769 38.343877 
z
" clip-path="url(#p80ae0f4dbe)" style="fill: #ebeced"/>
   </g>
   <g id="patch_200">
    <path d="M 524.403769 103.551369 
L 568.234304 103.551369 
L 568.234304 99.171761 
L 524.403769 99.171761 
z
" clip-path="url(#p80ae0f4dbe)" style="fill: #ebeced"/>
   </g>
   <g id="patch_201">
    <path d="M 524.403769 49.049585 
L 568.234304 49.049585 
L 568.234304 44.669977 
L 524.403769 44.669977 
z
" clip-path="url(#p80ae0f4dbe)" style="fill: #ebeced"/>
   </g>
   <g id="patch_202">
    <path d="M 524.403769 109.877469 
L 568.234304 109.877469 
L 568.234304 105.497861 
L 524.403769 105.497861 
z
" clip-path="url(#p80ae0f4dbe)" style="fill: #ebeced"/>
   </g>
   <g id="patch_203">
    <path d="M 524.403769 55.375685 
L 568.234304 55.375685 
L 568.234304 50.996077 
L 524.403769 50.996077 
z
" clip-path="url(#p80ae0f4dbe)" style="fill: #ebeced"/>
   </g>
   <g id="patch_204">
    <path d="M 524.403769 116.203569 
L 568.234304 116.203569 
L 568.234304 111.823961 
L 524.403769 111.823961 
z
" clip-path="url(#p80ae0f4dbe)" style="fill: #ebeced"/>
   </g>
   <g id="patch_205">
    <path d="M 524.403769 61.701785 
L 568.234304 61.701785 
L 568.234304 57.322177 
L 524.403769 57.322177 
z
" clip-path="url(#p80ae0f4dbe)" style="fill: #ebeced"/>
   </g>
   <g id="patch_206">
    <path d="M 524.403769 122.529669 
L 568.234304 122.529669 
L 568.234304 118.150061 
L 524.403769 118.150061 
z
" clip-path="url(#p80ae0f4dbe)" style="fill: #ebeced"/>
   </g>
   <g id="patch_207">
    <path d="M 524.403769 68.027885 
L 568.234304 68.027885 
L 568.234304 63.648277 
L 524.403769 63.648277 
z
" clip-path="url(#p80ae0f4dbe)" style="fill: #ebeced"/>
   </g>
   <g id="patch_208">
    <path d="M 524.403769 128.855769 
L 568.234304 128.855769 
L 568.234304 124.476161 
L 524.403769 124.476161 
z
" clip-path="url(#p80ae0f4dbe)" style="fill: #ebeced"/>
   </g>
   <g id="patch_209">
    <path d="M 524.403769 74.353985 
L 568.234304 74.353985 
L 568.234304 69.974377 
L 524.403769 69.974377 
z
" clip-path="url(#p80ae0f4dbe)" style="fill: #ebeced"/>
   </g>
   <g id="patch_210">
    <path d="M 524.403769 135.181869 
L 568.234304 135.181869 
L 568.234304 130.802261 
L 524.403769 130.802261 
z
" clip-path="url(#p80ae0f4dbe)" style="fill: #ebeced"/>
   </g>
   <g id="patch_211">
    <path d="M 524.403769 13.5261 
L 568.234304 13.5261 
L 568.234304 9.146492 
L 524.403769 9.146492 
z
" clip-path="url(#p80ae0f4dbe)" style="fill: #ebeced"/>
   </g>
   <g id="patch_212">
    <path d="M 572.130351 23.745185 
L 615.960886 23.745185 
L 615.960886 19.365577 
L 572.130351 19.365577 
z
" clip-path="url(#p80ae0f4dbe)" style="fill: #ebeced"/>
   </g>
   <g id="patch_213">
    <path d="M 572.130351 84.573069 
L 615.960886 84.573069 
L 615.960886 80.193461 
L 572.130351 80.193461 
z
" clip-path="url(#p80ae0f4dbe)" style="fill: #ebeced"/>
   </g>
   <g id="patch_214">
    <path d="M 572.130351 30.071285 
L 615.960886 30.071285 
L 615.960886 25.691677 
L 572.130351 25.691677 
z
" clip-path="url(#p80ae0f4dbe)" style="fill: #ebeced"/>
   </g>
   <g id="patch_215">
    <path d="M 572.130351 90.899169 
L 615.960886 90.899169 
L 615.960886 86.519561 
L 572.130351 86.519561 
z
" clip-path="url(#p80ae0f4dbe)" style="fill: #ebeced"/>
   </g>
   <g id="patch_216">
    <path d="M 572.130351 36.397385 
L 615.960886 36.397385 
L 615.960886 32.017777 
L 572.130351 32.017777 
z
" clip-path="url(#p80ae0f4dbe)" style="fill: #ebeced"/>
   </g>
   <g id="patch_217">
    <path d="M 572.130351 97.225269 
L 615.960886 97.225269 
L 615.960886 92.845661 
L 572.130351 92.845661 
z
" clip-path="url(#p80ae0f4dbe)" style="fill: #ebeced"/>
   </g>
   <g id="patch_218">
    <path d="M 572.130351 42.723485 
L 615.960886 42.723485 
L 615.960886 38.343877 
L 572.130351 38.343877 
z
" clip-path="url(#p80ae0f4dbe)" style="fill: #ebeced"/>
   </g>
   <g id="patch_219">
    <path d="M 572.130351 103.551369 
L 615.960886 103.551369 
L 615.960886 99.171761 
L 572.130351 99.171761 
z
" clip-path="url(#p80ae0f4dbe)" style="fill: #ebeced"/>
   </g>
   <g id="patch_220">
    <path d="M 572.130351 49.049585 
L 615.960886 49.049585 
L 615.960886 44.669977 
L 572.130351 44.669977 
z
" clip-path="url(#p80ae0f4dbe)" style="fill: #ebeced"/>
   </g>
   <g id="patch_221">
    <path d="M 572.130351 109.877469 
L 615.960886 109.877469 
L 615.960886 105.497861 
L 572.130351 105.497861 
z
" clip-path="url(#p80ae0f4dbe)" style="fill: #ebeced"/>
   </g>
   <g id="patch_222">
    <path d="M 572.130351 55.375685 
L 615.960886 55.375685 
L 615.960886 50.996077 
L 572.130351 50.996077 
z
" clip-path="url(#p80ae0f4dbe)" style="fill: #ebeced"/>
   </g>
   <g id="patch_223">
    <path d="M 572.130351 116.203569 
L 615.960886 116.203569 
L 615.960886 111.823961 
L 572.130351 111.823961 
z
" clip-path="url(#p80ae0f4dbe)" style="fill: #ebeced"/>
   </g>
   <g id="patch_224">
    <path d="M 572.130351 61.701785 
L 615.960886 61.701785 
L 615.960886 57.322177 
L 572.130351 57.322177 
z
" clip-path="url(#p80ae0f4dbe)" style="fill: #ebeced"/>
   </g>
   <g id="patch_225">
    <path d="M 572.130351 122.529669 
L 615.960886 122.529669 
L 615.960886 118.150061 
L 572.130351 118.150061 
z
" clip-path="url(#p80ae0f4dbe)" style="fill: #ebeced"/>
   </g>
   <g id="patch_226">
    <path d="M 572.130351 68.027885 
L 615.960886 68.027885 
L 615.960886 63.648277 
L 572.130351 63.648277 
z
" clip-path="url(#p80ae0f4dbe)" style="fill: #ebeced"/>
   </g>
   <g id="patch_227">
    <path d="M 572.130351 128.855769 
L 615.960886 128.855769 
L 615.960886 124.476161 
L 572.130351 124.476161 
z
" clip-path="url(#p80ae0f4dbe)" style="fill: #ebeced"/>
   </g>
   <g id="patch_228">
    <path d="M 572.130351 74.353985 
L 615.960886 74.353985 
L 615.960886 69.974377 
L 572.130351 69.974377 
z
" clip-path="url(#p80ae0f4dbe)" style="fill: #ebeced"/>
   </g>
   <g id="patch_229">
    <path d="M 572.130351 135.181869 
L 615.960886 135.181869 
L 615.960886 130.802261 
L 572.130351 130.802261 
z
" clip-path="url(#p80ae0f4dbe)" style="fill: #ebeced"/>
   </g>
   <g id="patch_230">
    <path d="M 572.130351 13.5261 
L 615.960886 13.5261 
L 615.960886 9.146492 
L 572.130351 9.146492 
z
" clip-path="url(#p80ae0f4dbe)" style="fill: #ebeced"/>
   </g>
   <g id="matplotlib.axis_1"/>
   <g id="matplotlib.axis_2"/>
   <g id="patch_231">
    <path d="M 47.137946 49.049585 
L 90.968481 49.049585 
L 90.968481 44.669977 
L 47.137946 44.669977 
z
" clip-path="url(#p80ae0f4dbe)" style="fill: #e36aae"/>
   </g>
   <g id="patch_232">
    <path d="M 47.137946 109.877469 
L 90.968481 109.877469 
L 90.968481 105.497861 
L 47.137946 105.497861 
z
" clip-path="url(#p80ae0f4dbe)" style="fill: #e36aae"/>
   </g>
   <g id="patch_233">
    <path d="M 94.864529 68.027885 
L 138.695063 68.027885 
L 138.695063 63.648277 
L 94.864529 63.648277 
z
" clip-path="url(#p80ae0f4dbe)" style="fill: #dbdc8d"/>
   </g>
   <g id="patch_234">
    <path d="M 94.864529 128.855769 
L 138.695063 128.855769 
L 138.695063 124.476161 
L 94.864529 124.476161 
z
" clip-path="url(#p80ae0f4dbe)" style="fill: #dbdc8d"/>
   </g>
   <g id="patch_235">
    <path d="M 142.591111 49.049585 
L 186.421646 49.049585 
L 186.421646 44.669977 
L 142.591111 44.669977 
z
" clip-path="url(#p80ae0f4dbe)" style="fill: #e36aae"/>
   </g>
   <g id="patch_236">
    <path d="M 142.591111 109.877469 
L 186.421646 109.877469 
L 186.421646 105.497861 
L 142.591111 105.497861 
z
" clip-path="url(#p80ae0f4dbe)" style="fill: #e36aae"/>
   </g>
   <g id="patch_237">
    <path d="M 191.535208 23.745185 
L 192.143966 23.745185 
L 192.143966 19.365577 
L 191.535208 19.365577 
z
" clip-path="url(#p80ae0f4dbe)" style="fill: #1f5aa6"/>
   </g>
   <g id="patch_238">
    <path d="M 193.726735 23.745185 
L 198.109788 23.745185 
L 198.109788 19.365577 
L 193.726735 19.365577 
z
" clip-path="url(#p80ae0f4dbe)" style="fill: #1f5aa6"/>
   </g>
   <g id="patch_239">
    <path d="M 190.317693 84.573069 
L 198.109788 84.573069 
L 198.109788 80.193461 
L 190.317693 80.193461 
z
" clip-path="url(#p80ae0f4dbe)" style="fill: #1f5aa6"/>
   </g>
   <g id="patch_240">
    <path d="M 190.317693 68.027885 
L 191.535208 68.027885 
L 191.535208 63.648277 
L 190.317693 63.648277 
z
" clip-path="url(#p80ae0f4dbe)" style="fill: #dbdc8d"/>
   </g>
   <g id="patch_241">
    <path d="M 192.143966 68.027885 
L 193.726735 68.027885 
L 193.726735 63.648277 
L 192.143966 63.648277 
z
" clip-path="url(#p80ae0f4dbe)" style="fill: #dbdc8d"/>
   </g>
   <g id="patch_242">
    <path d="M 198.109788 68.027885 
L 234.148228 68.027885 
L 234.148228 63.648277 
L 198.109788 63.648277 
z
" clip-path="url(#p80ae0f4dbe)" style="fill: #dbdc8d"/>
   </g>
   <g id="patch_243">
    <path d="M 198.109788 128.855769 
L 234.148228 128.855769 
L 234.148228 124.476161 
L 198.109788 124.476161 
z
" clip-path="url(#p80ae0f4dbe)" style="fill: #dbdc8d"/>
   </g>
   <g id="patch_244">
    <path d="M 190.317693 13.5261 
L 191.535208 13.5261 
L 191.535208 9.146492 
L 190.317693 9.146492 
z
" clip-path="url(#p80ae0f4dbe)" style="fill: #1f5aa6"/>
   </g>
   <g id="patch_245">
    <path d="M 192.143966 13.5261 
L 193.726735 13.5261 
L 193.726735 9.146492 
L 192.143966 9.146492 
z
" clip-path="url(#p80ae0f4dbe)" style="fill: #1f5aa6"/>
   </g>
   <g id="patch_246">
    <path d="M 276.639496 23.745185 
L 281.87481 23.745185 
L 281.87481 19.365577 
L 276.639496 19.365577 
z
" clip-path="url(#p80ae0f4dbe)" style="fill: #1f5aa6"/>
   </g>
   <g id="patch_247">
    <path d="M 270.551922 84.573069 
L 273.108703 84.573069 
L 273.108703 80.193461 
L 270.551922 80.193461 
z
" clip-path="url(#p80ae0f4dbe)" style="fill: #1f5aa6"/>
   </g>
   <g id="patch_248">
    <path d="M 276.15249 84.573069 
L 276.395993 84.573069 
L 276.395993 80.193461 
L 276.15249 80.193461 
z
" clip-path="url(#p80ae0f4dbe)" style="fill: #1f5aa6"/>
   </g>
   <g id="patch_249">
    <path d="M 276.517745 84.573069 
L 281.87481 84.573069 
L 281.87481 80.193461 
L 276.517745 80.193461 
z
" clip-path="url(#p80ae0f4dbe)" style="fill: #1f5aa6"/>
   </g>
   <g id="patch_250">
    <path d="M 240.357554 116.203569 
L 240.479305 116.203569 
L 240.479305 111.823961 
L 240.357554 111.823961 
z
" clip-path="url(#p80ae0f4dbe)" style="fill: #a7a9ac"/>
   </g>
   <g id="patch_251">
    <path d="M 240.601057 116.203569 
L 241.088063 116.203569 
L 241.088063 111.823961 
L 240.601057 111.823961 
z
" clip-path="url(#p80ae0f4dbe)" style="fill: #a7a9ac"/>
   </g>
   <g id="patch_252">
    <path d="M 241.331566 116.203569 
L 241.940323 116.203569 
L 241.940323 111.823961 
L 241.331566 111.823961 
z
" clip-path="url(#p80ae0f4dbe)" style="fill: #a7a9ac"/>
   </g>
   <g id="patch_253">
    <path d="M 271.525934 68.027885 
L 276.639496 68.027885 
L 276.639496 63.648277 
L 271.525934 63.648277 
z
" clip-path="url(#p80ae0f4dbe)" style="fill: #dbdc8d"/>
   </g>
   <g id="patch_254">
    <path d="M 273.108703 128.855769 
L 276.15249 128.855769 
L 276.15249 124.476161 
L 273.108703 124.476161 
z
" clip-path="url(#p80ae0f4dbe)" style="fill: #dbdc8d"/>
   </g>
   <g id="patch_255">
    <path d="M 276.395993 128.855769 
L 276.517745 128.855769 
L 276.517745 124.476161 
L 276.395993 124.476161 
z
" clip-path="url(#p80ae0f4dbe)" style="fill: #dbdc8d"/>
   </g>
   <g id="patch_256">
    <path d="M 238.044276 74.353985 
L 271.525934 74.353985 
L 271.525934 69.974377 
L 238.044276 69.974377 
z
" clip-path="url(#p80ae0f4dbe)" style="fill: #9edae6"/>
   </g>
   <g id="patch_257">
    <path d="M 238.044276 135.181869 
L 240.357554 135.181869 
L 240.357554 130.802261 
L 238.044276 130.802261 
z
" clip-path="url(#p80ae0f4dbe)" style="fill: #9edae6"/>
   </g>
   <g id="patch_258">
    <path d="M 240.479305 135.181869 
L 240.601057 135.181869 
L 240.601057 130.802261 
L 240.479305 130.802261 
z
" clip-path="url(#p80ae0f4dbe)" style="fill: #9edae6"/>
   </g>
   <g id="patch_259">
    <path d="M 241.088063 135.181869 
L 241.331566 135.181869 
L 241.331566 130.802261 
L 241.088063 130.802261 
z
" clip-path="url(#p80ae0f4dbe)" style="fill: #9edae6"/>
   </g>
   <g id="patch_260">
    <path d="M 241.940323 135.181869 
L 270.551922 135.181869 
L 270.551922 130.802261 
L 241.940323 130.802261 
z
" clip-path="url(#p80ae0f4dbe)" style="fill: #9edae6"/>
   </g>
   <g id="patch_261">
    <path d="M 240.357554 13.5261 
L 240.479305 13.5261 
L 240.479305 9.146492 
L 240.357554 9.146492 
z
" clip-path="url(#p80ae0f4dbe)" style="fill: #a7a9ac"/>
   </g>
   <g id="patch_262">
    <path d="M 240.601057 13.5261 
L 241.088063 13.5261 
L 241.088063 9.146492 
L 240.601057 9.146492 
z
" clip-path="url(#p80ae0f4dbe)" style="fill: #a7a9ac"/>
   </g>
   <g id="patch_263">
    <path d="M 241.331566 13.5261 
L 241.940323 13.5261 
L 241.940323 9.146492 
L 241.331566 9.146492 
z
" clip-path="url(#p80ae0f4dbe)" style="fill: #a7a9ac"/>
   </g>
   <g id="patch_264">
    <path d="M 270.551922 13.5261 
L 273.108703 13.5261 
L 273.108703 9.146492 
L 270.551922 9.146492 
z
" clip-path="url(#p80ae0f4dbe)" style="fill: #1f5aa6"/>
   </g>
   <g id="patch_265">
    <path d="M 276.15249 13.5261 
L 276.395993 13.5261 
L 276.395993 9.146492 
L 276.15249 9.146492 
z
" clip-path="url(#p80ae0f4dbe)" style="fill: #1f5aa6"/>
   </g>
   <g id="patch_266">
    <path d="M 276.517745 13.5261 
L 276.639496 13.5261 
L 276.639496 9.146492 
L 276.517745 9.146492 
z
" clip-path="url(#p80ae0f4dbe)" style="fill: #1f5aa6"/>
   </g>
   <g id="patch_267">
    <path d="M 305.494598 23.745185 
L 305.61635 23.745185 
L 305.61635 19.365577 
L 305.494598 19.365577 
z
" clip-path="url(#p80ae0f4dbe)" style="fill: #1f5aa6"/>
   </g>
   <g id="patch_268">
    <path d="M 316.939238 84.573069 
L 319.861274 84.573069 
L 319.861274 80.193461 
L 316.939238 80.193461 
z
" clip-path="url(#p80ae0f4dbe)" style="fill: #1f5aa6"/>
   </g>
   <g id="patch_269">
    <path d="M 319.983025 84.573069 
L 320.226528 84.573069 
L 320.226528 80.193461 
L 319.983025 80.193461 
z
" clip-path="url(#p80ae0f4dbe)" style="fill: #1f5aa6"/>
   </g>
   <g id="patch_270">
    <path d="M 325.340091 68.027885 
L 329.601393 68.027885 
L 329.601393 63.648277 
L 325.340091 63.648277 
z
" clip-path="url(#p80ae0f4dbe)" style="fill: #dbdc8d"/>
   </g>
   <g id="patch_271">
    <path d="M 285.770858 74.353985 
L 305.494598 74.353985 
L 305.494598 69.974377 
L 285.770858 69.974377 
z
" clip-path="url(#p80ae0f4dbe)" style="fill: #9edae6"/>
   </g>
   <g id="patch_272">
    <path d="M 305.61635 74.353985 
L 325.340091 74.353985 
L 325.340091 69.974377 
L 305.61635 69.974377 
z
" clip-path="url(#p80ae0f4dbe)" style="fill: #9edae6"/>
   </g>
   <g id="patch_273">
    <path d="M 285.770858 135.181869 
L 316.939238 135.181869 
L 316.939238 130.802261 
L 285.770858 130.802261 
z
" clip-path="url(#p80ae0f4dbe)" style="fill: #9edae6"/>
   </g>
   <g id="patch_274">
    <path d="M 319.861274 135.181869 
L 319.983025 135.181869 
L 319.983025 130.802261 
L 319.861274 130.802261 
z
" clip-path="url(#p80ae0f4dbe)" style="fill: #9edae6"/>
   </g>
   <g id="patch_275">
    <path d="M 320.226528 135.181869 
L 329.601393 135.181869 
L 329.601393 130.802261 
L 320.226528 130.802261 
z
" clip-path="url(#p80ae0f4dbe)" style="fill: #9edae6"/>
   </g>
   <g id="patch_276">
    <path d="M 305.494598 13.5261 
L 305.61635 13.5261 
L 305.61635 9.146492 
L 305.494598 9.146492 
z
" clip-path="url(#p80ae0f4dbe)" style="fill: #9edae6"/>
   </g>
   <g id="patch_277">
    <path d="M 316.939238 13.5261 
L 319.861274 13.5261 
L 319.861274 9.146492 
L 316.939238 9.146492 
z
" clip-path="url(#p80ae0f4dbe)" style="fill: #1f5aa6"/>
   </g>
   <g id="patch_278">
    <path d="M 319.983025 13.5261 
L 320.226528 13.5261 
L 320.226528 9.146492 
L 319.983025 9.146492 
z
" clip-path="url(#p80ae0f4dbe)" style="fill: #1f5aa6"/>
   </g>
   <g id="patch_279">
    <path d="M 325.340091 13.5261 
L 329.601393 13.5261 
L 329.601393 9.146492 
L 325.340091 9.146492 
z
" clip-path="url(#p80ae0f4dbe)" style="fill: #9edae6"/>
   </g>
   <g id="patch_280">
    <path d="M 359.795761 84.573069 
L 361.622033 84.573069 
L 361.622033 80.193461 
L 359.795761 80.193461 
z
" clip-path="url(#p80ae0f4dbe)" style="fill: #1f5aa6"/>
   </g>
   <g id="patch_281">
    <path d="M 364.66582 84.573069 
L 368.561868 84.573069 
L 368.561868 80.193461 
L 364.66582 80.193461 
z
" clip-path="url(#p80ae0f4dbe)" style="fill: #1f5aa6"/>
   </g>
   <g id="patch_282">
    <path d="M 365.152826 49.049585 
L 377.327975 49.049585 
L 377.327975 44.669977 
L 365.152826 44.669977 
z
" clip-path="url(#p80ae0f4dbe)" style="fill: #e36aae"/>
   </g>
   <g id="patch_283">
    <path d="M 368.561868 109.877469 
L 377.327975 109.877469 
L 377.327975 105.497861 
L 368.561868 105.497861 
z
" clip-path="url(#p80ae0f4dbe)" style="fill: #e36aae"/>
   </g>
   <g id="patch_284">
    <path d="M 333.49744 68.027885 
L 365.152826 68.027885 
L 365.152826 63.648277 
L 333.49744 63.648277 
z
" clip-path="url(#p80ae0f4dbe)" style="fill: #dbdc8d"/>
   </g>
   <g id="patch_285">
    <path d="M 333.49744 128.855769 
L 359.795761 128.855769 
L 359.795761 124.476161 
L 333.49744 124.476161 
z
" clip-path="url(#p80ae0f4dbe)" style="fill: #dbdc8d"/>
   </g>
   <g id="patch_286">
    <path d="M 361.622033 135.181869 
L 364.66582 135.181869 
L 364.66582 130.802261 
L 361.622033 130.802261 
z
" clip-path="url(#p80ae0f4dbe)" style="fill: #9edae6"/>
   </g>
   <g id="patch_287">
    <path d="M 359.795761 13.5261 
L 368.561868 13.5261 
L 368.561868 9.146492 
L 359.795761 9.146492 
z
" clip-path="url(#p80ae0f4dbe)" style="fill: #1f5aa6"/>
   </g>
   <g id="patch_288">
    <path d="M 389.016117 84.573069 
L 400.70426 84.573069 
L 400.70426 80.193461 
L 389.016117 80.193461 
z
" clip-path="url(#p80ae0f4dbe)" style="fill: #1f5aa6"/>
   </g>
   <g id="patch_289">
    <path d="M 381.224022 61.701785 
L 425.054557 61.701785 
L 425.054557 57.322177 
L 381.224022 57.322177 
z
" clip-path="url(#p80ae0f4dbe)" style="fill: #f2856e"/>
   </g>
   <g id="patch_290">
    <path d="M 381.224022 122.529669 
L 389.016117 122.529669 
L 389.016117 118.150061 
L 381.224022 118.150061 
z
" clip-path="url(#p80ae0f4dbe)" style="fill: #f2856e"/>
   </g>
   <g id="patch_291">
    <path d="M 400.70426 122.529669 
L 425.054557 122.529669 
L 425.054557 118.150061 
L 400.70426 118.150061 
z
" clip-path="url(#p80ae0f4dbe)" style="fill: #f2856e"/>
   </g>
   <g id="patch_292">
    <path d="M 389.016117 13.5261 
L 400.70426 13.5261 
L 400.70426 9.146492 
L 389.016117 9.146492 
z
" clip-path="url(#p80ae0f4dbe)" style="fill: #1f5aa6"/>
   </g>
   <g id="patch_293">
    <path d="M 428.950605 84.573069 
L 430.289871 84.573069 
L 430.289871 80.193461 
L 428.950605 80.193461 
z
" clip-path="url(#p80ae0f4dbe)" style="fill: #1f5aa6"/>
   </g>
   <g id="patch_294">
    <path d="M 460.484239 84.573069 
L 460.605991 84.573069 
L 460.605991 80.193461 
L 460.484239 80.193461 
z
" clip-path="url(#p80ae0f4dbe)" style="fill: #1f5aa6"/>
   </g>
   <g id="patch_295">
    <path d="M 460.727742 84.573069 
L 463.528026 84.573069 
L 463.528026 80.193461 
L 460.727742 80.193461 
z
" clip-path="url(#p80ae0f4dbe)" style="fill: #1f5aa6"/>
   </g>
   <g id="patch_296">
    <path d="M 463.649778 84.573069 
L 463.893281 84.573069 
L 463.893281 80.193461 
L 463.649778 80.193461 
z
" clip-path="url(#p80ae0f4dbe)" style="fill: #1f5aa6"/>
   </g>
   <g id="patch_297">
    <path d="M 428.950605 68.027885 
L 472.781139 68.027885 
L 472.781139 63.648277 
L 428.950605 63.648277 
z
" clip-path="url(#p80ae0f4dbe)" style="fill: #dbdc8d"/>
   </g>
   <g id="patch_298">
    <path d="M 430.289871 128.855769 
L 460.484239 128.855769 
L 460.484239 124.476161 
L 430.289871 124.476161 
z
" clip-path="url(#p80ae0f4dbe)" style="fill: #dbdc8d"/>
   </g>
   <g id="patch_299">
    <path d="M 460.605991 128.855769 
L 460.727742 128.855769 
L 460.727742 124.476161 
L 460.605991 124.476161 
z
" clip-path="url(#p80ae0f4dbe)" style="fill: #dbdc8d"/>
   </g>
   <g id="patch_300">
    <path d="M 463.528026 135.181869 
L 463.649778 135.181869 
L 463.649778 130.802261 
L 463.528026 130.802261 
z
" clip-path="url(#p80ae0f4dbe)" style="fill: #9edae6"/>
   </g>
   <g id="patch_301">
    <path d="M 463.893281 135.181869 
L 472.781139 135.181869 
L 472.781139 130.802261 
L 463.893281 130.802261 
z
" clip-path="url(#p80ae0f4dbe)" style="fill: #9edae6"/>
   </g>
   <g id="patch_302">
    <path d="M 428.950605 13.5261 
L 430.289871 13.5261 
L 430.289871 9.146492 
L 428.950605 9.146492 
z
" clip-path="url(#p80ae0f4dbe)" style="fill: #1f5aa6"/>
   </g>
   <g id="patch_303">
    <path d="M 460.484239 13.5261 
L 460.605991 13.5261 
L 460.605991 9.146492 
L 460.484239 9.146492 
z
" clip-path="url(#p80ae0f4dbe)" style="fill: #1f5aa6"/>
   </g>
   <g id="patch_304">
    <path d="M 460.727742 13.5261 
L 472.781139 13.5261 
L 472.781139 9.146492 
L 460.727742 9.146492 
z
" clip-path="url(#p80ae0f4dbe)" style="fill: #9edae6"/>
   </g>
   <g id="patch_305">
    <path d="M 503.94952 84.573069 
L 505.045283 84.573069 
L 505.045283 80.193461 
L 503.94952 80.193461 
z
" clip-path="url(#p80ae0f4dbe)" style="fill: #1f5aa6"/>
   </g>
   <g id="patch_306">
    <path d="M 478.503459 49.049585 
L 520.507722 49.049585 
L 520.507722 44.669977 
L 478.503459 44.669977 
z
" clip-path="url(#p80ae0f4dbe)" style="fill: #e36aae"/>
   </g>
   <g id="patch_307">
    <path d="M 476.677187 109.877469 
L 503.94952 109.877469 
L 503.94952 105.497861 
L 476.677187 105.497861 
z
" clip-path="url(#p80ae0f4dbe)" style="fill: #e36aae"/>
   </g>
   <g id="patch_308">
    <path d="M 505.045283 109.877469 
L 507.845567 109.877469 
L 507.845567 105.497861 
L 505.045283 105.497861 
z
" clip-path="url(#p80ae0f4dbe)" style="fill: #e36aae"/>
   </g>
   <g id="patch_309">
    <path d="M 476.677187 68.027885 
L 478.503459 68.027885 
L 478.503459 63.648277 
L 476.677187 63.648277 
z
" clip-path="url(#p80ae0f4dbe)" style="fill: #dbdc8d"/>
   </g>
   <g id="patch_310">
    <path d="M 507.845567 128.855769 
L 520.507722 128.855769 
L 520.507722 124.476161 
L 507.845567 124.476161 
z
" clip-path="url(#p80ae0f4dbe)" style="fill: #dbdc8d"/>
   </g>
   <g id="patch_311">
    <path d="M 476.677187 13.5261 
L 478.503459 13.5261 
L 478.503459 9.146492 
L 476.677187 9.146492 
z
" clip-path="url(#p80ae0f4dbe)" style="fill: #e36aae"/>
   </g>
   <g id="patch_312">
    <path d="M 503.94952 13.5261 
L 505.045283 13.5261 
L 505.045283 9.146492 
L 503.94952 9.146492 
z
" clip-path="url(#p80ae0f4dbe)" style="fill: #1f5aa6"/>
   </g>
   <g id="patch_313">
    <path d="M 507.845567 13.5261 
L 520.507722 13.5261 
L 520.507722 9.146492 
L 507.845567 9.146492 
z
" clip-path="url(#p80ae0f4dbe)" style="fill: #dbdc8d"/>
   </g>
   <g id="patch_314">
    <path d="M 568.112552 23.745185 
L 568.234304 23.745185 
L 568.234304 19.365577 
L 568.112552 19.365577 
z
" clip-path="url(#p80ae0f4dbe)" style="fill: #1f5aa6"/>
   </g>
   <g id="patch_315">
    <path d="M 529.517332 84.573069 
L 530.734846 84.573069 
L 530.734846 80.193461 
L 529.517332 80.193461 
z
" clip-path="url(#p80ae0f4dbe)" style="fill: #1f5aa6"/>
   </g>
   <g id="patch_316">
    <path d="M 532.195864 84.573069 
L 533.291628 84.573069 
L 533.291628 80.193461 
L 532.195864 80.193461 
z
" clip-path="url(#p80ae0f4dbe)" style="fill: #1f5aa6"/>
   </g>
   <g id="patch_317">
    <path d="M 533.413379 84.573069 
L 533.535131 84.573069 
L 533.535131 80.193461 
L 533.413379 80.193461 
z
" clip-path="url(#p80ae0f4dbe)" style="fill: #1f5aa6"/>
   </g>
   <g id="patch_318">
    <path d="M 542.54474 84.573069 
L 544.858019 84.573069 
L 544.858019 80.193461 
L 542.54474 80.193461 
z
" clip-path="url(#p80ae0f4dbe)" style="fill: #1f5aa6"/>
   </g>
   <g id="patch_319">
    <path d="M 544.97977 84.573069 
L 545.466776 84.573069 
L 545.466776 80.193461 
L 544.97977 80.193461 
z
" clip-path="url(#p80ae0f4dbe)" style="fill: #1f5aa6"/>
   </g>
   <g id="patch_320">
    <path d="M 545.710279 84.573069 
L 545.832031 84.573069 
L 545.832031 80.193461 
L 545.710279 80.193461 
z
" clip-path="url(#p80ae0f4dbe)" style="fill: #1f5aa6"/>
   </g>
   <g id="patch_321">
    <path d="M 556.42441 84.573069 
L 556.789664 84.573069 
L 556.789664 80.193461 
L 556.42441 80.193461 
z
" clip-path="url(#p80ae0f4dbe)" style="fill: #1f5aa6"/>
   </g>
   <g id="patch_322">
    <path d="M 556.911416 84.573069 
L 559.468197 84.573069 
L 559.468197 80.193461 
L 556.911416 80.193461 
z
" clip-path="url(#p80ae0f4dbe)" style="fill: #1f5aa6"/>
   </g>
   <g id="patch_323">
    <path d="M 563.364244 84.573069 
L 568.234304 84.573069 
L 568.234304 80.193461 
L 563.364244 80.193461 
z
" clip-path="url(#p80ae0f4dbe)" style="fill: #1f5aa6"/>
   </g>
   <g id="patch_324">
    <path d="M 531.343604 36.397385 
L 543.397001 36.397385 
L 543.397001 32.017777 
L 531.343604 32.017777 
z
" clip-path="url(#p80ae0f4dbe)" style="fill: #e97f2e"/>
   </g>
   <g id="patch_325">
    <path d="M 550.70209 36.397385 
L 554.354635 36.397385 
L 554.354635 32.017777 
L 550.70209 32.017777 
z
" clip-path="url(#p80ae0f4dbe)" style="fill: #e97f2e"/>
   </g>
   <g id="patch_326">
    <path d="M 554.476386 36.397385 
L 556.42441 36.397385 
L 556.42441 32.017777 
L 554.476386 32.017777 
z
" clip-path="url(#p80ae0f4dbe)" style="fill: #e97f2e"/>
   </g>
   <g id="patch_327">
    <path d="M 530.734846 97.225269 
L 532.195864 97.225269 
L 532.195864 92.845661 
L 530.734846 92.845661 
z
" clip-path="url(#p80ae0f4dbe)" style="fill: #e97f2e"/>
   </g>
   <g id="patch_328">
    <path d="M 533.291628 97.225269 
L 533.413379 97.225269 
L 533.413379 92.845661 
L 533.291628 92.845661 
z
" clip-path="url(#p80ae0f4dbe)" style="fill: #e97f2e"/>
   </g>
   <g id="patch_329">
    <path d="M 533.535131 97.225269 
L 542.54474 97.225269 
L 542.54474 92.845661 
L 533.535131 92.845661 
z
" clip-path="url(#p80ae0f4dbe)" style="fill: #e97f2e"/>
   </g>
   <g id="patch_330">
    <path d="M 550.458587 97.225269 
L 556.42441 97.225269 
L 556.42441 92.845661 
L 550.458587 92.845661 
z
" clip-path="url(#p80ae0f4dbe)" style="fill: #e97f2e"/>
   </g>
   <g id="patch_331">
    <path d="M 556.789664 97.225269 
L 556.911416 97.225269 
L 556.911416 92.845661 
L 556.789664 92.845661 
z
" clip-path="url(#p80ae0f4dbe)" style="fill: #e97f2e"/>
   </g>
   <g id="patch_332">
    <path d="M 524.403769 42.723485 
L 531.343604 42.723485 
L 531.343604 38.343877 
L 524.403769 38.343877 
z
" clip-path="url(#p80ae0f4dbe)" style="fill: #8c564b"/>
   </g>
   <g id="patch_333">
    <path d="M 543.397001 42.723485 
L 550.70209 42.723485 
L 550.70209 38.343877 
L 543.397001 38.343877 
z
" clip-path="url(#p80ae0f4dbe)" style="fill: #8c564b"/>
   </g>
   <g id="patch_334">
    <path d="M 554.354635 42.723485 
L 554.476386 42.723485 
L 554.476386 38.343877 
L 554.354635 38.343877 
z
" clip-path="url(#p80ae0f4dbe)" style="fill: #8c564b"/>
   </g>
   <g id="patch_335">
    <path d="M 556.42441 42.723485 
L 568.112552 42.723485 
L 568.112552 38.343877 
L 556.42441 38.343877 
z
" clip-path="url(#p80ae0f4dbe)" style="fill: #8c564b"/>
   </g>
   <g id="patch_336">
    <path d="M 544.858019 103.551369 
L 544.97977 103.551369 
L 544.97977 99.171761 
L 544.858019 99.171761 
z
" clip-path="url(#p80ae0f4dbe)" style="fill: #8c564b"/>
   </g>
   <g id="patch_337">
    <path d="M 545.466776 103.551369 
L 545.710279 103.551369 
L 545.710279 99.171761 
L 545.466776 99.171761 
z
" clip-path="url(#p80ae0f4dbe)" style="fill: #8c564b"/>
   </g>
   <g id="patch_338">
    <path d="M 545.832031 103.551369 
L 547.780054 103.551369 
L 547.780054 99.171761 
L 545.832031 99.171761 
z
" clip-path="url(#p80ae0f4dbe)" style="fill: #8c564b"/>
   </g>
   <g id="patch_339">
    <path d="M 524.403769 135.181869 
L 529.517332 135.181869 
L 529.517332 130.802261 
L 524.403769 130.802261 
z
" clip-path="url(#p80ae0f4dbe)" style="fill: #9edae6"/>
   </g>
   <g id="patch_340">
    <path d="M 547.780054 135.181869 
L 550.458587 135.181869 
L 550.458587 130.802261 
L 547.780054 130.802261 
z
" clip-path="url(#p80ae0f4dbe)" style="fill: #9edae6"/>
   </g>
   <g id="patch_341">
    <path d="M 559.468197 135.181869 
L 563.364244 135.181869 
L 563.364244 130.802261 
L 559.468197 130.802261 
z
" clip-path="url(#p80ae0f4dbe)" style="fill: #9edae6"/>
   </g>
   <g id="patch_342">
    <path d="M 524.403769 13.5261 
L 531.343604 13.5261 
L 531.343604 9.146492 
L 524.403769 9.146492 
z
" clip-path="url(#p80ae0f4dbe)" style="fill: #9edae6"/>
   </g>
   <g id="patch_343">
    <path d="M 532.195864 13.5261 
L 533.291628 13.5261 
L 533.291628 9.146492 
L 532.195864 9.146492 
z
" clip-path="url(#p80ae0f4dbe)" style="fill: #1f5aa6"/>
   </g>
   <g id="patch_344">
    <path d="M 533.413379 13.5261 
L 533.535131 13.5261 
L 533.535131 9.146492 
L 533.413379 9.146492 
z
" clip-path="url(#p80ae0f4dbe)" style="fill: #1f5aa6"/>
   </g>
   <g id="patch_345">
    <path d="M 542.54474 13.5261 
L 544.858019 13.5261 
L 544.858019 9.146492 
L 542.54474 9.146492 
z
" clip-path="url(#p80ae0f4dbe)" style="fill: #1f5aa6"/>
   </g>
   <g id="patch_346">
    <path d="M 544.97977 13.5261 
L 545.466776 13.5261 
L 545.466776 9.146492 
L 544.97977 9.146492 
z
" clip-path="url(#p80ae0f4dbe)" style="fill: #1f5aa6"/>
   </g>
   <g id="patch_347">
    <path d="M 545.710279 13.5261 
L 545.832031 13.5261 
L 545.832031 9.146492 
L 545.710279 9.146492 
z
" clip-path="url(#p80ae0f4dbe)" style="fill: #1f5aa6"/>
   </g>
   <g id="patch_348">
    <path d="M 547.780054 13.5261 
L 550.70209 13.5261 
L 550.70209 9.146492 
L 547.780054 9.146492 
z
" clip-path="url(#p80ae0f4dbe)" style="fill: #9edae6"/>
   </g>
   <g id="patch_349">
    <path d="M 554.354635 13.5261 
L 554.476386 13.5261 
L 554.476386 9.146492 
L 554.354635 9.146492 
z
" clip-path="url(#p80ae0f4dbe)" style="fill: #e97f2e"/>
   </g>
   <g id="patch_350">
    <path d="M 556.42441 13.5261 
L 568.112552 13.5261 
L 568.112552 9.146492 
L 556.42441 9.146492 
z
" clip-path="url(#p80ae0f4dbe)" style="fill: #1f5aa6"/>
   </g>
   <g id="patch_351">
    <path d="M 585.523015 23.745185 
L 615.960886 23.745185 
L 615.960886 19.365577 
L 585.523015 19.365577 
z
" clip-path="url(#p80ae0f4dbe)" style="fill: #1f5aa6"/>
   </g>
   <g id="patch_352">
    <path d="M 572.130351 84.573069 
L 579.922446 84.573069 
L 579.922446 80.193461 
L 572.130351 80.193461 
z
" clip-path="url(#p80ae0f4dbe)" style="fill: #1f5aa6"/>
   </g>
   <g id="patch_353">
    <path d="M 591.732341 84.573069 
L 591.854092 84.573069 
L 591.854092 80.193461 
L 591.732341 80.193461 
z
" clip-path="url(#p80ae0f4dbe)" style="fill: #1f5aa6"/>
   </g>
   <g id="patch_354">
    <path d="M 591.975844 84.573069 
L 592.097595 84.573069 
L 592.097595 80.193461 
L 591.975844 80.193461 
z
" clip-path="url(#p80ae0f4dbe)" style="fill: #1f5aa6"/>
   </g>
   <g id="patch_355">
    <path d="M 592.219346 84.573069 
L 592.584601 84.573069 
L 592.584601 80.193461 
L 592.219346 80.193461 
z
" clip-path="url(#p80ae0f4dbe)" style="fill: #1f5aa6"/>
   </g>
   <g id="patch_356">
    <path d="M 592.706352 84.573069 
L 600.376696 84.573069 
L 600.376696 80.193461 
L 592.706352 80.193461 
z
" clip-path="url(#p80ae0f4dbe)" style="fill: #1f5aa6"/>
   </g>
   <g id="patch_357">
    <path d="M 600.620199 84.573069 
L 600.74195 84.573069 
L 600.74195 80.193461 
L 600.620199 80.193461 
z
" clip-path="url(#p80ae0f4dbe)" style="fill: #1f5aa6"/>
   </g>
   <g id="patch_358">
    <path d="M 572.130351 61.701785 
L 585.523015 61.701785 
L 585.523015 57.322177 
L 572.130351 57.322177 
z
" clip-path="url(#p80ae0f4dbe)" style="fill: #f2856e"/>
   </g>
   <g id="patch_359">
    <path d="M 579.922446 122.529669 
L 591.732341 122.529669 
L 591.732341 118.150061 
L 579.922446 118.150061 
z
" clip-path="url(#p80ae0f4dbe)" style="fill: #f2856e"/>
   </g>
   <g id="patch_360">
    <path d="M 591.854092 122.529669 
L 591.975844 122.529669 
L 591.975844 118.150061 
L 591.854092 118.150061 
z
" clip-path="url(#p80ae0f4dbe)" style="fill: #f2856e"/>
   </g>
   <g id="patch_361">
    <path d="M 592.097595 122.529669 
L 592.219346 122.529669 
L 592.219346 118.150061 
L 592.097595 118.150061 
z
" clip-path="url(#p80ae0f4dbe)" style="fill: #f2856e"/>
   </g>
   <g id="patch_362">
    <path d="M 592.584601 122.529669 
L 592.706352 122.529669 
L 592.706352 118.150061 
L 592.584601 118.150061 
z
" clip-path="url(#p80ae0f4dbe)" style="fill: #f2856e"/>
   </g>
   <g id="patch_363">
    <path d="M 600.376696 128.855769 
L 600.620199 128.855769 
L 600.620199 124.476161 
L 600.376696 124.476161 
z
" clip-path="url(#p80ae0f4dbe)" style="fill: #dbdc8d"/>
   </g>
   <g id="patch_364">
    <path d="M 600.74195 128.855769 
L 615.960886 128.855769 
L 615.960886 124.476161 
L 600.74195 124.476161 
z
" clip-path="url(#p80ae0f4dbe)" style="fill: #dbdc8d"/>
   </g>
   <g id="patch_365">
    <path d="M 572.130351 13.5261 
L 579.922446 13.5261 
L 579.922446 9.146492 
L 572.130351 9.146492 
z
" clip-path="url(#p80ae0f4dbe)" style="fill: #1f5aa6"/>
   </g>
   <g id="patch_366">
    <path d="M 585.523015 13.5261 
L 591.732341 13.5261 
L 591.732341 9.146492 
L 585.523015 9.146492 
z
" clip-path="url(#p80ae0f4dbe)" style="fill: #f2856e"/>
   </g>
   <g id="patch_367">
    <path d="M 591.854092 13.5261 
L 591.975844 13.5261 
L 591.975844 9.146492 
L 591.854092 9.146492 
z
" clip-path="url(#p80ae0f4dbe)" style="fill: #f2856e"/>
   </g>
   <g id="patch_368">
    <path d="M 592.097595 13.5261 
L 592.219346 13.5261 
L 592.219346 9.146492 
L 592.097595 9.146492 
z
" clip-path="url(#p80ae0f4dbe)" style="fill: #f2856e"/>
   </g>
   <g id="patch_369">
    <path d="M 592.584601 13.5261 
L 592.706352 13.5261 
L 592.706352 9.146492 
L 592.584601 9.146492 
z
" clip-path="url(#p80ae0f4dbe)" style="fill: #f2856e"/>
   </g>
   <g id="patch_370">
    <path d="M 600.376696 13.5261 
L 600.620199 13.5261 
L 600.620199 9.146492 
L 600.376696 9.146492 
z
" clip-path="url(#p80ae0f4dbe)" style="fill: #dbdc8d"/>
   </g>
   <g id="patch_371">
    <path d="M 600.74195 13.5261 
L 615.960886 13.5261 
L 615.960886 9.146492 
L 600.74195 9.146492 
z
" clip-path="url(#p80ae0f4dbe)" style="fill: #dbdc8d"/>
   </g>
   <g id="line2d_1">
    <path d="M 47.137946 140.0481 
L 90.968481 140.0481 
" clip-path="url(#p80ae0f4dbe)" style="fill: none; stroke: #5a5a5a; stroke-width: 1.4"/>
   </g>
   <g id="text_1">
    <text style="font-size: 8.5px; font-family: 'Arial'; text-anchor: end" x="44.052813" y="13.43407" transform="rotate(-0 44.052813 13.43407)">accuracy</text>
   </g>
   <g id="text_2">
    <text style="font-size: 8.5px; font-family: 'Arial'; text-anchor: end" x="44.052813" y="49.057164" transform="rotate(-0 44.052813 49.057164)">labels</text>
   </g>
   <g id="text_3">
    <text style="font-size: 8.5px; font-family: 'Arial'; text-anchor: end" x="44.052813" y="109.885048" transform="rotate(-0 44.052813 109.885048)">prediction</text>
   </g>
   <g id="text_4">
    <text style="font-size: 8px; font-family: 'Arial'; text-anchor: middle" x="69.053214" y="148.694088" transform="rotate(-0 69.053214 148.694088)">15 secs</text>
   </g>
   <g id="text_5">
    <text style="font-size: 9px; font-family: 'Arial'; text-anchor: middle" x="331.549416" y="149.40987" transform="rotate(-0 331.549416 149.40987)">videos</text>
   </g>
  </g>
 </g>
 <defs>
  <clipPath id="p80ae0f4dbe">
   <rect x="46.899314" y="7.2" width="569.300206" height="142.580561"/>
  </clipPath>
 </defs>
</svg>
