<?xml version="1.0" encoding="utf-8" standalone="no"?>
<!DOCTYPE svg PUBLIC "-//W3C//DTD SVG 1.1//EN"
  "http://www.w3.org/Graphics/SVG/1.1/DTD/svg11.dtd">
<svg xmlns:xlink="http://www.w3.org/1999/xlink" width="637.799519pt" height="172.79862pt" viewBox="0 0 637.799519 172.79862" xmlns="http://www.w3.org/2000/svg" version="1.1">
 <metadata>
  <rdf:RDF xmlns:dc="http://purl.org/dc/elements/1.1/" xmlns:cc="http://creativecommons.org/ns#" xmlns:rdf="http://www.w3.org/1999/02/22-rdf-syntax-ns#">
   <cc:Work>
    <dc:type rdf:resource="http://purl.org/dc/dcmitype/StillImage"/>
    <dc:date>2026-05-13T18:22:38.270919</dc:date>
    <dc:format>image/svg+xml</dc:format>
    <dc:creator>
     <cc:Agent>
      <dc:title>Matplotlib v3.10.9, https://matplotlib.org/</dc:title>
     </cc:Agent>
    </dc:creator>
   </cc:Work>
  </rdf:RDF>
 </metadata>
 <defs>
  <style type="text/css">*{stroke-linejoin: round; stroke-linecap: butt}</style>
 </defs>
 <g id="figure_1">
  <g id="patch_1">
   <path d="M 0 172.79862 
L 637.799519 172.79862 
L 637.799519 0 
L 0 0 
z
" style="fill: #ffffff"/>
  </g>
  <g id="axes_1">
   <g id="patch_2">
    <path d="M 54.099314 156.980561 
L 623.399519 156.980561 
L 623.399519 14.4 
L 54.099314 14.4 
z
" style="fill: #ffffff"/>
   </g>
   <g id="patch_3">
    <path d="M 54.337946 30.945185 
L 98.168481 30.945185 
L 98.168481 26.565577 
L 54.337946 26.565577 
z
" clip-path="url(#p670771713d)" style="fill: #ebeced"/>
   </g>
   <g id="patch_4">
    <path d="M 54.337946 91.773069 
L 98.168481 91.773069 
L 98.168481 87.393461 
L 54.337946 87.393461 
z
" clip-path="url(#p670771713d)" style="fill: #ebeced"/>
   </g>
   <g id="patch_5">
    <path d="M 54.337946 37.271285 
L 98.168481 37.271285 
L 98.168481 32.891677 
L 54.337946 32.891677 
z
" clip-path="url(#p670771713d)" style="fill: #ebeced"/>
   </g>
   <g id="patch_6">
    <path d="M 54.337946 98.099169 
L 98.168481 98.099169 
L 98.168481 93.719561 
L 54.337946 93.719561 
z
" clip-path="url(#p670771713d)" style="fill: #ebeced"/>
   </g>
   <g id="patch_7">
    <path d="M 54.337946 43.597385 
L 98.168481 43.597385 
L 98.168481 39.217777 
L 54.337946 39.217777 
z
" clip-path="url(#p670771713d)" style="fill: #ebeced"/>
   </g>
   <g id="patch_8">
    <path d="M 54.337946 104.425269 
L 98.168481 104.425269 
L 98.168481 100.045661 
L 54.337946 100.045661 
z
" clip-path="url(#p670771713d)" style="fill: #ebeced"/>
   </g>
   <g id="patch_9">
    <path d="M 54.337946 49.923485 
L 98.168481 49.923485 
L 98.168481 45.543877 
L 54.337946 45.543877 
z
" clip-path="url(#p670771713d)" style="fill: #ebeced"/>
   </g>
   <g id="patch_10">
    <path d="M 54.337946 110.751369 
L 98.168481 110.751369 
L 98.168481 106.371761 
L 54.337946 106.371761 
z
" clip-path="url(#p670771713d)" style="fill: #ebeced"/>
   </g>
   <g id="patch_11">
    <path d="M 54.337946 56.249585 
L 98.168481 56.249585 
L 98.168481 51.869977 
L 54.337946 51.869977 
z
" clip-path="url(#p670771713d)" style="fill: #ebeced"/>
   </g>
   <g id="patch_12">
    <path d="M 54.337946 117.077469 
L 98.168481 117.077469 
L 98.168481 112.697861 
L 54.337946 112.697861 
z
" clip-path="url(#p670771713d)" style="fill: #ebeced"/>
   </g>
   <g id="patch_13">
    <path d="M 54.337946 62.575685 
L 98.168481 62.575685 
L 98.168481 58.196077 
L 54.337946 58.196077 
z
" clip-path="url(#p670771713d)" style="fill: #ebeced"/>
   </g>
   <g id="patch_14">
    <path d="M 54.337946 123.403569 
L 98.168481 123.403569 
L 98.168481 119.023961 
L 54.337946 119.023961 
z
" clip-path="url(#p670771713d)" style="fill: #ebeced"/>
   </g>
   <g id="patch_15">
    <path d="M 54.337946 68.901785 
L 98.168481 68.901785 
L 98.168481 64.522177 
L 54.337946 64.522177 
z
" clip-path="url(#p670771713d)" style="fill: #ebeced"/>
   </g>
   <g id="patch_16">
    <path d="M 54.337946 129.729669 
L 98.168481 129.729669 
L 98.168481 125.350061 
L 54.337946 125.350061 
z
" clip-path="url(#p670771713d)" style="fill: #ebeced"/>
   </g>
   <g id="patch_17">
    <path d="M 54.337946 75.227885 
L 98.168481 75.227885 
L 98.168481 70.848277 
L 54.337946 70.848277 
z
" clip-path="url(#p670771713d)" style="fill: #ebeced"/>
   </g>
   <g id="patch_18">
    <path d="M 54.337946 136.055769 
L 98.168481 136.055769 
L 98.168481 131.676161 
L 54.337946 131.676161 
z
" clip-path="url(#p670771713d)" style="fill: #ebeced"/>
   </g>
   <g id="patch_19">
    <path d="M 54.337946 81.553985 
L 98.168481 81.553985 
L 98.168481 77.174377 
L 54.337946 77.174377 
z
" clip-path="url(#p670771713d)" style="fill: #ebeced"/>
   </g>
   <g id="patch_20">
    <path d="M 54.337946 142.381869 
L 98.168481 142.381869 
L 98.168481 138.002261 
L 54.337946 138.002261 
z
" clip-path="url(#p670771713d)" style="fill: #ebeced"/>
   </g>
   <g id="patch_21">
    <path d="M 54.337946 20.7261 
L 98.168481 20.7261 
L 98.168481 16.346492 
L 54.337946 16.346492 
z
" clip-path="url(#p670771713d)" style="fill: #ebeced"/>
   </g>
   <g id="patch_22">
    <path d="M 102.064529 30.945185 
L 145.895063 30.945185 
L 145.895063 26.565577 
L 102.064529 26.565577 
z
" clip-path="url(#p670771713d)" style="fill: #ebeced"/>
   </g>
   <g id="patch_23">
    <path d="M 102.064529 91.773069 
L 145.895063 91.773069 
L 145.895063 87.393461 
L 102.064529 87.393461 
z
" clip-path="url(#p670771713d)" style="fill: #ebeced"/>
   </g>
   <g id="patch_24">
    <path d="M 102.064529 37.271285 
L 145.895063 37.271285 
L 145.895063 32.891677 
L 102.064529 32.891677 
z
" clip-path="url(#p670771713d)" style="fill: #ebeced"/>
   </g>
   <g id="patch_25">
    <path d="M 102.064529 98.099169 
L 145.895063 98.099169 
L 145.895063 93.719561 
L 102.064529 93.719561 
z
" clip-path="url(#p670771713d)" style="fill: #ebeced"/>
   </g>
   <g id="patch_26">
    <path d="M 102.064529 43.597385 
L 145.895063 43.597385 
L 145.895063 39.217777 
L 102.064529 39.217777 
z
" clip-path="url(#p670771713d)" style="fill: #ebeced"/>
   </g>
   <g id="patch_27">
    <path d="M 102.064529 104.425269 
L 145.895063 104.425269 
L 145.895063 100.045661 
L 102.064529 100.045661 
z
" clip-path="url(#p670771713d)" style="fill: #ebeced"/>
   </g>
   <g id="patch_28">
    <path d="M 102.064529 49.923485 
L 145.895063 49.923485 
L 145.895063 45.543877 
L 102.064529 45.543877 
z
" clip-path="url(#p670771713d)" style="fill: #ebeced"/>
   </g>
   <g id="patch_29">
    <path d="M 102.064529 110.751369 
L 145.895063 110.751369 
L 145.895063 106.371761 
L 102.064529 106.371761 
z
" clip-path="url(#p670771713d)" style="fill: #ebeced"/>
   </g>
   <g id="patch_30">
    <path d="M 102.064529 56.249585 
L 145.895063 56.249585 
L 145.895063 51.869977 
L 102.064529 51.869977 
z
" clip-path="url(#p670771713d)" style="fill: #ebeced"/>
   </g>
   <g id="patch_31">
    <path d="M 102.064529 117.077469 
L 145.895063 117.077469 
L 145.895063 112.697861 
L 102.064529 112.697861 
z
" clip-path="url(#p670771713d)" style="fill: #ebeced"/>
   </g>
   <g id="patch_32">
    <path d="M 102.064529 62.575685 
L 145.895063 62.575685 
L 145.895063 58.196077 
L 102.064529 58.196077 
z
" clip-path="url(#p670771713d)" style="fill: #ebeced"/>
   </g>
   <g id="patch_33">
    <path d="M 102.064529 123.403569 
L 145.895063 123.403569 
L 145.895063 119.023961 
L 102.064529 119.023961 
z
" clip-path="url(#p670771713d)" style="fill: #ebeced"/>
   </g>
   <g id="patch_34">
    <path d="M 102.064529 68.901785 
L 145.895063 68.901785 
L 145.895063 64.522177 
L 102.064529 64.522177 
z
" clip-path="url(#p670771713d)" style="fill: #ebeced"/>
   </g>
   <g id="patch_35">
    <path d="M 102.064529 129.729669 
L 145.895063 129.729669 
L 145.895063 125.350061 
L 102.064529 125.350061 
z
" clip-path="url(#p670771713d)" style="fill: #ebeced"/>
   </g>
   <g id="patch_36">
    <path d="M 102.064529 75.227885 
L 145.895063 75.227885 
L 145.895063 70.848277 
L 102.064529 70.848277 
z
" clip-path="url(#p670771713d)" style="fill: #ebeced"/>
   </g>
   <g id="patch_37">
    <path d="M 102.064529 136.055769 
L 145.895063 136.055769 
L 145.895063 131.676161 
L 102.064529 131.676161 
z
" clip-path="url(#p670771713d)" style="fill: #ebeced"/>
   </g>
   <g id="patch_38">
    <path d="M 102.064529 81.553985 
L 145.895063 81.553985 
L 145.895063 77.174377 
L 102.064529 77.174377 
z
" clip-path="url(#p670771713d)" style="fill: #ebeced"/>
   </g>
   <g id="patch_39">
    <path d="M 102.064529 142.381869 
L 145.895063 142.381869 
L 145.895063 138.002261 
L 102.064529 138.002261 
z
" clip-path="url(#p670771713d)" style="fill: #ebeced"/>
   </g>
   <g id="patch_40">
    <path d="M 102.064529 20.7261 
L 145.895063 20.7261 
L 145.895063 16.346492 
L 102.064529 16.346492 
z
" clip-path="url(#p670771713d)" style="fill: #ebeced"/>
   </g>
   <g id="patch_41">
    <path d="M 149.791111 30.945185 
L 193.621646 30.945185 
L 193.621646 26.565577 
L 149.791111 26.565577 
z
" clip-path="url(#p670771713d)" style="fill: #ebeced"/>
   </g>
   <g id="patch_42">
    <path d="M 149.791111 91.773069 
L 193.621646 91.773069 
L 193.621646 87.393461 
L 149.791111 87.393461 
z
" clip-path="url(#p670771713d)" style="fill: #ebeced"/>
   </g>
   <g id="patch_43">
    <path d="M 149.791111 37.271285 
L 193.621646 37.271285 
L 193.621646 32.891677 
L 149.791111 32.891677 
z
" clip-path="url(#p670771713d)" style="fill: #ebeced"/>
   </g>
   <g id="patch_44">
    <path d="M 149.791111 98.099169 
L 193.621646 98.099169 
L 193.621646 93.719561 
L 149.791111 93.719561 
z
" clip-path="url(#p670771713d)" style="fill: #ebeced"/>
   </g>
   <g id="patch_45">
    <path d="M 149.791111 43.597385 
L 193.621646 43.597385 
L 193.621646 39.217777 
L 149.791111 39.217777 
z
" clip-path="url(#p670771713d)" style="fill: #ebeced"/>
   </g>
   <g id="patch_46">
    <path d="M 149.791111 104.425269 
L 193.621646 104.425269 
L 193.621646 100.045661 
L 149.791111 100.045661 
z
" clip-path="url(#p670771713d)" style="fill: #ebeced"/>
   </g>
   <g id="patch_47">
    <path d="M 149.791111 49.923485 
L 193.621646 49.923485 
L 193.621646 45.543877 
L 149.791111 45.543877 
z
" clip-path="url(#p670771713d)" style="fill: #ebeced"/>
   </g>
   <g id="patch_48">
    <path d="M 149.791111 110.751369 
L 193.621646 110.751369 
L 193.621646 106.371761 
L 149.791111 106.371761 
z
" clip-path="url(#p670771713d)" style="fill: #ebeced"/>
   </g>
   <g id="patch_49">
    <path d="M 149.791111 56.249585 
L 193.621646 56.249585 
L 193.621646 51.869977 
L 149.791111 51.869977 
z
" clip-path="url(#p670771713d)" style="fill: #ebeced"/>
   </g>
   <g id="patch_50">
    <path d="M 149.791111 117.077469 
L 193.621646 117.077469 
L 193.621646 112.697861 
L 149.791111 112.697861 
z
" clip-path="url(#p670771713d)" style="fill: #ebeced"/>
   </g>
   <g id="patch_51">
    <path d="M 149.791111 62.575685 
L 193.621646 62.575685 
L 193.621646 58.196077 
L 149.791111 58.196077 
z
" clip-path="url(#p670771713d)" style="fill: #ebeced"/>
   </g>
   <g id="patch_52">
    <path d="M 149.791111 123.403569 
L 193.621646 123.403569 
L 193.621646 119.023961 
L 149.791111 119.023961 
z
" clip-path="url(#p670771713d)" style="fill: #ebeced"/>
   </g>
   <g id="patch_53">
    <path d="M 149.791111 68.901785 
L 193.621646 68.901785 
L 193.621646 64.522177 
L 149.791111 64.522177 
z
" clip-path="url(#p670771713d)" style="fill: #ebeced"/>
   </g>
   <g id="patch_54">
    <path d="M 149.791111 129.729669 
L 193.621646 129.729669 
L 193.621646 125.350061 
L 149.791111 125.350061 
z
" clip-path="url(#p670771713d)" style="fill: #ebeced"/>
   </g>
   <g id="patch_55">
    <path d="M 149.791111 75.227885 
L 193.621646 75.227885 
L 193.621646 70.848277 
L 149.791111 70.848277 
z
" clip-path="url(#p670771713d)" style="fill: #ebeced"/>
   </g>
   <g id="patch_56">
    <path d="M 149.791111 136.055769 
L 193.621646 136.055769 
L 193.621646 131.676161 
L 149.791111 131.676161 
z
" clip-path="url(#p670771713d)" style="fill: #ebeced"/>
   </g>
   <g id="patch_57">
    <path d="M 149.791111 81.553985 
L 193.621646 81.553985 
L 193.621646 77.174377 
L 149.791111 77.174377 
z
" clip-path="url(#p670771713d)" style="fill: #ebeced"/>
   </g>
   <g id="patch_58">
    <path d="M 149.791111 142.381869 
L 193.621646 142.381869 
L 193.621646 138.002261 
L 149.791111 138.002261 
z
" clip-path="url(#p670771713d)" style="fill: #ebeced"/>
   </g>
   <g id="patch_59">
    <path d="M 149.791111 20.7261 
L 193.621646 20.7261 
L 193.621646 16.346492 
L 149.791111 16.346492 
z
" clip-path="url(#p670771713d)" style="fill: #ebeced"/>
   </g>
   <g id="patch_60">
    <path d="M 197.517693 30.945185 
L 241.348228 30.945185 
L 241.348228 26.565577 
L 197.517693 26.565577 
z
" clip-path="url(#p670771713d)" style="fill: #ebeced"/>
   </g>
   <g id="patch_61">
    <path d="M 197.517693 91.773069 
L 241.348228 91.773069 
L 241.348228 87.393461 
L 197.517693 87.393461 
z
" clip-path="url(#p670771713d)" style="fill: #ebeced"/>
   </g>
   <g id="patch_62">
    <path d="M 197.517693 37.271285 
L 241.348228 37.271285 
L 241.348228 32.891677 
L 197.517693 32.891677 
z
" clip-path="url(#p670771713d)" style="fill: #ebeced"/>
   </g>
   <g id="patch_63">
    <path d="M 197.517693 98.099169 
L 241.348228 98.099169 
L 241.348228 93.719561 
L 197.517693 93.719561 
z
" clip-path="url(#p670771713d)" style="fill: #ebeced"/>
   </g>
   <g id="patch_64">
    <path d="M 197.517693 43.597385 
L 241.348228 43.597385 
L 241.348228 39.217777 
L 197.517693 39.217777 
z
" clip-path="url(#p670771713d)" style="fill: #ebeced"/>
   </g>
   <g id="patch_65">
    <path d="M 197.517693 104.425269 
L 241.348228 104.425269 
L 241.348228 100.045661 
L 197.517693 100.045661 
z
" clip-path="url(#p670771713d)" style="fill: #ebeced"/>
   </g>
   <g id="patch_66">
    <path d="M 197.517693 49.923485 
L 241.348228 49.923485 
L 241.348228 45.543877 
L 197.517693 45.543877 
z
" clip-path="url(#p670771713d)" style="fill: #ebeced"/>
   </g>
   <g id="patch_67">
    <path d="M 197.517693 110.751369 
L 241.348228 110.751369 
L 241.348228 106.371761 
L 197.517693 106.371761 
z
" clip-path="url(#p670771713d)" style="fill: #ebeced"/>
   </g>
   <g id="patch_68">
    <path d="M 197.517693 56.249585 
L 241.348228 56.249585 
L 241.348228 51.869977 
L 197.517693 51.869977 
z
" clip-path="url(#p670771713d)" style="fill: #ebeced"/>
   </g>
   <g id="patch_69">
    <path d="M 197.517693 117.077469 
L 241.348228 117.077469 
L 241.348228 112.697861 
L 197.517693 112.697861 
z
" clip-path="url(#p670771713d)" style="fill: #ebeced"/>
   </g>
   <g id="patch_70">
    <path d="M 197.517693 62.575685 
L 241.348228 62.575685 
L 241.348228 58.196077 
L 197.517693 58.196077 
z
" clip-path="url(#p670771713d)" style="fill: #ebeced"/>
   </g>
   <g id="patch_71">
    <path d="M 197.517693 123.403569 
L 241.348228 123.403569 
L 241.348228 119.023961 
L 197.517693 119.023961 
z
" clip-path="url(#p670771713d)" style="fill: #ebeced"/>
   </g>
   <g id="patch_72">
    <path d="M 197.517693 68.901785 
L 241.348228 68.901785 
L 241.348228 64.522177 
L 197.517693 64.522177 
z
" clip-path="url(#p670771713d)" style="fill: #ebeced"/>
   </g>
   <g id="patch_73">
    <path d="M 197.517693 129.729669 
L 241.348228 129.729669 
L 241.348228 125.350061 
L 197.517693 125.350061 
z
" clip-path="url(#p670771713d)" style="fill: #ebeced"/>
   </g>
   <g id="patch_74">
    <path d="M 197.517693 75.227885 
L 241.348228 75.227885 
L 241.348228 70.848277 
L 197.517693 70.848277 
z
" clip-path="url(#p670771713d)" style="fill: #ebeced"/>
   </g>
   <g id="patch_75">
    <path d="M 197.517693 136.055769 
L 241.348228 136.055769 
L 241.348228 131.676161 
L 197.517693 131.676161 
z
" clip-path="url(#p670771713d)" style="fill: #ebeced"/>
   </g>
   <g id="patch_76">
    <path d="M 197.517693 81.553985 
L 241.348228 81.553985 
L 241.348228 77.174377 
L 197.517693 77.174377 
z
" clip-path="url(#p670771713d)" style="fill: #ebeced"/>
   </g>
   <g id="patch_77">
    <path d="M 197.517693 142.381869 
L 241.348228 142.381869 
L 241.348228 138.002261 
L 197.517693 138.002261 
z
" clip-path="url(#p670771713d)" style="fill: #ebeced"/>
   </g>
   <g id="patch_78">
    <path d="M 197.517693 20.7261 
L 241.348228 20.7261 
L 241.348228 16.346492 
L 197.517693 16.346492 
z
" clip-path="url(#p670771713d)" style="fill: #ebeced"/>
   </g>
   <g id="patch_79">
    <path d="M 245.244276 30.945185 
L 289.07481 30.945185 
L 289.07481 26.565577 
L 245.244276 26.565577 
z
" clip-path="url(#p670771713d)" style="fill: #ebeced"/>
   </g>
   <g id="patch_80">
    <path d="M 245.244276 91.773069 
L 289.07481 91.773069 
L 289.07481 87.393461 
L 245.244276 87.393461 
z
" clip-path="url(#p670771713d)" style="fill: #ebeced"/>
   </g>
   <g id="patch_81">
    <path d="M 245.244276 37.271285 
L 289.07481 37.271285 
L 289.07481 32.891677 
L 245.244276 32.891677 
z
" clip-path="url(#p670771713d)" style="fill: #ebeced"/>
   </g>
   <g id="patch_82">
    <path d="M 245.244276 98.099169 
L 289.07481 98.099169 
L 289.07481 93.719561 
L 245.244276 93.719561 
z
" clip-path="url(#p670771713d)" style="fill: #ebeced"/>
   </g>
   <g id="patch_83">
    <path d="M 245.244276 43.597385 
L 289.07481 43.597385 
L 289.07481 39.217777 
L 245.244276 39.217777 
z
" clip-path="url(#p670771713d)" style="fill: #ebeced"/>
   </g>
   <g id="patch_84">
    <path d="M 245.244276 104.425269 
L 289.07481 104.425269 
L 289.07481 100.045661 
L 245.244276 100.045661 
z
" clip-path="url(#p670771713d)" style="fill: #ebeced"/>
   </g>
   <g id="patch_85">
    <path d="M 245.244276 49.923485 
L 289.07481 49.923485 
L 289.07481 45.543877 
L 245.244276 45.543877 
z
" clip-path="url(#p670771713d)" style="fill: #ebeced"/>
   </g>
   <g id="patch_86">
    <path d="M 245.244276 110.751369 
L 289.07481 110.751369 
L 289.07481 106.371761 
L 245.244276 106.371761 
z
" clip-path="url(#p670771713d)" style="fill: #ebeced"/>
   </g>
   <g id="patch_87">
    <path d="M 245.244276 56.249585 
L 289.07481 56.249585 
L 289.07481 51.869977 
L 245.244276 51.869977 
z
" clip-path="url(#p670771713d)" style="fill: #ebeced"/>
   </g>
   <g id="patch_88">
    <path d="M 245.244276 117.077469 
L 289.07481 117.077469 
L 289.07481 112.697861 
L 245.244276 112.697861 
z
" clip-path="url(#p670771713d)" style="fill: #ebeced"/>
   </g>
   <g id="patch_89">
    <path d="M 245.244276 62.575685 
L 289.07481 62.575685 
L 289.07481 58.196077 
L 245.244276 58.196077 
z
" clip-path="url(#p670771713d)" style="fill: #ebeced"/>
   </g>
   <g id="patch_90">
    <path d="M 245.244276 123.403569 
L 289.07481 123.403569 
L 289.07481 119.023961 
L 245.244276 119.023961 
z
" clip-path="url(#p670771713d)" style="fill: #ebeced"/>
   </g>
   <g id="patch_91">
    <path d="M 245.244276 68.901785 
L 289.07481 68.901785 
L 289.07481 64.522177 
L 245.244276 64.522177 
z
" clip-path="url(#p670771713d)" style="fill: #ebeced"/>
   </g>
   <g id="patch_92">
    <path d="M 245.244276 129.729669 
L 289.07481 129.729669 
L 289.07481 125.350061 
L 245.244276 125.350061 
z
" clip-path="url(#p670771713d)" style="fill: #ebeced"/>
   </g>
   <g id="patch_93">
    <path d="M 245.244276 75.227885 
L 289.07481 75.227885 
L 289.07481 70.848277 
L 245.244276 70.848277 
z
" clip-path="url(#p670771713d)" style="fill: #ebeced"/>
   </g>
   <g id="patch_94">
    <path d="M 245.244276 136.055769 
L 289.07481 136.055769 
L 289.07481 131.676161 
L 245.244276 131.676161 
z
" clip-path="url(#p670771713d)" style="fill: #ebeced"/>
   </g>
   <g id="patch_95">
    <path d="M 245.244276 81.553985 
L 289.07481 81.553985 
L 289.07481 77.174377 
L 245.244276 77.174377 
z
" clip-path="url(#p670771713d)" style="fill: #ebeced"/>
   </g>
   <g id="patch_96">
    <path d="M 245.244276 142.381869 
L 289.07481 142.381869 
L 289.07481 138.002261 
L 245.244276 138.002261 
z
" clip-path="url(#p670771713d)" style="fill: #ebeced"/>
   </g>
   <g id="patch_97">
    <path d="M 245.244276 20.7261 
L 289.07481 20.7261 
L 289.07481 16.346492 
L 245.244276 16.346492 
z
" clip-path="url(#p670771713d)" style="fill: #ebeced"/>
   </g>
   <g id="patch_98">
    <path d="M 292.970858 30.945185 
L 336.801393 30.945185 
L 336.801393 26.565577 
L 292.970858 26.565577 
z
" clip-path="url(#p670771713d)" style="fill: #ebeced"/>
   </g>
   <g id="patch_99">
    <path d="M 292.970858 91.773069 
L 336.801393 91.773069 
L 336.801393 87.393461 
L 292.970858 87.393461 
z
" clip-path="url(#p670771713d)" style="fill: #ebeced"/>
   </g>
   <g id="patch_100">
    <path d="M 292.970858 37.271285 
L 336.801393 37.271285 
L 336.801393 32.891677 
L 292.970858 32.891677 
z
" clip-path="url(#p670771713d)" style="fill: #ebeced"/>
   </g>
   <g id="patch_101">
    <path d="M 292.970858 98.099169 
L 336.801393 98.099169 
L 336.801393 93.719561 
L 292.970858 93.719561 
z
" clip-path="url(#p670771713d)" style="fill: #ebeced"/>
   </g>
   <g id="patch_102">
    <path d="M 292.970858 43.597385 
L 336.801393 43.597385 
L 336.801393 39.217777 
L 292.970858 39.217777 
z
" clip-path="url(#p670771713d)" style="fill: #ebeced"/>
   </g>
   <g id="patch_103">
    <path d="M 292.970858 104.425269 
L 336.801393 104.425269 
L 336.801393 100.045661 
L 292.970858 100.045661 
z
" clip-path="url(#p670771713d)" style="fill: #ebeced"/>
   </g>
   <g id="patch_104">
    <path d="M 292.970858 49.923485 
L 336.801393 49.923485 
L 336.801393 45.543877 
L 292.970858 45.543877 
z
" clip-path="url(#p670771713d)" style="fill: #ebeced"/>
   </g>
   <g id="patch_105">
    <path d="M 292.970858 110.751369 
L 336.801393 110.751369 
L 336.801393 106.371761 
L 292.970858 106.371761 
z
" clip-path="url(#p670771713d)" style="fill: #ebeced"/>
   </g>
   <g id="patch_106">
    <path d="M 292.970858 56.249585 
L 336.801393 56.249585 
L 336.801393 51.869977 
L 292.970858 51.869977 
z
" clip-path="url(#p670771713d)" style="fill: #ebeced"/>
   </g>
   <g id="patch_107">
    <path d="M 292.970858 117.077469 
L 336.801393 117.077469 
L 336.801393 112.697861 
L 292.970858 112.697861 
z
" clip-path="url(#p670771713d)" style="fill: #ebeced"/>
   </g>
   <g id="patch_108">
    <path d="M 292.970858 62.575685 
L 336.801393 62.575685 
L 336.801393 58.196077 
L 292.970858 58.196077 
z
" clip-path="url(#p670771713d)" style="fill: #ebeced"/>
   </g>
   <g id="patch_109">
    <path d="M 292.970858 123.403569 
L 336.801393 123.403569 
L 336.801393 119.023961 
L 292.970858 119.023961 
z
" clip-path="url(#p670771713d)" style="fill: #ebeced"/>
   </g>
   <g id="patch_110">
    <path d="M 292.970858 68.901785 
L 336.801393 68.901785 
L 336.801393 64.522177 
L 292.970858 64.522177 
z
" clip-path="url(#p670771713d)" style="fill: #ebeced"/>
   </g>
   <g id="patch_111">
    <path d="M 292.970858 129.729669 
L 336.801393 129.729669 
L 336.801393 125.350061 
L 292.970858 125.350061 
z
" clip-path="url(#p670771713d)" style="fill: #ebeced"/>
   </g>
   <g id="patch_112">
    <path d="M 292.970858 75.227885 
L 336.801393 75.227885 
L 336.801393 70.848277 
L 292.970858 70.848277 
z
" clip-path="url(#p670771713d)" style="fill: #ebeced"/>
   </g>
   <g id="patch_113">
    <path d="M 292.970858 136.055769 
L 336.801393 136.055769 
L 336.801393 131.676161 
L 292.970858 131.676161 
z
" clip-path="url(#p670771713d)" style="fill: #ebeced"/>
   </g>
   <g id="patch_114">
    <path d="M 292.970858 81.553985 
L 336.801393 81.553985 
L 336.801393 77.174377 
L 292.970858 77.174377 
z
" clip-path="url(#p670771713d)" style="fill: #ebeced"/>
   </g>
   <g id="patch_115">
    <path d="M 292.970858 142.381869 
L 336.801393 142.381869 
L 336.801393 138.002261 
L 292.970858 138.002261 
z
" clip-path="url(#p670771713d)" style="fill: #ebeced"/>
   </g>
   <g id="patch_116">
    <path d="M 292.970858 20.7261 
L 336.801393 20.7261 
L 336.801393 16.346492 
L 292.970858 16.346492 
z
" clip-path="url(#p670771713d)" style="fill: #ebeced"/>
   </g>
   <g id="patch_117">
    <path d="M 340.69744 30.945185 
L 384.527975 30.945185 
L 384.527975 26.565577 
L 340.69744 26.565577 
z
" clip-path="url(#p670771713d)" style="fill: #ebeced"/>
   </g>
   <g id="patch_118">
    <path d="M 340.69744 91.773069 
L 384.527975 91.773069 
L 384.527975 87.393461 
L 340.69744 87.393461 
z
" clip-path="url(#p670771713d)" style="fill: #ebeced"/>
   </g>
   <g id="patch_119">
    <path d="M 340.69744 37.271285 
L 384.527975 37.271285 
L 384.527975 32.891677 
L 340.69744 32.891677 
z
" clip-path="url(#p670771713d)" style="fill: #ebeced"/>
   </g>
   <g id="patch_120">
    <path d="M 340.69744 98.099169 
L 384.527975 98.099169 
L 384.527975 93.719561 
L 340.69744 93.719561 
z
" clip-path="url(#p670771713d)" style="fill: #ebeced"/>
   </g>
   <g id="patch_121">
    <path d="M 340.69744 43.597385 
L 384.527975 43.597385 
L 384.527975 39.217777 
L 340.69744 39.217777 
z
" clip-path="url(#p670771713d)" style="fill: #ebeced"/>
   </g>
   <g id="patch_122">
    <path d="M 340.69744 104.425269 
L 384.527975 104.425269 
L 384.527975 100.045661 
L 340.69744 100.045661 
z
" clip-path="url(#p670771713d)" style="fill: #ebeced"/>
   </g>
   <g id="patch_123">
    <path d="M 340.69744 49.923485 
L 384.527975 49.923485 
L 384.527975 45.543877 
L 340.69744 45.543877 
z
" clip-path="url(#p670771713d)" style="fill: #ebeced"/>
   </g>
   <g id="patch_124">
    <path d="M 340.69744 110.751369 
L 384.527975 110.751369 
L 384.527975 106.371761 
L 340.69744 106.371761 
z
" clip-path="url(#p670771713d)" style="fill: #ebeced"/>
   </g>
   <g id="patch_125">
    <path d="M 340.69744 56.249585 
L 384.527975 56.249585 
L 384.527975 51.869977 
L 340.69744 51.869977 
z
" clip-path="url(#p670771713d)" style="fill: #ebeced"/>
   </g>
   <g id="patch_126">
    <path d="M 340.69744 117.077469 
L 384.527975 117.077469 
L 384.527975 112.697861 
L 340.69744 112.697861 
z
" clip-path="url(#p670771713d)" style="fill: #ebeced"/>
   </g>
   <g id="patch_127">
    <path d="M 340.69744 62.575685 
L 384.527975 62.575685 
L 384.527975 58.196077 
L 340.69744 58.196077 
z
" clip-path="url(#p670771713d)" style="fill: #ebeced"/>
   </g>
   <g id="patch_128">
    <path d="M 340.69744 123.403569 
L 384.527975 123.403569 
L 384.527975 119.023961 
L 340.69744 119.023961 
z
" clip-path="url(#p670771713d)" style="fill: #ebeced"/>
   </g>
   <g id="patch_129">
    <path d="M 340.69744 68.901785 
L 384.527975 68.901785 
L 384.527975 64.522177 
L 340.69744 64.522177 
z
" clip-path="url(#p670771713d)" style="fill: #ebeced"/>
   </g>
   <g id="patch_130">
    <path d="M 340.69744 129.729669 
L 384.527975 129.729669 
L 384.527975 125.350061 
L 340.69744 125.350061 
z
" clip-path="url(#p670771713d)" style="fill: #ebeced"/>
   </g>
   <g id="patch_131">
    <path d="M 340.69744 75.227885 
L 384.527975 75.227885 
L 384.527975 70.848277 
L 340.69744 70.848277 
z
" clip-path="url(#p670771713d)" style="fill: #ebeced"/>
   </g>
   <g id="patch_132">
    <path d="M 340.69744 136.055769 
L 384.527975 136.055769 
L 384.527975 131.676161 
L 340.69744 131.676161 
z
" clip-path="url(#p670771713d)" style="fill: #ebeced"/>
   </g>
   <g id="patch_133">
    <path d="M 340.69744 81.553985 
L 384.527975 81.553985 
L 384.527975 77.174377 
L 340.69744 77.174377 
z
" clip-path="url(#p670771713d)" style="fill: #ebeced"/>
   </g>
   <g id="patch_134">
    <path d="M 340.69744 142.381869 
L 384.527975 142.381869 
L 384.527975 138.002261 
L 340.69744 138.002261 
z
" clip-path="url(#p670771713d)" style="fill: #ebeced"/>
   </g>
   <g id="patch_135">
    <path d="M 340.69744 20.7261 
L 384.527975 20.7261 
L 384.527975 16.346492 
L 340.69744 16.346492 
z
" clip-path="url(#p670771713d)" style="fill: #ebeced"/>
   </g>
   <g id="patch_136">
    <path d="M 388.424022 30.945185 
L 432.254557 30.945185 
L 432.254557 26.565577 
L 388.424022 26.565577 
z
" clip-path="url(#p670771713d)" style="fill: #ebeced"/>
   </g>
   <g id="patch_137">
    <path d="M 388.424022 91.773069 
L 432.254557 91.773069 
L 432.254557 87.393461 
L 388.424022 87.393461 
z
" clip-path="url(#p670771713d)" style="fill: #ebeced"/>
   </g>
   <g id="patch_138">
    <path d="M 388.424022 37.271285 
L 432.254557 37.271285 
L 432.254557 32.891677 
L 388.424022 32.891677 
z
" clip-path="url(#p670771713d)" style="fill: #ebeced"/>
   </g>
   <g id="patch_139">
    <path d="M 388.424022 98.099169 
L 432.254557 98.099169 
L 432.254557 93.719561 
L 388.424022 93.719561 
z
" clip-path="url(#p670771713d)" style="fill: #ebeced"/>
   </g>
   <g id="patch_140">
    <path d="M 388.424022 43.597385 
L 432.254557 43.597385 
L 432.254557 39.217777 
L 388.424022 39.217777 
z
" clip-path="url(#p670771713d)" style="fill: #ebeced"/>
   </g>
   <g id="patch_141">
    <path d="M 388.424022 104.425269 
L 432.254557 104.425269 
L 432.254557 100.045661 
L 388.424022 100.045661 
z
" clip-path="url(#p670771713d)" style="fill: #ebeced"/>
   </g>
   <g id="patch_142">
    <path d="M 388.424022 49.923485 
L 432.254557 49.923485 
L 432.254557 45.543877 
L 388.424022 45.543877 
z
" clip-path="url(#p670771713d)" style="fill: #ebeced"/>
   </g>
   <g id="patch_143">
    <path d="M 388.424022 110.751369 
L 432.254557 110.751369 
L 432.254557 106.371761 
L 388.424022 106.371761 
z
" clip-path="url(#p670771713d)" style="fill: #ebeced"/>
   </g>
   <g id="patch_144">
    <path d="M 388.424022 56.249585 
L 432.254557 56.249585 
L 432.254557 51.869977 
L 388.424022 51.869977 
z
" clip-path="url(#p670771713d)" style="fill: #ebeced"/>
   </g>
   <g id="patch_145">
    <path d="M 388.424022 117.077469 
L 432.254557 117.077469 
L 432.254557 112.697861 
L 388.424022 112.697861 
z
" clip-path="url(#p670771713d)" style="fill: #ebeced"/>
   </g>
   <g id="patch_146">
    <path d="M 388.424022 62.575685 
L 432.254557 62.575685 
L 432.254557 58.196077 
L 388.424022 58.196077 
z
" clip-path="url(#p670771713d)" style="fill: #ebeced"/>
   </g>
   <g id="patch_147">
    <path d="M 388.424022 123.403569 
L 432.254557 123.403569 
L 432.254557 119.023961 
L 388.424022 119.023961 
z
" clip-path="url(#p670771713d)" style="fill: #ebeced"/>
   </g>
   <g id="patch_148">
    <path d="M 388.424022 68.901785 
L 432.254557 68.901785 
L 432.254557 64.522177 
L 388.424022 64.522177 
z
" clip-path="url(#p670771713d)" style="fill: #ebeced"/>
   </g>
   <g id="patch_149">
    <path d="M 388.424022 129.729669 
L 432.254557 129.729669 
L 432.254557 125.350061 
L 388.424022 125.350061 
z
" clip-path="url(#p670771713d)" style="fill: #ebeced"/>
   </g>
   <g id="patch_150">
    <path d="M 388.424022 75.227885 
L 432.254557 75.227885 
L 432.254557 70.848277 
L 388.424022 70.848277 
z
" clip-path="url(#p670771713d)" style="fill: #ebeced"/>
   </g>
   <g id="patch_151">
    <path d="M 388.424022 136.055769 
L 432.254557 136.055769 
L 432.254557 131.676161 
L 388.424022 131.676161 
z
" clip-path="url(#p670771713d)" style="fill: #ebeced"/>
   </g>
   <g id="patch_152">
    <path d="M 388.424022 81.553985 
L 432.254557 81.553985 
L 432.254557 77.174377 
L 388.424022 77.174377 
z
" clip-path="url(#p670771713d)" style="fill: #ebeced"/>
   </g>
   <g id="patch_153">
    <path d="M 388.424022 142.381869 
L 432.254557 142.381869 
L 432.254557 138.002261 
L 388.424022 138.002261 
z
" clip-path="url(#p670771713d)" style="fill: #ebeced"/>
   </g>
   <g id="patch_154">
    <path d="M 388.424022 20.7261 
L 432.254557 20.7261 
L 432.254557 16.346492 
L 388.424022 16.346492 
z
" clip-path="url(#p670771713d)" style="fill: #ebeced"/>
   </g>
   <g id="patch_155">
    <path d="M 436.150605 30.945185 
L 479.981139 30.945185 
L 479.981139 26.565577 
L 436.150605 26.565577 
z
" clip-path="url(#p670771713d)" style="fill: #ebeced"/>
   </g>
   <g id="patch_156">
    <path d="M 436.150605 91.773069 
L 479.981139 91.773069 
L 479.981139 87.393461 
L 436.150605 87.393461 
z
" clip-path="url(#p670771713d)" style="fill: #ebeced"/>
   </g>
   <g id="patch_157">
    <path d="M 436.150605 37.271285 
L 479.981139 37.271285 
L 479.981139 32.891677 
L 436.150605 32.891677 
z
" clip-path="url(#p670771713d)" style="fill: #ebeced"/>
   </g>
   <g id="patch_158">
    <path d="M 436.150605 98.099169 
L 479.981139 98.099169 
L 479.981139 93.719561 
L 436.150605 93.719561 
z
" clip-path="url(#p670771713d)" style="fill: #ebeced"/>
   </g>
   <g id="patch_159">
    <path d="M 436.150605 43.597385 
L 479.981139 43.597385 
L 479.981139 39.217777 
L 436.150605 39.217777 
z
" clip-path="url(#p670771713d)" style="fill: #ebeced"/>
   </g>
   <g id="patch_160">
    <path d="M 436.150605 104.425269 
L 479.981139 104.425269 
L 479.981139 100.045661 
L 436.150605 100.045661 
z
" clip-path="url(#p670771713d)" style="fill: #ebeced"/>
   </g>
   <g id="patch_161">
    <path d="M 436.150605 49.923485 
L 479.981139 49.923485 
L 479.981139 45.543877 
L 436.150605 45.543877 
z
" clip-path="url(#p670771713d)" style="fill: #ebeced"/>
   </g>
   <g id="patch_162">
    <path d="M 436.150605 110.751369 
L 479.981139 110.751369 
L 479.981139 106.371761 
L 436.150605 106.371761 
z
" clip-path="url(#p670771713d)" style="fill: #ebeced"/>
   </g>
   <g id="patch_163">
    <path d="M 436.150605 56.249585 
L 479.981139 56.249585 
L 479.981139 51.869977 
L 436.150605 51.869977 
z
" clip-path="url(#p670771713d)" style="fill: #ebeced"/>
   </g>
   <g id="patch_164">
    <path d="M 436.150605 117.077469 
L 479.981139 117.077469 
L 479.981139 112.697861 
L 436.150605 112.697861 
z
" clip-path="url(#p670771713d)" style="fill: #ebeced"/>
   </g>
   <g id="patch_165">
    <path d="M 436.150605 62.575685 
L 479.981139 62.575685 
L 479.981139 58.196077 
L 436.150605 58.196077 
z
" clip-path="url(#p670771713d)" style="fill: #ebeced"/>
   </g>
   <g id="patch_166">
    <path d="M 436.150605 123.403569 
L 479.981139 123.403569 
L 479.981139 119.023961 
L 436.150605 119.023961 
z
" clip-path="url(#p670771713d)" style="fill: #ebeced"/>
   </g>
   <g id="patch_167">
    <path d="M 436.150605 68.901785 
L 479.981139 68.901785 
L 479.981139 64.522177 
L 436.150605 64.522177 
z
" clip-path="url(#p670771713d)" style="fill: #ebeced"/>
   </g>
   <g id="patch_168">
    <path d="M 436.150605 129.729669 
L 479.981139 129.729669 
L 479.981139 125.350061 
L 436.150605 125.350061 
z
" clip-path="url(#p670771713d)" style="fill: #ebeced"/>
   </g>
   <g id="patch_169">
    <path d="M 436.150605 75.227885 
L 479.981139 75.227885 
L 479.981139 70.848277 
L 436.150605 70.848277 
z
" clip-path="url(#p670771713d)" style="fill: #ebeced"/>
   </g>
   <g id="patch_170">
    <path d="M 436.150605 136.055769 
L 479.981139 136.055769 
L 479.981139 131.676161 
L 436.150605 131.676161 
z
" clip-path="url(#p670771713d)" style="fill: #ebeced"/>
   </g>
   <g id="patch_171">
    <path d="M 436.150605 81.553985 
L 479.981139 81.553985 
L 479.981139 77.174377 
L 436.150605 77.174377 
z
" clip-path="url(#p670771713d)" style="fill: #ebeced"/>
   </g>
   <g id="patch_172">
    <path d="M 436.150605 142.381869 
L 479.981139 142.381869 
L 479.981139 138.002261 
L 436.150605 138.002261 
z
" clip-path="url(#p670771713d)" style="fill: #ebeced"/>
   </g>
   <g id="patch_173">
    <path d="M 436.150605 20.7261 
L 479.981139 20.7261 
L 479.981139 16.346492 
L 436.150605 16.346492 
z
" clip-path="url(#p670771713d)" style="fill: #ebeced"/>
   </g>
   <g id="patch_174">
    <path d="M 483.877187 30.945185 
L 527.707722 30.945185 
L 527.707722 26.565577 
L 483.877187 26.565577 
z
" clip-path="url(#p670771713d)" style="fill: #ebeced"/>
   </g>
   <g id="patch_175">
    <path d="M 483.877187 91.773069 
L 527.707722 91.773069 
L 527.707722 87.393461 
L 483.877187 87.393461 
z
" clip-path="url(#p670771713d)" style="fill: #ebeced"/>
   </g>
   <g id="patch_176">
    <path d="M 483.877187 37.271285 
L 527.707722 37.271285 
L 527.707722 32.891677 
L 483.877187 32.891677 
z
" clip-path="url(#p670771713d)" style="fill: #ebeced"/>
   </g>
   <g id="patch_177">
    <path d="M 483.877187 98.099169 
L 527.707722 98.099169 
L 527.707722 93.719561 
L 483.877187 93.719561 
z
" clip-path="url(#p670771713d)" style="fill: #ebeced"/>
   </g>
   <g id="patch_178">
    <path d="M 483.877187 43.597385 
L 527.707722 43.597385 
L 527.707722 39.217777 
L 483.877187 39.217777 
z
" clip-path="url(#p670771713d)" style="fill: #ebeced"/>
   </g>
   <g id="patch_179">
    <path d="M 483.877187 104.425269 
L 527.707722 104.425269 
L 527.707722 100.045661 
L 483.877187 100.045661 
z
" clip-path="url(#p670771713d)" style="fill: #ebeced"/>
   </g>
   <g id="patch_180">
    <path d="M 483.877187 49.923485 
L 527.707722 49.923485 
L 527.707722 45.543877 
L 483.877187 45.543877 
z
" clip-path="url(#p670771713d)" style="fill: #ebeced"/>
   </g>
   <g id="patch_181">
    <path d="M 483.877187 110.751369 
L 527.707722 110.751369 
L 527.707722 106.371761 
L 483.877187 106.371761 
z
" clip-path="url(#p670771713d)" style="fill: #ebeced"/>
   </g>
   <g id="patch_182">
    <path d="M 483.877187 56.249585 
L 527.707722 56.249585 
L 527.707722 51.869977 
L 483.877187 51.869977 
z
" clip-path="url(#p670771713d)" style="fill: #ebeced"/>
   </g>
   <g id="patch_183">
    <path d="M 483.877187 117.077469 
L 527.707722 117.077469 
L 527.707722 112.697861 
L 483.877187 112.697861 
z
" clip-path="url(#p670771713d)" style="fill: #ebeced"/>
   </g>
   <g id="patch_184">
    <path d="M 483.877187 62.575685 
L 527.707722 62.575685 
L 527.707722 58.196077 
L 483.877187 58.196077 
z
" clip-path="url(#p670771713d)" style="fill: #ebeced"/>
   </g>
   <g id="patch_185">
    <path d="M 483.877187 123.403569 
L 527.707722 123.403569 
L 527.707722 119.023961 
L 483.877187 119.023961 
z
" clip-path="url(#p670771713d)" style="fill: #ebeced"/>
   </g>
   <g id="patch_186">
    <path d="M 483.877187 68.901785 
L 527.707722 68.901785 
L 527.707722 64.522177 
L 483.877187 64.522177 
z
" clip-path="url(#p670771713d)" style="fill: #ebeced"/>
   </g>
   <g id="patch_187">
    <path d="M 483.877187 129.729669 
L 527.707722 129.729669 
L 527.707722 125.350061 
L 483.877187 125.350061 
z
" clip-path="url(#p670771713d)" style="fill: #ebeced"/>
   </g>
   <g id="patch_188">
    <path d="M 483.877187 75.227885 
L 527.707722 75.227885 
L 527.707722 70.848277 
L 483.877187 70.848277 
z
" clip-path="url(#p670771713d)" style="fill: #ebeced"/>
   </g>
   <g id="patch_189">
    <path d="M 483.877187 136.055769 
L 527.707722 136.055769 
L 527.707722 131.676161 
L 483.877187 131.676161 
z
" clip-path="url(#p670771713d)" style="fill: #ebeced"/>
   </g>
   <g id="patch_190">
    <path d="M 483.877187 81.553985 
L 527.707722 81.553985 
L 527.707722 77.174377 
L 483.877187 77.174377 
z
" clip-path="url(#p670771713d)" style="fill: #ebeced"/>
   </g>
   <g id="patch_191">
    <path d="M 483.877187 142.381869 
L 527.707722 142.381869 
L 527.707722 138.002261 
L 483.877187 138.002261 
z
" clip-path="url(#p670771713d)" style="fill: #ebeced"/>
   </g>
   <g id="patch_192">
    <path d="M 483.877187 20.7261 
L 527.707722 20.7261 
L 527.707722 16.346492 
L 483.877187 16.346492 
z
" clip-path="url(#p670771713d)" style="fill: #ebeced"/>
   </g>
   <g id="patch_193">
    <path d="M 531.603769 30.945185 
L 575.434304 30.945185 
L 575.434304 26.565577 
L 531.603769 26.565577 
z
" clip-path="url(#p670771713d)" style="fill: #ebeced"/>
   </g>
   <g id="patch_194">
    <path d="M 531.603769 91.773069 
L 575.434304 91.773069 
L 575.434304 87.393461 
L 531.603769 87.393461 
z
" clip-path="url(#p670771713d)" style="fill: #ebeced"/>
   </g>
   <g id="patch_195">
    <path d="M 531.603769 37.271285 
L 575.434304 37.271285 
L 575.434304 32.891677 
L 531.603769 32.891677 
z
" clip-path="url(#p670771713d)" style="fill: #ebeced"/>
   </g>
   <g id="patch_196">
    <path d="M 531.603769 98.099169 
L 575.434304 98.099169 
L 575.434304 93.719561 
L 531.603769 93.719561 
z
" clip-path="url(#p670771713d)" style="fill: #ebeced"/>
   </g>
   <g id="patch_197">
    <path d="M 531.603769 43.597385 
L 575.434304 43.597385 
L 575.434304 39.217777 
L 531.603769 39.217777 
z
" clip-path="url(#p670771713d)" style="fill: #ebeced"/>
   </g>
   <g id="patch_198">
    <path d="M 531.603769 104.425269 
L 575.434304 104.425269 
L 575.434304 100.045661 
L 531.603769 100.045661 
z
" clip-path="url(#p670771713d)" style="fill: #ebeced"/>
   </g>
   <g id="patch_199">
    <path d="M 531.603769 49.923485 
L 575.434304 49.923485 
L 575.434304 45.543877 
L 531.603769 45.543877 
z
" clip-path="url(#p670771713d)" style="fill: #ebeced"/>
   </g>
   <g id="patch_200">
    <path d="M 531.603769 110.751369 
L 575.434304 110.751369 
L 575.434304 106.371761 
L 531.603769 106.371761 
z
" clip-path="url(#p670771713d)" style="fill: #ebeced"/>
   </g>
   <g id="patch_201">
    <path d="M 531.603769 56.249585 
L 575.434304 56.249585 
L 575.434304 51.869977 
L 531.603769 51.869977 
z
" clip-path="url(#p670771713d)" style="fill: #ebeced"/>
   </g>
   <g id="patch_202">
    <path d="M 531.603769 117.077469 
L 575.434304 117.077469 
L 575.434304 112.697861 
L 531.603769 112.697861 
z
" clip-path="url(#p670771713d)" style="fill: #ebeced"/>
   </g>
   <g id="patch_203">
    <path d="M 531.603769 62.575685 
L 575.434304 62.575685 
L 575.434304 58.196077 
L 531.603769 58.196077 
z
" clip-path="url(#p670771713d)" style="fill: #ebeced"/>
   </g>
   <g id="patch_204">
    <path d="M 531.603769 123.403569 
L 575.434304 123.403569 
L 575.434304 119.023961 
L 531.603769 119.023961 
z
" clip-path="url(#p670771713d)" style="fill: #ebeced"/>
   </g>
   <g id="patch_205">
    <path d="M 531.603769 68.901785 
L 575.434304 68.901785 
L 575.434304 64.522177 
L 531.603769 64.522177 
z
" clip-path="url(#p670771713d)" style="fill: #ebeced"/>
   </g>
   <g id="patch_206">
    <path d="M 531.603769 129.729669 
L 575.434304 129.729669 
L 575.434304 125.350061 
L 531.603769 125.350061 
z
" clip-path="url(#p670771713d)" style="fill: #ebeced"/>
   </g>
   <g id="patch_207">
    <path d="M 531.603769 75.227885 
L 575.434304 75.227885 
L 575.434304 70.848277 
L 531.603769 70.848277 
z
" clip-path="url(#p670771713d)" style="fill: #ebeced"/>
   </g>
   <g id="patch_208">
    <path d="M 531.603769 136.055769 
L 575.434304 136.055769 
L 575.434304 131.676161 
L 531.603769 131.676161 
z
" clip-path="url(#p670771713d)" style="fill: #ebeced"/>
   </g>
   <g id="patch_209">
    <path d="M 531.603769 81.553985 
L 575.434304 81.553985 
L 575.434304 77.174377 
L 531.603769 77.174377 
z
" clip-path="url(#p670771713d)" style="fill: #ebeced"/>
   </g>
   <g id="patch_210">
    <path d="M 531.603769 142.381869 
L 575.434304 142.381869 
L 575.434304 138.002261 
L 531.603769 138.002261 
z
" clip-path="url(#p670771713d)" style="fill: #ebeced"/>
   </g>
   <g id="patch_211">
    <path d="M 531.603769 20.7261 
L 575.434304 20.7261 
L 575.434304 16.346492 
L 531.603769 16.346492 
z
" clip-path="url(#p670771713d)" style="fill: #ebeced"/>
   </g>
   <g id="patch_212">
    <path d="M 579.330351 30.945185 
L 623.160886 30.945185 
L 623.160886 26.565577 
L 579.330351 26.565577 
z
" clip-path="url(#p670771713d)" style="fill: #ebeced"/>
   </g>
   <g id="patch_213">
    <path d="M 579.330351 91.773069 
L 623.160886 91.773069 
L 623.160886 87.393461 
L 579.330351 87.393461 
z
" clip-path="url(#p670771713d)" style="fill: #ebeced"/>
   </g>
   <g id="patch_214">
    <path d="M 579.330351 37.271285 
L 623.160886 37.271285 
L 623.160886 32.891677 
L 579.330351 32.891677 
z
" clip-path="url(#p670771713d)" style="fill: #ebeced"/>
   </g>
   <g id="patch_215">
    <path d="M 579.330351 98.099169 
L 623.160886 98.099169 
L 623.160886 93.719561 
L 579.330351 93.719561 
z
" clip-path="url(#p670771713d)" style="fill: #ebeced"/>
   </g>
   <g id="patch_216">
    <path d="M 579.330351 43.597385 
L 623.160886 43.597385 
L 623.160886 39.217777 
L 579.330351 39.217777 
z
" clip-path="url(#p670771713d)" style="fill: #ebeced"/>
   </g>
   <g id="patch_217">
    <path d="M 579.330351 104.425269 
L 623.160886 104.425269 
L 623.160886 100.045661 
L 579.330351 100.045661 
z
" clip-path="url(#p670771713d)" style="fill: #ebeced"/>
   </g>
   <g id="patch_218">
    <path d="M 579.330351 49.923485 
L 623.160886 49.923485 
L 623.160886 45.543877 
L 579.330351 45.543877 
z
" clip-path="url(#p670771713d)" style="fill: #ebeced"/>
   </g>
   <g id="patch_219">
    <path d="M 579.330351 110.751369 
L 623.160886 110.751369 
L 623.160886 106.371761 
L 579.330351 106.371761 
z
" clip-path="url(#p670771713d)" style="fill: #ebeced"/>
   </g>
   <g id="patch_220">
    <path d="M 579.330351 56.249585 
L 623.160886 56.249585 
L 623.160886 51.869977 
L 579.330351 51.869977 
z
" clip-path="url(#p670771713d)" style="fill: #ebeced"/>
   </g>
   <g id="patch_221">
    <path d="M 579.330351 117.077469 
L 623.160886 117.077469 
L 623.160886 112.697861 
L 579.330351 112.697861 
z
" clip-path="url(#p670771713d)" style="fill: #ebeced"/>
   </g>
   <g id="patch_222">
    <path d="M 579.330351 62.575685 
L 623.160886 62.575685 
L 623.160886 58.196077 
L 579.330351 58.196077 
z
" clip-path="url(#p670771713d)" style="fill: #ebeced"/>
   </g>
   <g id="patch_223">
    <path d="M 579.330351 123.403569 
L 623.160886 123.403569 
L 623.160886 119.023961 
L 579.330351 119.023961 
z
" clip-path="url(#p670771713d)" style="fill: #ebeced"/>
   </g>
   <g id="patch_224">
    <path d="M 579.330351 68.901785 
L 623.160886 68.901785 
L 623.160886 64.522177 
L 579.330351 64.522177 
z
" clip-path="url(#p670771713d)" style="fill: #ebeced"/>
   </g>
   <g id="patch_225">
    <path d="M 579.330351 129.729669 
L 623.160886 129.729669 
L 623.160886 125.350061 
L 579.330351 125.350061 
z
" clip-path="url(#p670771713d)" style="fill: #ebeced"/>
   </g>
   <g id="patch_226">
    <path d="M 579.330351 75.227885 
L 623.160886 75.227885 
L 623.160886 70.848277 
L 579.330351 70.848277 
z
" clip-path="url(#p670771713d)" style="fill: #ebeced"/>
   </g>
   <g id="patch_227">
    <path d="M 579.330351 136.055769 
L 623.160886 136.055769 
L 623.160886 131.676161 
L 579.330351 131.676161 
z
" clip-path="url(#p670771713d)" style="fill: #ebeced"/>
   </g>
   <g id="patch_228">
    <path d="M 579.330351 81.553985 
L 623.160886 81.553985 
L 623.160886 77.174377 
L 579.330351 77.174377 
z
" clip-path="url(#p670771713d)" style="fill: #ebeced"/>
   </g>
   <g id="patch_229">
    <path d="M 579.330351 142.381869 
L 623.160886 142.381869 
L 623.160886 138.002261 
L 579.330351 138.002261 
z
" clip-path="url(#p670771713d)" style="fill: #ebeced"/>
   </g>
   <g id="patch_230">
    <path d="M 579.330351 20.7261 
L 623.160886 20.7261 
L 623.160886 16.346492 
L 579.330351 16.346492 
z
" clip-path="url(#p670771713d)" style="fill: #ebeced"/>
   </g>
   <g id="matplotlib.axis_1"/>
   <g id="matplotlib.axis_2"/>
   <g id="patch_231">
    <path d="M 54.337946 56.249585 
L 98.168481 56.249585 
L 98.168481 51.869977 
L 54.337946 51.869977 
z
" clip-path="url(#p670771713d)" style="fill: #e36aae"/>
   </g>
   <g id="patch_232">
    <path d="M 54.337946 117.077469 
L 98.168481 117.077469 
L 98.168481 112.697861 
L 54.337946 112.697861 
z
" clip-path="url(#p670771713d)" style="fill: #e36aae"/>
   </g>
   <g id="patch_233">
    <path d="M 102.064529 75.227885 
L 145.895063 75.227885 
L 145.895063 70.848277 
L 102.064529 70.848277 
z
" clip-path="url(#p670771713d)" style="fill: #dbdc8d"/>
   </g>
   <g id="patch_234">
    <path d="M 102.064529 136.055769 
L 145.895063 136.055769 
L 145.895063 131.676161 
L 102.064529 131.676161 
z
" clip-path="url(#p670771713d)" style="fill: #dbdc8d"/>
   </g>
   <g id="patch_235">
    <path d="M 149.791111 56.249585 
L 193.621646 56.249585 
L 193.621646 51.869977 
L 149.791111 51.869977 
z
" clip-path="url(#p670771713d)" style="fill: #e36aae"/>
   </g>
   <g id="patch_236">
    <path d="M 149.791111 117.077469 
L 193.621646 117.077469 
L 193.621646 112.697861 
L 149.791111 112.697861 
z
" clip-path="url(#p670771713d)" style="fill: #e36aae"/>
   </g>
   <g id="patch_237">
    <path d="M 198.735208 30.945185 
L 199.343966 30.945185 
L 199.343966 26.565577 
L 198.735208 26.565577 
z
" clip-path="url(#p670771713d)" style="fill: #1f5aa6"/>
   </g>
   <g id="patch_238">
    <path d="M 200.926735 30.945185 
L 205.309788 30.945185 
L 205.309788 26.565577 
L 200.926735 26.565577 
z
" clip-path="url(#p670771713d)" style="fill: #1f5aa6"/>
   </g>
   <g id="patch_239">
    <path d="M 197.517693 91.773069 
L 205.309788 91.773069 
L 205.309788 87.393461 
L 197.517693 87.393461 
z
" clip-path="url(#p670771713d)" style="fill: #1f5aa6"/>
   </g>
   <g id="patch_240">
    <path d="M 197.517693 75.227885 
L 198.735208 75.227885 
L 198.735208 70.848277 
L 197.517693 70.848277 
z
" clip-path="url(#p670771713d)" style="fill: #dbdc8d"/>
   </g>
   <g id="patch_241">
    <path d="M 199.343966 75.227885 
L 200.926735 75.227885 
L 200.926735 70.848277 
L 199.343966 70.848277 
z
" clip-path="url(#p670771713d)" style="fill: #dbdc8d"/>
   </g>
   <g id="patch_242">
    <path d="M 205.309788 75.227885 
L 241.348228 75.227885 
L 241.348228 70.848277 
L 205.309788 70.848277 
z
" clip-path="url(#p670771713d)" style="fill: #dbdc8d"/>
   </g>
   <g id="patch_243">
    <path d="M 205.309788 136.055769 
L 241.348228 136.055769 
L 241.348228 131.676161 
L 205.309788 131.676161 
z
" clip-path="url(#p670771713d)" style="fill: #dbdc8d"/>
   </g>
   <g id="patch_244">
    <path d="M 197.517693 20.7261 
L 198.735208 20.7261 
L 198.735208 16.346492 
L 197.517693 16.346492 
z
" clip-path="url(#p670771713d)" style="fill: #1f5aa6"/>
   </g>
   <g id="patch_245">
    <path d="M 199.343966 20.7261 
L 200.926735 20.7261 
L 200.926735 16.346492 
L 199.343966 16.346492 
z
" clip-path="url(#p670771713d)" style="fill: #1f5aa6"/>
   </g>
   <g id="patch_246">
    <path d="M 283.839496 30.945185 
L 289.07481 30.945185 
L 289.07481 26.565577 
L 283.839496 26.565577 
z
" clip-path="url(#p670771713d)" style="fill: #1f5aa6"/>
   </g>
   <g id="patch_247">
    <path d="M 277.751922 91.773069 
L 280.308703 91.773069 
L 280.308703 87.393461 
L 277.751922 87.393461 
z
" clip-path="url(#p670771713d)" style="fill: #1f5aa6"/>
   </g>
   <g id="patch_248">
    <path d="M 283.35249 91.773069 
L 283.595993 91.773069 
L 283.595993 87.393461 
L 283.35249 87.393461 
z
" clip-path="url(#p670771713d)" style="fill: #1f5aa6"/>
   </g>
   <g id="patch_249">
    <path d="M 283.717745 91.773069 
L 289.07481 91.773069 
L 289.07481 87.393461 
L 283.717745 87.393461 
z
" clip-path="url(#p670771713d)" style="fill: #1f5aa6"/>
   </g>
   <g id="patch_250">
    <path d="M 247.557554 123.403569 
L 247.679305 123.403569 
L 247.679305 119.023961 
L 247.557554 119.023961 
z
" clip-path="url(#p670771713d)" style="fill: #a7a9ac"/>
   </g>
   <g id="patch_251">
    <path d="M 247.801057 123.403569 
L 248.288063 123.403569 
L 248.288063 119.023961 
L 247.801057 119.023961 
z
" clip-path="url(#p670771713d)" style="fill: #a7a9ac"/>
   </g>
   <g id="patch_252">
    <path d="M 248.531566 123.403569 
L 249.140323 123.403569 
L 249.140323 119.023961 
L 248.531566 119.023961 
z
" clip-path="url(#p670771713d)" style="fill: #a7a9ac"/>
   </g>
   <g id="patch_253">
    <path d="M 278.725934 75.227885 
L 283.839496 75.227885 
L 283.839496 70.848277 
L 278.725934 70.848277 
z
" clip-path="url(#p670771713d)" style="fill: #dbdc8d"/>
   </g>
   <g id="patch_254">
    <path d="M 280.308703 136.055769 
L 283.35249 136.055769 
L 283.35249 131.676161 
L 280.308703 131.676161 
z
" clip-path="url(#p670771713d)" style="fill: #dbdc8d"/>
   </g>
   <g id="patch_255">
    <path d="M 283.595993 136.055769 
L 283.717745 136.055769 
L 283.717745 131.676161 
L 283.595993 131.676161 
z
" clip-path="url(#p670771713d)" style="fill: #dbdc8d"/>
   </g>
   <g id="patch_256">
    <path d="M 245.244276 81.553985 
L 278.725934 81.553985 
L 278.725934 77.174377 
L 245.244276 77.174377 
z
" clip-path="url(#p670771713d)" style="fill: #9edae6"/>
   </g>
   <g id="patch_257">
    <path d="M 245.244276 142.381869 
L 247.557554 142.381869 
L 247.557554 138.002261 
L 245.244276 138.002261 
z
" clip-path="url(#p670771713d)" style="fill: #9edae6"/>
   </g>
   <g id="patch_258">
    <path d="M 247.679305 142.381869 
L 247.801057 142.381869 
L 247.801057 138.002261 
L 247.679305 138.002261 
z
" clip-path="url(#p670771713d)" style="fill: #9edae6"/>
   </g>
   <g id="patch_259">
    <path d="M 248.288063 142.381869 
L 248.531566 142.381869 
L 248.531566 138.002261 
L 248.288063 138.002261 
z
" clip-path="url(#p670771713d)" style="fill: #9edae6"/>
   </g>
   <g id="patch_260">
    <path d="M 249.140323 142.381869 
L 277.751922 142.381869 
L 277.751922 138.002261 
L 249.140323 138.002261 
z
" clip-path="url(#p670771713d)" style="fill: #9edae6"/>
   </g>
   <g id="patch_261">
    <path d="M 247.557554 20.7261 
L 247.679305 20.7261 
L 247.679305 16.346492 
L 247.557554 16.346492 
z
" clip-path="url(#p670771713d)" style="fill: #a7a9ac"/>
   </g>
   <g id="patch_262">
    <path d="M 247.801057 20.7261 
L 248.288063 20.7261 
L 248.288063 16.346492 
L 247.801057 16.346492 
z
" clip-path="url(#p670771713d)" style="fill: #a7a9ac"/>
   </g>
   <g id="patch_263">
    <path d="M 248.531566 20.7261 
L 249.140323 20.7261 
L 249.140323 16.346492 
L 248.531566 16.346492 
z
" clip-path="url(#p670771713d)" style="fill: #a7a9ac"/>
   </g>
   <g id="patch_264">
    <path d="M 277.751922 20.7261 
L 280.308703 20.7261 
L 280.308703 16.346492 
L 277.751922 16.346492 
z
" clip-path="url(#p670771713d)" style="fill: #1f5aa6"/>
   </g>
   <g id="patch_265">
    <path d="M 283.35249 20.7261 
L 283.595993 20.7261 
L 283.595993 16.346492 
L 283.35249 16.346492 
z
" clip-path="url(#p670771713d)" style="fill: #1f5aa6"/>
   </g>
   <g id="patch_266">
    <path d="M 283.717745 20.7261 
L 283.839496 20.7261 
L 283.839496 16.346492 
L 283.717745 16.346492 
z
" clip-path="url(#p670771713d)" style="fill: #1f5aa6"/>
   </g>
   <g id="patch_267">
    <path d="M 312.694598 30.945185 
L 312.81635 30.945185 
L 312.81635 26.565577 
L 312.694598 26.565577 
z
" clip-path="url(#p670771713d)" style="fill: #1f5aa6"/>
   </g>
   <g id="patch_268">
    <path d="M 324.139238 91.773069 
L 327.061274 91.773069 
L 327.061274 87.393461 
L 324.139238 87.393461 
z
" clip-path="url(#p670771713d)" style="fill: #1f5aa6"/>
   </g>
   <g id="patch_269">
    <path d="M 327.183025 91.773069 
L 327.426528 91.773069 
L 327.426528 87.393461 
L 327.183025 87.393461 
z
" clip-path="url(#p670771713d)" style="fill: #1f5aa6"/>
   </g>
   <g id="patch_270">
    <path d="M 332.540091 75.227885 
L 336.801393 75.227885 
L 336.801393 70.848277 
L 332.540091 70.848277 
z
" clip-path="url(#p670771713d)" style="fill: #dbdc8d"/>
   </g>
   <g id="patch_271">
    <path d="M 292.970858 81.553985 
L 312.694598 81.553985 
L 312.694598 77.174377 
L 292.970858 77.174377 
z
" clip-path="url(#p670771713d)" style="fill: #9edae6"/>
   </g>
   <g id="patch_272">
    <path d="M 312.81635 81.553985 
L 332.540091 81.553985 
L 332.540091 77.174377 
L 312.81635 77.174377 
z
" clip-path="url(#p670771713d)" style="fill: #9edae6"/>
   </g>
   <g id="patch_273">
    <path d="M 292.970858 142.381869 
L 324.139238 142.381869 
L 324.139238 138.002261 
L 292.970858 138.002261 
z
" clip-path="url(#p670771713d)" style="fill: #9edae6"/>
   </g>
   <g id="patch_274">
    <path d="M 327.061274 142.381869 
L 327.183025 142.381869 
L 327.183025 138.002261 
L 327.061274 138.002261 
z
" clip-path="url(#p670771713d)" style="fill: #9edae6"/>
   </g>
   <g id="patch_275">
    <path d="M 327.426528 142.381869 
L 336.801393 142.381869 
L 336.801393 138.002261 
L 327.426528 138.002261 
z
" clip-path="url(#p670771713d)" style="fill: #9edae6"/>
   </g>
   <g id="patch_276">
    <path d="M 312.694598 20.7261 
L 312.81635 20.7261 
L 312.81635 16.346492 
L 312.694598 16.346492 
z
" clip-path="url(#p670771713d)" style="fill: #9edae6"/>
   </g>
   <g id="patch_277">
    <path d="M 324.139238 20.7261 
L 327.061274 20.7261 
L 327.061274 16.346492 
L 324.139238 16.346492 
z
" clip-path="url(#p670771713d)" style="fill: #1f5aa6"/>
   </g>
   <g id="patch_278">
    <path d="M 327.183025 20.7261 
L 327.426528 20.7261 
L 327.426528 16.346492 
L 327.183025 16.346492 
z
" clip-path="url(#p670771713d)" style="fill: #1f5aa6"/>
   </g>
   <g id="patch_279">
    <path d="M 332.540091 20.7261 
L 336.801393 20.7261 
L 336.801393 16.346492 
L 332.540091 16.346492 
z
" clip-path="url(#p670771713d)" style="fill: #9edae6"/>
   </g>
   <g id="patch_280">
    <path d="M 366.995761 91.773069 
L 368.822033 91.773069 
L 368.822033 87.393461 
L 366.995761 87.393461 
z
" clip-path="url(#p670771713d)" style="fill: #1f5aa6"/>
   </g>
   <g id="patch_281">
    <path d="M 371.86582 91.773069 
L 375.761868 91.773069 
L 375.761868 87.393461 
L 371.86582 87.393461 
z
" clip-path="url(#p670771713d)" style="fill: #1f5aa6"/>
   </g>
   <g id="patch_282">
    <path d="M 372.352826 56.249585 
L 384.527975 56.249585 
L 384.527975 51.869977 
L 372.352826 51.869977 
z
" clip-path="url(#p670771713d)" style="fill: #e36aae"/>
   </g>
   <g id="patch_283">
    <path d="M 375.761868 117.077469 
L 384.527975 117.077469 
L 384.527975 112.697861 
L 375.761868 112.697861 
z
" clip-path="url(#p670771713d)" style="fill: #e36aae"/>
   </g>
   <g id="patch_284">
    <path d="M 340.69744 75.227885 
L 372.352826 75.227885 
L 372.352826 70.848277 
L 340.69744 70.848277 
z
" clip-path="url(#p670771713d)" style="fill: #dbdc8d"/>
   </g>
   <g id="patch_285">
    <path d="M 340.69744 136.055769 
L 366.995761 136.055769 
L 366.995761 131.676161 
L 340.69744 131.676161 
z
" clip-path="url(#p670771713d)" style="fill: #dbdc8d"/>
   </g>
   <g id="patch_286">
    <path d="M 368.822033 142.381869 
L 371.86582 142.381869 
L 371.86582 138.002261 
L 368.822033 138.002261 
z
" clip-path="url(#p670771713d)" style="fill: #9edae6"/>
   </g>
   <g id="patch_287">
    <path d="M 366.995761 20.7261 
L 375.761868 20.7261 
L 375.761868 16.346492 
L 366.995761 16.346492 
z
" clip-path="url(#p670771713d)" style="fill: #1f5aa6"/>
   </g>
   <g id="patch_288">
    <path d="M 396.216117 91.773069 
L 407.90426 91.773069 
L 407.90426 87.393461 
L 396.216117 87.393461 
z
" clip-path="url(#p670771713d)" style="fill: #1f5aa6"/>
   </g>
   <g id="patch_289">
    <path d="M 388.424022 68.901785 
L 432.254557 68.901785 
L 432.254557 64.522177 
L 388.424022 64.522177 
z
" clip-path="url(#p670771713d)" style="fill: #f2856e"/>
   </g>
   <g id="patch_290">
    <path d="M 388.424022 129.729669 
L 396.216117 129.729669 
L 396.216117 125.350061 
L 388.424022 125.350061 
z
" clip-path="url(#p670771713d)" style="fill: #f2856e"/>
   </g>
   <g id="patch_291">
    <path d="M 407.90426 129.729669 
L 432.254557 129.729669 
L 432.254557 125.350061 
L 407.90426 125.350061 
z
" clip-path="url(#p670771713d)" style="fill: #f2856e"/>
   </g>
   <g id="patch_292">
    <path d="M 396.216117 20.7261 
L 407.90426 20.7261 
L 407.90426 16.346492 
L 396.216117 16.346492 
z
" clip-path="url(#p670771713d)" style="fill: #1f5aa6"/>
   </g>
   <g id="patch_293">
    <path d="M 436.150605 91.773069 
L 437.489871 91.773069 
L 437.489871 87.393461 
L 436.150605 87.393461 
z
" clip-path="url(#p670771713d)" style="fill: #1f5aa6"/>
   </g>
   <g id="patch_294">
    <path d="M 467.684239 91.773069 
L 467.805991 91.773069 
L 467.805991 87.393461 
L 467.684239 87.393461 
z
" clip-path="url(#p670771713d)" style="fill: #1f5aa6"/>
   </g>
   <g id="patch_295">
    <path d="M 467.927742 91.773069 
L 470.728026 91.773069 
L 470.728026 87.393461 
L 467.927742 87.393461 
z
" clip-path="url(#p670771713d)" style="fill: #1f5aa6"/>
   </g>
   <g id="patch_296">
    <path d="M 470.849778 91.773069 
L 471.093281 91.773069 
L 471.093281 87.393461 
L 470.849778 87.393461 
z
" clip-path="url(#p670771713d)" style="fill: #1f5aa6"/>
   </g>
   <g id="patch_297">
    <path d="M 436.150605 75.227885 
L 479.981139 75.227885 
L 479.981139 70.848277 
L 436.150605 70.848277 
z
" clip-path="url(#p670771713d)" style="fill: #dbdc8d"/>
   </g>
   <g id="patch_298">
    <path d="M 437.489871 136.055769 
L 467.684239 136.055769 
L 467.684239 131.676161 
L 437.489871 131.676161 
z
" clip-path="url(#p670771713d)" style="fill: #dbdc8d"/>
   </g>
   <g id="patch_299">
    <path d="M 467.805991 136.055769 
L 467.927742 136.055769 
L 467.927742 131.676161 
L 467.805991 131.676161 
z
" clip-path="url(#p670771713d)" style="fill: #dbdc8d"/>
   </g>
   <g id="patch_300">
    <path d="M 470.728026 142.381869 
L 470.849778 142.381869 
L 470.849778 138.002261 
L 470.728026 138.002261 
z
" clip-path="url(#p670771713d)" style="fill: #9edae6"/>
   </g>
   <g id="patch_301">
    <path d="M 471.093281 142.381869 
L 479.981139 142.381869 
L 479.981139 138.002261 
L 471.093281 138.002261 
z
" clip-path="url(#p670771713d)" style="fill: #9edae6"/>
   </g>
   <g id="patch_302">
    <path d="M 436.150605 20.7261 
L 437.489871 20.7261 
L 437.489871 16.346492 
L 436.150605 16.346492 
z
" clip-path="url(#p670771713d)" style="fill: #1f5aa6"/>
   </g>
   <g id="patch_303">
    <path d="M 467.684239 20.7261 
L 467.805991 20.7261 
L 467.805991 16.346492 
L 467.684239 16.346492 
z
" clip-path="url(#p670771713d)" style="fill: #1f5aa6"/>
   </g>
   <g id="patch_304">
    <path d="M 467.927742 20.7261 
L 479.981139 20.7261 
L 479.981139 16.346492 
L 467.927742 16.346492 
z
" clip-path="url(#p670771713d)" style="fill: #9edae6"/>
   </g>
   <g id="patch_305">
    <path d="M 511.14952 91.773069 
L 512.245283 91.773069 
L 512.245283 87.393461 
L 511.14952 87.393461 
z
" clip-path="url(#p670771713d)" style="fill: #1f5aa6"/>
   </g>
   <g id="patch_306">
    <path d="M 485.703459 56.249585 
L 527.707722 56.249585 
L 527.707722 51.869977 
L 485.703459 51.869977 
z
" clip-path="url(#p670771713d)" style="fill: #e36aae"/>
   </g>
   <g id="patch_307">
    <path d="M 483.877187 117.077469 
L 511.14952 117.077469 
L 511.14952 112.697861 
L 483.877187 112.697861 
z
" clip-path="url(#p670771713d)" style="fill: #e36aae"/>
   </g>
   <g id="patch_308">
    <path d="M 512.245283 117.077469 
L 515.045567 117.077469 
L 515.045567 112.697861 
L 512.245283 112.697861 
z
" clip-path="url(#p670771713d)" style="fill: #e36aae"/>
   </g>
   <g id="patch_309">
    <path d="M 483.877187 75.227885 
L 485.703459 75.227885 
L 485.703459 70.848277 
L 483.877187 70.848277 
z
" clip-path="url(#p670771713d)" style="fill: #dbdc8d"/>
   </g>
   <g id="patch_310">
    <path d="M 515.045567 136.055769 
L 527.707722 136.055769 
L 527.707722 131.676161 
L 515.045567 131.676161 
z
" clip-path="url(#p670771713d)" style="fill: #dbdc8d"/>
   </g>
   <g id="patch_311">
    <path d="M 483.877187 20.7261 
L 485.703459 20.7261 
L 485.703459 16.346492 
L 483.877187 16.346492 
z
" clip-path="url(#p670771713d)" style="fill: #e36aae"/>
   </g>
   <g id="patch_312">
    <path d="M 511.14952 20.7261 
L 512.245283 20.7261 
L 512.245283 16.346492 
L 511.14952 16.346492 
z
" clip-path="url(#p670771713d)" style="fill: #1f5aa6"/>
   </g>
   <g id="patch_313">
    <path d="M 515.045567 20.7261 
L 527.707722 20.7261 
L 527.707722 16.346492 
L 515.045567 16.346492 
z
" clip-path="url(#p670771713d)" style="fill: #dbdc8d"/>
   </g>
   <g id="patch_314">
    <path d="M 575.312552 30.945185 
L 575.434304 30.945185 
L 575.434304 26.565577 
L 575.312552 26.565577 
z
" clip-path="url(#p670771713d)" style="fill: #1f5aa6"/>
   </g>
   <g id="patch_315">
    <path d="M 536.717332 91.773069 
L 537.934846 91.773069 
L 537.934846 87.393461 
L 536.717332 87.393461 
z
" clip-path="url(#p670771713d)" style="fill: #1f5aa6"/>
   </g>
   <g id="patch_316">
    <path d="M 539.395864 91.773069 
L 540.491628 91.773069 
L 540.491628 87.393461 
L 539.395864 87.393461 
z
" clip-path="url(#p670771713d)" style="fill: #1f5aa6"/>
   </g>
   <g id="patch_317">
    <path d="M 540.613379 91.773069 
L 540.735131 91.773069 
L 540.735131 87.393461 
L 540.613379 87.393461 
z
" clip-path="url(#p670771713d)" style="fill: #1f5aa6"/>
   </g>
   <g id="patch_318">
    <path d="M 549.74474 91.773069 
L 552.058019 91.773069 
L 552.058019 87.393461 
L 549.74474 87.393461 
z
" clip-path="url(#p670771713d)" style="fill: #1f5aa6"/>
   </g>
   <g id="patch_319">
    <path d="M 552.17977 91.773069 
L 552.666776 91.773069 
L 552.666776 87.393461 
L 552.17977 87.393461 
z
" clip-path="url(#p670771713d)" style="fill: #1f5aa6"/>
   </g>
   <g id="patch_320">
    <path d="M 552.910279 91.773069 
L 553.032031 91.773069 
L 553.032031 87.393461 
L 552.910279 87.393461 
z
" clip-path="url(#p670771713d)" style="fill: #1f5aa6"/>
   </g>
   <g id="patch_321">
    <path d="M 563.62441 91.773069 
L 563.989664 91.773069 
L 563.989664 87.393461 
L 563.62441 87.393461 
z
" clip-path="url(#p670771713d)" style="fill: #1f5aa6"/>
   </g>
   <g id="patch_322">
    <path d="M 564.111416 91.773069 
L 566.668197 91.773069 
L 566.668197 87.393461 
L 564.111416 87.393461 
z
" clip-path="url(#p670771713d)" style="fill: #1f5aa6"/>
   </g>
   <g id="patch_323">
    <path d="M 570.564244 91.773069 
L 575.434304 91.773069 
L 575.434304 87.393461 
L 570.564244 87.393461 
z
" clip-path="url(#p670771713d)" style="fill: #1f5aa6"/>
   </g>
   <g id="patch_324">
    <path d="M 538.543604 43.597385 
L 550.597001 43.597385 
L 550.597001 39.217777 
L 538.543604 39.217777 
z
" clip-path="url(#p670771713d)" style="fill: #e97f2e"/>
   </g>
   <g id="patch_325">
    <path d="M 557.90209 43.597385 
L 561.554635 43.597385 
L 561.554635 39.217777 
L 557.90209 39.217777 
z
" clip-path="url(#p670771713d)" style="fill: #e97f2e"/>
   </g>
   <g id="patch_326">
    <path d="M 561.676386 43.597385 
L 563.62441 43.597385 
L 563.62441 39.217777 
L 561.676386 39.217777 
z
" clip-path="url(#p670771713d)" style="fill: #e97f2e"/>
   </g>
   <g id="patch_327">
    <path d="M 537.934846 104.425269 
L 539.395864 104.425269 
L 539.395864 100.045661 
L 537.934846 100.045661 
z
" clip-path="url(#p670771713d)" style="fill: #e97f2e"/>
   </g>
   <g id="patch_328">
    <path d="M 540.491628 104.425269 
L 540.613379 104.425269 
L 540.613379 100.045661 
L 540.491628 100.045661 
z
" clip-path="url(#p670771713d)" style="fill: #e97f2e"/>
   </g>
   <g id="patch_329">
    <path d="M 540.735131 104.425269 
L 549.74474 104.425269 
L 549.74474 100.045661 
L 540.735131 100.045661 
z
" clip-path="url(#p670771713d)" style="fill: #e97f2e"/>
   </g>
   <g id="patch_330">
    <path d="M 557.658587 104.425269 
L 563.62441 104.425269 
L 563.62441 100.045661 
L 557.658587 100.045661 
z
" clip-path="url(#p670771713d)" style="fill: #e97f2e"/>
   </g>
   <g id="patch_331">
    <path d="M 563.989664 104.425269 
L 564.111416 104.425269 
L 564.111416 100.045661 
L 563.989664 100.045661 
z
" clip-path="url(#p670771713d)" style="fill: #e97f2e"/>
   </g>
   <g id="patch_332">
    <path d="M 531.603769 49.923485 
L 538.543604 49.923485 
L 538.543604 45.543877 
L 531.603769 45.543877 
z
" clip-path="url(#p670771713d)" style="fill: #8c564b"/>
   </g>
   <g id="patch_333">
    <path d="M 550.597001 49.923485 
L 557.90209 49.923485 
L 557.90209 45.543877 
L 550.597001 45.543877 
z
" clip-path="url(#p670771713d)" style="fill: #8c564b"/>
   </g>
   <g id="patch_334">
    <path d="M 561.554635 49.923485 
L 561.676386 49.923485 
L 561.676386 45.543877 
L 561.554635 45.543877 
z
" clip-path="url(#p670771713d)" style="fill: #8c564b"/>
   </g>
   <g id="patch_335">
    <path d="M 563.62441 49.923485 
L 575.312552 49.923485 
L 575.312552 45.543877 
L 563.62441 45.543877 
z
" clip-path="url(#p670771713d)" style="fill: #8c564b"/>
   </g>
   <g id="patch_336">
    <path d="M 552.058019 110.751369 
L 552.17977 110.751369 
L 552.17977 106.371761 
L 552.058019 106.371761 
z
" clip-path="url(#p670771713d)" style="fill: #8c564b"/>
   </g>
   <g id="patch_337">
    <path d="M 552.666776 110.751369 
L 552.910279 110.751369 
L 552.910279 106.371761 
L 552.666776 106.371761 
z
" clip-path="url(#p670771713d)" style="fill: #8c564b"/>
   </g>
   <g id="patch_338">
    <path d="M 553.032031 110.751369 
L 554.980054 110.751369 
L 554.980054 106.371761 
L 553.032031 106.371761 
z
" clip-path="url(#p670771713d)" style="fill: #8c564b"/>
   </g>
   <g id="patch_339">
    <path d="M 531.603769 142.381869 
L 536.717332 142.381869 
L 536.717332 138.002261 
L 531.603769 138.002261 
z
" clip-path="url(#p670771713d)" style="fill: #9edae6"/>
   </g>
   <g id="patch_340">
    <path d="M 554.980054 142.381869 
L 557.658587 142.381869 
L 557.658587 138.002261 
L 554.980054 138.002261 
z
" clip-path="url(#p670771713d)" style="fill: #9edae6"/>
   </g>
   <g id="patch_341">
    <path d="M 566.668197 142.381869 
L 570.564244 142.381869 
L 570.564244 138.002261 
L 566.668197 138.002261 
z
" clip-path="url(#p670771713d)" style="fill: #9edae6"/>
   </g>
   <g id="patch_342">
    <path d="M 531.603769 20.7261 
L 538.543604 20.7261 
L 538.543604 16.346492 
L 531.603769 16.346492 
z
" clip-path="url(#p670771713d)" style="fill: #9edae6"/>
   </g>
   <g id="patch_343">
    <path d="M 539.395864 20.7261 
L 540.491628 20.7261 
L 540.491628 16.346492 
L 539.395864 16.346492 
z
" clip-path="url(#p670771713d)" style="fill: #1f5aa6"/>
   </g>
   <g id="patch_344">
    <path d="M 540.613379 20.7261 
L 540.735131 20.7261 
L 540.735131 16.346492 
L 540.613379 16.346492 
z
" clip-path="url(#p670771713d)" style="fill: #1f5aa6"/>
   </g>
   <g id="patch_345">
    <path d="M 549.74474 20.7261 
L 552.058019 20.7261 
L 552.058019 16.346492 
L 549.74474 16.346492 
z
" clip-path="url(#p670771713d)" style="fill: #1f5aa6"/>
   </g>
   <g id="patch_346">
    <path d="M 552.17977 20.7261 
L 552.666776 20.7261 
L 552.666776 16.346492 
L 552.17977 16.346492 
z
" clip-path="url(#p670771713d)" style="fill: #1f5aa6"/>
   </g>
   <g id="patch_347">
    <path d="M 552.910279 20.7261 
L 553.032031 20.7261 
L 553.032031 16.346492 
L 552.910279 16.346492 
z
" clip-path="url(#p670771713d)" style="fill: #1f5aa6"/>
   </g>
   <g id="patch_348">
    <path d="M 554.980054 20.7261 
L 557.90209 20.7261 
L 557.90209 16.346492 
L 554.980054 16.346492 
z
" clip-path="url(#p670771713d)" style="fill: #9edae6"/>
   </g>
   <g id="patch_349">
    <path d="M 561.554635 20.7261 
L 561.676386 20.7261 
L 561.676386 16.346492 
L 561.554635 16.346492 
z
" clip-path="url(#p670771713d)" style="fill: #e97f2e"/>
   </g>
   <g id="patch_350">
    <path d="M 563.62441 20.7261 
L 575.312552 20.7261 
L 575.312552 16.346492 
L 563.62441 16.346492 
z
" clip-path="url(#p670771713d)" style="fill: #1f5aa6"/>
   </g>
   <g id="patch_351">
    <path d="M 592.723015 30.945185 
L 623.160886 30.945185 
L 623.160886 26.565577 
L 592.723015 26.565577 
z
" clip-path="url(#p670771713d)" style="fill: #1f5aa6"/>
   </g>
   <g id="patch_352">
    <path d="M 579.330351 91.773069 
L 587.122446 91.773069 
L 587.122446 87.393461 
L 579.330351 87.393461 
z
" clip-path="url(#p670771713d)" style="fill: #1f5aa6"/>
   </g>
   <g id="patch_353">
    <path d="M 598.932341 91.773069 
L 599.054092 91.773069 
L 599.054092 87.393461 
L 598.932341 87.393461 
z
" clip-path="url(#p670771713d)" style="fill: #1f5aa6"/>
   </g>
   <g id="patch_354">
    <path d="M 599.175844 91.773069 
L 599.297595 91.773069 
L 599.297595 87.393461 
L 599.175844 87.393461 
z
" clip-path="url(#p670771713d)" style="fill: #1f5aa6"/>
   </g>
   <g id="patch_355">
    <path d="M 599.419346 91.773069 
L 599.784601 91.773069 
L 599.784601 87.393461 
L 599.419346 87.393461 
z
" clip-path="url(#p670771713d)" style="fill: #1f5aa6"/>
   </g>
   <g id="patch_356">
    <path d="M 599.906352 91.773069 
L 607.576696 91.773069 
L 607.576696 87.393461 
L 599.906352 87.393461 
z
" clip-path="url(#p670771713d)" style="fill: #1f5aa6"/>
   </g>
   <g id="patch_357">
    <path d="M 607.820199 91.773069 
L 607.94195 91.773069 
L 607.94195 87.393461 
L 607.820199 87.393461 
z
" clip-path="url(#p670771713d)" style="fill: #1f5aa6"/>
   </g>
   <g id="patch_358">
    <path d="M 579.330351 68.901785 
L 592.723015 68.901785 
L 592.723015 64.522177 
L 579.330351 64.522177 
z
" clip-path="url(#p670771713d)" style="fill: #f2856e"/>
   </g>
   <g id="patch_359">
    <path d="M 587.122446 129.729669 
L 598.932341 129.729669 
L 598.932341 125.350061 
L 587.122446 125.350061 
z
" clip-path="url(#p670771713d)" style="fill: #f2856e"/>
   </g>
   <g id="patch_360">
    <path d="M 599.054092 129.729669 
L 599.175844 129.729669 
L 599.175844 125.350061 
L 599.054092 125.350061 
z
" clip-path="url(#p670771713d)" style="fill: #f2856e"/>
   </g>
   <g id="patch_361">
    <path d="M 599.297595 129.729669 
L 599.419346 129.729669 
L 599.419346 125.350061 
L 599.297595 125.350061 
z
" clip-path="url(#p670771713d)" style="fill: #f2856e"/>
   </g>
   <g id="patch_362">
    <path d="M 599.784601 129.729669 
L 599.906352 129.729669 
L 599.906352 125.350061 
L 599.784601 125.350061 
z
" clip-path="url(#p670771713d)" style="fill: #f2856e"/>
   </g>
   <g id="patch_363">
    <path d="M 607.576696 136.055769 
L 607.820199 136.055769 
L 607.820199 131.676161 
L 607.576696 131.676161 
z
" clip-path="url(#p670771713d)" style="fill: #dbdc8d"/>
   </g>
   <g id="patch_364">
    <path d="M 607.94195 136.055769 
L 623.160886 136.055769 
L 623.160886 131.676161 
L 607.94195 131.676161 
z
" clip-path="url(#p670771713d)" style="fill: #dbdc8d"/>
   </g>
   <g id="patch_365">
    <path d="M 579.330351 20.7261 
L 587.122446 20.7261 
L 587.122446 16.346492 
L 579.330351 16.346492 
z
" clip-path="url(#p670771713d)" style="fill: #1f5aa6"/>
   </g>
   <g id="patch_366">
    <path d="M 592.723015 20.7261 
L 598.932341 20.7261 
L 598.932341 16.346492 
L 592.723015 16.346492 
z
" clip-path="url(#p670771713d)" style="fill: #f2856e"/>
   </g>
   <g id="patch_367">
    <path d="M 599.054092 20.7261 
L 599.175844 20.7261 
L 599.175844 16.346492 
L 599.054092 16.346492 
z
" clip-path="url(#p670771713d)" style="fill: #f2856e"/>
   </g>
   <g id="patch_368">
    <path d="M 599.297595 20.7261 
L 599.419346 20.7261 
L 599.419346 16.346492 
L 599.297595 16.346492 
z
" clip-path="url(#p670771713d)" style="fill: #f2856e"/>
   </g>
   <g id="patch_369">
    <path d="M 599.784601 20.7261 
L 599.906352 20.7261 
L 599.906352 16.346492 
L 599.784601 16.346492 
z
" clip-path="url(#p670771713d)" style="fill: #f2856e"/>
   </g>
   <g id="patch_370">
    <path d="M 607.576696 20.7261 
L 607.820199 20.7261 
L 607.820199 16.346492 
L 607.576696 16.346492 
z
" clip-path="url(#p670771713d)" style="fill: #dbdc8d"/>
   </g>
   <g id="patch_371">
    <path d="M 607.94195 20.7261 
L 623.160886 20.7261 
L 623.160886 16.346492 
L 607.94195 16.346492 
z
" clip-path="url(#p670771713d)" style="fill: #dbdc8d"/>
   </g>
   <g id="line2d_1">
    <path d="M 54.337946 147.2481 
L 98.168481 147.2481 
" clip-path="url(#p670771713d)" style="fill: none; stroke: #5a5a5a; stroke-width: 1.4"/>
   </g>
   <g id="text_1">
    <text style="font-size: 8.5px; font-family: 'Arial'; text-anchor: end" x="51.252813" y="20.63407" transform="rotate(-0 51.252813 20.63407)">accuracy</text>
   </g>
   <g id="text_2">
    <text style="font-size: 8.5px; font-family: 'Arial'; text-anchor: end" x="51.252813" y="56.257164" transform="rotate(-0 51.252813 56.257164)">labels</text>
   </g>
   <g id="text_3">
    <text style="font-size: 8.5px; font-family: 'Arial'; text-anchor: end" x="51.252813" y="117.085048" transform="rotate(-0 51.252813 117.085048)">prediction</text>
   </g>
   <g id="text_4">
    <text style="font-size: 8px; font-family: 'Arial'; text-anchor: middle" x="76.253214" y="155.894088" transform="rotate(-0 76.253214 155.894088)">15 secs</text>
   </g>
   <g id="text_5">
    <text style="font-size: 9px; font-family: 'Arial'; text-anchor: middle" x="338.749416" y="156.60987" transform="rotate(-0 338.749416 156.60987)">videos</text>
   </g>
  </g>
 </g>
 <defs>
  <clipPath id="p670771713d">
   <rect x="54.099314" y="14.4" width="569.300206" height="142.580561"/>
  </clipPath>
 </defs>
</svg>
