<?xml version="1.0" encoding="utf-8" standalone="no"?>
<!DOCTYPE svg PUBLIC "-//W3C//DTD SVG 1.1//EN"
  "http://www.w3.org/Graphics/SVG/1.1/DTD/svg11.dtd">
<svg xmlns:xlink="http://www.w3.org/1999/xlink" width="615pt" height="150pt" viewBox="0 0 615 150" xmlns="http://www.w3.org/2000/svg" version="1.1">
 <metadata>
  <rdf:RDF xmlns:dc="http://purl.org/dc/elements/1.1/" xmlns:cc="http://creativecommons.org/ns#" xmlns:rdf="http://www.w3.org/1999/02/22-rdf-syntax-ns#">
   <cc:Work>
    <dc:type rdf:resource="http://purl.org/dc/dcmitype/StillImage"/>
    <dc:date>2026-05-13T17:16:47.684213</dc:date>
    <dc:format>image/svg+xml</dc:format>
    <dc:creator>
     <cc:Agent>
      <dc:title>Matplotlib v3.9.4, https://matplotlib.org/</dc:title>
     </cc:Agent>
    </dc:creator>
   </cc:Work>
  </rdf:RDF>
 </metadata>
 <defs>
  <style type="text/css">*{stroke-linejoin: round; stroke-linecap: butt}</style>
 </defs>
 <g id="figure_1">
  <g id="patch_1">
   <path d="M 0 150 
L 615 150 
L 615 0 
L 0 0 
z
" style="fill: #ffffff"/>
  </g>
  <g id="axes_1">
   <g id="patch_2">
    <path d="M 30.75 135 
L 602.7 135 
L 602.7 18 
L 30.75 18 
z
" style="fill: #ffffff"/>
   </g>
   <g id="patch_3">
    <path d="M 30.989744 31.576792 
L 75.024287 31.576792 
L 75.024287 27.982935 
L 30.989744 27.982935 
z
" clip-path="url(#p50ee27cb4f)" style="fill: #ebeced"/>
   </g>
   <g id="patch_4">
    <path d="M 30.989744 81.491468 
L 75.024287 81.491468 
L 75.024287 77.897611 
L 30.989744 77.897611 
z
" clip-path="url(#p50ee27cb4f)" style="fill: #ebeced"/>
   </g>
   <g id="patch_5">
    <path d="M 30.989744 36.767918 
L 75.024287 36.767918 
L 75.024287 33.174061 
L 30.989744 33.174061 
z
" clip-path="url(#p50ee27cb4f)" style="fill: #ebeced"/>
   </g>
   <g id="patch_6">
    <path d="M 30.989744 86.682594 
L 75.024287 86.682594 
L 75.024287 83.088737 
L 30.989744 83.088737 
z
" clip-path="url(#p50ee27cb4f)" style="fill: #ebeced"/>
   </g>
   <g id="patch_7">
    <path d="M 30.989744 41.959044 
L 75.024287 41.959044 
L 75.024287 38.365188 
L 30.989744 38.365188 
z
" clip-path="url(#p50ee27cb4f)" style="fill: #ebeced"/>
   </g>
   <g id="patch_8">
    <path d="M 30.989744 91.87372 
L 75.024287 91.87372 
L 75.024287 88.279863 
L 30.989744 88.279863 
z
" clip-path="url(#p50ee27cb4f)" style="fill: #ebeced"/>
   </g>
   <g id="patch_9">
    <path d="M 30.989744 47.150171 
L 75.024287 47.150171 
L 75.024287 43.556314 
L 30.989744 43.556314 
z
" clip-path="url(#p50ee27cb4f)" style="fill: #ebeced"/>
   </g>
   <g id="patch_10">
    <path d="M 30.989744 97.064846 
L 75.024287 97.064846 
L 75.024287 93.47099 
L 30.989744 93.47099 
z
" clip-path="url(#p50ee27cb4f)" style="fill: #ebeced"/>
   </g>
   <g id="patch_11">
    <path d="M 30.989744 52.341297 
L 75.024287 52.341297 
L 75.024287 48.74744 
L 30.989744 48.74744 
z
" clip-path="url(#p50ee27cb4f)" style="fill: #ebeced"/>
   </g>
   <g id="patch_12">
    <path d="M 30.989744 102.255973 
L 75.024287 102.255973 
L 75.024287 98.662116 
L 30.989744 98.662116 
z
" clip-path="url(#p50ee27cb4f)" style="fill: #ebeced"/>
   </g>
   <g id="patch_13">
    <path d="M 30.989744 57.532423 
L 75.024287 57.532423 
L 75.024287 53.938567 
L 30.989744 53.938567 
z
" clip-path="url(#p50ee27cb4f)" style="fill: #ebeced"/>
   </g>
   <g id="patch_14">
    <path d="M 30.989744 107.447099 
L 75.024287 107.447099 
L 75.024287 103.853242 
L 30.989744 103.853242 
z
" clip-path="url(#p50ee27cb4f)" style="fill: #ebeced"/>
   </g>
   <g id="patch_15">
    <path d="M 30.989744 62.723549 
L 75.024287 62.723549 
L 75.024287 59.129693 
L 30.989744 59.129693 
z
" clip-path="url(#p50ee27cb4f)" style="fill: #ebeced"/>
   </g>
   <g id="patch_16">
    <path d="M 30.989744 112.638225 
L 75.024287 112.638225 
L 75.024287 109.044369 
L 30.989744 109.044369 
z
" clip-path="url(#p50ee27cb4f)" style="fill: #ebeced"/>
   </g>
   <g id="patch_17">
    <path d="M 30.989744 67.914676 
L 75.024287 67.914676 
L 75.024287 64.320819 
L 30.989744 64.320819 
z
" clip-path="url(#p50ee27cb4f)" style="fill: #ebeced"/>
   </g>
   <g id="patch_18">
    <path d="M 30.989744 117.829352 
L 75.024287 117.829352 
L 75.024287 114.235495 
L 30.989744 114.235495 
z
" clip-path="url(#p50ee27cb4f)" style="fill: #ebeced"/>
   </g>
   <g id="patch_19">
    <path d="M 30.989744 73.105802 
L 75.024287 73.105802 
L 75.024287 69.511945 
L 30.989744 69.511945 
z
" clip-path="url(#p50ee27cb4f)" style="fill: #ebeced"/>
   </g>
   <g id="patch_20">
    <path d="M 30.989744 123.020478 
L 75.024287 123.020478 
L 75.024287 119.426621 
L 30.989744 119.426621 
z
" clip-path="url(#p50ee27cb4f)" style="fill: #ebeced"/>
   </g>
   <g id="patch_21">
    <path d="M 30.989744 23.191126 
L 75.024287 23.191126 
L 75.024287 19.59727 
L 30.989744 19.59727 
z
" clip-path="url(#p50ee27cb4f)" style="fill: #ebeced"/>
   </g>
   <g id="patch_22">
    <path d="M 78.938468 31.576792 
L 122.973011 31.576792 
L 122.973011 27.982935 
L 78.938468 27.982935 
z
" clip-path="url(#p50ee27cb4f)" style="fill: #ebeced"/>
   </g>
   <g id="patch_23">
    <path d="M 78.938468 81.491468 
L 122.973011 81.491468 
L 122.973011 77.897611 
L 78.938468 77.897611 
z
" clip-path="url(#p50ee27cb4f)" style="fill: #ebeced"/>
   </g>
   <g id="patch_24">
    <path d="M 78.938468 36.767918 
L 122.973011 36.767918 
L 122.973011 33.174061 
L 78.938468 33.174061 
z
" clip-path="url(#p50ee27cb4f)" style="fill: #ebeced"/>
   </g>
   <g id="patch_25">
    <path d="M 78.938468 86.682594 
L 122.973011 86.682594 
L 122.973011 83.088737 
L 78.938468 83.088737 
z
" clip-path="url(#p50ee27cb4f)" style="fill: #ebeced"/>
   </g>
   <g id="patch_26">
    <path d="M 78.938468 41.959044 
L 122.973011 41.959044 
L 122.973011 38.365188 
L 78.938468 38.365188 
z
" clip-path="url(#p50ee27cb4f)" style="fill: #ebeced"/>
   </g>
   <g id="patch_27">
    <path d="M 78.938468 91.87372 
L 122.973011 91.87372 
L 122.973011 88.279863 
L 78.938468 88.279863 
z
" clip-path="url(#p50ee27cb4f)" style="fill: #ebeced"/>
   </g>
   <g id="patch_28">
    <path d="M 78.938468 47.150171 
L 122.973011 47.150171 
L 122.973011 43.556314 
L 78.938468 43.556314 
z
" clip-path="url(#p50ee27cb4f)" style="fill: #ebeced"/>
   </g>
   <g id="patch_29">
    <path d="M 78.938468 97.064846 
L 122.973011 97.064846 
L 122.973011 93.47099 
L 78.938468 93.47099 
z
" clip-path="url(#p50ee27cb4f)" style="fill: #ebeced"/>
   </g>
   <g id="patch_30">
    <path d="M 78.938468 52.341297 
L 122.973011 52.341297 
L 122.973011 48.74744 
L 78.938468 48.74744 
z
" clip-path="url(#p50ee27cb4f)" style="fill: #ebeced"/>
   </g>
   <g id="patch_31">
    <path d="M 78.938468 102.255973 
L 122.973011 102.255973 
L 122.973011 98.662116 
L 78.938468 98.662116 
z
" clip-path="url(#p50ee27cb4f)" style="fill: #ebeced"/>
   </g>
   <g id="patch_32">
    <path d="M 78.938468 57.532423 
L 122.973011 57.532423 
L 122.973011 53.938567 
L 78.938468 53.938567 
z
" clip-path="url(#p50ee27cb4f)" style="fill: #ebeced"/>
   </g>
   <g id="patch_33">
    <path d="M 78.938468 107.447099 
L 122.973011 107.447099 
L 122.973011 103.853242 
L 78.938468 103.853242 
z
" clip-path="url(#p50ee27cb4f)" style="fill: #ebeced"/>
   </g>
   <g id="patch_34">
    <path d="M 78.938468 62.723549 
L 122.973011 62.723549 
L 122.973011 59.129693 
L 78.938468 59.129693 
z
" clip-path="url(#p50ee27cb4f)" style="fill: #ebeced"/>
   </g>
   <g id="patch_35">
    <path d="M 78.938468 112.638225 
L 122.973011 112.638225 
L 122.973011 109.044369 
L 78.938468 109.044369 
z
" clip-path="url(#p50ee27cb4f)" style="fill: #ebeced"/>
   </g>
   <g id="patch_36">
    <path d="M 78.938468 67.914676 
L 122.973011 67.914676 
L 122.973011 64.320819 
L 78.938468 64.320819 
z
" clip-path="url(#p50ee27cb4f)" style="fill: #ebeced"/>
   </g>
   <g id="patch_37">
    <path d="M 78.938468 117.829352 
L 122.973011 117.829352 
L 122.973011 114.235495 
L 78.938468 114.235495 
z
" clip-path="url(#p50ee27cb4f)" style="fill: #ebeced"/>
   </g>
   <g id="patch_38">
    <path d="M 78.938468 73.105802 
L 122.973011 73.105802 
L 122.973011 69.511945 
L 78.938468 69.511945 
z
" clip-path="url(#p50ee27cb4f)" style="fill: #ebeced"/>
   </g>
   <g id="patch_39">
    <path d="M 78.938468 123.020478 
L 122.973011 123.020478 
L 122.973011 119.426621 
L 78.938468 119.426621 
z
" clip-path="url(#p50ee27cb4f)" style="fill: #ebeced"/>
   </g>
   <g id="patch_40">
    <path d="M 78.938468 23.191126 
L 122.973011 23.191126 
L 122.973011 19.59727 
L 78.938468 19.59727 
z
" clip-path="url(#p50ee27cb4f)" style="fill: #ebeced"/>
   </g>
   <g id="patch_41">
    <path d="M 126.887193 31.576792 
L 170.921736 31.576792 
L 170.921736 27.982935 
L 126.887193 27.982935 
z
" clip-path="url(#p50ee27cb4f)" style="fill: #ebeced"/>
   </g>
   <g id="patch_42">
    <path d="M 126.887193 81.491468 
L 170.921736 81.491468 
L 170.921736 77.897611 
L 126.887193 77.897611 
z
" clip-path="url(#p50ee27cb4f)" style="fill: #ebeced"/>
   </g>
   <g id="patch_43">
    <path d="M 126.887193 36.767918 
L 170.921736 36.767918 
L 170.921736 33.174061 
L 126.887193 33.174061 
z
" clip-path="url(#p50ee27cb4f)" style="fill: #ebeced"/>
   </g>
   <g id="patch_44">
    <path d="M 126.887193 86.682594 
L 170.921736 86.682594 
L 170.921736 83.088737 
L 126.887193 83.088737 
z
" clip-path="url(#p50ee27cb4f)" style="fill: #ebeced"/>
   </g>
   <g id="patch_45">
    <path d="M 126.887193 41.959044 
L 170.921736 41.959044 
L 170.921736 38.365188 
L 126.887193 38.365188 
z
" clip-path="url(#p50ee27cb4f)" style="fill: #ebeced"/>
   </g>
   <g id="patch_46">
    <path d="M 126.887193 91.87372 
L 170.921736 91.87372 
L 170.921736 88.279863 
L 126.887193 88.279863 
z
" clip-path="url(#p50ee27cb4f)" style="fill: #ebeced"/>
   </g>
   <g id="patch_47">
    <path d="M 126.887193 47.150171 
L 170.921736 47.150171 
L 170.921736 43.556314 
L 126.887193 43.556314 
z
" clip-path="url(#p50ee27cb4f)" style="fill: #ebeced"/>
   </g>
   <g id="patch_48">
    <path d="M 126.887193 97.064846 
L 170.921736 97.064846 
L 170.921736 93.47099 
L 126.887193 93.47099 
z
" clip-path="url(#p50ee27cb4f)" style="fill: #ebeced"/>
   </g>
   <g id="patch_49">
    <path d="M 126.887193 52.341297 
L 170.921736 52.341297 
L 170.921736 48.74744 
L 126.887193 48.74744 
z
" clip-path="url(#p50ee27cb4f)" style="fill: #ebeced"/>
   </g>
   <g id="patch_50">
    <path d="M 126.887193 102.255973 
L 170.921736 102.255973 
L 170.921736 98.662116 
L 126.887193 98.662116 
z
" clip-path="url(#p50ee27cb4f)" style="fill: #ebeced"/>
   </g>
   <g id="patch_51">
    <path d="M 126.887193 57.532423 
L 170.921736 57.532423 
L 170.921736 53.938567 
L 126.887193 53.938567 
z
" clip-path="url(#p50ee27cb4f)" style="fill: #ebeced"/>
   </g>
   <g id="patch_52">
    <path d="M 126.887193 107.447099 
L 170.921736 107.447099 
L 170.921736 103.853242 
L 126.887193 103.853242 
z
" clip-path="url(#p50ee27cb4f)" style="fill: #ebeced"/>
   </g>
   <g id="patch_53">
    <path d="M 126.887193 62.723549 
L 170.921736 62.723549 
L 170.921736 59.129693 
L 126.887193 59.129693 
z
" clip-path="url(#p50ee27cb4f)" style="fill: #ebeced"/>
   </g>
   <g id="patch_54">
    <path d="M 126.887193 112.638225 
L 170.921736 112.638225 
L 170.921736 109.044369 
L 126.887193 109.044369 
z
" clip-path="url(#p50ee27cb4f)" style="fill: #ebeced"/>
   </g>
   <g id="patch_55">
    <path d="M 126.887193 67.914676 
L 170.921736 67.914676 
L 170.921736 64.320819 
L 126.887193 64.320819 
z
" clip-path="url(#p50ee27cb4f)" style="fill: #ebeced"/>
   </g>
   <g id="patch_56">
    <path d="M 126.887193 117.829352 
L 170.921736 117.829352 
L 170.921736 114.235495 
L 126.887193 114.235495 
z
" clip-path="url(#p50ee27cb4f)" style="fill: #ebeced"/>
   </g>
   <g id="patch_57">
    <path d="M 126.887193 73.105802 
L 170.921736 73.105802 
L 170.921736 69.511945 
L 126.887193 69.511945 
z
" clip-path="url(#p50ee27cb4f)" style="fill: #ebeced"/>
   </g>
   <g id="patch_58">
    <path d="M 126.887193 123.020478 
L 170.921736 123.020478 
L 170.921736 119.426621 
L 126.887193 119.426621 
z
" clip-path="url(#p50ee27cb4f)" style="fill: #ebeced"/>
   </g>
   <g id="patch_59">
    <path d="M 126.887193 23.191126 
L 170.921736 23.191126 
L 170.921736 19.59727 
L 126.887193 19.59727 
z
" clip-path="url(#p50ee27cb4f)" style="fill: #ebeced"/>
   </g>
   <g id="patch_60">
    <path d="M 174.835917 31.576792 
L 218.87046 31.576792 
L 218.87046 27.982935 
L 174.835917 27.982935 
z
" clip-path="url(#p50ee27cb4f)" style="fill: #ebeced"/>
   </g>
   <g id="patch_61">
    <path d="M 174.835917 81.491468 
L 218.87046 81.491468 
L 218.87046 77.897611 
L 174.835917 77.897611 
z
" clip-path="url(#p50ee27cb4f)" style="fill: #ebeced"/>
   </g>
   <g id="patch_62">
    <path d="M 174.835917 36.767918 
L 218.87046 36.767918 
L 218.87046 33.174061 
L 174.835917 33.174061 
z
" clip-path="url(#p50ee27cb4f)" style="fill: #ebeced"/>
   </g>
   <g id="patch_63">
    <path d="M 174.835917 86.682594 
L 218.87046 86.682594 
L 218.87046 83.088737 
L 174.835917 83.088737 
z
" clip-path="url(#p50ee27cb4f)" style="fill: #ebeced"/>
   </g>
   <g id="patch_64">
    <path d="M 174.835917 41.959044 
L 218.87046 41.959044 
L 218.87046 38.365188 
L 174.835917 38.365188 
z
" clip-path="url(#p50ee27cb4f)" style="fill: #ebeced"/>
   </g>
   <g id="patch_65">
    <path d="M 174.835917 91.87372 
L 218.87046 91.87372 
L 218.87046 88.279863 
L 174.835917 88.279863 
z
" clip-path="url(#p50ee27cb4f)" style="fill: #ebeced"/>
   </g>
   <g id="patch_66">
    <path d="M 174.835917 47.150171 
L 218.87046 47.150171 
L 218.87046 43.556314 
L 174.835917 43.556314 
z
" clip-path="url(#p50ee27cb4f)" style="fill: #ebeced"/>
   </g>
   <g id="patch_67">
    <path d="M 174.835917 97.064846 
L 218.87046 97.064846 
L 218.87046 93.47099 
L 174.835917 93.47099 
z
" clip-path="url(#p50ee27cb4f)" style="fill: #ebeced"/>
   </g>
   <g id="patch_68">
    <path d="M 174.835917 52.341297 
L 218.87046 52.341297 
L 218.87046 48.74744 
L 174.835917 48.74744 
z
" clip-path="url(#p50ee27cb4f)" style="fill: #ebeced"/>
   </g>
   <g id="patch_69">
    <path d="M 174.835917 102.255973 
L 218.87046 102.255973 
L 218.87046 98.662116 
L 174.835917 98.662116 
z
" clip-path="url(#p50ee27cb4f)" style="fill: #ebeced"/>
   </g>
   <g id="patch_70">
    <path d="M 174.835917 57.532423 
L 218.87046 57.532423 
L 218.87046 53.938567 
L 174.835917 53.938567 
z
" clip-path="url(#p50ee27cb4f)" style="fill: #ebeced"/>
   </g>
   <g id="patch_71">
    <path d="M 174.835917 107.447099 
L 218.87046 107.447099 
L 218.87046 103.853242 
L 174.835917 103.853242 
z
" clip-path="url(#p50ee27cb4f)" style="fill: #ebeced"/>
   </g>
   <g id="patch_72">
    <path d="M 174.835917 62.723549 
L 218.87046 62.723549 
L 218.87046 59.129693 
L 174.835917 59.129693 
z
" clip-path="url(#p50ee27cb4f)" style="fill: #ebeced"/>
   </g>
   <g id="patch_73">
    <path d="M 174.835917 112.638225 
L 218.87046 112.638225 
L 218.87046 109.044369 
L 174.835917 109.044369 
z
" clip-path="url(#p50ee27cb4f)" style="fill: #ebeced"/>
   </g>
   <g id="patch_74">
    <path d="M 174.835917 67.914676 
L 218.87046 67.914676 
L 218.87046 64.320819 
L 174.835917 64.320819 
z
" clip-path="url(#p50ee27cb4f)" style="fill: #ebeced"/>
   </g>
   <g id="patch_75">
    <path d="M 174.835917 117.829352 
L 218.87046 117.829352 
L 218.87046 114.235495 
L 174.835917 114.235495 
z
" clip-path="url(#p50ee27cb4f)" style="fill: #ebeced"/>
   </g>
   <g id="patch_76">
    <path d="M 174.835917 73.105802 
L 218.87046 73.105802 
L 218.87046 69.511945 
L 174.835917 69.511945 
z
" clip-path="url(#p50ee27cb4f)" style="fill: #ebeced"/>
   </g>
   <g id="patch_77">
    <path d="M 174.835917 123.020478 
L 218.87046 123.020478 
L 218.87046 119.426621 
L 174.835917 119.426621 
z
" clip-path="url(#p50ee27cb4f)" style="fill: #ebeced"/>
   </g>
   <g id="patch_78">
    <path d="M 174.835917 23.191126 
L 218.87046 23.191126 
L 218.87046 19.59727 
L 174.835917 19.59727 
z
" clip-path="url(#p50ee27cb4f)" style="fill: #ebeced"/>
   </g>
   <g id="patch_79">
    <path d="M 222.784642 31.576792 
L 266.819185 31.576792 
L 266.819185 27.982935 
L 222.784642 27.982935 
z
" clip-path="url(#p50ee27cb4f)" style="fill: #ebeced"/>
   </g>
   <g id="patch_80">
    <path d="M 222.784642 81.491468 
L 266.819185 81.491468 
L 266.819185 77.897611 
L 222.784642 77.897611 
z
" clip-path="url(#p50ee27cb4f)" style="fill: #ebeced"/>
   </g>
   <g id="patch_81">
    <path d="M 222.784642 36.767918 
L 266.819185 36.767918 
L 266.819185 33.174061 
L 222.784642 33.174061 
z
" clip-path="url(#p50ee27cb4f)" style="fill: #ebeced"/>
   </g>
   <g id="patch_82">
    <path d="M 222.784642 86.682594 
L 266.819185 86.682594 
L 266.819185 83.088737 
L 222.784642 83.088737 
z
" clip-path="url(#p50ee27cb4f)" style="fill: #ebeced"/>
   </g>
   <g id="patch_83">
    <path d="M 222.784642 41.959044 
L 266.819185 41.959044 
L 266.819185 38.365188 
L 222.784642 38.365188 
z
" clip-path="url(#p50ee27cb4f)" style="fill: #ebeced"/>
   </g>
   <g id="patch_84">
    <path d="M 222.784642 91.87372 
L 266.819185 91.87372 
L 266.819185 88.279863 
L 222.784642 88.279863 
z
" clip-path="url(#p50ee27cb4f)" style="fill: #ebeced"/>
   </g>
   <g id="patch_85">
    <path d="M 222.784642 47.150171 
L 266.819185 47.150171 
L 266.819185 43.556314 
L 222.784642 43.556314 
z
" clip-path="url(#p50ee27cb4f)" style="fill: #ebeced"/>
   </g>
   <g id="patch_86">
    <path d="M 222.784642 97.064846 
L 266.819185 97.064846 
L 266.819185 93.47099 
L 222.784642 93.47099 
z
" clip-path="url(#p50ee27cb4f)" style="fill: #ebeced"/>
   </g>
   <g id="patch_87">
    <path d="M 222.784642 52.341297 
L 266.819185 52.341297 
L 266.819185 48.74744 
L 222.784642 48.74744 
z
" clip-path="url(#p50ee27cb4f)" style="fill: #ebeced"/>
   </g>
   <g id="patch_88">
    <path d="M 222.784642 102.255973 
L 266.819185 102.255973 
L 266.819185 98.662116 
L 222.784642 98.662116 
z
" clip-path="url(#p50ee27cb4f)" style="fill: #ebeced"/>
   </g>
   <g id="patch_89">
    <path d="M 222.784642 57.532423 
L 266.819185 57.532423 
L 266.819185 53.938567 
L 222.784642 53.938567 
z
" clip-path="url(#p50ee27cb4f)" style="fill: #ebeced"/>
   </g>
   <g id="patch_90">
    <path d="M 222.784642 107.447099 
L 266.819185 107.447099 
L 266.819185 103.853242 
L 222.784642 103.853242 
z
" clip-path="url(#p50ee27cb4f)" style="fill: #ebeced"/>
   </g>
   <g id="patch_91">
    <path d="M 222.784642 62.723549 
L 266.819185 62.723549 
L 266.819185 59.129693 
L 222.784642 59.129693 
z
" clip-path="url(#p50ee27cb4f)" style="fill: #ebeced"/>
   </g>
   <g id="patch_92">
    <path d="M 222.784642 112.638225 
L 266.819185 112.638225 
L 266.819185 109.044369 
L 222.784642 109.044369 
z
" clip-path="url(#p50ee27cb4f)" style="fill: #ebeced"/>
   </g>
   <g id="patch_93">
    <path d="M 222.784642 67.914676 
L 266.819185 67.914676 
L 266.819185 64.320819 
L 222.784642 64.320819 
z
" clip-path="url(#p50ee27cb4f)" style="fill: #ebeced"/>
   </g>
   <g id="patch_94">
    <path d="M 222.784642 117.829352 
L 266.819185 117.829352 
L 266.819185 114.235495 
L 222.784642 114.235495 
z
" clip-path="url(#p50ee27cb4f)" style="fill: #ebeced"/>
   </g>
   <g id="patch_95">
    <path d="M 222.784642 73.105802 
L 266.819185 73.105802 
L 266.819185 69.511945 
L 222.784642 69.511945 
z
" clip-path="url(#p50ee27cb4f)" style="fill: #ebeced"/>
   </g>
   <g id="patch_96">
    <path d="M 222.784642 123.020478 
L 266.819185 123.020478 
L 266.819185 119.426621 
L 222.784642 119.426621 
z
" clip-path="url(#p50ee27cb4f)" style="fill: #ebeced"/>
   </g>
   <g id="patch_97">
    <path d="M 222.784642 23.191126 
L 266.819185 23.191126 
L 266.819185 19.59727 
L 222.784642 19.59727 
z
" clip-path="url(#p50ee27cb4f)" style="fill: #ebeced"/>
   </g>
   <g id="patch_98">
    <path d="M 270.733366 31.576792 
L 314.767909 31.576792 
L 314.767909 27.982935 
L 270.733366 27.982935 
z
" clip-path="url(#p50ee27cb4f)" style="fill: #ebeced"/>
   </g>
   <g id="patch_99">
    <path d="M 270.733366 81.491468 
L 314.767909 81.491468 
L 314.767909 77.897611 
L 270.733366 77.897611 
z
" clip-path="url(#p50ee27cb4f)" style="fill: #ebeced"/>
   </g>
   <g id="patch_100">
    <path d="M 270.733366 36.767918 
L 314.767909 36.767918 
L 314.767909 33.174061 
L 270.733366 33.174061 
z
" clip-path="url(#p50ee27cb4f)" style="fill: #ebeced"/>
   </g>
   <g id="patch_101">
    <path d="M 270.733366 86.682594 
L 314.767909 86.682594 
L 314.767909 83.088737 
L 270.733366 83.088737 
z
" clip-path="url(#p50ee27cb4f)" style="fill: #ebeced"/>
   </g>
   <g id="patch_102">
    <path d="M 270.733366 41.959044 
L 314.767909 41.959044 
L 314.767909 38.365188 
L 270.733366 38.365188 
z
" clip-path="url(#p50ee27cb4f)" style="fill: #ebeced"/>
   </g>
   <g id="patch_103">
    <path d="M 270.733366 91.87372 
L 314.767909 91.87372 
L 314.767909 88.279863 
L 270.733366 88.279863 
z
" clip-path="url(#p50ee27cb4f)" style="fill: #ebeced"/>
   </g>
   <g id="patch_104">
    <path d="M 270.733366 47.150171 
L 314.767909 47.150171 
L 314.767909 43.556314 
L 270.733366 43.556314 
z
" clip-path="url(#p50ee27cb4f)" style="fill: #ebeced"/>
   </g>
   <g id="patch_105">
    <path d="M 270.733366 97.064846 
L 314.767909 97.064846 
L 314.767909 93.47099 
L 270.733366 93.47099 
z
" clip-path="url(#p50ee27cb4f)" style="fill: #ebeced"/>
   </g>
   <g id="patch_106">
    <path d="M 270.733366 52.341297 
L 314.767909 52.341297 
L 314.767909 48.74744 
L 270.733366 48.74744 
z
" clip-path="url(#p50ee27cb4f)" style="fill: #ebeced"/>
   </g>
   <g id="patch_107">
    <path d="M 270.733366 102.255973 
L 314.767909 102.255973 
L 314.767909 98.662116 
L 270.733366 98.662116 
z
" clip-path="url(#p50ee27cb4f)" style="fill: #ebeced"/>
   </g>
   <g id="patch_108">
    <path d="M 270.733366 57.532423 
L 314.767909 57.532423 
L 314.767909 53.938567 
L 270.733366 53.938567 
z
" clip-path="url(#p50ee27cb4f)" style="fill: #ebeced"/>
   </g>
   <g id="patch_109">
    <path d="M 270.733366 107.447099 
L 314.767909 107.447099 
L 314.767909 103.853242 
L 270.733366 103.853242 
z
" clip-path="url(#p50ee27cb4f)" style="fill: #ebeced"/>
   </g>
   <g id="patch_110">
    <path d="M 270.733366 62.723549 
L 314.767909 62.723549 
L 314.767909 59.129693 
L 270.733366 59.129693 
z
" clip-path="url(#p50ee27cb4f)" style="fill: #ebeced"/>
   </g>
   <g id="patch_111">
    <path d="M 270.733366 112.638225 
L 314.767909 112.638225 
L 314.767909 109.044369 
L 270.733366 109.044369 
z
" clip-path="url(#p50ee27cb4f)" style="fill: #ebeced"/>
   </g>
   <g id="patch_112">
    <path d="M 270.733366 67.914676 
L 314.767909 67.914676 
L 314.767909 64.320819 
L 270.733366 64.320819 
z
" clip-path="url(#p50ee27cb4f)" style="fill: #ebeced"/>
   </g>
   <g id="patch_113">
    <path d="M 270.733366 117.829352 
L 314.767909 117.829352 
L 314.767909 114.235495 
L 270.733366 114.235495 
z
" clip-path="url(#p50ee27cb4f)" style="fill: #ebeced"/>
   </g>
   <g id="patch_114">
    <path d="M 270.733366 73.105802 
L 314.767909 73.105802 
L 314.767909 69.511945 
L 270.733366 69.511945 
z
" clip-path="url(#p50ee27cb4f)" style="fill: #ebeced"/>
   </g>
   <g id="patch_115">
    <path d="M 270.733366 123.020478 
L 314.767909 123.020478 
L 314.767909 119.426621 
L 270.733366 119.426621 
z
" clip-path="url(#p50ee27cb4f)" style="fill: #ebeced"/>
   </g>
   <g id="patch_116">
    <path d="M 270.733366 23.191126 
L 314.767909 23.191126 
L 314.767909 19.59727 
L 270.733366 19.59727 
z
" clip-path="url(#p50ee27cb4f)" style="fill: #ebeced"/>
   </g>
   <g id="patch_117">
    <path d="M 318.682091 31.576792 
L 362.716634 31.576792 
L 362.716634 27.982935 
L 318.682091 27.982935 
z
" clip-path="url(#p50ee27cb4f)" style="fill: #ebeced"/>
   </g>
   <g id="patch_118">
    <path d="M 318.682091 81.491468 
L 362.716634 81.491468 
L 362.716634 77.897611 
L 318.682091 77.897611 
z
" clip-path="url(#p50ee27cb4f)" style="fill: #ebeced"/>
   </g>
   <g id="patch_119">
    <path d="M 318.682091 36.767918 
L 362.716634 36.767918 
L 362.716634 33.174061 
L 318.682091 33.174061 
z
" clip-path="url(#p50ee27cb4f)" style="fill: #ebeced"/>
   </g>
   <g id="patch_120">
    <path d="M 318.682091 86.682594 
L 362.716634 86.682594 
L 362.716634 83.088737 
L 318.682091 83.088737 
z
" clip-path="url(#p50ee27cb4f)" style="fill: #ebeced"/>
   </g>
   <g id="patch_121">
    <path d="M 318.682091 41.959044 
L 362.716634 41.959044 
L 362.716634 38.365188 
L 318.682091 38.365188 
z
" clip-path="url(#p50ee27cb4f)" style="fill: #ebeced"/>
   </g>
   <g id="patch_122">
    <path d="M 318.682091 91.87372 
L 362.716634 91.87372 
L 362.716634 88.279863 
L 318.682091 88.279863 
z
" clip-path="url(#p50ee27cb4f)" style="fill: #ebeced"/>
   </g>
   <g id="patch_123">
    <path d="M 318.682091 47.150171 
L 362.716634 47.150171 
L 362.716634 43.556314 
L 318.682091 43.556314 
z
" clip-path="url(#p50ee27cb4f)" style="fill: #ebeced"/>
   </g>
   <g id="patch_124">
    <path d="M 318.682091 97.064846 
L 362.716634 97.064846 
L 362.716634 93.47099 
L 318.682091 93.47099 
z
" clip-path="url(#p50ee27cb4f)" style="fill: #ebeced"/>
   </g>
   <g id="patch_125">
    <path d="M 318.682091 52.341297 
L 362.716634 52.341297 
L 362.716634 48.74744 
L 318.682091 48.74744 
z
" clip-path="url(#p50ee27cb4f)" style="fill: #ebeced"/>
   </g>
   <g id="patch_126">
    <path d="M 318.682091 102.255973 
L 362.716634 102.255973 
L 362.716634 98.662116 
L 318.682091 98.662116 
z
" clip-path="url(#p50ee27cb4f)" style="fill: #ebeced"/>
   </g>
   <g id="patch_127">
    <path d="M 318.682091 57.532423 
L 362.716634 57.532423 
L 362.716634 53.938567 
L 318.682091 53.938567 
z
" clip-path="url(#p50ee27cb4f)" style="fill: #ebeced"/>
   </g>
   <g id="patch_128">
    <path d="M 318.682091 107.447099 
L 362.716634 107.447099 
L 362.716634 103.853242 
L 318.682091 103.853242 
z
" clip-path="url(#p50ee27cb4f)" style="fill: #ebeced"/>
   </g>
   <g id="patch_129">
    <path d="M 318.682091 62.723549 
L 362.716634 62.723549 
L 362.716634 59.129693 
L 318.682091 59.129693 
z
" clip-path="url(#p50ee27cb4f)" style="fill: #ebeced"/>
   </g>
   <g id="patch_130">
    <path d="M 318.682091 112.638225 
L 362.716634 112.638225 
L 362.716634 109.044369 
L 318.682091 109.044369 
z
" clip-path="url(#p50ee27cb4f)" style="fill: #ebeced"/>
   </g>
   <g id="patch_131">
    <path d="M 318.682091 67.914676 
L 362.716634 67.914676 
L 362.716634 64.320819 
L 318.682091 64.320819 
z
" clip-path="url(#p50ee27cb4f)" style="fill: #ebeced"/>
   </g>
   <g id="patch_132">
    <path d="M 318.682091 117.829352 
L 362.716634 117.829352 
L 362.716634 114.235495 
L 318.682091 114.235495 
z
" clip-path="url(#p50ee27cb4f)" style="fill: #ebeced"/>
   </g>
   <g id="patch_133">
    <path d="M 318.682091 73.105802 
L 362.716634 73.105802 
L 362.716634 69.511945 
L 318.682091 69.511945 
z
" clip-path="url(#p50ee27cb4f)" style="fill: #ebeced"/>
   </g>
   <g id="patch_134">
    <path d="M 318.682091 123.020478 
L 362.716634 123.020478 
L 362.716634 119.426621 
L 318.682091 119.426621 
z
" clip-path="url(#p50ee27cb4f)" style="fill: #ebeced"/>
   </g>
   <g id="patch_135">
    <path d="M 318.682091 23.191126 
L 362.716634 23.191126 
L 362.716634 19.59727 
L 318.682091 19.59727 
z
" clip-path="url(#p50ee27cb4f)" style="fill: #ebeced"/>
   </g>
   <g id="patch_136">
    <path d="M 366.630815 31.576792 
L 410.665358 31.576792 
L 410.665358 27.982935 
L 366.630815 27.982935 
z
" clip-path="url(#p50ee27cb4f)" style="fill: #ebeced"/>
   </g>
   <g id="patch_137">
    <path d="M 366.630815 81.491468 
L 410.665358 81.491468 
L 410.665358 77.897611 
L 366.630815 77.897611 
z
" clip-path="url(#p50ee27cb4f)" style="fill: #ebeced"/>
   </g>
   <g id="patch_138">
    <path d="M 366.630815 36.767918 
L 410.665358 36.767918 
L 410.665358 33.174061 
L 366.630815 33.174061 
z
" clip-path="url(#p50ee27cb4f)" style="fill: #ebeced"/>
   </g>
   <g id="patch_139">
    <path d="M 366.630815 86.682594 
L 410.665358 86.682594 
L 410.665358 83.088737 
L 366.630815 83.088737 
z
" clip-path="url(#p50ee27cb4f)" style="fill: #ebeced"/>
   </g>
   <g id="patch_140">
    <path d="M 366.630815 41.959044 
L 410.665358 41.959044 
L 410.665358 38.365188 
L 366.630815 38.365188 
z
" clip-path="url(#p50ee27cb4f)" style="fill: #ebeced"/>
   </g>
   <g id="patch_141">
    <path d="M 366.630815 91.87372 
L 410.665358 91.87372 
L 410.665358 88.279863 
L 366.630815 88.279863 
z
" clip-path="url(#p50ee27cb4f)" style="fill: #ebeced"/>
   </g>
   <g id="patch_142">
    <path d="M 366.630815 47.150171 
L 410.665358 47.150171 
L 410.665358 43.556314 
L 366.630815 43.556314 
z
" clip-path="url(#p50ee27cb4f)" style="fill: #ebeced"/>
   </g>
   <g id="patch_143">
    <path d="M 366.630815 97.064846 
L 410.665358 97.064846 
L 410.665358 93.47099 
L 366.630815 93.47099 
z
" clip-path="url(#p50ee27cb4f)" style="fill: #ebeced"/>
   </g>
   <g id="patch_144">
    <path d="M 366.630815 52.341297 
L 410.665358 52.341297 
L 410.665358 48.74744 
L 366.630815 48.74744 
z
" clip-path="url(#p50ee27cb4f)" style="fill: #ebeced"/>
   </g>
   <g id="patch_145">
    <path d="M 366.630815 102.255973 
L 410.665358 102.255973 
L 410.665358 98.662116 
L 366.630815 98.662116 
z
" clip-path="url(#p50ee27cb4f)" style="fill: #ebeced"/>
   </g>
   <g id="patch_146">
    <path d="M 366.630815 57.532423 
L 410.665358 57.532423 
L 410.665358 53.938567 
L 366.630815 53.938567 
z
" clip-path="url(#p50ee27cb4f)" style="fill: #ebeced"/>
   </g>
   <g id="patch_147">
    <path d="M 366.630815 107.447099 
L 410.665358 107.447099 
L 410.665358 103.853242 
L 366.630815 103.853242 
z
" clip-path="url(#p50ee27cb4f)" style="fill: #ebeced"/>
   </g>
   <g id="patch_148">
    <path d="M 366.630815 62.723549 
L 410.665358 62.723549 
L 410.665358 59.129693 
L 366.630815 59.129693 
z
" clip-path="url(#p50ee27cb4f)" style="fill: #ebeced"/>
   </g>
   <g id="patch_149">
    <path d="M 366.630815 112.638225 
L 410.665358 112.638225 
L 410.665358 109.044369 
L 366.630815 109.044369 
z
" clip-path="url(#p50ee27cb4f)" style="fill: #ebeced"/>
   </g>
   <g id="patch_150">
    <path d="M 366.630815 67.914676 
L 410.665358 67.914676 
L 410.665358 64.320819 
L 366.630815 64.320819 
z
" clip-path="url(#p50ee27cb4f)" style="fill: #ebeced"/>
   </g>
   <g id="patch_151">
    <path d="M 366.630815 117.829352 
L 410.665358 117.829352 
L 410.665358 114.235495 
L 366.630815 114.235495 
z
" clip-path="url(#p50ee27cb4f)" style="fill: #ebeced"/>
   </g>
   <g id="patch_152">
    <path d="M 366.630815 73.105802 
L 410.665358 73.105802 
L 410.665358 69.511945 
L 366.630815 69.511945 
z
" clip-path="url(#p50ee27cb4f)" style="fill: #ebeced"/>
   </g>
   <g id="patch_153">
    <path d="M 366.630815 123.020478 
L 410.665358 123.020478 
L 410.665358 119.426621 
L 366.630815 119.426621 
z
" clip-path="url(#p50ee27cb4f)" style="fill: #ebeced"/>
   </g>
   <g id="patch_154">
    <path d="M 366.630815 23.191126 
L 410.665358 23.191126 
L 410.665358 19.59727 
L 366.630815 19.59727 
z
" clip-path="url(#p50ee27cb4f)" style="fill: #ebeced"/>
   </g>
   <g id="patch_155">
    <path d="M 414.57954 31.576792 
L 458.614083 31.576792 
L 458.614083 27.982935 
L 414.57954 27.982935 
z
" clip-path="url(#p50ee27cb4f)" style="fill: #ebeced"/>
   </g>
   <g id="patch_156">
    <path d="M 414.57954 81.491468 
L 458.614083 81.491468 
L 458.614083 77.897611 
L 414.57954 77.897611 
z
" clip-path="url(#p50ee27cb4f)" style="fill: #ebeced"/>
   </g>
   <g id="patch_157">
    <path d="M 414.57954 36.767918 
L 458.614083 36.767918 
L 458.614083 33.174061 
L 414.57954 33.174061 
z
" clip-path="url(#p50ee27cb4f)" style="fill: #ebeced"/>
   </g>
   <g id="patch_158">
    <path d="M 414.57954 86.682594 
L 458.614083 86.682594 
L 458.614083 83.088737 
L 414.57954 83.088737 
z
" clip-path="url(#p50ee27cb4f)" style="fill: #ebeced"/>
   </g>
   <g id="patch_159">
    <path d="M 414.57954 41.959044 
L 458.614083 41.959044 
L 458.614083 38.365188 
L 414.57954 38.365188 
z
" clip-path="url(#p50ee27cb4f)" style="fill: #ebeced"/>
   </g>
   <g id="patch_160">
    <path d="M 414.57954 91.87372 
L 458.614083 91.87372 
L 458.614083 88.279863 
L 414.57954 88.279863 
z
" clip-path="url(#p50ee27cb4f)" style="fill: #ebeced"/>
   </g>
   <g id="patch_161">
    <path d="M 414.57954 47.150171 
L 458.614083 47.150171 
L 458.614083 43.556314 
L 414.57954 43.556314 
z
" clip-path="url(#p50ee27cb4f)" style="fill: #ebeced"/>
   </g>
   <g id="patch_162">
    <path d="M 414.57954 97.064846 
L 458.614083 97.064846 
L 458.614083 93.47099 
L 414.57954 93.47099 
z
" clip-path="url(#p50ee27cb4f)" style="fill: #ebeced"/>
   </g>
   <g id="patch_163">
    <path d="M 414.57954 52.341297 
L 458.614083 52.341297 
L 458.614083 48.74744 
L 414.57954 48.74744 
z
" clip-path="url(#p50ee27cb4f)" style="fill: #ebeced"/>
   </g>
   <g id="patch_164">
    <path d="M 414.57954 102.255973 
L 458.614083 102.255973 
L 458.614083 98.662116 
L 414.57954 98.662116 
z
" clip-path="url(#p50ee27cb4f)" style="fill: #ebeced"/>
   </g>
   <g id="patch_165">
    <path d="M 414.57954 57.532423 
L 458.614083 57.532423 
L 458.614083 53.938567 
L 414.57954 53.938567 
z
" clip-path="url(#p50ee27cb4f)" style="fill: #ebeced"/>
   </g>
   <g id="patch_166">
    <path d="M 414.57954 107.447099 
L 458.614083 107.447099 
L 458.614083 103.853242 
L 414.57954 103.853242 
z
" clip-path="url(#p50ee27cb4f)" style="fill: #ebeced"/>
   </g>
   <g id="patch_167">
    <path d="M 414.57954 62.723549 
L 458.614083 62.723549 
L 458.614083 59.129693 
L 414.57954 59.129693 
z
" clip-path="url(#p50ee27cb4f)" style="fill: #ebeced"/>
   </g>
   <g id="patch_168">
    <path d="M 414.57954 112.638225 
L 458.614083 112.638225 
L 458.614083 109.044369 
L 414.57954 109.044369 
z
" clip-path="url(#p50ee27cb4f)" style="fill: #ebeced"/>
   </g>
   <g id="patch_169">
    <path d="M 414.57954 67.914676 
L 458.614083 67.914676 
L 458.614083 64.320819 
L 414.57954 64.320819 
z
" clip-path="url(#p50ee27cb4f)" style="fill: #ebeced"/>
   </g>
   <g id="patch_170">
    <path d="M 414.57954 117.829352 
L 458.614083 117.829352 
L 458.614083 114.235495 
L 414.57954 114.235495 
z
" clip-path="url(#p50ee27cb4f)" style="fill: #ebeced"/>
   </g>
   <g id="patch_171">
    <path d="M 414.57954 73.105802 
L 458.614083 73.105802 
L 458.614083 69.511945 
L 414.57954 69.511945 
z
" clip-path="url(#p50ee27cb4f)" style="fill: #ebeced"/>
   </g>
   <g id="patch_172">
    <path d="M 414.57954 123.020478 
L 458.614083 123.020478 
L 458.614083 119.426621 
L 414.57954 119.426621 
z
" clip-path="url(#p50ee27cb4f)" style="fill: #ebeced"/>
   </g>
   <g id="patch_173">
    <path d="M 414.57954 23.191126 
L 458.614083 23.191126 
L 458.614083 19.59727 
L 414.57954 19.59727 
z
" clip-path="url(#p50ee27cb4f)" style="fill: #ebeced"/>
   </g>
   <g id="patch_174">
    <path d="M 462.528264 31.576792 
L 506.562807 31.576792 
L 506.562807 27.982935 
L 462.528264 27.982935 
z
" clip-path="url(#p50ee27cb4f)" style="fill: #ebeced"/>
   </g>
   <g id="patch_175">
    <path d="M 462.528264 81.491468 
L 506.562807 81.491468 
L 506.562807 77.897611 
L 462.528264 77.897611 
z
" clip-path="url(#p50ee27cb4f)" style="fill: #ebeced"/>
   </g>
   <g id="patch_176">
    <path d="M 462.528264 36.767918 
L 506.562807 36.767918 
L 506.562807 33.174061 
L 462.528264 33.174061 
z
" clip-path="url(#p50ee27cb4f)" style="fill: #ebeced"/>
   </g>
   <g id="patch_177">
    <path d="M 462.528264 86.682594 
L 506.562807 86.682594 
L 506.562807 83.088737 
L 462.528264 83.088737 
z
" clip-path="url(#p50ee27cb4f)" style="fill: #ebeced"/>
   </g>
   <g id="patch_178">
    <path d="M 462.528264 41.959044 
L 506.562807 41.959044 
L 506.562807 38.365188 
L 462.528264 38.365188 
z
" clip-path="url(#p50ee27cb4f)" style="fill: #ebeced"/>
   </g>
   <g id="patch_179">
    <path d="M 462.528264 91.87372 
L 506.562807 91.87372 
L 506.562807 88.279863 
L 462.528264 88.279863 
z
" clip-path="url(#p50ee27cb4f)" style="fill: #ebeced"/>
   </g>
   <g id="patch_180">
    <path d="M 462.528264 47.150171 
L 506.562807 47.150171 
L 506.562807 43.556314 
L 462.528264 43.556314 
z
" clip-path="url(#p50ee27cb4f)" style="fill: #ebeced"/>
   </g>
   <g id="patch_181">
    <path d="M 462.528264 97.064846 
L 506.562807 97.064846 
L 506.562807 93.47099 
L 462.528264 93.47099 
z
" clip-path="url(#p50ee27cb4f)" style="fill: #ebeced"/>
   </g>
   <g id="patch_182">
    <path d="M 462.528264 52.341297 
L 506.562807 52.341297 
L 506.562807 48.74744 
L 462.528264 48.74744 
z
" clip-path="url(#p50ee27cb4f)" style="fill: #ebeced"/>
   </g>
   <g id="patch_183">
    <path d="M 462.528264 102.255973 
L 506.562807 102.255973 
L 506.562807 98.662116 
L 462.528264 98.662116 
z
" clip-path="url(#p50ee27cb4f)" style="fill: #ebeced"/>
   </g>
   <g id="patch_184">
    <path d="M 462.528264 57.532423 
L 506.562807 57.532423 
L 506.562807 53.938567 
L 462.528264 53.938567 
z
" clip-path="url(#p50ee27cb4f)" style="fill: #ebeced"/>
   </g>
   <g id="patch_185">
    <path d="M 462.528264 107.447099 
L 506.562807 107.447099 
L 506.562807 103.853242 
L 462.528264 103.853242 
z
" clip-path="url(#p50ee27cb4f)" style="fill: #ebeced"/>
   </g>
   <g id="patch_186">
    <path d="M 462.528264 62.723549 
L 506.562807 62.723549 
L 506.562807 59.129693 
L 462.528264 59.129693 
z
" clip-path="url(#p50ee27cb4f)" style="fill: #ebeced"/>
   </g>
   <g id="patch_187">
    <path d="M 462.528264 112.638225 
L 506.562807 112.638225 
L 506.562807 109.044369 
L 462.528264 109.044369 
z
" clip-path="url(#p50ee27cb4f)" style="fill: #ebeced"/>
   </g>
   <g id="patch_188">
    <path d="M 462.528264 67.914676 
L 506.562807 67.914676 
L 506.562807 64.320819 
L 462.528264 64.320819 
z
" clip-path="url(#p50ee27cb4f)" style="fill: #ebeced"/>
   </g>
   <g id="patch_189">
    <path d="M 462.528264 117.829352 
L 506.562807 117.829352 
L 506.562807 114.235495 
L 462.528264 114.235495 
z
" clip-path="url(#p50ee27cb4f)" style="fill: #ebeced"/>
   </g>
   <g id="patch_190">
    <path d="M 462.528264 73.105802 
L 506.562807 73.105802 
L 506.562807 69.511945 
L 462.528264 69.511945 
z
" clip-path="url(#p50ee27cb4f)" style="fill: #ebeced"/>
   </g>
   <g id="patch_191">
    <path d="M 462.528264 123.020478 
L 506.562807 123.020478 
L 506.562807 119.426621 
L 462.528264 119.426621 
z
" clip-path="url(#p50ee27cb4f)" style="fill: #ebeced"/>
   </g>
   <g id="patch_192">
    <path d="M 462.528264 23.191126 
L 506.562807 23.191126 
L 506.562807 19.59727 
L 462.528264 19.59727 
z
" clip-path="url(#p50ee27cb4f)" style="fill: #ebeced"/>
   </g>
   <g id="patch_193">
    <path d="M 510.476989 31.576792 
L 554.511532 31.576792 
L 554.511532 27.982935 
L 510.476989 27.982935 
z
" clip-path="url(#p50ee27cb4f)" style="fill: #ebeced"/>
   </g>
   <g id="patch_194">
    <path d="M 510.476989 81.491468 
L 554.511532 81.491468 
L 554.511532 77.897611 
L 510.476989 77.897611 
z
" clip-path="url(#p50ee27cb4f)" style="fill: #ebeced"/>
   </g>
   <g id="patch_195">
    <path d="M 510.476989 36.767918 
L 554.511532 36.767918 
L 554.511532 33.174061 
L 510.476989 33.174061 
z
" clip-path="url(#p50ee27cb4f)" style="fill: #ebeced"/>
   </g>
   <g id="patch_196">
    <path d="M 510.476989 86.682594 
L 554.511532 86.682594 
L 554.511532 83.088737 
L 510.476989 83.088737 
z
" clip-path="url(#p50ee27cb4f)" style="fill: #ebeced"/>
   </g>
   <g id="patch_197">
    <path d="M 510.476989 41.959044 
L 554.511532 41.959044 
L 554.511532 38.365188 
L 510.476989 38.365188 
z
" clip-path="url(#p50ee27cb4f)" style="fill: #ebeced"/>
   </g>
   <g id="patch_198">
    <path d="M 510.476989 91.87372 
L 554.511532 91.87372 
L 554.511532 88.279863 
L 510.476989 88.279863 
z
" clip-path="url(#p50ee27cb4f)" style="fill: #ebeced"/>
   </g>
   <g id="patch_199">
    <path d="M 510.476989 47.150171 
L 554.511532 47.150171 
L 554.511532 43.556314 
L 510.476989 43.556314 
z
" clip-path="url(#p50ee27cb4f)" style="fill: #ebeced"/>
   </g>
   <g id="patch_200">
    <path d="M 510.476989 97.064846 
L 554.511532 97.064846 
L 554.511532 93.47099 
L 510.476989 93.47099 
z
" clip-path="url(#p50ee27cb4f)" style="fill: #ebeced"/>
   </g>
   <g id="patch_201">
    <path d="M 510.476989 52.341297 
L 554.511532 52.341297 
L 554.511532 48.74744 
L 510.476989 48.74744 
z
" clip-path="url(#p50ee27cb4f)" style="fill: #ebeced"/>
   </g>
   <g id="patch_202">
    <path d="M 510.476989 102.255973 
L 554.511532 102.255973 
L 554.511532 98.662116 
L 510.476989 98.662116 
z
" clip-path="url(#p50ee27cb4f)" style="fill: #ebeced"/>
   </g>
   <g id="patch_203">
    <path d="M 510.476989 57.532423 
L 554.511532 57.532423 
L 554.511532 53.938567 
L 510.476989 53.938567 
z
" clip-path="url(#p50ee27cb4f)" style="fill: #ebeced"/>
   </g>
   <g id="patch_204">
    <path d="M 510.476989 107.447099 
L 554.511532 107.447099 
L 554.511532 103.853242 
L 510.476989 103.853242 
z
" clip-path="url(#p50ee27cb4f)" style="fill: #ebeced"/>
   </g>
   <g id="patch_205">
    <path d="M 510.476989 62.723549 
L 554.511532 62.723549 
L 554.511532 59.129693 
L 510.476989 59.129693 
z
" clip-path="url(#p50ee27cb4f)" style="fill: #ebeced"/>
   </g>
   <g id="patch_206">
    <path d="M 510.476989 112.638225 
L 554.511532 112.638225 
L 554.511532 109.044369 
L 510.476989 109.044369 
z
" clip-path="url(#p50ee27cb4f)" style="fill: #ebeced"/>
   </g>
   <g id="patch_207">
    <path d="M 510.476989 67.914676 
L 554.511532 67.914676 
L 554.511532 64.320819 
L 510.476989 64.320819 
z
" clip-path="url(#p50ee27cb4f)" style="fill: #ebeced"/>
   </g>
   <g id="patch_208">
    <path d="M 510.476989 117.829352 
L 554.511532 117.829352 
L 554.511532 114.235495 
L 510.476989 114.235495 
z
" clip-path="url(#p50ee27cb4f)" style="fill: #ebeced"/>
   </g>
   <g id="patch_209">
    <path d="M 510.476989 73.105802 
L 554.511532 73.105802 
L 554.511532 69.511945 
L 510.476989 69.511945 
z
" clip-path="url(#p50ee27cb4f)" style="fill: #ebeced"/>
   </g>
   <g id="patch_210">
    <path d="M 510.476989 123.020478 
L 554.511532 123.020478 
L 554.511532 119.426621 
L 510.476989 119.426621 
z
" clip-path="url(#p50ee27cb4f)" style="fill: #ebeced"/>
   </g>
   <g id="patch_211">
    <path d="M 510.476989 23.191126 
L 554.511532 23.191126 
L 554.511532 19.59727 
L 510.476989 19.59727 
z
" clip-path="url(#p50ee27cb4f)" style="fill: #ebeced"/>
   </g>
   <g id="patch_212">
    <path d="M 558.425713 31.576792 
L 602.460256 31.576792 
L 602.460256 27.982935 
L 558.425713 27.982935 
z
" clip-path="url(#p50ee27cb4f)" style="fill: #ebeced"/>
   </g>
   <g id="patch_213">
    <path d="M 558.425713 81.491468 
L 602.460256 81.491468 
L 602.460256 77.897611 
L 558.425713 77.897611 
z
" clip-path="url(#p50ee27cb4f)" style="fill: #ebeced"/>
   </g>
   <g id="patch_214">
    <path d="M 558.425713 36.767918 
L 602.460256 36.767918 
L 602.460256 33.174061 
L 558.425713 33.174061 
z
" clip-path="url(#p50ee27cb4f)" style="fill: #ebeced"/>
   </g>
   <g id="patch_215">
    <path d="M 558.425713 86.682594 
L 602.460256 86.682594 
L 602.460256 83.088737 
L 558.425713 83.088737 
z
" clip-path="url(#p50ee27cb4f)" style="fill: #ebeced"/>
   </g>
   <g id="patch_216">
    <path d="M 558.425713 41.959044 
L 602.460256 41.959044 
L 602.460256 38.365188 
L 558.425713 38.365188 
z
" clip-path="url(#p50ee27cb4f)" style="fill: #ebeced"/>
   </g>
   <g id="patch_217">
    <path d="M 558.425713 91.87372 
L 602.460256 91.87372 
L 602.460256 88.279863 
L 558.425713 88.279863 
z
" clip-path="url(#p50ee27cb4f)" style="fill: #ebeced"/>
   </g>
   <g id="patch_218">
    <path d="M 558.425713 47.150171 
L 602.460256 47.150171 
L 602.460256 43.556314 
L 558.425713 43.556314 
z
" clip-path="url(#p50ee27cb4f)" style="fill: #ebeced"/>
   </g>
   <g id="patch_219">
    <path d="M 558.425713 97.064846 
L 602.460256 97.064846 
L 602.460256 93.47099 
L 558.425713 93.47099 
z
" clip-path="url(#p50ee27cb4f)" style="fill: #ebeced"/>
   </g>
   <g id="patch_220">
    <path d="M 558.425713 52.341297 
L 602.460256 52.341297 
L 602.460256 48.74744 
L 558.425713 48.74744 
z
" clip-path="url(#p50ee27cb4f)" style="fill: #ebeced"/>
   </g>
   <g id="patch_221">
    <path d="M 558.425713 102.255973 
L 602.460256 102.255973 
L 602.460256 98.662116 
L 558.425713 98.662116 
z
" clip-path="url(#p50ee27cb4f)" style="fill: #ebeced"/>
   </g>
   <g id="patch_222">
    <path d="M 558.425713 57.532423 
L 602.460256 57.532423 
L 602.460256 53.938567 
L 558.425713 53.938567 
z
" clip-path="url(#p50ee27cb4f)" style="fill: #ebeced"/>
   </g>
   <g id="patch_223">
    <path d="M 558.425713 107.447099 
L 602.460256 107.447099 
L 602.460256 103.853242 
L 558.425713 103.853242 
z
" clip-path="url(#p50ee27cb4f)" style="fill: #ebeced"/>
   </g>
   <g id="patch_224">
    <path d="M 558.425713 62.723549 
L 602.460256 62.723549 
L 602.460256 59.129693 
L 558.425713 59.129693 
z
" clip-path="url(#p50ee27cb4f)" style="fill: #ebeced"/>
   </g>
   <g id="patch_225">
    <path d="M 558.425713 112.638225 
L 602.460256 112.638225 
L 602.460256 109.044369 
L 558.425713 109.044369 
z
" clip-path="url(#p50ee27cb4f)" style="fill: #ebeced"/>
   </g>
   <g id="patch_226">
    <path d="M 558.425713 67.914676 
L 602.460256 67.914676 
L 602.460256 64.320819 
L 558.425713 64.320819 
z
" clip-path="url(#p50ee27cb4f)" style="fill: #ebeced"/>
   </g>
   <g id="patch_227">
    <path d="M 558.425713 117.829352 
L 602.460256 117.829352 
L 602.460256 114.235495 
L 558.425713 114.235495 
z
" clip-path="url(#p50ee27cb4f)" style="fill: #ebeced"/>
   </g>
   <g id="patch_228">
    <path d="M 558.425713 73.105802 
L 602.460256 73.105802 
L 602.460256 69.511945 
L 558.425713 69.511945 
z
" clip-path="url(#p50ee27cb4f)" style="fill: #ebeced"/>
   </g>
   <g id="patch_229">
    <path d="M 558.425713 123.020478 
L 602.460256 123.020478 
L 602.460256 119.426621 
L 558.425713 119.426621 
z
" clip-path="url(#p50ee27cb4f)" style="fill: #ebeced"/>
   </g>
   <g id="patch_230">
    <path d="M 558.425713 23.191126 
L 602.460256 23.191126 
L 602.460256 19.59727 
L 558.425713 19.59727 
z
" clip-path="url(#p50ee27cb4f)" style="fill: #ebeced"/>
   </g>
   <g id="matplotlib.axis_1"/>
   <g id="matplotlib.axis_2"/>
   <g id="patch_231">
    <path d="M 30.989744 52.341297 
L 75.024287 52.341297 
L 75.024287 48.74744 
L 30.989744 48.74744 
z
" clip-path="url(#p50ee27cb4f)" style="fill: #e36aae"/>
   </g>
   <g id="patch_232">
    <path d="M 30.989744 102.255973 
L 75.024287 102.255973 
L 75.024287 98.662116 
L 30.989744 98.662116 
z
" clip-path="url(#p50ee27cb4f)" style="fill: #e36aae"/>
   </g>
   <g id="patch_233">
    <path d="M 78.938468 67.914676 
L 122.973011 67.914676 
L 122.973011 64.320819 
L 78.938468 64.320819 
z
" clip-path="url(#p50ee27cb4f)" style="fill: #dbdc8d"/>
   </g>
   <g id="patch_234">
    <path d="M 78.938468 117.829352 
L 122.973011 117.829352 
L 122.973011 114.235495 
L 78.938468 114.235495 
z
" clip-path="url(#p50ee27cb4f)" style="fill: #dbdc8d"/>
   </g>
   <g id="patch_235">
    <path d="M 126.887193 52.341297 
L 170.921736 52.341297 
L 170.921736 48.74744 
L 126.887193 48.74744 
z
" clip-path="url(#p50ee27cb4f)" style="fill: #e36aae"/>
   </g>
   <g id="patch_236">
    <path d="M 126.887193 102.255973 
L 170.921736 102.255973 
L 170.921736 98.662116 
L 126.887193 98.662116 
z
" clip-path="url(#p50ee27cb4f)" style="fill: #e36aae"/>
   </g>
   <g id="patch_237">
    <path d="M 176.059099 31.576792 
L 176.67069 31.576792 
L 176.67069 27.982935 
L 176.059099 27.982935 
z
" clip-path="url(#p50ee27cb4f)" style="fill: #1f5aa6"/>
   </g>
   <g id="patch_238">
    <path d="M 178.260826 31.576792 
L 182.66428 31.576792 
L 182.66428 27.982935 
L 178.260826 27.982935 
z
" clip-path="url(#p50ee27cb4f)" style="fill: #1f5aa6"/>
   </g>
   <g id="patch_239">
    <path d="M 174.835917 81.491468 
L 182.66428 81.491468 
L 182.66428 77.897611 
L 174.835917 77.897611 
z
" clip-path="url(#p50ee27cb4f)" style="fill: #1f5aa6"/>
   </g>
   <g id="patch_240">
    <path d="M 174.835917 67.914676 
L 176.059099 67.914676 
L 176.059099 64.320819 
L 174.835917 64.320819 
z
" clip-path="url(#p50ee27cb4f)" style="fill: #dbdc8d"/>
   </g>
   <g id="patch_241">
    <path d="M 176.67069 67.914676 
L 178.260826 67.914676 
L 178.260826 64.320819 
L 176.67069 64.320819 
z
" clip-path="url(#p50ee27cb4f)" style="fill: #dbdc8d"/>
   </g>
   <g id="patch_242">
    <path d="M 182.66428 67.914676 
L 218.87046 67.914676 
L 218.87046 64.320819 
L 182.66428 64.320819 
z
" clip-path="url(#p50ee27cb4f)" style="fill: #dbdc8d"/>
   </g>
   <g id="patch_243">
    <path d="M 182.66428 117.829352 
L 218.87046 117.829352 
L 218.87046 114.235495 
L 182.66428 114.235495 
z
" clip-path="url(#p50ee27cb4f)" style="fill: #dbdc8d"/>
   </g>
   <g id="patch_244">
    <path d="M 174.835917 23.191126 
L 176.059099 23.191126 
L 176.059099 19.59727 
L 174.835917 19.59727 
z
" clip-path="url(#p50ee27cb4f)" style="fill: #1f5aa6"/>
   </g>
   <g id="patch_245">
    <path d="M 176.67069 23.191126 
L 178.260826 23.191126 
L 178.260826 19.59727 
L 176.67069 19.59727 
z
" clip-path="url(#p50ee27cb4f)" style="fill: #1f5aa6"/>
   </g>
   <g id="patch_246">
    <path d="M 261.559503 31.576792 
L 266.819185 31.576792 
L 266.819185 27.982935 
L 261.559503 27.982935 
z
" clip-path="url(#p50ee27cb4f)" style="fill: #1f5aa6"/>
   </g>
   <g id="patch_247">
    <path d="M 255.443594 81.491468 
L 258.012276 81.491468 
L 258.012276 77.897611 
L 255.443594 77.897611 
z
" clip-path="url(#p50ee27cb4f)" style="fill: #1f5aa6"/>
   </g>
   <g id="patch_248">
    <path d="M 261.07023 81.491468 
L 261.314867 81.491468 
L 261.314867 77.897611 
L 261.07023 77.897611 
z
" clip-path="url(#p50ee27cb4f)" style="fill: #1f5aa6"/>
   </g>
   <g id="patch_249">
    <path d="M 261.437185 81.491468 
L 266.819185 81.491468 
L 266.819185 77.897611 
L 261.437185 77.897611 
z
" clip-path="url(#p50ee27cb4f)" style="fill: #1f5aa6"/>
   </g>
   <g id="patch_250">
    <path d="M 225.108687 107.447099 
L 225.231005 107.447099 
L 225.231005 103.853242 
L 225.108687 103.853242 
z
" clip-path="url(#p50ee27cb4f)" style="fill: #a7a9ac"/>
   </g>
   <g id="patch_251">
    <path d="M 225.353323 107.447099 
L 225.842596 107.447099 
L 225.842596 103.853242 
L 225.353323 103.853242 
z
" clip-path="url(#p50ee27cb4f)" style="fill: #a7a9ac"/>
   </g>
   <g id="patch_252">
    <path d="M 226.087232 107.447099 
L 226.698823 107.447099 
L 226.698823 103.853242 
L 226.087232 103.853242 
z
" clip-path="url(#p50ee27cb4f)" style="fill: #a7a9ac"/>
   </g>
   <g id="patch_253">
    <path d="M 256.42214 67.914676 
L 261.559503 67.914676 
L 261.559503 64.320819 
L 256.42214 64.320819 
z
" clip-path="url(#p50ee27cb4f)" style="fill: #dbdc8d"/>
   </g>
   <g id="patch_254">
    <path d="M 258.012276 117.829352 
L 261.07023 117.829352 
L 261.07023 114.235495 
L 258.012276 114.235495 
z
" clip-path="url(#p50ee27cb4f)" style="fill: #dbdc8d"/>
   </g>
   <g id="patch_255">
    <path d="M 261.314867 117.829352 
L 261.437185 117.829352 
L 261.437185 114.235495 
L 261.314867 114.235495 
z
" clip-path="url(#p50ee27cb4f)" style="fill: #dbdc8d"/>
   </g>
   <g id="patch_256">
    <path d="M 222.784642 73.105802 
L 256.42214 73.105802 
L 256.42214 69.511945 
L 222.784642 69.511945 
z
" clip-path="url(#p50ee27cb4f)" style="fill: #9edae6"/>
   </g>
   <g id="patch_257">
    <path d="M 222.784642 123.020478 
L 225.108687 123.020478 
L 225.108687 119.426621 
L 222.784642 119.426621 
z
" clip-path="url(#p50ee27cb4f)" style="fill: #9edae6"/>
   </g>
   <g id="patch_258">
    <path d="M 225.231005 123.020478 
L 225.353323 123.020478 
L 225.353323 119.426621 
L 225.231005 119.426621 
z
" clip-path="url(#p50ee27cb4f)" style="fill: #9edae6"/>
   </g>
   <g id="patch_259">
    <path d="M 225.842596 123.020478 
L 226.087232 123.020478 
L 226.087232 119.426621 
L 225.842596 119.426621 
z
" clip-path="url(#p50ee27cb4f)" style="fill: #9edae6"/>
   </g>
   <g id="patch_260">
    <path d="M 226.698823 123.020478 
L 255.443594 123.020478 
L 255.443594 119.426621 
L 226.698823 119.426621 
z
" clip-path="url(#p50ee27cb4f)" style="fill: #9edae6"/>
   </g>
   <g id="patch_261">
    <path d="M 225.108687 23.191126 
L 225.231005 23.191126 
L 225.231005 19.59727 
L 225.108687 19.59727 
z
" clip-path="url(#p50ee27cb4f)" style="fill: #a7a9ac"/>
   </g>
   <g id="patch_262">
    <path d="M 225.353323 23.191126 
L 225.842596 23.191126 
L 225.842596 19.59727 
L 225.353323 19.59727 
z
" clip-path="url(#p50ee27cb4f)" style="fill: #a7a9ac"/>
   </g>
   <g id="patch_263">
    <path d="M 226.087232 23.191126 
L 226.698823 23.191126 
L 226.698823 19.59727 
L 226.087232 19.59727 
z
" clip-path="url(#p50ee27cb4f)" style="fill: #a7a9ac"/>
   </g>
   <g id="patch_264">
    <path d="M 255.443594 23.191126 
L 258.012276 23.191126 
L 258.012276 19.59727 
L 255.443594 19.59727 
z
" clip-path="url(#p50ee27cb4f)" style="fill: #1f5aa6"/>
   </g>
   <g id="patch_265">
    <path d="M 261.07023 23.191126 
L 261.314867 23.191126 
L 261.314867 19.59727 
L 261.07023 19.59727 
z
" clip-path="url(#p50ee27cb4f)" style="fill: #1f5aa6"/>
   </g>
   <g id="patch_266">
    <path d="M 261.437185 23.191126 
L 261.559503 23.191126 
L 261.559503 19.59727 
L 261.437185 19.59727 
z
" clip-path="url(#p50ee27cb4f)" style="fill: #1f5aa6"/>
   </g>
   <g id="patch_267">
    <path d="M 290.548911 31.576792 
L 290.671229 31.576792 
L 290.671229 27.982935 
L 290.548911 27.982935 
z
" clip-path="url(#p50ee27cb4f)" style="fill: #1f5aa6"/>
   </g>
   <g id="patch_268">
    <path d="M 302.046819 81.491468 
L 304.982455 81.491468 
L 304.982455 77.897611 
L 302.046819 77.897611 
z
" clip-path="url(#p50ee27cb4f)" style="fill: #1f5aa6"/>
   </g>
   <g id="patch_269">
    <path d="M 305.104773 81.491468 
L 305.34941 81.491468 
L 305.34941 77.897611 
L 305.104773 77.897611 
z
" clip-path="url(#p50ee27cb4f)" style="fill: #1f5aa6"/>
   </g>
   <g id="patch_270">
    <path d="M 310.486773 67.914676 
L 314.767909 67.914676 
L 314.767909 64.320819 
L 310.486773 64.320819 
z
" clip-path="url(#p50ee27cb4f)" style="fill: #dbdc8d"/>
   </g>
   <g id="patch_271">
    <path d="M 270.733366 73.105802 
L 290.548911 73.105802 
L 290.548911 69.511945 
L 270.733366 69.511945 
z
" clip-path="url(#p50ee27cb4f)" style="fill: #9edae6"/>
   </g>
   <g id="patch_272">
    <path d="M 290.671229 73.105802 
L 310.486773 73.105802 
L 310.486773 69.511945 
L 290.671229 69.511945 
z
" clip-path="url(#p50ee27cb4f)" style="fill: #9edae6"/>
   </g>
   <g id="patch_273">
    <path d="M 270.733366 123.020478 
L 302.046819 123.020478 
L 302.046819 119.426621 
L 270.733366 119.426621 
z
" clip-path="url(#p50ee27cb4f)" style="fill: #9edae6"/>
   </g>
   <g id="patch_274">
    <path d="M 304.982455 123.020478 
L 305.104773 123.020478 
L 305.104773 119.426621 
L 304.982455 119.426621 
z
" clip-path="url(#p50ee27cb4f)" style="fill: #9edae6"/>
   </g>
   <g id="patch_275">
    <path d="M 305.34941 123.020478 
L 314.767909 123.020478 
L 314.767909 119.426621 
L 305.34941 119.426621 
z
" clip-path="url(#p50ee27cb4f)" style="fill: #9edae6"/>
   </g>
   <g id="patch_276">
    <path d="M 290.548911 23.191126 
L 290.671229 23.191126 
L 290.671229 19.59727 
L 290.548911 19.59727 
z
" clip-path="url(#p50ee27cb4f)" style="fill: #9edae6"/>
   </g>
   <g id="patch_277">
    <path d="M 302.046819 23.191126 
L 304.982455 23.191126 
L 304.982455 19.59727 
L 302.046819 19.59727 
z
" clip-path="url(#p50ee27cb4f)" style="fill: #1f5aa6"/>
   </g>
   <g id="patch_278">
    <path d="M 305.104773 23.191126 
L 305.34941 23.191126 
L 305.34941 19.59727 
L 305.104773 19.59727 
z
" clip-path="url(#p50ee27cb4f)" style="fill: #1f5aa6"/>
   </g>
   <g id="patch_279">
    <path d="M 310.486773 23.191126 
L 314.767909 23.191126 
L 314.767909 19.59727 
L 310.486773 19.59727 
z
" clip-path="url(#p50ee27cb4f)" style="fill: #9edae6"/>
   </g>
   <g id="patch_280">
    <path d="M 345.102817 81.491468 
L 346.937589 81.491468 
L 346.937589 77.897611 
L 345.102817 77.897611 
z
" clip-path="url(#p50ee27cb4f)" style="fill: #1f5aa6"/>
   </g>
   <g id="patch_281">
    <path d="M 349.995544 81.491468 
L 353.909725 81.491468 
L 353.909725 77.897611 
L 349.995544 77.897611 
z
" clip-path="url(#p50ee27cb4f)" style="fill: #1f5aa6"/>
   </g>
   <g id="patch_282">
    <path d="M 350.484816 52.341297 
L 362.716634 52.341297 
L 362.716634 48.74744 
L 350.484816 48.74744 
z
" clip-path="url(#p50ee27cb4f)" style="fill: #e36aae"/>
   </g>
   <g id="patch_283">
    <path d="M 353.909725 102.255973 
L 362.716634 102.255973 
L 362.716634 98.662116 
L 353.909725 98.662116 
z
" clip-path="url(#p50ee27cb4f)" style="fill: #e36aae"/>
   </g>
   <g id="patch_284">
    <path d="M 318.682091 67.914676 
L 350.484816 67.914676 
L 350.484816 64.320819 
L 318.682091 64.320819 
z
" clip-path="url(#p50ee27cb4f)" style="fill: #dbdc8d"/>
   </g>
   <g id="patch_285">
    <path d="M 318.682091 117.829352 
L 345.102817 117.829352 
L 345.102817 114.235495 
L 318.682091 114.235495 
z
" clip-path="url(#p50ee27cb4f)" style="fill: #dbdc8d"/>
   </g>
   <g id="patch_286">
    <path d="M 346.937589 123.020478 
L 349.995544 123.020478 
L 349.995544 119.426621 
L 346.937589 119.426621 
z
" clip-path="url(#p50ee27cb4f)" style="fill: #9edae6"/>
   </g>
   <g id="patch_287">
    <path d="M 345.102817 23.191126 
L 353.909725 23.191126 
L 353.909725 19.59727 
L 345.102817 19.59727 
z
" clip-path="url(#p50ee27cb4f)" style="fill: #1f5aa6"/>
   </g>
   <g id="patch_288">
    <path d="M 374.459179 81.491468 
L 386.201723 81.491468 
L 386.201723 77.897611 
L 374.459179 77.897611 
z
" clip-path="url(#p50ee27cb4f)" style="fill: #1f5aa6"/>
   </g>
   <g id="patch_289">
    <path d="M 366.630815 62.723549 
L 410.665358 62.723549 
L 410.665358 59.129693 
L 366.630815 59.129693 
z
" clip-path="url(#p50ee27cb4f)" style="fill: #f2856e"/>
   </g>
   <g id="patch_290">
    <path d="M 366.630815 112.638225 
L 374.459179 112.638225 
L 374.459179 109.044369 
L 366.630815 109.044369 
z
" clip-path="url(#p50ee27cb4f)" style="fill: #f2856e"/>
   </g>
   <g id="patch_291">
    <path d="M 386.201723 112.638225 
L 410.665358 112.638225 
L 410.665358 109.044369 
L 386.201723 109.044369 
z
" clip-path="url(#p50ee27cb4f)" style="fill: #f2856e"/>
   </g>
   <g id="patch_292">
    <path d="M 374.459179 23.191126 
L 386.201723 23.191126 
L 386.201723 19.59727 
L 374.459179 19.59727 
z
" clip-path="url(#p50ee27cb4f)" style="fill: #1f5aa6"/>
   </g>
   <g id="patch_293">
    <path d="M 414.57954 81.491468 
L 415.92504 81.491468 
L 415.92504 77.897611 
L 414.57954 77.897611 
z
" clip-path="url(#p50ee27cb4f)" style="fill: #1f5aa6"/>
   </g>
   <g id="patch_294">
    <path d="M 446.259947 81.491468 
L 446.382265 81.491468 
L 446.382265 77.897611 
L 446.259947 77.897611 
z
" clip-path="url(#p50ee27cb4f)" style="fill: #1f5aa6"/>
   </g>
   <g id="patch_295">
    <path d="M 446.504583 81.491468 
L 449.317902 81.491468 
L 449.317902 77.897611 
L 446.504583 77.897611 
z
" clip-path="url(#p50ee27cb4f)" style="fill: #1f5aa6"/>
   </g>
   <g id="patch_296">
    <path d="M 449.44022 81.491468 
L 449.684856 81.491468 
L 449.684856 77.897611 
L 449.44022 77.897611 
z
" clip-path="url(#p50ee27cb4f)" style="fill: #1f5aa6"/>
   </g>
   <g id="patch_297">
    <path d="M 414.57954 67.914676 
L 458.614083 67.914676 
L 458.614083 64.320819 
L 414.57954 64.320819 
z
" clip-path="url(#p50ee27cb4f)" style="fill: #dbdc8d"/>
   </g>
   <g id="patch_298">
    <path d="M 415.92504 117.829352 
L 446.259947 117.829352 
L 446.259947 114.235495 
L 415.92504 114.235495 
z
" clip-path="url(#p50ee27cb4f)" style="fill: #dbdc8d"/>
   </g>
   <g id="patch_299">
    <path d="M 446.382265 117.829352 
L 446.504583 117.829352 
L 446.504583 114.235495 
L 446.382265 114.235495 
z
" clip-path="url(#p50ee27cb4f)" style="fill: #dbdc8d"/>
   </g>
   <g id="patch_300">
    <path d="M 449.317902 123.020478 
L 449.44022 123.020478 
L 449.44022 119.426621 
L 449.317902 119.426621 
z
" clip-path="url(#p50ee27cb4f)" style="fill: #9edae6"/>
   </g>
   <g id="patch_301">
    <path d="M 449.684856 123.020478 
L 458.614083 123.020478 
L 458.614083 119.426621 
L 449.684856 119.426621 
z
" clip-path="url(#p50ee27cb4f)" style="fill: #9edae6"/>
   </g>
   <g id="patch_302">
    <path d="M 414.57954 23.191126 
L 415.92504 23.191126 
L 415.92504 19.59727 
L 414.57954 19.59727 
z
" clip-path="url(#p50ee27cb4f)" style="fill: #1f5aa6"/>
   </g>
   <g id="patch_303">
    <path d="M 446.259947 23.191126 
L 446.382265 23.191126 
L 446.382265 19.59727 
L 446.259947 19.59727 
z
" clip-path="url(#p50ee27cb4f)" style="fill: #1f5aa6"/>
   </g>
   <g id="patch_304">
    <path d="M 446.504583 23.191126 
L 458.614083 23.191126 
L 458.614083 19.59727 
L 446.504583 19.59727 
z
" clip-path="url(#p50ee27cb4f)" style="fill: #9edae6"/>
   </g>
   <g id="patch_305">
    <path d="M 489.927536 81.491468 
L 491.028399 81.491468 
L 491.028399 77.897611 
L 489.927536 77.897611 
z
" clip-path="url(#p50ee27cb4f)" style="fill: #1f5aa6"/>
   </g>
   <g id="patch_306">
    <path d="M 464.363037 52.341297 
L 506.562807 52.341297 
L 506.562807 48.74744 
L 464.363037 48.74744 
z
" clip-path="url(#p50ee27cb4f)" style="fill: #e36aae"/>
   </g>
   <g id="patch_307">
    <path d="M 462.528264 102.255973 
L 489.927536 102.255973 
L 489.927536 98.662116 
L 462.528264 98.662116 
z
" clip-path="url(#p50ee27cb4f)" style="fill: #e36aae"/>
   </g>
   <g id="patch_308">
    <path d="M 491.028399 102.255973 
L 493.841717 102.255973 
L 493.841717 98.662116 
L 491.028399 98.662116 
z
" clip-path="url(#p50ee27cb4f)" style="fill: #e36aae"/>
   </g>
   <g id="patch_309">
    <path d="M 462.528264 67.914676 
L 464.363037 67.914676 
L 464.363037 64.320819 
L 462.528264 64.320819 
z
" clip-path="url(#p50ee27cb4f)" style="fill: #dbdc8d"/>
   </g>
   <g id="patch_310">
    <path d="M 493.841717 117.829352 
L 506.562807 117.829352 
L 506.562807 114.235495 
L 493.841717 114.235495 
z
" clip-path="url(#p50ee27cb4f)" style="fill: #dbdc8d"/>
   </g>
   <g id="patch_311">
    <path d="M 462.528264 23.191126 
L 464.363037 23.191126 
L 464.363037 19.59727 
L 462.528264 19.59727 
z
" clip-path="url(#p50ee27cb4f)" style="fill: #e36aae"/>
   </g>
   <g id="patch_312">
    <path d="M 489.927536 23.191126 
L 491.028399 23.191126 
L 491.028399 19.59727 
L 489.927536 19.59727 
z
" clip-path="url(#p50ee27cb4f)" style="fill: #1f5aa6"/>
   </g>
   <g id="patch_313">
    <path d="M 493.841717 23.191126 
L 506.562807 23.191126 
L 506.562807 19.59727 
L 493.841717 19.59727 
z
" clip-path="url(#p50ee27cb4f)" style="fill: #dbdc8d"/>
   </g>
   <g id="patch_314">
    <path d="M 554.389214 31.576792 
L 554.511532 31.576792 
L 554.511532 27.982935 
L 554.389214 27.982935 
z
" clip-path="url(#p50ee27cb4f)" style="fill: #1f5aa6"/>
   </g>
   <g id="patch_315">
    <path d="M 515.614352 81.491468 
L 516.837534 81.491468 
L 516.837534 77.897611 
L 515.614352 77.897611 
z
" clip-path="url(#p50ee27cb4f)" style="fill: #1f5aa6"/>
   </g>
   <g id="patch_316">
    <path d="M 518.305352 81.491468 
L 519.406216 81.491468 
L 519.406216 77.897611 
L 518.305352 77.897611 
z
" clip-path="url(#p50ee27cb4f)" style="fill: #1f5aa6"/>
   </g>
   <g id="patch_317">
    <path d="M 519.528534 81.491468 
L 519.650852 81.491468 
L 519.650852 77.897611 
L 519.528534 77.897611 
z
" clip-path="url(#p50ee27cb4f)" style="fill: #1f5aa6"/>
   </g>
   <g id="patch_318">
    <path d="M 528.702397 81.491468 
L 531.026442 81.491468 
L 531.026442 77.897611 
L 528.702397 77.897611 
z
" clip-path="url(#p50ee27cb4f)" style="fill: #1f5aa6"/>
   </g>
   <g id="patch_319">
    <path d="M 531.14876 81.491468 
L 531.638033 81.491468 
L 531.638033 77.897611 
L 531.14876 77.897611 
z
" clip-path="url(#p50ee27cb4f)" style="fill: #1f5aa6"/>
   </g>
   <g id="patch_320">
    <path d="M 531.88267 81.491468 
L 532.004988 81.491468 
L 532.004988 77.897611 
L 531.88267 77.897611 
z
" clip-path="url(#p50ee27cb4f)" style="fill: #1f5aa6"/>
   </g>
   <g id="patch_321">
    <path d="M 542.646669 81.491468 
L 543.013623 81.491468 
L 543.013623 77.897611 
L 542.646669 77.897611 
z
" clip-path="url(#p50ee27cb4f)" style="fill: #1f5aa6"/>
   </g>
   <g id="patch_322">
    <path d="M 543.135942 81.491468 
L 545.704623 81.491468 
L 545.704623 77.897611 
L 543.135942 77.897611 
z
" clip-path="url(#p50ee27cb4f)" style="fill: #1f5aa6"/>
   </g>
   <g id="patch_323">
    <path d="M 549.618805 81.491468 
L 554.511532 81.491468 
L 554.511532 77.897611 
L 549.618805 77.897611 
z
" clip-path="url(#p50ee27cb4f)" style="fill: #1f5aa6"/>
   </g>
   <g id="patch_324">
    <path d="M 517.449125 41.959044 
L 529.558624 41.959044 
L 529.558624 38.365188 
L 517.449125 38.365188 
z
" clip-path="url(#p50ee27cb4f)" style="fill: #e97f2e"/>
   </g>
   <g id="patch_325">
    <path d="M 536.897715 41.959044 
L 540.56726 41.959044 
L 540.56726 38.365188 
L 536.897715 38.365188 
z
" clip-path="url(#p50ee27cb4f)" style="fill: #e97f2e"/>
   </g>
   <g id="patch_326">
    <path d="M 540.689578 41.959044 
L 542.646669 41.959044 
L 542.646669 38.365188 
L 540.689578 38.365188 
z
" clip-path="url(#p50ee27cb4f)" style="fill: #e97f2e"/>
   </g>
   <g id="patch_327">
    <path d="M 516.837534 91.87372 
L 518.305352 91.87372 
L 518.305352 88.279863 
L 516.837534 88.279863 
z
" clip-path="url(#p50ee27cb4f)" style="fill: #e97f2e"/>
   </g>
   <g id="patch_328">
    <path d="M 519.406216 91.87372 
L 519.528534 91.87372 
L 519.528534 88.279863 
L 519.406216 88.279863 
z
" clip-path="url(#p50ee27cb4f)" style="fill: #e97f2e"/>
   </g>
   <g id="patch_329">
    <path d="M 519.650852 91.87372 
L 528.702397 91.87372 
L 528.702397 88.279863 
L 519.650852 88.279863 
z
" clip-path="url(#p50ee27cb4f)" style="fill: #e97f2e"/>
   </g>
   <g id="patch_330">
    <path d="M 536.653078 91.87372 
L 542.646669 91.87372 
L 542.646669 88.279863 
L 536.653078 88.279863 
z
" clip-path="url(#p50ee27cb4f)" style="fill: #e97f2e"/>
   </g>
   <g id="patch_331">
    <path d="M 543.013623 91.87372 
L 543.135942 91.87372 
L 543.135942 88.279863 
L 543.013623 88.279863 
z
" clip-path="url(#p50ee27cb4f)" style="fill: #e97f2e"/>
   </g>
   <g id="patch_332">
    <path d="M 510.476989 47.150171 
L 517.449125 47.150171 
L 517.449125 43.556314 
L 510.476989 43.556314 
z
" clip-path="url(#p50ee27cb4f)" style="fill: #8c564b"/>
   </g>
   <g id="patch_333">
    <path d="M 529.558624 47.150171 
L 536.897715 47.150171 
L 536.897715 43.556314 
L 529.558624 43.556314 
z
" clip-path="url(#p50ee27cb4f)" style="fill: #8c564b"/>
   </g>
   <g id="patch_334">
    <path d="M 540.56726 47.150171 
L 540.689578 47.150171 
L 540.689578 43.556314 
L 540.56726 43.556314 
z
" clip-path="url(#p50ee27cb4f)" style="fill: #8c564b"/>
   </g>
   <g id="patch_335">
    <path d="M 542.646669 47.150171 
L 554.389214 47.150171 
L 554.389214 43.556314 
L 542.646669 43.556314 
z
" clip-path="url(#p50ee27cb4f)" style="fill: #8c564b"/>
   </g>
   <g id="patch_336">
    <path d="M 531.026442 97.064846 
L 531.14876 97.064846 
L 531.14876 93.47099 
L 531.026442 93.47099 
z
" clip-path="url(#p50ee27cb4f)" style="fill: #8c564b"/>
   </g>
   <g id="patch_337">
    <path d="M 531.638033 97.064846 
L 531.88267 97.064846 
L 531.88267 93.47099 
L 531.638033 93.47099 
z
" clip-path="url(#p50ee27cb4f)" style="fill: #8c564b"/>
   </g>
   <g id="patch_338">
    <path d="M 532.004988 97.064846 
L 533.962078 97.064846 
L 533.962078 93.47099 
L 532.004988 93.47099 
z
" clip-path="url(#p50ee27cb4f)" style="fill: #8c564b"/>
   </g>
   <g id="patch_339">
    <path d="M 510.476989 123.020478 
L 515.614352 123.020478 
L 515.614352 119.426621 
L 510.476989 119.426621 
z
" clip-path="url(#p50ee27cb4f)" style="fill: #9edae6"/>
   </g>
   <g id="patch_340">
    <path d="M 533.962078 123.020478 
L 536.653078 123.020478 
L 536.653078 119.426621 
L 533.962078 119.426621 
z
" clip-path="url(#p50ee27cb4f)" style="fill: #9edae6"/>
   </g>
   <g id="patch_341">
    <path d="M 545.704623 123.020478 
L 549.618805 123.020478 
L 549.618805 119.426621 
L 545.704623 119.426621 
z
" clip-path="url(#p50ee27cb4f)" style="fill: #9edae6"/>
   </g>
   <g id="patch_342">
    <path d="M 510.476989 23.191126 
L 517.449125 23.191126 
L 517.449125 19.59727 
L 510.476989 19.59727 
z
" clip-path="url(#p50ee27cb4f)" style="fill: #9edae6"/>
   </g>
   <g id="patch_343">
    <path d="M 518.305352 23.191126 
L 519.406216 23.191126 
L 519.406216 19.59727 
L 518.305352 19.59727 
z
" clip-path="url(#p50ee27cb4f)" style="fill: #1f5aa6"/>
   </g>
   <g id="patch_344">
    <path d="M 519.528534 23.191126 
L 519.650852 23.191126 
L 519.650852 19.59727 
L 519.528534 19.59727 
z
" clip-path="url(#p50ee27cb4f)" style="fill: #1f5aa6"/>
   </g>
   <g id="patch_345">
    <path d="M 528.702397 23.191126 
L 531.026442 23.191126 
L 531.026442 19.59727 
L 528.702397 19.59727 
z
" clip-path="url(#p50ee27cb4f)" style="fill: #1f5aa6"/>
   </g>
   <g id="patch_346">
    <path d="M 531.14876 23.191126 
L 531.638033 23.191126 
L 531.638033 19.59727 
L 531.14876 19.59727 
z
" clip-path="url(#p50ee27cb4f)" style="fill: #1f5aa6"/>
   </g>
   <g id="patch_347">
    <path d="M 531.88267 23.191126 
L 532.004988 23.191126 
L 532.004988 19.59727 
L 531.88267 19.59727 
z
" clip-path="url(#p50ee27cb4f)" style="fill: #1f5aa6"/>
   </g>
   <g id="patch_348">
    <path d="M 533.962078 23.191126 
L 536.897715 23.191126 
L 536.897715 19.59727 
L 533.962078 19.59727 
z
" clip-path="url(#p50ee27cb4f)" style="fill: #9edae6"/>
   </g>
   <g id="patch_349">
    <path d="M 540.56726 23.191126 
L 540.689578 23.191126 
L 540.689578 19.59727 
L 540.56726 19.59727 
z
" clip-path="url(#p50ee27cb4f)" style="fill: #e97f2e"/>
   </g>
   <g id="patch_350">
    <path d="M 542.646669 23.191126 
L 554.389214 23.191126 
L 554.389214 19.59727 
L 542.646669 19.59727 
z
" clip-path="url(#p50ee27cb4f)" style="fill: #1f5aa6"/>
   </g>
   <g id="patch_351">
    <path d="M 571.880713 31.576792 
L 602.460256 31.576792 
L 602.460256 27.982935 
L 571.880713 27.982935 
z
" clip-path="url(#p50ee27cb4f)" style="fill: #1f5aa6"/>
   </g>
   <g id="patch_352">
    <path d="M 558.425713 81.491468 
L 566.254077 81.491468 
L 566.254077 77.897611 
L 558.425713 77.897611 
z
" clip-path="url(#p50ee27cb4f)" style="fill: #1f5aa6"/>
   </g>
   <g id="patch_353">
    <path d="M 578.11894 81.491468 
L 578.241258 81.491468 
L 578.241258 77.897611 
L 578.11894 77.897611 
z
" clip-path="url(#p50ee27cb4f)" style="fill: #1f5aa6"/>
   </g>
   <g id="patch_354">
    <path d="M 578.363576 81.491468 
L 578.485894 81.491468 
L 578.485894 77.897611 
L 578.363576 77.897611 
z
" clip-path="url(#p50ee27cb4f)" style="fill: #1f5aa6"/>
   </g>
   <g id="patch_355">
    <path d="M 578.608212 81.491468 
L 578.975167 81.491468 
L 578.975167 77.897611 
L 578.608212 77.897611 
z
" clip-path="url(#p50ee27cb4f)" style="fill: #1f5aa6"/>
   </g>
   <g id="patch_356">
    <path d="M 579.097485 81.491468 
L 586.80353 81.491468 
L 586.80353 77.897611 
L 579.097485 77.897611 
z
" clip-path="url(#p50ee27cb4f)" style="fill: #1f5aa6"/>
   </g>
   <g id="patch_357">
    <path d="M 587.048166 81.491468 
L 587.170485 81.491468 
L 587.170485 77.897611 
L 587.048166 77.897611 
z
" clip-path="url(#p50ee27cb4f)" style="fill: #1f5aa6"/>
   </g>
   <g id="patch_358">
    <path d="M 558.425713 62.723549 
L 571.880713 62.723549 
L 571.880713 59.129693 
L 558.425713 59.129693 
z
" clip-path="url(#p50ee27cb4f)" style="fill: #f2856e"/>
   </g>
   <g id="patch_359">
    <path d="M 566.254077 112.638225 
L 578.11894 112.638225 
L 578.11894 109.044369 
L 566.254077 109.044369 
z
" clip-path="url(#p50ee27cb4f)" style="fill: #f2856e"/>
   </g>
   <g id="patch_360">
    <path d="M 578.241258 112.638225 
L 578.363576 112.638225 
L 578.363576 109.044369 
L 578.241258 109.044369 
z
" clip-path="url(#p50ee27cb4f)" style="fill: #f2856e"/>
   </g>
   <g id="patch_361">
    <path d="M 578.485894 112.638225 
L 578.608212 112.638225 
L 578.608212 109.044369 
L 578.485894 109.044369 
z
" clip-path="url(#p50ee27cb4f)" style="fill: #f2856e"/>
   </g>
   <g id="patch_362">
    <path d="M 578.975167 112.638225 
L 579.097485 112.638225 
L 579.097485 109.044369 
L 578.975167 109.044369 
z
" clip-path="url(#p50ee27cb4f)" style="fill: #f2856e"/>
   </g>
   <g id="patch_363">
    <path d="M 586.80353 117.829352 
L 587.048166 117.829352 
L 587.048166 114.235495 
L 586.80353 114.235495 
z
" clip-path="url(#p50ee27cb4f)" style="fill: #dbdc8d"/>
   </g>
   <g id="patch_364">
    <path d="M 587.170485 117.829352 
L 602.460256 117.829352 
L 602.460256 114.235495 
L 587.170485 114.235495 
z
" clip-path="url(#p50ee27cb4f)" style="fill: #dbdc8d"/>
   </g>
   <g id="patch_365">
    <path d="M 558.425713 23.191126 
L 566.254077 23.191126 
L 566.254077 19.59727 
L 558.425713 19.59727 
z
" clip-path="url(#p50ee27cb4f)" style="fill: #1f5aa6"/>
   </g>
   <g id="patch_366">
    <path d="M 571.880713 23.191126 
L 578.11894 23.191126 
L 578.11894 19.59727 
L 571.880713 19.59727 
z
" clip-path="url(#p50ee27cb4f)" style="fill: #f2856e"/>
   </g>
   <g id="patch_367">
    <path d="M 578.241258 23.191126 
L 578.363576 23.191126 
L 578.363576 19.59727 
L 578.241258 19.59727 
z
" clip-path="url(#p50ee27cb4f)" style="fill: #f2856e"/>
   </g>
   <g id="patch_368">
    <path d="M 578.485894 23.191126 
L 578.608212 23.191126 
L 578.608212 19.59727 
L 578.485894 19.59727 
z
" clip-path="url(#p50ee27cb4f)" style="fill: #f2856e"/>
   </g>
   <g id="patch_369">
    <path d="M 578.975167 23.191126 
L 579.097485 23.191126 
L 579.097485 19.59727 
L 578.975167 19.59727 
z
" clip-path="url(#p50ee27cb4f)" style="fill: #f2856e"/>
   </g>
   <g id="patch_370">
    <path d="M 586.80353 23.191126 
L 587.048166 23.191126 
L 587.048166 19.59727 
L 586.80353 19.59727 
z
" clip-path="url(#p50ee27cb4f)" style="fill: #dbdc8d"/>
   </g>
   <g id="patch_371">
    <path d="M 587.170485 23.191126 
L 602.460256 23.191126 
L 602.460256 19.59727 
L 587.170485 19.59727 
z
" clip-path="url(#p50ee27cb4f)" style="fill: #dbdc8d"/>
   </g>
   <g id="line2d_1">
    <path d="M 30.989744 127.013652 
L 75.024287 127.013652 
" clip-path="url(#p50ee27cb4f)" style="fill: none; stroke: #5a5a5a; stroke-width: 1.4"/>
   </g>
   <g id="text_1">
    <text style="font: 8.5px 'Arial'; text-anchor: end" x="27.89025" y="23.491971" transform="rotate(-0 27.89025 23.491971)">accuracy</text>
   </g>
   <g id="text_2">
    <text style="font: 8.5px 'Arial'; text-anchor: end" x="27.89025" y="52.741751" transform="rotate(-0 27.89025 52.741751)">labels</text>
   </g>
   <g id="text_3">
    <text style="font: 8.5px 'Arial'; text-anchor: end" x="27.89025" y="102.656427" transform="rotate(-0 27.89025 102.656427)">prediction</text>
   </g>
   <g id="text_4">
    <text style="font: 8px 'Arial'; text-anchor: middle" x="53.007015" y="135.135806" transform="rotate(-0 53.007015 135.135806)">15 secs</text>
   </g>
   <g id="text_5">
    <text style="font: 9px 'Arial'; text-anchor: middle" x="316.725" y="135.851588" transform="rotate(-0 316.725 135.851588)">videos</text>
   </g>
  </g>
 </g>
 <defs>
  <clipPath id="p50ee27cb4f">
   <rect x="30.75" y="18" width="571.95" height="117"/>
  </clipPath>
 </defs>
</svg>
