<?xml version="1.0" encoding="utf-8" standalone="no"?>
<!DOCTYPE svg PUBLIC "-//W3C//DTD SVG 1.1//EN"
  "http://www.w3.org/Graphics/SVG/1.1/DTD/svg11.dtd">
<svg xmlns:xlink="http://www.w3.org/1999/xlink" width="367.5pt" height="165pt" viewBox="0 0 367.5 165" xmlns="http://www.w3.org/2000/svg" version="1.1">
 <metadata>
  <rdf:RDF xmlns:dc="http://purl.org/dc/elements/1.1/" xmlns:cc="http://creativecommons.org/ns#" xmlns:rdf="http://www.w3.org/1999/02/22-rdf-syntax-ns#">
   <cc:Work>
    <dc:type rdf:resource="http://purl.org/dc/dcmitype/StillImage"/>
    <dc:date>2026-05-13T17:16:47.856133</dc:date>
    <dc:format>image/svg+xml</dc:format>
    <dc:creator>
     <cc:Agent>
      <dc:title>Matplotlib v3.9.4, https://matplotlib.org/</dc:title>
     </cc:Agent>
    </dc:creator>
   </cc:Work>
  </rdf:RDF>
 </metadata>
 <defs>
  <style type="text/css">*{stroke-linejoin: round; stroke-linecap: butt}</style>
 </defs>
 <g id="figure_1">
  <g id="patch_1">
   <path d="M 0 165 
L 367.5 165 
L 367.5 0 
L 0 0 
z
" style="fill: #ffffff"/>
  </g>
  <g id="axes_1">
   <g id="patch_2">
    <path d="M 29.4 115.5 
L 360.15 115.5 
L 360.15 16.5 
L 29.4 16.5 
z
" style="fill: #ffffff"/>
   </g>
   <g id="patch_3">
    <path d="M 29.763825 115.5 
L 32.343675 115.5 
L 32.343675 16.5 
L 29.763825 16.5 
z
" clip-path="url(#p194f49b9da)" style="fill: #bfb3d8"/>
   </g>
   <g id="patch_4">
    <path d="M 33.071325 115.5 
L 35.651175 115.5 
L 35.651175 16.5 
L 33.071325 16.5 
z
" clip-path="url(#p194f49b9da)" style="fill: #bfb3d8"/>
   </g>
   <g id="patch_5">
    <path d="M 36.378825 115.5 
L 38.958675 115.5 
L 38.958675 16.5 
L 36.378825 16.5 
z
" clip-path="url(#p194f49b9da)" style="fill: #bfb3d8"/>
   </g>
   <g id="patch_6">
    <path d="M 39.686325 115.5 
L 42.266175 115.5 
L 42.266175 16.5 
L 39.686325 16.5 
z
" clip-path="url(#p194f49b9da)" style="fill: #bfb3d8"/>
   </g>
   <g id="patch_7">
    <path d="M 42.993825 115.5 
L 45.573675 115.5 
L 45.573675 16.5 
L 42.993825 16.5 
z
" clip-path="url(#p194f49b9da)" style="fill: #bfb3d8"/>
   </g>
   <g id="patch_8">
    <path d="M 46.301325 115.5 
L 48.881175 115.5 
L 48.881175 16.5 
L 46.301325 16.5 
z
" clip-path="url(#p194f49b9da)" style="fill: #bfb3d8"/>
   </g>
   <g id="patch_9">
    <path d="M 49.608825 115.5 
L 52.188675 115.5 
L 52.188675 16.5 
L 49.608825 16.5 
z
" clip-path="url(#p194f49b9da)" style="fill: #bfb3d8"/>
   </g>
   <g id="patch_10">
    <path d="M 52.916325 115.5 
L 55.496175 115.5 
L 55.496175 16.5 
L 52.916325 16.5 
z
" clip-path="url(#p194f49b9da)" style="fill: #bfb3d8"/>
   </g>
   <g id="patch_11">
    <path d="M 56.223825 115.5 
L 58.803675 115.5 
L 58.803675 16.5 
L 56.223825 16.5 
z
" clip-path="url(#p194f49b9da)" style="fill: #bfb3d8"/>
   </g>
   <g id="patch_12">
    <path d="M 59.531325 115.5 
L 62.111175 115.5 
L 62.111175 16.5 
L 59.531325 16.5 
z
" clip-path="url(#p194f49b9da)" style="fill: #bfb3d8"/>
   </g>
   <g id="patch_13">
    <path d="M 62.838825 115.5 
L 65.418675 115.5 
L 65.418675 16.5 
L 62.838825 16.5 
z
" clip-path="url(#p194f49b9da)" style="fill: #bfb3d8"/>
   </g>
   <g id="patch_14">
    <path d="M 66.146325 115.5 
L 68.726175 115.5 
L 68.726175 16.5 
L 66.146325 16.5 
z
" clip-path="url(#p194f49b9da)" style="fill: #bfb3d8"/>
   </g>
   <g id="patch_15">
    <path d="M 69.453825 115.5 
L 72.033675 115.5 
L 72.033675 16.5 
L 69.453825 16.5 
z
" clip-path="url(#p194f49b9da)" style="fill: #bfb3d8"/>
   </g>
   <g id="patch_16">
    <path d="M 72.761325 115.5 
L 75.341175 115.5 
L 75.341175 16.5 
L 72.761325 16.5 
z
" clip-path="url(#p194f49b9da)" style="fill: #bfb3d8"/>
   </g>
   <g id="patch_17">
    <path d="M 76.068825 115.5 
L 78.648675 115.5 
L 78.648675 16.5 
L 76.068825 16.5 
z
" clip-path="url(#p194f49b9da)" style="fill: #bfb3d8"/>
   </g>
   <g id="patch_18">
    <path d="M 79.376325 115.5 
L 81.956175 115.5 
L 81.956175 16.5 
L 79.376325 16.5 
z
" clip-path="url(#p194f49b9da)" style="fill: #bfb3d8"/>
   </g>
   <g id="patch_19">
    <path d="M 82.683825 115.5 
L 85.263675 115.5 
L 85.263675 16.5 
L 82.683825 16.5 
z
" clip-path="url(#p194f49b9da)" style="fill: #bfb3d8"/>
   </g>
   <g id="patch_20">
    <path d="M 85.991325 115.5 
L 88.571175 115.5 
L 88.571175 17.05 
L 85.991325 17.05 
z
" clip-path="url(#p194f49b9da)" style="fill: #bfb3d8"/>
   </g>
   <g id="patch_21">
    <path d="M 89.298825 115.5 
L 91.878675 115.5 
L 91.878675 17.325 
L 89.298825 17.325 
z
" clip-path="url(#p194f49b9da)" style="fill: #bfb3d8"/>
   </g>
   <g id="patch_22">
    <path d="M 92.606325 115.5 
L 95.186175 115.5 
L 95.186175 19.25 
L 92.606325 19.25 
z
" clip-path="url(#p194f49b9da)" style="fill: #bfb3d8"/>
   </g>
   <g id="patch_23">
    <path d="M 95.913825 115.5 
L 98.493675 115.5 
L 98.493675 19.8 
L 95.913825 19.8 
z
" clip-path="url(#p194f49b9da)" style="fill: #bfb3d8"/>
   </g>
   <g id="patch_24">
    <path d="M 99.221325 115.5 
L 101.801175 115.5 
L 101.801175 20.075 
L 99.221325 20.075 
z
" clip-path="url(#p194f49b9da)" style="fill: #bfb3d8"/>
   </g>
   <g id="patch_25">
    <path d="M 102.528825 115.5 
L 105.108675 115.5 
L 105.108675 21.45 
L 102.528825 21.45 
z
" clip-path="url(#p194f49b9da)" style="fill: #bfb3d8"/>
   </g>
   <g id="patch_26">
    <path d="M 105.836325 115.5 
L 108.416175 115.5 
L 108.416175 22.55 
L 105.836325 22.55 
z
" clip-path="url(#p194f49b9da)" style="fill: #bfb3d8"/>
   </g>
   <g id="patch_27">
    <path d="M 109.143825 115.5 
L 111.723675 115.5 
L 111.723675 22.825 
L 109.143825 22.825 
z
" clip-path="url(#p194f49b9da)" style="fill: #bfb3d8"/>
   </g>
   <g id="patch_28">
    <path d="M 112.451325 115.5 
L 115.031175 115.5 
L 115.031175 22.825 
L 112.451325 22.825 
z
" clip-path="url(#p194f49b9da)" style="fill: #bfb3d8"/>
   </g>
   <g id="patch_29">
    <path d="M 115.758825 115.5 
L 118.338675 115.5 
L 118.338675 22.825 
L 115.758825 22.825 
z
" clip-path="url(#p194f49b9da)" style="fill: #bfb3d8"/>
   </g>
   <g id="patch_30">
    <path d="M 119.066325 115.5 
L 121.646175 115.5 
L 121.646175 23.375 
L 119.066325 23.375 
z
" clip-path="url(#p194f49b9da)" style="fill: #bfb3d8"/>
   </g>
   <g id="patch_31">
    <path d="M 122.373825 115.5 
L 124.953675 115.5 
L 124.953675 24.2 
L 122.373825 24.2 
z
" clip-path="url(#p194f49b9da)" style="fill: #bfb3d8"/>
   </g>
   <g id="patch_32">
    <path d="M 125.681325 115.5 
L 128.261175 115.5 
L 128.261175 24.75 
L 125.681325 24.75 
z
" clip-path="url(#p194f49b9da)" style="fill: #bfb3d8"/>
   </g>
   <g id="patch_33">
    <path d="M 128.988825 115.5 
L 131.568675 115.5 
L 131.568675 24.75 
L 128.988825 24.75 
z
" clip-path="url(#p194f49b9da)" style="fill: #bfb3d8"/>
   </g>
   <g id="patch_34">
    <path d="M 132.296325 115.5 
L 134.876175 115.5 
L 134.876175 25.575 
L 132.296325 25.575 
z
" clip-path="url(#p194f49b9da)" style="fill: #bfb3d8"/>
   </g>
   <g id="patch_35">
    <path d="M 135.603825 115.5 
L 138.183675 115.5 
L 138.183675 25.85 
L 135.603825 25.85 
z
" clip-path="url(#p194f49b9da)" style="fill: #bfb3d8"/>
   </g>
   <g id="patch_36">
    <path d="M 138.911325 115.5 
L 141.491175 115.5 
L 141.491175 26.95 
L 138.911325 26.95 
z
" clip-path="url(#p194f49b9da)" style="fill: #bfb3d8"/>
   </g>
   <g id="patch_37">
    <path d="M 142.218825 115.5 
L 144.798675 115.5 
L 144.798675 29.7 
L 142.218825 29.7 
z
" clip-path="url(#p194f49b9da)" style="fill: #bfb3d8"/>
   </g>
   <g id="patch_38">
    <path d="M 145.526325 115.5 
L 148.106175 115.5 
L 148.106175 30.25 
L 145.526325 30.25 
z
" clip-path="url(#p194f49b9da)" style="fill: #bfb3d8"/>
   </g>
   <g id="patch_39">
    <path d="M 148.833825 115.5 
L 151.413675 115.5 
L 151.413675 31.35 
L 148.833825 31.35 
z
" clip-path="url(#p194f49b9da)" style="fill: #bfb3d8"/>
   </g>
   <g id="patch_40">
    <path d="M 152.141325 115.5 
L 154.721175 115.5 
L 154.721175 31.625 
L 152.141325 31.625 
z
" clip-path="url(#p194f49b9da)" style="fill: #bfb3d8"/>
   </g>
   <g id="patch_41">
    <path d="M 155.448825 115.5 
L 158.028675 115.5 
L 158.028675 33.275 
L 155.448825 33.275 
z
" clip-path="url(#p194f49b9da)" style="fill: #bfb3d8"/>
   </g>
   <g id="patch_42">
    <path d="M 158.756325 115.5 
L 161.336175 115.5 
L 161.336175 33.275 
L 158.756325 33.275 
z
" clip-path="url(#p194f49b9da)" style="fill: #bfb3d8"/>
   </g>
   <g id="patch_43">
    <path d="M 162.063825 115.5 
L 164.643675 115.5 
L 164.643675 33.55 
L 162.063825 33.55 
z
" clip-path="url(#p194f49b9da)" style="fill: #bfb3d8"/>
   </g>
   <g id="patch_44">
    <path d="M 165.371325 115.5 
L 167.951175 115.5 
L 167.951175 33.825 
L 165.371325 33.825 
z
" clip-path="url(#p194f49b9da)" style="fill: #bfb3d8"/>
   </g>
   <g id="patch_45">
    <path d="M 168.678825 115.5 
L 171.258675 115.5 
L 171.258675 34.1 
L 168.678825 34.1 
z
" clip-path="url(#p194f49b9da)" style="fill: #bfb3d8"/>
   </g>
   <g id="patch_46">
    <path d="M 171.986325 115.5 
L 174.566175 115.5 
L 174.566175 34.1 
L 171.986325 34.1 
z
" clip-path="url(#p194f49b9da)" style="fill: #bfb3d8"/>
   </g>
   <g id="patch_47">
    <path d="M 175.293825 115.5 
L 177.873675 115.5 
L 177.873675 34.375 
L 175.293825 34.375 
z
" clip-path="url(#p194f49b9da)" style="fill: #bfb3d8"/>
   </g>
   <g id="patch_48">
    <path d="M 178.601325 115.5 
L 181.181175 115.5 
L 181.181175 34.925 
L 178.601325 34.925 
z
" clip-path="url(#p194f49b9da)" style="fill: #bfb3d8"/>
   </g>
   <g id="patch_49">
    <path d="M 181.908825 115.5 
L 184.488675 115.5 
L 184.488675 35.475 
L 181.908825 35.475 
z
" clip-path="url(#p194f49b9da)" style="fill: #bfb3d8"/>
   </g>
   <g id="patch_50">
    <path d="M 185.216325 115.5 
L 187.796175 115.5 
L 187.796175 35.475 
L 185.216325 35.475 
z
" clip-path="url(#p194f49b9da)" style="fill: #bfb3d8"/>
   </g>
   <g id="patch_51">
    <path d="M 188.523825 115.5 
L 191.103675 115.5 
L 191.103675 36.3 
L 188.523825 36.3 
z
" clip-path="url(#p194f49b9da)" style="fill: #bfb3d8"/>
   </g>
   <g id="patch_52">
    <path d="M 191.831325 115.5 
L 194.411175 115.5 
L 194.411175 38.561281 
L 191.831325 38.561281 
z
" clip-path="url(#p194f49b9da)" style="fill: #bfb3d8"/>
   </g>
   <g id="patch_53">
    <path d="M 195.138825 115.5 
L 197.718675 115.5 
L 197.718675 39.325 
L 195.138825 39.325 
z
" clip-path="url(#p194f49b9da)" style="fill: #bfb3d8"/>
   </g>
   <g id="patch_54">
    <path d="M 198.446325 115.5 
L 201.026175 115.5 
L 201.026175 41.25 
L 198.446325 41.25 
z
" clip-path="url(#p194f49b9da)" style="fill: #bfb3d8"/>
   </g>
   <g id="patch_55">
    <path d="M 201.753825 115.5 
L 204.333675 115.5 
L 204.333675 41.525 
L 201.753825 41.525 
z
" clip-path="url(#p194f49b9da)" style="fill: #bfb3d8"/>
   </g>
   <g id="patch_56">
    <path d="M 205.061325 115.5 
L 207.641175 115.5 
L 207.641175 41.525 
L 205.061325 41.525 
z
" clip-path="url(#p194f49b9da)" style="fill: #bfb3d8"/>
   </g>
   <g id="patch_57">
    <path d="M 208.368825 115.5 
L 210.948675 115.5 
L 210.948675 42.35 
L 208.368825 42.35 
z
" clip-path="url(#p194f49b9da)" style="fill: #bfb3d8"/>
   </g>
   <g id="patch_58">
    <path d="M 211.676325 115.5 
L 214.256175 115.5 
L 214.256175 42.422006 
L 211.676325 42.422006 
z
" clip-path="url(#p194f49b9da)" style="fill: #bfb3d8"/>
   </g>
   <g id="patch_59">
    <path d="M 214.983825 115.5 
L 217.563675 115.5 
L 217.563675 42.9 
L 214.983825 42.9 
z
" clip-path="url(#p194f49b9da)" style="fill: #bfb3d8"/>
   </g>
   <g id="patch_60">
    <path d="M 218.291325 115.5 
L 220.871175 115.5 
L 220.871175 42.9 
L 218.291325 42.9 
z
" clip-path="url(#p194f49b9da)" style="fill: #bfb3d8"/>
   </g>
   <g id="patch_61">
    <path d="M 221.598825 115.5 
L 224.178675 115.5 
L 224.178675 43.175 
L 221.598825 43.175 
z
" clip-path="url(#p194f49b9da)" style="fill: #bfb3d8"/>
   </g>
   <g id="patch_62">
    <path d="M 224.906325 115.5 
L 227.486175 115.5 
L 227.486175 43.175 
L 224.906325 43.175 
z
" clip-path="url(#p194f49b9da)" style="fill: #bfb3d8"/>
   </g>
   <g id="patch_63">
    <path d="M 228.213825 115.5 
L 230.793675 115.5 
L 230.793675 43.725 
L 228.213825 43.725 
z
" clip-path="url(#p194f49b9da)" style="fill: #bfb3d8"/>
   </g>
   <g id="patch_64">
    <path d="M 231.521325 115.5 
L 234.101175 115.5 
L 234.101175 45.375 
L 231.521325 45.375 
z
" clip-path="url(#p194f49b9da)" style="fill: #bfb3d8"/>
   </g>
   <g id="patch_65">
    <path d="M 234.828825 115.5 
L 237.408675 115.5 
L 237.408675 45.65 
L 234.828825 45.65 
z
" clip-path="url(#p194f49b9da)" style="fill: #bfb3d8"/>
   </g>
   <g id="patch_66">
    <path d="M 238.136325 115.5 
L 240.716175 115.5 
L 240.716175 46.2 
L 238.136325 46.2 
z
" clip-path="url(#p194f49b9da)" style="fill: #bfb3d8"/>
   </g>
   <g id="patch_67">
    <path d="M 241.443825 115.5 
L 244.023675 115.5 
L 244.023675 47.025 
L 241.443825 47.025 
z
" clip-path="url(#p194f49b9da)" style="fill: #bfb3d8"/>
   </g>
   <g id="patch_68">
    <path d="M 244.751325 115.5 
L 247.331175 115.5 
L 247.331175 48.125 
L 244.751325 48.125 
z
" clip-path="url(#p194f49b9da)" style="fill: #bfb3d8"/>
   </g>
   <g id="patch_69">
    <path d="M 248.058825 115.5 
L 250.638675 115.5 
L 250.638675 48.4 
L 248.058825 48.4 
z
" clip-path="url(#p194f49b9da)" style="fill: #bfb3d8"/>
   </g>
   <g id="patch_70">
    <path d="M 251.366325 115.5 
L 253.946175 115.5 
L 253.946175 48.675 
L 251.366325 48.675 
z
" clip-path="url(#p194f49b9da)" style="fill: #bfb3d8"/>
   </g>
   <g id="patch_71">
    <path d="M 254.673825 115.5 
L 257.253675 115.5 
L 257.253675 49.775 
L 254.673825 49.775 
z
" clip-path="url(#p194f49b9da)" style="fill: #bfb3d8"/>
   </g>
   <g id="patch_72">
    <path d="M 257.981325 115.5 
L 260.561175 115.5 
L 260.561175 50.05 
L 257.981325 50.05 
z
" clip-path="url(#p194f49b9da)" style="fill: #bfb3d8"/>
   </g>
   <g id="patch_73">
    <path d="M 261.288825 115.5 
L 263.868675 115.5 
L 263.868675 50.325 
L 261.288825 50.325 
z
" clip-path="url(#p194f49b9da)" style="fill: #bfb3d8"/>
   </g>
   <g id="patch_74">
    <path d="M 264.596325 115.5 
L 267.176175 115.5 
L 267.176175 50.875 
L 264.596325 50.875 
z
" clip-path="url(#p194f49b9da)" style="fill: #bfb3d8"/>
   </g>
   <g id="patch_75">
    <path d="M 267.903825 115.5 
L 270.483675 115.5 
L 270.483675 51.7 
L 267.903825 51.7 
z
" clip-path="url(#p194f49b9da)" style="fill: #bfb3d8"/>
   </g>
   <g id="patch_76">
    <path d="M 271.211325 115.5 
L 273.791175 115.5 
L 273.791175 56.1 
L 271.211325 56.1 
z
" clip-path="url(#p194f49b9da)" style="fill: #bfb3d8"/>
   </g>
   <g id="patch_77">
    <path d="M 274.518825 115.5 
L 277.098675 115.5 
L 277.098675 58.3 
L 274.518825 58.3 
z
" clip-path="url(#p194f49b9da)" style="fill: #bfb3d8"/>
   </g>
   <g id="patch_78">
    <path d="M 277.826325 115.5 
L 280.406175 115.5 
L 280.406175 60.775 
L 277.826325 60.775 
z
" clip-path="url(#p194f49b9da)" style="fill: #bfb3d8"/>
   </g>
   <g id="patch_79">
    <path d="M 281.133825 115.5 
L 283.713675 115.5 
L 283.713675 63.8 
L 281.133825 63.8 
z
" clip-path="url(#p194f49b9da)" style="fill: #bfb3d8"/>
   </g>
   <g id="patch_80">
    <path d="M 284.441325 115.5 
L 287.021175 115.5 
L 287.021175 66 
L 284.441325 66 
z
" clip-path="url(#p194f49b9da)" style="fill: #bfb3d8"/>
   </g>
   <g id="patch_81">
    <path d="M 287.748825 115.5 
L 290.328675 115.5 
L 290.328675 69.025 
L 287.748825 69.025 
z
" clip-path="url(#p194f49b9da)" style="fill: #bfb3d8"/>
   </g>
   <g id="patch_82">
    <path d="M 291.056325 115.5 
L 293.636175 115.5 
L 293.636175 71.775 
L 291.056325 71.775 
z
" clip-path="url(#p194f49b9da)" style="fill: #bfb3d8"/>
   </g>
   <g id="patch_83">
    <path d="M 294.363825 115.5 
L 296.943675 115.5 
L 296.943675 74.8 
L 294.363825 74.8 
z
" clip-path="url(#p194f49b9da)" style="fill: #bfb3d8"/>
   </g>
   <g id="patch_84">
    <path d="M 297.671325 115.5 
L 300.251175 115.5 
L 300.251175 78.1 
L 297.671325 78.1 
z
" clip-path="url(#p194f49b9da)" style="fill: #bfb3d8"/>
   </g>
   <g id="patch_85">
    <path d="M 300.978825 115.5 
L 303.558675 115.5 
L 303.558675 79.75 
L 300.978825 79.75 
z
" clip-path="url(#p194f49b9da)" style="fill: #bfb3d8"/>
   </g>
   <g id="patch_86">
    <path d="M 304.286325 115.5 
L 306.866175 115.5 
L 306.866175 80.3 
L 304.286325 80.3 
z
" clip-path="url(#p194f49b9da)" style="fill: #bfb3d8"/>
   </g>
   <g id="patch_87">
    <path d="M 307.593825 115.5 
L 310.173675 115.5 
L 310.173675 81.4 
L 307.593825 81.4 
z
" clip-path="url(#p194f49b9da)" style="fill: #bfb3d8"/>
   </g>
   <g id="patch_88">
    <path d="M 310.901325 115.5 
L 313.481175 115.5 
L 313.481175 82.225 
L 310.901325 82.225 
z
" clip-path="url(#p194f49b9da)" style="fill: #bfb3d8"/>
   </g>
   <g id="patch_89">
    <path d="M 314.208825 115.5 
L 316.788675 115.5 
L 316.788675 82.225 
L 314.208825 82.225 
z
" clip-path="url(#p194f49b9da)" style="fill: #bfb3d8"/>
   </g>
   <g id="patch_90">
    <path d="M 317.516325 115.5 
L 320.096175 115.5 
L 320.096175 82.225 
L 317.516325 82.225 
z
" clip-path="url(#p194f49b9da)" style="fill: #bfb3d8"/>
   </g>
   <g id="patch_91">
    <path d="M 320.823825 115.5 
L 323.403675 115.5 
L 323.403675 83.875 
L 320.823825 83.875 
z
" clip-path="url(#p194f49b9da)" style="fill: #bfb3d8"/>
   </g>
   <g id="patch_92">
    <path d="M 324.131325 115.5 
L 326.711175 115.5 
L 326.711175 84.15 
L 324.131325 84.15 
z
" clip-path="url(#p194f49b9da)" style="fill: #bfb3d8"/>
   </g>
   <g id="patch_93">
    <path d="M 327.438825 115.5 
L 330.018675 115.5 
L 330.018675 85.8 
L 327.438825 85.8 
z
" clip-path="url(#p194f49b9da)" style="fill: #bfb3d8"/>
   </g>
   <g id="patch_94">
    <path d="M 330.746325 115.5 
L 333.326175 115.5 
L 333.326175 86.075 
L 330.746325 86.075 
z
" clip-path="url(#p194f49b9da)" style="fill: #bfb3d8"/>
   </g>
   <g id="patch_95">
    <path d="M 334.053825 115.5 
L 336.633675 115.5 
L 336.633675 86.075 
L 334.053825 86.075 
z
" clip-path="url(#p194f49b9da)" style="fill: #bfb3d8"/>
   </g>
   <g id="patch_96">
    <path d="M 337.361325 115.5 
L 339.941175 115.5 
L 339.941175 86.35 
L 337.361325 86.35 
z
" clip-path="url(#p194f49b9da)" style="fill: #bfb3d8"/>
   </g>
   <g id="patch_97">
    <path d="M 340.668825 115.5 
L 343.248675 115.5 
L 343.248675 97.9 
L 340.668825 97.9 
z
" clip-path="url(#p194f49b9da)" style="fill: #bfb3d8"/>
   </g>
   <g id="patch_98">
    <path d="M 343.976325 115.5 
L 346.556175 115.5 
L 346.556175 99.55 
L 343.976325 99.55 
z
" clip-path="url(#p194f49b9da)" style="fill: #bfb3d8"/>
   </g>
   <g id="patch_99">
    <path d="M 347.283825 115.5 
L 349.863675 115.5 
L 349.863675 100.375 
L 347.283825 100.375 
z
" clip-path="url(#p194f49b9da)" style="fill: #bfb3d8"/>
   </g>
   <g id="patch_100">
    <path d="M 350.591325 115.5 
L 353.171175 115.5 
L 353.171175 107.8 
L 350.591325 107.8 
z
" clip-path="url(#p194f49b9da)" style="fill: #bfb3d8"/>
   </g>
   <g id="patch_101">
    <path d="M 353.898825 115.5 
L 356.478675 115.5 
L 356.478675 109.175 
L 353.898825 109.175 
z
" clip-path="url(#p194f49b9da)" style="fill: #bfb3d8"/>
   </g>
   <g id="patch_102">
    <path d="M 357.206325 115.5 
L 359.786175 115.5 
L 359.786175 115.5 
L 357.206325 115.5 
z
" clip-path="url(#p194f49b9da)" style="fill: #bfb3d8"/>
   </g>
   <g id="patch_103">
    <path d="M 29.763825 16.5 
L 32.343675 16.5 
L 32.343675 16.5 
L 29.763825 16.5 
z
" clip-path="url(#p194f49b9da)" style="fill: #991b1e"/>
   </g>
   <g id="patch_104">
    <path d="M 33.071325 16.5 
L 35.651175 16.5 
L 35.651175 16.5 
L 33.071325 16.5 
z
" clip-path="url(#p194f49b9da)" style="fill: #991b1e"/>
   </g>
   <g id="patch_105">
    <path d="M 36.378825 16.5 
L 38.958675 16.5 
L 38.958675 16.5 
L 36.378825 16.5 
z
" clip-path="url(#p194f49b9da)" style="fill: #991b1e"/>
   </g>
   <g id="patch_106">
    <path d="M 39.686325 16.5 
L 42.266175 16.5 
L 42.266175 16.5 
L 39.686325 16.5 
z
" clip-path="url(#p194f49b9da)" style="fill: #991b1e"/>
   </g>
   <g id="patch_107">
    <path d="M 42.993825 16.5 
L 45.573675 16.5 
L 45.573675 16.5 
L 42.993825 16.5 
z
" clip-path="url(#p194f49b9da)" style="fill: #991b1e"/>
   </g>
   <g id="patch_108">
    <path d="M 46.301325 16.5 
L 48.881175 16.5 
L 48.881175 16.5 
L 46.301325 16.5 
z
" clip-path="url(#p194f49b9da)" style="fill: #991b1e"/>
   </g>
   <g id="patch_109">
    <path d="M 49.608825 16.5 
L 52.188675 16.5 
L 52.188675 16.5 
L 49.608825 16.5 
z
" clip-path="url(#p194f49b9da)" style="fill: #991b1e"/>
   </g>
   <g id="patch_110">
    <path d="M 52.916325 16.5 
L 55.496175 16.5 
L 55.496175 16.5 
L 52.916325 16.5 
z
" clip-path="url(#p194f49b9da)" style="fill: #991b1e"/>
   </g>
   <g id="patch_111">
    <path d="M 56.223825 16.5 
L 58.803675 16.5 
L 58.803675 16.5 
L 56.223825 16.5 
z
" clip-path="url(#p194f49b9da)" style="fill: #991b1e"/>
   </g>
   <g id="patch_112">
    <path d="M 59.531325 16.5 
L 62.111175 16.5 
L 62.111175 16.5 
L 59.531325 16.5 
z
" clip-path="url(#p194f49b9da)" style="fill: #991b1e"/>
   </g>
   <g id="patch_113">
    <path d="M 62.838825 16.5 
L 65.418675 16.5 
L 65.418675 16.5 
L 62.838825 16.5 
z
" clip-path="url(#p194f49b9da)" style="fill: #991b1e"/>
   </g>
   <g id="patch_114">
    <path d="M 66.146325 16.5 
L 68.726175 16.5 
L 68.726175 16.5 
L 66.146325 16.5 
z
" clip-path="url(#p194f49b9da)" style="fill: #991b1e"/>
   </g>
   <g id="patch_115">
    <path d="M 69.453825 16.5 
L 72.033675 16.5 
L 72.033675 16.5 
L 69.453825 16.5 
z
" clip-path="url(#p194f49b9da)" style="fill: #991b1e"/>
   </g>
   <g id="patch_116">
    <path d="M 72.761325 16.5 
L 75.341175 16.5 
L 75.341175 16.5 
L 72.761325 16.5 
z
" clip-path="url(#p194f49b9da)" style="fill: #991b1e"/>
   </g>
   <g id="patch_117">
    <path d="M 76.068825 16.5 
L 78.648675 16.5 
L 78.648675 16.5 
L 76.068825 16.5 
z
" clip-path="url(#p194f49b9da)" style="fill: #991b1e"/>
   </g>
   <g id="patch_118">
    <path d="M 79.376325 16.5 
L 81.956175 16.5 
L 81.956175 16.5 
L 79.376325 16.5 
z
" clip-path="url(#p194f49b9da)" style="fill: #991b1e"/>
   </g>
   <g id="patch_119">
    <path d="M 82.683825 16.5 
L 85.263675 16.5 
L 85.263675 16.5 
L 82.683825 16.5 
z
" clip-path="url(#p194f49b9da)" style="fill: #991b1e"/>
   </g>
   <g id="patch_120">
    <path d="M 85.991325 17.05 
L 88.571175 17.05 
L 88.571175 16.5 
L 85.991325 16.5 
z
" clip-path="url(#p194f49b9da)" style="fill: #991b1e"/>
   </g>
   <g id="patch_121">
    <path d="M 89.298825 17.325 
L 91.878675 17.325 
L 91.878675 16.5 
L 89.298825 16.5 
z
" clip-path="url(#p194f49b9da)" style="fill: #991b1e"/>
   </g>
   <g id="patch_122">
    <path d="M 92.606325 19.25 
L 95.186175 19.25 
L 95.186175 16.5 
L 92.606325 16.5 
z
" clip-path="url(#p194f49b9da)" style="fill: #991b1e"/>
   </g>
   <g id="patch_123">
    <path d="M 95.913825 19.8 
L 98.493675 19.8 
L 98.493675 16.5 
L 95.913825 16.5 
z
" clip-path="url(#p194f49b9da)" style="fill: #991b1e"/>
   </g>
   <g id="patch_124">
    <path d="M 99.221325 20.075 
L 101.801175 20.075 
L 101.801175 16.5 
L 99.221325 16.5 
z
" clip-path="url(#p194f49b9da)" style="fill: #991b1e"/>
   </g>
   <g id="patch_125">
    <path d="M 102.528825 21.45 
L 105.108675 21.45 
L 105.108675 16.5 
L 102.528825 16.5 
z
" clip-path="url(#p194f49b9da)" style="fill: #991b1e"/>
   </g>
   <g id="patch_126">
    <path d="M 105.836325 22.55 
L 108.416175 22.55 
L 108.416175 16.5 
L 105.836325 16.5 
z
" clip-path="url(#p194f49b9da)" style="fill: #991b1e"/>
   </g>
   <g id="patch_127">
    <path d="M 109.143825 22.825 
L 111.723675 22.825 
L 111.723675 16.5 
L 109.143825 16.5 
z
" clip-path="url(#p194f49b9da)" style="fill: #991b1e"/>
   </g>
   <g id="patch_128">
    <path d="M 112.451325 22.825 
L 115.031175 22.825 
L 115.031175 16.5 
L 112.451325 16.5 
z
" clip-path="url(#p194f49b9da)" style="fill: #991b1e"/>
   </g>
   <g id="patch_129">
    <path d="M 115.758825 22.825 
L 118.338675 22.825 
L 118.338675 16.5 
L 115.758825 16.5 
z
" clip-path="url(#p194f49b9da)" style="fill: #991b1e"/>
   </g>
   <g id="patch_130">
    <path d="M 119.066325 23.375 
L 121.646175 23.375 
L 121.646175 16.5 
L 119.066325 16.5 
z
" clip-path="url(#p194f49b9da)" style="fill: #991b1e"/>
   </g>
   <g id="patch_131">
    <path d="M 122.373825 24.2 
L 124.953675 24.2 
L 124.953675 16.5 
L 122.373825 16.5 
z
" clip-path="url(#p194f49b9da)" style="fill: #991b1e"/>
   </g>
   <g id="patch_132">
    <path d="M 125.681325 24.75 
L 128.261175 24.75 
L 128.261175 16.5 
L 125.681325 16.5 
z
" clip-path="url(#p194f49b9da)" style="fill: #991b1e"/>
   </g>
   <g id="patch_133">
    <path d="M 128.988825 24.75 
L 131.568675 24.75 
L 131.568675 16.5 
L 128.988825 16.5 
z
" clip-path="url(#p194f49b9da)" style="fill: #991b1e"/>
   </g>
   <g id="patch_134">
    <path d="M 132.296325 25.575 
L 134.876175 25.575 
L 134.876175 16.5 
L 132.296325 16.5 
z
" clip-path="url(#p194f49b9da)" style="fill: #991b1e"/>
   </g>
   <g id="patch_135">
    <path d="M 135.603825 25.85 
L 138.183675 25.85 
L 138.183675 16.5 
L 135.603825 16.5 
z
" clip-path="url(#p194f49b9da)" style="fill: #991b1e"/>
   </g>
   <g id="patch_136">
    <path d="M 138.911325 26.95 
L 141.491175 26.95 
L 141.491175 16.5 
L 138.911325 16.5 
z
" clip-path="url(#p194f49b9da)" style="fill: #991b1e"/>
   </g>
   <g id="patch_137">
    <path d="M 142.218825 29.7 
L 144.798675 29.7 
L 144.798675 16.5 
L 142.218825 16.5 
z
" clip-path="url(#p194f49b9da)" style="fill: #991b1e"/>
   </g>
   <g id="patch_138">
    <path d="M 145.526325 30.25 
L 148.106175 30.25 
L 148.106175 16.5 
L 145.526325 16.5 
z
" clip-path="url(#p194f49b9da)" style="fill: #991b1e"/>
   </g>
   <g id="patch_139">
    <path d="M 148.833825 31.35 
L 151.413675 31.35 
L 151.413675 16.5 
L 148.833825 16.5 
z
" clip-path="url(#p194f49b9da)" style="fill: #991b1e"/>
   </g>
   <g id="patch_140">
    <path d="M 152.141325 31.625 
L 154.721175 31.625 
L 154.721175 16.5 
L 152.141325 16.5 
z
" clip-path="url(#p194f49b9da)" style="fill: #991b1e"/>
   </g>
   <g id="patch_141">
    <path d="M 155.448825 33.275 
L 158.028675 33.275 
L 158.028675 16.5 
L 155.448825 16.5 
z
" clip-path="url(#p194f49b9da)" style="fill: #991b1e"/>
   </g>
   <g id="patch_142">
    <path d="M 158.756325 33.275 
L 161.336175 33.275 
L 161.336175 16.5 
L 158.756325 16.5 
z
" clip-path="url(#p194f49b9da)" style="fill: #991b1e"/>
   </g>
   <g id="patch_143">
    <path d="M 162.063825 33.55 
L 164.643675 33.55 
L 164.643675 16.5 
L 162.063825 16.5 
z
" clip-path="url(#p194f49b9da)" style="fill: #991b1e"/>
   </g>
   <g id="patch_144">
    <path d="M 165.371325 33.825 
L 167.951175 33.825 
L 167.951175 16.5 
L 165.371325 16.5 
z
" clip-path="url(#p194f49b9da)" style="fill: #991b1e"/>
   </g>
   <g id="patch_145">
    <path d="M 168.678825 34.1 
L 171.258675 34.1 
L 171.258675 16.5 
L 168.678825 16.5 
z
" clip-path="url(#p194f49b9da)" style="fill: #991b1e"/>
   </g>
   <g id="patch_146">
    <path d="M 171.986325 34.1 
L 174.566175 34.1 
L 174.566175 16.5 
L 171.986325 16.5 
z
" clip-path="url(#p194f49b9da)" style="fill: #991b1e"/>
   </g>
   <g id="patch_147">
    <path d="M 175.293825 34.375 
L 177.873675 34.375 
L 177.873675 16.5 
L 175.293825 16.5 
z
" clip-path="url(#p194f49b9da)" style="fill: #991b1e"/>
   </g>
   <g id="patch_148">
    <path d="M 178.601325 34.925 
L 181.181175 34.925 
L 181.181175 16.5 
L 178.601325 16.5 
z
" clip-path="url(#p194f49b9da)" style="fill: #991b1e"/>
   </g>
   <g id="patch_149">
    <path d="M 181.908825 35.475 
L 184.488675 35.475 
L 184.488675 16.5 
L 181.908825 16.5 
z
" clip-path="url(#p194f49b9da)" style="fill: #991b1e"/>
   </g>
   <g id="patch_150">
    <path d="M 185.216325 35.475 
L 187.796175 35.475 
L 187.796175 16.5 
L 185.216325 16.5 
z
" clip-path="url(#p194f49b9da)" style="fill: #991b1e"/>
   </g>
   <g id="patch_151">
    <path d="M 188.523825 36.3 
L 191.103675 36.3 
L 191.103675 16.5 
L 188.523825 16.5 
z
" clip-path="url(#p194f49b9da)" style="fill: #991b1e"/>
   </g>
   <g id="patch_152">
    <path d="M 191.831325 38.561281 
L 194.411175 38.561281 
L 194.411175 16.5 
L 191.831325 16.5 
z
" clip-path="url(#p194f49b9da)" style="fill: #991b1e"/>
   </g>
   <g id="patch_153">
    <path d="M 195.138825 39.325 
L 197.718675 39.325 
L 197.718675 16.5 
L 195.138825 16.5 
z
" clip-path="url(#p194f49b9da)" style="fill: #991b1e"/>
   </g>
   <g id="patch_154">
    <path d="M 198.446325 41.25 
L 201.026175 41.25 
L 201.026175 16.5 
L 198.446325 16.5 
z
" clip-path="url(#p194f49b9da)" style="fill: #991b1e"/>
   </g>
   <g id="patch_155">
    <path d="M 201.753825 41.525 
L 204.333675 41.525 
L 204.333675 16.5 
L 201.753825 16.5 
z
" clip-path="url(#p194f49b9da)" style="fill: #991b1e"/>
   </g>
   <g id="patch_156">
    <path d="M 205.061325 41.525 
L 207.641175 41.525 
L 207.641175 16.5 
L 205.061325 16.5 
z
" clip-path="url(#p194f49b9da)" style="fill: #991b1e"/>
   </g>
   <g id="patch_157">
    <path d="M 208.368825 42.35 
L 210.948675 42.35 
L 210.948675 16.5 
L 208.368825 16.5 
z
" clip-path="url(#p194f49b9da)" style="fill: #991b1e"/>
   </g>
   <g id="patch_158">
    <path d="M 211.676325 42.422006 
L 214.256175 42.422006 
L 214.256175 16.5 
L 211.676325 16.5 
z
" clip-path="url(#p194f49b9da)" style="fill: #991b1e"/>
   </g>
   <g id="patch_159">
    <path d="M 214.983825 42.9 
L 217.563675 42.9 
L 217.563675 16.5 
L 214.983825 16.5 
z
" clip-path="url(#p194f49b9da)" style="fill: #991b1e"/>
   </g>
   <g id="patch_160">
    <path d="M 218.291325 42.9 
L 220.871175 42.9 
L 220.871175 16.5 
L 218.291325 16.5 
z
" clip-path="url(#p194f49b9da)" style="fill: #991b1e"/>
   </g>
   <g id="patch_161">
    <path d="M 221.598825 43.175 
L 224.178675 43.175 
L 224.178675 16.5 
L 221.598825 16.5 
z
" clip-path="url(#p194f49b9da)" style="fill: #991b1e"/>
   </g>
   <g id="patch_162">
    <path d="M 224.906325 43.175 
L 227.486175 43.175 
L 227.486175 16.5 
L 224.906325 16.5 
z
" clip-path="url(#p194f49b9da)" style="fill: #991b1e"/>
   </g>
   <g id="patch_163">
    <path d="M 228.213825 43.725 
L 230.793675 43.725 
L 230.793675 16.5 
L 228.213825 16.5 
z
" clip-path="url(#p194f49b9da)" style="fill: #991b1e"/>
   </g>
   <g id="patch_164">
    <path d="M 231.521325 45.375 
L 234.101175 45.375 
L 234.101175 16.5 
L 231.521325 16.5 
z
" clip-path="url(#p194f49b9da)" style="fill: #991b1e"/>
   </g>
   <g id="patch_165">
    <path d="M 234.828825 45.65 
L 237.408675 45.65 
L 237.408675 16.5 
L 234.828825 16.5 
z
" clip-path="url(#p194f49b9da)" style="fill: #991b1e"/>
   </g>
   <g id="patch_166">
    <path d="M 238.136325 46.2 
L 240.716175 46.2 
L 240.716175 16.5 
L 238.136325 16.5 
z
" clip-path="url(#p194f49b9da)" style="fill: #991b1e"/>
   </g>
   <g id="patch_167">
    <path d="M 241.443825 47.025 
L 244.023675 47.025 
L 244.023675 16.5 
L 241.443825 16.5 
z
" clip-path="url(#p194f49b9da)" style="fill: #991b1e"/>
   </g>
   <g id="patch_168">
    <path d="M 244.751325 48.125 
L 247.331175 48.125 
L 247.331175 16.5 
L 244.751325 16.5 
z
" clip-path="url(#p194f49b9da)" style="fill: #991b1e"/>
   </g>
   <g id="patch_169">
    <path d="M 248.058825 48.4 
L 250.638675 48.4 
L 250.638675 16.5 
L 248.058825 16.5 
z
" clip-path="url(#p194f49b9da)" style="fill: #991b1e"/>
   </g>
   <g id="patch_170">
    <path d="M 251.366325 48.675 
L 253.946175 48.675 
L 253.946175 16.5 
L 251.366325 16.5 
z
" clip-path="url(#p194f49b9da)" style="fill: #991b1e"/>
   </g>
   <g id="patch_171">
    <path d="M 254.673825 49.775 
L 257.253675 49.775 
L 257.253675 16.5 
L 254.673825 16.5 
z
" clip-path="url(#p194f49b9da)" style="fill: #991b1e"/>
   </g>
   <g id="patch_172">
    <path d="M 257.981325 50.05 
L 260.561175 50.05 
L 260.561175 16.5 
L 257.981325 16.5 
z
" clip-path="url(#p194f49b9da)" style="fill: #991b1e"/>
   </g>
   <g id="patch_173">
    <path d="M 261.288825 50.325 
L 263.868675 50.325 
L 263.868675 16.5 
L 261.288825 16.5 
z
" clip-path="url(#p194f49b9da)" style="fill: #991b1e"/>
   </g>
   <g id="patch_174">
    <path d="M 264.596325 50.875 
L 267.176175 50.875 
L 267.176175 16.5 
L 264.596325 16.5 
z
" clip-path="url(#p194f49b9da)" style="fill: #991b1e"/>
   </g>
   <g id="patch_175">
    <path d="M 267.903825 51.7 
L 270.483675 51.7 
L 270.483675 16.5 
L 267.903825 16.5 
z
" clip-path="url(#p194f49b9da)" style="fill: #991b1e"/>
   </g>
   <g id="patch_176">
    <path d="M 271.211325 56.1 
L 273.791175 56.1 
L 273.791175 16.5 
L 271.211325 16.5 
z
" clip-path="url(#p194f49b9da)" style="fill: #991b1e"/>
   </g>
   <g id="patch_177">
    <path d="M 274.518825 58.3 
L 277.098675 58.3 
L 277.098675 16.5 
L 274.518825 16.5 
z
" clip-path="url(#p194f49b9da)" style="fill: #991b1e"/>
   </g>
   <g id="patch_178">
    <path d="M 277.826325 60.775 
L 280.406175 60.775 
L 280.406175 16.5 
L 277.826325 16.5 
z
" clip-path="url(#p194f49b9da)" style="fill: #991b1e"/>
   </g>
   <g id="patch_179">
    <path d="M 281.133825 63.8 
L 283.713675 63.8 
L 283.713675 16.5 
L 281.133825 16.5 
z
" clip-path="url(#p194f49b9da)" style="fill: #991b1e"/>
   </g>
   <g id="patch_180">
    <path d="M 284.441325 66 
L 287.021175 66 
L 287.021175 16.5 
L 284.441325 16.5 
z
" clip-path="url(#p194f49b9da)" style="fill: #991b1e"/>
   </g>
   <g id="patch_181">
    <path d="M 287.748825 69.025 
L 290.328675 69.025 
L 290.328675 16.5 
L 287.748825 16.5 
z
" clip-path="url(#p194f49b9da)" style="fill: #991b1e"/>
   </g>
   <g id="patch_182">
    <path d="M 291.056325 71.775 
L 293.636175 71.775 
L 293.636175 16.5 
L 291.056325 16.5 
z
" clip-path="url(#p194f49b9da)" style="fill: #991b1e"/>
   </g>
   <g id="patch_183">
    <path d="M 294.363825 74.8 
L 296.943675 74.8 
L 296.943675 16.5 
L 294.363825 16.5 
z
" clip-path="url(#p194f49b9da)" style="fill: #991b1e"/>
   </g>
   <g id="patch_184">
    <path d="M 297.671325 78.1 
L 300.251175 78.1 
L 300.251175 16.5 
L 297.671325 16.5 
z
" clip-path="url(#p194f49b9da)" style="fill: #991b1e"/>
   </g>
   <g id="patch_185">
    <path d="M 300.978825 79.75 
L 303.558675 79.75 
L 303.558675 16.5 
L 300.978825 16.5 
z
" clip-path="url(#p194f49b9da)" style="fill: #991b1e"/>
   </g>
   <g id="patch_186">
    <path d="M 304.286325 80.3 
L 306.866175 80.3 
L 306.866175 16.5 
L 304.286325 16.5 
z
" clip-path="url(#p194f49b9da)" style="fill: #991b1e"/>
   </g>
   <g id="patch_187">
    <path d="M 307.593825 81.4 
L 310.173675 81.4 
L 310.173675 16.5 
L 307.593825 16.5 
z
" clip-path="url(#p194f49b9da)" style="fill: #991b1e"/>
   </g>
   <g id="patch_188">
    <path d="M 310.901325 82.225 
L 313.481175 82.225 
L 313.481175 16.5 
L 310.901325 16.5 
z
" clip-path="url(#p194f49b9da)" style="fill: #991b1e"/>
   </g>
   <g id="patch_189">
    <path d="M 314.208825 82.225 
L 316.788675 82.225 
L 316.788675 16.5 
L 314.208825 16.5 
z
" clip-path="url(#p194f49b9da)" style="fill: #991b1e"/>
   </g>
   <g id="patch_190">
    <path d="M 317.516325 82.225 
L 320.096175 82.225 
L 320.096175 16.5 
L 317.516325 16.5 
z
" clip-path="url(#p194f49b9da)" style="fill: #991b1e"/>
   </g>
   <g id="patch_191">
    <path d="M 320.823825 83.875 
L 323.403675 83.875 
L 323.403675 16.5 
L 320.823825 16.5 
z
" clip-path="url(#p194f49b9da)" style="fill: #991b1e"/>
   </g>
   <g id="patch_192">
    <path d="M 324.131325 84.15 
L 326.711175 84.15 
L 326.711175 16.5 
L 324.131325 16.5 
z
" clip-path="url(#p194f49b9da)" style="fill: #991b1e"/>
   </g>
   <g id="patch_193">
    <path d="M 327.438825 85.8 
L 330.018675 85.8 
L 330.018675 16.5 
L 327.438825 16.5 
z
" clip-path="url(#p194f49b9da)" style="fill: #991b1e"/>
   </g>
   <g id="patch_194">
    <path d="M 330.746325 86.075 
L 333.326175 86.075 
L 333.326175 16.5 
L 330.746325 16.5 
z
" clip-path="url(#p194f49b9da)" style="fill: #991b1e"/>
   </g>
   <g id="patch_195">
    <path d="M 334.053825 86.075 
L 336.633675 86.075 
L 336.633675 16.5 
L 334.053825 16.5 
z
" clip-path="url(#p194f49b9da)" style="fill: #991b1e"/>
   </g>
   <g id="patch_196">
    <path d="M 337.361325 86.35 
L 339.941175 86.35 
L 339.941175 16.5 
L 337.361325 16.5 
z
" clip-path="url(#p194f49b9da)" style="fill: #991b1e"/>
   </g>
   <g id="patch_197">
    <path d="M 340.668825 97.9 
L 343.248675 97.9 
L 343.248675 16.5 
L 340.668825 16.5 
z
" clip-path="url(#p194f49b9da)" style="fill: #991b1e"/>
   </g>
   <g id="patch_198">
    <path d="M 343.976325 99.55 
L 346.556175 99.55 
L 346.556175 16.5 
L 343.976325 16.5 
z
" clip-path="url(#p194f49b9da)" style="fill: #991b1e"/>
   </g>
   <g id="patch_199">
    <path d="M 347.283825 100.375 
L 349.863675 100.375 
L 349.863675 16.5 
L 347.283825 16.5 
z
" clip-path="url(#p194f49b9da)" style="fill: #991b1e"/>
   </g>
   <g id="patch_200">
    <path d="M 350.591325 107.8 
L 353.171175 107.8 
L 353.171175 16.5 
L 350.591325 16.5 
z
" clip-path="url(#p194f49b9da)" style="fill: #991b1e"/>
   </g>
   <g id="patch_201">
    <path d="M 353.898825 109.175 
L 356.478675 109.175 
L 356.478675 16.5 
L 353.898825 16.5 
z
" clip-path="url(#p194f49b9da)" style="fill: #991b1e"/>
   </g>
   <g id="patch_202">
    <path d="M 357.206325 115.5 
L 359.786175 115.5 
L 359.786175 16.5 
L 357.206325 16.5 
z
" clip-path="url(#p194f49b9da)" style="fill: #991b1e"/>
   </g>
   <g id="matplotlib.axis_1">
    <g id="text_1">
     <text style="font: 9px 'Arial'; text-anchor: middle" x="194.775" y="125.942031" transform="rotate(-0 194.775 125.942031)">videos</text>
    </g>
   </g>
   <g id="matplotlib.axis_2">
    <g id="ytick_1">
     <g id="line2d_1">
      <defs>
       <path id="m9b665953d7" d="M 0 0 
L -3 0 
" style="stroke: #1a1a1a; stroke-width: 0.8"/>
      </defs>
      <g>
       <use xlink:href="#m9b665953d7" x="29.4" y="115.5" style="fill: #1a1a1a; stroke: #1a1a1a; stroke-width: 0.8"/>
      </g>
     </g>
     <g id="text_2">
      <text style="fill: #1a1a1a; font: 8px 'Arial'; text-anchor: end" x="22.9" y="118.363125" transform="rotate(-0 22.9 118.363125)">0</text>
     </g>
    </g>
    <g id="ytick_2">
     <g id="line2d_2">
      <g>
       <use xlink:href="#m9b665953d7" x="29.4" y="90.75" style="fill: #1a1a1a; stroke: #1a1a1a; stroke-width: 0.8"/>
      </g>
     </g>
     <g id="text_3">
      <text style="fill: #1a1a1a; font: 8px 'Arial'; text-anchor: end" x="22.9" y="93.613125" transform="rotate(-0 22.9 93.613125)">25</text>
     </g>
    </g>
    <g id="ytick_3">
     <g id="line2d_3">
      <g>
       <use xlink:href="#m9b665953d7" x="29.4" y="66" style="fill: #1a1a1a; stroke: #1a1a1a; stroke-width: 0.8"/>
      </g>
     </g>
     <g id="text_4">
      <text style="fill: #1a1a1a; font: 8px 'Arial'; text-anchor: end" x="22.9" y="68.863125" transform="rotate(-0 22.9 68.863125)">50</text>
     </g>
    </g>
    <g id="ytick_4">
     <g id="line2d_4">
      <g>
       <use xlink:href="#m9b665953d7" x="29.4" y="41.25" style="fill: #1a1a1a; stroke: #1a1a1a; stroke-width: 0.8"/>
      </g>
     </g>
     <g id="text_5">
      <text style="fill: #1a1a1a; font: 8px 'Arial'; text-anchor: end" x="22.9" y="44.113125" transform="rotate(-0 22.9 44.113125)">75</text>
     </g>
    </g>
    <g id="ytick_5">
     <g id="line2d_5">
      <g>
       <use xlink:href="#m9b665953d7" x="29.4" y="16.5" style="fill: #1a1a1a; stroke: #1a1a1a; stroke-width: 0.8"/>
      </g>
     </g>
     <g id="text_6">
      <text style="fill: #1a1a1a; font: 8px 'Arial'; text-anchor: end" x="22.9" y="19.363125" transform="rotate(-0 22.9 19.363125)">100</text>
     </g>
    </g>
    <g id="text_7">
     <text style="font: 9px 'Arial'; text-anchor: middle" x="3.765" y="66" transform="rotate(-90 3.765 66)">% of frames</text>
    </g>
   </g>
   <g id="patch_203">
    <path d="M 29.4 115.5 
L 29.4 16.5 
" style="fill: none; stroke: #1a1a1a; stroke-width: 0.8; stroke-linejoin: miter; stroke-linecap: square"/>
   </g>
   <g id="patch_204">
    <path d="M 29.4 115.5 
L 360.15 115.5 
" style="fill: none; stroke: #1a1a1a; stroke-width: 0.8; stroke-linejoin: miter; stroke-linecap: square"/>
   </g>
   <g id="legend_1">
    <g id="patch_205">
     <path d="M 130.965234 145.8375 
L 142.865234 145.8375 
L 142.865234 136.02 
L 130.965234 136.02 
z
" style="fill: #bfb3d8"/>
    </g>
    <g id="text_8">
     <text style="font: 8.5px 'Arial'; text-anchor: start" x="147.115234" y="143.755" transform="rotate(-0 147.115234 143.755)">correctly labelled</text>
    </g>
    <g id="patch_206">
     <path d="M 224.490469 145.8375 
L 236.390469 145.8375 
L 236.390469 136.02 
L 224.490469 136.02 
z
" style="fill: #991b1e"/>
    </g>
    <g id="text_9">
     <text style="font: 8.5px 'Arial'; text-anchor: start" x="240.640469" y="143.755" transform="rotate(-0 240.640469 143.755)">error</text>
    </g>
   </g>
  </g>
 </g>
 <defs>
  <clipPath id="p194f49b9da">
   <rect x="29.4" y="16.5" width="330.75" height="99"/>
  </clipPath>
 </defs>
</svg>
