<?xml version="1.0" encoding="utf-8" standalone="no"?>
<!DOCTYPE svg PUBLIC "-//W3C//DTD SVG 1.1//EN"
  "http://www.w3.org/Graphics/SVG/1.1/DTD/svg11.dtd">
<svg xmlns:xlink="http://www.w3.org/1999/xlink" width="367.5pt" height="165pt" viewBox="0 0 367.5 165" xmlns="http://www.w3.org/2000/svg" version="1.1">
 <metadata>
  <rdf:RDF xmlns:dc="http://purl.org/dc/elements/1.1/" xmlns:cc="http://creativecommons.org/ns#" xmlns:rdf="http://www.w3.org/1999/02/22-rdf-syntax-ns#">
   <cc:Work>
    <dc:type rdf:resource="http://purl.org/dc/dcmitype/StillImage"/>
    <dc:date>2026-05-13T18:33:27.790402</dc:date>
    <dc:format>image/svg+xml</dc:format>
    <dc:creator>
     <cc:Agent>
      <dc:title>Matplotlib v3.10.9, https://matplotlib.org/</dc:title>
     </cc:Agent>
    </dc:creator>
   </cc:Work>
  </rdf:RDF>
 </metadata>
 <defs>
  <style type="text/css">*{stroke-linejoin: round; stroke-linecap: butt}</style>
 </defs>
 <g id="figure_1">
  <g id="patch_1">
   <path d="M 0 165 
L 367.5 165 
L 367.5 0 
L 0 0 
z
" style="fill: #ffffff"/>
  </g>
  <g id="axes_1">
   <g id="patch_2">
    <path d="M 37.837031 119.566086 
L 361.74 119.566086 
L 361.74 13.663125 
L 37.837031 13.663125 
z
" style="fill: #ffffff"/>
   </g>
   <g id="patch_3">
    <path d="M 38.193325 119.566086 
L 40.719768 119.566086 
L 40.719768 13.663125 
L 38.193325 13.663125 
z
" clip-path="url(#p33837858ba)" style="fill: #bfb3d8"/>
   </g>
   <g id="patch_4">
    <path d="M 41.432354 119.566086 
L 43.958797 119.566086 
L 43.958797 13.663125 
L 41.432354 13.663125 
z
" clip-path="url(#p33837858ba)" style="fill: #bfb3d8"/>
   </g>
   <g id="patch_5">
    <path d="M 44.671384 119.566086 
L 47.197827 119.566086 
L 47.197827 13.663125 
L 44.671384 13.663125 
z
" clip-path="url(#p33837858ba)" style="fill: #bfb3d8"/>
   </g>
   <g id="patch_6">
    <path d="M 47.910414 119.566086 
L 50.436857 119.566086 
L 50.436857 13.663125 
L 47.910414 13.663125 
z
" clip-path="url(#p33837858ba)" style="fill: #bfb3d8"/>
   </g>
   <g id="patch_7">
    <path d="M 51.149443 119.566086 
L 53.675886 119.566086 
L 53.675886 13.663125 
L 51.149443 13.663125 
z
" clip-path="url(#p33837858ba)" style="fill: #bfb3d8"/>
   </g>
   <g id="patch_8">
    <path d="M 54.388473 119.566086 
L 56.914916 119.566086 
L 56.914916 13.663125 
L 54.388473 13.663125 
z
" clip-path="url(#p33837858ba)" style="fill: #bfb3d8"/>
   </g>
   <g id="patch_9">
    <path d="M 57.627503 119.566086 
L 60.153946 119.566086 
L 60.153946 13.663125 
L 57.627503 13.663125 
z
" clip-path="url(#p33837858ba)" style="fill: #bfb3d8"/>
   </g>
   <g id="patch_10">
    <path d="M 60.866532 119.566086 
L 63.392975 119.566086 
L 63.392975 13.663125 
L 60.866532 13.663125 
z
" clip-path="url(#p33837858ba)" style="fill: #bfb3d8"/>
   </g>
   <g id="patch_11">
    <path d="M 64.105562 119.566086 
L 66.632005 119.566086 
L 66.632005 13.663125 
L 64.105562 13.663125 
z
" clip-path="url(#p33837858ba)" style="fill: #bfb3d8"/>
   </g>
   <g id="patch_12">
    <path d="M 67.344592 119.566086 
L 69.871035 119.566086 
L 69.871035 13.663125 
L 67.344592 13.663125 
z
" clip-path="url(#p33837858ba)" style="fill: #bfb3d8"/>
   </g>
   <g id="patch_13">
    <path d="M 70.583621 119.566086 
L 73.110065 119.566086 
L 73.110065 13.663125 
L 70.583621 13.663125 
z
" clip-path="url(#p33837858ba)" style="fill: #bfb3d8"/>
   </g>
   <g id="patch_14">
    <path d="M 73.822651 119.566086 
L 76.349094 119.566086 
L 76.349094 13.663125 
L 73.822651 13.663125 
z
" clip-path="url(#p33837858ba)" style="fill: #bfb3d8"/>
   </g>
   <g id="patch_15">
    <path d="M 77.061681 119.566086 
L 79.588124 119.566086 
L 79.588124 13.663125 
L 77.061681 13.663125 
z
" clip-path="url(#p33837858ba)" style="fill: #bfb3d8"/>
   </g>
   <g id="patch_16">
    <path d="M 80.30071 119.566086 
L 82.827154 119.566086 
L 82.827154 13.663125 
L 80.30071 13.663125 
z
" clip-path="url(#p33837858ba)" style="fill: #bfb3d8"/>
   </g>
   <g id="patch_17">
    <path d="M 83.53974 119.566086 
L 86.066183 119.566086 
L 86.066183 13.663125 
L 83.53974 13.663125 
z
" clip-path="url(#p33837858ba)" style="fill: #bfb3d8"/>
   </g>
   <g id="patch_18">
    <path d="M 86.77877 119.566086 
L 89.305213 119.566086 
L 89.305213 13.663125 
L 86.77877 13.663125 
z
" clip-path="url(#p33837858ba)" style="fill: #bfb3d8"/>
   </g>
   <g id="patch_19">
    <path d="M 90.0178 119.566086 
L 92.544243 119.566086 
L 92.544243 13.663125 
L 90.0178 13.663125 
z
" clip-path="url(#p33837858ba)" style="fill: #bfb3d8"/>
   </g>
   <g id="patch_20">
    <path d="M 93.256829 119.566086 
L 95.783272 119.566086 
L 95.783272 14.251475 
L 93.256829 14.251475 
z
" clip-path="url(#p33837858ba)" style="fill: #bfb3d8"/>
   </g>
   <g id="patch_21">
    <path d="M 96.495859 119.566086 
L 99.022302 119.566086 
L 99.022302 14.54565 
L 96.495859 14.54565 
z
" clip-path="url(#p33837858ba)" style="fill: #bfb3d8"/>
   </g>
   <g id="patch_22">
    <path d="M 99.734889 119.566086 
L 102.261332 119.566086 
L 102.261332 16.604874 
L 99.734889 16.604874 
z
" clip-path="url(#p33837858ba)" style="fill: #bfb3d8"/>
   </g>
   <g id="patch_23">
    <path d="M 102.973918 119.566086 
L 105.500361 119.566086 
L 105.500361 17.193224 
L 102.973918 17.193224 
z
" clip-path="url(#p33837858ba)" style="fill: #bfb3d8"/>
   </g>
   <g id="patch_24">
    <path d="M 106.212948 119.566086 
L 108.739391 119.566086 
L 108.739391 17.487399 
L 106.212948 17.487399 
z
" clip-path="url(#p33837858ba)" style="fill: #bfb3d8"/>
   </g>
   <g id="patch_25">
    <path d="M 109.451978 119.566086 
L 111.978421 119.566086 
L 111.978421 18.958273 
L 109.451978 18.958273 
z
" clip-path="url(#p33837858ba)" style="fill: #bfb3d8"/>
   </g>
   <g id="patch_26">
    <path d="M 112.691007 119.566086 
L 115.21745 119.566086 
L 115.21745 20.134973 
L 112.691007 20.134973 
z
" clip-path="url(#p33837858ba)" style="fill: #bfb3d8"/>
   </g>
   <g id="patch_27">
    <path d="M 115.930037 119.566086 
L 118.45648 119.566086 
L 118.45648 20.429147 
L 115.930037 20.429147 
z
" clip-path="url(#p33837858ba)" style="fill: #bfb3d8"/>
   </g>
   <g id="patch_28">
    <path d="M 119.169067 119.566086 
L 121.69551 119.566086 
L 121.69551 20.429147 
L 119.169067 20.429147 
z
" clip-path="url(#p33837858ba)" style="fill: #bfb3d8"/>
   </g>
   <g id="patch_29">
    <path d="M 122.408096 119.566086 
L 124.93454 119.566086 
L 124.93454 20.429147 
L 122.408096 20.429147 
z
" clip-path="url(#p33837858ba)" style="fill: #bfb3d8"/>
   </g>
   <g id="patch_30">
    <path d="M 125.647126 119.566086 
L 128.173569 119.566086 
L 128.173569 21.017497 
L 125.647126 21.017497 
z
" clip-path="url(#p33837858ba)" style="fill: #bfb3d8"/>
   </g>
   <g id="patch_31">
    <path d="M 128.886156 119.566086 
L 131.412599 119.566086 
L 131.412599 21.900022 
L 128.886156 21.900022 
z
" clip-path="url(#p33837858ba)" style="fill: #bfb3d8"/>
   </g>
   <g id="patch_32">
    <path d="M 132.125185 119.566086 
L 134.651629 119.566086 
L 134.651629 22.488372 
L 132.125185 22.488372 
z
" clip-path="url(#p33837858ba)" style="fill: #bfb3d8"/>
   </g>
   <g id="patch_33">
    <path d="M 135.364215 119.566086 
L 137.890658 119.566086 
L 137.890658 22.488372 
L 135.364215 22.488372 
z
" clip-path="url(#p33837858ba)" style="fill: #bfb3d8"/>
   </g>
   <g id="patch_34">
    <path d="M 138.603245 119.566086 
L 141.129688 119.566086 
L 141.129688 23.370896 
L 138.603245 23.370896 
z
" clip-path="url(#p33837858ba)" style="fill: #bfb3d8"/>
   </g>
   <g id="patch_35">
    <path d="M 141.842275 119.566086 
L 144.368718 119.566086 
L 144.368718 23.665071 
L 141.842275 23.665071 
z
" clip-path="url(#p33837858ba)" style="fill: #bfb3d8"/>
   </g>
   <g id="patch_36">
    <path d="M 145.081304 119.566086 
L 147.607747 119.566086 
L 147.607747 24.841771 
L 145.081304 24.841771 
z
" clip-path="url(#p33837858ba)" style="fill: #bfb3d8"/>
   </g>
   <g id="patch_37">
    <path d="M 148.320334 119.566086 
L 150.846777 119.566086 
L 150.846777 27.78352 
L 148.320334 27.78352 
z
" clip-path="url(#p33837858ba)" style="fill: #bfb3d8"/>
   </g>
   <g id="patch_38">
    <path d="M 151.559364 119.566086 
L 154.085807 119.566086 
L 154.085807 28.37187 
L 151.559364 28.37187 
z
" clip-path="url(#p33837858ba)" style="fill: #bfb3d8"/>
   </g>
   <g id="patch_39">
    <path d="M 154.798393 119.566086 
L 157.324836 119.566086 
L 157.324836 29.548569 
L 154.798393 29.548569 
z
" clip-path="url(#p33837858ba)" style="fill: #bfb3d8"/>
   </g>
   <g id="patch_40">
    <path d="M 158.037423 119.566086 
L 160.563866 119.566086 
L 160.563866 29.842744 
L 158.037423 29.842744 
z
" clip-path="url(#p33837858ba)" style="fill: #bfb3d8"/>
   </g>
   <g id="patch_41">
    <path d="M 161.276453 119.566086 
L 163.802896 119.566086 
L 163.802896 31.607793 
L 161.276453 31.607793 
z
" clip-path="url(#p33837858ba)" style="fill: #bfb3d8"/>
   </g>
   <g id="patch_42">
    <path d="M 164.515482 119.566086 
L 167.041925 119.566086 
L 167.041925 31.607793 
L 164.515482 31.607793 
z
" clip-path="url(#p33837858ba)" style="fill: #bfb3d8"/>
   </g>
   <g id="patch_43">
    <path d="M 167.754512 119.566086 
L 170.280955 119.566086 
L 170.280955 31.901968 
L 167.754512 31.901968 
z
" clip-path="url(#p33837858ba)" style="fill: #bfb3d8"/>
   </g>
   <g id="patch_44">
    <path d="M 170.993542 119.566086 
L 173.519985 119.566086 
L 173.519985 32.196143 
L 170.993542 32.196143 
z
" clip-path="url(#p33837858ba)" style="fill: #bfb3d8"/>
   </g>
   <g id="patch_45">
    <path d="M 174.232571 119.566086 
L 176.759015 119.566086 
L 176.759015 32.490318 
L 174.232571 32.490318 
z
" clip-path="url(#p33837858ba)" style="fill: #bfb3d8"/>
   </g>
   <g id="patch_46">
    <path d="M 177.471601 119.566086 
L 179.998044 119.566086 
L 179.998044 32.490318 
L 177.471601 32.490318 
z
" clip-path="url(#p33837858ba)" style="fill: #bfb3d8"/>
   </g>
   <g id="patch_47">
    <path d="M 180.710631 119.566086 
L 183.237074 119.566086 
L 183.237074 32.784493 
L 180.710631 32.784493 
z
" clip-path="url(#p33837858ba)" style="fill: #bfb3d8"/>
   </g>
   <g id="patch_48">
    <path d="M 183.94966 119.566086 
L 186.476104 119.566086 
L 186.476104 33.372843 
L 183.94966 33.372843 
z
" clip-path="url(#p33837858ba)" style="fill: #bfb3d8"/>
   </g>
   <g id="patch_49">
    <path d="M 187.18869 119.566086 
L 189.715133 119.566086 
L 189.715133 33.961192 
L 187.18869 33.961192 
z
" clip-path="url(#p33837858ba)" style="fill: #bfb3d8"/>
   </g>
   <g id="patch_50">
    <path d="M 190.42772 119.566086 
L 192.954163 119.566086 
L 192.954163 33.961192 
L 190.42772 33.961192 
z
" clip-path="url(#p33837858ba)" style="fill: #bfb3d8"/>
   </g>
   <g id="patch_51">
    <path d="M 193.66675 119.566086 
L 196.193193 119.566086 
L 196.193193 34.843717 
L 193.66675 34.843717 
z
" clip-path="url(#p33837858ba)" style="fill: #bfb3d8"/>
   </g>
   <g id="patch_52">
    <path d="M 196.905779 119.566086 
L 199.432222 119.566086 
L 199.432222 37.262671 
L 196.905779 37.262671 
z
" clip-path="url(#p33837858ba)" style="fill: #bfb3d8"/>
   </g>
   <g id="patch_53">
    <path d="M 200.144809 119.566086 
L 202.671252 119.566086 
L 202.671252 38.079641 
L 200.144809 38.079641 
z
" clip-path="url(#p33837858ba)" style="fill: #bfb3d8"/>
   </g>
   <g id="patch_54">
    <path d="M 203.383839 119.566086 
L 205.910282 119.566086 
L 205.910282 40.138865 
L 203.383839 40.138865 
z
" clip-path="url(#p33837858ba)" style="fill: #bfb3d8"/>
   </g>
   <g id="patch_55">
    <path d="M 206.622868 119.566086 
L 209.149311 119.566086 
L 209.149311 40.43304 
L 206.622868 40.43304 
z
" clip-path="url(#p33837858ba)" style="fill: #bfb3d8"/>
   </g>
   <g id="patch_56">
    <path d="M 209.861898 119.566086 
L 212.388341 119.566086 
L 212.388341 40.43304 
L 209.861898 40.43304 
z
" clip-path="url(#p33837858ba)" style="fill: #bfb3d8"/>
   </g>
   <g id="patch_57">
    <path d="M 213.100928 119.566086 
L 215.627371 119.566086 
L 215.627371 41.315565 
L 213.100928 41.315565 
z
" clip-path="url(#p33837858ba)" style="fill: #bfb3d8"/>
   </g>
   <g id="patch_58">
    <path d="M 216.339957 119.566086 
L 218.8664 119.566086 
L 218.8664 41.392591 
L 216.339957 41.392591 
z
" clip-path="url(#p33837858ba)" style="fill: #bfb3d8"/>
   </g>
   <g id="patch_59">
    <path d="M 219.578987 119.566086 
L 222.10543 119.566086 
L 222.10543 41.903915 
L 219.578987 41.903915 
z
" clip-path="url(#p33837858ba)" style="fill: #bfb3d8"/>
   </g>
   <g id="patch_60">
    <path d="M 222.818017 119.566086 
L 225.34446 119.566086 
L 225.34446 41.903915 
L 222.818017 41.903915 
z
" clip-path="url(#p33837858ba)" style="fill: #bfb3d8"/>
   </g>
   <g id="patch_61">
    <path d="M 226.057046 119.566086 
L 228.58349 119.566086 
L 228.58349 42.198089 
L 226.057046 42.198089 
z
" clip-path="url(#p33837858ba)" style="fill: #bfb3d8"/>
   </g>
   <g id="patch_62">
    <path d="M 229.296076 119.566086 
L 231.822519 119.566086 
L 231.822519 42.198089 
L 229.296076 42.198089 
z
" clip-path="url(#p33837858ba)" style="fill: #bfb3d8"/>
   </g>
   <g id="patch_63">
    <path d="M 232.535106 119.566086 
L 235.061549 119.566086 
L 235.061549 42.786439 
L 232.535106 42.786439 
z
" clip-path="url(#p33837858ba)" style="fill: #bfb3d8"/>
   </g>
   <g id="patch_64">
    <path d="M 235.774135 119.566086 
L 238.300579 119.566086 
L 238.300579 44.551489 
L 235.774135 44.551489 
z
" clip-path="url(#p33837858ba)" style="fill: #bfb3d8"/>
   </g>
   <g id="patch_65">
    <path d="M 239.013165 119.566086 
L 241.539608 119.566086 
L 241.539608 44.845663 
L 239.013165 44.845663 
z
" clip-path="url(#p33837858ba)" style="fill: #bfb3d8"/>
   </g>
   <g id="patch_66">
    <path d="M 242.252195 119.566086 
L 244.778638 119.566086 
L 244.778638 45.434013 
L 242.252195 45.434013 
z
" clip-path="url(#p33837858ba)" style="fill: #bfb3d8"/>
   </g>
   <g id="patch_67">
    <path d="M 245.491225 119.566086 
L 248.017668 119.566086 
L 248.017668 46.316538 
L 245.491225 46.316538 
z
" clip-path="url(#p33837858ba)" style="fill: #bfb3d8"/>
   </g>
   <g id="patch_68">
    <path d="M 248.730254 119.566086 
L 251.256697 119.566086 
L 251.256697 47.493237 
L 248.730254 47.493237 
z
" clip-path="url(#p33837858ba)" style="fill: #bfb3d8"/>
   </g>
   <g id="patch_69">
    <path d="M 251.969284 119.566086 
L 254.495727 119.566086 
L 254.495727 47.787412 
L 251.969284 47.787412 
z
" clip-path="url(#p33837858ba)" style="fill: #bfb3d8"/>
   </g>
   <g id="patch_70">
    <path d="M 255.208314 119.566086 
L 257.734757 119.566086 
L 257.734757 48.081587 
L 255.208314 48.081587 
z
" clip-path="url(#p33837858ba)" style="fill: #bfb3d8"/>
   </g>
   <g id="patch_71">
    <path d="M 258.447343 119.566086 
L 260.973786 119.566086 
L 260.973786 49.258287 
L 258.447343 49.258287 
z
" clip-path="url(#p33837858ba)" style="fill: #bfb3d8"/>
   </g>
   <g id="patch_72">
    <path d="M 261.686373 119.566086 
L 264.212816 119.566086 
L 264.212816 49.552462 
L 261.686373 49.552462 
z
" clip-path="url(#p33837858ba)" style="fill: #bfb3d8"/>
   </g>
   <g id="patch_73">
    <path d="M 264.925403 119.566086 
L 267.451846 119.566086 
L 267.451846 49.846637 
L 264.925403 49.846637 
z
" clip-path="url(#p33837858ba)" style="fill: #bfb3d8"/>
   </g>
   <g id="patch_74">
    <path d="M 268.164432 119.566086 
L 270.690875 119.566086 
L 270.690875 50.434986 
L 268.164432 50.434986 
z
" clip-path="url(#p33837858ba)" style="fill: #bfb3d8"/>
   </g>
   <g id="patch_75">
    <path d="M 271.403462 119.566086 
L 273.929905 119.566086 
L 273.929905 51.317511 
L 271.403462 51.317511 
z
" clip-path="url(#p33837858ba)" style="fill: #bfb3d8"/>
   </g>
   <g id="patch_76">
    <path d="M 274.642492 119.566086 
L 277.168935 119.566086 
L 277.168935 56.024309 
L 274.642492 56.024309 
z
" clip-path="url(#p33837858ba)" style="fill: #bfb3d8"/>
   </g>
   <g id="patch_77">
    <path d="M 277.881521 119.566086 
L 280.407965 119.566086 
L 280.407965 58.377708 
L 277.881521 58.377708 
z
" clip-path="url(#p33837858ba)" style="fill: #bfb3d8"/>
   </g>
   <g id="patch_78">
    <path d="M 281.120551 119.566086 
L 283.646994 119.566086 
L 283.646994 61.025282 
L 281.120551 61.025282 
z
" clip-path="url(#p33837858ba)" style="fill: #bfb3d8"/>
   </g>
   <g id="patch_79">
    <path d="M 284.359581 119.566086 
L 286.886024 119.566086 
L 286.886024 64.261206 
L 284.359581 64.261206 
z
" clip-path="url(#p33837858ba)" style="fill: #bfb3d8"/>
   </g>
   <g id="patch_80">
    <path d="M 287.59861 119.566086 
L 290.125054 119.566086 
L 290.125054 66.614605 
L 287.59861 66.614605 
z
" clip-path="url(#p33837858ba)" style="fill: #bfb3d8"/>
   </g>
   <g id="patch_81">
    <path d="M 290.83764 119.566086 
L 293.364083 119.566086 
L 293.364083 69.850529 
L 290.83764 69.850529 
z
" clip-path="url(#p33837858ba)" style="fill: #bfb3d8"/>
   </g>
   <g id="patch_82">
    <path d="M 294.07667 119.566086 
L 296.603113 119.566086 
L 296.603113 72.792278 
L 294.07667 72.792278 
z
" clip-path="url(#p33837858ba)" style="fill: #bfb3d8"/>
   </g>
   <g id="patch_83">
    <path d="M 297.3157 119.566086 
L 299.842143 119.566086 
L 299.842143 76.028202 
L 297.3157 76.028202 
z
" clip-path="url(#p33837858ba)" style="fill: #bfb3d8"/>
   </g>
   <g id="patch_84">
    <path d="M 300.554729 119.566086 
L 303.081172 119.566086 
L 303.081172 79.558301 
L 300.554729 79.558301 
z
" clip-path="url(#p33837858ba)" style="fill: #bfb3d8"/>
   </g>
   <g id="patch_85">
    <path d="M 303.793759 119.566086 
L 306.320202 119.566086 
L 306.320202 81.32335 
L 303.793759 81.32335 
z
" clip-path="url(#p33837858ba)" style="fill: #bfb3d8"/>
   </g>
   <g id="patch_86">
    <path d="M 307.032789 119.566086 
L 309.559232 119.566086 
L 309.559232 81.9117 
L 307.032789 81.9117 
z
" clip-path="url(#p33837858ba)" style="fill: #bfb3d8"/>
   </g>
   <g id="patch_87">
    <path d="M 310.271818 119.566086 
L 312.798261 119.566086 
L 312.798261 83.088399 
L 310.271818 83.088399 
z
" clip-path="url(#p33837858ba)" style="fill: #bfb3d8"/>
   </g>
   <g id="patch_88">
    <path d="M 313.510848 119.566086 
L 316.037291 119.566086 
L 316.037291 83.970924 
L 313.510848 83.970924 
z
" clip-path="url(#p33837858ba)" style="fill: #bfb3d8"/>
   </g>
   <g id="patch_89">
    <path d="M 316.749878 119.566086 
L 319.276321 119.566086 
L 319.276321 83.970924 
L 316.749878 83.970924 
z
" clip-path="url(#p33837858ba)" style="fill: #bfb3d8"/>
   </g>
   <g id="patch_90">
    <path d="M 319.988907 119.566086 
L 322.51535 119.566086 
L 322.51535 83.970924 
L 319.988907 83.970924 
z
" clip-path="url(#p33837858ba)" style="fill: #bfb3d8"/>
   </g>
   <g id="patch_91">
    <path d="M 323.227937 119.566086 
L 325.75438 119.566086 
L 325.75438 85.735973 
L 323.227937 85.735973 
z
" clip-path="url(#p33837858ba)" style="fill: #bfb3d8"/>
   </g>
   <g id="patch_92">
    <path d="M 326.466967 119.566086 
L 328.99341 119.566086 
L 328.99341 86.030148 
L 326.466967 86.030148 
z
" clip-path="url(#p33837858ba)" style="fill: #bfb3d8"/>
   </g>
   <g id="patch_93">
    <path d="M 329.705996 119.566086 
L 332.23244 119.566086 
L 332.23244 87.795198 
L 329.705996 87.795198 
z
" clip-path="url(#p33837858ba)" style="fill: #bfb3d8"/>
   </g>
   <g id="patch_94">
    <path d="M 332.945026 119.566086 
L 335.471469 119.566086 
L 335.471469 88.089372 
L 332.945026 88.089372 
z
" clip-path="url(#p33837858ba)" style="fill: #bfb3d8"/>
   </g>
   <g id="patch_95">
    <path d="M 336.184056 119.566086 
L 338.710499 119.566086 
L 338.710499 88.089372 
L 336.184056 88.089372 
z
" clip-path="url(#p33837858ba)" style="fill: #bfb3d8"/>
   </g>
   <g id="patch_96">
    <path d="M 339.423085 119.566086 
L 341.949529 119.566086 
L 341.949529 88.383547 
L 339.423085 88.383547 
z
" clip-path="url(#p33837858ba)" style="fill: #bfb3d8"/>
   </g>
   <g id="patch_97">
    <path d="M 342.662115 119.566086 
L 345.188558 119.566086 
L 345.188558 100.738893 
L 342.662115 100.738893 
z
" clip-path="url(#p33837858ba)" style="fill: #bfb3d8"/>
   </g>
   <g id="patch_98">
    <path d="M 345.901145 119.566086 
L 348.427588 119.566086 
L 348.427588 102.503942 
L 345.901145 102.503942 
z
" clip-path="url(#p33837858ba)" style="fill: #bfb3d8"/>
   </g>
   <g id="patch_99">
    <path d="M 349.140175 119.566086 
L 351.666618 119.566086 
L 351.666618 103.386467 
L 349.140175 103.386467 
z
" clip-path="url(#p33837858ba)" style="fill: #bfb3d8"/>
   </g>
   <g id="patch_100">
    <path d="M 352.379204 119.566086 
L 354.905647 119.566086 
L 354.905647 111.329189 
L 352.379204 111.329189 
z
" clip-path="url(#p33837858ba)" style="fill: #bfb3d8"/>
   </g>
   <g id="patch_101">
    <path d="M 355.618234 119.566086 
L 358.144677 119.566086 
L 358.144677 112.800063 
L 355.618234 112.800063 
z
" clip-path="url(#p33837858ba)" style="fill: #bfb3d8"/>
   </g>
   <g id="patch_102">
    <path d="M 358.857264 119.566086 
L 361.383707 119.566086 
L 361.383707 119.566086 
L 358.857264 119.566086 
z
" clip-path="url(#p33837858ba)" style="fill: #bfb3d8"/>
   </g>
   <g id="patch_103">
    <path d="M 38.193325 13.663125 
L 40.719768 13.663125 
L 40.719768 13.663125 
L 38.193325 13.663125 
z
" clip-path="url(#p33837858ba)" style="fill: #991b1e"/>
   </g>
   <g id="patch_104">
    <path d="M 41.432354 13.663125 
L 43.958797 13.663125 
L 43.958797 13.663125 
L 41.432354 13.663125 
z
" clip-path="url(#p33837858ba)" style="fill: #991b1e"/>
   </g>
   <g id="patch_105">
    <path d="M 44.671384 13.663125 
L 47.197827 13.663125 
L 47.197827 13.663125 
L 44.671384 13.663125 
z
" clip-path="url(#p33837858ba)" style="fill: #991b1e"/>
   </g>
   <g id="patch_106">
    <path d="M 47.910414 13.663125 
L 50.436857 13.663125 
L 50.436857 13.663125 
L 47.910414 13.663125 
z
" clip-path="url(#p33837858ba)" style="fill: #991b1e"/>
   </g>
   <g id="patch_107">
    <path d="M 51.149443 13.663125 
L 53.675886 13.663125 
L 53.675886 13.663125 
L 51.149443 13.663125 
z
" clip-path="url(#p33837858ba)" style="fill: #991b1e"/>
   </g>
   <g id="patch_108">
    <path d="M 54.388473 13.663125 
L 56.914916 13.663125 
L 56.914916 13.663125 
L 54.388473 13.663125 
z
" clip-path="url(#p33837858ba)" style="fill: #991b1e"/>
   </g>
   <g id="patch_109">
    <path d="M 57.627503 13.663125 
L 60.153946 13.663125 
L 60.153946 13.663125 
L 57.627503 13.663125 
z
" clip-path="url(#p33837858ba)" style="fill: #991b1e"/>
   </g>
   <g id="patch_110">
    <path d="M 60.866532 13.663125 
L 63.392975 13.663125 
L 63.392975 13.663125 
L 60.866532 13.663125 
z
" clip-path="url(#p33837858ba)" style="fill: #991b1e"/>
   </g>
   <g id="patch_111">
    <path d="M 64.105562 13.663125 
L 66.632005 13.663125 
L 66.632005 13.663125 
L 64.105562 13.663125 
z
" clip-path="url(#p33837858ba)" style="fill: #991b1e"/>
   </g>
   <g id="patch_112">
    <path d="M 67.344592 13.663125 
L 69.871035 13.663125 
L 69.871035 13.663125 
L 67.344592 13.663125 
z
" clip-path="url(#p33837858ba)" style="fill: #991b1e"/>
   </g>
   <g id="patch_113">
    <path d="M 70.583621 13.663125 
L 73.110065 13.663125 
L 73.110065 13.663125 
L 70.583621 13.663125 
z
" clip-path="url(#p33837858ba)" style="fill: #991b1e"/>
   </g>
   <g id="patch_114">
    <path d="M 73.822651 13.663125 
L 76.349094 13.663125 
L 76.349094 13.663125 
L 73.822651 13.663125 
z
" clip-path="url(#p33837858ba)" style="fill: #991b1e"/>
   </g>
   <g id="patch_115">
    <path d="M 77.061681 13.663125 
L 79.588124 13.663125 
L 79.588124 13.663125 
L 77.061681 13.663125 
z
" clip-path="url(#p33837858ba)" style="fill: #991b1e"/>
   </g>
   <g id="patch_116">
    <path d="M 80.30071 13.663125 
L 82.827154 13.663125 
L 82.827154 13.663125 
L 80.30071 13.663125 
z
" clip-path="url(#p33837858ba)" style="fill: #991b1e"/>
   </g>
   <g id="patch_117">
    <path d="M 83.53974 13.663125 
L 86.066183 13.663125 
L 86.066183 13.663125 
L 83.53974 13.663125 
z
" clip-path="url(#p33837858ba)" style="fill: #991b1e"/>
   </g>
   <g id="patch_118">
    <path d="M 86.77877 13.663125 
L 89.305213 13.663125 
L 89.305213 13.663125 
L 86.77877 13.663125 
z
" clip-path="url(#p33837858ba)" style="fill: #991b1e"/>
   </g>
   <g id="patch_119">
    <path d="M 90.0178 13.663125 
L 92.544243 13.663125 
L 92.544243 13.663125 
L 90.0178 13.663125 
z
" clip-path="url(#p33837858ba)" style="fill: #991b1e"/>
   </g>
   <g id="patch_120">
    <path d="M 93.256829 14.251475 
L 95.783272 14.251475 
L 95.783272 13.663125 
L 93.256829 13.663125 
z
" clip-path="url(#p33837858ba)" style="fill: #991b1e"/>
   </g>
   <g id="patch_121">
    <path d="M 96.495859 14.54565 
L 99.022302 14.54565 
L 99.022302 13.663125 
L 96.495859 13.663125 
z
" clip-path="url(#p33837858ba)" style="fill: #991b1e"/>
   </g>
   <g id="patch_122">
    <path d="M 99.734889 16.604874 
L 102.261332 16.604874 
L 102.261332 13.663125 
L 99.734889 13.663125 
z
" clip-path="url(#p33837858ba)" style="fill: #991b1e"/>
   </g>
   <g id="patch_123">
    <path d="M 102.973918 17.193224 
L 105.500361 17.193224 
L 105.500361 13.663125 
L 102.973918 13.663125 
z
" clip-path="url(#p33837858ba)" style="fill: #991b1e"/>
   </g>
   <g id="patch_124">
    <path d="M 106.212948 17.487399 
L 108.739391 17.487399 
L 108.739391 13.663125 
L 106.212948 13.663125 
z
" clip-path="url(#p33837858ba)" style="fill: #991b1e"/>
   </g>
   <g id="patch_125">
    <path d="M 109.451978 18.958273 
L 111.978421 18.958273 
L 111.978421 13.663125 
L 109.451978 13.663125 
z
" clip-path="url(#p33837858ba)" style="fill: #991b1e"/>
   </g>
   <g id="patch_126">
    <path d="M 112.691007 20.134973 
L 115.21745 20.134973 
L 115.21745 13.663125 
L 112.691007 13.663125 
z
" clip-path="url(#p33837858ba)" style="fill: #991b1e"/>
   </g>
   <g id="patch_127">
    <path d="M 115.930037 20.429147 
L 118.45648 20.429147 
L 118.45648 13.663125 
L 115.930037 13.663125 
z
" clip-path="url(#p33837858ba)" style="fill: #991b1e"/>
   </g>
   <g id="patch_128">
    <path d="M 119.169067 20.429147 
L 121.69551 20.429147 
L 121.69551 13.663125 
L 119.169067 13.663125 
z
" clip-path="url(#p33837858ba)" style="fill: #991b1e"/>
   </g>
   <g id="patch_129">
    <path d="M 122.408096 20.429147 
L 124.93454 20.429147 
L 124.93454 13.663125 
L 122.408096 13.663125 
z
" clip-path="url(#p33837858ba)" style="fill: #991b1e"/>
   </g>
   <g id="patch_130">
    <path d="M 125.647126 21.017497 
L 128.173569 21.017497 
L 128.173569 13.663125 
L 125.647126 13.663125 
z
" clip-path="url(#p33837858ba)" style="fill: #991b1e"/>
   </g>
   <g id="patch_131">
    <path d="M 128.886156 21.900022 
L 131.412599 21.900022 
L 131.412599 13.663125 
L 128.886156 13.663125 
z
" clip-path="url(#p33837858ba)" style="fill: #991b1e"/>
   </g>
   <g id="patch_132">
    <path d="M 132.125185 22.488372 
L 134.651629 22.488372 
L 134.651629 13.663125 
L 132.125185 13.663125 
z
" clip-path="url(#p33837858ba)" style="fill: #991b1e"/>
   </g>
   <g id="patch_133">
    <path d="M 135.364215 22.488372 
L 137.890658 22.488372 
L 137.890658 13.663125 
L 135.364215 13.663125 
z
" clip-path="url(#p33837858ba)" style="fill: #991b1e"/>
   </g>
   <g id="patch_134">
    <path d="M 138.603245 23.370896 
L 141.129688 23.370896 
L 141.129688 13.663125 
L 138.603245 13.663125 
z
" clip-path="url(#p33837858ba)" style="fill: #991b1e"/>
   </g>
   <g id="patch_135">
    <path d="M 141.842275 23.665071 
L 144.368718 23.665071 
L 144.368718 13.663125 
L 141.842275 13.663125 
z
" clip-path="url(#p33837858ba)" style="fill: #991b1e"/>
   </g>
   <g id="patch_136">
    <path d="M 145.081304 24.841771 
L 147.607747 24.841771 
L 147.607747 13.663125 
L 145.081304 13.663125 
z
" clip-path="url(#p33837858ba)" style="fill: #991b1e"/>
   </g>
   <g id="patch_137">
    <path d="M 148.320334 27.78352 
L 150.846777 27.78352 
L 150.846777 13.663125 
L 148.320334 13.663125 
z
" clip-path="url(#p33837858ba)" style="fill: #991b1e"/>
   </g>
   <g id="patch_138">
    <path d="M 151.559364 28.37187 
L 154.085807 28.37187 
L 154.085807 13.663125 
L 151.559364 13.663125 
z
" clip-path="url(#p33837858ba)" style="fill: #991b1e"/>
   </g>
   <g id="patch_139">
    <path d="M 154.798393 29.548569 
L 157.324836 29.548569 
L 157.324836 13.663125 
L 154.798393 13.663125 
z
" clip-path="url(#p33837858ba)" style="fill: #991b1e"/>
   </g>
   <g id="patch_140">
    <path d="M 158.037423 29.842744 
L 160.563866 29.842744 
L 160.563866 13.663125 
L 158.037423 13.663125 
z
" clip-path="url(#p33837858ba)" style="fill: #991b1e"/>
   </g>
   <g id="patch_141">
    <path d="M 161.276453 31.607793 
L 163.802896 31.607793 
L 163.802896 13.663125 
L 161.276453 13.663125 
z
" clip-path="url(#p33837858ba)" style="fill: #991b1e"/>
   </g>
   <g id="patch_142">
    <path d="M 164.515482 31.607793 
L 167.041925 31.607793 
L 167.041925 13.663125 
L 164.515482 13.663125 
z
" clip-path="url(#p33837858ba)" style="fill: #991b1e"/>
   </g>
   <g id="patch_143">
    <path d="M 167.754512 31.901968 
L 170.280955 31.901968 
L 170.280955 13.663125 
L 167.754512 13.663125 
z
" clip-path="url(#p33837858ba)" style="fill: #991b1e"/>
   </g>
   <g id="patch_144">
    <path d="M 170.993542 32.196143 
L 173.519985 32.196143 
L 173.519985 13.663125 
L 170.993542 13.663125 
z
" clip-path="url(#p33837858ba)" style="fill: #991b1e"/>
   </g>
   <g id="patch_145">
    <path d="M 174.232571 32.490318 
L 176.759015 32.490318 
L 176.759015 13.663125 
L 174.232571 13.663125 
z
" clip-path="url(#p33837858ba)" style="fill: #991b1e"/>
   </g>
   <g id="patch_146">
    <path d="M 177.471601 32.490318 
L 179.998044 32.490318 
L 179.998044 13.663125 
L 177.471601 13.663125 
z
" clip-path="url(#p33837858ba)" style="fill: #991b1e"/>
   </g>
   <g id="patch_147">
    <path d="M 180.710631 32.784493 
L 183.237074 32.784493 
L 183.237074 13.663125 
L 180.710631 13.663125 
z
" clip-path="url(#p33837858ba)" style="fill: #991b1e"/>
   </g>
   <g id="patch_148">
    <path d="M 183.94966 33.372843 
L 186.476104 33.372843 
L 186.476104 13.663125 
L 183.94966 13.663125 
z
" clip-path="url(#p33837858ba)" style="fill: #991b1e"/>
   </g>
   <g id="patch_149">
    <path d="M 187.18869 33.961192 
L 189.715133 33.961192 
L 189.715133 13.663125 
L 187.18869 13.663125 
z
" clip-path="url(#p33837858ba)" style="fill: #991b1e"/>
   </g>
   <g id="patch_150">
    <path d="M 190.42772 33.961192 
L 192.954163 33.961192 
L 192.954163 13.663125 
L 190.42772 13.663125 
z
" clip-path="url(#p33837858ba)" style="fill: #991b1e"/>
   </g>
   <g id="patch_151">
    <path d="M 193.66675 34.843717 
L 196.193193 34.843717 
L 196.193193 13.663125 
L 193.66675 13.663125 
z
" clip-path="url(#p33837858ba)" style="fill: #991b1e"/>
   </g>
   <g id="patch_152">
    <path d="M 196.905779 37.262671 
L 199.432222 37.262671 
L 199.432222 13.663125 
L 196.905779 13.663125 
z
" clip-path="url(#p33837858ba)" style="fill: #991b1e"/>
   </g>
   <g id="patch_153">
    <path d="M 200.144809 38.079641 
L 202.671252 38.079641 
L 202.671252 13.663125 
L 200.144809 13.663125 
z
" clip-path="url(#p33837858ba)" style="fill: #991b1e"/>
   </g>
   <g id="patch_154">
    <path d="M 203.383839 40.138865 
L 205.910282 40.138865 
L 205.910282 13.663125 
L 203.383839 13.663125 
z
" clip-path="url(#p33837858ba)" style="fill: #991b1e"/>
   </g>
   <g id="patch_155">
    <path d="M 206.622868 40.43304 
L 209.149311 40.43304 
L 209.149311 13.663125 
L 206.622868 13.663125 
z
" clip-path="url(#p33837858ba)" style="fill: #991b1e"/>
   </g>
   <g id="patch_156">
    <path d="M 209.861898 40.43304 
L 212.388341 40.43304 
L 212.388341 13.663125 
L 209.861898 13.663125 
z
" clip-path="url(#p33837858ba)" style="fill: #991b1e"/>
   </g>
   <g id="patch_157">
    <path d="M 213.100928 41.315565 
L 215.627371 41.315565 
L 215.627371 13.663125 
L 213.100928 13.663125 
z
" clip-path="url(#p33837858ba)" style="fill: #991b1e"/>
   </g>
   <g id="patch_158">
    <path d="M 216.339957 41.392591 
L 218.8664 41.392591 
L 218.8664 13.663125 
L 216.339957 13.663125 
z
" clip-path="url(#p33837858ba)" style="fill: #991b1e"/>
   </g>
   <g id="patch_159">
    <path d="M 219.578987 41.903915 
L 222.10543 41.903915 
L 222.10543 13.663125 
L 219.578987 13.663125 
z
" clip-path="url(#p33837858ba)" style="fill: #991b1e"/>
   </g>
   <g id="patch_160">
    <path d="M 222.818017 41.903915 
L 225.34446 41.903915 
L 225.34446 13.663125 
L 222.818017 13.663125 
z
" clip-path="url(#p33837858ba)" style="fill: #991b1e"/>
   </g>
   <g id="patch_161">
    <path d="M 226.057046 42.198089 
L 228.58349 42.198089 
L 228.58349 13.663125 
L 226.057046 13.663125 
z
" clip-path="url(#p33837858ba)" style="fill: #991b1e"/>
   </g>
   <g id="patch_162">
    <path d="M 229.296076 42.198089 
L 231.822519 42.198089 
L 231.822519 13.663125 
L 229.296076 13.663125 
z
" clip-path="url(#p33837858ba)" style="fill: #991b1e"/>
   </g>
   <g id="patch_163">
    <path d="M 232.535106 42.786439 
L 235.061549 42.786439 
L 235.061549 13.663125 
L 232.535106 13.663125 
z
" clip-path="url(#p33837858ba)" style="fill: #991b1e"/>
   </g>
   <g id="patch_164">
    <path d="M 235.774135 44.551489 
L 238.300579 44.551489 
L 238.300579 13.663125 
L 235.774135 13.663125 
z
" clip-path="url(#p33837858ba)" style="fill: #991b1e"/>
   </g>
   <g id="patch_165">
    <path d="M 239.013165 44.845663 
L 241.539608 44.845663 
L 241.539608 13.663125 
L 239.013165 13.663125 
z
" clip-path="url(#p33837858ba)" style="fill: #991b1e"/>
   </g>
   <g id="patch_166">
    <path d="M 242.252195 45.434013 
L 244.778638 45.434013 
L 244.778638 13.663125 
L 242.252195 13.663125 
z
" clip-path="url(#p33837858ba)" style="fill: #991b1e"/>
   </g>
   <g id="patch_167">
    <path d="M 245.491225 46.316538 
L 248.017668 46.316538 
L 248.017668 13.663125 
L 245.491225 13.663125 
z
" clip-path="url(#p33837858ba)" style="fill: #991b1e"/>
   </g>
   <g id="patch_168">
    <path d="M 248.730254 47.493237 
L 251.256697 47.493237 
L 251.256697 13.663125 
L 248.730254 13.663125 
z
" clip-path="url(#p33837858ba)" style="fill: #991b1e"/>
   </g>
   <g id="patch_169">
    <path d="M 251.969284 47.787412 
L 254.495727 47.787412 
L 254.495727 13.663125 
L 251.969284 13.663125 
z
" clip-path="url(#p33837858ba)" style="fill: #991b1e"/>
   </g>
   <g id="patch_170">
    <path d="M 255.208314 48.081587 
L 257.734757 48.081587 
L 257.734757 13.663125 
L 255.208314 13.663125 
z
" clip-path="url(#p33837858ba)" style="fill: #991b1e"/>
   </g>
   <g id="patch_171">
    <path d="M 258.447343 49.258287 
L 260.973786 49.258287 
L 260.973786 13.663125 
L 258.447343 13.663125 
z
" clip-path="url(#p33837858ba)" style="fill: #991b1e"/>
   </g>
   <g id="patch_172">
    <path d="M 261.686373 49.552462 
L 264.212816 49.552462 
L 264.212816 13.663125 
L 261.686373 13.663125 
z
" clip-path="url(#p33837858ba)" style="fill: #991b1e"/>
   </g>
   <g id="patch_173">
    <path d="M 264.925403 49.846637 
L 267.451846 49.846637 
L 267.451846 13.663125 
L 264.925403 13.663125 
z
" clip-path="url(#p33837858ba)" style="fill: #991b1e"/>
   </g>
   <g id="patch_174">
    <path d="M 268.164432 50.434986 
L 270.690875 50.434986 
L 270.690875 13.663125 
L 268.164432 13.663125 
z
" clip-path="url(#p33837858ba)" style="fill: #991b1e"/>
   </g>
   <g id="patch_175">
    <path d="M 271.403462 51.317511 
L 273.929905 51.317511 
L 273.929905 13.663125 
L 271.403462 13.663125 
z
" clip-path="url(#p33837858ba)" style="fill: #991b1e"/>
   </g>
   <g id="patch_176">
    <path d="M 274.642492 56.024309 
L 277.168935 56.024309 
L 277.168935 13.663125 
L 274.642492 13.663125 
z
" clip-path="url(#p33837858ba)" style="fill: #991b1e"/>
   </g>
   <g id="patch_177">
    <path d="M 277.881521 58.377708 
L 280.407965 58.377708 
L 280.407965 13.663125 
L 277.881521 13.663125 
z
" clip-path="url(#p33837858ba)" style="fill: #991b1e"/>
   </g>
   <g id="patch_178">
    <path d="M 281.120551 61.025282 
L 283.646994 61.025282 
L 283.646994 13.663125 
L 281.120551 13.663125 
z
" clip-path="url(#p33837858ba)" style="fill: #991b1e"/>
   </g>
   <g id="patch_179">
    <path d="M 284.359581 64.261206 
L 286.886024 64.261206 
L 286.886024 13.663125 
L 284.359581 13.663125 
z
" clip-path="url(#p33837858ba)" style="fill: #991b1e"/>
   </g>
   <g id="patch_180">
    <path d="M 287.59861 66.614605 
L 290.125054 66.614605 
L 290.125054 13.663125 
L 287.59861 13.663125 
z
" clip-path="url(#p33837858ba)" style="fill: #991b1e"/>
   </g>
   <g id="patch_181">
    <path d="M 290.83764 69.850529 
L 293.364083 69.850529 
L 293.364083 13.663125 
L 290.83764 13.663125 
z
" clip-path="url(#p33837858ba)" style="fill: #991b1e"/>
   </g>
   <g id="patch_182">
    <path d="M 294.07667 72.792278 
L 296.603113 72.792278 
L 296.603113 13.663125 
L 294.07667 13.663125 
z
" clip-path="url(#p33837858ba)" style="fill: #991b1e"/>
   </g>
   <g id="patch_183">
    <path d="M 297.3157 76.028202 
L 299.842143 76.028202 
L 299.842143 13.663125 
L 297.3157 13.663125 
z
" clip-path="url(#p33837858ba)" style="fill: #991b1e"/>
   </g>
   <g id="patch_184">
    <path d="M 300.554729 79.558301 
L 303.081172 79.558301 
L 303.081172 13.663125 
L 300.554729 13.663125 
z
" clip-path="url(#p33837858ba)" style="fill: #991b1e"/>
   </g>
   <g id="patch_185">
    <path d="M 303.793759 81.32335 
L 306.320202 81.32335 
L 306.320202 13.663125 
L 303.793759 13.663125 
z
" clip-path="url(#p33837858ba)" style="fill: #991b1e"/>
   </g>
   <g id="patch_186">
    <path d="M 307.032789 81.9117 
L 309.559232 81.9117 
L 309.559232 13.663125 
L 307.032789 13.663125 
z
" clip-path="url(#p33837858ba)" style="fill: #991b1e"/>
   </g>
   <g id="patch_187">
    <path d="M 310.271818 83.088399 
L 312.798261 83.088399 
L 312.798261 13.663125 
L 310.271818 13.663125 
z
" clip-path="url(#p33837858ba)" style="fill: #991b1e"/>
   </g>
   <g id="patch_188">
    <path d="M 313.510848 83.970924 
L 316.037291 83.970924 
L 316.037291 13.663125 
L 313.510848 13.663125 
z
" clip-path="url(#p33837858ba)" style="fill: #991b1e"/>
   </g>
   <g id="patch_189">
    <path d="M 316.749878 83.970924 
L 319.276321 83.970924 
L 319.276321 13.663125 
L 316.749878 13.663125 
z
" clip-path="url(#p33837858ba)" style="fill: #991b1e"/>
   </g>
   <g id="patch_190">
    <path d="M 319.988907 83.970924 
L 322.51535 83.970924 
L 322.51535 13.663125 
L 319.988907 13.663125 
z
" clip-path="url(#p33837858ba)" style="fill: #991b1e"/>
   </g>
   <g id="patch_191">
    <path d="M 323.227937 85.735973 
L 325.75438 85.735973 
L 325.75438 13.663125 
L 323.227937 13.663125 
z
" clip-path="url(#p33837858ba)" style="fill: #991b1e"/>
   </g>
   <g id="patch_192">
    <path d="M 326.466967 86.030148 
L 328.99341 86.030148 
L 328.99341 13.663125 
L 326.466967 13.663125 
z
" clip-path="url(#p33837858ba)" style="fill: #991b1e"/>
   </g>
   <g id="patch_193">
    <path d="M 329.705996 87.795198 
L 332.23244 87.795198 
L 332.23244 13.663125 
L 329.705996 13.663125 
z
" clip-path="url(#p33837858ba)" style="fill: #991b1e"/>
   </g>
   <g id="patch_194">
    <path d="M 332.945026 88.089372 
L 335.471469 88.089372 
L 335.471469 13.663125 
L 332.945026 13.663125 
z
" clip-path="url(#p33837858ba)" style="fill: #991b1e"/>
   </g>
   <g id="patch_195">
    <path d="M 336.184056 88.089372 
L 338.710499 88.089372 
L 338.710499 13.663125 
L 336.184056 13.663125 
z
" clip-path="url(#p33837858ba)" style="fill: #991b1e"/>
   </g>
   <g id="patch_196">
    <path d="M 339.423085 88.383547 
L 341.949529 88.383547 
L 341.949529 13.663125 
L 339.423085 13.663125 
z
" clip-path="url(#p33837858ba)" style="fill: #991b1e"/>
   </g>
   <g id="patch_197">
    <path d="M 342.662115 100.738893 
L 345.188558 100.738893 
L 345.188558 13.663125 
L 342.662115 13.663125 
z
" clip-path="url(#p33837858ba)" style="fill: #991b1e"/>
   </g>
   <g id="patch_198">
    <path d="M 345.901145 102.503942 
L 348.427588 102.503942 
L 348.427588 13.663125 
L 345.901145 13.663125 
z
" clip-path="url(#p33837858ba)" style="fill: #991b1e"/>
   </g>
   <g id="patch_199">
    <path d="M 349.140175 103.386467 
L 351.666618 103.386467 
L 351.666618 13.663125 
L 349.140175 13.663125 
z
" clip-path="url(#p33837858ba)" style="fill: #991b1e"/>
   </g>
   <g id="patch_200">
    <path d="M 352.379204 111.329189 
L 354.905647 111.329189 
L 354.905647 13.663125 
L 352.379204 13.663125 
z
" clip-path="url(#p33837858ba)" style="fill: #991b1e"/>
   </g>
   <g id="patch_201">
    <path d="M 355.618234 112.800063 
L 358.144677 112.800063 
L 358.144677 13.663125 
L 355.618234 13.663125 
z
" clip-path="url(#p33837858ba)" style="fill: #991b1e"/>
   </g>
   <g id="patch_202">
    <path d="M 358.857264 119.566086 
L 361.383707 119.566086 
L 361.383707 13.663125 
L 358.857264 13.663125 
z
" clip-path="url(#p33837858ba)" style="fill: #991b1e"/>
   </g>
   <g id="matplotlib.axis_1">
    <g id="text_1">
     <text style="font-size: 9px; font-family: 'Arial'; text-anchor: middle" x="199.788516" y="130.008117" transform="rotate(-0 199.788516 130.008117)">videos</text>
    </g>
   </g>
   <g id="matplotlib.axis_2">
    <g id="ytick_1">
     <g id="line2d_1">
      <defs>
       <path id="mf28c9ecbc2" d="M 0 0 
L -3 0 
" style="stroke: #1a1a1a; stroke-width: 0.8"/>
      </defs>
      <g>
       <use xlink:href="#mf28c9ecbc2" x="37.837031" y="119.566086" style="fill: #1a1a1a; stroke: #1a1a1a; stroke-width: 0.8"/>
      </g>
     </g>
     <g id="text_2">
      <text style="font-size: 8px; font-family: 'Arial'; text-anchor: end; fill: #1a1a1a" x="31.337031" y="122.429211" transform="rotate(-0 31.337031 122.429211)">0</text>
     </g>
    </g>
    <g id="ytick_2">
     <g id="line2d_2">
      <g>
       <use xlink:href="#mf28c9ecbc2" x="37.837031" y="93.090346" style="fill: #1a1a1a; stroke: #1a1a1a; stroke-width: 0.8"/>
      </g>
     </g>
     <g id="text_3">
      <text style="font-size: 8px; font-family: 'Arial'; text-anchor: end; fill: #1a1a1a" x="31.337031" y="95.953471" transform="rotate(-0 31.337031 95.953471)">25</text>
     </g>
    </g>
    <g id="ytick_3">
     <g id="line2d_3">
      <g>
       <use xlink:href="#mf28c9ecbc2" x="37.837031" y="66.614605" style="fill: #1a1a1a; stroke: #1a1a1a; stroke-width: 0.8"/>
      </g>
     </g>
     <g id="text_4">
      <text style="font-size: 8px; font-family: 'Arial'; text-anchor: end; fill: #1a1a1a" x="31.337031" y="69.47773" transform="rotate(-0 31.337031 69.47773)">50</text>
     </g>
    </g>
    <g id="ytick_4">
     <g id="line2d_4">
      <g>
       <use xlink:href="#mf28c9ecbc2" x="37.837031" y="40.138865" style="fill: #1a1a1a; stroke: #1a1a1a; stroke-width: 0.8"/>
      </g>
     </g>
     <g id="text_5">
      <text style="font-size: 8px; font-family: 'Arial'; text-anchor: end; fill: #1a1a1a" x="31.337031" y="43.00199" transform="rotate(-0 31.337031 43.00199)">75</text>
     </g>
    </g>
    <g id="ytick_5">
     <g id="line2d_5">
      <g>
       <use xlink:href="#mf28c9ecbc2" x="37.837031" y="13.663125" style="fill: #1a1a1a; stroke: #1a1a1a; stroke-width: 0.8"/>
      </g>
     </g>
     <g id="text_6">
      <text style="font-size: 8px; font-family: 'Arial'; text-anchor: end; fill: #1a1a1a" x="31.337031" y="16.52625" transform="rotate(-0 31.337031 16.52625)">100</text>
     </g>
    </g>
    <g id="text_7">
     <text style="font-size: 9px; font-family: 'Arial'; text-anchor: middle" x="12.202031" y="66.614605" transform="rotate(-90 12.202031 66.614605)">% of frames</text>
    </g>
   </g>
   <g id="patch_203">
    <path d="M 37.837031 119.566086 
L 37.837031 13.663125 
" style="fill: none; stroke: #1a1a1a; stroke-width: 0.8; stroke-linejoin: miter; stroke-linecap: square"/>
   </g>
   <g id="patch_204">
    <path d="M 37.837031 119.566086 
L 361.74 119.566086 
" style="fill: none; stroke: #1a1a1a; stroke-width: 0.8; stroke-linejoin: miter; stroke-linecap: square"/>
   </g>
   <g id="legend_1">
    <g id="patch_205">
     <path d="M 135.97875 150.800971 
L 147.87875 150.800971 
L 147.87875 140.983471 
L 135.97875 140.983471 
z
" style="fill: #bfb3d8"/>
    </g>
    <g id="text_8">
     <text style="font-size: 8.5px; font-family: 'Arial'; text-anchor: start" x="152.12875" y="148.718471" transform="rotate(-0 152.12875 148.718471)">correctly labelled</text>
    </g>
    <g id="patch_206">
     <path d="M 229.503984 150.800971 
L 241.403984 150.800971 
L 241.403984 140.983471 
L 229.503984 140.983471 
z
" style="fill: #991b1e"/>
    </g>
    <g id="text_9">
     <text style="font-size: 8.5px; font-family: 'Arial'; text-anchor: start" x="245.653984" y="148.718471" transform="rotate(-0 245.653984 148.718471)">error</text>
    </g>
   </g>
  </g>
 </g>
 <defs>
  <clipPath id="p33837858ba">
   <rect x="37.837031" y="13.663125" width="323.902969" height="105.902961"/>
  </clipPath>
 </defs>
</svg>
