<?xml version="1.0" encoding="utf-8" standalone="no"?>
<!DOCTYPE svg PUBLIC "-//W3C//DTD SVG 1.1//EN"
  "http://www.w3.org/Graphics/SVG/1.1/DTD/svg11.dtd">
<svg xmlns:xlink="http://www.w3.org/1999/xlink" width="375.89952pt" height="173.400415pt" viewBox="0 0 375.89952 173.400415" xmlns="http://www.w3.org/2000/svg" version="1.1">
 <metadata>
  <rdf:RDF xmlns:dc="http://purl.org/dc/elements/1.1/" xmlns:cc="http://creativecommons.org/ns#" xmlns:rdf="http://www.w3.org/1999/02/22-rdf-syntax-ns#">
   <cc:Work>
    <dc:type rdf:resource="http://purl.org/dc/dcmitype/StillImage"/>
    <dc:date>2026-05-13T18:15:01.435606</dc:date>
    <dc:format>image/svg+xml</dc:format>
    <dc:creator>
     <cc:Agent>
      <dc:title>Matplotlib v3.10.9, https://matplotlib.org/</dc:title>
     </cc:Agent>
    </dc:creator>
   </cc:Work>
  </rdf:RDF>
 </metadata>
 <defs>
  <style type="text/css">*{stroke-linejoin: round; stroke-linecap: butt}</style>
 </defs>
 <g id="figure_1">
  <g id="patch_1">
   <path d="M 0 173.400415 
L 375.89952 173.400415 
L 375.89952 0 
L 0 0 
z
" style="fill: #ffffff"/>
  </g>
  <g id="axes_1">
   <g id="patch_2">
    <path d="M 39.277031 129.770904 
L 368.69952 129.770904 
L 368.69952 10.063125 
L 39.277031 10.063125 
z
" style="fill: #ffffff"/>
   </g>
   <g id="patch_3">
    <path d="M 39.639396 129.770904 
L 42.208891 129.770904 
L 42.208891 10.063125 
L 39.639396 10.063125 
z
" clip-path="url(#p84ff050deb)" style="fill: #bfb3d8"/>
   </g>
   <g id="patch_4">
    <path d="M 42.933621 129.770904 
L 45.503116 129.770904 
L 45.503116 10.063125 
L 42.933621 10.063125 
z
" clip-path="url(#p84ff050deb)" style="fill: #bfb3d8"/>
   </g>
   <g id="patch_5">
    <path d="M 46.227846 129.770904 
L 48.797341 129.770904 
L 48.797341 10.063125 
L 46.227846 10.063125 
z
" clip-path="url(#p84ff050deb)" style="fill: #bfb3d8"/>
   </g>
   <g id="patch_6">
    <path d="M 49.522071 129.770904 
L 52.091566 129.770904 
L 52.091566 10.063125 
L 49.522071 10.063125 
z
" clip-path="url(#p84ff050deb)" style="fill: #bfb3d8"/>
   </g>
   <g id="patch_7">
    <path d="M 52.816296 129.770904 
L 55.385791 129.770904 
L 55.385791 10.063125 
L 52.816296 10.063125 
z
" clip-path="url(#p84ff050deb)" style="fill: #bfb3d8"/>
   </g>
   <g id="patch_8">
    <path d="M 56.11052 129.770904 
L 58.680016 129.770904 
L 58.680016 10.063125 
L 56.11052 10.063125 
z
" clip-path="url(#p84ff050deb)" style="fill: #bfb3d8"/>
   </g>
   <g id="patch_9">
    <path d="M 59.404745 129.770904 
L 61.974241 129.770904 
L 61.974241 10.063125 
L 59.404745 10.063125 
z
" clip-path="url(#p84ff050deb)" style="fill: #bfb3d8"/>
   </g>
   <g id="patch_10">
    <path d="M 62.69897 129.770904 
L 65.268466 129.770904 
L 65.268466 10.063125 
L 62.69897 10.063125 
z
" clip-path="url(#p84ff050deb)" style="fill: #bfb3d8"/>
   </g>
   <g id="patch_11">
    <path d="M 65.993195 129.770904 
L 68.56269 129.770904 
L 68.56269 10.063125 
L 65.993195 10.063125 
z
" clip-path="url(#p84ff050deb)" style="fill: #bfb3d8"/>
   </g>
   <g id="patch_12">
    <path d="M 69.28742 129.770904 
L 71.856915 129.770904 
L 71.856915 10.063125 
L 69.28742 10.063125 
z
" clip-path="url(#p84ff050deb)" style="fill: #bfb3d8"/>
   </g>
   <g id="patch_13">
    <path d="M 72.581645 129.770904 
L 75.15114 129.770904 
L 75.15114 10.063125 
L 72.581645 10.063125 
z
" clip-path="url(#p84ff050deb)" style="fill: #bfb3d8"/>
   </g>
   <g id="patch_14">
    <path d="M 75.87587 129.770904 
L 78.445365 129.770904 
L 78.445365 10.063125 
L 75.87587 10.063125 
z
" clip-path="url(#p84ff050deb)" style="fill: #bfb3d8"/>
   </g>
   <g id="patch_15">
    <path d="M 79.170095 129.770904 
L 81.73959 129.770904 
L 81.73959 10.063125 
L 79.170095 10.063125 
z
" clip-path="url(#p84ff050deb)" style="fill: #bfb3d8"/>
   </g>
   <g id="patch_16">
    <path d="M 82.46432 129.770904 
L 85.033815 129.770904 
L 85.033815 10.063125 
L 82.46432 10.063125 
z
" clip-path="url(#p84ff050deb)" style="fill: #bfb3d8"/>
   </g>
   <g id="patch_17">
    <path d="M 85.758544 129.770904 
L 88.32804 129.770904 
L 88.32804 10.063125 
L 85.758544 10.063125 
z
" clip-path="url(#p84ff050deb)" style="fill: #bfb3d8"/>
   </g>
   <g id="patch_18">
    <path d="M 89.052769 129.770904 
L 91.622265 129.770904 
L 91.622265 10.063125 
L 89.052769 10.063125 
z
" clip-path="url(#p84ff050deb)" style="fill: #bfb3d8"/>
   </g>
   <g id="patch_19">
    <path d="M 92.346994 129.770904 
L 94.91649 129.770904 
L 94.91649 10.063125 
L 92.346994 10.063125 
z
" clip-path="url(#p84ff050deb)" style="fill: #bfb3d8"/>
   </g>
   <g id="patch_20">
    <path d="M 95.641219 129.770904 
L 98.210714 129.770904 
L 98.210714 10.728168 
L 95.641219 10.728168 
z
" clip-path="url(#p84ff050deb)" style="fill: #bfb3d8"/>
   </g>
   <g id="patch_21">
    <path d="M 98.935444 129.770904 
L 101.504939 129.770904 
L 101.504939 11.06069 
L 98.935444 11.06069 
z
" clip-path="url(#p84ff050deb)" style="fill: #bfb3d8"/>
   </g>
   <g id="patch_22">
    <path d="M 102.229669 129.770904 
L 104.799164 129.770904 
L 104.799164 13.388341 
L 102.229669 13.388341 
z
" clip-path="url(#p84ff050deb)" style="fill: #bfb3d8"/>
   </g>
   <g id="patch_23">
    <path d="M 105.523894 129.770904 
L 108.093389 129.770904 
L 108.093389 14.053384 
L 105.523894 14.053384 
z
" clip-path="url(#p84ff050deb)" style="fill: #bfb3d8"/>
   </g>
   <g id="patch_24">
    <path d="M 108.818119 129.770904 
L 111.387614 129.770904 
L 111.387614 14.385906 
L 108.818119 14.385906 
z
" clip-path="url(#p84ff050deb)" style="fill: #bfb3d8"/>
   </g>
   <g id="patch_25">
    <path d="M 112.112344 129.770904 
L 114.681839 129.770904 
L 114.681839 16.048514 
L 112.112344 16.048514 
z
" clip-path="url(#p84ff050deb)" style="fill: #bfb3d8"/>
   </g>
   <g id="patch_26">
    <path d="M 115.406568 129.770904 
L 117.976064 129.770904 
L 117.976064 17.3786 
L 115.406568 17.3786 
z
" clip-path="url(#p84ff050deb)" style="fill: #bfb3d8"/>
   </g>
   <g id="patch_27">
    <path d="M 118.700793 129.770904 
L 121.270289 129.770904 
L 121.270289 17.711122 
L 118.700793 17.711122 
z
" clip-path="url(#p84ff050deb)" style="fill: #bfb3d8"/>
   </g>
   <g id="patch_28">
    <path d="M 121.995018 129.770904 
L 124.564514 129.770904 
L 124.564514 17.711122 
L 121.995018 17.711122 
z
" clip-path="url(#p84ff050deb)" style="fill: #bfb3d8"/>
   </g>
   <g id="patch_29">
    <path d="M 125.289243 129.770904 
L 127.858738 129.770904 
L 127.858738 17.711122 
L 125.289243 17.711122 
z
" clip-path="url(#p84ff050deb)" style="fill: #bfb3d8"/>
   </g>
   <g id="patch_30">
    <path d="M 128.583468 129.770904 
L 131.152963 129.770904 
L 131.152963 18.376165 
L 128.583468 18.376165 
z
" clip-path="url(#p84ff050deb)" style="fill: #bfb3d8"/>
   </g>
   <g id="patch_31">
    <path d="M 131.877693 129.770904 
L 134.447188 129.770904 
L 134.447188 19.37373 
L 131.877693 19.37373 
z
" clip-path="url(#p84ff050deb)" style="fill: #bfb3d8"/>
   </g>
   <g id="patch_32">
    <path d="M 135.171918 129.770904 
L 137.741413 129.770904 
L 137.741413 20.038773 
L 135.171918 20.038773 
z
" clip-path="url(#p84ff050deb)" style="fill: #bfb3d8"/>
   </g>
   <g id="patch_33">
    <path d="M 138.466143 129.770904 
L 141.035638 129.770904 
L 141.035638 20.038773 
L 138.466143 20.038773 
z
" clip-path="url(#p84ff050deb)" style="fill: #bfb3d8"/>
   </g>
   <g id="patch_34">
    <path d="M 141.760368 129.770904 
L 144.329863 129.770904 
L 144.329863 21.036338 
L 141.760368 21.036338 
z
" clip-path="url(#p84ff050deb)" style="fill: #bfb3d8"/>
   </g>
   <g id="patch_35">
    <path d="M 145.054592 129.770904 
L 147.624088 129.770904 
L 147.624088 21.36886 
L 145.054592 21.36886 
z
" clip-path="url(#p84ff050deb)" style="fill: #bfb3d8"/>
   </g>
   <g id="patch_36">
    <path d="M 148.348817 129.770904 
L 150.918313 129.770904 
L 150.918313 22.698946 
L 148.348817 22.698946 
z
" clip-path="url(#p84ff050deb)" style="fill: #bfb3d8"/>
   </g>
   <g id="patch_37">
    <path d="M 151.643042 129.770904 
L 154.212538 129.770904 
L 154.212538 26.024162 
L 151.643042 26.024162 
z
" clip-path="url(#p84ff050deb)" style="fill: #bfb3d8"/>
   </g>
   <g id="patch_38">
    <path d="M 154.937267 129.770904 
L 157.506762 129.770904 
L 157.506762 26.689205 
L 154.937267 26.689205 
z
" clip-path="url(#p84ff050deb)" style="fill: #bfb3d8"/>
   </g>
   <g id="patch_39">
    <path d="M 158.231492 129.770904 
L 160.800987 129.770904 
L 160.800987 28.019292 
L 158.231492 28.019292 
z
" clip-path="url(#p84ff050deb)" style="fill: #bfb3d8"/>
   </g>
   <g id="patch_40">
    <path d="M 161.525717 129.770904 
L 164.095212 129.770904 
L 164.095212 28.351813 
L 161.525717 28.351813 
z
" clip-path="url(#p84ff050deb)" style="fill: #bfb3d8"/>
   </g>
   <g id="patch_41">
    <path d="M 164.819942 129.770904 
L 167.389437 129.770904 
L 167.389437 30.346943 
L 164.819942 30.346943 
z
" clip-path="url(#p84ff050deb)" style="fill: #bfb3d8"/>
   </g>
   <g id="patch_42">
    <path d="M 168.114167 129.770904 
L 170.683662 129.770904 
L 170.683662 30.346943 
L 168.114167 30.346943 
z
" clip-path="url(#p84ff050deb)" style="fill: #bfb3d8"/>
   </g>
   <g id="patch_43">
    <path d="M 171.408391 129.770904 
L 173.977887 129.770904 
L 173.977887 30.679465 
L 171.408391 30.679465 
z
" clip-path="url(#p84ff050deb)" style="fill: #bfb3d8"/>
   </g>
   <g id="patch_44">
    <path d="M 174.702616 129.770904 
L 177.272112 129.770904 
L 177.272112 31.011986 
L 174.702616 31.011986 
z
" clip-path="url(#p84ff050deb)" style="fill: #bfb3d8"/>
   </g>
   <g id="patch_45">
    <path d="M 177.996841 129.770904 
L 180.566337 129.770904 
L 180.566337 31.344508 
L 177.996841 31.344508 
z
" clip-path="url(#p84ff050deb)" style="fill: #bfb3d8"/>
   </g>
   <g id="patch_46">
    <path d="M 181.291066 129.770904 
L 183.860562 129.770904 
L 183.860562 31.344508 
L 181.291066 31.344508 
z
" clip-path="url(#p84ff050deb)" style="fill: #bfb3d8"/>
   </g>
   <g id="patch_47">
    <path d="M 184.585291 129.770904 
L 187.154786 129.770904 
L 187.154786 31.67703 
L 184.585291 31.67703 
z
" clip-path="url(#p84ff050deb)" style="fill: #bfb3d8"/>
   </g>
   <g id="patch_48">
    <path d="M 187.879516 129.770904 
L 190.449011 129.770904 
L 190.449011 32.342073 
L 187.879516 32.342073 
z
" clip-path="url(#p84ff050deb)" style="fill: #bfb3d8"/>
   </g>
   <g id="patch_49">
    <path d="M 191.173741 129.770904 
L 193.743236 129.770904 
L 193.743236 33.007116 
L 191.173741 33.007116 
z
" clip-path="url(#p84ff050deb)" style="fill: #bfb3d8"/>
   </g>
   <g id="patch_50">
    <path d="M 194.467966 129.770904 
L 197.037461 129.770904 
L 197.037461 33.007116 
L 194.467966 33.007116 
z
" clip-path="url(#p84ff050deb)" style="fill: #bfb3d8"/>
   </g>
   <g id="patch_51">
    <path d="M 197.762191 129.770904 
L 200.331686 129.770904 
L 200.331686 34.004681 
L 197.762191 34.004681 
z
" clip-path="url(#p84ff050deb)" style="fill: #bfb3d8"/>
   </g>
   <g id="patch_52">
    <path d="M 201.056415 129.770904 
L 203.625911 129.770904 
L 203.625911 36.738953 
L 201.056415 36.738953 
z
" clip-path="url(#p84ff050deb)" style="fill: #bfb3d8"/>
   </g>
   <g id="patch_53">
    <path d="M 204.35064 129.770904 
L 206.920136 129.770904 
L 206.920136 37.662419 
L 204.35064 37.662419 
z
" clip-path="url(#p84ff050deb)" style="fill: #bfb3d8"/>
   </g>
   <g id="patch_54">
    <path d="M 207.644865 129.770904 
L 210.214361 129.770904 
L 210.214361 39.99007 
L 207.644865 39.99007 
z
" clip-path="url(#p84ff050deb)" style="fill: #bfb3d8"/>
   </g>
   <g id="patch_55">
    <path d="M 210.93909 129.770904 
L 213.508586 129.770904 
L 213.508586 40.322591 
L 210.93909 40.322591 
z
" clip-path="url(#p84ff050deb)" style="fill: #bfb3d8"/>
   </g>
   <g id="patch_56">
    <path d="M 214.233315 129.770904 
L 216.80281 129.770904 
L 216.80281 40.322591 
L 214.233315 40.322591 
z
" clip-path="url(#p84ff050deb)" style="fill: #bfb3d8"/>
   </g>
   <g id="patch_57">
    <path d="M 217.52754 129.770904 
L 220.097035 129.770904 
L 220.097035 41.320156 
L 217.52754 41.320156 
z
" clip-path="url(#p84ff050deb)" style="fill: #bfb3d8"/>
   </g>
   <g id="patch_58">
    <path d="M 220.821765 129.770904 
L 223.39126 129.770904 
L 223.39126 41.407223 
L 220.821765 41.407223 
z
" clip-path="url(#p84ff050deb)" style="fill: #bfb3d8"/>
   </g>
   <g id="patch_59">
    <path d="M 224.11599 129.770904 
L 226.685485 129.770904 
L 226.685485 41.985199 
L 224.11599 41.985199 
z
" clip-path="url(#p84ff050deb)" style="fill: #bfb3d8"/>
   </g>
   <g id="patch_60">
    <path d="M 227.410215 129.770904 
L 229.97971 129.770904 
L 229.97971 41.985199 
L 227.410215 41.985199 
z
" clip-path="url(#p84ff050deb)" style="fill: #bfb3d8"/>
   </g>
   <g id="patch_61">
    <path d="M 230.704439 129.770904 
L 233.273935 129.770904 
L 233.273935 42.317721 
L 230.704439 42.317721 
z
" clip-path="url(#p84ff050deb)" style="fill: #bfb3d8"/>
   </g>
   <g id="patch_62">
    <path d="M 233.998664 129.770904 
L 236.56816 129.770904 
L 236.56816 42.317721 
L 233.998664 42.317721 
z
" clip-path="url(#p84ff050deb)" style="fill: #bfb3d8"/>
   </g>
   <g id="patch_63">
    <path d="M 237.292889 129.770904 
L 239.862385 129.770904 
L 239.862385 42.982764 
L 237.292889 42.982764 
z
" clip-path="url(#p84ff050deb)" style="fill: #bfb3d8"/>
   </g>
   <g id="patch_64">
    <path d="M 240.587114 129.770904 
L 243.15661 129.770904 
L 243.15661 44.977894 
L 240.587114 44.977894 
z
" clip-path="url(#p84ff050deb)" style="fill: #bfb3d8"/>
   </g>
   <g id="patch_65">
    <path d="M 243.881339 129.770904 
L 246.450834 129.770904 
L 246.450834 45.310416 
L 243.881339 45.310416 
z
" clip-path="url(#p84ff050deb)" style="fill: #bfb3d8"/>
   </g>
   <g id="patch_66">
    <path d="M 247.175564 129.770904 
L 249.745059 129.770904 
L 249.745059 45.975459 
L 247.175564 45.975459 
z
" clip-path="url(#p84ff050deb)" style="fill: #bfb3d8"/>
   </g>
   <g id="patch_67">
    <path d="M 250.469789 129.770904 
L 253.039284 129.770904 
L 253.039284 46.973024 
L 250.469789 46.973024 
z
" clip-path="url(#p84ff050deb)" style="fill: #bfb3d8"/>
   </g>
   <g id="patch_68">
    <path d="M 253.764014 129.770904 
L 256.333509 129.770904 
L 256.333509 48.30311 
L 253.764014 48.30311 
z
" clip-path="url(#p84ff050deb)" style="fill: #bfb3d8"/>
   </g>
   <g id="patch_69">
    <path d="M 257.058239 129.770904 
L 259.627734 129.770904 
L 259.627734 48.635632 
L 257.058239 48.635632 
z
" clip-path="url(#p84ff050deb)" style="fill: #bfb3d8"/>
   </g>
   <g id="patch_70">
    <path d="M 260.352463 129.770904 
L 262.921959 129.770904 
L 262.921959 48.968153 
L 260.352463 48.968153 
z
" clip-path="url(#p84ff050deb)" style="fill: #bfb3d8"/>
   </g>
   <g id="patch_71">
    <path d="M 263.646688 129.770904 
L 266.216184 129.770904 
L 266.216184 50.29824 
L 263.646688 50.29824 
z
" clip-path="url(#p84ff050deb)" style="fill: #bfb3d8"/>
   </g>
   <g id="patch_72">
    <path d="M 266.940913 129.770904 
L 269.510409 129.770904 
L 269.510409 50.630761 
L 266.940913 50.630761 
z
" clip-path="url(#p84ff050deb)" style="fill: #bfb3d8"/>
   </g>
   <g id="patch_73">
    <path d="M 270.235138 129.770904 
L 272.804634 129.770904 
L 272.804634 50.963283 
L 270.235138 50.963283 
z
" clip-path="url(#p84ff050deb)" style="fill: #bfb3d8"/>
   </g>
   <g id="patch_74">
    <path d="M 273.529363 129.770904 
L 276.098858 129.770904 
L 276.098858 51.628326 
L 273.529363 51.628326 
z
" clip-path="url(#p84ff050deb)" style="fill: #bfb3d8"/>
   </g>
   <g id="patch_75">
    <path d="M 276.823588 129.770904 
L 279.393083 129.770904 
L 279.393083 52.625891 
L 276.823588 52.625891 
z
" clip-path="url(#p84ff050deb)" style="fill: #bfb3d8"/>
   </g>
   <g id="patch_76">
    <path d="M 280.117813 129.770904 
L 282.687308 129.770904 
L 282.687308 57.946237 
L 280.117813 57.946237 
z
" clip-path="url(#p84ff050deb)" style="fill: #bfb3d8"/>
   </g>
   <g id="patch_77">
    <path d="M 283.412038 129.770904 
L 285.981533 129.770904 
L 285.981533 60.60641 
L 283.412038 60.60641 
z
" clip-path="url(#p84ff050deb)" style="fill: #bfb3d8"/>
   </g>
   <g id="patch_78">
    <path d="M 286.706263 129.770904 
L 289.275758 129.770904 
L 289.275758 63.599104 
L 286.706263 63.599104 
z
" clip-path="url(#p84ff050deb)" style="fill: #bfb3d8"/>
   </g>
   <g id="patch_79">
    <path d="M 290.000487 129.770904 
L 292.569983 129.770904 
L 292.569983 67.256842 
L 290.000487 67.256842 
z
" clip-path="url(#p84ff050deb)" style="fill: #bfb3d8"/>
   </g>
   <g id="patch_80">
    <path d="M 293.294712 129.770904 
L 295.864208 129.770904 
L 295.864208 69.917015 
L 293.294712 69.917015 
z
" clip-path="url(#p84ff050deb)" style="fill: #bfb3d8"/>
   </g>
   <g id="patch_81">
    <path d="M 296.588937 129.770904 
L 299.158433 129.770904 
L 299.158433 73.574752 
L 296.588937 73.574752 
z
" clip-path="url(#p84ff050deb)" style="fill: #bfb3d8"/>
   </g>
   <g id="patch_82">
    <path d="M 299.883162 129.770904 
L 302.452658 129.770904 
L 302.452658 76.899968 
L 299.883162 76.899968 
z
" clip-path="url(#p84ff050deb)" style="fill: #bfb3d8"/>
   </g>
   <g id="patch_83">
    <path d="M 303.177387 129.770904 
L 305.746882 129.770904 
L 305.746882 80.557706 
L 303.177387 80.557706 
z
" clip-path="url(#p84ff050deb)" style="fill: #bfb3d8"/>
   </g>
   <g id="patch_84">
    <path d="M 306.471612 129.770904 
L 309.041107 129.770904 
L 309.041107 84.547965 
L 306.471612 84.547965 
z
" clip-path="url(#p84ff050deb)" style="fill: #bfb3d8"/>
   </g>
   <g id="patch_85">
    <path d="M 309.765837 129.770904 
L 312.335332 129.770904 
L 312.335332 86.543095 
L 309.765837 86.543095 
z
" clip-path="url(#p84ff050deb)" style="fill: #bfb3d8"/>
   </g>
   <g id="patch_86">
    <path d="M 313.060062 129.770904 
L 315.629557 129.770904 
L 315.629557 87.208138 
L 313.060062 87.208138 
z
" clip-path="url(#p84ff050deb)" style="fill: #bfb3d8"/>
   </g>
   <g id="patch_87">
    <path d="M 316.354287 129.770904 
L 318.923782 129.770904 
L 318.923782 88.538225 
L 316.354287 88.538225 
z
" clip-path="url(#p84ff050deb)" style="fill: #bfb3d8"/>
   </g>
   <g id="patch_88">
    <path d="M 319.648511 129.770904 
L 322.218007 129.770904 
L 322.218007 89.535789 
L 319.648511 89.535789 
z
" clip-path="url(#p84ff050deb)" style="fill: #bfb3d8"/>
   </g>
   <g id="patch_89">
    <path d="M 322.942736 129.770904 
L 325.512232 129.770904 
L 325.512232 89.535789 
L 322.942736 89.535789 
z
" clip-path="url(#p84ff050deb)" style="fill: #bfb3d8"/>
   </g>
   <g id="patch_90">
    <path d="M 326.236961 129.770904 
L 328.806457 129.770904 
L 328.806457 89.535789 
L 326.236961 89.535789 
z
" clip-path="url(#p84ff050deb)" style="fill: #bfb3d8"/>
   </g>
   <g id="patch_91">
    <path d="M 329.531186 129.770904 
L 332.100681 129.770904 
L 332.100681 91.530919 
L 329.531186 91.530919 
z
" clip-path="url(#p84ff050deb)" style="fill: #bfb3d8"/>
   </g>
   <g id="patch_92">
    <path d="M 332.825411 129.770904 
L 335.394906 129.770904 
L 335.394906 91.863441 
L 332.825411 91.863441 
z
" clip-path="url(#p84ff050deb)" style="fill: #bfb3d8"/>
   </g>
   <g id="patch_93">
    <path d="M 336.119636 129.770904 
L 338.689131 129.770904 
L 338.689131 93.85857 
L 336.119636 93.85857 
z
" clip-path="url(#p84ff050deb)" style="fill: #bfb3d8"/>
   </g>
   <g id="patch_94">
    <path d="M 339.413861 129.770904 
L 341.983356 129.770904 
L 341.983356 94.191092 
L 339.413861 94.191092 
z
" clip-path="url(#p84ff050deb)" style="fill: #bfb3d8"/>
   </g>
   <g id="patch_95">
    <path d="M 342.708086 129.770904 
L 345.277581 129.770904 
L 345.277581 94.191092 
L 342.708086 94.191092 
z
" clip-path="url(#p84ff050deb)" style="fill: #bfb3d8"/>
   </g>
   <g id="patch_96">
    <path d="M 346.002311 129.770904 
L 348.571806 129.770904 
L 348.571806 94.523614 
L 346.002311 94.523614 
z
" clip-path="url(#p84ff050deb)" style="fill: #bfb3d8"/>
   </g>
   <g id="patch_97">
    <path d="M 349.296535 129.770904 
L 351.866031 129.770904 
L 351.866031 108.489521 
L 349.296535 108.489521 
z
" clip-path="url(#p84ff050deb)" style="fill: #bfb3d8"/>
   </g>
   <g id="patch_98">
    <path d="M 352.59076 129.770904 
L 355.160256 129.770904 
L 355.160256 110.484651 
L 352.59076 110.484651 
z
" clip-path="url(#p84ff050deb)" style="fill: #bfb3d8"/>
   </g>
   <g id="patch_99">
    <path d="M 355.884985 129.770904 
L 358.454481 129.770904 
L 358.454481 111.482216 
L 355.884985 111.482216 
z
" clip-path="url(#p84ff050deb)" style="fill: #bfb3d8"/>
   </g>
   <g id="patch_100">
    <path d="M 359.17921 129.770904 
L 361.748705 129.770904 
L 361.748705 120.460299 
L 359.17921 120.460299 
z
" clip-path="url(#p84ff050deb)" style="fill: #bfb3d8"/>
   </g>
   <g id="patch_101">
    <path d="M 362.473435 129.770904 
L 365.04293 129.770904 
L 365.04293 122.122907 
L 362.473435 122.122907 
z
" clip-path="url(#p84ff050deb)" style="fill: #bfb3d8"/>
   </g>
   <g id="patch_102">
    <path d="M 365.76766 129.770904 
L 368.337155 129.770904 
L 368.337155 129.770904 
L 365.76766 129.770904 
z
" clip-path="url(#p84ff050deb)" style="fill: #bfb3d8"/>
   </g>
   <g id="patch_103">
    <path d="M 39.639396 10.063125 
L 42.208891 10.063125 
L 42.208891 10.063125 
L 39.639396 10.063125 
z
" clip-path="url(#p84ff050deb)" style="fill: #991b1e"/>
   </g>
   <g id="patch_104">
    <path d="M 42.933621 10.063125 
L 45.503116 10.063125 
L 45.503116 10.063125 
L 42.933621 10.063125 
z
" clip-path="url(#p84ff050deb)" style="fill: #991b1e"/>
   </g>
   <g id="patch_105">
    <path d="M 46.227846 10.063125 
L 48.797341 10.063125 
L 48.797341 10.063125 
L 46.227846 10.063125 
z
" clip-path="url(#p84ff050deb)" style="fill: #991b1e"/>
   </g>
   <g id="patch_106">
    <path d="M 49.522071 10.063125 
L 52.091566 10.063125 
L 52.091566 10.063125 
L 49.522071 10.063125 
z
" clip-path="url(#p84ff050deb)" style="fill: #991b1e"/>
   </g>
   <g id="patch_107">
    <path d="M 52.816296 10.063125 
L 55.385791 10.063125 
L 55.385791 10.063125 
L 52.816296 10.063125 
z
" clip-path="url(#p84ff050deb)" style="fill: #991b1e"/>
   </g>
   <g id="patch_108">
    <path d="M 56.11052 10.063125 
L 58.680016 10.063125 
L 58.680016 10.063125 
L 56.11052 10.063125 
z
" clip-path="url(#p84ff050deb)" style="fill: #991b1e"/>
   </g>
   <g id="patch_109">
    <path d="M 59.404745 10.063125 
L 61.974241 10.063125 
L 61.974241 10.063125 
L 59.404745 10.063125 
z
" clip-path="url(#p84ff050deb)" style="fill: #991b1e"/>
   </g>
   <g id="patch_110">
    <path d="M 62.69897 10.063125 
L 65.268466 10.063125 
L 65.268466 10.063125 
L 62.69897 10.063125 
z
" clip-path="url(#p84ff050deb)" style="fill: #991b1e"/>
   </g>
   <g id="patch_111">
    <path d="M 65.993195 10.063125 
L 68.56269 10.063125 
L 68.56269 10.063125 
L 65.993195 10.063125 
z
" clip-path="url(#p84ff050deb)" style="fill: #991b1e"/>
   </g>
   <g id="patch_112">
    <path d="M 69.28742 10.063125 
L 71.856915 10.063125 
L 71.856915 10.063125 
L 69.28742 10.063125 
z
" clip-path="url(#p84ff050deb)" style="fill: #991b1e"/>
   </g>
   <g id="patch_113">
    <path d="M 72.581645 10.063125 
L 75.15114 10.063125 
L 75.15114 10.063125 
L 72.581645 10.063125 
z
" clip-path="url(#p84ff050deb)" style="fill: #991b1e"/>
   </g>
   <g id="patch_114">
    <path d="M 75.87587 10.063125 
L 78.445365 10.063125 
L 78.445365 10.063125 
L 75.87587 10.063125 
z
" clip-path="url(#p84ff050deb)" style="fill: #991b1e"/>
   </g>
   <g id="patch_115">
    <path d="M 79.170095 10.063125 
L 81.73959 10.063125 
L 81.73959 10.063125 
L 79.170095 10.063125 
z
" clip-path="url(#p84ff050deb)" style="fill: #991b1e"/>
   </g>
   <g id="patch_116">
    <path d="M 82.46432 10.063125 
L 85.033815 10.063125 
L 85.033815 10.063125 
L 82.46432 10.063125 
z
" clip-path="url(#p84ff050deb)" style="fill: #991b1e"/>
   </g>
   <g id="patch_117">
    <path d="M 85.758544 10.063125 
L 88.32804 10.063125 
L 88.32804 10.063125 
L 85.758544 10.063125 
z
" clip-path="url(#p84ff050deb)" style="fill: #991b1e"/>
   </g>
   <g id="patch_118">
    <path d="M 89.052769 10.063125 
L 91.622265 10.063125 
L 91.622265 10.063125 
L 89.052769 10.063125 
z
" clip-path="url(#p84ff050deb)" style="fill: #991b1e"/>
   </g>
   <g id="patch_119">
    <path d="M 92.346994 10.063125 
L 94.91649 10.063125 
L 94.91649 10.063125 
L 92.346994 10.063125 
z
" clip-path="url(#p84ff050deb)" style="fill: #991b1e"/>
   </g>
   <g id="patch_120">
    <path d="M 95.641219 10.728168 
L 98.210714 10.728168 
L 98.210714 10.063125 
L 95.641219 10.063125 
z
" clip-path="url(#p84ff050deb)" style="fill: #991b1e"/>
   </g>
   <g id="patch_121">
    <path d="M 98.935444 11.06069 
L 101.504939 11.06069 
L 101.504939 10.063125 
L 98.935444 10.063125 
z
" clip-path="url(#p84ff050deb)" style="fill: #991b1e"/>
   </g>
   <g id="patch_122">
    <path d="M 102.229669 13.388341 
L 104.799164 13.388341 
L 104.799164 10.063125 
L 102.229669 10.063125 
z
" clip-path="url(#p84ff050deb)" style="fill: #991b1e"/>
   </g>
   <g id="patch_123">
    <path d="M 105.523894 14.053384 
L 108.093389 14.053384 
L 108.093389 10.063125 
L 105.523894 10.063125 
z
" clip-path="url(#p84ff050deb)" style="fill: #991b1e"/>
   </g>
   <g id="patch_124">
    <path d="M 108.818119 14.385906 
L 111.387614 14.385906 
L 111.387614 10.063125 
L 108.818119 10.063125 
z
" clip-path="url(#p84ff050deb)" style="fill: #991b1e"/>
   </g>
   <g id="patch_125">
    <path d="M 112.112344 16.048514 
L 114.681839 16.048514 
L 114.681839 10.063125 
L 112.112344 10.063125 
z
" clip-path="url(#p84ff050deb)" style="fill: #991b1e"/>
   </g>
   <g id="patch_126">
    <path d="M 115.406568 17.3786 
L 117.976064 17.3786 
L 117.976064 10.063125 
L 115.406568 10.063125 
z
" clip-path="url(#p84ff050deb)" style="fill: #991b1e"/>
   </g>
   <g id="patch_127">
    <path d="M 118.700793 17.711122 
L 121.270289 17.711122 
L 121.270289 10.063125 
L 118.700793 10.063125 
z
" clip-path="url(#p84ff050deb)" style="fill: #991b1e"/>
   </g>
   <g id="patch_128">
    <path d="M 121.995018 17.711122 
L 124.564514 17.711122 
L 124.564514 10.063125 
L 121.995018 10.063125 
z
" clip-path="url(#p84ff050deb)" style="fill: #991b1e"/>
   </g>
   <g id="patch_129">
    <path d="M 125.289243 17.711122 
L 127.858738 17.711122 
L 127.858738 10.063125 
L 125.289243 10.063125 
z
" clip-path="url(#p84ff050deb)" style="fill: #991b1e"/>
   </g>
   <g id="patch_130">
    <path d="M 128.583468 18.376165 
L 131.152963 18.376165 
L 131.152963 10.063125 
L 128.583468 10.063125 
z
" clip-path="url(#p84ff050deb)" style="fill: #991b1e"/>
   </g>
   <g id="patch_131">
    <path d="M 131.877693 19.37373 
L 134.447188 19.37373 
L 134.447188 10.063125 
L 131.877693 10.063125 
z
" clip-path="url(#p84ff050deb)" style="fill: #991b1e"/>
   </g>
   <g id="patch_132">
    <path d="M 135.171918 20.038773 
L 137.741413 20.038773 
L 137.741413 10.063125 
L 135.171918 10.063125 
z
" clip-path="url(#p84ff050deb)" style="fill: #991b1e"/>
   </g>
   <g id="patch_133">
    <path d="M 138.466143 20.038773 
L 141.035638 20.038773 
L 141.035638 10.063125 
L 138.466143 10.063125 
z
" clip-path="url(#p84ff050deb)" style="fill: #991b1e"/>
   </g>
   <g id="patch_134">
    <path d="M 141.760368 21.036338 
L 144.329863 21.036338 
L 144.329863 10.063125 
L 141.760368 10.063125 
z
" clip-path="url(#p84ff050deb)" style="fill: #991b1e"/>
   </g>
   <g id="patch_135">
    <path d="M 145.054592 21.36886 
L 147.624088 21.36886 
L 147.624088 10.063125 
L 145.054592 10.063125 
z
" clip-path="url(#p84ff050deb)" style="fill: #991b1e"/>
   </g>
   <g id="patch_136">
    <path d="M 148.348817 22.698946 
L 150.918313 22.698946 
L 150.918313 10.063125 
L 148.348817 10.063125 
z
" clip-path="url(#p84ff050deb)" style="fill: #991b1e"/>
   </g>
   <g id="patch_137">
    <path d="M 151.643042 26.024162 
L 154.212538 26.024162 
L 154.212538 10.063125 
L 151.643042 10.063125 
z
" clip-path="url(#p84ff050deb)" style="fill: #991b1e"/>
   </g>
   <g id="patch_138">
    <path d="M 154.937267 26.689205 
L 157.506762 26.689205 
L 157.506762 10.063125 
L 154.937267 10.063125 
z
" clip-path="url(#p84ff050deb)" style="fill: #991b1e"/>
   </g>
   <g id="patch_139">
    <path d="M 158.231492 28.019292 
L 160.800987 28.019292 
L 160.800987 10.063125 
L 158.231492 10.063125 
z
" clip-path="url(#p84ff050deb)" style="fill: #991b1e"/>
   </g>
   <g id="patch_140">
    <path d="M 161.525717 28.351813 
L 164.095212 28.351813 
L 164.095212 10.063125 
L 161.525717 10.063125 
z
" clip-path="url(#p84ff050deb)" style="fill: #991b1e"/>
   </g>
   <g id="patch_141">
    <path d="M 164.819942 30.346943 
L 167.389437 30.346943 
L 167.389437 10.063125 
L 164.819942 10.063125 
z
" clip-path="url(#p84ff050deb)" style="fill: #991b1e"/>
   </g>
   <g id="patch_142">
    <path d="M 168.114167 30.346943 
L 170.683662 30.346943 
L 170.683662 10.063125 
L 168.114167 10.063125 
z
" clip-path="url(#p84ff050deb)" style="fill: #991b1e"/>
   </g>
   <g id="patch_143">
    <path d="M 171.408391 30.679465 
L 173.977887 30.679465 
L 173.977887 10.063125 
L 171.408391 10.063125 
z
" clip-path="url(#p84ff050deb)" style="fill: #991b1e"/>
   </g>
   <g id="patch_144">
    <path d="M 174.702616 31.011986 
L 177.272112 31.011986 
L 177.272112 10.063125 
L 174.702616 10.063125 
z
" clip-path="url(#p84ff050deb)" style="fill: #991b1e"/>
   </g>
   <g id="patch_145">
    <path d="M 177.996841 31.344508 
L 180.566337 31.344508 
L 180.566337 10.063125 
L 177.996841 10.063125 
z
" clip-path="url(#p84ff050deb)" style="fill: #991b1e"/>
   </g>
   <g id="patch_146">
    <path d="M 181.291066 31.344508 
L 183.860562 31.344508 
L 183.860562 10.063125 
L 181.291066 10.063125 
z
" clip-path="url(#p84ff050deb)" style="fill: #991b1e"/>
   </g>
   <g id="patch_147">
    <path d="M 184.585291 31.67703 
L 187.154786 31.67703 
L 187.154786 10.063125 
L 184.585291 10.063125 
z
" clip-path="url(#p84ff050deb)" style="fill: #991b1e"/>
   </g>
   <g id="patch_148">
    <path d="M 187.879516 32.342073 
L 190.449011 32.342073 
L 190.449011 10.063125 
L 187.879516 10.063125 
z
" clip-path="url(#p84ff050deb)" style="fill: #991b1e"/>
   </g>
   <g id="patch_149">
    <path d="M 191.173741 33.007116 
L 193.743236 33.007116 
L 193.743236 10.063125 
L 191.173741 10.063125 
z
" clip-path="url(#p84ff050deb)" style="fill: #991b1e"/>
   </g>
   <g id="patch_150">
    <path d="M 194.467966 33.007116 
L 197.037461 33.007116 
L 197.037461 10.063125 
L 194.467966 10.063125 
z
" clip-path="url(#p84ff050deb)" style="fill: #991b1e"/>
   </g>
   <g id="patch_151">
    <path d="M 197.762191 34.004681 
L 200.331686 34.004681 
L 200.331686 10.063125 
L 197.762191 10.063125 
z
" clip-path="url(#p84ff050deb)" style="fill: #991b1e"/>
   </g>
   <g id="patch_152">
    <path d="M 201.056415 36.738953 
L 203.625911 36.738953 
L 203.625911 10.063125 
L 201.056415 10.063125 
z
" clip-path="url(#p84ff050deb)" style="fill: #991b1e"/>
   </g>
   <g id="patch_153">
    <path d="M 204.35064 37.662419 
L 206.920136 37.662419 
L 206.920136 10.063125 
L 204.35064 10.063125 
z
" clip-path="url(#p84ff050deb)" style="fill: #991b1e"/>
   </g>
   <g id="patch_154">
    <path d="M 207.644865 39.99007 
L 210.214361 39.99007 
L 210.214361 10.063125 
L 207.644865 10.063125 
z
" clip-path="url(#p84ff050deb)" style="fill: #991b1e"/>
   </g>
   <g id="patch_155">
    <path d="M 210.93909 40.322591 
L 213.508586 40.322591 
L 213.508586 10.063125 
L 210.93909 10.063125 
z
" clip-path="url(#p84ff050deb)" style="fill: #991b1e"/>
   </g>
   <g id="patch_156">
    <path d="M 214.233315 40.322591 
L 216.80281 40.322591 
L 216.80281 10.063125 
L 214.233315 10.063125 
z
" clip-path="url(#p84ff050deb)" style="fill: #991b1e"/>
   </g>
   <g id="patch_157">
    <path d="M 217.52754 41.320156 
L 220.097035 41.320156 
L 220.097035 10.063125 
L 217.52754 10.063125 
z
" clip-path="url(#p84ff050deb)" style="fill: #991b1e"/>
   </g>
   <g id="patch_158">
    <path d="M 220.821765 41.407223 
L 223.39126 41.407223 
L 223.39126 10.063125 
L 220.821765 10.063125 
z
" clip-path="url(#p84ff050deb)" style="fill: #991b1e"/>
   </g>
   <g id="patch_159">
    <path d="M 224.11599 41.985199 
L 226.685485 41.985199 
L 226.685485 10.063125 
L 224.11599 10.063125 
z
" clip-path="url(#p84ff050deb)" style="fill: #991b1e"/>
   </g>
   <g id="patch_160">
    <path d="M 227.410215 41.985199 
L 229.97971 41.985199 
L 229.97971 10.063125 
L 227.410215 10.063125 
z
" clip-path="url(#p84ff050deb)" style="fill: #991b1e"/>
   </g>
   <g id="patch_161">
    <path d="M 230.704439 42.317721 
L 233.273935 42.317721 
L 233.273935 10.063125 
L 230.704439 10.063125 
z
" clip-path="url(#p84ff050deb)" style="fill: #991b1e"/>
   </g>
   <g id="patch_162">
    <path d="M 233.998664 42.317721 
L 236.56816 42.317721 
L 236.56816 10.063125 
L 233.998664 10.063125 
z
" clip-path="url(#p84ff050deb)" style="fill: #991b1e"/>
   </g>
   <g id="patch_163">
    <path d="M 237.292889 42.982764 
L 239.862385 42.982764 
L 239.862385 10.063125 
L 237.292889 10.063125 
z
" clip-path="url(#p84ff050deb)" style="fill: #991b1e"/>
   </g>
   <g id="patch_164">
    <path d="M 240.587114 44.977894 
L 243.15661 44.977894 
L 243.15661 10.063125 
L 240.587114 10.063125 
z
" clip-path="url(#p84ff050deb)" style="fill: #991b1e"/>
   </g>
   <g id="patch_165">
    <path d="M 243.881339 45.310416 
L 246.450834 45.310416 
L 246.450834 10.063125 
L 243.881339 10.063125 
z
" clip-path="url(#p84ff050deb)" style="fill: #991b1e"/>
   </g>
   <g id="patch_166">
    <path d="M 247.175564 45.975459 
L 249.745059 45.975459 
L 249.745059 10.063125 
L 247.175564 10.063125 
z
" clip-path="url(#p84ff050deb)" style="fill: #991b1e"/>
   </g>
   <g id="patch_167">
    <path d="M 250.469789 46.973024 
L 253.039284 46.973024 
L 253.039284 10.063125 
L 250.469789 10.063125 
z
" clip-path="url(#p84ff050deb)" style="fill: #991b1e"/>
   </g>
   <g id="patch_168">
    <path d="M 253.764014 48.30311 
L 256.333509 48.30311 
L 256.333509 10.063125 
L 253.764014 10.063125 
z
" clip-path="url(#p84ff050deb)" style="fill: #991b1e"/>
   </g>
   <g id="patch_169">
    <path d="M 257.058239 48.635632 
L 259.627734 48.635632 
L 259.627734 10.063125 
L 257.058239 10.063125 
z
" clip-path="url(#p84ff050deb)" style="fill: #991b1e"/>
   </g>
   <g id="patch_170">
    <path d="M 260.352463 48.968153 
L 262.921959 48.968153 
L 262.921959 10.063125 
L 260.352463 10.063125 
z
" clip-path="url(#p84ff050deb)" style="fill: #991b1e"/>
   </g>
   <g id="patch_171">
    <path d="M 263.646688 50.29824 
L 266.216184 50.29824 
L 266.216184 10.063125 
L 263.646688 10.063125 
z
" clip-path="url(#p84ff050deb)" style="fill: #991b1e"/>
   </g>
   <g id="patch_172">
    <path d="M 266.940913 50.630761 
L 269.510409 50.630761 
L 269.510409 10.063125 
L 266.940913 10.063125 
z
" clip-path="url(#p84ff050deb)" style="fill: #991b1e"/>
   </g>
   <g id="patch_173">
    <path d="M 270.235138 50.963283 
L 272.804634 50.963283 
L 272.804634 10.063125 
L 270.235138 10.063125 
z
" clip-path="url(#p84ff050deb)" style="fill: #991b1e"/>
   </g>
   <g id="patch_174">
    <path d="M 273.529363 51.628326 
L 276.098858 51.628326 
L 276.098858 10.063125 
L 273.529363 10.063125 
z
" clip-path="url(#p84ff050deb)" style="fill: #991b1e"/>
   </g>
   <g id="patch_175">
    <path d="M 276.823588 52.625891 
L 279.393083 52.625891 
L 279.393083 10.063125 
L 276.823588 10.063125 
z
" clip-path="url(#p84ff050deb)" style="fill: #991b1e"/>
   </g>
   <g id="patch_176">
    <path d="M 280.117813 57.946237 
L 282.687308 57.946237 
L 282.687308 10.063125 
L 280.117813 10.063125 
z
" clip-path="url(#p84ff050deb)" style="fill: #991b1e"/>
   </g>
   <g id="patch_177">
    <path d="M 283.412038 60.60641 
L 285.981533 60.60641 
L 285.981533 10.063125 
L 283.412038 10.063125 
z
" clip-path="url(#p84ff050deb)" style="fill: #991b1e"/>
   </g>
   <g id="patch_178">
    <path d="M 286.706263 63.599104 
L 289.275758 63.599104 
L 289.275758 10.063125 
L 286.706263 10.063125 
z
" clip-path="url(#p84ff050deb)" style="fill: #991b1e"/>
   </g>
   <g id="patch_179">
    <path d="M 290.000487 67.256842 
L 292.569983 67.256842 
L 292.569983 10.063125 
L 290.000487 10.063125 
z
" clip-path="url(#p84ff050deb)" style="fill: #991b1e"/>
   </g>
   <g id="patch_180">
    <path d="M 293.294712 69.917015 
L 295.864208 69.917015 
L 295.864208 10.063125 
L 293.294712 10.063125 
z
" clip-path="url(#p84ff050deb)" style="fill: #991b1e"/>
   </g>
   <g id="patch_181">
    <path d="M 296.588937 73.574752 
L 299.158433 73.574752 
L 299.158433 10.063125 
L 296.588937 10.063125 
z
" clip-path="url(#p84ff050deb)" style="fill: #991b1e"/>
   </g>
   <g id="patch_182">
    <path d="M 299.883162 76.899968 
L 302.452658 76.899968 
L 302.452658 10.063125 
L 299.883162 10.063125 
z
" clip-path="url(#p84ff050deb)" style="fill: #991b1e"/>
   </g>
   <g id="patch_183">
    <path d="M 303.177387 80.557706 
L 305.746882 80.557706 
L 305.746882 10.063125 
L 303.177387 10.063125 
z
" clip-path="url(#p84ff050deb)" style="fill: #991b1e"/>
   </g>
   <g id="patch_184">
    <path d="M 306.471612 84.547965 
L 309.041107 84.547965 
L 309.041107 10.063125 
L 306.471612 10.063125 
z
" clip-path="url(#p84ff050deb)" style="fill: #991b1e"/>
   </g>
   <g id="patch_185">
    <path d="M 309.765837 86.543095 
L 312.335332 86.543095 
L 312.335332 10.063125 
L 309.765837 10.063125 
z
" clip-path="url(#p84ff050deb)" style="fill: #991b1e"/>
   </g>
   <g id="patch_186">
    <path d="M 313.060062 87.208138 
L 315.629557 87.208138 
L 315.629557 10.063125 
L 313.060062 10.063125 
z
" clip-path="url(#p84ff050deb)" style="fill: #991b1e"/>
   </g>
   <g id="patch_187">
    <path d="M 316.354287 88.538225 
L 318.923782 88.538225 
L 318.923782 10.063125 
L 316.354287 10.063125 
z
" clip-path="url(#p84ff050deb)" style="fill: #991b1e"/>
   </g>
   <g id="patch_188">
    <path d="M 319.648511 89.535789 
L 322.218007 89.535789 
L 322.218007 10.063125 
L 319.648511 10.063125 
z
" clip-path="url(#p84ff050deb)" style="fill: #991b1e"/>
   </g>
   <g id="patch_189">
    <path d="M 322.942736 89.535789 
L 325.512232 89.535789 
L 325.512232 10.063125 
L 322.942736 10.063125 
z
" clip-path="url(#p84ff050deb)" style="fill: #991b1e"/>
   </g>
   <g id="patch_190">
    <path d="M 326.236961 89.535789 
L 328.806457 89.535789 
L 328.806457 10.063125 
L 326.236961 10.063125 
z
" clip-path="url(#p84ff050deb)" style="fill: #991b1e"/>
   </g>
   <g id="patch_191">
    <path d="M 329.531186 91.530919 
L 332.100681 91.530919 
L 332.100681 10.063125 
L 329.531186 10.063125 
z
" clip-path="url(#p84ff050deb)" style="fill: #991b1e"/>
   </g>
   <g id="patch_192">
    <path d="M 332.825411 91.863441 
L 335.394906 91.863441 
L 335.394906 10.063125 
L 332.825411 10.063125 
z
" clip-path="url(#p84ff050deb)" style="fill: #991b1e"/>
   </g>
   <g id="patch_193">
    <path d="M 336.119636 93.85857 
L 338.689131 93.85857 
L 338.689131 10.063125 
L 336.119636 10.063125 
z
" clip-path="url(#p84ff050deb)" style="fill: #991b1e"/>
   </g>
   <g id="patch_194">
    <path d="M 339.413861 94.191092 
L 341.983356 94.191092 
L 341.983356 10.063125 
L 339.413861 10.063125 
z
" clip-path="url(#p84ff050deb)" style="fill: #991b1e"/>
   </g>
   <g id="patch_195">
    <path d="M 342.708086 94.191092 
L 345.277581 94.191092 
L 345.277581 10.063125 
L 342.708086 10.063125 
z
" clip-path="url(#p84ff050deb)" style="fill: #991b1e"/>
   </g>
   <g id="patch_196">
    <path d="M 346.002311 94.523614 
L 348.571806 94.523614 
L 348.571806 10.063125 
L 346.002311 10.063125 
z
" clip-path="url(#p84ff050deb)" style="fill: #991b1e"/>
   </g>
   <g id="patch_197">
    <path d="M 349.296535 108.489521 
L 351.866031 108.489521 
L 351.866031 10.063125 
L 349.296535 10.063125 
z
" clip-path="url(#p84ff050deb)" style="fill: #991b1e"/>
   </g>
   <g id="patch_198">
    <path d="M 352.59076 110.484651 
L 355.160256 110.484651 
L 355.160256 10.063125 
L 352.59076 10.063125 
z
" clip-path="url(#p84ff050deb)" style="fill: #991b1e"/>
   </g>
   <g id="patch_199">
    <path d="M 355.884985 111.482216 
L 358.454481 111.482216 
L 358.454481 10.063125 
L 355.884985 10.063125 
z
" clip-path="url(#p84ff050deb)" style="fill: #991b1e"/>
   </g>
   <g id="patch_200">
    <path d="M 359.17921 120.460299 
L 361.748705 120.460299 
L 361.748705 10.063125 
L 359.17921 10.063125 
z
" clip-path="url(#p84ff050deb)" style="fill: #991b1e"/>
   </g>
   <g id="patch_201">
    <path d="M 362.473435 122.122907 
L 365.04293 122.122907 
L 365.04293 10.063125 
L 362.473435 10.063125 
z
" clip-path="url(#p84ff050deb)" style="fill: #991b1e"/>
   </g>
   <g id="patch_202">
    <path d="M 365.76766 129.770904 
L 368.337155 129.770904 
L 368.337155 10.063125 
L 365.76766 10.063125 
z
" clip-path="url(#p84ff050deb)" style="fill: #991b1e"/>
   </g>
   <g id="matplotlib.axis_1">
    <g id="text_1">
     <text style="font-size: 9px; font-family: 'Arial'; text-anchor: middle" x="203.988276" y="140.212935" transform="rotate(-0 203.988276 140.212935)">videos</text>
    </g>
   </g>
   <g id="matplotlib.axis_2">
    <g id="ytick_1">
     <g id="line2d_1">
      <defs>
       <path id="m2cfc0a758a" d="M 0 0 
L -3 0 
" style="stroke: #1a1a1a; stroke-width: 0.8"/>
      </defs>
      <g>
       <use xlink:href="#m2cfc0a758a" x="39.277031" y="129.770904" style="fill: #1a1a1a; stroke: #1a1a1a; stroke-width: 0.8"/>
      </g>
     </g>
     <g id="text_2">
      <text style="font-size: 8px; font-family: 'Arial'; text-anchor: end; fill: #1a1a1a" x="32.777031" y="132.634029" transform="rotate(-0 32.777031 132.634029)">0</text>
     </g>
    </g>
    <g id="ytick_2">
     <g id="line2d_2">
      <g>
       <use xlink:href="#m2cfc0a758a" x="39.277031" y="99.843959" style="fill: #1a1a1a; stroke: #1a1a1a; stroke-width: 0.8"/>
      </g>
     </g>
     <g id="text_3">
      <text style="font-size: 8px; font-family: 'Arial'; text-anchor: end; fill: #1a1a1a" x="32.777031" y="102.707084" transform="rotate(-0 32.777031 102.707084)">25</text>
     </g>
    </g>
    <g id="ytick_3">
     <g id="line2d_3">
      <g>
       <use xlink:href="#m2cfc0a758a" x="39.277031" y="69.917015" style="fill: #1a1a1a; stroke: #1a1a1a; stroke-width: 0.8"/>
      </g>
     </g>
     <g id="text_4">
      <text style="font-size: 8px; font-family: 'Arial'; text-anchor: end; fill: #1a1a1a" x="32.777031" y="72.78014" transform="rotate(-0 32.777031 72.78014)">50</text>
     </g>
    </g>
    <g id="ytick_4">
     <g id="line2d_4">
      <g>
       <use xlink:href="#m2cfc0a758a" x="39.277031" y="39.99007" style="fill: #1a1a1a; stroke: #1a1a1a; stroke-width: 0.8"/>
      </g>
     </g>
     <g id="text_5">
      <text style="font-size: 8px; font-family: 'Arial'; text-anchor: end; fill: #1a1a1a" x="32.777031" y="42.853195" transform="rotate(-0 32.777031 42.853195)">75</text>
     </g>
    </g>
    <g id="ytick_5">
     <g id="line2d_5">
      <g>
       <use xlink:href="#m2cfc0a758a" x="39.277031" y="10.063125" style="fill: #1a1a1a; stroke: #1a1a1a; stroke-width: 0.8"/>
      </g>
     </g>
     <g id="text_6">
      <text style="font-size: 8px; font-family: 'Arial'; text-anchor: end; fill: #1a1a1a" x="32.777031" y="12.92625" transform="rotate(-0 32.777031 12.92625)">100</text>
     </g>
    </g>
    <g id="text_7">
     <text style="font-size: 9px; font-family: 'Arial'; text-anchor: middle" x="13.642031" y="69.917015" transform="rotate(-90 13.642031 69.917015)">% of frames</text>
    </g>
   </g>
   <g id="patch_203">
    <path d="M 39.277031 129.770904 
L 39.277031 10.063125 
" style="fill: none; stroke: #1a1a1a; stroke-width: 0.8; stroke-linejoin: miter; stroke-linecap: square"/>
   </g>
   <g id="patch_204">
    <path d="M 39.277031 129.770904 
L 368.69952 129.770904 
" style="fill: none; stroke: #1a1a1a; stroke-width: 0.8; stroke-linejoin: miter; stroke-linecap: square"/>
   </g>
   <g id="legend_1">
    <g id="patch_205">
     <path d="M 140.17851 162.800415 
L 152.07851 162.800415 
L 152.07851 152.982915 
L 140.17851 152.982915 
z
" style="fill: #bfb3d8"/>
    </g>
    <g id="text_8">
     <text style="font-size: 8.5px; font-family: 'Arial'; text-anchor: start" x="156.32851" y="160.717915" transform="rotate(-0 156.32851 160.717915)">correctly labelled</text>
    </g>
    <g id="patch_206">
     <path d="M 233.703744 162.800415 
L 245.603744 162.800415 
L 245.603744 152.982915 
L 233.703744 152.982915 
z
" style="fill: #991b1e"/>
    </g>
    <g id="text_9">
     <text style="font-size: 8.5px; font-family: 'Arial'; text-anchor: start" x="249.853744" y="160.717915" transform="rotate(-0 249.853744 160.717915)">error</text>
    </g>
   </g>
  </g>
 </g>
 <defs>
  <clipPath id="p84ff050deb">
   <rect x="39.277031" y="10.063125" width="329.422489" height="119.707779"/>
  </clipPath>
 </defs>
</svg>
