<?xml version="1.0" encoding="utf-8" standalone="no"?>
<!DOCTYPE svg PUBLIC "-//W3C//DTD SVG 1.1//EN"
  "http://www.w3.org/Graphics/SVG/1.1/DTD/svg11.dtd">
<svg xmlns:xlink="http://www.w3.org/1999/xlink" width="365.707031pt" height="138.480625pt" viewBox="0 0 365.707031 138.480625" xmlns="http://www.w3.org/2000/svg" version="1.1">
 <metadata>
  <rdf:RDF xmlns:dc="http://purl.org/dc/elements/1.1/" xmlns:cc="http://creativecommons.org/ns#" xmlns:rdf="http://www.w3.org/1999/02/22-rdf-syntax-ns#">
   <cc:Work>
    <dc:type rdf:resource="http://purl.org/dc/dcmitype/StillImage"/>
    <dc:date>2026-05-13T17:21:02.532813</dc:date>
    <dc:format>image/svg+xml</dc:format>
    <dc:creator>
     <cc:Agent>
      <dc:title>Matplotlib v3.9.4, https://matplotlib.org/</dc:title>
     </cc:Agent>
    </dc:creator>
   </cc:Work>
  </rdf:RDF>
 </metadata>
 <defs>
  <style type="text/css">*{stroke-linejoin: round; stroke-linecap: butt}</style>
 </defs>
 <g id="figure_1">
  <g id="patch_1">
   <path d="M 0 138.480625 
L 365.707031 138.480625 
L 365.707031 0 
L 0 0 
z
" style="fill: #ffffff"/>
  </g>
  <g id="axes_1">
   <g id="patch_2">
    <path d="M 33.517031 103.303125 
L 364.267031 103.303125 
L 364.267031 4.303125 
L 33.517031 4.303125 
z
" style="fill: #ffffff"/>
   </g>
   <g id="patch_3">
    <path d="M 33.880856 103.303125 
L 36.460706 103.303125 
L 36.460706 4.303125 
L 33.880856 4.303125 
z
" clip-path="url(#p8e9538152d)" style="fill: #bfb3d8"/>
   </g>
   <g id="patch_4">
    <path d="M 37.188356 103.303125 
L 39.768206 103.303125 
L 39.768206 4.303125 
L 37.188356 4.303125 
z
" clip-path="url(#p8e9538152d)" style="fill: #bfb3d8"/>
   </g>
   <g id="patch_5">
    <path d="M 40.495856 103.303125 
L 43.075706 103.303125 
L 43.075706 4.303125 
L 40.495856 4.303125 
z
" clip-path="url(#p8e9538152d)" style="fill: #bfb3d8"/>
   </g>
   <g id="patch_6">
    <path d="M 43.803356 103.303125 
L 46.383206 103.303125 
L 46.383206 4.303125 
L 43.803356 4.303125 
z
" clip-path="url(#p8e9538152d)" style="fill: #bfb3d8"/>
   </g>
   <g id="patch_7">
    <path d="M 47.110856 103.303125 
L 49.690706 103.303125 
L 49.690706 4.303125 
L 47.110856 4.303125 
z
" clip-path="url(#p8e9538152d)" style="fill: #bfb3d8"/>
   </g>
   <g id="patch_8">
    <path d="M 50.418356 103.303125 
L 52.998206 103.303125 
L 52.998206 4.303125 
L 50.418356 4.303125 
z
" clip-path="url(#p8e9538152d)" style="fill: #bfb3d8"/>
   </g>
   <g id="patch_9">
    <path d="M 53.725856 103.303125 
L 56.305706 103.303125 
L 56.305706 4.303125 
L 53.725856 4.303125 
z
" clip-path="url(#p8e9538152d)" style="fill: #bfb3d8"/>
   </g>
   <g id="patch_10">
    <path d="M 57.033356 103.303125 
L 59.613206 103.303125 
L 59.613206 4.303125 
L 57.033356 4.303125 
z
" clip-path="url(#p8e9538152d)" style="fill: #bfb3d8"/>
   </g>
   <g id="patch_11">
    <path d="M 60.340856 103.303125 
L 62.920706 103.303125 
L 62.920706 4.303125 
L 60.340856 4.303125 
z
" clip-path="url(#p8e9538152d)" style="fill: #bfb3d8"/>
   </g>
   <g id="patch_12">
    <path d="M 63.648356 103.303125 
L 66.228206 103.303125 
L 66.228206 4.303125 
L 63.648356 4.303125 
z
" clip-path="url(#p8e9538152d)" style="fill: #bfb3d8"/>
   </g>
   <g id="patch_13">
    <path d="M 66.955856 103.303125 
L 69.535706 103.303125 
L 69.535706 4.303125 
L 66.955856 4.303125 
z
" clip-path="url(#p8e9538152d)" style="fill: #bfb3d8"/>
   </g>
   <g id="patch_14">
    <path d="M 70.263356 103.303125 
L 72.843206 103.303125 
L 72.843206 4.303125 
L 70.263356 4.303125 
z
" clip-path="url(#p8e9538152d)" style="fill: #bfb3d8"/>
   </g>
   <g id="patch_15">
    <path d="M 73.570856 103.303125 
L 76.150706 103.303125 
L 76.150706 4.303125 
L 73.570856 4.303125 
z
" clip-path="url(#p8e9538152d)" style="fill: #bfb3d8"/>
   </g>
   <g id="patch_16">
    <path d="M 76.878356 103.303125 
L 79.458206 103.303125 
L 79.458206 4.303125 
L 76.878356 4.303125 
z
" clip-path="url(#p8e9538152d)" style="fill: #bfb3d8"/>
   </g>
   <g id="patch_17">
    <path d="M 80.185856 103.303125 
L 82.765706 103.303125 
L 82.765706 4.303125 
L 80.185856 4.303125 
z
" clip-path="url(#p8e9538152d)" style="fill: #bfb3d8"/>
   </g>
   <g id="patch_18">
    <path d="M 83.493356 103.303125 
L 86.073206 103.303125 
L 86.073206 4.303125 
L 83.493356 4.303125 
z
" clip-path="url(#p8e9538152d)" style="fill: #bfb3d8"/>
   </g>
   <g id="patch_19">
    <path d="M 86.800856 103.303125 
L 89.380706 103.303125 
L 89.380706 4.303125 
L 86.800856 4.303125 
z
" clip-path="url(#p8e9538152d)" style="fill: #bfb3d8"/>
   </g>
   <g id="patch_20">
    <path d="M 90.108356 103.303125 
L 92.688206 103.303125 
L 92.688206 4.853125 
L 90.108356 4.853125 
z
" clip-path="url(#p8e9538152d)" style="fill: #bfb3d8"/>
   </g>
   <g id="patch_21">
    <path d="M 93.415856 103.303125 
L 95.995706 103.303125 
L 95.995706 5.128125 
L 93.415856 5.128125 
z
" clip-path="url(#p8e9538152d)" style="fill: #bfb3d8"/>
   </g>
   <g id="patch_22">
    <path d="M 96.723356 103.303125 
L 99.303206 103.303125 
L 99.303206 7.053125 
L 96.723356 7.053125 
z
" clip-path="url(#p8e9538152d)" style="fill: #bfb3d8"/>
   </g>
   <g id="patch_23">
    <path d="M 100.030856 103.303125 
L 102.610706 103.303125 
L 102.610706 7.603125 
L 100.030856 7.603125 
z
" clip-path="url(#p8e9538152d)" style="fill: #bfb3d8"/>
   </g>
   <g id="patch_24">
    <path d="M 103.338356 103.303125 
L 105.918206 103.303125 
L 105.918206 7.878125 
L 103.338356 7.878125 
z
" clip-path="url(#p8e9538152d)" style="fill: #bfb3d8"/>
   </g>
   <g id="patch_25">
    <path d="M 106.645856 103.303125 
L 109.225706 103.303125 
L 109.225706 9.253125 
L 106.645856 9.253125 
z
" clip-path="url(#p8e9538152d)" style="fill: #bfb3d8"/>
   </g>
   <g id="patch_26">
    <path d="M 109.953356 103.303125 
L 112.533206 103.303125 
L 112.533206 10.353125 
L 109.953356 10.353125 
z
" clip-path="url(#p8e9538152d)" style="fill: #bfb3d8"/>
   </g>
   <g id="patch_27">
    <path d="M 113.260856 103.303125 
L 115.840706 103.303125 
L 115.840706 10.628125 
L 113.260856 10.628125 
z
" clip-path="url(#p8e9538152d)" style="fill: #bfb3d8"/>
   </g>
   <g id="patch_28">
    <path d="M 116.568356 103.303125 
L 119.148206 103.303125 
L 119.148206 10.628125 
L 116.568356 10.628125 
z
" clip-path="url(#p8e9538152d)" style="fill: #bfb3d8"/>
   </g>
   <g id="patch_29">
    <path d="M 119.875856 103.303125 
L 122.455706 103.303125 
L 122.455706 10.628125 
L 119.875856 10.628125 
z
" clip-path="url(#p8e9538152d)" style="fill: #bfb3d8"/>
   </g>
   <g id="patch_30">
    <path d="M 123.183356 103.303125 
L 125.763206 103.303125 
L 125.763206 11.178125 
L 123.183356 11.178125 
z
" clip-path="url(#p8e9538152d)" style="fill: #bfb3d8"/>
   </g>
   <g id="patch_31">
    <path d="M 126.490856 103.303125 
L 129.070706 103.303125 
L 129.070706 12.003125 
L 126.490856 12.003125 
z
" clip-path="url(#p8e9538152d)" style="fill: #bfb3d8"/>
   </g>
   <g id="patch_32">
    <path d="M 129.798356 103.303125 
L 132.378206 103.303125 
L 132.378206 12.553125 
L 129.798356 12.553125 
z
" clip-path="url(#p8e9538152d)" style="fill: #bfb3d8"/>
   </g>
   <g id="patch_33">
    <path d="M 133.105856 103.303125 
L 135.685706 103.303125 
L 135.685706 12.553125 
L 133.105856 12.553125 
z
" clip-path="url(#p8e9538152d)" style="fill: #bfb3d8"/>
   </g>
   <g id="patch_34">
    <path d="M 136.413356 103.303125 
L 138.993206 103.303125 
L 138.993206 13.378125 
L 136.413356 13.378125 
z
" clip-path="url(#p8e9538152d)" style="fill: #bfb3d8"/>
   </g>
   <g id="patch_35">
    <path d="M 139.720856 103.303125 
L 142.300706 103.303125 
L 142.300706 13.653125 
L 139.720856 13.653125 
z
" clip-path="url(#p8e9538152d)" style="fill: #bfb3d8"/>
   </g>
   <g id="patch_36">
    <path d="M 143.028356 103.303125 
L 145.608206 103.303125 
L 145.608206 14.753125 
L 143.028356 14.753125 
z
" clip-path="url(#p8e9538152d)" style="fill: #bfb3d8"/>
   </g>
   <g id="patch_37">
    <path d="M 146.335856 103.303125 
L 148.915706 103.303125 
L 148.915706 17.503125 
L 146.335856 17.503125 
z
" clip-path="url(#p8e9538152d)" style="fill: #bfb3d8"/>
   </g>
   <g id="patch_38">
    <path d="M 149.643356 103.303125 
L 152.223206 103.303125 
L 152.223206 18.053125 
L 149.643356 18.053125 
z
" clip-path="url(#p8e9538152d)" style="fill: #bfb3d8"/>
   </g>
   <g id="patch_39">
    <path d="M 152.950856 103.303125 
L 155.530706 103.303125 
L 155.530706 19.153125 
L 152.950856 19.153125 
z
" clip-path="url(#p8e9538152d)" style="fill: #bfb3d8"/>
   </g>
   <g id="patch_40">
    <path d="M 156.258356 103.303125 
L 158.838206 103.303125 
L 158.838206 19.428125 
L 156.258356 19.428125 
z
" clip-path="url(#p8e9538152d)" style="fill: #bfb3d8"/>
   </g>
   <g id="patch_41">
    <path d="M 159.565856 103.303125 
L 162.145706 103.303125 
L 162.145706 21.078125 
L 159.565856 21.078125 
z
" clip-path="url(#p8e9538152d)" style="fill: #bfb3d8"/>
   </g>
   <g id="patch_42">
    <path d="M 162.873356 103.303125 
L 165.453206 103.303125 
L 165.453206 21.078125 
L 162.873356 21.078125 
z
" clip-path="url(#p8e9538152d)" style="fill: #bfb3d8"/>
   </g>
   <g id="patch_43">
    <path d="M 166.180856 103.303125 
L 168.760706 103.303125 
L 168.760706 21.353125 
L 166.180856 21.353125 
z
" clip-path="url(#p8e9538152d)" style="fill: #bfb3d8"/>
   </g>
   <g id="patch_44">
    <path d="M 169.488356 103.303125 
L 172.068206 103.303125 
L 172.068206 21.628125 
L 169.488356 21.628125 
z
" clip-path="url(#p8e9538152d)" style="fill: #bfb3d8"/>
   </g>
   <g id="patch_45">
    <path d="M 172.795856 103.303125 
L 175.375706 103.303125 
L 175.375706 21.903125 
L 172.795856 21.903125 
z
" clip-path="url(#p8e9538152d)" style="fill: #bfb3d8"/>
   </g>
   <g id="patch_46">
    <path d="M 176.103356 103.303125 
L 178.683206 103.303125 
L 178.683206 21.903125 
L 176.103356 21.903125 
z
" clip-path="url(#p8e9538152d)" style="fill: #bfb3d8"/>
   </g>
   <g id="patch_47">
    <path d="M 179.410856 103.303125 
L 181.990706 103.303125 
L 181.990706 22.178125 
L 179.410856 22.178125 
z
" clip-path="url(#p8e9538152d)" style="fill: #bfb3d8"/>
   </g>
   <g id="patch_48">
    <path d="M 182.718356 103.303125 
L 185.298206 103.303125 
L 185.298206 22.728125 
L 182.718356 22.728125 
z
" clip-path="url(#p8e9538152d)" style="fill: #bfb3d8"/>
   </g>
   <g id="patch_49">
    <path d="M 186.025856 103.303125 
L 188.605706 103.303125 
L 188.605706 23.278125 
L 186.025856 23.278125 
z
" clip-path="url(#p8e9538152d)" style="fill: #bfb3d8"/>
   </g>
   <g id="patch_50">
    <path d="M 189.333356 103.303125 
L 191.913206 103.303125 
L 191.913206 23.278125 
L 189.333356 23.278125 
z
" clip-path="url(#p8e9538152d)" style="fill: #bfb3d8"/>
   </g>
   <g id="patch_51">
    <path d="M 192.640856 103.303125 
L 195.220706 103.303125 
L 195.220706 24.103125 
L 192.640856 24.103125 
z
" clip-path="url(#p8e9538152d)" style="fill: #bfb3d8"/>
   </g>
   <g id="patch_52">
    <path d="M 195.948356 103.303125 
L 198.528206 103.303125 
L 198.528206 26.364406 
L 195.948356 26.364406 
z
" clip-path="url(#p8e9538152d)" style="fill: #bfb3d8"/>
   </g>
   <g id="patch_53">
    <path d="M 199.255856 103.303125 
L 201.835706 103.303125 
L 201.835706 27.128125 
L 199.255856 27.128125 
z
" clip-path="url(#p8e9538152d)" style="fill: #bfb3d8"/>
   </g>
   <g id="patch_54">
    <path d="M 202.563356 103.303125 
L 205.143206 103.303125 
L 205.143206 29.053125 
L 202.563356 29.053125 
z
" clip-path="url(#p8e9538152d)" style="fill: #bfb3d8"/>
   </g>
   <g id="patch_55">
    <path d="M 205.870856 103.303125 
L 208.450706 103.303125 
L 208.450706 29.328125 
L 205.870856 29.328125 
z
" clip-path="url(#p8e9538152d)" style="fill: #bfb3d8"/>
   </g>
   <g id="patch_56">
    <path d="M 209.178356 103.303125 
L 211.758206 103.303125 
L 211.758206 29.328125 
L 209.178356 29.328125 
z
" clip-path="url(#p8e9538152d)" style="fill: #bfb3d8"/>
   </g>
   <g id="patch_57">
    <path d="M 212.485856 103.303125 
L 215.065706 103.303125 
L 215.065706 30.153125 
L 212.485856 30.153125 
z
" clip-path="url(#p8e9538152d)" style="fill: #bfb3d8"/>
   </g>
   <g id="patch_58">
    <path d="M 215.793356 103.303125 
L 218.373206 103.303125 
L 218.373206 30.225131 
L 215.793356 30.225131 
z
" clip-path="url(#p8e9538152d)" style="fill: #bfb3d8"/>
   </g>
   <g id="patch_59">
    <path d="M 219.100856 103.303125 
L 221.680706 103.303125 
L 221.680706 30.703125 
L 219.100856 30.703125 
z
" clip-path="url(#p8e9538152d)" style="fill: #bfb3d8"/>
   </g>
   <g id="patch_60">
    <path d="M 222.408356 103.303125 
L 224.988206 103.303125 
L 224.988206 30.703125 
L 222.408356 30.703125 
z
" clip-path="url(#p8e9538152d)" style="fill: #bfb3d8"/>
   </g>
   <g id="patch_61">
    <path d="M 225.715856 103.303125 
L 228.295706 103.303125 
L 228.295706 30.978125 
L 225.715856 30.978125 
z
" clip-path="url(#p8e9538152d)" style="fill: #bfb3d8"/>
   </g>
   <g id="patch_62">
    <path d="M 229.023356 103.303125 
L 231.603206 103.303125 
L 231.603206 30.978125 
L 229.023356 30.978125 
z
" clip-path="url(#p8e9538152d)" style="fill: #bfb3d8"/>
   </g>
   <g id="patch_63">
    <path d="M 232.330856 103.303125 
L 234.910706 103.303125 
L 234.910706 31.528125 
L 232.330856 31.528125 
z
" clip-path="url(#p8e9538152d)" style="fill: #bfb3d8"/>
   </g>
   <g id="patch_64">
    <path d="M 235.638356 103.303125 
L 238.218206 103.303125 
L 238.218206 33.178125 
L 235.638356 33.178125 
z
" clip-path="url(#p8e9538152d)" style="fill: #bfb3d8"/>
   </g>
   <g id="patch_65">
    <path d="M 238.945856 103.303125 
L 241.525706 103.303125 
L 241.525706 33.453125 
L 238.945856 33.453125 
z
" clip-path="url(#p8e9538152d)" style="fill: #bfb3d8"/>
   </g>
   <g id="patch_66">
    <path d="M 242.253356 103.303125 
L 244.833206 103.303125 
L 244.833206 34.003125 
L 242.253356 34.003125 
z
" clip-path="url(#p8e9538152d)" style="fill: #bfb3d8"/>
   </g>
   <g id="patch_67">
    <path d="M 245.560856 103.303125 
L 248.140706 103.303125 
L 248.140706 34.828125 
L 245.560856 34.828125 
z
" clip-path="url(#p8e9538152d)" style="fill: #bfb3d8"/>
   </g>
   <g id="patch_68">
    <path d="M 248.868356 103.303125 
L 251.448206 103.303125 
L 251.448206 35.928125 
L 248.868356 35.928125 
z
" clip-path="url(#p8e9538152d)" style="fill: #bfb3d8"/>
   </g>
   <g id="patch_69">
    <path d="M 252.175856 103.303125 
L 254.755706 103.303125 
L 254.755706 36.203125 
L 252.175856 36.203125 
z
" clip-path="url(#p8e9538152d)" style="fill: #bfb3d8"/>
   </g>
   <g id="patch_70">
    <path d="M 255.483356 103.303125 
L 258.063206 103.303125 
L 258.063206 36.478125 
L 255.483356 36.478125 
z
" clip-path="url(#p8e9538152d)" style="fill: #bfb3d8"/>
   </g>
   <g id="patch_71">
    <path d="M 258.790856 103.303125 
L 261.370706 103.303125 
L 261.370706 37.578125 
L 258.790856 37.578125 
z
" clip-path="url(#p8e9538152d)" style="fill: #bfb3d8"/>
   </g>
   <g id="patch_72">
    <path d="M 262.098356 103.303125 
L 264.678206 103.303125 
L 264.678206 37.853125 
L 262.098356 37.853125 
z
" clip-path="url(#p8e9538152d)" style="fill: #bfb3d8"/>
   </g>
   <g id="patch_73">
    <path d="M 265.405856 103.303125 
L 267.985706 103.303125 
L 267.985706 38.128125 
L 265.405856 38.128125 
z
" clip-path="url(#p8e9538152d)" style="fill: #bfb3d8"/>
   </g>
   <g id="patch_74">
    <path d="M 268.713356 103.303125 
L 271.293206 103.303125 
L 271.293206 38.678125 
L 268.713356 38.678125 
z
" clip-path="url(#p8e9538152d)" style="fill: #bfb3d8"/>
   </g>
   <g id="patch_75">
    <path d="M 272.020856 103.303125 
L 274.600706 103.303125 
L 274.600706 39.503125 
L 272.020856 39.503125 
z
" clip-path="url(#p8e9538152d)" style="fill: #bfb3d8"/>
   </g>
   <g id="patch_76">
    <path d="M 275.328356 103.303125 
L 277.908206 103.303125 
L 277.908206 43.903125 
L 275.328356 43.903125 
z
" clip-path="url(#p8e9538152d)" style="fill: #bfb3d8"/>
   </g>
   <g id="patch_77">
    <path d="M 278.635856 103.303125 
L 281.215706 103.303125 
L 281.215706 46.103125 
L 278.635856 46.103125 
z
" clip-path="url(#p8e9538152d)" style="fill: #bfb3d8"/>
   </g>
   <g id="patch_78">
    <path d="M 281.943356 103.303125 
L 284.523206 103.303125 
L 284.523206 48.578125 
L 281.943356 48.578125 
z
" clip-path="url(#p8e9538152d)" style="fill: #bfb3d8"/>
   </g>
   <g id="patch_79">
    <path d="M 285.250856 103.303125 
L 287.830706 103.303125 
L 287.830706 51.603125 
L 285.250856 51.603125 
z
" clip-path="url(#p8e9538152d)" style="fill: #bfb3d8"/>
   </g>
   <g id="patch_80">
    <path d="M 288.558356 103.303125 
L 291.138206 103.303125 
L 291.138206 53.803125 
L 288.558356 53.803125 
z
" clip-path="url(#p8e9538152d)" style="fill: #bfb3d8"/>
   </g>
   <g id="patch_81">
    <path d="M 291.865856 103.303125 
L 294.445706 103.303125 
L 294.445706 56.828125 
L 291.865856 56.828125 
z
" clip-path="url(#p8e9538152d)" style="fill: #bfb3d8"/>
   </g>
   <g id="patch_82">
    <path d="M 295.173356 103.303125 
L 297.753206 103.303125 
L 297.753206 59.578125 
L 295.173356 59.578125 
z
" clip-path="url(#p8e9538152d)" style="fill: #bfb3d8"/>
   </g>
   <g id="patch_83">
    <path d="M 298.480856 103.303125 
L 301.060706 103.303125 
L 301.060706 62.603125 
L 298.480856 62.603125 
z
" clip-path="url(#p8e9538152d)" style="fill: #bfb3d8"/>
   </g>
   <g id="patch_84">
    <path d="M 301.788356 103.303125 
L 304.368206 103.303125 
L 304.368206 65.903125 
L 301.788356 65.903125 
z
" clip-path="url(#p8e9538152d)" style="fill: #bfb3d8"/>
   </g>
   <g id="patch_85">
    <path d="M 305.095856 103.303125 
L 307.675706 103.303125 
L 307.675706 67.553125 
L 305.095856 67.553125 
z
" clip-path="url(#p8e9538152d)" style="fill: #bfb3d8"/>
   </g>
   <g id="patch_86">
    <path d="M 308.403356 103.303125 
L 310.983206 103.303125 
L 310.983206 68.103125 
L 308.403356 68.103125 
z
" clip-path="url(#p8e9538152d)" style="fill: #bfb3d8"/>
   </g>
   <g id="patch_87">
    <path d="M 311.710856 103.303125 
L 314.290706 103.303125 
L 314.290706 69.203125 
L 311.710856 69.203125 
z
" clip-path="url(#p8e9538152d)" style="fill: #bfb3d8"/>
   </g>
   <g id="patch_88">
    <path d="M 315.018356 103.303125 
L 317.598206 103.303125 
L 317.598206 70.028125 
L 315.018356 70.028125 
z
" clip-path="url(#p8e9538152d)" style="fill: #bfb3d8"/>
   </g>
   <g id="patch_89">
    <path d="M 318.325856 103.303125 
L 320.905706 103.303125 
L 320.905706 70.028125 
L 318.325856 70.028125 
z
" clip-path="url(#p8e9538152d)" style="fill: #bfb3d8"/>
   </g>
   <g id="patch_90">
    <path d="M 321.633356 103.303125 
L 324.213206 103.303125 
L 324.213206 70.028125 
L 321.633356 70.028125 
z
" clip-path="url(#p8e9538152d)" style="fill: #bfb3d8"/>
   </g>
   <g id="patch_91">
    <path d="M 324.940856 103.303125 
L 327.520706 103.303125 
L 327.520706 71.678125 
L 324.940856 71.678125 
z
" clip-path="url(#p8e9538152d)" style="fill: #bfb3d8"/>
   </g>
   <g id="patch_92">
    <path d="M 328.248356 103.303125 
L 330.828206 103.303125 
L 330.828206 71.953125 
L 328.248356 71.953125 
z
" clip-path="url(#p8e9538152d)" style="fill: #bfb3d8"/>
   </g>
   <g id="patch_93">
    <path d="M 331.555856 103.303125 
L 334.135706 103.303125 
L 334.135706 73.603125 
L 331.555856 73.603125 
z
" clip-path="url(#p8e9538152d)" style="fill: #bfb3d8"/>
   </g>
   <g id="patch_94">
    <path d="M 334.863356 103.303125 
L 337.443206 103.303125 
L 337.443206 73.878125 
L 334.863356 73.878125 
z
" clip-path="url(#p8e9538152d)" style="fill: #bfb3d8"/>
   </g>
   <g id="patch_95">
    <path d="M 338.170856 103.303125 
L 340.750706 103.303125 
L 340.750706 73.878125 
L 338.170856 73.878125 
z
" clip-path="url(#p8e9538152d)" style="fill: #bfb3d8"/>
   </g>
   <g id="patch_96">
    <path d="M 341.478356 103.303125 
L 344.058206 103.303125 
L 344.058206 74.153125 
L 341.478356 74.153125 
z
" clip-path="url(#p8e9538152d)" style="fill: #bfb3d8"/>
   </g>
   <g id="patch_97">
    <path d="M 344.785856 103.303125 
L 347.365706 103.303125 
L 347.365706 85.703125 
L 344.785856 85.703125 
z
" clip-path="url(#p8e9538152d)" style="fill: #bfb3d8"/>
   </g>
   <g id="patch_98">
    <path d="M 348.093356 103.303125 
L 350.673206 103.303125 
L 350.673206 87.353125 
L 348.093356 87.353125 
z
" clip-path="url(#p8e9538152d)" style="fill: #bfb3d8"/>
   </g>
   <g id="patch_99">
    <path d="M 351.400856 103.303125 
L 353.980706 103.303125 
L 353.980706 88.178125 
L 351.400856 88.178125 
z
" clip-path="url(#p8e9538152d)" style="fill: #bfb3d8"/>
   </g>
   <g id="patch_100">
    <path d="M 354.708356 103.303125 
L 357.288206 103.303125 
L 357.288206 95.603125 
L 354.708356 95.603125 
z
" clip-path="url(#p8e9538152d)" style="fill: #bfb3d8"/>
   </g>
   <g id="patch_101">
    <path d="M 358.015856 103.303125 
L 360.595706 103.303125 
L 360.595706 96.978125 
L 358.015856 96.978125 
z
" clip-path="url(#p8e9538152d)" style="fill: #bfb3d8"/>
   </g>
   <g id="patch_102">
    <path d="M 361.323356 103.303125 
L 363.903206 103.303125 
L 363.903206 103.303125 
L 361.323356 103.303125 
z
" clip-path="url(#p8e9538152d)" style="fill: #bfb3d8"/>
   </g>
   <g id="patch_103">
    <path d="M 33.880856 4.303125 
L 36.460706 4.303125 
L 36.460706 4.303125 
L 33.880856 4.303125 
z
" clip-path="url(#p8e9538152d)" style="fill: #991b1e"/>
   </g>
   <g id="patch_104">
    <path d="M 37.188356 4.303125 
L 39.768206 4.303125 
L 39.768206 4.303125 
L 37.188356 4.303125 
z
" clip-path="url(#p8e9538152d)" style="fill: #991b1e"/>
   </g>
   <g id="patch_105">
    <path d="M 40.495856 4.303125 
L 43.075706 4.303125 
L 43.075706 4.303125 
L 40.495856 4.303125 
z
" clip-path="url(#p8e9538152d)" style="fill: #991b1e"/>
   </g>
   <g id="patch_106">
    <path d="M 43.803356 4.303125 
L 46.383206 4.303125 
L 46.383206 4.303125 
L 43.803356 4.303125 
z
" clip-path="url(#p8e9538152d)" style="fill: #991b1e"/>
   </g>
   <g id="patch_107">
    <path d="M 47.110856 4.303125 
L 49.690706 4.303125 
L 49.690706 4.303125 
L 47.110856 4.303125 
z
" clip-path="url(#p8e9538152d)" style="fill: #991b1e"/>
   </g>
   <g id="patch_108">
    <path d="M 50.418356 4.303125 
L 52.998206 4.303125 
L 52.998206 4.303125 
L 50.418356 4.303125 
z
" clip-path="url(#p8e9538152d)" style="fill: #991b1e"/>
   </g>
   <g id="patch_109">
    <path d="M 53.725856 4.303125 
L 56.305706 4.303125 
L 56.305706 4.303125 
L 53.725856 4.303125 
z
" clip-path="url(#p8e9538152d)" style="fill: #991b1e"/>
   </g>
   <g id="patch_110">
    <path d="M 57.033356 4.303125 
L 59.613206 4.303125 
L 59.613206 4.303125 
L 57.033356 4.303125 
z
" clip-path="url(#p8e9538152d)" style="fill: #991b1e"/>
   </g>
   <g id="patch_111">
    <path d="M 60.340856 4.303125 
L 62.920706 4.303125 
L 62.920706 4.303125 
L 60.340856 4.303125 
z
" clip-path="url(#p8e9538152d)" style="fill: #991b1e"/>
   </g>
   <g id="patch_112">
    <path d="M 63.648356 4.303125 
L 66.228206 4.303125 
L 66.228206 4.303125 
L 63.648356 4.303125 
z
" clip-path="url(#p8e9538152d)" style="fill: #991b1e"/>
   </g>
   <g id="patch_113">
    <path d="M 66.955856 4.303125 
L 69.535706 4.303125 
L 69.535706 4.303125 
L 66.955856 4.303125 
z
" clip-path="url(#p8e9538152d)" style="fill: #991b1e"/>
   </g>
   <g id="patch_114">
    <path d="M 70.263356 4.303125 
L 72.843206 4.303125 
L 72.843206 4.303125 
L 70.263356 4.303125 
z
" clip-path="url(#p8e9538152d)" style="fill: #991b1e"/>
   </g>
   <g id="patch_115">
    <path d="M 73.570856 4.303125 
L 76.150706 4.303125 
L 76.150706 4.303125 
L 73.570856 4.303125 
z
" clip-path="url(#p8e9538152d)" style="fill: #991b1e"/>
   </g>
   <g id="patch_116">
    <path d="M 76.878356 4.303125 
L 79.458206 4.303125 
L 79.458206 4.303125 
L 76.878356 4.303125 
z
" clip-path="url(#p8e9538152d)" style="fill: #991b1e"/>
   </g>
   <g id="patch_117">
    <path d="M 80.185856 4.303125 
L 82.765706 4.303125 
L 82.765706 4.303125 
L 80.185856 4.303125 
z
" clip-path="url(#p8e9538152d)" style="fill: #991b1e"/>
   </g>
   <g id="patch_118">
    <path d="M 83.493356 4.303125 
L 86.073206 4.303125 
L 86.073206 4.303125 
L 83.493356 4.303125 
z
" clip-path="url(#p8e9538152d)" style="fill: #991b1e"/>
   </g>
   <g id="patch_119">
    <path d="M 86.800856 4.303125 
L 89.380706 4.303125 
L 89.380706 4.303125 
L 86.800856 4.303125 
z
" clip-path="url(#p8e9538152d)" style="fill: #991b1e"/>
   </g>
   <g id="patch_120">
    <path d="M 90.108356 4.853125 
L 92.688206 4.853125 
L 92.688206 4.303125 
L 90.108356 4.303125 
z
" clip-path="url(#p8e9538152d)" style="fill: #991b1e"/>
   </g>
   <g id="patch_121">
    <path d="M 93.415856 5.128125 
L 95.995706 5.128125 
L 95.995706 4.303125 
L 93.415856 4.303125 
z
" clip-path="url(#p8e9538152d)" style="fill: #991b1e"/>
   </g>
   <g id="patch_122">
    <path d="M 96.723356 7.053125 
L 99.303206 7.053125 
L 99.303206 4.303125 
L 96.723356 4.303125 
z
" clip-path="url(#p8e9538152d)" style="fill: #991b1e"/>
   </g>
   <g id="patch_123">
    <path d="M 100.030856 7.603125 
L 102.610706 7.603125 
L 102.610706 4.303125 
L 100.030856 4.303125 
z
" clip-path="url(#p8e9538152d)" style="fill: #991b1e"/>
   </g>
   <g id="patch_124">
    <path d="M 103.338356 7.878125 
L 105.918206 7.878125 
L 105.918206 4.303125 
L 103.338356 4.303125 
z
" clip-path="url(#p8e9538152d)" style="fill: #991b1e"/>
   </g>
   <g id="patch_125">
    <path d="M 106.645856 9.253125 
L 109.225706 9.253125 
L 109.225706 4.303125 
L 106.645856 4.303125 
z
" clip-path="url(#p8e9538152d)" style="fill: #991b1e"/>
   </g>
   <g id="patch_126">
    <path d="M 109.953356 10.353125 
L 112.533206 10.353125 
L 112.533206 4.303125 
L 109.953356 4.303125 
z
" clip-path="url(#p8e9538152d)" style="fill: #991b1e"/>
   </g>
   <g id="patch_127">
    <path d="M 113.260856 10.628125 
L 115.840706 10.628125 
L 115.840706 4.303125 
L 113.260856 4.303125 
z
" clip-path="url(#p8e9538152d)" style="fill: #991b1e"/>
   </g>
   <g id="patch_128">
    <path d="M 116.568356 10.628125 
L 119.148206 10.628125 
L 119.148206 4.303125 
L 116.568356 4.303125 
z
" clip-path="url(#p8e9538152d)" style="fill: #991b1e"/>
   </g>
   <g id="patch_129">
    <path d="M 119.875856 10.628125 
L 122.455706 10.628125 
L 122.455706 4.303125 
L 119.875856 4.303125 
z
" clip-path="url(#p8e9538152d)" style="fill: #991b1e"/>
   </g>
   <g id="patch_130">
    <path d="M 123.183356 11.178125 
L 125.763206 11.178125 
L 125.763206 4.303125 
L 123.183356 4.303125 
z
" clip-path="url(#p8e9538152d)" style="fill: #991b1e"/>
   </g>
   <g id="patch_131">
    <path d="M 126.490856 12.003125 
L 129.070706 12.003125 
L 129.070706 4.303125 
L 126.490856 4.303125 
z
" clip-path="url(#p8e9538152d)" style="fill: #991b1e"/>
   </g>
   <g id="patch_132">
    <path d="M 129.798356 12.553125 
L 132.378206 12.553125 
L 132.378206 4.303125 
L 129.798356 4.303125 
z
" clip-path="url(#p8e9538152d)" style="fill: #991b1e"/>
   </g>
   <g id="patch_133">
    <path d="M 133.105856 12.553125 
L 135.685706 12.553125 
L 135.685706 4.303125 
L 133.105856 4.303125 
z
" clip-path="url(#p8e9538152d)" style="fill: #991b1e"/>
   </g>
   <g id="patch_134">
    <path d="M 136.413356 13.378125 
L 138.993206 13.378125 
L 138.993206 4.303125 
L 136.413356 4.303125 
z
" clip-path="url(#p8e9538152d)" style="fill: #991b1e"/>
   </g>
   <g id="patch_135">
    <path d="M 139.720856 13.653125 
L 142.300706 13.653125 
L 142.300706 4.303125 
L 139.720856 4.303125 
z
" clip-path="url(#p8e9538152d)" style="fill: #991b1e"/>
   </g>
   <g id="patch_136">
    <path d="M 143.028356 14.753125 
L 145.608206 14.753125 
L 145.608206 4.303125 
L 143.028356 4.303125 
z
" clip-path="url(#p8e9538152d)" style="fill: #991b1e"/>
   </g>
   <g id="patch_137">
    <path d="M 146.335856 17.503125 
L 148.915706 17.503125 
L 148.915706 4.303125 
L 146.335856 4.303125 
z
" clip-path="url(#p8e9538152d)" style="fill: #991b1e"/>
   </g>
   <g id="patch_138">
    <path d="M 149.643356 18.053125 
L 152.223206 18.053125 
L 152.223206 4.303125 
L 149.643356 4.303125 
z
" clip-path="url(#p8e9538152d)" style="fill: #991b1e"/>
   </g>
   <g id="patch_139">
    <path d="M 152.950856 19.153125 
L 155.530706 19.153125 
L 155.530706 4.303125 
L 152.950856 4.303125 
z
" clip-path="url(#p8e9538152d)" style="fill: #991b1e"/>
   </g>
   <g id="patch_140">
    <path d="M 156.258356 19.428125 
L 158.838206 19.428125 
L 158.838206 4.303125 
L 156.258356 4.303125 
z
" clip-path="url(#p8e9538152d)" style="fill: #991b1e"/>
   </g>
   <g id="patch_141">
    <path d="M 159.565856 21.078125 
L 162.145706 21.078125 
L 162.145706 4.303125 
L 159.565856 4.303125 
z
" clip-path="url(#p8e9538152d)" style="fill: #991b1e"/>
   </g>
   <g id="patch_142">
    <path d="M 162.873356 21.078125 
L 165.453206 21.078125 
L 165.453206 4.303125 
L 162.873356 4.303125 
z
" clip-path="url(#p8e9538152d)" style="fill: #991b1e"/>
   </g>
   <g id="patch_143">
    <path d="M 166.180856 21.353125 
L 168.760706 21.353125 
L 168.760706 4.303125 
L 166.180856 4.303125 
z
" clip-path="url(#p8e9538152d)" style="fill: #991b1e"/>
   </g>
   <g id="patch_144">
    <path d="M 169.488356 21.628125 
L 172.068206 21.628125 
L 172.068206 4.303125 
L 169.488356 4.303125 
z
" clip-path="url(#p8e9538152d)" style="fill: #991b1e"/>
   </g>
   <g id="patch_145">
    <path d="M 172.795856 21.903125 
L 175.375706 21.903125 
L 175.375706 4.303125 
L 172.795856 4.303125 
z
" clip-path="url(#p8e9538152d)" style="fill: #991b1e"/>
   </g>
   <g id="patch_146">
    <path d="M 176.103356 21.903125 
L 178.683206 21.903125 
L 178.683206 4.303125 
L 176.103356 4.303125 
z
" clip-path="url(#p8e9538152d)" style="fill: #991b1e"/>
   </g>
   <g id="patch_147">
    <path d="M 179.410856 22.178125 
L 181.990706 22.178125 
L 181.990706 4.303125 
L 179.410856 4.303125 
z
" clip-path="url(#p8e9538152d)" style="fill: #991b1e"/>
   </g>
   <g id="patch_148">
    <path d="M 182.718356 22.728125 
L 185.298206 22.728125 
L 185.298206 4.303125 
L 182.718356 4.303125 
z
" clip-path="url(#p8e9538152d)" style="fill: #991b1e"/>
   </g>
   <g id="patch_149">
    <path d="M 186.025856 23.278125 
L 188.605706 23.278125 
L 188.605706 4.303125 
L 186.025856 4.303125 
z
" clip-path="url(#p8e9538152d)" style="fill: #991b1e"/>
   </g>
   <g id="patch_150">
    <path d="M 189.333356 23.278125 
L 191.913206 23.278125 
L 191.913206 4.303125 
L 189.333356 4.303125 
z
" clip-path="url(#p8e9538152d)" style="fill: #991b1e"/>
   </g>
   <g id="patch_151">
    <path d="M 192.640856 24.103125 
L 195.220706 24.103125 
L 195.220706 4.303125 
L 192.640856 4.303125 
z
" clip-path="url(#p8e9538152d)" style="fill: #991b1e"/>
   </g>
   <g id="patch_152">
    <path d="M 195.948356 26.364406 
L 198.528206 26.364406 
L 198.528206 4.303125 
L 195.948356 4.303125 
z
" clip-path="url(#p8e9538152d)" style="fill: #991b1e"/>
   </g>
   <g id="patch_153">
    <path d="M 199.255856 27.128125 
L 201.835706 27.128125 
L 201.835706 4.303125 
L 199.255856 4.303125 
z
" clip-path="url(#p8e9538152d)" style="fill: #991b1e"/>
   </g>
   <g id="patch_154">
    <path d="M 202.563356 29.053125 
L 205.143206 29.053125 
L 205.143206 4.303125 
L 202.563356 4.303125 
z
" clip-path="url(#p8e9538152d)" style="fill: #991b1e"/>
   </g>
   <g id="patch_155">
    <path d="M 205.870856 29.328125 
L 208.450706 29.328125 
L 208.450706 4.303125 
L 205.870856 4.303125 
z
" clip-path="url(#p8e9538152d)" style="fill: #991b1e"/>
   </g>
   <g id="patch_156">
    <path d="M 209.178356 29.328125 
L 211.758206 29.328125 
L 211.758206 4.303125 
L 209.178356 4.303125 
z
" clip-path="url(#p8e9538152d)" style="fill: #991b1e"/>
   </g>
   <g id="patch_157">
    <path d="M 212.485856 30.153125 
L 215.065706 30.153125 
L 215.065706 4.303125 
L 212.485856 4.303125 
z
" clip-path="url(#p8e9538152d)" style="fill: #991b1e"/>
   </g>
   <g id="patch_158">
    <path d="M 215.793356 30.225131 
L 218.373206 30.225131 
L 218.373206 4.303125 
L 215.793356 4.303125 
z
" clip-path="url(#p8e9538152d)" style="fill: #991b1e"/>
   </g>
   <g id="patch_159">
    <path d="M 219.100856 30.703125 
L 221.680706 30.703125 
L 221.680706 4.303125 
L 219.100856 4.303125 
z
" clip-path="url(#p8e9538152d)" style="fill: #991b1e"/>
   </g>
   <g id="patch_160">
    <path d="M 222.408356 30.703125 
L 224.988206 30.703125 
L 224.988206 4.303125 
L 222.408356 4.303125 
z
" clip-path="url(#p8e9538152d)" style="fill: #991b1e"/>
   </g>
   <g id="patch_161">
    <path d="M 225.715856 30.978125 
L 228.295706 30.978125 
L 228.295706 4.303125 
L 225.715856 4.303125 
z
" clip-path="url(#p8e9538152d)" style="fill: #991b1e"/>
   </g>
   <g id="patch_162">
    <path d="M 229.023356 30.978125 
L 231.603206 30.978125 
L 231.603206 4.303125 
L 229.023356 4.303125 
z
" clip-path="url(#p8e9538152d)" style="fill: #991b1e"/>
   </g>
   <g id="patch_163">
    <path d="M 232.330856 31.528125 
L 234.910706 31.528125 
L 234.910706 4.303125 
L 232.330856 4.303125 
z
" clip-path="url(#p8e9538152d)" style="fill: #991b1e"/>
   </g>
   <g id="patch_164">
    <path d="M 235.638356 33.178125 
L 238.218206 33.178125 
L 238.218206 4.303125 
L 235.638356 4.303125 
z
" clip-path="url(#p8e9538152d)" style="fill: #991b1e"/>
   </g>
   <g id="patch_165">
    <path d="M 238.945856 33.453125 
L 241.525706 33.453125 
L 241.525706 4.303125 
L 238.945856 4.303125 
z
" clip-path="url(#p8e9538152d)" style="fill: #991b1e"/>
   </g>
   <g id="patch_166">
    <path d="M 242.253356 34.003125 
L 244.833206 34.003125 
L 244.833206 4.303125 
L 242.253356 4.303125 
z
" clip-path="url(#p8e9538152d)" style="fill: #991b1e"/>
   </g>
   <g id="patch_167">
    <path d="M 245.560856 34.828125 
L 248.140706 34.828125 
L 248.140706 4.303125 
L 245.560856 4.303125 
z
" clip-path="url(#p8e9538152d)" style="fill: #991b1e"/>
   </g>
   <g id="patch_168">
    <path d="M 248.868356 35.928125 
L 251.448206 35.928125 
L 251.448206 4.303125 
L 248.868356 4.303125 
z
" clip-path="url(#p8e9538152d)" style="fill: #991b1e"/>
   </g>
   <g id="patch_169">
    <path d="M 252.175856 36.203125 
L 254.755706 36.203125 
L 254.755706 4.303125 
L 252.175856 4.303125 
z
" clip-path="url(#p8e9538152d)" style="fill: #991b1e"/>
   </g>
   <g id="patch_170">
    <path d="M 255.483356 36.478125 
L 258.063206 36.478125 
L 258.063206 4.303125 
L 255.483356 4.303125 
z
" clip-path="url(#p8e9538152d)" style="fill: #991b1e"/>
   </g>
   <g id="patch_171">
    <path d="M 258.790856 37.578125 
L 261.370706 37.578125 
L 261.370706 4.303125 
L 258.790856 4.303125 
z
" clip-path="url(#p8e9538152d)" style="fill: #991b1e"/>
   </g>
   <g id="patch_172">
    <path d="M 262.098356 37.853125 
L 264.678206 37.853125 
L 264.678206 4.303125 
L 262.098356 4.303125 
z
" clip-path="url(#p8e9538152d)" style="fill: #991b1e"/>
   </g>
   <g id="patch_173">
    <path d="M 265.405856 38.128125 
L 267.985706 38.128125 
L 267.985706 4.303125 
L 265.405856 4.303125 
z
" clip-path="url(#p8e9538152d)" style="fill: #991b1e"/>
   </g>
   <g id="patch_174">
    <path d="M 268.713356 38.678125 
L 271.293206 38.678125 
L 271.293206 4.303125 
L 268.713356 4.303125 
z
" clip-path="url(#p8e9538152d)" style="fill: #991b1e"/>
   </g>
   <g id="patch_175">
    <path d="M 272.020856 39.503125 
L 274.600706 39.503125 
L 274.600706 4.303125 
L 272.020856 4.303125 
z
" clip-path="url(#p8e9538152d)" style="fill: #991b1e"/>
   </g>
   <g id="patch_176">
    <path d="M 275.328356 43.903125 
L 277.908206 43.903125 
L 277.908206 4.303125 
L 275.328356 4.303125 
z
" clip-path="url(#p8e9538152d)" style="fill: #991b1e"/>
   </g>
   <g id="patch_177">
    <path d="M 278.635856 46.103125 
L 281.215706 46.103125 
L 281.215706 4.303125 
L 278.635856 4.303125 
z
" clip-path="url(#p8e9538152d)" style="fill: #991b1e"/>
   </g>
   <g id="patch_178">
    <path d="M 281.943356 48.578125 
L 284.523206 48.578125 
L 284.523206 4.303125 
L 281.943356 4.303125 
z
" clip-path="url(#p8e9538152d)" style="fill: #991b1e"/>
   </g>
   <g id="patch_179">
    <path d="M 285.250856 51.603125 
L 287.830706 51.603125 
L 287.830706 4.303125 
L 285.250856 4.303125 
z
" clip-path="url(#p8e9538152d)" style="fill: #991b1e"/>
   </g>
   <g id="patch_180">
    <path d="M 288.558356 53.803125 
L 291.138206 53.803125 
L 291.138206 4.303125 
L 288.558356 4.303125 
z
" clip-path="url(#p8e9538152d)" style="fill: #991b1e"/>
   </g>
   <g id="patch_181">
    <path d="M 291.865856 56.828125 
L 294.445706 56.828125 
L 294.445706 4.303125 
L 291.865856 4.303125 
z
" clip-path="url(#p8e9538152d)" style="fill: #991b1e"/>
   </g>
   <g id="patch_182">
    <path d="M 295.173356 59.578125 
L 297.753206 59.578125 
L 297.753206 4.303125 
L 295.173356 4.303125 
z
" clip-path="url(#p8e9538152d)" style="fill: #991b1e"/>
   </g>
   <g id="patch_183">
    <path d="M 298.480856 62.603125 
L 301.060706 62.603125 
L 301.060706 4.303125 
L 298.480856 4.303125 
z
" clip-path="url(#p8e9538152d)" style="fill: #991b1e"/>
   </g>
   <g id="patch_184">
    <path d="M 301.788356 65.903125 
L 304.368206 65.903125 
L 304.368206 4.303125 
L 301.788356 4.303125 
z
" clip-path="url(#p8e9538152d)" style="fill: #991b1e"/>
   </g>
   <g id="patch_185">
    <path d="M 305.095856 67.553125 
L 307.675706 67.553125 
L 307.675706 4.303125 
L 305.095856 4.303125 
z
" clip-path="url(#p8e9538152d)" style="fill: #991b1e"/>
   </g>
   <g id="patch_186">
    <path d="M 308.403356 68.103125 
L 310.983206 68.103125 
L 310.983206 4.303125 
L 308.403356 4.303125 
z
" clip-path="url(#p8e9538152d)" style="fill: #991b1e"/>
   </g>
   <g id="patch_187">
    <path d="M 311.710856 69.203125 
L 314.290706 69.203125 
L 314.290706 4.303125 
L 311.710856 4.303125 
z
" clip-path="url(#p8e9538152d)" style="fill: #991b1e"/>
   </g>
   <g id="patch_188">
    <path d="M 315.018356 70.028125 
L 317.598206 70.028125 
L 317.598206 4.303125 
L 315.018356 4.303125 
z
" clip-path="url(#p8e9538152d)" style="fill: #991b1e"/>
   </g>
   <g id="patch_189">
    <path d="M 318.325856 70.028125 
L 320.905706 70.028125 
L 320.905706 4.303125 
L 318.325856 4.303125 
z
" clip-path="url(#p8e9538152d)" style="fill: #991b1e"/>
   </g>
   <g id="patch_190">
    <path d="M 321.633356 70.028125 
L 324.213206 70.028125 
L 324.213206 4.303125 
L 321.633356 4.303125 
z
" clip-path="url(#p8e9538152d)" style="fill: #991b1e"/>
   </g>
   <g id="patch_191">
    <path d="M 324.940856 71.678125 
L 327.520706 71.678125 
L 327.520706 4.303125 
L 324.940856 4.303125 
z
" clip-path="url(#p8e9538152d)" style="fill: #991b1e"/>
   </g>
   <g id="patch_192">
    <path d="M 328.248356 71.953125 
L 330.828206 71.953125 
L 330.828206 4.303125 
L 328.248356 4.303125 
z
" clip-path="url(#p8e9538152d)" style="fill: #991b1e"/>
   </g>
   <g id="patch_193">
    <path d="M 331.555856 73.603125 
L 334.135706 73.603125 
L 334.135706 4.303125 
L 331.555856 4.303125 
z
" clip-path="url(#p8e9538152d)" style="fill: #991b1e"/>
   </g>
   <g id="patch_194">
    <path d="M 334.863356 73.878125 
L 337.443206 73.878125 
L 337.443206 4.303125 
L 334.863356 4.303125 
z
" clip-path="url(#p8e9538152d)" style="fill: #991b1e"/>
   </g>
   <g id="patch_195">
    <path d="M 338.170856 73.878125 
L 340.750706 73.878125 
L 340.750706 4.303125 
L 338.170856 4.303125 
z
" clip-path="url(#p8e9538152d)" style="fill: #991b1e"/>
   </g>
   <g id="patch_196">
    <path d="M 341.478356 74.153125 
L 344.058206 74.153125 
L 344.058206 4.303125 
L 341.478356 4.303125 
z
" clip-path="url(#p8e9538152d)" style="fill: #991b1e"/>
   </g>
   <g id="patch_197">
    <path d="M 344.785856 85.703125 
L 347.365706 85.703125 
L 347.365706 4.303125 
L 344.785856 4.303125 
z
" clip-path="url(#p8e9538152d)" style="fill: #991b1e"/>
   </g>
   <g id="patch_198">
    <path d="M 348.093356 87.353125 
L 350.673206 87.353125 
L 350.673206 4.303125 
L 348.093356 4.303125 
z
" clip-path="url(#p8e9538152d)" style="fill: #991b1e"/>
   </g>
   <g id="patch_199">
    <path d="M 351.400856 88.178125 
L 353.980706 88.178125 
L 353.980706 4.303125 
L 351.400856 4.303125 
z
" clip-path="url(#p8e9538152d)" style="fill: #991b1e"/>
   </g>
   <g id="patch_200">
    <path d="M 354.708356 95.603125 
L 357.288206 95.603125 
L 357.288206 4.303125 
L 354.708356 4.303125 
z
" clip-path="url(#p8e9538152d)" style="fill: #991b1e"/>
   </g>
   <g id="patch_201">
    <path d="M 358.015856 96.978125 
L 360.595706 96.978125 
L 360.595706 4.303125 
L 358.015856 4.303125 
z
" clip-path="url(#p8e9538152d)" style="fill: #991b1e"/>
   </g>
   <g id="patch_202">
    <path d="M 361.323356 103.303125 
L 363.903206 103.303125 
L 363.903206 4.303125 
L 361.323356 4.303125 
z
" clip-path="url(#p8e9538152d)" style="fill: #991b1e"/>
   </g>
   <g id="matplotlib.axis_1">
    <g id="text_1">
     <text style="font: 9px 'Arial'; text-anchor: middle" x="198.892031" y="113.745156" transform="rotate(-0 198.892031 113.745156)">videos</text>
    </g>
   </g>
   <g id="matplotlib.axis_2">
    <g id="ytick_1">
     <g id="line2d_1">
      <defs>
       <path id="m7bf126b535" d="M 0 0 
L -3 0 
" style="stroke: #1a1a1a; stroke-width: 0.8"/>
      </defs>
      <g>
       <use xlink:href="#m7bf126b535" x="33.517031" y="103.303125" style="fill: #1a1a1a; stroke: #1a1a1a; stroke-width: 0.8"/>
      </g>
     </g>
     <g id="text_2">
      <text style="fill: #1a1a1a; font: 8px 'Arial'; text-anchor: end" x="27.017031" y="106.16625" transform="rotate(-0 27.017031 106.16625)">0</text>
     </g>
    </g>
    <g id="ytick_2">
     <g id="line2d_2">
      <g>
       <use xlink:href="#m7bf126b535" x="33.517031" y="78.553125" style="fill: #1a1a1a; stroke: #1a1a1a; stroke-width: 0.8"/>
      </g>
     </g>
     <g id="text_3">
      <text style="fill: #1a1a1a; font: 8px 'Arial'; text-anchor: end" x="27.017031" y="81.41625" transform="rotate(-0 27.017031 81.41625)">25</text>
     </g>
    </g>
    <g id="ytick_3">
     <g id="line2d_3">
      <g>
       <use xlink:href="#m7bf126b535" x="33.517031" y="53.803125" style="fill: #1a1a1a; stroke: #1a1a1a; stroke-width: 0.8"/>
      </g>
     </g>
     <g id="text_4">
      <text style="fill: #1a1a1a; font: 8px 'Arial'; text-anchor: end" x="27.017031" y="56.66625" transform="rotate(-0 27.017031 56.66625)">50</text>
     </g>
    </g>
    <g id="ytick_4">
     <g id="line2d_4">
      <g>
       <use xlink:href="#m7bf126b535" x="33.517031" y="29.053125" style="fill: #1a1a1a; stroke: #1a1a1a; stroke-width: 0.8"/>
      </g>
     </g>
     <g id="text_5">
      <text style="fill: #1a1a1a; font: 8px 'Arial'; text-anchor: end" x="27.017031" y="31.91625" transform="rotate(-0 27.017031 31.91625)">75</text>
     </g>
    </g>
    <g id="ytick_5">
     <g id="line2d_5">
      <g>
       <use xlink:href="#m7bf126b535" x="33.517031" y="4.303125" style="fill: #1a1a1a; stroke: #1a1a1a; stroke-width: 0.8"/>
      </g>
     </g>
     <g id="text_6">
      <text style="fill: #1a1a1a; font: 8px 'Arial'; text-anchor: end" x="27.017031" y="7.16625" transform="rotate(-0 27.017031 7.16625)">100</text>
     </g>
    </g>
    <g id="text_7">
     <text style="font: 9px 'Arial'; text-anchor: middle" x="7.882031" y="53.803125" transform="rotate(-90 7.882031 53.803125)">% of frames</text>
    </g>
   </g>
   <g id="patch_203">
    <path d="M 33.517031 103.303125 
L 33.517031 4.303125 
" style="fill: none; stroke: #1a1a1a; stroke-width: 0.8; stroke-linejoin: miter; stroke-linecap: square"/>
   </g>
   <g id="patch_204">
    <path d="M 33.517031 103.303125 
L 364.267031 103.303125 
" style="fill: none; stroke: #1a1a1a; stroke-width: 0.8; stroke-linejoin: miter; stroke-linecap: square"/>
   </g>
   <g id="legend_1">
    <g id="patch_205">
     <path d="M 135.082266 133.640625 
L 146.982266 133.640625 
L 146.982266 123.823125 
L 135.082266 123.823125 
z
" style="fill: #bfb3d8"/>
    </g>
    <g id="text_8">
     <text style="font: 8.5px 'Arial'; text-anchor: start" x="151.232266" y="131.558125" transform="rotate(-0 151.232266 131.558125)">correctly labelled</text>
    </g>
    <g id="patch_206">
     <path d="M 228.6075 133.640625 
L 240.5075 133.640625 
L 240.5075 123.823125 
L 228.6075 123.823125 
z
" style="fill: #991b1e"/>
    </g>
    <g id="text_9">
     <text style="font: 8.5px 'Arial'; text-anchor: start" x="244.7575" y="131.558125" transform="rotate(-0 244.7575 131.558125)">error</text>
    </g>
   </g>
  </g>
 </g>
 <defs>
  <clipPath id="p8e9538152d">
   <rect x="33.517031" y="4.303125" width="330.75" height="99"/>
  </clipPath>
 </defs>
</svg>
