<?xml version="1.0" encoding="utf-8" standalone="no"?>
<!DOCTYPE svg PUBLIC "-//W3C//DTD SVG 1.1//EN"
  "http://www.w3.org/Graphics/SVG/1.1/DTD/svg11.dtd">
<svg xmlns:xlink="http://www.w3.org/1999/xlink" width="377.227031pt" height="150.000625pt" viewBox="0 0 377.227031 150.000625" xmlns="http://www.w3.org/2000/svg" version="1.1">
 <metadata>
  <rdf:RDF xmlns:dc="http://purl.org/dc/elements/1.1/" xmlns:cc="http://creativecommons.org/ns#" xmlns:rdf="http://www.w3.org/1999/02/22-rdf-syntax-ns#">
   <cc:Work>
    <dc:type rdf:resource="http://purl.org/dc/dcmitype/StillImage"/>
    <dc:date>2026-05-13T17:51:59.998235</dc:date>
    <dc:format>image/svg+xml</dc:format>
    <dc:creator>
     <cc:Agent>
      <dc:title>Matplotlib v3.9.4, https://matplotlib.org/</dc:title>
     </cc:Agent>
    </dc:creator>
   </cc:Work>
  </rdf:RDF>
 </metadata>
 <defs>
  <style type="text/css">*{stroke-linejoin: round; stroke-linecap: butt}</style>
 </defs>
 <g id="figure_1">
  <g id="patch_1">
   <path d="M 0 150.000625 
L 377.227031 150.000625 
L 377.227031 0 
L 0 0 
z
" style="fill: #ffffff"/>
  </g>
  <g id="axes_1">
   <g id="patch_2">
    <path d="M 39.277031 109.063125 
L 370.027031 109.063125 
L 370.027031 10.063125 
L 39.277031 10.063125 
z
" style="fill: #ffffff"/>
   </g>
   <g id="patch_3">
    <path d="M 39.640856 109.063125 
L 42.220706 109.063125 
L 42.220706 10.063125 
L 39.640856 10.063125 
z
" clip-path="url(#pb67bd239e3)" style="fill: #bfb3d8"/>
   </g>
   <g id="patch_4">
    <path d="M 42.948356 109.063125 
L 45.528206 109.063125 
L 45.528206 10.063125 
L 42.948356 10.063125 
z
" clip-path="url(#pb67bd239e3)" style="fill: #bfb3d8"/>
   </g>
   <g id="patch_5">
    <path d="M 46.255856 109.063125 
L 48.835706 109.063125 
L 48.835706 10.063125 
L 46.255856 10.063125 
z
" clip-path="url(#pb67bd239e3)" style="fill: #bfb3d8"/>
   </g>
   <g id="patch_6">
    <path d="M 49.563356 109.063125 
L 52.143206 109.063125 
L 52.143206 10.063125 
L 49.563356 10.063125 
z
" clip-path="url(#pb67bd239e3)" style="fill: #bfb3d8"/>
   </g>
   <g id="patch_7">
    <path d="M 52.870856 109.063125 
L 55.450706 109.063125 
L 55.450706 10.063125 
L 52.870856 10.063125 
z
" clip-path="url(#pb67bd239e3)" style="fill: #bfb3d8"/>
   </g>
   <g id="patch_8">
    <path d="M 56.178356 109.063125 
L 58.758206 109.063125 
L 58.758206 10.063125 
L 56.178356 10.063125 
z
" clip-path="url(#pb67bd239e3)" style="fill: #bfb3d8"/>
   </g>
   <g id="patch_9">
    <path d="M 59.485856 109.063125 
L 62.065706 109.063125 
L 62.065706 10.063125 
L 59.485856 10.063125 
z
" clip-path="url(#pb67bd239e3)" style="fill: #bfb3d8"/>
   </g>
   <g id="patch_10">
    <path d="M 62.793356 109.063125 
L 65.373206 109.063125 
L 65.373206 10.063125 
L 62.793356 10.063125 
z
" clip-path="url(#pb67bd239e3)" style="fill: #bfb3d8"/>
   </g>
   <g id="patch_11">
    <path d="M 66.100856 109.063125 
L 68.680706 109.063125 
L 68.680706 10.063125 
L 66.100856 10.063125 
z
" clip-path="url(#pb67bd239e3)" style="fill: #bfb3d8"/>
   </g>
   <g id="patch_12">
    <path d="M 69.408356 109.063125 
L 71.988206 109.063125 
L 71.988206 10.063125 
L 69.408356 10.063125 
z
" clip-path="url(#pb67bd239e3)" style="fill: #bfb3d8"/>
   </g>
   <g id="patch_13">
    <path d="M 72.715856 109.063125 
L 75.295706 109.063125 
L 75.295706 10.063125 
L 72.715856 10.063125 
z
" clip-path="url(#pb67bd239e3)" style="fill: #bfb3d8"/>
   </g>
   <g id="patch_14">
    <path d="M 76.023356 109.063125 
L 78.603206 109.063125 
L 78.603206 10.063125 
L 76.023356 10.063125 
z
" clip-path="url(#pb67bd239e3)" style="fill: #bfb3d8"/>
   </g>
   <g id="patch_15">
    <path d="M 79.330856 109.063125 
L 81.910706 109.063125 
L 81.910706 10.063125 
L 79.330856 10.063125 
z
" clip-path="url(#pb67bd239e3)" style="fill: #bfb3d8"/>
   </g>
   <g id="patch_16">
    <path d="M 82.638356 109.063125 
L 85.218206 109.063125 
L 85.218206 10.063125 
L 82.638356 10.063125 
z
" clip-path="url(#pb67bd239e3)" style="fill: #bfb3d8"/>
   </g>
   <g id="patch_17">
    <path d="M 85.945856 109.063125 
L 88.525706 109.063125 
L 88.525706 10.063125 
L 85.945856 10.063125 
z
" clip-path="url(#pb67bd239e3)" style="fill: #bfb3d8"/>
   </g>
   <g id="patch_18">
    <path d="M 89.253356 109.063125 
L 91.833206 109.063125 
L 91.833206 10.063125 
L 89.253356 10.063125 
z
" clip-path="url(#pb67bd239e3)" style="fill: #bfb3d8"/>
   </g>
   <g id="patch_19">
    <path d="M 92.560856 109.063125 
L 95.140706 109.063125 
L 95.140706 10.063125 
L 92.560856 10.063125 
z
" clip-path="url(#pb67bd239e3)" style="fill: #bfb3d8"/>
   </g>
   <g id="patch_20">
    <path d="M 95.868356 109.063125 
L 98.448206 109.063125 
L 98.448206 10.613125 
L 95.868356 10.613125 
z
" clip-path="url(#pb67bd239e3)" style="fill: #bfb3d8"/>
   </g>
   <g id="patch_21">
    <path d="M 99.175856 109.063125 
L 101.755706 109.063125 
L 101.755706 10.888125 
L 99.175856 10.888125 
z
" clip-path="url(#pb67bd239e3)" style="fill: #bfb3d8"/>
   </g>
   <g id="patch_22">
    <path d="M 102.483356 109.063125 
L 105.063206 109.063125 
L 105.063206 12.813125 
L 102.483356 12.813125 
z
" clip-path="url(#pb67bd239e3)" style="fill: #bfb3d8"/>
   </g>
   <g id="patch_23">
    <path d="M 105.790856 109.063125 
L 108.370706 109.063125 
L 108.370706 13.363125 
L 105.790856 13.363125 
z
" clip-path="url(#pb67bd239e3)" style="fill: #bfb3d8"/>
   </g>
   <g id="patch_24">
    <path d="M 109.098356 109.063125 
L 111.678206 109.063125 
L 111.678206 13.638125 
L 109.098356 13.638125 
z
" clip-path="url(#pb67bd239e3)" style="fill: #bfb3d8"/>
   </g>
   <g id="patch_25">
    <path d="M 112.405856 109.063125 
L 114.985706 109.063125 
L 114.985706 15.013125 
L 112.405856 15.013125 
z
" clip-path="url(#pb67bd239e3)" style="fill: #bfb3d8"/>
   </g>
   <g id="patch_26">
    <path d="M 115.713356 109.063125 
L 118.293206 109.063125 
L 118.293206 16.113125 
L 115.713356 16.113125 
z
" clip-path="url(#pb67bd239e3)" style="fill: #bfb3d8"/>
   </g>
   <g id="patch_27">
    <path d="M 119.020856 109.063125 
L 121.600706 109.063125 
L 121.600706 16.388125 
L 119.020856 16.388125 
z
" clip-path="url(#pb67bd239e3)" style="fill: #bfb3d8"/>
   </g>
   <g id="patch_28">
    <path d="M 122.328356 109.063125 
L 124.908206 109.063125 
L 124.908206 16.388125 
L 122.328356 16.388125 
z
" clip-path="url(#pb67bd239e3)" style="fill: #bfb3d8"/>
   </g>
   <g id="patch_29">
    <path d="M 125.635856 109.063125 
L 128.215706 109.063125 
L 128.215706 16.388125 
L 125.635856 16.388125 
z
" clip-path="url(#pb67bd239e3)" style="fill: #bfb3d8"/>
   </g>
   <g id="patch_30">
    <path d="M 128.943356 109.063125 
L 131.523206 109.063125 
L 131.523206 16.938125 
L 128.943356 16.938125 
z
" clip-path="url(#pb67bd239e3)" style="fill: #bfb3d8"/>
   </g>
   <g id="patch_31">
    <path d="M 132.250856 109.063125 
L 134.830706 109.063125 
L 134.830706 17.763125 
L 132.250856 17.763125 
z
" clip-path="url(#pb67bd239e3)" style="fill: #bfb3d8"/>
   </g>
   <g id="patch_32">
    <path d="M 135.558356 109.063125 
L 138.138206 109.063125 
L 138.138206 18.313125 
L 135.558356 18.313125 
z
" clip-path="url(#pb67bd239e3)" style="fill: #bfb3d8"/>
   </g>
   <g id="patch_33">
    <path d="M 138.865856 109.063125 
L 141.445706 109.063125 
L 141.445706 18.313125 
L 138.865856 18.313125 
z
" clip-path="url(#pb67bd239e3)" style="fill: #bfb3d8"/>
   </g>
   <g id="patch_34">
    <path d="M 142.173356 109.063125 
L 144.753206 109.063125 
L 144.753206 19.138125 
L 142.173356 19.138125 
z
" clip-path="url(#pb67bd239e3)" style="fill: #bfb3d8"/>
   </g>
   <g id="patch_35">
    <path d="M 145.480856 109.063125 
L 148.060706 109.063125 
L 148.060706 19.413125 
L 145.480856 19.413125 
z
" clip-path="url(#pb67bd239e3)" style="fill: #bfb3d8"/>
   </g>
   <g id="patch_36">
    <path d="M 148.788356 109.063125 
L 151.368206 109.063125 
L 151.368206 20.513125 
L 148.788356 20.513125 
z
" clip-path="url(#pb67bd239e3)" style="fill: #bfb3d8"/>
   </g>
   <g id="patch_37">
    <path d="M 152.095856 109.063125 
L 154.675706 109.063125 
L 154.675706 23.263125 
L 152.095856 23.263125 
z
" clip-path="url(#pb67bd239e3)" style="fill: #bfb3d8"/>
   </g>
   <g id="patch_38">
    <path d="M 155.403356 109.063125 
L 157.983206 109.063125 
L 157.983206 23.813125 
L 155.403356 23.813125 
z
" clip-path="url(#pb67bd239e3)" style="fill: #bfb3d8"/>
   </g>
   <g id="patch_39">
    <path d="M 158.710856 109.063125 
L 161.290706 109.063125 
L 161.290706 24.913125 
L 158.710856 24.913125 
z
" clip-path="url(#pb67bd239e3)" style="fill: #bfb3d8"/>
   </g>
   <g id="patch_40">
    <path d="M 162.018356 109.063125 
L 164.598206 109.063125 
L 164.598206 25.188125 
L 162.018356 25.188125 
z
" clip-path="url(#pb67bd239e3)" style="fill: #bfb3d8"/>
   </g>
   <g id="patch_41">
    <path d="M 165.325856 109.063125 
L 167.905706 109.063125 
L 167.905706 26.838125 
L 165.325856 26.838125 
z
" clip-path="url(#pb67bd239e3)" style="fill: #bfb3d8"/>
   </g>
   <g id="patch_42">
    <path d="M 168.633356 109.063125 
L 171.213206 109.063125 
L 171.213206 26.838125 
L 168.633356 26.838125 
z
" clip-path="url(#pb67bd239e3)" style="fill: #bfb3d8"/>
   </g>
   <g id="patch_43">
    <path d="M 171.940856 109.063125 
L 174.520706 109.063125 
L 174.520706 27.113125 
L 171.940856 27.113125 
z
" clip-path="url(#pb67bd239e3)" style="fill: #bfb3d8"/>
   </g>
   <g id="patch_44">
    <path d="M 175.248356 109.063125 
L 177.828206 109.063125 
L 177.828206 27.388125 
L 175.248356 27.388125 
z
" clip-path="url(#pb67bd239e3)" style="fill: #bfb3d8"/>
   </g>
   <g id="patch_45">
    <path d="M 178.555856 109.063125 
L 181.135706 109.063125 
L 181.135706 27.663125 
L 178.555856 27.663125 
z
" clip-path="url(#pb67bd239e3)" style="fill: #bfb3d8"/>
   </g>
   <g id="patch_46">
    <path d="M 181.863356 109.063125 
L 184.443206 109.063125 
L 184.443206 27.663125 
L 181.863356 27.663125 
z
" clip-path="url(#pb67bd239e3)" style="fill: #bfb3d8"/>
   </g>
   <g id="patch_47">
    <path d="M 185.170856 109.063125 
L 187.750706 109.063125 
L 187.750706 27.938125 
L 185.170856 27.938125 
z
" clip-path="url(#pb67bd239e3)" style="fill: #bfb3d8"/>
   </g>
   <g id="patch_48">
    <path d="M 188.478356 109.063125 
L 191.058206 109.063125 
L 191.058206 28.488125 
L 188.478356 28.488125 
z
" clip-path="url(#pb67bd239e3)" style="fill: #bfb3d8"/>
   </g>
   <g id="patch_49">
    <path d="M 191.785856 109.063125 
L 194.365706 109.063125 
L 194.365706 29.038125 
L 191.785856 29.038125 
z
" clip-path="url(#pb67bd239e3)" style="fill: #bfb3d8"/>
   </g>
   <g id="patch_50">
    <path d="M 195.093356 109.063125 
L 197.673206 109.063125 
L 197.673206 29.038125 
L 195.093356 29.038125 
z
" clip-path="url(#pb67bd239e3)" style="fill: #bfb3d8"/>
   </g>
   <g id="patch_51">
    <path d="M 198.400856 109.063125 
L 200.980706 109.063125 
L 200.980706 29.863125 
L 198.400856 29.863125 
z
" clip-path="url(#pb67bd239e3)" style="fill: #bfb3d8"/>
   </g>
   <g id="patch_52">
    <path d="M 201.708356 109.063125 
L 204.288206 109.063125 
L 204.288206 32.124406 
L 201.708356 32.124406 
z
" clip-path="url(#pb67bd239e3)" style="fill: #bfb3d8"/>
   </g>
   <g id="patch_53">
    <path d="M 205.015856 109.063125 
L 207.595706 109.063125 
L 207.595706 32.888125 
L 205.015856 32.888125 
z
" clip-path="url(#pb67bd239e3)" style="fill: #bfb3d8"/>
   </g>
   <g id="patch_54">
    <path d="M 208.323356 109.063125 
L 210.903206 109.063125 
L 210.903206 34.813125 
L 208.323356 34.813125 
z
" clip-path="url(#pb67bd239e3)" style="fill: #bfb3d8"/>
   </g>
   <g id="patch_55">
    <path d="M 211.630856 109.063125 
L 214.210706 109.063125 
L 214.210706 35.088125 
L 211.630856 35.088125 
z
" clip-path="url(#pb67bd239e3)" style="fill: #bfb3d8"/>
   </g>
   <g id="patch_56">
    <path d="M 214.938356 109.063125 
L 217.518206 109.063125 
L 217.518206 35.088125 
L 214.938356 35.088125 
z
" clip-path="url(#pb67bd239e3)" style="fill: #bfb3d8"/>
   </g>
   <g id="patch_57">
    <path d="M 218.245856 109.063125 
L 220.825706 109.063125 
L 220.825706 35.913125 
L 218.245856 35.913125 
z
" clip-path="url(#pb67bd239e3)" style="fill: #bfb3d8"/>
   </g>
   <g id="patch_58">
    <path d="M 221.553356 109.063125 
L 224.133206 109.063125 
L 224.133206 35.985131 
L 221.553356 35.985131 
z
" clip-path="url(#pb67bd239e3)" style="fill: #bfb3d8"/>
   </g>
   <g id="patch_59">
    <path d="M 224.860856 109.063125 
L 227.440706 109.063125 
L 227.440706 36.463125 
L 224.860856 36.463125 
z
" clip-path="url(#pb67bd239e3)" style="fill: #bfb3d8"/>
   </g>
   <g id="patch_60">
    <path d="M 228.168356 109.063125 
L 230.748206 109.063125 
L 230.748206 36.463125 
L 228.168356 36.463125 
z
" clip-path="url(#pb67bd239e3)" style="fill: #bfb3d8"/>
   </g>
   <g id="patch_61">
    <path d="M 231.475856 109.063125 
L 234.055706 109.063125 
L 234.055706 36.738125 
L 231.475856 36.738125 
z
" clip-path="url(#pb67bd239e3)" style="fill: #bfb3d8"/>
   </g>
   <g id="patch_62">
    <path d="M 234.783356 109.063125 
L 237.363206 109.063125 
L 237.363206 36.738125 
L 234.783356 36.738125 
z
" clip-path="url(#pb67bd239e3)" style="fill: #bfb3d8"/>
   </g>
   <g id="patch_63">
    <path d="M 238.090856 109.063125 
L 240.670706 109.063125 
L 240.670706 37.288125 
L 238.090856 37.288125 
z
" clip-path="url(#pb67bd239e3)" style="fill: #bfb3d8"/>
   </g>
   <g id="patch_64">
    <path d="M 241.398356 109.063125 
L 243.978206 109.063125 
L 243.978206 38.938125 
L 241.398356 38.938125 
z
" clip-path="url(#pb67bd239e3)" style="fill: #bfb3d8"/>
   </g>
   <g id="patch_65">
    <path d="M 244.705856 109.063125 
L 247.285706 109.063125 
L 247.285706 39.213125 
L 244.705856 39.213125 
z
" clip-path="url(#pb67bd239e3)" style="fill: #bfb3d8"/>
   </g>
   <g id="patch_66">
    <path d="M 248.013356 109.063125 
L 250.593206 109.063125 
L 250.593206 39.763125 
L 248.013356 39.763125 
z
" clip-path="url(#pb67bd239e3)" style="fill: #bfb3d8"/>
   </g>
   <g id="patch_67">
    <path d="M 251.320856 109.063125 
L 253.900706 109.063125 
L 253.900706 40.588125 
L 251.320856 40.588125 
z
" clip-path="url(#pb67bd239e3)" style="fill: #bfb3d8"/>
   </g>
   <g id="patch_68">
    <path d="M 254.628356 109.063125 
L 257.208206 109.063125 
L 257.208206 41.688125 
L 254.628356 41.688125 
z
" clip-path="url(#pb67bd239e3)" style="fill: #bfb3d8"/>
   </g>
   <g id="patch_69">
    <path d="M 257.935856 109.063125 
L 260.515706 109.063125 
L 260.515706 41.963125 
L 257.935856 41.963125 
z
" clip-path="url(#pb67bd239e3)" style="fill: #bfb3d8"/>
   </g>
   <g id="patch_70">
    <path d="M 261.243356 109.063125 
L 263.823206 109.063125 
L 263.823206 42.238125 
L 261.243356 42.238125 
z
" clip-path="url(#pb67bd239e3)" style="fill: #bfb3d8"/>
   </g>
   <g id="patch_71">
    <path d="M 264.550856 109.063125 
L 267.130706 109.063125 
L 267.130706 43.338125 
L 264.550856 43.338125 
z
" clip-path="url(#pb67bd239e3)" style="fill: #bfb3d8"/>
   </g>
   <g id="patch_72">
    <path d="M 267.858356 109.063125 
L 270.438206 109.063125 
L 270.438206 43.613125 
L 267.858356 43.613125 
z
" clip-path="url(#pb67bd239e3)" style="fill: #bfb3d8"/>
   </g>
   <g id="patch_73">
    <path d="M 271.165856 109.063125 
L 273.745706 109.063125 
L 273.745706 43.888125 
L 271.165856 43.888125 
z
" clip-path="url(#pb67bd239e3)" style="fill: #bfb3d8"/>
   </g>
   <g id="patch_74">
    <path d="M 274.473356 109.063125 
L 277.053206 109.063125 
L 277.053206 44.438125 
L 274.473356 44.438125 
z
" clip-path="url(#pb67bd239e3)" style="fill: #bfb3d8"/>
   </g>
   <g id="patch_75">
    <path d="M 277.780856 109.063125 
L 280.360706 109.063125 
L 280.360706 45.263125 
L 277.780856 45.263125 
z
" clip-path="url(#pb67bd239e3)" style="fill: #bfb3d8"/>
   </g>
   <g id="patch_76">
    <path d="M 281.088356 109.063125 
L 283.668206 109.063125 
L 283.668206 49.663125 
L 281.088356 49.663125 
z
" clip-path="url(#pb67bd239e3)" style="fill: #bfb3d8"/>
   </g>
   <g id="patch_77">
    <path d="M 284.395856 109.063125 
L 286.975706 109.063125 
L 286.975706 51.863125 
L 284.395856 51.863125 
z
" clip-path="url(#pb67bd239e3)" style="fill: #bfb3d8"/>
   </g>
   <g id="patch_78">
    <path d="M 287.703356 109.063125 
L 290.283206 109.063125 
L 290.283206 54.338125 
L 287.703356 54.338125 
z
" clip-path="url(#pb67bd239e3)" style="fill: #bfb3d8"/>
   </g>
   <g id="patch_79">
    <path d="M 291.010856 109.063125 
L 293.590706 109.063125 
L 293.590706 57.363125 
L 291.010856 57.363125 
z
" clip-path="url(#pb67bd239e3)" style="fill: #bfb3d8"/>
   </g>
   <g id="patch_80">
    <path d="M 294.318356 109.063125 
L 296.898206 109.063125 
L 296.898206 59.563125 
L 294.318356 59.563125 
z
" clip-path="url(#pb67bd239e3)" style="fill: #bfb3d8"/>
   </g>
   <g id="patch_81">
    <path d="M 297.625856 109.063125 
L 300.205706 109.063125 
L 300.205706 62.588125 
L 297.625856 62.588125 
z
" clip-path="url(#pb67bd239e3)" style="fill: #bfb3d8"/>
   </g>
   <g id="patch_82">
    <path d="M 300.933356 109.063125 
L 303.513206 109.063125 
L 303.513206 65.338125 
L 300.933356 65.338125 
z
" clip-path="url(#pb67bd239e3)" style="fill: #bfb3d8"/>
   </g>
   <g id="patch_83">
    <path d="M 304.240856 109.063125 
L 306.820706 109.063125 
L 306.820706 68.363125 
L 304.240856 68.363125 
z
" clip-path="url(#pb67bd239e3)" style="fill: #bfb3d8"/>
   </g>
   <g id="patch_84">
    <path d="M 307.548356 109.063125 
L 310.128206 109.063125 
L 310.128206 71.663125 
L 307.548356 71.663125 
z
" clip-path="url(#pb67bd239e3)" style="fill: #bfb3d8"/>
   </g>
   <g id="patch_85">
    <path d="M 310.855856 109.063125 
L 313.435706 109.063125 
L 313.435706 73.313125 
L 310.855856 73.313125 
z
" clip-path="url(#pb67bd239e3)" style="fill: #bfb3d8"/>
   </g>
   <g id="patch_86">
    <path d="M 314.163356 109.063125 
L 316.743206 109.063125 
L 316.743206 73.863125 
L 314.163356 73.863125 
z
" clip-path="url(#pb67bd239e3)" style="fill: #bfb3d8"/>
   </g>
   <g id="patch_87">
    <path d="M 317.470856 109.063125 
L 320.050706 109.063125 
L 320.050706 74.963125 
L 317.470856 74.963125 
z
" clip-path="url(#pb67bd239e3)" style="fill: #bfb3d8"/>
   </g>
   <g id="patch_88">
    <path d="M 320.778356 109.063125 
L 323.358206 109.063125 
L 323.358206 75.788125 
L 320.778356 75.788125 
z
" clip-path="url(#pb67bd239e3)" style="fill: #bfb3d8"/>
   </g>
   <g id="patch_89">
    <path d="M 324.085856 109.063125 
L 326.665706 109.063125 
L 326.665706 75.788125 
L 324.085856 75.788125 
z
" clip-path="url(#pb67bd239e3)" style="fill: #bfb3d8"/>
   </g>
   <g id="patch_90">
    <path d="M 327.393356 109.063125 
L 329.973206 109.063125 
L 329.973206 75.788125 
L 327.393356 75.788125 
z
" clip-path="url(#pb67bd239e3)" style="fill: #bfb3d8"/>
   </g>
   <g id="patch_91">
    <path d="M 330.700856 109.063125 
L 333.280706 109.063125 
L 333.280706 77.438125 
L 330.700856 77.438125 
z
" clip-path="url(#pb67bd239e3)" style="fill: #bfb3d8"/>
   </g>
   <g id="patch_92">
    <path d="M 334.008356 109.063125 
L 336.588206 109.063125 
L 336.588206 77.713125 
L 334.008356 77.713125 
z
" clip-path="url(#pb67bd239e3)" style="fill: #bfb3d8"/>
   </g>
   <g id="patch_93">
    <path d="M 337.315856 109.063125 
L 339.895706 109.063125 
L 339.895706 79.363125 
L 337.315856 79.363125 
z
" clip-path="url(#pb67bd239e3)" style="fill: #bfb3d8"/>
   </g>
   <g id="patch_94">
    <path d="M 340.623356 109.063125 
L 343.203206 109.063125 
L 343.203206 79.638125 
L 340.623356 79.638125 
z
" clip-path="url(#pb67bd239e3)" style="fill: #bfb3d8"/>
   </g>
   <g id="patch_95">
    <path d="M 343.930856 109.063125 
L 346.510706 109.063125 
L 346.510706 79.638125 
L 343.930856 79.638125 
z
" clip-path="url(#pb67bd239e3)" style="fill: #bfb3d8"/>
   </g>
   <g id="patch_96">
    <path d="M 347.238356 109.063125 
L 349.818206 109.063125 
L 349.818206 79.913125 
L 347.238356 79.913125 
z
" clip-path="url(#pb67bd239e3)" style="fill: #bfb3d8"/>
   </g>
   <g id="patch_97">
    <path d="M 350.545856 109.063125 
L 353.125706 109.063125 
L 353.125706 91.463125 
L 350.545856 91.463125 
z
" clip-path="url(#pb67bd239e3)" style="fill: #bfb3d8"/>
   </g>
   <g id="patch_98">
    <path d="M 353.853356 109.063125 
L 356.433206 109.063125 
L 356.433206 93.113125 
L 353.853356 93.113125 
z
" clip-path="url(#pb67bd239e3)" style="fill: #bfb3d8"/>
   </g>
   <g id="patch_99">
    <path d="M 357.160856 109.063125 
L 359.740706 109.063125 
L 359.740706 93.938125 
L 357.160856 93.938125 
z
" clip-path="url(#pb67bd239e3)" style="fill: #bfb3d8"/>
   </g>
   <g id="patch_100">
    <path d="M 360.468356 109.063125 
L 363.048206 109.063125 
L 363.048206 101.363125 
L 360.468356 101.363125 
z
" clip-path="url(#pb67bd239e3)" style="fill: #bfb3d8"/>
   </g>
   <g id="patch_101">
    <path d="M 363.775856 109.063125 
L 366.355706 109.063125 
L 366.355706 102.738125 
L 363.775856 102.738125 
z
" clip-path="url(#pb67bd239e3)" style="fill: #bfb3d8"/>
   </g>
   <g id="patch_102">
    <path d="M 367.083356 109.063125 
L 369.663206 109.063125 
L 369.663206 109.063125 
L 367.083356 109.063125 
z
" clip-path="url(#pb67bd239e3)" style="fill: #bfb3d8"/>
   </g>
   <g id="patch_103">
    <path d="M 39.640856 10.063125 
L 42.220706 10.063125 
L 42.220706 10.063125 
L 39.640856 10.063125 
z
" clip-path="url(#pb67bd239e3)" style="fill: #991b1e"/>
   </g>
   <g id="patch_104">
    <path d="M 42.948356 10.063125 
L 45.528206 10.063125 
L 45.528206 10.063125 
L 42.948356 10.063125 
z
" clip-path="url(#pb67bd239e3)" style="fill: #991b1e"/>
   </g>
   <g id="patch_105">
    <path d="M 46.255856 10.063125 
L 48.835706 10.063125 
L 48.835706 10.063125 
L 46.255856 10.063125 
z
" clip-path="url(#pb67bd239e3)" style="fill: #991b1e"/>
   </g>
   <g id="patch_106">
    <path d="M 49.563356 10.063125 
L 52.143206 10.063125 
L 52.143206 10.063125 
L 49.563356 10.063125 
z
" clip-path="url(#pb67bd239e3)" style="fill: #991b1e"/>
   </g>
   <g id="patch_107">
    <path d="M 52.870856 10.063125 
L 55.450706 10.063125 
L 55.450706 10.063125 
L 52.870856 10.063125 
z
" clip-path="url(#pb67bd239e3)" style="fill: #991b1e"/>
   </g>
   <g id="patch_108">
    <path d="M 56.178356 10.063125 
L 58.758206 10.063125 
L 58.758206 10.063125 
L 56.178356 10.063125 
z
" clip-path="url(#pb67bd239e3)" style="fill: #991b1e"/>
   </g>
   <g id="patch_109">
    <path d="M 59.485856 10.063125 
L 62.065706 10.063125 
L 62.065706 10.063125 
L 59.485856 10.063125 
z
" clip-path="url(#pb67bd239e3)" style="fill: #991b1e"/>
   </g>
   <g id="patch_110">
    <path d="M 62.793356 10.063125 
L 65.373206 10.063125 
L 65.373206 10.063125 
L 62.793356 10.063125 
z
" clip-path="url(#pb67bd239e3)" style="fill: #991b1e"/>
   </g>
   <g id="patch_111">
    <path d="M 66.100856 10.063125 
L 68.680706 10.063125 
L 68.680706 10.063125 
L 66.100856 10.063125 
z
" clip-path="url(#pb67bd239e3)" style="fill: #991b1e"/>
   </g>
   <g id="patch_112">
    <path d="M 69.408356 10.063125 
L 71.988206 10.063125 
L 71.988206 10.063125 
L 69.408356 10.063125 
z
" clip-path="url(#pb67bd239e3)" style="fill: #991b1e"/>
   </g>
   <g id="patch_113">
    <path d="M 72.715856 10.063125 
L 75.295706 10.063125 
L 75.295706 10.063125 
L 72.715856 10.063125 
z
" clip-path="url(#pb67bd239e3)" style="fill: #991b1e"/>
   </g>
   <g id="patch_114">
    <path d="M 76.023356 10.063125 
L 78.603206 10.063125 
L 78.603206 10.063125 
L 76.023356 10.063125 
z
" clip-path="url(#pb67bd239e3)" style="fill: #991b1e"/>
   </g>
   <g id="patch_115">
    <path d="M 79.330856 10.063125 
L 81.910706 10.063125 
L 81.910706 10.063125 
L 79.330856 10.063125 
z
" clip-path="url(#pb67bd239e3)" style="fill: #991b1e"/>
   </g>
   <g id="patch_116">
    <path d="M 82.638356 10.063125 
L 85.218206 10.063125 
L 85.218206 10.063125 
L 82.638356 10.063125 
z
" clip-path="url(#pb67bd239e3)" style="fill: #991b1e"/>
   </g>
   <g id="patch_117">
    <path d="M 85.945856 10.063125 
L 88.525706 10.063125 
L 88.525706 10.063125 
L 85.945856 10.063125 
z
" clip-path="url(#pb67bd239e3)" style="fill: #991b1e"/>
   </g>
   <g id="patch_118">
    <path d="M 89.253356 10.063125 
L 91.833206 10.063125 
L 91.833206 10.063125 
L 89.253356 10.063125 
z
" clip-path="url(#pb67bd239e3)" style="fill: #991b1e"/>
   </g>
   <g id="patch_119">
    <path d="M 92.560856 10.063125 
L 95.140706 10.063125 
L 95.140706 10.063125 
L 92.560856 10.063125 
z
" clip-path="url(#pb67bd239e3)" style="fill: #991b1e"/>
   </g>
   <g id="patch_120">
    <path d="M 95.868356 10.613125 
L 98.448206 10.613125 
L 98.448206 10.063125 
L 95.868356 10.063125 
z
" clip-path="url(#pb67bd239e3)" style="fill: #991b1e"/>
   </g>
   <g id="patch_121">
    <path d="M 99.175856 10.888125 
L 101.755706 10.888125 
L 101.755706 10.063125 
L 99.175856 10.063125 
z
" clip-path="url(#pb67bd239e3)" style="fill: #991b1e"/>
   </g>
   <g id="patch_122">
    <path d="M 102.483356 12.813125 
L 105.063206 12.813125 
L 105.063206 10.063125 
L 102.483356 10.063125 
z
" clip-path="url(#pb67bd239e3)" style="fill: #991b1e"/>
   </g>
   <g id="patch_123">
    <path d="M 105.790856 13.363125 
L 108.370706 13.363125 
L 108.370706 10.063125 
L 105.790856 10.063125 
z
" clip-path="url(#pb67bd239e3)" style="fill: #991b1e"/>
   </g>
   <g id="patch_124">
    <path d="M 109.098356 13.638125 
L 111.678206 13.638125 
L 111.678206 10.063125 
L 109.098356 10.063125 
z
" clip-path="url(#pb67bd239e3)" style="fill: #991b1e"/>
   </g>
   <g id="patch_125">
    <path d="M 112.405856 15.013125 
L 114.985706 15.013125 
L 114.985706 10.063125 
L 112.405856 10.063125 
z
" clip-path="url(#pb67bd239e3)" style="fill: #991b1e"/>
   </g>
   <g id="patch_126">
    <path d="M 115.713356 16.113125 
L 118.293206 16.113125 
L 118.293206 10.063125 
L 115.713356 10.063125 
z
" clip-path="url(#pb67bd239e3)" style="fill: #991b1e"/>
   </g>
   <g id="patch_127">
    <path d="M 119.020856 16.388125 
L 121.600706 16.388125 
L 121.600706 10.063125 
L 119.020856 10.063125 
z
" clip-path="url(#pb67bd239e3)" style="fill: #991b1e"/>
   </g>
   <g id="patch_128">
    <path d="M 122.328356 16.388125 
L 124.908206 16.388125 
L 124.908206 10.063125 
L 122.328356 10.063125 
z
" clip-path="url(#pb67bd239e3)" style="fill: #991b1e"/>
   </g>
   <g id="patch_129">
    <path d="M 125.635856 16.388125 
L 128.215706 16.388125 
L 128.215706 10.063125 
L 125.635856 10.063125 
z
" clip-path="url(#pb67bd239e3)" style="fill: #991b1e"/>
   </g>
   <g id="patch_130">
    <path d="M 128.943356 16.938125 
L 131.523206 16.938125 
L 131.523206 10.063125 
L 128.943356 10.063125 
z
" clip-path="url(#pb67bd239e3)" style="fill: #991b1e"/>
   </g>
   <g id="patch_131">
    <path d="M 132.250856 17.763125 
L 134.830706 17.763125 
L 134.830706 10.063125 
L 132.250856 10.063125 
z
" clip-path="url(#pb67bd239e3)" style="fill: #991b1e"/>
   </g>
   <g id="patch_132">
    <path d="M 135.558356 18.313125 
L 138.138206 18.313125 
L 138.138206 10.063125 
L 135.558356 10.063125 
z
" clip-path="url(#pb67bd239e3)" style="fill: #991b1e"/>
   </g>
   <g id="patch_133">
    <path d="M 138.865856 18.313125 
L 141.445706 18.313125 
L 141.445706 10.063125 
L 138.865856 10.063125 
z
" clip-path="url(#pb67bd239e3)" style="fill: #991b1e"/>
   </g>
   <g id="patch_134">
    <path d="M 142.173356 19.138125 
L 144.753206 19.138125 
L 144.753206 10.063125 
L 142.173356 10.063125 
z
" clip-path="url(#pb67bd239e3)" style="fill: #991b1e"/>
   </g>
   <g id="patch_135">
    <path d="M 145.480856 19.413125 
L 148.060706 19.413125 
L 148.060706 10.063125 
L 145.480856 10.063125 
z
" clip-path="url(#pb67bd239e3)" style="fill: #991b1e"/>
   </g>
   <g id="patch_136">
    <path d="M 148.788356 20.513125 
L 151.368206 20.513125 
L 151.368206 10.063125 
L 148.788356 10.063125 
z
" clip-path="url(#pb67bd239e3)" style="fill: #991b1e"/>
   </g>
   <g id="patch_137">
    <path d="M 152.095856 23.263125 
L 154.675706 23.263125 
L 154.675706 10.063125 
L 152.095856 10.063125 
z
" clip-path="url(#pb67bd239e3)" style="fill: #991b1e"/>
   </g>
   <g id="patch_138">
    <path d="M 155.403356 23.813125 
L 157.983206 23.813125 
L 157.983206 10.063125 
L 155.403356 10.063125 
z
" clip-path="url(#pb67bd239e3)" style="fill: #991b1e"/>
   </g>
   <g id="patch_139">
    <path d="M 158.710856 24.913125 
L 161.290706 24.913125 
L 161.290706 10.063125 
L 158.710856 10.063125 
z
" clip-path="url(#pb67bd239e3)" style="fill: #991b1e"/>
   </g>
   <g id="patch_140">
    <path d="M 162.018356 25.188125 
L 164.598206 25.188125 
L 164.598206 10.063125 
L 162.018356 10.063125 
z
" clip-path="url(#pb67bd239e3)" style="fill: #991b1e"/>
   </g>
   <g id="patch_141">
    <path d="M 165.325856 26.838125 
L 167.905706 26.838125 
L 167.905706 10.063125 
L 165.325856 10.063125 
z
" clip-path="url(#pb67bd239e3)" style="fill: #991b1e"/>
   </g>
   <g id="patch_142">
    <path d="M 168.633356 26.838125 
L 171.213206 26.838125 
L 171.213206 10.063125 
L 168.633356 10.063125 
z
" clip-path="url(#pb67bd239e3)" style="fill: #991b1e"/>
   </g>
   <g id="patch_143">
    <path d="M 171.940856 27.113125 
L 174.520706 27.113125 
L 174.520706 10.063125 
L 171.940856 10.063125 
z
" clip-path="url(#pb67bd239e3)" style="fill: #991b1e"/>
   </g>
   <g id="patch_144">
    <path d="M 175.248356 27.388125 
L 177.828206 27.388125 
L 177.828206 10.063125 
L 175.248356 10.063125 
z
" clip-path="url(#pb67bd239e3)" style="fill: #991b1e"/>
   </g>
   <g id="patch_145">
    <path d="M 178.555856 27.663125 
L 181.135706 27.663125 
L 181.135706 10.063125 
L 178.555856 10.063125 
z
" clip-path="url(#pb67bd239e3)" style="fill: #991b1e"/>
   </g>
   <g id="patch_146">
    <path d="M 181.863356 27.663125 
L 184.443206 27.663125 
L 184.443206 10.063125 
L 181.863356 10.063125 
z
" clip-path="url(#pb67bd239e3)" style="fill: #991b1e"/>
   </g>
   <g id="patch_147">
    <path d="M 185.170856 27.938125 
L 187.750706 27.938125 
L 187.750706 10.063125 
L 185.170856 10.063125 
z
" clip-path="url(#pb67bd239e3)" style="fill: #991b1e"/>
   </g>
   <g id="patch_148">
    <path d="M 188.478356 28.488125 
L 191.058206 28.488125 
L 191.058206 10.063125 
L 188.478356 10.063125 
z
" clip-path="url(#pb67bd239e3)" style="fill: #991b1e"/>
   </g>
   <g id="patch_149">
    <path d="M 191.785856 29.038125 
L 194.365706 29.038125 
L 194.365706 10.063125 
L 191.785856 10.063125 
z
" clip-path="url(#pb67bd239e3)" style="fill: #991b1e"/>
   </g>
   <g id="patch_150">
    <path d="M 195.093356 29.038125 
L 197.673206 29.038125 
L 197.673206 10.063125 
L 195.093356 10.063125 
z
" clip-path="url(#pb67bd239e3)" style="fill: #991b1e"/>
   </g>
   <g id="patch_151">
    <path d="M 198.400856 29.863125 
L 200.980706 29.863125 
L 200.980706 10.063125 
L 198.400856 10.063125 
z
" clip-path="url(#pb67bd239e3)" style="fill: #991b1e"/>
   </g>
   <g id="patch_152">
    <path d="M 201.708356 32.124406 
L 204.288206 32.124406 
L 204.288206 10.063125 
L 201.708356 10.063125 
z
" clip-path="url(#pb67bd239e3)" style="fill: #991b1e"/>
   </g>
   <g id="patch_153">
    <path d="M 205.015856 32.888125 
L 207.595706 32.888125 
L 207.595706 10.063125 
L 205.015856 10.063125 
z
" clip-path="url(#pb67bd239e3)" style="fill: #991b1e"/>
   </g>
   <g id="patch_154">
    <path d="M 208.323356 34.813125 
L 210.903206 34.813125 
L 210.903206 10.063125 
L 208.323356 10.063125 
z
" clip-path="url(#pb67bd239e3)" style="fill: #991b1e"/>
   </g>
   <g id="patch_155">
    <path d="M 211.630856 35.088125 
L 214.210706 35.088125 
L 214.210706 10.063125 
L 211.630856 10.063125 
z
" clip-path="url(#pb67bd239e3)" style="fill: #991b1e"/>
   </g>
   <g id="patch_156">
    <path d="M 214.938356 35.088125 
L 217.518206 35.088125 
L 217.518206 10.063125 
L 214.938356 10.063125 
z
" clip-path="url(#pb67bd239e3)" style="fill: #991b1e"/>
   </g>
   <g id="patch_157">
    <path d="M 218.245856 35.913125 
L 220.825706 35.913125 
L 220.825706 10.063125 
L 218.245856 10.063125 
z
" clip-path="url(#pb67bd239e3)" style="fill: #991b1e"/>
   </g>
   <g id="patch_158">
    <path d="M 221.553356 35.985131 
L 224.133206 35.985131 
L 224.133206 10.063125 
L 221.553356 10.063125 
z
" clip-path="url(#pb67bd239e3)" style="fill: #991b1e"/>
   </g>
   <g id="patch_159">
    <path d="M 224.860856 36.463125 
L 227.440706 36.463125 
L 227.440706 10.063125 
L 224.860856 10.063125 
z
" clip-path="url(#pb67bd239e3)" style="fill: #991b1e"/>
   </g>
   <g id="patch_160">
    <path d="M 228.168356 36.463125 
L 230.748206 36.463125 
L 230.748206 10.063125 
L 228.168356 10.063125 
z
" clip-path="url(#pb67bd239e3)" style="fill: #991b1e"/>
   </g>
   <g id="patch_161">
    <path d="M 231.475856 36.738125 
L 234.055706 36.738125 
L 234.055706 10.063125 
L 231.475856 10.063125 
z
" clip-path="url(#pb67bd239e3)" style="fill: #991b1e"/>
   </g>
   <g id="patch_162">
    <path d="M 234.783356 36.738125 
L 237.363206 36.738125 
L 237.363206 10.063125 
L 234.783356 10.063125 
z
" clip-path="url(#pb67bd239e3)" style="fill: #991b1e"/>
   </g>
   <g id="patch_163">
    <path d="M 238.090856 37.288125 
L 240.670706 37.288125 
L 240.670706 10.063125 
L 238.090856 10.063125 
z
" clip-path="url(#pb67bd239e3)" style="fill: #991b1e"/>
   </g>
   <g id="patch_164">
    <path d="M 241.398356 38.938125 
L 243.978206 38.938125 
L 243.978206 10.063125 
L 241.398356 10.063125 
z
" clip-path="url(#pb67bd239e3)" style="fill: #991b1e"/>
   </g>
   <g id="patch_165">
    <path d="M 244.705856 39.213125 
L 247.285706 39.213125 
L 247.285706 10.063125 
L 244.705856 10.063125 
z
" clip-path="url(#pb67bd239e3)" style="fill: #991b1e"/>
   </g>
   <g id="patch_166">
    <path d="M 248.013356 39.763125 
L 250.593206 39.763125 
L 250.593206 10.063125 
L 248.013356 10.063125 
z
" clip-path="url(#pb67bd239e3)" style="fill: #991b1e"/>
   </g>
   <g id="patch_167">
    <path d="M 251.320856 40.588125 
L 253.900706 40.588125 
L 253.900706 10.063125 
L 251.320856 10.063125 
z
" clip-path="url(#pb67bd239e3)" style="fill: #991b1e"/>
   </g>
   <g id="patch_168">
    <path d="M 254.628356 41.688125 
L 257.208206 41.688125 
L 257.208206 10.063125 
L 254.628356 10.063125 
z
" clip-path="url(#pb67bd239e3)" style="fill: #991b1e"/>
   </g>
   <g id="patch_169">
    <path d="M 257.935856 41.963125 
L 260.515706 41.963125 
L 260.515706 10.063125 
L 257.935856 10.063125 
z
" clip-path="url(#pb67bd239e3)" style="fill: #991b1e"/>
   </g>
   <g id="patch_170">
    <path d="M 261.243356 42.238125 
L 263.823206 42.238125 
L 263.823206 10.063125 
L 261.243356 10.063125 
z
" clip-path="url(#pb67bd239e3)" style="fill: #991b1e"/>
   </g>
   <g id="patch_171">
    <path d="M 264.550856 43.338125 
L 267.130706 43.338125 
L 267.130706 10.063125 
L 264.550856 10.063125 
z
" clip-path="url(#pb67bd239e3)" style="fill: #991b1e"/>
   </g>
   <g id="patch_172">
    <path d="M 267.858356 43.613125 
L 270.438206 43.613125 
L 270.438206 10.063125 
L 267.858356 10.063125 
z
" clip-path="url(#pb67bd239e3)" style="fill: #991b1e"/>
   </g>
   <g id="patch_173">
    <path d="M 271.165856 43.888125 
L 273.745706 43.888125 
L 273.745706 10.063125 
L 271.165856 10.063125 
z
" clip-path="url(#pb67bd239e3)" style="fill: #991b1e"/>
   </g>
   <g id="patch_174">
    <path d="M 274.473356 44.438125 
L 277.053206 44.438125 
L 277.053206 10.063125 
L 274.473356 10.063125 
z
" clip-path="url(#pb67bd239e3)" style="fill: #991b1e"/>
   </g>
   <g id="patch_175">
    <path d="M 277.780856 45.263125 
L 280.360706 45.263125 
L 280.360706 10.063125 
L 277.780856 10.063125 
z
" clip-path="url(#pb67bd239e3)" style="fill: #991b1e"/>
   </g>
   <g id="patch_176">
    <path d="M 281.088356 49.663125 
L 283.668206 49.663125 
L 283.668206 10.063125 
L 281.088356 10.063125 
z
" clip-path="url(#pb67bd239e3)" style="fill: #991b1e"/>
   </g>
   <g id="patch_177">
    <path d="M 284.395856 51.863125 
L 286.975706 51.863125 
L 286.975706 10.063125 
L 284.395856 10.063125 
z
" clip-path="url(#pb67bd239e3)" style="fill: #991b1e"/>
   </g>
   <g id="patch_178">
    <path d="M 287.703356 54.338125 
L 290.283206 54.338125 
L 290.283206 10.063125 
L 287.703356 10.063125 
z
" clip-path="url(#pb67bd239e3)" style="fill: #991b1e"/>
   </g>
   <g id="patch_179">
    <path d="M 291.010856 57.363125 
L 293.590706 57.363125 
L 293.590706 10.063125 
L 291.010856 10.063125 
z
" clip-path="url(#pb67bd239e3)" style="fill: #991b1e"/>
   </g>
   <g id="patch_180">
    <path d="M 294.318356 59.563125 
L 296.898206 59.563125 
L 296.898206 10.063125 
L 294.318356 10.063125 
z
" clip-path="url(#pb67bd239e3)" style="fill: #991b1e"/>
   </g>
   <g id="patch_181">
    <path d="M 297.625856 62.588125 
L 300.205706 62.588125 
L 300.205706 10.063125 
L 297.625856 10.063125 
z
" clip-path="url(#pb67bd239e3)" style="fill: #991b1e"/>
   </g>
   <g id="patch_182">
    <path d="M 300.933356 65.338125 
L 303.513206 65.338125 
L 303.513206 10.063125 
L 300.933356 10.063125 
z
" clip-path="url(#pb67bd239e3)" style="fill: #991b1e"/>
   </g>
   <g id="patch_183">
    <path d="M 304.240856 68.363125 
L 306.820706 68.363125 
L 306.820706 10.063125 
L 304.240856 10.063125 
z
" clip-path="url(#pb67bd239e3)" style="fill: #991b1e"/>
   </g>
   <g id="patch_184">
    <path d="M 307.548356 71.663125 
L 310.128206 71.663125 
L 310.128206 10.063125 
L 307.548356 10.063125 
z
" clip-path="url(#pb67bd239e3)" style="fill: #991b1e"/>
   </g>
   <g id="patch_185">
    <path d="M 310.855856 73.313125 
L 313.435706 73.313125 
L 313.435706 10.063125 
L 310.855856 10.063125 
z
" clip-path="url(#pb67bd239e3)" style="fill: #991b1e"/>
   </g>
   <g id="patch_186">
    <path d="M 314.163356 73.863125 
L 316.743206 73.863125 
L 316.743206 10.063125 
L 314.163356 10.063125 
z
" clip-path="url(#pb67bd239e3)" style="fill: #991b1e"/>
   </g>
   <g id="patch_187">
    <path d="M 317.470856 74.963125 
L 320.050706 74.963125 
L 320.050706 10.063125 
L 317.470856 10.063125 
z
" clip-path="url(#pb67bd239e3)" style="fill: #991b1e"/>
   </g>
   <g id="patch_188">
    <path d="M 320.778356 75.788125 
L 323.358206 75.788125 
L 323.358206 10.063125 
L 320.778356 10.063125 
z
" clip-path="url(#pb67bd239e3)" style="fill: #991b1e"/>
   </g>
   <g id="patch_189">
    <path d="M 324.085856 75.788125 
L 326.665706 75.788125 
L 326.665706 10.063125 
L 324.085856 10.063125 
z
" clip-path="url(#pb67bd239e3)" style="fill: #991b1e"/>
   </g>
   <g id="patch_190">
    <path d="M 327.393356 75.788125 
L 329.973206 75.788125 
L 329.973206 10.063125 
L 327.393356 10.063125 
z
" clip-path="url(#pb67bd239e3)" style="fill: #991b1e"/>
   </g>
   <g id="patch_191">
    <path d="M 330.700856 77.438125 
L 333.280706 77.438125 
L 333.280706 10.063125 
L 330.700856 10.063125 
z
" clip-path="url(#pb67bd239e3)" style="fill: #991b1e"/>
   </g>
   <g id="patch_192">
    <path d="M 334.008356 77.713125 
L 336.588206 77.713125 
L 336.588206 10.063125 
L 334.008356 10.063125 
z
" clip-path="url(#pb67bd239e3)" style="fill: #991b1e"/>
   </g>
   <g id="patch_193">
    <path d="M 337.315856 79.363125 
L 339.895706 79.363125 
L 339.895706 10.063125 
L 337.315856 10.063125 
z
" clip-path="url(#pb67bd239e3)" style="fill: #991b1e"/>
   </g>
   <g id="patch_194">
    <path d="M 340.623356 79.638125 
L 343.203206 79.638125 
L 343.203206 10.063125 
L 340.623356 10.063125 
z
" clip-path="url(#pb67bd239e3)" style="fill: #991b1e"/>
   </g>
   <g id="patch_195">
    <path d="M 343.930856 79.638125 
L 346.510706 79.638125 
L 346.510706 10.063125 
L 343.930856 10.063125 
z
" clip-path="url(#pb67bd239e3)" style="fill: #991b1e"/>
   </g>
   <g id="patch_196">
    <path d="M 347.238356 79.913125 
L 349.818206 79.913125 
L 349.818206 10.063125 
L 347.238356 10.063125 
z
" clip-path="url(#pb67bd239e3)" style="fill: #991b1e"/>
   </g>
   <g id="patch_197">
    <path d="M 350.545856 91.463125 
L 353.125706 91.463125 
L 353.125706 10.063125 
L 350.545856 10.063125 
z
" clip-path="url(#pb67bd239e3)" style="fill: #991b1e"/>
   </g>
   <g id="patch_198">
    <path d="M 353.853356 93.113125 
L 356.433206 93.113125 
L 356.433206 10.063125 
L 353.853356 10.063125 
z
" clip-path="url(#pb67bd239e3)" style="fill: #991b1e"/>
   </g>
   <g id="patch_199">
    <path d="M 357.160856 93.938125 
L 359.740706 93.938125 
L 359.740706 10.063125 
L 357.160856 10.063125 
z
" clip-path="url(#pb67bd239e3)" style="fill: #991b1e"/>
   </g>
   <g id="patch_200">
    <path d="M 360.468356 101.363125 
L 363.048206 101.363125 
L 363.048206 10.063125 
L 360.468356 10.063125 
z
" clip-path="url(#pb67bd239e3)" style="fill: #991b1e"/>
   </g>
   <g id="patch_201">
    <path d="M 363.775856 102.738125 
L 366.355706 102.738125 
L 366.355706 10.063125 
L 363.775856 10.063125 
z
" clip-path="url(#pb67bd239e3)" style="fill: #991b1e"/>
   </g>
   <g id="patch_202">
    <path d="M 367.083356 109.063125 
L 369.663206 109.063125 
L 369.663206 10.063125 
L 367.083356 10.063125 
z
" clip-path="url(#pb67bd239e3)" style="fill: #991b1e"/>
   </g>
   <g id="matplotlib.axis_1">
    <g id="text_1">
     <text style="font: 9px 'Arial'; text-anchor: middle" x="204.652031" y="119.505156" transform="rotate(-0 204.652031 119.505156)">videos</text>
    </g>
   </g>
   <g id="matplotlib.axis_2">
    <g id="ytick_1">
     <g id="line2d_1">
      <defs>
       <path id="mabbe3afa51" d="M 0 0 
L -3 0 
" style="stroke: #1a1a1a; stroke-width: 0.8"/>
      </defs>
      <g>
       <use xlink:href="#mabbe3afa51" x="39.277031" y="109.063125" style="fill: #1a1a1a; stroke: #1a1a1a; stroke-width: 0.8"/>
      </g>
     </g>
     <g id="text_2">
      <text style="fill: #1a1a1a; font: 8px 'Arial'; text-anchor: end" x="32.777031" y="111.92625" transform="rotate(-0 32.777031 111.92625)">0</text>
     </g>
    </g>
    <g id="ytick_2">
     <g id="line2d_2">
      <g>
       <use xlink:href="#mabbe3afa51" x="39.277031" y="84.313125" style="fill: #1a1a1a; stroke: #1a1a1a; stroke-width: 0.8"/>
      </g>
     </g>
     <g id="text_3">
      <text style="fill: #1a1a1a; font: 8px 'Arial'; text-anchor: end" x="32.777031" y="87.17625" transform="rotate(-0 32.777031 87.17625)">25</text>
     </g>
    </g>
    <g id="ytick_3">
     <g id="line2d_3">
      <g>
       <use xlink:href="#mabbe3afa51" x="39.277031" y="59.563125" style="fill: #1a1a1a; stroke: #1a1a1a; stroke-width: 0.8"/>
      </g>
     </g>
     <g id="text_4">
      <text style="fill: #1a1a1a; font: 8px 'Arial'; text-anchor: end" x="32.777031" y="62.42625" transform="rotate(-0 32.777031 62.42625)">50</text>
     </g>
    </g>
    <g id="ytick_4">
     <g id="line2d_4">
      <g>
       <use xlink:href="#mabbe3afa51" x="39.277031" y="34.813125" style="fill: #1a1a1a; stroke: #1a1a1a; stroke-width: 0.8"/>
      </g>
     </g>
     <g id="text_5">
      <text style="fill: #1a1a1a; font: 8px 'Arial'; text-anchor: end" x="32.777031" y="37.67625" transform="rotate(-0 32.777031 37.67625)">75</text>
     </g>
    </g>
    <g id="ytick_5">
     <g id="line2d_5">
      <g>
       <use xlink:href="#mabbe3afa51" x="39.277031" y="10.063125" style="fill: #1a1a1a; stroke: #1a1a1a; stroke-width: 0.8"/>
      </g>
     </g>
     <g id="text_6">
      <text style="fill: #1a1a1a; font: 8px 'Arial'; text-anchor: end" x="32.777031" y="12.92625" transform="rotate(-0 32.777031 12.92625)">100</text>
     </g>
    </g>
    <g id="text_7">
     <text style="font: 9px 'Arial'; text-anchor: middle" x="13.642031" y="59.563125" transform="rotate(-90 13.642031 59.563125)">% of frames</text>
    </g>
   </g>
   <g id="patch_203">
    <path d="M 39.277031 109.063125 
L 39.277031 10.063125 
" style="fill: none; stroke: #1a1a1a; stroke-width: 0.8; stroke-linejoin: miter; stroke-linecap: square"/>
   </g>
   <g id="patch_204">
    <path d="M 39.277031 109.063125 
L 370.027031 109.063125 
" style="fill: none; stroke: #1a1a1a; stroke-width: 0.8; stroke-linejoin: miter; stroke-linecap: square"/>
   </g>
   <g id="legend_1">
    <g id="patch_205">
     <path d="M 140.842266 139.400625 
L 152.742266 139.400625 
L 152.742266 129.583125 
L 140.842266 129.583125 
z
" style="fill: #bfb3d8"/>
    </g>
    <g id="text_8">
     <text style="font: 8.5px 'Arial'; text-anchor: start" x="156.992266" y="137.318125" transform="rotate(-0 156.992266 137.318125)">correctly labelled</text>
    </g>
    <g id="patch_206">
     <path d="M 234.3675 139.400625 
L 246.2675 139.400625 
L 246.2675 129.583125 
L 234.3675 129.583125 
z
" style="fill: #991b1e"/>
    </g>
    <g id="text_9">
     <text style="font: 8.5px 'Arial'; text-anchor: start" x="250.5175" y="137.318125" transform="rotate(-0 250.5175 137.318125)">error</text>
    </g>
   </g>
  </g>
 </g>
 <defs>
  <clipPath id="pb67bd239e3">
   <rect x="39.277031" y="10.063125" width="330.75" height="99"/>
  </clipPath>
 </defs>
</svg>
