<?xml version="1.0" encoding="utf-8" standalone="no"?>
<!DOCTYPE svg PUBLIC "-//W3C//DTD SVG 1.1//EN"
  "http://www.w3.org/Graphics/SVG/1.1/DTD/svg11.dtd">
<svg xmlns:xlink="http://www.w3.org/1999/xlink" width="390.29952pt" height="187.800415pt" viewBox="0 0 390.29952 187.800415" xmlns="http://www.w3.org/2000/svg" version="1.1">
 <metadata>
  <rdf:RDF xmlns:dc="http://purl.org/dc/elements/1.1/" xmlns:cc="http://creativecommons.org/ns#" xmlns:rdf="http://www.w3.org/1999/02/22-rdf-syntax-ns#">
   <cc:Work>
    <dc:type rdf:resource="http://purl.org/dc/dcmitype/StillImage"/>
    <dc:date>2026-05-13T18:18:09.521945</dc:date>
    <dc:format>image/svg+xml</dc:format>
    <dc:creator>
     <cc:Agent>
      <dc:title>Matplotlib v3.10.9, https://matplotlib.org/</dc:title>
     </cc:Agent>
    </dc:creator>
   </cc:Work>
  </rdf:RDF>
 </metadata>
 <defs>
  <style type="text/css">*{stroke-linejoin: round; stroke-linecap: butt}</style>
 </defs>
 <g id="figure_1">
  <g id="patch_1">
   <path d="M 0 187.800415 
L 390.29952 187.800415 
L 390.29952 0 
L 0 0 
z
" style="fill: #ffffff"/>
  </g>
  <g id="axes_1">
   <g id="patch_2">
    <path d="M 46.477031 136.970904 
L 375.89952 136.970904 
L 375.89952 17.263125 
L 46.477031 17.263125 
z
" style="fill: #ffffff"/>
   </g>
   <g id="patch_3">
    <path d="M 46.839396 136.970904 
L 49.408891 136.970904 
L 49.408891 17.263125 
L 46.839396 17.263125 
z
" clip-path="url(#p991788aa38)" style="fill: #bfb3d8"/>
   </g>
   <g id="patch_4">
    <path d="M 50.133621 136.970904 
L 52.703116 136.970904 
L 52.703116 17.263125 
L 50.133621 17.263125 
z
" clip-path="url(#p991788aa38)" style="fill: #bfb3d8"/>
   </g>
   <g id="patch_5">
    <path d="M 53.427846 136.970904 
L 55.997341 136.970904 
L 55.997341 17.263125 
L 53.427846 17.263125 
z
" clip-path="url(#p991788aa38)" style="fill: #bfb3d8"/>
   </g>
   <g id="patch_6">
    <path d="M 56.722071 136.970904 
L 59.291566 136.970904 
L 59.291566 17.263125 
L 56.722071 17.263125 
z
" clip-path="url(#p991788aa38)" style="fill: #bfb3d8"/>
   </g>
   <g id="patch_7">
    <path d="M 60.016296 136.970904 
L 62.585791 136.970904 
L 62.585791 17.263125 
L 60.016296 17.263125 
z
" clip-path="url(#p991788aa38)" style="fill: #bfb3d8"/>
   </g>
   <g id="patch_8">
    <path d="M 63.31052 136.970904 
L 65.880016 136.970904 
L 65.880016 17.263125 
L 63.31052 17.263125 
z
" clip-path="url(#p991788aa38)" style="fill: #bfb3d8"/>
   </g>
   <g id="patch_9">
    <path d="M 66.604745 136.970904 
L 69.174241 136.970904 
L 69.174241 17.263125 
L 66.604745 17.263125 
z
" clip-path="url(#p991788aa38)" style="fill: #bfb3d8"/>
   </g>
   <g id="patch_10">
    <path d="M 69.89897 136.970904 
L 72.468466 136.970904 
L 72.468466 17.263125 
L 69.89897 17.263125 
z
" clip-path="url(#p991788aa38)" style="fill: #bfb3d8"/>
   </g>
   <g id="patch_11">
    <path d="M 73.193195 136.970904 
L 75.76269 136.970904 
L 75.76269 17.263125 
L 73.193195 17.263125 
z
" clip-path="url(#p991788aa38)" style="fill: #bfb3d8"/>
   </g>
   <g id="patch_12">
    <path d="M 76.48742 136.970904 
L 79.056915 136.970904 
L 79.056915 17.263125 
L 76.48742 17.263125 
z
" clip-path="url(#p991788aa38)" style="fill: #bfb3d8"/>
   </g>
   <g id="patch_13">
    <path d="M 79.781645 136.970904 
L 82.35114 136.970904 
L 82.35114 17.263125 
L 79.781645 17.263125 
z
" clip-path="url(#p991788aa38)" style="fill: #bfb3d8"/>
   </g>
   <g id="patch_14">
    <path d="M 83.07587 136.970904 
L 85.645365 136.970904 
L 85.645365 17.263125 
L 83.07587 17.263125 
z
" clip-path="url(#p991788aa38)" style="fill: #bfb3d8"/>
   </g>
   <g id="patch_15">
    <path d="M 86.370095 136.970904 
L 88.93959 136.970904 
L 88.93959 17.263125 
L 86.370095 17.263125 
z
" clip-path="url(#p991788aa38)" style="fill: #bfb3d8"/>
   </g>
   <g id="patch_16">
    <path d="M 89.66432 136.970904 
L 92.233815 136.970904 
L 92.233815 17.263125 
L 89.66432 17.263125 
z
" clip-path="url(#p991788aa38)" style="fill: #bfb3d8"/>
   </g>
   <g id="patch_17">
    <path d="M 92.958544 136.970904 
L 95.52804 136.970904 
L 95.52804 17.263125 
L 92.958544 17.263125 
z
" clip-path="url(#p991788aa38)" style="fill: #bfb3d8"/>
   </g>
   <g id="patch_18">
    <path d="M 96.252769 136.970904 
L 98.822265 136.970904 
L 98.822265 17.263125 
L 96.252769 17.263125 
z
" clip-path="url(#p991788aa38)" style="fill: #bfb3d8"/>
   </g>
   <g id="patch_19">
    <path d="M 99.546994 136.970904 
L 102.11649 136.970904 
L 102.11649 17.263125 
L 99.546994 17.263125 
z
" clip-path="url(#p991788aa38)" style="fill: #bfb3d8"/>
   </g>
   <g id="patch_20">
    <path d="M 102.841219 136.970904 
L 105.410714 136.970904 
L 105.410714 17.928168 
L 102.841219 17.928168 
z
" clip-path="url(#p991788aa38)" style="fill: #bfb3d8"/>
   </g>
   <g id="patch_21">
    <path d="M 106.135444 136.970904 
L 108.704939 136.970904 
L 108.704939 18.26069 
L 106.135444 18.26069 
z
" clip-path="url(#p991788aa38)" style="fill: #bfb3d8"/>
   </g>
   <g id="patch_22">
    <path d="M 109.429669 136.970904 
L 111.999164 136.970904 
L 111.999164 20.588341 
L 109.429669 20.588341 
z
" clip-path="url(#p991788aa38)" style="fill: #bfb3d8"/>
   </g>
   <g id="patch_23">
    <path d="M 112.723894 136.970904 
L 115.293389 136.970904 
L 115.293389 21.253384 
L 112.723894 21.253384 
z
" clip-path="url(#p991788aa38)" style="fill: #bfb3d8"/>
   </g>
   <g id="patch_24">
    <path d="M 116.018119 136.970904 
L 118.587614 136.970904 
L 118.587614 21.585906 
L 116.018119 21.585906 
z
" clip-path="url(#p991788aa38)" style="fill: #bfb3d8"/>
   </g>
   <g id="patch_25">
    <path d="M 119.312344 136.970904 
L 121.881839 136.970904 
L 121.881839 23.248514 
L 119.312344 23.248514 
z
" clip-path="url(#p991788aa38)" style="fill: #bfb3d8"/>
   </g>
   <g id="patch_26">
    <path d="M 122.606568 136.970904 
L 125.176064 136.970904 
L 125.176064 24.5786 
L 122.606568 24.5786 
z
" clip-path="url(#p991788aa38)" style="fill: #bfb3d8"/>
   </g>
   <g id="patch_27">
    <path d="M 125.900793 136.970904 
L 128.470289 136.970904 
L 128.470289 24.911122 
L 125.900793 24.911122 
z
" clip-path="url(#p991788aa38)" style="fill: #bfb3d8"/>
   </g>
   <g id="patch_28">
    <path d="M 129.195018 136.970904 
L 131.764514 136.970904 
L 131.764514 24.911122 
L 129.195018 24.911122 
z
" clip-path="url(#p991788aa38)" style="fill: #bfb3d8"/>
   </g>
   <g id="patch_29">
    <path d="M 132.489243 136.970904 
L 135.058738 136.970904 
L 135.058738 24.911122 
L 132.489243 24.911122 
z
" clip-path="url(#p991788aa38)" style="fill: #bfb3d8"/>
   </g>
   <g id="patch_30">
    <path d="M 135.783468 136.970904 
L 138.352963 136.970904 
L 138.352963 25.576165 
L 135.783468 25.576165 
z
" clip-path="url(#p991788aa38)" style="fill: #bfb3d8"/>
   </g>
   <g id="patch_31">
    <path d="M 139.077693 136.970904 
L 141.647188 136.970904 
L 141.647188 26.57373 
L 139.077693 26.57373 
z
" clip-path="url(#p991788aa38)" style="fill: #bfb3d8"/>
   </g>
   <g id="patch_32">
    <path d="M 142.371918 136.970904 
L 144.941413 136.970904 
L 144.941413 27.238773 
L 142.371918 27.238773 
z
" clip-path="url(#p991788aa38)" style="fill: #bfb3d8"/>
   </g>
   <g id="patch_33">
    <path d="M 145.666143 136.970904 
L 148.235638 136.970904 
L 148.235638 27.238773 
L 145.666143 27.238773 
z
" clip-path="url(#p991788aa38)" style="fill: #bfb3d8"/>
   </g>
   <g id="patch_34">
    <path d="M 148.960368 136.970904 
L 151.529863 136.970904 
L 151.529863 28.236338 
L 148.960368 28.236338 
z
" clip-path="url(#p991788aa38)" style="fill: #bfb3d8"/>
   </g>
   <g id="patch_35">
    <path d="M 152.254592 136.970904 
L 154.824088 136.970904 
L 154.824088 28.56886 
L 152.254592 28.56886 
z
" clip-path="url(#p991788aa38)" style="fill: #bfb3d8"/>
   </g>
   <g id="patch_36">
    <path d="M 155.548817 136.970904 
L 158.118313 136.970904 
L 158.118313 29.898946 
L 155.548817 29.898946 
z
" clip-path="url(#p991788aa38)" style="fill: #bfb3d8"/>
   </g>
   <g id="patch_37">
    <path d="M 158.843042 136.970904 
L 161.412538 136.970904 
L 161.412538 33.224162 
L 158.843042 33.224162 
z
" clip-path="url(#p991788aa38)" style="fill: #bfb3d8"/>
   </g>
   <g id="patch_38">
    <path d="M 162.137267 136.970904 
L 164.706762 136.970904 
L 164.706762 33.889205 
L 162.137267 33.889205 
z
" clip-path="url(#p991788aa38)" style="fill: #bfb3d8"/>
   </g>
   <g id="patch_39">
    <path d="M 165.431492 136.970904 
L 168.000987 136.970904 
L 168.000987 35.219292 
L 165.431492 35.219292 
z
" clip-path="url(#p991788aa38)" style="fill: #bfb3d8"/>
   </g>
   <g id="patch_40">
    <path d="M 168.725717 136.970904 
L 171.295212 136.970904 
L 171.295212 35.551813 
L 168.725717 35.551813 
z
" clip-path="url(#p991788aa38)" style="fill: #bfb3d8"/>
   </g>
   <g id="patch_41">
    <path d="M 172.019942 136.970904 
L 174.589437 136.970904 
L 174.589437 37.546943 
L 172.019942 37.546943 
z
" clip-path="url(#p991788aa38)" style="fill: #bfb3d8"/>
   </g>
   <g id="patch_42">
    <path d="M 175.314167 136.970904 
L 177.883662 136.970904 
L 177.883662 37.546943 
L 175.314167 37.546943 
z
" clip-path="url(#p991788aa38)" style="fill: #bfb3d8"/>
   </g>
   <g id="patch_43">
    <path d="M 178.608391 136.970904 
L 181.177887 136.970904 
L 181.177887 37.879465 
L 178.608391 37.879465 
z
" clip-path="url(#p991788aa38)" style="fill: #bfb3d8"/>
   </g>
   <g id="patch_44">
    <path d="M 181.902616 136.970904 
L 184.472112 136.970904 
L 184.472112 38.211986 
L 181.902616 38.211986 
z
" clip-path="url(#p991788aa38)" style="fill: #bfb3d8"/>
   </g>
   <g id="patch_45">
    <path d="M 185.196841 136.970904 
L 187.766337 136.970904 
L 187.766337 38.544508 
L 185.196841 38.544508 
z
" clip-path="url(#p991788aa38)" style="fill: #bfb3d8"/>
   </g>
   <g id="patch_46">
    <path d="M 188.491066 136.970904 
L 191.060562 136.970904 
L 191.060562 38.544508 
L 188.491066 38.544508 
z
" clip-path="url(#p991788aa38)" style="fill: #bfb3d8"/>
   </g>
   <g id="patch_47">
    <path d="M 191.785291 136.970904 
L 194.354786 136.970904 
L 194.354786 38.87703 
L 191.785291 38.87703 
z
" clip-path="url(#p991788aa38)" style="fill: #bfb3d8"/>
   </g>
   <g id="patch_48">
    <path d="M 195.079516 136.970904 
L 197.649011 136.970904 
L 197.649011 39.542073 
L 195.079516 39.542073 
z
" clip-path="url(#p991788aa38)" style="fill: #bfb3d8"/>
   </g>
   <g id="patch_49">
    <path d="M 198.373741 136.970904 
L 200.943236 136.970904 
L 200.943236 40.207116 
L 198.373741 40.207116 
z
" clip-path="url(#p991788aa38)" style="fill: #bfb3d8"/>
   </g>
   <g id="patch_50">
    <path d="M 201.667966 136.970904 
L 204.237461 136.970904 
L 204.237461 40.207116 
L 201.667966 40.207116 
z
" clip-path="url(#p991788aa38)" style="fill: #bfb3d8"/>
   </g>
   <g id="patch_51">
    <path d="M 204.962191 136.970904 
L 207.531686 136.970904 
L 207.531686 41.204681 
L 204.962191 41.204681 
z
" clip-path="url(#p991788aa38)" style="fill: #bfb3d8"/>
   </g>
   <g id="patch_52">
    <path d="M 208.256415 136.970904 
L 210.825911 136.970904 
L 210.825911 43.938953 
L 208.256415 43.938953 
z
" clip-path="url(#p991788aa38)" style="fill: #bfb3d8"/>
   </g>
   <g id="patch_53">
    <path d="M 211.55064 136.970904 
L 214.120136 136.970904 
L 214.120136 44.862419 
L 211.55064 44.862419 
z
" clip-path="url(#p991788aa38)" style="fill: #bfb3d8"/>
   </g>
   <g id="patch_54">
    <path d="M 214.844865 136.970904 
L 217.414361 136.970904 
L 217.414361 47.19007 
L 214.844865 47.19007 
z
" clip-path="url(#p991788aa38)" style="fill: #bfb3d8"/>
   </g>
   <g id="patch_55">
    <path d="M 218.13909 136.970904 
L 220.708586 136.970904 
L 220.708586 47.522591 
L 218.13909 47.522591 
z
" clip-path="url(#p991788aa38)" style="fill: #bfb3d8"/>
   </g>
   <g id="patch_56">
    <path d="M 221.433315 136.970904 
L 224.00281 136.970904 
L 224.00281 47.522591 
L 221.433315 47.522591 
z
" clip-path="url(#p991788aa38)" style="fill: #bfb3d8"/>
   </g>
   <g id="patch_57">
    <path d="M 224.72754 136.970904 
L 227.297035 136.970904 
L 227.297035 48.520156 
L 224.72754 48.520156 
z
" clip-path="url(#p991788aa38)" style="fill: #bfb3d8"/>
   </g>
   <g id="patch_58">
    <path d="M 228.021765 136.970904 
L 230.59126 136.970904 
L 230.59126 48.607223 
L 228.021765 48.607223 
z
" clip-path="url(#p991788aa38)" style="fill: #bfb3d8"/>
   </g>
   <g id="patch_59">
    <path d="M 231.31599 136.970904 
L 233.885485 136.970904 
L 233.885485 49.185199 
L 231.31599 49.185199 
z
" clip-path="url(#p991788aa38)" style="fill: #bfb3d8"/>
   </g>
   <g id="patch_60">
    <path d="M 234.610215 136.970904 
L 237.17971 136.970904 
L 237.17971 49.185199 
L 234.610215 49.185199 
z
" clip-path="url(#p991788aa38)" style="fill: #bfb3d8"/>
   </g>
   <g id="patch_61">
    <path d="M 237.904439 136.970904 
L 240.473935 136.970904 
L 240.473935 49.517721 
L 237.904439 49.517721 
z
" clip-path="url(#p991788aa38)" style="fill: #bfb3d8"/>
   </g>
   <g id="patch_62">
    <path d="M 241.198664 136.970904 
L 243.76816 136.970904 
L 243.76816 49.517721 
L 241.198664 49.517721 
z
" clip-path="url(#p991788aa38)" style="fill: #bfb3d8"/>
   </g>
   <g id="patch_63">
    <path d="M 244.492889 136.970904 
L 247.062385 136.970904 
L 247.062385 50.182764 
L 244.492889 50.182764 
z
" clip-path="url(#p991788aa38)" style="fill: #bfb3d8"/>
   </g>
   <g id="patch_64">
    <path d="M 247.787114 136.970904 
L 250.35661 136.970904 
L 250.35661 52.177894 
L 247.787114 52.177894 
z
" clip-path="url(#p991788aa38)" style="fill: #bfb3d8"/>
   </g>
   <g id="patch_65">
    <path d="M 251.081339 136.970904 
L 253.650834 136.970904 
L 253.650834 52.510416 
L 251.081339 52.510416 
z
" clip-path="url(#p991788aa38)" style="fill: #bfb3d8"/>
   </g>
   <g id="patch_66">
    <path d="M 254.375564 136.970904 
L 256.945059 136.970904 
L 256.945059 53.175459 
L 254.375564 53.175459 
z
" clip-path="url(#p991788aa38)" style="fill: #bfb3d8"/>
   </g>
   <g id="patch_67">
    <path d="M 257.669789 136.970904 
L 260.239284 136.970904 
L 260.239284 54.173024 
L 257.669789 54.173024 
z
" clip-path="url(#p991788aa38)" style="fill: #bfb3d8"/>
   </g>
   <g id="patch_68">
    <path d="M 260.964014 136.970904 
L 263.533509 136.970904 
L 263.533509 55.50311 
L 260.964014 55.50311 
z
" clip-path="url(#p991788aa38)" style="fill: #bfb3d8"/>
   </g>
   <g id="patch_69">
    <path d="M 264.258239 136.970904 
L 266.827734 136.970904 
L 266.827734 55.835632 
L 264.258239 55.835632 
z
" clip-path="url(#p991788aa38)" style="fill: #bfb3d8"/>
   </g>
   <g id="patch_70">
    <path d="M 267.552463 136.970904 
L 270.121959 136.970904 
L 270.121959 56.168153 
L 267.552463 56.168153 
z
" clip-path="url(#p991788aa38)" style="fill: #bfb3d8"/>
   </g>
   <g id="patch_71">
    <path d="M 270.846688 136.970904 
L 273.416184 136.970904 
L 273.416184 57.49824 
L 270.846688 57.49824 
z
" clip-path="url(#p991788aa38)" style="fill: #bfb3d8"/>
   </g>
   <g id="patch_72">
    <path d="M 274.140913 136.970904 
L 276.710409 136.970904 
L 276.710409 57.830761 
L 274.140913 57.830761 
z
" clip-path="url(#p991788aa38)" style="fill: #bfb3d8"/>
   </g>
   <g id="patch_73">
    <path d="M 277.435138 136.970904 
L 280.004634 136.970904 
L 280.004634 58.163283 
L 277.435138 58.163283 
z
" clip-path="url(#p991788aa38)" style="fill: #bfb3d8"/>
   </g>
   <g id="patch_74">
    <path d="M 280.729363 136.970904 
L 283.298858 136.970904 
L 283.298858 58.828326 
L 280.729363 58.828326 
z
" clip-path="url(#p991788aa38)" style="fill: #bfb3d8"/>
   </g>
   <g id="patch_75">
    <path d="M 284.023588 136.970904 
L 286.593083 136.970904 
L 286.593083 59.825891 
L 284.023588 59.825891 
z
" clip-path="url(#p991788aa38)" style="fill: #bfb3d8"/>
   </g>
   <g id="patch_76">
    <path d="M 287.317813 136.970904 
L 289.887308 136.970904 
L 289.887308 65.146237 
L 287.317813 65.146237 
z
" clip-path="url(#p991788aa38)" style="fill: #bfb3d8"/>
   </g>
   <g id="patch_77">
    <path d="M 290.612038 136.970904 
L 293.181533 136.970904 
L 293.181533 67.80641 
L 290.612038 67.80641 
z
" clip-path="url(#p991788aa38)" style="fill: #bfb3d8"/>
   </g>
   <g id="patch_78">
    <path d="M 293.906263 136.970904 
L 296.475758 136.970904 
L 296.475758 70.799104 
L 293.906263 70.799104 
z
" clip-path="url(#p991788aa38)" style="fill: #bfb3d8"/>
   </g>
   <g id="patch_79">
    <path d="M 297.200487 136.970904 
L 299.769983 136.970904 
L 299.769983 74.456842 
L 297.200487 74.456842 
z
" clip-path="url(#p991788aa38)" style="fill: #bfb3d8"/>
   </g>
   <g id="patch_80">
    <path d="M 300.494712 136.970904 
L 303.064208 136.970904 
L 303.064208 77.117015 
L 300.494712 77.117015 
z
" clip-path="url(#p991788aa38)" style="fill: #bfb3d8"/>
   </g>
   <g id="patch_81">
    <path d="M 303.788937 136.970904 
L 306.358433 136.970904 
L 306.358433 80.774752 
L 303.788937 80.774752 
z
" clip-path="url(#p991788aa38)" style="fill: #bfb3d8"/>
   </g>
   <g id="patch_82">
    <path d="M 307.083162 136.970904 
L 309.652658 136.970904 
L 309.652658 84.099968 
L 307.083162 84.099968 
z
" clip-path="url(#p991788aa38)" style="fill: #bfb3d8"/>
   </g>
   <g id="patch_83">
    <path d="M 310.377387 136.970904 
L 312.946882 136.970904 
L 312.946882 87.757706 
L 310.377387 87.757706 
z
" clip-path="url(#p991788aa38)" style="fill: #bfb3d8"/>
   </g>
   <g id="patch_84">
    <path d="M 313.671612 136.970904 
L 316.241107 136.970904 
L 316.241107 91.747965 
L 313.671612 91.747965 
z
" clip-path="url(#p991788aa38)" style="fill: #bfb3d8"/>
   </g>
   <g id="patch_85">
    <path d="M 316.965837 136.970904 
L 319.535332 136.970904 
L 319.535332 93.743095 
L 316.965837 93.743095 
z
" clip-path="url(#p991788aa38)" style="fill: #bfb3d8"/>
   </g>
   <g id="patch_86">
    <path d="M 320.260062 136.970904 
L 322.829557 136.970904 
L 322.829557 94.408138 
L 320.260062 94.408138 
z
" clip-path="url(#p991788aa38)" style="fill: #bfb3d8"/>
   </g>
   <g id="patch_87">
    <path d="M 323.554287 136.970904 
L 326.123782 136.970904 
L 326.123782 95.738225 
L 323.554287 95.738225 
z
" clip-path="url(#p991788aa38)" style="fill: #bfb3d8"/>
   </g>
   <g id="patch_88">
    <path d="M 326.848511 136.970904 
L 329.418007 136.970904 
L 329.418007 96.735789 
L 326.848511 96.735789 
z
" clip-path="url(#p991788aa38)" style="fill: #bfb3d8"/>
   </g>
   <g id="patch_89">
    <path d="M 330.142736 136.970904 
L 332.712232 136.970904 
L 332.712232 96.735789 
L 330.142736 96.735789 
z
" clip-path="url(#p991788aa38)" style="fill: #bfb3d8"/>
   </g>
   <g id="patch_90">
    <path d="M 333.436961 136.970904 
L 336.006457 136.970904 
L 336.006457 96.735789 
L 333.436961 96.735789 
z
" clip-path="url(#p991788aa38)" style="fill: #bfb3d8"/>
   </g>
   <g id="patch_91">
    <path d="M 336.731186 136.970904 
L 339.300681 136.970904 
L 339.300681 98.730919 
L 336.731186 98.730919 
z
" clip-path="url(#p991788aa38)" style="fill: #bfb3d8"/>
   </g>
   <g id="patch_92">
    <path d="M 340.025411 136.970904 
L 342.594906 136.970904 
L 342.594906 99.063441 
L 340.025411 99.063441 
z
" clip-path="url(#p991788aa38)" style="fill: #bfb3d8"/>
   </g>
   <g id="patch_93">
    <path d="M 343.319636 136.970904 
L 345.889131 136.970904 
L 345.889131 101.05857 
L 343.319636 101.05857 
z
" clip-path="url(#p991788aa38)" style="fill: #bfb3d8"/>
   </g>
   <g id="patch_94">
    <path d="M 346.613861 136.970904 
L 349.183356 136.970904 
L 349.183356 101.391092 
L 346.613861 101.391092 
z
" clip-path="url(#p991788aa38)" style="fill: #bfb3d8"/>
   </g>
   <g id="patch_95">
    <path d="M 349.908086 136.970904 
L 352.477581 136.970904 
L 352.477581 101.391092 
L 349.908086 101.391092 
z
" clip-path="url(#p991788aa38)" style="fill: #bfb3d8"/>
   </g>
   <g id="patch_96">
    <path d="M 353.202311 136.970904 
L 355.771806 136.970904 
L 355.771806 101.723614 
L 353.202311 101.723614 
z
" clip-path="url(#p991788aa38)" style="fill: #bfb3d8"/>
   </g>
   <g id="patch_97">
    <path d="M 356.496535 136.970904 
L 359.066031 136.970904 
L 359.066031 115.689521 
L 356.496535 115.689521 
z
" clip-path="url(#p991788aa38)" style="fill: #bfb3d8"/>
   </g>
   <g id="patch_98">
    <path d="M 359.79076 136.970904 
L 362.360256 136.970904 
L 362.360256 117.684651 
L 359.79076 117.684651 
z
" clip-path="url(#p991788aa38)" style="fill: #bfb3d8"/>
   </g>
   <g id="patch_99">
    <path d="M 363.084985 136.970904 
L 365.654481 136.970904 
L 365.654481 118.682216 
L 363.084985 118.682216 
z
" clip-path="url(#p991788aa38)" style="fill: #bfb3d8"/>
   </g>
   <g id="patch_100">
    <path d="M 366.37921 136.970904 
L 368.948705 136.970904 
L 368.948705 127.660299 
L 366.37921 127.660299 
z
" clip-path="url(#p991788aa38)" style="fill: #bfb3d8"/>
   </g>
   <g id="patch_101">
    <path d="M 369.673435 136.970904 
L 372.24293 136.970904 
L 372.24293 129.322907 
L 369.673435 129.322907 
z
" clip-path="url(#p991788aa38)" style="fill: #bfb3d8"/>
   </g>
   <g id="patch_102">
    <path d="M 372.96766 136.970904 
L 375.537155 136.970904 
L 375.537155 136.970904 
L 372.96766 136.970904 
z
" clip-path="url(#p991788aa38)" style="fill: #bfb3d8"/>
   </g>
   <g id="patch_103">
    <path d="M 46.839396 17.263125 
L 49.408891 17.263125 
L 49.408891 17.263125 
L 46.839396 17.263125 
z
" clip-path="url(#p991788aa38)" style="fill: #991b1e"/>
   </g>
   <g id="patch_104">
    <path d="M 50.133621 17.263125 
L 52.703116 17.263125 
L 52.703116 17.263125 
L 50.133621 17.263125 
z
" clip-path="url(#p991788aa38)" style="fill: #991b1e"/>
   </g>
   <g id="patch_105">
    <path d="M 53.427846 17.263125 
L 55.997341 17.263125 
L 55.997341 17.263125 
L 53.427846 17.263125 
z
" clip-path="url(#p991788aa38)" style="fill: #991b1e"/>
   </g>
   <g id="patch_106">
    <path d="M 56.722071 17.263125 
L 59.291566 17.263125 
L 59.291566 17.263125 
L 56.722071 17.263125 
z
" clip-path="url(#p991788aa38)" style="fill: #991b1e"/>
   </g>
   <g id="patch_107">
    <path d="M 60.016296 17.263125 
L 62.585791 17.263125 
L 62.585791 17.263125 
L 60.016296 17.263125 
z
" clip-path="url(#p991788aa38)" style="fill: #991b1e"/>
   </g>
   <g id="patch_108">
    <path d="M 63.31052 17.263125 
L 65.880016 17.263125 
L 65.880016 17.263125 
L 63.31052 17.263125 
z
" clip-path="url(#p991788aa38)" style="fill: #991b1e"/>
   </g>
   <g id="patch_109">
    <path d="M 66.604745 17.263125 
L 69.174241 17.263125 
L 69.174241 17.263125 
L 66.604745 17.263125 
z
" clip-path="url(#p991788aa38)" style="fill: #991b1e"/>
   </g>
   <g id="patch_110">
    <path d="M 69.89897 17.263125 
L 72.468466 17.263125 
L 72.468466 17.263125 
L 69.89897 17.263125 
z
" clip-path="url(#p991788aa38)" style="fill: #991b1e"/>
   </g>
   <g id="patch_111">
    <path d="M 73.193195 17.263125 
L 75.76269 17.263125 
L 75.76269 17.263125 
L 73.193195 17.263125 
z
" clip-path="url(#p991788aa38)" style="fill: #991b1e"/>
   </g>
   <g id="patch_112">
    <path d="M 76.48742 17.263125 
L 79.056915 17.263125 
L 79.056915 17.263125 
L 76.48742 17.263125 
z
" clip-path="url(#p991788aa38)" style="fill: #991b1e"/>
   </g>
   <g id="patch_113">
    <path d="M 79.781645 17.263125 
L 82.35114 17.263125 
L 82.35114 17.263125 
L 79.781645 17.263125 
z
" clip-path="url(#p991788aa38)" style="fill: #991b1e"/>
   </g>
   <g id="patch_114">
    <path d="M 83.07587 17.263125 
L 85.645365 17.263125 
L 85.645365 17.263125 
L 83.07587 17.263125 
z
" clip-path="url(#p991788aa38)" style="fill: #991b1e"/>
   </g>
   <g id="patch_115">
    <path d="M 86.370095 17.263125 
L 88.93959 17.263125 
L 88.93959 17.263125 
L 86.370095 17.263125 
z
" clip-path="url(#p991788aa38)" style="fill: #991b1e"/>
   </g>
   <g id="patch_116">
    <path d="M 89.66432 17.263125 
L 92.233815 17.263125 
L 92.233815 17.263125 
L 89.66432 17.263125 
z
" clip-path="url(#p991788aa38)" style="fill: #991b1e"/>
   </g>
   <g id="patch_117">
    <path d="M 92.958544 17.263125 
L 95.52804 17.263125 
L 95.52804 17.263125 
L 92.958544 17.263125 
z
" clip-path="url(#p991788aa38)" style="fill: #991b1e"/>
   </g>
   <g id="patch_118">
    <path d="M 96.252769 17.263125 
L 98.822265 17.263125 
L 98.822265 17.263125 
L 96.252769 17.263125 
z
" clip-path="url(#p991788aa38)" style="fill: #991b1e"/>
   </g>
   <g id="patch_119">
    <path d="M 99.546994 17.263125 
L 102.11649 17.263125 
L 102.11649 17.263125 
L 99.546994 17.263125 
z
" clip-path="url(#p991788aa38)" style="fill: #991b1e"/>
   </g>
   <g id="patch_120">
    <path d="M 102.841219 17.928168 
L 105.410714 17.928168 
L 105.410714 17.263125 
L 102.841219 17.263125 
z
" clip-path="url(#p991788aa38)" style="fill: #991b1e"/>
   </g>
   <g id="patch_121">
    <path d="M 106.135444 18.26069 
L 108.704939 18.26069 
L 108.704939 17.263125 
L 106.135444 17.263125 
z
" clip-path="url(#p991788aa38)" style="fill: #991b1e"/>
   </g>
   <g id="patch_122">
    <path d="M 109.429669 20.588341 
L 111.999164 20.588341 
L 111.999164 17.263125 
L 109.429669 17.263125 
z
" clip-path="url(#p991788aa38)" style="fill: #991b1e"/>
   </g>
   <g id="patch_123">
    <path d="M 112.723894 21.253384 
L 115.293389 21.253384 
L 115.293389 17.263125 
L 112.723894 17.263125 
z
" clip-path="url(#p991788aa38)" style="fill: #991b1e"/>
   </g>
   <g id="patch_124">
    <path d="M 116.018119 21.585906 
L 118.587614 21.585906 
L 118.587614 17.263125 
L 116.018119 17.263125 
z
" clip-path="url(#p991788aa38)" style="fill: #991b1e"/>
   </g>
   <g id="patch_125">
    <path d="M 119.312344 23.248514 
L 121.881839 23.248514 
L 121.881839 17.263125 
L 119.312344 17.263125 
z
" clip-path="url(#p991788aa38)" style="fill: #991b1e"/>
   </g>
   <g id="patch_126">
    <path d="M 122.606568 24.5786 
L 125.176064 24.5786 
L 125.176064 17.263125 
L 122.606568 17.263125 
z
" clip-path="url(#p991788aa38)" style="fill: #991b1e"/>
   </g>
   <g id="patch_127">
    <path d="M 125.900793 24.911122 
L 128.470289 24.911122 
L 128.470289 17.263125 
L 125.900793 17.263125 
z
" clip-path="url(#p991788aa38)" style="fill: #991b1e"/>
   </g>
   <g id="patch_128">
    <path d="M 129.195018 24.911122 
L 131.764514 24.911122 
L 131.764514 17.263125 
L 129.195018 17.263125 
z
" clip-path="url(#p991788aa38)" style="fill: #991b1e"/>
   </g>
   <g id="patch_129">
    <path d="M 132.489243 24.911122 
L 135.058738 24.911122 
L 135.058738 17.263125 
L 132.489243 17.263125 
z
" clip-path="url(#p991788aa38)" style="fill: #991b1e"/>
   </g>
   <g id="patch_130">
    <path d="M 135.783468 25.576165 
L 138.352963 25.576165 
L 138.352963 17.263125 
L 135.783468 17.263125 
z
" clip-path="url(#p991788aa38)" style="fill: #991b1e"/>
   </g>
   <g id="patch_131">
    <path d="M 139.077693 26.57373 
L 141.647188 26.57373 
L 141.647188 17.263125 
L 139.077693 17.263125 
z
" clip-path="url(#p991788aa38)" style="fill: #991b1e"/>
   </g>
   <g id="patch_132">
    <path d="M 142.371918 27.238773 
L 144.941413 27.238773 
L 144.941413 17.263125 
L 142.371918 17.263125 
z
" clip-path="url(#p991788aa38)" style="fill: #991b1e"/>
   </g>
   <g id="patch_133">
    <path d="M 145.666143 27.238773 
L 148.235638 27.238773 
L 148.235638 17.263125 
L 145.666143 17.263125 
z
" clip-path="url(#p991788aa38)" style="fill: #991b1e"/>
   </g>
   <g id="patch_134">
    <path d="M 148.960368 28.236338 
L 151.529863 28.236338 
L 151.529863 17.263125 
L 148.960368 17.263125 
z
" clip-path="url(#p991788aa38)" style="fill: #991b1e"/>
   </g>
   <g id="patch_135">
    <path d="M 152.254592 28.56886 
L 154.824088 28.56886 
L 154.824088 17.263125 
L 152.254592 17.263125 
z
" clip-path="url(#p991788aa38)" style="fill: #991b1e"/>
   </g>
   <g id="patch_136">
    <path d="M 155.548817 29.898946 
L 158.118313 29.898946 
L 158.118313 17.263125 
L 155.548817 17.263125 
z
" clip-path="url(#p991788aa38)" style="fill: #991b1e"/>
   </g>
   <g id="patch_137">
    <path d="M 158.843042 33.224162 
L 161.412538 33.224162 
L 161.412538 17.263125 
L 158.843042 17.263125 
z
" clip-path="url(#p991788aa38)" style="fill: #991b1e"/>
   </g>
   <g id="patch_138">
    <path d="M 162.137267 33.889205 
L 164.706762 33.889205 
L 164.706762 17.263125 
L 162.137267 17.263125 
z
" clip-path="url(#p991788aa38)" style="fill: #991b1e"/>
   </g>
   <g id="patch_139">
    <path d="M 165.431492 35.219292 
L 168.000987 35.219292 
L 168.000987 17.263125 
L 165.431492 17.263125 
z
" clip-path="url(#p991788aa38)" style="fill: #991b1e"/>
   </g>
   <g id="patch_140">
    <path d="M 168.725717 35.551813 
L 171.295212 35.551813 
L 171.295212 17.263125 
L 168.725717 17.263125 
z
" clip-path="url(#p991788aa38)" style="fill: #991b1e"/>
   </g>
   <g id="patch_141">
    <path d="M 172.019942 37.546943 
L 174.589437 37.546943 
L 174.589437 17.263125 
L 172.019942 17.263125 
z
" clip-path="url(#p991788aa38)" style="fill: #991b1e"/>
   </g>
   <g id="patch_142">
    <path d="M 175.314167 37.546943 
L 177.883662 37.546943 
L 177.883662 17.263125 
L 175.314167 17.263125 
z
" clip-path="url(#p991788aa38)" style="fill: #991b1e"/>
   </g>
   <g id="patch_143">
    <path d="M 178.608391 37.879465 
L 181.177887 37.879465 
L 181.177887 17.263125 
L 178.608391 17.263125 
z
" clip-path="url(#p991788aa38)" style="fill: #991b1e"/>
   </g>
   <g id="patch_144">
    <path d="M 181.902616 38.211986 
L 184.472112 38.211986 
L 184.472112 17.263125 
L 181.902616 17.263125 
z
" clip-path="url(#p991788aa38)" style="fill: #991b1e"/>
   </g>
   <g id="patch_145">
    <path d="M 185.196841 38.544508 
L 187.766337 38.544508 
L 187.766337 17.263125 
L 185.196841 17.263125 
z
" clip-path="url(#p991788aa38)" style="fill: #991b1e"/>
   </g>
   <g id="patch_146">
    <path d="M 188.491066 38.544508 
L 191.060562 38.544508 
L 191.060562 17.263125 
L 188.491066 17.263125 
z
" clip-path="url(#p991788aa38)" style="fill: #991b1e"/>
   </g>
   <g id="patch_147">
    <path d="M 191.785291 38.87703 
L 194.354786 38.87703 
L 194.354786 17.263125 
L 191.785291 17.263125 
z
" clip-path="url(#p991788aa38)" style="fill: #991b1e"/>
   </g>
   <g id="patch_148">
    <path d="M 195.079516 39.542073 
L 197.649011 39.542073 
L 197.649011 17.263125 
L 195.079516 17.263125 
z
" clip-path="url(#p991788aa38)" style="fill: #991b1e"/>
   </g>
   <g id="patch_149">
    <path d="M 198.373741 40.207116 
L 200.943236 40.207116 
L 200.943236 17.263125 
L 198.373741 17.263125 
z
" clip-path="url(#p991788aa38)" style="fill: #991b1e"/>
   </g>
   <g id="patch_150">
    <path d="M 201.667966 40.207116 
L 204.237461 40.207116 
L 204.237461 17.263125 
L 201.667966 17.263125 
z
" clip-path="url(#p991788aa38)" style="fill: #991b1e"/>
   </g>
   <g id="patch_151">
    <path d="M 204.962191 41.204681 
L 207.531686 41.204681 
L 207.531686 17.263125 
L 204.962191 17.263125 
z
" clip-path="url(#p991788aa38)" style="fill: #991b1e"/>
   </g>
   <g id="patch_152">
    <path d="M 208.256415 43.938953 
L 210.825911 43.938953 
L 210.825911 17.263125 
L 208.256415 17.263125 
z
" clip-path="url(#p991788aa38)" style="fill: #991b1e"/>
   </g>
   <g id="patch_153">
    <path d="M 211.55064 44.862419 
L 214.120136 44.862419 
L 214.120136 17.263125 
L 211.55064 17.263125 
z
" clip-path="url(#p991788aa38)" style="fill: #991b1e"/>
   </g>
   <g id="patch_154">
    <path d="M 214.844865 47.19007 
L 217.414361 47.19007 
L 217.414361 17.263125 
L 214.844865 17.263125 
z
" clip-path="url(#p991788aa38)" style="fill: #991b1e"/>
   </g>
   <g id="patch_155">
    <path d="M 218.13909 47.522591 
L 220.708586 47.522591 
L 220.708586 17.263125 
L 218.13909 17.263125 
z
" clip-path="url(#p991788aa38)" style="fill: #991b1e"/>
   </g>
   <g id="patch_156">
    <path d="M 221.433315 47.522591 
L 224.00281 47.522591 
L 224.00281 17.263125 
L 221.433315 17.263125 
z
" clip-path="url(#p991788aa38)" style="fill: #991b1e"/>
   </g>
   <g id="patch_157">
    <path d="M 224.72754 48.520156 
L 227.297035 48.520156 
L 227.297035 17.263125 
L 224.72754 17.263125 
z
" clip-path="url(#p991788aa38)" style="fill: #991b1e"/>
   </g>
   <g id="patch_158">
    <path d="M 228.021765 48.607223 
L 230.59126 48.607223 
L 230.59126 17.263125 
L 228.021765 17.263125 
z
" clip-path="url(#p991788aa38)" style="fill: #991b1e"/>
   </g>
   <g id="patch_159">
    <path d="M 231.31599 49.185199 
L 233.885485 49.185199 
L 233.885485 17.263125 
L 231.31599 17.263125 
z
" clip-path="url(#p991788aa38)" style="fill: #991b1e"/>
   </g>
   <g id="patch_160">
    <path d="M 234.610215 49.185199 
L 237.17971 49.185199 
L 237.17971 17.263125 
L 234.610215 17.263125 
z
" clip-path="url(#p991788aa38)" style="fill: #991b1e"/>
   </g>
   <g id="patch_161">
    <path d="M 237.904439 49.517721 
L 240.473935 49.517721 
L 240.473935 17.263125 
L 237.904439 17.263125 
z
" clip-path="url(#p991788aa38)" style="fill: #991b1e"/>
   </g>
   <g id="patch_162">
    <path d="M 241.198664 49.517721 
L 243.76816 49.517721 
L 243.76816 17.263125 
L 241.198664 17.263125 
z
" clip-path="url(#p991788aa38)" style="fill: #991b1e"/>
   </g>
   <g id="patch_163">
    <path d="M 244.492889 50.182764 
L 247.062385 50.182764 
L 247.062385 17.263125 
L 244.492889 17.263125 
z
" clip-path="url(#p991788aa38)" style="fill: #991b1e"/>
   </g>
   <g id="patch_164">
    <path d="M 247.787114 52.177894 
L 250.35661 52.177894 
L 250.35661 17.263125 
L 247.787114 17.263125 
z
" clip-path="url(#p991788aa38)" style="fill: #991b1e"/>
   </g>
   <g id="patch_165">
    <path d="M 251.081339 52.510416 
L 253.650834 52.510416 
L 253.650834 17.263125 
L 251.081339 17.263125 
z
" clip-path="url(#p991788aa38)" style="fill: #991b1e"/>
   </g>
   <g id="patch_166">
    <path d="M 254.375564 53.175459 
L 256.945059 53.175459 
L 256.945059 17.263125 
L 254.375564 17.263125 
z
" clip-path="url(#p991788aa38)" style="fill: #991b1e"/>
   </g>
   <g id="patch_167">
    <path d="M 257.669789 54.173024 
L 260.239284 54.173024 
L 260.239284 17.263125 
L 257.669789 17.263125 
z
" clip-path="url(#p991788aa38)" style="fill: #991b1e"/>
   </g>
   <g id="patch_168">
    <path d="M 260.964014 55.50311 
L 263.533509 55.50311 
L 263.533509 17.263125 
L 260.964014 17.263125 
z
" clip-path="url(#p991788aa38)" style="fill: #991b1e"/>
   </g>
   <g id="patch_169">
    <path d="M 264.258239 55.835632 
L 266.827734 55.835632 
L 266.827734 17.263125 
L 264.258239 17.263125 
z
" clip-path="url(#p991788aa38)" style="fill: #991b1e"/>
   </g>
   <g id="patch_170">
    <path d="M 267.552463 56.168153 
L 270.121959 56.168153 
L 270.121959 17.263125 
L 267.552463 17.263125 
z
" clip-path="url(#p991788aa38)" style="fill: #991b1e"/>
   </g>
   <g id="patch_171">
    <path d="M 270.846688 57.49824 
L 273.416184 57.49824 
L 273.416184 17.263125 
L 270.846688 17.263125 
z
" clip-path="url(#p991788aa38)" style="fill: #991b1e"/>
   </g>
   <g id="patch_172">
    <path d="M 274.140913 57.830761 
L 276.710409 57.830761 
L 276.710409 17.263125 
L 274.140913 17.263125 
z
" clip-path="url(#p991788aa38)" style="fill: #991b1e"/>
   </g>
   <g id="patch_173">
    <path d="M 277.435138 58.163283 
L 280.004634 58.163283 
L 280.004634 17.263125 
L 277.435138 17.263125 
z
" clip-path="url(#p991788aa38)" style="fill: #991b1e"/>
   </g>
   <g id="patch_174">
    <path d="M 280.729363 58.828326 
L 283.298858 58.828326 
L 283.298858 17.263125 
L 280.729363 17.263125 
z
" clip-path="url(#p991788aa38)" style="fill: #991b1e"/>
   </g>
   <g id="patch_175">
    <path d="M 284.023588 59.825891 
L 286.593083 59.825891 
L 286.593083 17.263125 
L 284.023588 17.263125 
z
" clip-path="url(#p991788aa38)" style="fill: #991b1e"/>
   </g>
   <g id="patch_176">
    <path d="M 287.317813 65.146237 
L 289.887308 65.146237 
L 289.887308 17.263125 
L 287.317813 17.263125 
z
" clip-path="url(#p991788aa38)" style="fill: #991b1e"/>
   </g>
   <g id="patch_177">
    <path d="M 290.612038 67.80641 
L 293.181533 67.80641 
L 293.181533 17.263125 
L 290.612038 17.263125 
z
" clip-path="url(#p991788aa38)" style="fill: #991b1e"/>
   </g>
   <g id="patch_178">
    <path d="M 293.906263 70.799104 
L 296.475758 70.799104 
L 296.475758 17.263125 
L 293.906263 17.263125 
z
" clip-path="url(#p991788aa38)" style="fill: #991b1e"/>
   </g>
   <g id="patch_179">
    <path d="M 297.200487 74.456842 
L 299.769983 74.456842 
L 299.769983 17.263125 
L 297.200487 17.263125 
z
" clip-path="url(#p991788aa38)" style="fill: #991b1e"/>
   </g>
   <g id="patch_180">
    <path d="M 300.494712 77.117015 
L 303.064208 77.117015 
L 303.064208 17.263125 
L 300.494712 17.263125 
z
" clip-path="url(#p991788aa38)" style="fill: #991b1e"/>
   </g>
   <g id="patch_181">
    <path d="M 303.788937 80.774752 
L 306.358433 80.774752 
L 306.358433 17.263125 
L 303.788937 17.263125 
z
" clip-path="url(#p991788aa38)" style="fill: #991b1e"/>
   </g>
   <g id="patch_182">
    <path d="M 307.083162 84.099968 
L 309.652658 84.099968 
L 309.652658 17.263125 
L 307.083162 17.263125 
z
" clip-path="url(#p991788aa38)" style="fill: #991b1e"/>
   </g>
   <g id="patch_183">
    <path d="M 310.377387 87.757706 
L 312.946882 87.757706 
L 312.946882 17.263125 
L 310.377387 17.263125 
z
" clip-path="url(#p991788aa38)" style="fill: #991b1e"/>
   </g>
   <g id="patch_184">
    <path d="M 313.671612 91.747965 
L 316.241107 91.747965 
L 316.241107 17.263125 
L 313.671612 17.263125 
z
" clip-path="url(#p991788aa38)" style="fill: #991b1e"/>
   </g>
   <g id="patch_185">
    <path d="M 316.965837 93.743095 
L 319.535332 93.743095 
L 319.535332 17.263125 
L 316.965837 17.263125 
z
" clip-path="url(#p991788aa38)" style="fill: #991b1e"/>
   </g>
   <g id="patch_186">
    <path d="M 320.260062 94.408138 
L 322.829557 94.408138 
L 322.829557 17.263125 
L 320.260062 17.263125 
z
" clip-path="url(#p991788aa38)" style="fill: #991b1e"/>
   </g>
   <g id="patch_187">
    <path d="M 323.554287 95.738225 
L 326.123782 95.738225 
L 326.123782 17.263125 
L 323.554287 17.263125 
z
" clip-path="url(#p991788aa38)" style="fill: #991b1e"/>
   </g>
   <g id="patch_188">
    <path d="M 326.848511 96.735789 
L 329.418007 96.735789 
L 329.418007 17.263125 
L 326.848511 17.263125 
z
" clip-path="url(#p991788aa38)" style="fill: #991b1e"/>
   </g>
   <g id="patch_189">
    <path d="M 330.142736 96.735789 
L 332.712232 96.735789 
L 332.712232 17.263125 
L 330.142736 17.263125 
z
" clip-path="url(#p991788aa38)" style="fill: #991b1e"/>
   </g>
   <g id="patch_190">
    <path d="M 333.436961 96.735789 
L 336.006457 96.735789 
L 336.006457 17.263125 
L 333.436961 17.263125 
z
" clip-path="url(#p991788aa38)" style="fill: #991b1e"/>
   </g>
   <g id="patch_191">
    <path d="M 336.731186 98.730919 
L 339.300681 98.730919 
L 339.300681 17.263125 
L 336.731186 17.263125 
z
" clip-path="url(#p991788aa38)" style="fill: #991b1e"/>
   </g>
   <g id="patch_192">
    <path d="M 340.025411 99.063441 
L 342.594906 99.063441 
L 342.594906 17.263125 
L 340.025411 17.263125 
z
" clip-path="url(#p991788aa38)" style="fill: #991b1e"/>
   </g>
   <g id="patch_193">
    <path d="M 343.319636 101.05857 
L 345.889131 101.05857 
L 345.889131 17.263125 
L 343.319636 17.263125 
z
" clip-path="url(#p991788aa38)" style="fill: #991b1e"/>
   </g>
   <g id="patch_194">
    <path d="M 346.613861 101.391092 
L 349.183356 101.391092 
L 349.183356 17.263125 
L 346.613861 17.263125 
z
" clip-path="url(#p991788aa38)" style="fill: #991b1e"/>
   </g>
   <g id="patch_195">
    <path d="M 349.908086 101.391092 
L 352.477581 101.391092 
L 352.477581 17.263125 
L 349.908086 17.263125 
z
" clip-path="url(#p991788aa38)" style="fill: #991b1e"/>
   </g>
   <g id="patch_196">
    <path d="M 353.202311 101.723614 
L 355.771806 101.723614 
L 355.771806 17.263125 
L 353.202311 17.263125 
z
" clip-path="url(#p991788aa38)" style="fill: #991b1e"/>
   </g>
   <g id="patch_197">
    <path d="M 356.496535 115.689521 
L 359.066031 115.689521 
L 359.066031 17.263125 
L 356.496535 17.263125 
z
" clip-path="url(#p991788aa38)" style="fill: #991b1e"/>
   </g>
   <g id="patch_198">
    <path d="M 359.79076 117.684651 
L 362.360256 117.684651 
L 362.360256 17.263125 
L 359.79076 17.263125 
z
" clip-path="url(#p991788aa38)" style="fill: #991b1e"/>
   </g>
   <g id="patch_199">
    <path d="M 363.084985 118.682216 
L 365.654481 118.682216 
L 365.654481 17.263125 
L 363.084985 17.263125 
z
" clip-path="url(#p991788aa38)" style="fill: #991b1e"/>
   </g>
   <g id="patch_200">
    <path d="M 366.37921 127.660299 
L 368.948705 127.660299 
L 368.948705 17.263125 
L 366.37921 17.263125 
z
" clip-path="url(#p991788aa38)" style="fill: #991b1e"/>
   </g>
   <g id="patch_201">
    <path d="M 369.673435 129.322907 
L 372.24293 129.322907 
L 372.24293 17.263125 
L 369.673435 17.263125 
z
" clip-path="url(#p991788aa38)" style="fill: #991b1e"/>
   </g>
   <g id="patch_202">
    <path d="M 372.96766 136.970904 
L 375.537155 136.970904 
L 375.537155 17.263125 
L 372.96766 17.263125 
z
" clip-path="url(#p991788aa38)" style="fill: #991b1e"/>
   </g>
   <g id="matplotlib.axis_1">
    <g id="text_1">
     <text style="font-size: 9px; font-family: 'Arial'; text-anchor: middle" x="211.188276" y="147.412935" transform="rotate(-0 211.188276 147.412935)">videos</text>
    </g>
   </g>
   <g id="matplotlib.axis_2">
    <g id="ytick_1">
     <g id="line2d_1">
      <defs>
       <path id="me71194dfde" d="M 0 0 
L -3 0 
" style="stroke: #1a1a1a; stroke-width: 0.8"/>
      </defs>
      <g>
       <use xlink:href="#me71194dfde" x="46.477031" y="136.970904" style="fill: #1a1a1a; stroke: #1a1a1a; stroke-width: 0.8"/>
      </g>
     </g>
     <g id="text_2">
      <text style="font-size: 8px; font-family: 'Arial'; text-anchor: end; fill: #1a1a1a" x="39.977031" y="139.834029" transform="rotate(-0 39.977031 139.834029)">0</text>
     </g>
    </g>
    <g id="ytick_2">
     <g id="line2d_2">
      <g>
       <use xlink:href="#me71194dfde" x="46.477031" y="107.043959" style="fill: #1a1a1a; stroke: #1a1a1a; stroke-width: 0.8"/>
      </g>
     </g>
     <g id="text_3">
      <text style="font-size: 8px; font-family: 'Arial'; text-anchor: end; fill: #1a1a1a" x="39.977031" y="109.907084" transform="rotate(-0 39.977031 109.907084)">25</text>
     </g>
    </g>
    <g id="ytick_3">
     <g id="line2d_3">
      <g>
       <use xlink:href="#me71194dfde" x="46.477031" y="77.117015" style="fill: #1a1a1a; stroke: #1a1a1a; stroke-width: 0.8"/>
      </g>
     </g>
     <g id="text_4">
      <text style="font-size: 8px; font-family: 'Arial'; text-anchor: end; fill: #1a1a1a" x="39.977031" y="79.98014" transform="rotate(-0 39.977031 79.98014)">50</text>
     </g>
    </g>
    <g id="ytick_4">
     <g id="line2d_4">
      <g>
       <use xlink:href="#me71194dfde" x="46.477031" y="47.19007" style="fill: #1a1a1a; stroke: #1a1a1a; stroke-width: 0.8"/>
      </g>
     </g>
     <g id="text_5">
      <text style="font-size: 8px; font-family: 'Arial'; text-anchor: end; fill: #1a1a1a" x="39.977031" y="50.053195" transform="rotate(-0 39.977031 50.053195)">75</text>
     </g>
    </g>
    <g id="ytick_5">
     <g id="line2d_5">
      <g>
       <use xlink:href="#me71194dfde" x="46.477031" y="17.263125" style="fill: #1a1a1a; stroke: #1a1a1a; stroke-width: 0.8"/>
      </g>
     </g>
     <g id="text_6">
      <text style="font-size: 8px; font-family: 'Arial'; text-anchor: end; fill: #1a1a1a" x="39.977031" y="20.12625" transform="rotate(-0 39.977031 20.12625)">100</text>
     </g>
    </g>
    <g id="text_7">
     <text style="font-size: 9px; font-family: 'Arial'; text-anchor: middle" x="20.842031" y="77.117015" transform="rotate(-90 20.842031 77.117015)">% of frames</text>
    </g>
   </g>
   <g id="patch_203">
    <path d="M 46.477031 136.970904 
L 46.477031 17.263125 
" style="fill: none; stroke: #1a1a1a; stroke-width: 0.8; stroke-linejoin: miter; stroke-linecap: square"/>
   </g>
   <g id="patch_204">
    <path d="M 46.477031 136.970904 
L 375.89952 136.970904 
" style="fill: none; stroke: #1a1a1a; stroke-width: 0.8; stroke-linejoin: miter; stroke-linecap: square"/>
   </g>
   <g id="legend_1">
    <g id="patch_205">
     <path d="M 147.37851 170.000415 
L 159.27851 170.000415 
L 159.27851 160.182915 
L 147.37851 160.182915 
z
" style="fill: #bfb3d8"/>
    </g>
    <g id="text_8">
     <text style="font-size: 8.5px; font-family: 'Arial'; text-anchor: start" x="163.52851" y="167.917915" transform="rotate(-0 163.52851 167.917915)">correctly labelled</text>
    </g>
    <g id="patch_206">
     <path d="M 240.903744 170.000415 
L 252.803744 170.000415 
L 252.803744 160.182915 
L 240.903744 160.182915 
z
" style="fill: #991b1e"/>
    </g>
    <g id="text_9">
     <text style="font-size: 8.5px; font-family: 'Arial'; text-anchor: start" x="257.053744" y="167.917915" transform="rotate(-0 257.053744 167.917915)">error</text>
    </g>
   </g>
  </g>
 </g>
 <defs>
  <clipPath id="p991788aa38">
   <rect x="46.477031" y="17.263125" width="329.422489" height="119.707779"/>
  </clipPath>
 </defs>
</svg>
