<?xml version="1.0" encoding="utf-8" standalone="no"?>
<!DOCTYPE svg PUBLIC "-//W3C//DTD SVG 1.1//EN"
  "http://www.w3.org/Graphics/SVG/1.1/DTD/svg11.dtd">
<svg xmlns:xlink="http://www.w3.org/1999/xlink" width="222.414844pt" height="171.485016pt" viewBox="0 0 222.414844 171.485016" xmlns="http://www.w3.org/2000/svg" version="1.1">
 <metadata>
  <rdf:RDF xmlns:dc="http://purl.org/dc/elements/1.1/" xmlns:cc="http://creativecommons.org/ns#" xmlns:rdf="http://www.w3.org/1999/02/22-rdf-syntax-ns#">
   <cc:Work>
    <dc:type rdf:resource="http://purl.org/dc/dcmitype/StillImage"/>
    <dc:date>2026-05-13T17:43:13.697001</dc:date>
    <dc:format>image/svg+xml</dc:format>
    <dc:creator>
     <cc:Agent>
      <dc:title>Matplotlib v3.9.4, https://matplotlib.org/</dc:title>
     </cc:Agent>
    </dc:creator>
   </cc:Work>
  </rdf:RDF>
 </metadata>
 <defs>
  <style type="text/css">*{stroke-linejoin: round; stroke-linecap: butt}</style>
 </defs>
 <g id="figure_1">
  <g id="patch_1">
   <path d="M 0 171.485016 
L 222.414844 171.485016 
L 222.414844 0 
L 0 0 
z
" style="fill: #ffffff"/>
  </g>
  <g id="axes_1">
   <g id="patch_2">
    <path d="M 36.099844 133.361016 
L 220.974844 133.361016 
L 220.974844 4.661016 
L 36.099844 4.661016 
z
" style="fill: #ffffff"/>
   </g>
   <g id="patch_3">
    <path d="M 37.309759 133.361016 
L 45.53718 133.361016 
L 45.53718 7.54998 
L 37.309759 7.54998 
z
" clip-path="url(#pab8e983dc3)" style="fill: #c8b6d9"/>
   </g>
   <g id="patch_4">
    <path d="M 46.989078 133.361016 
L 55.2165 133.361016 
L 55.2165 8.054943 
L 46.989078 8.054943 
z
" clip-path="url(#pab8e983dc3)" style="fill: #c8b6d9"/>
   </g>
   <g id="patch_5">
    <path d="M 56.668397 133.361016 
L 64.895819 133.361016 
L 64.895819 8.790659 
L 56.668397 8.790659 
z
" clip-path="url(#pab8e983dc3)" style="fill: #c8b6d9"/>
   </g>
   <g id="patch_6">
    <path d="M 66.347717 133.361016 
L 74.575138 133.361016 
L 74.575138 9.791733 
L 66.347717 9.791733 
z
" clip-path="url(#pab8e983dc3)" style="fill: #c8b6d9"/>
   </g>
   <g id="patch_7">
    <path d="M 76.027036 133.361016 
L 84.254458 133.361016 
L 84.254458 10.304021 
L 76.027036 10.304021 
z
" clip-path="url(#pab8e983dc3)" style="fill: #c8b6d9"/>
   </g>
   <g id="patch_8">
    <path d="M 85.706356 133.361016 
L 93.933777 133.361016 
L 93.933777 10.431151 
L 85.706356 10.431151 
z
" clip-path="url(#pab8e983dc3)" style="fill: #c8b6d9"/>
   </g>
   <g id="patch_9">
    <path d="M 95.385675 133.361016 
L 103.613096 133.361016 
L 103.613096 11.184738 
L 95.385675 11.184738 
z
" clip-path="url(#pab8e983dc3)" style="fill: #c8b6d9"/>
   </g>
   <g id="patch_10">
    <path d="M 105.064994 133.361016 
L 113.292416 133.361016 
L 113.292416 11.27216 
L 105.064994 11.27216 
z
" clip-path="url(#pab8e983dc3)" style="fill: #c8b6d9"/>
   </g>
   <g id="patch_11">
    <path d="M 114.744314 133.361016 
L 122.971735 133.361016 
L 122.971735 12.990974 
L 114.744314 12.990974 
z
" clip-path="url(#pab8e983dc3)" style="fill: #c8b6d9"/>
   </g>
   <g id="patch_12">
    <path d="M 124.423633 133.361016 
L 132.651054 133.361016 
L 132.651054 13.117433 
L 124.423633 13.117433 
z
" clip-path="url(#pab8e983dc3)" style="fill: #c8b6d9"/>
   </g>
   <g id="patch_13">
    <path d="M 134.102952 133.361016 
L 142.330374 133.361016 
L 142.330374 13.547693 
L 134.102952 13.547693 
z
" clip-path="url(#pab8e983dc3)" style="fill: #c8b6d9"/>
   </g>
   <g id="patch_14">
    <path d="M 143.782272 133.361016 
L 152.009693 133.361016 
L 152.009693 14.257004 
L 143.782272 14.257004 
z
" clip-path="url(#pab8e983dc3)" style="fill: #c8b6d9"/>
   </g>
   <g id="patch_15">
    <path d="M 153.461591 133.361016 
L 161.689013 133.361016 
L 161.689013 15.325688 
L 153.461591 15.325688 
z
" clip-path="url(#pab8e983dc3)" style="fill: #c8b6d9"/>
   </g>
   <g id="patch_16">
    <path d="M 163.140911 133.361016 
L 171.368332 133.361016 
L 171.368332 15.767382 
L 163.140911 15.767382 
z
" clip-path="url(#pab8e983dc3)" style="fill: #c8b6d9"/>
   </g>
   <g id="patch_17">
    <path d="M 172.82023 133.361016 
L 181.047651 133.361016 
L 181.047651 16.133664 
L 172.82023 16.133664 
z
" clip-path="url(#pab8e983dc3)" style="fill: #c8b6d9"/>
   </g>
   <g id="patch_18">
    <path d="M 182.499549 133.361016 
L 190.726971 133.361016 
L 190.726971 17.307964 
L 182.499549 17.307964 
z
" clip-path="url(#pab8e983dc3)" style="fill: #c8b6d9"/>
   </g>
   <g id="patch_19">
    <path d="M 192.178869 133.361016 
L 200.40629 133.361016 
L 200.40629 18.398508 
L 192.178869 18.398508 
z
" clip-path="url(#pab8e983dc3)" style="fill: #c8b6d9"/>
   </g>
   <g id="patch_20">
    <path d="M 201.858188 133.361016 
L 210.085609 133.361016 
L 210.085609 18.747924 
L 201.858188 18.747924 
z
" clip-path="url(#pab8e983dc3)" style="fill: #c8b6d9"/>
   </g>
   <g id="patch_21">
    <path d="M 211.537507 133.361016 
L 219.764929 133.361016 
L 219.764929 19.65057 
L 211.537507 19.65057 
z
" clip-path="url(#pab8e983dc3)" style="fill: #c8b6d9"/>
   </g>
   <g id="patch_22">
    <path d="M 37.309759 7.54998 
L 45.53718 7.54998 
L 45.53718 4.661016 
L 37.309759 4.661016 
z
" clip-path="url(#pab8e983dc3)" style="fill: #a8302c"/>
   </g>
   <g id="patch_23">
    <path d="M 46.989078 8.054943 
L 55.2165 8.054943 
L 55.2165 4.661016 
L 46.989078 4.661016 
z
" clip-path="url(#pab8e983dc3)" style="fill: #a8302c"/>
   </g>
   <g id="patch_24">
    <path d="M 56.668397 8.790659 
L 64.895819 8.790659 
L 64.895819 4.661016 
L 56.668397 4.661016 
z
" clip-path="url(#pab8e983dc3)" style="fill: #a8302c"/>
   </g>
   <g id="patch_25">
    <path d="M 66.347717 9.791733 
L 74.575138 9.791733 
L 74.575138 4.661016 
L 66.347717 4.661016 
z
" clip-path="url(#pab8e983dc3)" style="fill: #a8302c"/>
   </g>
   <g id="patch_26">
    <path d="M 76.027036 10.304021 
L 84.254458 10.304021 
L 84.254458 4.661016 
L 76.027036 4.661016 
z
" clip-path="url(#pab8e983dc3)" style="fill: #a8302c"/>
   </g>
   <g id="patch_27">
    <path d="M 85.706356 10.431151 
L 93.933777 10.431151 
L 93.933777 4.661016 
L 85.706356 4.661016 
z
" clip-path="url(#pab8e983dc3)" style="fill: #a8302c"/>
   </g>
   <g id="patch_28">
    <path d="M 95.385675 11.184738 
L 103.613096 11.184738 
L 103.613096 4.661016 
L 95.385675 4.661016 
z
" clip-path="url(#pab8e983dc3)" style="fill: #a8302c"/>
   </g>
   <g id="patch_29">
    <path d="M 105.064994 11.27216 
L 113.292416 11.27216 
L 113.292416 4.661016 
L 105.064994 4.661016 
z
" clip-path="url(#pab8e983dc3)" style="fill: #a8302c"/>
   </g>
   <g id="patch_30">
    <path d="M 114.744314 12.990974 
L 122.971735 12.990974 
L 122.971735 4.661016 
L 114.744314 4.661016 
z
" clip-path="url(#pab8e983dc3)" style="fill: #a8302c"/>
   </g>
   <g id="patch_31">
    <path d="M 124.423633 13.117433 
L 132.651054 13.117433 
L 132.651054 4.661016 
L 124.423633 4.661016 
z
" clip-path="url(#pab8e983dc3)" style="fill: #a8302c"/>
   </g>
   <g id="patch_32">
    <path d="M 134.102952 13.547693 
L 142.330374 13.547693 
L 142.330374 4.661016 
L 134.102952 4.661016 
z
" clip-path="url(#pab8e983dc3)" style="fill: #a8302c"/>
   </g>
   <g id="patch_33">
    <path d="M 143.782272 14.257004 
L 152.009693 14.257004 
L 152.009693 4.661016 
L 143.782272 4.661016 
z
" clip-path="url(#pab8e983dc3)" style="fill: #a8302c"/>
   </g>
   <g id="patch_34">
    <path d="M 153.461591 15.325688 
L 161.689013 15.325688 
L 161.689013 4.661016 
L 153.461591 4.661016 
z
" clip-path="url(#pab8e983dc3)" style="fill: #a8302c"/>
   </g>
   <g id="patch_35">
    <path d="M 163.140911 15.767382 
L 171.368332 15.767382 
L 171.368332 4.661016 
L 163.140911 4.661016 
z
" clip-path="url(#pab8e983dc3)" style="fill: #a8302c"/>
   </g>
   <g id="patch_36">
    <path d="M 172.82023 16.133664 
L 181.047651 16.133664 
L 181.047651 4.661016 
L 172.82023 4.661016 
z
" clip-path="url(#pab8e983dc3)" style="fill: #a8302c"/>
   </g>
   <g id="patch_37">
    <path d="M 182.499549 17.307964 
L 190.726971 17.307964 
L 190.726971 4.661016 
L 182.499549 4.661016 
z
" clip-path="url(#pab8e983dc3)" style="fill: #a8302c"/>
   </g>
   <g id="patch_38">
    <path d="M 192.178869 18.398508 
L 200.40629 18.398508 
L 200.40629 4.661016 
L 192.178869 4.661016 
z
" clip-path="url(#pab8e983dc3)" style="fill: #a8302c"/>
   </g>
   <g id="patch_39">
    <path d="M 201.858188 18.747924 
L 210.085609 18.747924 
L 210.085609 4.661016 
L 201.858188 4.661016 
z
" clip-path="url(#pab8e983dc3)" style="fill: #a8302c"/>
   </g>
   <g id="patch_40">
    <path d="M 211.537507 19.65057 
L 219.764929 19.65057 
L 219.764929 4.661016 
L 211.537507 4.661016 
z
" clip-path="url(#pab8e983dc3)" style="fill: #a8302c"/>
   </g>
   <g id="matplotlib.axis_1">
    <g id="text_1">
     <text style="font: 10px 'Arial'; text-anchor: middle" x="128.537344" y="144.518828" transform="rotate(-0 128.537344 144.518828)">videos</text>
    </g>
   </g>
   <g id="matplotlib.axis_2">
    <g id="ytick_1">
     <g id="line2d_1">
      <defs>
       <path id="mc6a32077c8" d="M 0 0 
L -3 0 
" style="stroke: #1a1a1a; stroke-width: 0.8"/>
      </defs>
      <g>
       <use xlink:href="#mc6a32077c8" x="36.099844" y="133.361016" style="fill: #1a1a1a; stroke: #1a1a1a; stroke-width: 0.8"/>
      </g>
     </g>
     <g id="text_2">
      <text style="fill: #1a1a1a; font: 9px 'Arial'; text-anchor: end" x="29.599844" y="136.582031" transform="rotate(-0 29.599844 136.582031)">0</text>
     </g>
    </g>
    <g id="ytick_2">
     <g id="line2d_2">
      <g>
       <use xlink:href="#mc6a32077c8" x="36.099844" y="101.186016" style="fill: #1a1a1a; stroke: #1a1a1a; stroke-width: 0.8"/>
      </g>
     </g>
     <g id="text_3">
      <text style="fill: #1a1a1a; font: 9px 'Arial'; text-anchor: end" x="29.599844" y="104.407031" transform="rotate(-0 29.599844 104.407031)">25</text>
     </g>
    </g>
    <g id="ytick_3">
     <g id="line2d_3">
      <g>
       <use xlink:href="#mc6a32077c8" x="36.099844" y="69.011016" style="fill: #1a1a1a; stroke: #1a1a1a; stroke-width: 0.8"/>
      </g>
     </g>
     <g id="text_4">
      <text style="fill: #1a1a1a; font: 9px 'Arial'; text-anchor: end" x="29.599844" y="72.232031" transform="rotate(-0 29.599844 72.232031)">50</text>
     </g>
    </g>
    <g id="ytick_4">
     <g id="line2d_4">
      <g>
       <use xlink:href="#mc6a32077c8" x="36.099844" y="36.836016" style="fill: #1a1a1a; stroke: #1a1a1a; stroke-width: 0.8"/>
      </g>
     </g>
     <g id="text_5">
      <text style="fill: #1a1a1a; font: 9px 'Arial'; text-anchor: end" x="29.599844" y="40.057031" transform="rotate(-0 29.599844 40.057031)">75</text>
     </g>
    </g>
    <g id="ytick_5">
     <g id="line2d_5">
      <g>
       <use xlink:href="#mc6a32077c8" x="36.099844" y="4.661016" style="fill: #1a1a1a; stroke: #1a1a1a; stroke-width: 0.8"/>
      </g>
     </g>
     <g id="text_6">
      <text style="fill: #1a1a1a; font: 9px 'Arial'; text-anchor: end" x="29.599844" y="7.882031" transform="rotate(-0 29.599844 7.882031)">100</text>
     </g>
    </g>
    <g id="text_7">
     <text style="font: 10px 'Arial'; text-anchor: middle" x="8.597813" y="69.011016" transform="rotate(-90 8.597813 69.011016)">% of frames</text>
    </g>
   </g>
   <g id="patch_41">
    <path d="M 36.099844 133.361016 
L 36.099844 4.661016 
" style="fill: none; stroke: #1a1a1a; stroke-width: 0.8; stroke-linejoin: miter; stroke-linecap: square"/>
   </g>
   <g id="patch_42">
    <path d="M 36.099844 133.361016 
L 220.974844 133.361016 
" style="fill: none; stroke: #1a1a1a; stroke-width: 0.8; stroke-linejoin: miter; stroke-linecap: square"/>
   </g>
   <g id="legend_1">
    <g id="patch_43">
     <path d="M 62.324063 166.125797 
L 73.124063 166.125797 
L 73.124063 156.900797 
L 62.324063 156.900797 
z
" style="fill: #c8b6d9"/>
    </g>
    <g id="text_8">
     <text style="font: 9px 'Arial'; text-anchor: start" x="78.524062" y="164.550797" transform="rotate(-0 78.524062 164.550797)">correctly labelled</text>
    </g>
    <g id="patch_44">
     <path d="M 159.550781 166.125797 
L 170.350781 166.125797 
L 170.350781 156.900797 
L 159.550781 156.900797 
z
" style="fill: #a8302c"/>
    </g>
    <g id="text_9">
     <text style="font: 9px 'Arial'; text-anchor: start" x="175.750781" y="164.550797" transform="rotate(-0 175.750781 164.550797)">error</text>
    </g>
   </g>
  </g>
 </g>
 <defs>
  <clipPath id="pab8e983dc3">
   <rect x="36.099844" y="4.661016" width="184.875" height="128.7"/>
  </clipPath>
 </defs>
</svg>
