<?xml version="1.0" encoding="utf-8" standalone="no"?>
<!DOCTYPE svg PUBLIC "-//W3C//DTD SVG 1.1//EN"
  "http://www.w3.org/Graphics/SVG/1.1/DTD/svg11.dtd">
<svg xmlns:xlink="http://www.w3.org/1999/xlink" width="217.5pt" height="195pt" viewBox="0 0 217.5 195" xmlns="http://www.w3.org/2000/svg" version="1.1">
 <metadata>
  <rdf:RDF xmlns:dc="http://purl.org/dc/elements/1.1/" xmlns:cc="http://creativecommons.org/ns#" xmlns:rdf="http://www.w3.org/1999/02/22-rdf-syntax-ns#">
   <cc:Work>
    <dc:type rdf:resource="http://purl.org/dc/dcmitype/StillImage"/>
    <dc:date>2026-05-13T18:34:20.666058</dc:date>
    <dc:format>image/svg+xml</dc:format>
    <dc:creator>
     <cc:Agent>
      <dc:title>Matplotlib v3.10.9, https://matplotlib.org/</dc:title>
     </cc:Agent>
    </dc:creator>
   </cc:Work>
  </rdf:RDF>
 </metadata>
 <defs>
  <style type="text/css">*{stroke-linejoin: round; stroke-linecap: butt}</style>
 </defs>
 <g id="figure_1">
  <g id="patch_1">
   <path d="M 0 195 
L 217.5 195 
L 217.5 0 
L 0 0 
z
" style="fill: #ffffff"/>
  </g>
  <g id="axes_1">
   <g id="patch_2">
    <path d="M 40.419844 146.360891 
L 211.74 146.360891 
L 211.74 14.021016 
L 40.419844 14.021016 
z
" style="fill: #ffffff"/>
   </g>
   <g id="patch_3">
    <path d="M 41.541049 146.360891 
L 49.165244 146.360891 
L 49.165244 16.991685 
L 41.541049 16.991685 
z
" clip-path="url(#p434895eaa0)" style="fill: #c8b6d9"/>
   </g>
   <g id="patch_4">
    <path d="M 50.510691 146.360891 
L 58.134886 146.360891 
L 58.134886 17.51093 
L 50.510691 17.51093 
z
" clip-path="url(#p434895eaa0)" style="fill: #c8b6d9"/>
   </g>
   <g id="patch_5">
    <path d="M 59.480332 146.360891 
L 67.104528 146.360891 
L 67.104528 18.267453 
L 59.480332 18.267453 
z
" clip-path="url(#p434895eaa0)" style="fill: #c8b6d9"/>
   </g>
   <g id="patch_6">
    <path d="M 68.449974 146.360891 
L 76.074169 146.360891 
L 76.074169 19.296839 
L 68.449974 19.296839 
z
" clip-path="url(#p434895eaa0)" style="fill: #c8b6d9"/>
   </g>
   <g id="patch_7">
    <path d="M 77.419616 146.360891 
L 85.043811 146.360891 
L 85.043811 19.823616 
L 77.419616 19.823616 
z
" clip-path="url(#p434895eaa0)" style="fill: #c8b6d9"/>
   </g>
   <g id="patch_8">
    <path d="M 86.389257 146.360891 
L 94.013453 146.360891 
L 94.013453 19.954341 
L 86.389257 19.954341 
z
" clip-path="url(#p434895eaa0)" style="fill: #c8b6d9"/>
   </g>
   <g id="patch_9">
    <path d="M 95.358899 146.360891 
L 102.983095 146.360891 
L 102.983095 20.729241 
L 95.358899 20.729241 
z
" clip-path="url(#p434895eaa0)" style="fill: #c8b6d9"/>
   </g>
   <g id="patch_10">
    <path d="M 104.328541 146.360891 
L 111.952736 146.360891 
L 111.952736 20.819136 
L 104.328541 20.819136 
z
" clip-path="url(#p434895eaa0)" style="fill: #c8b6d9"/>
   </g>
   <g id="patch_11">
    <path d="M 113.298182 146.360891 
L 120.922378 146.360891 
L 120.922378 22.586561 
L 113.298182 22.586561 
z
" clip-path="url(#p434895eaa0)" style="fill: #c8b6d9"/>
   </g>
   <g id="patch_12">
    <path d="M 122.267824 146.360891 
L 129.89202 146.360891 
L 129.89202 22.716596 
L 122.267824 22.716596 
z
" clip-path="url(#p434895eaa0)" style="fill: #c8b6d9"/>
   </g>
   <g id="patch_13">
    <path d="M 131.237466 146.360891 
L 138.861661 146.360891 
L 138.861661 23.159025 
L 131.237466 23.159025 
z
" clip-path="url(#p434895eaa0)" style="fill: #c8b6d9"/>
   </g>
   <g id="patch_14">
    <path d="M 140.207108 146.360891 
L 147.831303 146.360891 
L 147.831303 23.888397 
L 140.207108 23.888397 
z
" clip-path="url(#p434895eaa0)" style="fill: #c8b6d9"/>
   </g>
   <g id="patch_15">
    <path d="M 149.176749 146.360891 
L 156.800945 146.360891 
L 156.800945 24.987304 
L 149.176749 24.987304 
z
" clip-path="url(#p434895eaa0)" style="fill: #c8b6d9"/>
   </g>
   <g id="patch_16">
    <path d="M 158.146391 146.360891 
L 165.770586 146.360891 
L 165.770586 25.441491 
L 158.146391 25.441491 
z
" clip-path="url(#p434895eaa0)" style="fill: #c8b6d9"/>
   </g>
   <g id="patch_17">
    <path d="M 167.116033 146.360891 
L 174.740228 146.360891 
L 174.740228 25.818132 
L 167.116033 25.818132 
z
" clip-path="url(#p434895eaa0)" style="fill: #c8b6d9"/>
   </g>
   <g id="patch_18">
    <path d="M 176.085674 146.360891 
L 183.70987 146.360891 
L 183.70987 27.025643 
L 176.085674 27.025643 
z
" clip-path="url(#p434895eaa0)" style="fill: #c8b6d9"/>
   </g>
   <g id="patch_19">
    <path d="M 185.055316 146.360891 
L 192.679511 146.360891 
L 192.679511 28.14703 
L 185.055316 28.14703 
z
" clip-path="url(#p434895eaa0)" style="fill: #c8b6d9"/>
   </g>
   <g id="patch_20">
    <path d="M 194.024958 146.360891 
L 201.649153 146.360891 
L 201.649153 28.506327 
L 194.024958 28.506327 
z
" clip-path="url(#p434895eaa0)" style="fill: #c8b6d9"/>
   </g>
   <g id="patch_21">
    <path d="M 202.994599 146.360891 
L 210.618795 146.360891 
L 210.618795 29.434503 
L 202.994599 29.434503 
z
" clip-path="url(#p434895eaa0)" style="fill: #c8b6d9"/>
   </g>
   <g id="patch_22">
    <path d="M 41.541049 16.991685 
L 49.165244 16.991685 
L 49.165244 14.021016 
L 41.541049 14.021016 
z
" clip-path="url(#p434895eaa0)" style="fill: #a8302c"/>
   </g>
   <g id="patch_23">
    <path d="M 50.510691 17.51093 
L 58.134886 17.51093 
L 58.134886 14.021016 
L 50.510691 14.021016 
z
" clip-path="url(#p434895eaa0)" style="fill: #a8302c"/>
   </g>
   <g id="patch_24">
    <path d="M 59.480332 18.267453 
L 67.104528 18.267453 
L 67.104528 14.021016 
L 59.480332 14.021016 
z
" clip-path="url(#p434895eaa0)" style="fill: #a8302c"/>
   </g>
   <g id="patch_25">
    <path d="M 68.449974 19.296839 
L 76.074169 19.296839 
L 76.074169 14.021016 
L 68.449974 14.021016 
z
" clip-path="url(#p434895eaa0)" style="fill: #a8302c"/>
   </g>
   <g id="patch_26">
    <path d="M 77.419616 19.823616 
L 85.043811 19.823616 
L 85.043811 14.021016 
L 77.419616 14.021016 
z
" clip-path="url(#p434895eaa0)" style="fill: #a8302c"/>
   </g>
   <g id="patch_27">
    <path d="M 86.389257 19.954341 
L 94.013453 19.954341 
L 94.013453 14.021016 
L 86.389257 14.021016 
z
" clip-path="url(#p434895eaa0)" style="fill: #a8302c"/>
   </g>
   <g id="patch_28">
    <path d="M 95.358899 20.729241 
L 102.983095 20.729241 
L 102.983095 14.021016 
L 95.358899 14.021016 
z
" clip-path="url(#p434895eaa0)" style="fill: #a8302c"/>
   </g>
   <g id="patch_29">
    <path d="M 104.328541 20.819136 
L 111.952736 20.819136 
L 111.952736 14.021016 
L 104.328541 14.021016 
z
" clip-path="url(#p434895eaa0)" style="fill: #a8302c"/>
   </g>
   <g id="patch_30">
    <path d="M 113.298182 22.586561 
L 120.922378 22.586561 
L 120.922378 14.021016 
L 113.298182 14.021016 
z
" clip-path="url(#p434895eaa0)" style="fill: #a8302c"/>
   </g>
   <g id="patch_31">
    <path d="M 122.267824 22.716596 
L 129.89202 22.716596 
L 129.89202 14.021016 
L 122.267824 14.021016 
z
" clip-path="url(#p434895eaa0)" style="fill: #a8302c"/>
   </g>
   <g id="patch_32">
    <path d="M 131.237466 23.159025 
L 138.861661 23.159025 
L 138.861661 14.021016 
L 131.237466 14.021016 
z
" clip-path="url(#p434895eaa0)" style="fill: #a8302c"/>
   </g>
   <g id="patch_33">
    <path d="M 140.207108 23.888397 
L 147.831303 23.888397 
L 147.831303 14.021016 
L 140.207108 14.021016 
z
" clip-path="url(#p434895eaa0)" style="fill: #a8302c"/>
   </g>
   <g id="patch_34">
    <path d="M 149.176749 24.987304 
L 156.800945 24.987304 
L 156.800945 14.021016 
L 149.176749 14.021016 
z
" clip-path="url(#p434895eaa0)" style="fill: #a8302c"/>
   </g>
   <g id="patch_35">
    <path d="M 158.146391 25.441491 
L 165.770586 25.441491 
L 165.770586 14.021016 
L 158.146391 14.021016 
z
" clip-path="url(#p434895eaa0)" style="fill: #a8302c"/>
   </g>
   <g id="patch_36">
    <path d="M 167.116033 25.818132 
L 174.740228 25.818132 
L 174.740228 14.021016 
L 167.116033 14.021016 
z
" clip-path="url(#p434895eaa0)" style="fill: #a8302c"/>
   </g>
   <g id="patch_37">
    <path d="M 176.085674 27.025643 
L 183.70987 27.025643 
L 183.70987 14.021016 
L 176.085674 14.021016 
z
" clip-path="url(#p434895eaa0)" style="fill: #a8302c"/>
   </g>
   <g id="patch_38">
    <path d="M 185.055316 28.14703 
L 192.679511 28.14703 
L 192.679511 14.021016 
L 185.055316 14.021016 
z
" clip-path="url(#p434895eaa0)" style="fill: #a8302c"/>
   </g>
   <g id="patch_39">
    <path d="M 194.024958 28.506327 
L 201.649153 28.506327 
L 201.649153 14.021016 
L 194.024958 14.021016 
z
" clip-path="url(#p434895eaa0)" style="fill: #a8302c"/>
   </g>
   <g id="patch_40">
    <path d="M 202.994599 29.434503 
L 210.618795 29.434503 
L 210.618795 14.021016 
L 202.994599 14.021016 
z
" clip-path="url(#p434895eaa0)" style="fill: #a8302c"/>
   </g>
   <g id="matplotlib.axis_1">
    <g id="text_1">
     <text style="font-size: 10px; font-family: 'Arial'; text-anchor: middle" x="126.079922" y="157.518703" transform="rotate(-0 126.079922 157.518703)">videos</text>
    </g>
   </g>
   <g id="matplotlib.axis_2">
    <g id="ytick_1">
     <g id="line2d_1">
      <defs>
       <path id="mdee3c73d34" d="M 0 0 
L -3 0 
" style="stroke: #1a1a1a; stroke-width: 0.8"/>
      </defs>
      <g>
       <use xlink:href="#mdee3c73d34" x="40.419844" y="146.360891" style="fill: #1a1a1a; stroke: #1a1a1a; stroke-width: 0.8"/>
      </g>
     </g>
     <g id="text_2">
      <text style="font-size: 9px; font-family: 'Arial'; text-anchor: end; fill: #1a1a1a" x="33.919844" y="149.581906" transform="rotate(-0 33.919844 149.581906)">0</text>
     </g>
    </g>
    <g id="ytick_2">
     <g id="line2d_2">
      <g>
       <use xlink:href="#mdee3c73d34" x="40.419844" y="113.275922" style="fill: #1a1a1a; stroke: #1a1a1a; stroke-width: 0.8"/>
      </g>
     </g>
     <g id="text_3">
      <text style="font-size: 9px; font-family: 'Arial'; text-anchor: end; fill: #1a1a1a" x="33.919844" y="116.496938" transform="rotate(-0 33.919844 116.496938)">25</text>
     </g>
    </g>
    <g id="ytick_3">
     <g id="line2d_3">
      <g>
       <use xlink:href="#mdee3c73d34" x="40.419844" y="80.190953" style="fill: #1a1a1a; stroke: #1a1a1a; stroke-width: 0.8"/>
      </g>
     </g>
     <g id="text_4">
      <text style="font-size: 9px; font-family: 'Arial'; text-anchor: end; fill: #1a1a1a" x="33.919844" y="83.411969" transform="rotate(-0 33.919844 83.411969)">50</text>
     </g>
    </g>
    <g id="ytick_4">
     <g id="line2d_4">
      <g>
       <use xlink:href="#mdee3c73d34" x="40.419844" y="47.105984" style="fill: #1a1a1a; stroke: #1a1a1a; stroke-width: 0.8"/>
      </g>
     </g>
     <g id="text_5">
      <text style="font-size: 9px; font-family: 'Arial'; text-anchor: end; fill: #1a1a1a" x="33.919844" y="50.327" transform="rotate(-0 33.919844 50.327)">75</text>
     </g>
    </g>
    <g id="ytick_5">
     <g id="line2d_5">
      <g>
       <use xlink:href="#mdee3c73d34" x="40.419844" y="14.021016" style="fill: #1a1a1a; stroke: #1a1a1a; stroke-width: 0.8"/>
      </g>
     </g>
     <g id="text_6">
      <text style="font-size: 9px; font-family: 'Arial'; text-anchor: end; fill: #1a1a1a" x="33.919844" y="17.242031" transform="rotate(-0 33.919844 17.242031)">100</text>
     </g>
    </g>
    <g id="text_7">
     <text style="font-size: 10px; font-family: 'Arial'; text-anchor: middle" x="12.917813" y="80.190953" transform="rotate(-90 12.917813 80.190953)">% of frames</text>
    </g>
   </g>
   <g id="patch_41">
    <path d="M 40.419844 146.360891 
L 40.419844 14.021016 
" style="fill: none; stroke: #1a1a1a; stroke-width: 0.8; stroke-linejoin: miter; stroke-linecap: square"/>
   </g>
   <g id="patch_42">
    <path d="M 40.419844 146.360891 
L 211.74 146.360891 
" style="fill: none; stroke: #1a1a1a; stroke-width: 0.8; stroke-linejoin: miter; stroke-linecap: square"/>
   </g>
   <g id="legend_1">
    <g id="patch_43">
     <path d="M 59.866641 180.290432 
L 70.666641 180.290432 
L 70.666641 171.065432 
L 59.866641 171.065432 
z
" style="fill: #c8b6d9"/>
    </g>
    <g id="text_8">
     <text style="font-size: 9px; font-family: 'Arial'; text-anchor: start" x="76.066641" y="178.715432" transform="rotate(-0 76.066641 178.715432)">correctly labelled</text>
    </g>
    <g id="patch_44">
     <path d="M 157.093359 180.290432 
L 167.893359 180.290432 
L 167.893359 171.065432 
L 157.093359 171.065432 
z
" style="fill: #a8302c"/>
    </g>
    <g id="text_9">
     <text style="font-size: 9px; font-family: 'Arial'; text-anchor: start" x="173.293359" y="178.715432" transform="rotate(-0 173.293359 178.715432)">error</text>
    </g>
   </g>
  </g>
 </g>
 <defs>
  <clipPath id="p434895eaa0">
   <rect x="40.419844" y="14.021016" width="171.320156" height="132.339875"/>
  </clipPath>
 </defs>
</svg>
