<?xml version="1.0" encoding="utf-8" standalone="no"?>
<!DOCTYPE svg PUBLIC "-//W3C//DTD SVG 1.1//EN"
  "http://www.w3.org/Graphics/SVG/1.1/DTD/svg11.dtd">
<svg xmlns:xlink="http://www.w3.org/1999/xlink" width="217.5pt" height="195pt" viewBox="0 0 217.5 195" xmlns="http://www.w3.org/2000/svg" version="1.1">
 <metadata>
  <rdf:RDF xmlns:dc="http://purl.org/dc/elements/1.1/" xmlns:cc="http://creativecommons.org/ns#" xmlns:rdf="http://www.w3.org/1999/02/22-rdf-syntax-ns#">
   <cc:Work>
    <dc:type rdf:resource="http://purl.org/dc/dcmitype/StillImage"/>
    <dc:date>2026-05-13T17:13:09.732860</dc:date>
    <dc:format>image/svg+xml</dc:format>
    <dc:creator>
     <cc:Agent>
      <dc:title>Matplotlib v3.9.4, https://matplotlib.org/</dc:title>
     </cc:Agent>
    </dc:creator>
   </cc:Work>
  </rdf:RDF>
 </metadata>
 <defs>
  <style type="text/css">*{stroke-linejoin: round; stroke-linecap: butt}</style>
 </defs>
 <g id="figure_1">
  <g id="patch_1">
   <path d="M 0 195 
L 217.5 195 
L 217.5 0 
L 0 0 
z
" style="fill: #ffffff"/>
  </g>
  <g id="axes_1">
   <g id="patch_2">
    <path d="M 28.275 152.1 
L 213.15 152.1 
L 213.15 23.4 
L 28.275 23.4 
z
" style="fill: #ffffff"/>
   </g>
   <g id="patch_3">
    <path d="M 29.484915 152.1 
L 37.712336 152.1 
L 37.712336 26.288964 
L 29.484915 26.288964 
z
" clip-path="url(#p065c57b716)" style="fill: #c8b6d9"/>
   </g>
   <g id="patch_4">
    <path d="M 39.164234 152.1 
L 47.391656 152.1 
L 47.391656 26.793928 
L 39.164234 26.793928 
z
" clip-path="url(#p065c57b716)" style="fill: #c8b6d9"/>
   </g>
   <g id="patch_5">
    <path d="M 48.843554 152.1 
L 57.070975 152.1 
L 57.070975 27.529643 
L 48.843554 27.529643 
z
" clip-path="url(#p065c57b716)" style="fill: #c8b6d9"/>
   </g>
   <g id="patch_6">
    <path d="M 58.522873 152.1 
L 66.750295 152.1 
L 66.750295 28.530718 
L 58.522873 28.530718 
z
" clip-path="url(#p065c57b716)" style="fill: #c8b6d9"/>
   </g>
   <g id="patch_7">
    <path d="M 68.202192 152.1 
L 76.429614 152.1 
L 76.429614 29.043005 
L 68.202192 29.043005 
z
" clip-path="url(#p065c57b716)" style="fill: #c8b6d9"/>
   </g>
   <g id="patch_8">
    <path d="M 77.881512 152.1 
L 86.108933 152.1 
L 86.108933 29.170135 
L 77.881512 29.170135 
z
" clip-path="url(#p065c57b716)" style="fill: #c8b6d9"/>
   </g>
   <g id="patch_9">
    <path d="M 87.560831 152.1 
L 95.788253 152.1 
L 95.788253 29.923723 
L 87.560831 29.923723 
z
" clip-path="url(#p065c57b716)" style="fill: #c8b6d9"/>
   </g>
   <g id="patch_10">
    <path d="M 97.240151 152.1 
L 105.467572 152.1 
L 105.467572 30.011145 
L 97.240151 30.011145 
z
" clip-path="url(#p065c57b716)" style="fill: #c8b6d9"/>
   </g>
   <g id="patch_11">
    <path d="M 106.91947 152.1 
L 115.146891 152.1 
L 115.146891 31.729958 
L 106.91947 31.729958 
z
" clip-path="url(#p065c57b716)" style="fill: #c8b6d9"/>
   </g>
   <g id="patch_12">
    <path d="M 116.598789 152.1 
L 124.826211 152.1 
L 124.826211 31.856417 
L 116.598789 31.856417 
z
" clip-path="url(#p065c57b716)" style="fill: #c8b6d9"/>
   </g>
   <g id="patch_13">
    <path d="M 126.278109 152.1 
L 134.50553 152.1 
L 134.50553 32.286677 
L 126.278109 32.286677 
z
" clip-path="url(#p065c57b716)" style="fill: #c8b6d9"/>
   </g>
   <g id="patch_14">
    <path d="M 135.957428 152.1 
L 144.184849 152.1 
L 144.184849 32.995989 
L 135.957428 32.995989 
z
" clip-path="url(#p065c57b716)" style="fill: #c8b6d9"/>
   </g>
   <g id="patch_15">
    <path d="M 145.636747 152.1 
L 153.864169 152.1 
L 153.864169 34.064672 
L 145.636747 34.064672 
z
" clip-path="url(#p065c57b716)" style="fill: #c8b6d9"/>
   </g>
   <g id="patch_16">
    <path d="M 155.316067 152.1 
L 163.543488 152.1 
L 163.543488 34.506367 
L 155.316067 34.506367 
z
" clip-path="url(#p065c57b716)" style="fill: #c8b6d9"/>
   </g>
   <g id="patch_17">
    <path d="M 164.995386 152.1 
L 173.222808 152.1 
L 173.222808 34.872648 
L 164.995386 34.872648 
z
" clip-path="url(#p065c57b716)" style="fill: #c8b6d9"/>
   </g>
   <g id="patch_18">
    <path d="M 174.674705 152.1 
L 182.902127 152.1 
L 182.902127 36.046948 
L 174.674705 36.046948 
z
" clip-path="url(#p065c57b716)" style="fill: #c8b6d9"/>
   </g>
   <g id="patch_19">
    <path d="M 184.354025 152.1 
L 192.581446 152.1 
L 192.581446 37.137492 
L 184.354025 37.137492 
z
" clip-path="url(#p065c57b716)" style="fill: #c8b6d9"/>
   </g>
   <g id="patch_20">
    <path d="M 194.033344 152.1 
L 202.260766 152.1 
L 202.260766 37.486908 
L 194.033344 37.486908 
z
" clip-path="url(#p065c57b716)" style="fill: #c8b6d9"/>
   </g>
   <g id="patch_21">
    <path d="M 203.712664 152.1 
L 211.940085 152.1 
L 211.940085 38.389555 
L 203.712664 38.389555 
z
" clip-path="url(#p065c57b716)" style="fill: #c8b6d9"/>
   </g>
   <g id="patch_22">
    <path d="M 29.484915 26.288964 
L 37.712336 26.288964 
L 37.712336 23.4 
L 29.484915 23.4 
z
" clip-path="url(#p065c57b716)" style="fill: #a8302c"/>
   </g>
   <g id="patch_23">
    <path d="M 39.164234 26.793928 
L 47.391656 26.793928 
L 47.391656 23.4 
L 39.164234 23.4 
z
" clip-path="url(#p065c57b716)" style="fill: #a8302c"/>
   </g>
   <g id="patch_24">
    <path d="M 48.843554 27.529643 
L 57.070975 27.529643 
L 57.070975 23.4 
L 48.843554 23.4 
z
" clip-path="url(#p065c57b716)" style="fill: #a8302c"/>
   </g>
   <g id="patch_25">
    <path d="M 58.522873 28.530718 
L 66.750295 28.530718 
L 66.750295 23.4 
L 58.522873 23.4 
z
" clip-path="url(#p065c57b716)" style="fill: #a8302c"/>
   </g>
   <g id="patch_26">
    <path d="M 68.202192 29.043005 
L 76.429614 29.043005 
L 76.429614 23.4 
L 68.202192 23.4 
z
" clip-path="url(#p065c57b716)" style="fill: #a8302c"/>
   </g>
   <g id="patch_27">
    <path d="M 77.881512 29.170135 
L 86.108933 29.170135 
L 86.108933 23.4 
L 77.881512 23.4 
z
" clip-path="url(#p065c57b716)" style="fill: #a8302c"/>
   </g>
   <g id="patch_28">
    <path d="M 87.560831 29.923723 
L 95.788253 29.923723 
L 95.788253 23.4 
L 87.560831 23.4 
z
" clip-path="url(#p065c57b716)" style="fill: #a8302c"/>
   </g>
   <g id="patch_29">
    <path d="M 97.240151 30.011145 
L 105.467572 30.011145 
L 105.467572 23.4 
L 97.240151 23.4 
z
" clip-path="url(#p065c57b716)" style="fill: #a8302c"/>
   </g>
   <g id="patch_30">
    <path d="M 106.91947 31.729958 
L 115.146891 31.729958 
L 115.146891 23.4 
L 106.91947 23.4 
z
" clip-path="url(#p065c57b716)" style="fill: #a8302c"/>
   </g>
   <g id="patch_31">
    <path d="M 116.598789 31.856417 
L 124.826211 31.856417 
L 124.826211 23.4 
L 116.598789 23.4 
z
" clip-path="url(#p065c57b716)" style="fill: #a8302c"/>
   </g>
   <g id="patch_32">
    <path d="M 126.278109 32.286677 
L 134.50553 32.286677 
L 134.50553 23.4 
L 126.278109 23.4 
z
" clip-path="url(#p065c57b716)" style="fill: #a8302c"/>
   </g>
   <g id="patch_33">
    <path d="M 135.957428 32.995989 
L 144.184849 32.995989 
L 144.184849 23.4 
L 135.957428 23.4 
z
" clip-path="url(#p065c57b716)" style="fill: #a8302c"/>
   </g>
   <g id="patch_34">
    <path d="M 145.636747 34.064672 
L 153.864169 34.064672 
L 153.864169 23.4 
L 145.636747 23.4 
z
" clip-path="url(#p065c57b716)" style="fill: #a8302c"/>
   </g>
   <g id="patch_35">
    <path d="M 155.316067 34.506367 
L 163.543488 34.506367 
L 163.543488 23.4 
L 155.316067 23.4 
z
" clip-path="url(#p065c57b716)" style="fill: #a8302c"/>
   </g>
   <g id="patch_36">
    <path d="M 164.995386 34.872648 
L 173.222808 34.872648 
L 173.222808 23.4 
L 164.995386 23.4 
z
" clip-path="url(#p065c57b716)" style="fill: #a8302c"/>
   </g>
   <g id="patch_37">
    <path d="M 174.674705 36.046948 
L 182.902127 36.046948 
L 182.902127 23.4 
L 174.674705 23.4 
z
" clip-path="url(#p065c57b716)" style="fill: #a8302c"/>
   </g>
   <g id="patch_38">
    <path d="M 184.354025 37.137492 
L 192.581446 37.137492 
L 192.581446 23.4 
L 184.354025 23.4 
z
" clip-path="url(#p065c57b716)" style="fill: #a8302c"/>
   </g>
   <g id="patch_39">
    <path d="M 194.033344 37.486908 
L 202.260766 37.486908 
L 202.260766 23.4 
L 194.033344 23.4 
z
" clip-path="url(#p065c57b716)" style="fill: #a8302c"/>
   </g>
   <g id="patch_40">
    <path d="M 203.712664 38.389555 
L 211.940085 38.389555 
L 211.940085 23.4 
L 203.712664 23.4 
z
" clip-path="url(#p065c57b716)" style="fill: #a8302c"/>
   </g>
   <g id="matplotlib.axis_1">
    <g id="text_1">
     <text style="font: 10px 'Arial'; text-anchor: middle" x="120.7125" y="163.257812" transform="rotate(-0 120.7125 163.257812)">videos</text>
    </g>
   </g>
   <g id="matplotlib.axis_2">
    <g id="ytick_1">
     <g id="line2d_1">
      <defs>
       <path id="maf7a431c0c" d="M 0 0 
L -3 0 
" style="stroke: #1a1a1a; stroke-width: 0.8"/>
      </defs>
      <g>
       <use xlink:href="#maf7a431c0c" x="28.275" y="152.1" style="fill: #1a1a1a; stroke: #1a1a1a; stroke-width: 0.8"/>
      </g>
     </g>
     <g id="text_2">
      <text style="fill: #1a1a1a; font: 9px 'Arial'; text-anchor: end" x="21.775" y="155.321016" transform="rotate(-0 21.775 155.321016)">0</text>
     </g>
    </g>
    <g id="ytick_2">
     <g id="line2d_2">
      <g>
       <use xlink:href="#maf7a431c0c" x="28.275" y="119.925" style="fill: #1a1a1a; stroke: #1a1a1a; stroke-width: 0.8"/>
      </g>
     </g>
     <g id="text_3">
      <text style="fill: #1a1a1a; font: 9px 'Arial'; text-anchor: end" x="21.775" y="123.146016" transform="rotate(-0 21.775 123.146016)">25</text>
     </g>
    </g>
    <g id="ytick_3">
     <g id="line2d_3">
      <g>
       <use xlink:href="#maf7a431c0c" x="28.275" y="87.75" style="fill: #1a1a1a; stroke: #1a1a1a; stroke-width: 0.8"/>
      </g>
     </g>
     <g id="text_4">
      <text style="fill: #1a1a1a; font: 9px 'Arial'; text-anchor: end" x="21.775" y="90.971016" transform="rotate(-0 21.775 90.971016)">50</text>
     </g>
    </g>
    <g id="ytick_4">
     <g id="line2d_4">
      <g>
       <use xlink:href="#maf7a431c0c" x="28.275" y="55.575" style="fill: #1a1a1a; stroke: #1a1a1a; stroke-width: 0.8"/>
      </g>
     </g>
     <g id="text_5">
      <text style="fill: #1a1a1a; font: 9px 'Arial'; text-anchor: end" x="21.775" y="58.796016" transform="rotate(-0 21.775 58.796016)">75</text>
     </g>
    </g>
    <g id="ytick_5">
     <g id="line2d_5">
      <g>
       <use xlink:href="#maf7a431c0c" x="28.275" y="23.4" style="fill: #1a1a1a; stroke: #1a1a1a; stroke-width: 0.8"/>
      </g>
     </g>
     <g id="text_6">
      <text style="fill: #1a1a1a; font: 9px 'Arial'; text-anchor: end" x="21.775" y="26.621016" transform="rotate(-0 21.775 26.621016)">100</text>
     </g>
    </g>
    <g id="text_7">
     <text style="font: 10px 'Arial'; text-anchor: middle" x="0.772969" y="87.75" transform="rotate(-90 0.772969 87.75)">% of frames</text>
    </g>
   </g>
   <g id="patch_41">
    <path d="M 28.275 152.1 
L 28.275 23.4 
" style="fill: none; stroke: #1a1a1a; stroke-width: 0.8; stroke-linejoin: miter; stroke-linecap: square"/>
   </g>
   <g id="patch_42">
    <path d="M 28.275 152.1 
L 213.15 152.1 
" style="fill: none; stroke: #1a1a1a; stroke-width: 0.8; stroke-linejoin: miter; stroke-linecap: square"/>
   </g>
   <g id="legend_1">
    <g id="patch_43">
     <path d="M 54.499219 184.864781 
L 65.299219 184.864781 
L 65.299219 175.639781 
L 54.499219 175.639781 
z
" style="fill: #c8b6d9"/>
    </g>
    <g id="text_8">
     <text style="font: 9px 'Arial'; text-anchor: start" x="70.699219" y="183.289781" transform="rotate(-0 70.699219 183.289781)">correctly labelled</text>
    </g>
    <g id="patch_44">
     <path d="M 151.725938 184.864781 
L 162.525938 184.864781 
L 162.525938 175.639781 
L 151.725938 175.639781 
z
" style="fill: #a8302c"/>
    </g>
    <g id="text_9">
     <text style="font: 9px 'Arial'; text-anchor: start" x="167.925938" y="183.289781" transform="rotate(-0 167.925938 183.289781)">error</text>
    </g>
   </g>
  </g>
 </g>
 <defs>
  <clipPath id="p065c57b716">
   <rect x="28.275" y="23.4" width="184.875" height="128.7"/>
  </clipPath>
 </defs>
</svg>
