<?xml version="1.0" encoding="utf-8" standalone="no"?>
<!DOCTYPE svg PUBLIC "-//W3C//DTD SVG 1.1//EN"
  "http://www.w3.org/Graphics/SVG/1.1/DTD/svg11.dtd">
<svg xmlns:xlink="http://www.w3.org/1999/xlink" width="225.89952pt" height="203.392421pt" viewBox="0 0 225.89952 203.392421" xmlns="http://www.w3.org/2000/svg" version="1.1">
 <metadata>
  <rdf:RDF xmlns:dc="http://purl.org/dc/elements/1.1/" xmlns:cc="http://creativecommons.org/ns#" xmlns:rdf="http://www.w3.org/1999/02/22-rdf-syntax-ns#">
   <cc:Work>
    <dc:type rdf:resource="http://purl.org/dc/dcmitype/StillImage"/>
    <dc:date>2026-05-13T18:14:51.524608</dc:date>
    <dc:format>image/svg+xml</dc:format>
    <dc:creator>
     <cc:Agent>
      <dc:title>Matplotlib v3.10.9, https://matplotlib.org/</dc:title>
     </cc:Agent>
    </dc:creator>
   </cc:Work>
  </rdf:RDF>
 </metadata>
 <defs>
  <style type="text/css">*{stroke-linejoin: round; stroke-linecap: butt}</style>
 </defs>
 <g id="figure_1">
  <g id="patch_1">
   <path d="M 0 203.392421 
L 225.89952 203.392421 
L 225.89952 0 
L 0 0 
z
" style="fill: #ffffff"/>
  </g>
  <g id="axes_1">
   <g id="patch_2">
    <path d="M 41.859844 154.56602 
L 218.69952 154.56602 
L 218.69952 10.421016 
L 41.859844 10.421016 
z
" style="fill: #ffffff"/>
   </g>
   <g id="patch_3">
    <path d="M 43.017171 154.56602 
L 50.887 154.56602 
L 50.887 13.656678 
L 43.017171 13.656678 
z
" clip-path="url(#p25e482d1d8)" style="fill: #c8b6d9"/>
   </g>
   <g id="patch_4">
    <path d="M 52.275793 154.56602 
L 60.145622 154.56602 
L 60.145622 14.222241 
L 52.275793 14.222241 
z
" clip-path="url(#p25e482d1d8)" style="fill: #c8b6d9"/>
   </g>
   <g id="patch_5">
    <path d="M 61.534415 154.56602 
L 69.404244 154.56602 
L 69.404244 15.046248 
L 61.534415 15.046248 
z
" clip-path="url(#p25e482d1d8)" style="fill: #c8b6d9"/>
   </g>
   <g id="patch_6">
    <path d="M 70.793037 154.56602 
L 78.662865 154.56602 
L 78.662865 16.167459 
L 70.793037 16.167459 
z
" clip-path="url(#p25e482d1d8)" style="fill: #c8b6d9"/>
   </g>
   <g id="patch_7">
    <path d="M 80.051659 154.56602 
L 87.921487 154.56602 
L 87.921487 16.741226 
L 80.051659 16.741226 
z
" clip-path="url(#p25e482d1d8)" style="fill: #c8b6d9"/>
   </g>
   <g id="patch_8">
    <path d="M 89.31028 154.56602 
L 97.180109 154.56602 
L 97.180109 16.883612 
L 89.31028 16.883612 
z
" clip-path="url(#p25e482d1d8)" style="fill: #c8b6d9"/>
   </g>
   <g id="patch_9">
    <path d="M 98.568902 154.56602 
L 106.438731 154.56602 
L 106.438731 17.727636 
L 98.568902 17.727636 
z
" clip-path="url(#p25e482d1d8)" style="fill: #c8b6d9"/>
   </g>
   <g id="patch_10">
    <path d="M 107.827524 154.56602 
L 115.697353 154.56602 
L 115.697353 17.825549 
L 107.827524 17.825549 
z
" clip-path="url(#p25e482d1d8)" style="fill: #c8b6d9"/>
   </g>
   <g id="patch_11">
    <path d="M 117.086146 154.56602 
L 124.955974 154.56602 
L 124.955974 19.750634 
L 117.086146 19.750634 
z
" clip-path="url(#p25e482d1d8)" style="fill: #c8b6d9"/>
   </g>
   <g id="patch_12">
    <path d="M 126.344768 154.56602 
L 134.214596 154.56602 
L 134.214596 19.892269 
L 126.344768 19.892269 
z
" clip-path="url(#p25e482d1d8)" style="fill: #c8b6d9"/>
   </g>
   <g id="patch_13">
    <path d="M 135.603389 154.56602 
L 143.473218 154.56602 
L 143.473218 20.374164 
L 135.603389 20.374164 
z
" clip-path="url(#p25e482d1d8)" style="fill: #c8b6d9"/>
   </g>
   <g id="patch_14">
    <path d="M 144.862011 154.56602 
L 152.73184 154.56602 
L 152.73184 21.168598 
L 144.862011 21.168598 
z
" clip-path="url(#p25e482d1d8)" style="fill: #c8b6d9"/>
   </g>
   <g id="patch_15">
    <path d="M 154.120633 154.56602 
L 161.990462 154.56602 
L 161.990462 22.365531 
L 154.120633 22.365531 
z
" clip-path="url(#p25e482d1d8)" style="fill: #c8b6d9"/>
   </g>
   <g id="patch_16">
    <path d="M 163.379255 154.56602 
L 171.249083 154.56602 
L 171.249083 22.860233 
L 163.379255 22.860233 
z
" clip-path="url(#p25e482d1d8)" style="fill: #c8b6d9"/>
   </g>
   <g id="patch_17">
    <path d="M 172.637877 154.56602 
L 180.507705 154.56602 
L 180.507705 23.270471 
L 172.637877 23.270471 
z
" clip-path="url(#p25e482d1d8)" style="fill: #c8b6d9"/>
   </g>
   <g id="patch_18">
    <path d="M 181.896498 154.56602 
L 189.766327 154.56602 
L 189.766327 24.585697 
L 181.896498 24.585697 
z
" clip-path="url(#p25e482d1d8)" style="fill: #c8b6d9"/>
   </g>
   <g id="patch_19">
    <path d="M 191.15512 154.56602 
L 199.024949 154.56602 
L 199.024949 25.807114 
L 191.15512 25.807114 
z
" clip-path="url(#p25e482d1d8)" style="fill: #c8b6d9"/>
   </g>
   <g id="patch_20">
    <path d="M 200.413742 154.56602 
L 208.28357 154.56602 
L 208.28357 26.198462 
L 200.413742 26.198462 
z
" clip-path="url(#p25e482d1d8)" style="fill: #c8b6d9"/>
   </g>
   <g id="patch_21">
    <path d="M 209.672364 154.56602 
L 217.542192 154.56602 
L 217.542192 27.209434 
L 209.672364 27.209434 
z
" clip-path="url(#p25e482d1d8)" style="fill: #c8b6d9"/>
   </g>
   <g id="patch_22">
    <path d="M 43.017171 13.656678 
L 50.887 13.656678 
L 50.887 10.421016 
L 43.017171 10.421016 
z
" clip-path="url(#p25e482d1d8)" style="fill: #a8302c"/>
   </g>
   <g id="patch_23">
    <path d="M 52.275793 14.222241 
L 60.145622 14.222241 
L 60.145622 10.421016 
L 52.275793 10.421016 
z
" clip-path="url(#p25e482d1d8)" style="fill: #a8302c"/>
   </g>
   <g id="patch_24">
    <path d="M 61.534415 15.046248 
L 69.404244 15.046248 
L 69.404244 10.421016 
L 61.534415 10.421016 
z
" clip-path="url(#p25e482d1d8)" style="fill: #a8302c"/>
   </g>
   <g id="patch_25">
    <path d="M 70.793037 16.167459 
L 78.662865 16.167459 
L 78.662865 10.421016 
L 70.793037 10.421016 
z
" clip-path="url(#p25e482d1d8)" style="fill: #a8302c"/>
   </g>
   <g id="patch_26">
    <path d="M 80.051659 16.741226 
L 87.921487 16.741226 
L 87.921487 10.421016 
L 80.051659 10.421016 
z
" clip-path="url(#p25e482d1d8)" style="fill: #a8302c"/>
   </g>
   <g id="patch_27">
    <path d="M 89.31028 16.883612 
L 97.180109 16.883612 
L 97.180109 10.421016 
L 89.31028 10.421016 
z
" clip-path="url(#p25e482d1d8)" style="fill: #a8302c"/>
   </g>
   <g id="patch_28">
    <path d="M 98.568902 17.727636 
L 106.438731 17.727636 
L 106.438731 10.421016 
L 98.568902 10.421016 
z
" clip-path="url(#p25e482d1d8)" style="fill: #a8302c"/>
   </g>
   <g id="patch_29">
    <path d="M 107.827524 17.825549 
L 115.697353 17.825549 
L 115.697353 10.421016 
L 107.827524 10.421016 
z
" clip-path="url(#p25e482d1d8)" style="fill: #a8302c"/>
   </g>
   <g id="patch_30">
    <path d="M 117.086146 19.750634 
L 124.955974 19.750634 
L 124.955974 10.421016 
L 117.086146 10.421016 
z
" clip-path="url(#p25e482d1d8)" style="fill: #a8302c"/>
   </g>
   <g id="patch_31">
    <path d="M 126.344768 19.892269 
L 134.214596 19.892269 
L 134.214596 10.421016 
L 126.344768 10.421016 
z
" clip-path="url(#p25e482d1d8)" style="fill: #a8302c"/>
   </g>
   <g id="patch_32">
    <path d="M 135.603389 20.374164 
L 143.473218 20.374164 
L 143.473218 10.421016 
L 135.603389 10.421016 
z
" clip-path="url(#p25e482d1d8)" style="fill: #a8302c"/>
   </g>
   <g id="patch_33">
    <path d="M 144.862011 21.168598 
L 152.73184 21.168598 
L 152.73184 10.421016 
L 144.862011 10.421016 
z
" clip-path="url(#p25e482d1d8)" style="fill: #a8302c"/>
   </g>
   <g id="patch_34">
    <path d="M 154.120633 22.365531 
L 161.990462 22.365531 
L 161.990462 10.421016 
L 154.120633 10.421016 
z
" clip-path="url(#p25e482d1d8)" style="fill: #a8302c"/>
   </g>
   <g id="patch_35">
    <path d="M 163.379255 22.860233 
L 171.249083 22.860233 
L 171.249083 10.421016 
L 163.379255 10.421016 
z
" clip-path="url(#p25e482d1d8)" style="fill: #a8302c"/>
   </g>
   <g id="patch_36">
    <path d="M 172.637877 23.270471 
L 180.507705 23.270471 
L 180.507705 10.421016 
L 172.637877 10.421016 
z
" clip-path="url(#p25e482d1d8)" style="fill: #a8302c"/>
   </g>
   <g id="patch_37">
    <path d="M 181.896498 24.585697 
L 189.766327 24.585697 
L 189.766327 10.421016 
L 181.896498 10.421016 
z
" clip-path="url(#p25e482d1d8)" style="fill: #a8302c"/>
   </g>
   <g id="patch_38">
    <path d="M 191.15512 25.807114 
L 199.024949 25.807114 
L 199.024949 10.421016 
L 191.15512 10.421016 
z
" clip-path="url(#p25e482d1d8)" style="fill: #a8302c"/>
   </g>
   <g id="patch_39">
    <path d="M 200.413742 26.198462 
L 208.28357 26.198462 
L 208.28357 10.421016 
L 200.413742 10.421016 
z
" clip-path="url(#p25e482d1d8)" style="fill: #a8302c"/>
   </g>
   <g id="patch_40">
    <path d="M 209.672364 27.209434 
L 217.542192 27.209434 
L 217.542192 10.421016 
L 209.672364 10.421016 
z
" clip-path="url(#p25e482d1d8)" style="fill: #a8302c"/>
   </g>
   <g id="matplotlib.axis_1">
    <g id="text_1">
     <text style="font-size: 10px; font-family: 'Arial'; text-anchor: middle" x="130.279682" y="165.723832" transform="rotate(-0 130.279682 165.723832)">videos</text>
    </g>
   </g>
   <g id="matplotlib.axis_2">
    <g id="ytick_1">
     <g id="line2d_1">
      <defs>
       <path id="m026f4d1dc7" d="M 0 0 
L -3 0 
" style="stroke: #1a1a1a; stroke-width: 0.8"/>
      </defs>
      <g>
       <use xlink:href="#m026f4d1dc7" x="41.859844" y="154.56602" style="fill: #1a1a1a; stroke: #1a1a1a; stroke-width: 0.8"/>
      </g>
     </g>
     <g id="text_2">
      <text style="font-size: 9px; font-family: 'Arial'; text-anchor: end; fill: #1a1a1a" x="35.359844" y="157.787035" transform="rotate(-0 35.359844 157.787035)">0</text>
     </g>
    </g>
    <g id="ytick_2">
     <g id="line2d_2">
      <g>
       <use xlink:href="#m026f4d1dc7" x="41.859844" y="118.529769" style="fill: #1a1a1a; stroke: #1a1a1a; stroke-width: 0.8"/>
      </g>
     </g>
     <g id="text_3">
      <text style="font-size: 9px; font-family: 'Arial'; text-anchor: end; fill: #1a1a1a" x="35.359844" y="121.750784" transform="rotate(-0 35.359844 121.750784)">25</text>
     </g>
    </g>
    <g id="ytick_3">
     <g id="line2d_3">
      <g>
       <use xlink:href="#m026f4d1dc7" x="41.859844" y="82.493518" style="fill: #1a1a1a; stroke: #1a1a1a; stroke-width: 0.8"/>
      </g>
     </g>
     <g id="text_4">
      <text style="font-size: 9px; font-family: 'Arial'; text-anchor: end; fill: #1a1a1a" x="35.359844" y="85.714533" transform="rotate(-0 35.359844 85.714533)">50</text>
     </g>
    </g>
    <g id="ytick_4">
     <g id="line2d_4">
      <g>
       <use xlink:href="#m026f4d1dc7" x="41.859844" y="46.457267" style="fill: #1a1a1a; stroke: #1a1a1a; stroke-width: 0.8"/>
      </g>
     </g>
     <g id="text_5">
      <text style="font-size: 9px; font-family: 'Arial'; text-anchor: end; fill: #1a1a1a" x="35.359844" y="49.678282" transform="rotate(-0 35.359844 49.678282)">75</text>
     </g>
    </g>
    <g id="ytick_5">
     <g id="line2d_5">
      <g>
       <use xlink:href="#m026f4d1dc7" x="41.859844" y="10.421016" style="fill: #1a1a1a; stroke: #1a1a1a; stroke-width: 0.8"/>
      </g>
     </g>
     <g id="text_6">
      <text style="font-size: 9px; font-family: 'Arial'; text-anchor: end; fill: #1a1a1a" x="35.359844" y="13.642031" transform="rotate(-0 35.359844 13.642031)">100</text>
     </g>
    </g>
    <g id="text_7">
     <text style="font-size: 10px; font-family: 'Arial'; text-anchor: middle" x="14.357813" y="82.493518" transform="rotate(-90 14.357813 82.493518)">% of frames</text>
    </g>
   </g>
   <g id="patch_41">
    <path d="M 41.859844 154.56602 
L 41.859844 10.421016 
" style="fill: none; stroke: #1a1a1a; stroke-width: 0.8; stroke-linejoin: miter; stroke-linecap: square"/>
   </g>
   <g id="patch_42">
    <path d="M 41.859844 154.56602 
L 218.69952 154.56602 
" style="fill: none; stroke: #1a1a1a; stroke-width: 0.8; stroke-linejoin: miter; stroke-linecap: square"/>
   </g>
   <g id="legend_1">
    <g id="patch_43">
     <path d="M 64.066401 192.273202 
L 74.866401 192.273202 
L 74.866401 183.048202 
L 64.066401 183.048202 
z
" style="fill: #c8b6d9"/>
    </g>
    <g id="text_8">
     <text style="font-size: 9px; font-family: 'Arial'; text-anchor: start" x="80.266401" y="190.698202" transform="rotate(-0 80.266401 190.698202)">correctly labelled</text>
    </g>
    <g id="patch_44">
     <path d="M 161.293119 192.273202 
L 172.093119 192.273202 
L 172.093119 183.048202 
L 161.293119 183.048202 
z
" style="fill: #a8302c"/>
    </g>
    <g id="text_9">
     <text style="font-size: 9px; font-family: 'Arial'; text-anchor: start" x="177.493119" y="190.698202" transform="rotate(-0 177.493119 190.698202)">error</text>
    </g>
   </g>
  </g>
 </g>
 <defs>
  <clipPath id="p25e482d1d8">
   <rect x="41.859844" y="10.421016" width="176.839676" height="144.145004"/>
  </clipPath>
 </defs>
</svg>
