<?xml version="1.0" encoding="utf-8" standalone="no"?>
<!DOCTYPE svg PUBLIC "-//W3C//DTD SVG 1.1//EN"
  "http://www.w3.org/Graphics/SVG/1.1/DTD/svg11.dtd">
<svg xmlns:xlink="http://www.w3.org/1999/xlink" width="217.5pt" height="195pt" viewBox="0 0 217.5 195" xmlns="http://www.w3.org/2000/svg" version="1.1">
 <metadata>
  <rdf:RDF xmlns:dc="http://purl.org/dc/elements/1.1/" xmlns:cc="http://creativecommons.org/ns#" xmlns:rdf="http://www.w3.org/1999/02/22-rdf-syntax-ns#">
   <cc:Work>
    <dc:type rdf:resource="http://purl.org/dc/dcmitype/StillImage"/>
    <dc:date>2026-05-13T16:57:55.687167</dc:date>
    <dc:format>image/svg+xml</dc:format>
    <dc:creator>
     <cc:Agent>
      <dc:title>Matplotlib v3.9.4, https://matplotlib.org/</dc:title>
     </cc:Agent>
    </dc:creator>
   </cc:Work>
  </rdf:RDF>
 </metadata>
 <defs>
  <style type="text/css">*{stroke-linejoin: round; stroke-linecap: butt}</style>
 </defs>
 <g id="figure_1">
  <g id="patch_1">
   <path d="M 0 195 
L 217.5 195 
L 217.5 0 
L 0 0 
z
" style="fill: #ffffff"/>
  </g>
  <g id="axes_1">
   <g id="patch_2">
    <path d="M 28.275 152.1 
L 213.15 152.1 
L 213.15 23.4 
L 28.275 23.4 
z
" style="fill: #ffffff"/>
   </g>
   <g id="patch_3">
    <path d="M 28.758966 152.1 
L 38.438285 152.1 
L 38.438285 26.288964 
L 28.758966 26.288964 
z
" clip-path="url(#p9b3a118865)" style="fill: #c8b6d9"/>
   </g>
   <g id="patch_4">
    <path d="M 38.438285 152.1 
L 48.117605 152.1 
L 48.117605 26.793928 
L 38.438285 26.793928 
z
" clip-path="url(#p9b3a118865)" style="fill: #c8b6d9"/>
   </g>
   <g id="patch_5">
    <path d="M 48.117605 152.1 
L 57.796924 152.1 
L 57.796924 27.529643 
L 48.117605 27.529643 
z
" clip-path="url(#p9b3a118865)" style="fill: #c8b6d9"/>
   </g>
   <g id="patch_6">
    <path d="M 57.796924 152.1 
L 67.476243 152.1 
L 67.476243 28.530718 
L 57.796924 28.530718 
z
" clip-path="url(#p9b3a118865)" style="fill: #c8b6d9"/>
   </g>
   <g id="patch_7">
    <path d="M 67.476243 152.1 
L 77.155563 152.1 
L 77.155563 29.043005 
L 67.476243 29.043005 
z
" clip-path="url(#p9b3a118865)" style="fill: #c8b6d9"/>
   </g>
   <g id="patch_8">
    <path d="M 77.155563 152.1 
L 86.834882 152.1 
L 86.834882 29.170135 
L 77.155563 29.170135 
z
" clip-path="url(#p9b3a118865)" style="fill: #c8b6d9"/>
   </g>
   <g id="patch_9">
    <path d="M 86.834882 152.1 
L 96.514202 152.1 
L 96.514202 29.923723 
L 86.834882 29.923723 
z
" clip-path="url(#p9b3a118865)" style="fill: #c8b6d9"/>
   </g>
   <g id="patch_10">
    <path d="M 96.514202 152.1 
L 106.193521 152.1 
L 106.193521 30.011145 
L 96.514202 30.011145 
z
" clip-path="url(#p9b3a118865)" style="fill: #c8b6d9"/>
   </g>
   <g id="patch_11">
    <path d="M 106.193521 152.1 
L 115.87284 152.1 
L 115.87284 31.729958 
L 106.193521 31.729958 
z
" clip-path="url(#p9b3a118865)" style="fill: #c8b6d9"/>
   </g>
   <g id="patch_12">
    <path d="M 115.87284 152.1 
L 125.55216 152.1 
L 125.55216 31.856417 
L 115.87284 31.856417 
z
" clip-path="url(#p9b3a118865)" style="fill: #c8b6d9"/>
   </g>
   <g id="patch_13">
    <path d="M 125.55216 152.1 
L 135.231479 152.1 
L 135.231479 32.286677 
L 125.55216 32.286677 
z
" clip-path="url(#p9b3a118865)" style="fill: #c8b6d9"/>
   </g>
   <g id="patch_14">
    <path d="M 135.231479 152.1 
L 144.910798 152.1 
L 144.910798 32.995989 
L 135.231479 32.995989 
z
" clip-path="url(#p9b3a118865)" style="fill: #c8b6d9"/>
   </g>
   <g id="patch_15">
    <path d="M 144.910798 152.1 
L 154.590118 152.1 
L 154.590118 34.064672 
L 144.910798 34.064672 
z
" clip-path="url(#p9b3a118865)" style="fill: #c8b6d9"/>
   </g>
   <g id="patch_16">
    <path d="M 154.590118 152.1 
L 164.269437 152.1 
L 164.269437 34.506367 
L 154.590118 34.506367 
z
" clip-path="url(#p9b3a118865)" style="fill: #c8b6d9"/>
   </g>
   <g id="patch_17">
    <path d="M 164.269437 152.1 
L 173.948757 152.1 
L 173.948757 34.872648 
L 164.269437 34.872648 
z
" clip-path="url(#p9b3a118865)" style="fill: #c8b6d9"/>
   </g>
   <g id="patch_18">
    <path d="M 173.948757 152.1 
L 183.628076 152.1 
L 183.628076 36.046948 
L 173.948757 36.046948 
z
" clip-path="url(#p9b3a118865)" style="fill: #c8b6d9"/>
   </g>
   <g id="patch_19">
    <path d="M 183.628076 152.1 
L 193.307395 152.1 
L 193.307395 37.137492 
L 183.628076 37.137492 
z
" clip-path="url(#p9b3a118865)" style="fill: #c8b6d9"/>
   </g>
   <g id="patch_20">
    <path d="M 193.307395 152.1 
L 202.986715 152.1 
L 202.986715 37.486908 
L 193.307395 37.486908 
z
" clip-path="url(#p9b3a118865)" style="fill: #c8b6d9"/>
   </g>
   <g id="patch_21">
    <path d="M 202.986715 152.1 
L 212.666034 152.1 
L 212.666034 38.389555 
L 202.986715 38.389555 
z
" clip-path="url(#p9b3a118865)" style="fill: #c8b6d9"/>
   </g>
   <g id="patch_22">
    <path d="M 28.758966 26.288964 
L 38.438285 26.288964 
L 38.438285 23.4 
L 28.758966 23.4 
z
" clip-path="url(#p9b3a118865)" style="fill: #a8302c"/>
   </g>
   <g id="patch_23">
    <path d="M 38.438285 26.793928 
L 48.117605 26.793928 
L 48.117605 23.4 
L 38.438285 23.4 
z
" clip-path="url(#p9b3a118865)" style="fill: #a8302c"/>
   </g>
   <g id="patch_24">
    <path d="M 48.117605 27.529643 
L 57.796924 27.529643 
L 57.796924 23.4 
L 48.117605 23.4 
z
" clip-path="url(#p9b3a118865)" style="fill: #a8302c"/>
   </g>
   <g id="patch_25">
    <path d="M 57.796924 28.530718 
L 67.476243 28.530718 
L 67.476243 23.4 
L 57.796924 23.4 
z
" clip-path="url(#p9b3a118865)" style="fill: #a8302c"/>
   </g>
   <g id="patch_26">
    <path d="M 67.476243 29.043005 
L 77.155563 29.043005 
L 77.155563 23.4 
L 67.476243 23.4 
z
" clip-path="url(#p9b3a118865)" style="fill: #a8302c"/>
   </g>
   <g id="patch_27">
    <path d="M 77.155563 29.170135 
L 86.834882 29.170135 
L 86.834882 23.4 
L 77.155563 23.4 
z
" clip-path="url(#p9b3a118865)" style="fill: #a8302c"/>
   </g>
   <g id="patch_28">
    <path d="M 86.834882 29.923723 
L 96.514202 29.923723 
L 96.514202 23.4 
L 86.834882 23.4 
z
" clip-path="url(#p9b3a118865)" style="fill: #a8302c"/>
   </g>
   <g id="patch_29">
    <path d="M 96.514202 30.011145 
L 106.193521 30.011145 
L 106.193521 23.4 
L 96.514202 23.4 
z
" clip-path="url(#p9b3a118865)" style="fill: #a8302c"/>
   </g>
   <g id="patch_30">
    <path d="M 106.193521 31.729958 
L 115.87284 31.729958 
L 115.87284 23.4 
L 106.193521 23.4 
z
" clip-path="url(#p9b3a118865)" style="fill: #a8302c"/>
   </g>
   <g id="patch_31">
    <path d="M 115.87284 31.856417 
L 125.55216 31.856417 
L 125.55216 23.4 
L 115.87284 23.4 
z
" clip-path="url(#p9b3a118865)" style="fill: #a8302c"/>
   </g>
   <g id="patch_32">
    <path d="M 125.55216 32.286677 
L 135.231479 32.286677 
L 135.231479 23.4 
L 125.55216 23.4 
z
" clip-path="url(#p9b3a118865)" style="fill: #a8302c"/>
   </g>
   <g id="patch_33">
    <path d="M 135.231479 32.995989 
L 144.910798 32.995989 
L 144.910798 23.4 
L 135.231479 23.4 
z
" clip-path="url(#p9b3a118865)" style="fill: #a8302c"/>
   </g>
   <g id="patch_34">
    <path d="M 144.910798 34.064672 
L 154.590118 34.064672 
L 154.590118 23.4 
L 144.910798 23.4 
z
" clip-path="url(#p9b3a118865)" style="fill: #a8302c"/>
   </g>
   <g id="patch_35">
    <path d="M 154.590118 34.506367 
L 164.269437 34.506367 
L 164.269437 23.4 
L 154.590118 23.4 
z
" clip-path="url(#p9b3a118865)" style="fill: #a8302c"/>
   </g>
   <g id="patch_36">
    <path d="M 164.269437 34.872648 
L 173.948757 34.872648 
L 173.948757 23.4 
L 164.269437 23.4 
z
" clip-path="url(#p9b3a118865)" style="fill: #a8302c"/>
   </g>
   <g id="patch_37">
    <path d="M 173.948757 36.046948 
L 183.628076 36.046948 
L 183.628076 23.4 
L 173.948757 23.4 
z
" clip-path="url(#p9b3a118865)" style="fill: #a8302c"/>
   </g>
   <g id="patch_38">
    <path d="M 183.628076 37.137492 
L 193.307395 37.137492 
L 193.307395 23.4 
L 183.628076 23.4 
z
" clip-path="url(#p9b3a118865)" style="fill: #a8302c"/>
   </g>
   <g id="patch_39">
    <path d="M 193.307395 37.486908 
L 202.986715 37.486908 
L 202.986715 23.4 
L 193.307395 23.4 
z
" clip-path="url(#p9b3a118865)" style="fill: #a8302c"/>
   </g>
   <g id="patch_40">
    <path d="M 202.986715 38.389555 
L 212.666034 38.389555 
L 212.666034 23.4 
L 202.986715 23.4 
z
" clip-path="url(#p9b3a118865)" style="fill: #a8302c"/>
   </g>
   <g id="matplotlib.axis_1">
    <g id="text_1">
     <text style="font: 10px 'Arial'; text-anchor: middle" x="120.7125" y="163.257812" transform="rotate(-0 120.7125 163.257812)">videos</text>
    </g>
   </g>
   <g id="matplotlib.axis_2">
    <g id="ytick_1">
     <g id="line2d_1">
      <defs>
       <path id="m78c8d499e8" d="M 0 0 
L -3 0 
" style="stroke: #1a1a1a; stroke-width: 0.8"/>
      </defs>
      <g>
       <use xlink:href="#m78c8d499e8" x="28.275" y="152.1" style="fill: #1a1a1a; stroke: #1a1a1a; stroke-width: 0.8"/>
      </g>
     </g>
     <g id="text_2">
      <text style="fill: #1a1a1a; font: 9px 'Arial'; text-anchor: end" x="21.775" y="155.321016" transform="rotate(-0 21.775 155.321016)">0</text>
     </g>
    </g>
    <g id="ytick_2">
     <g id="line2d_2">
      <g>
       <use xlink:href="#m78c8d499e8" x="28.275" y="119.925" style="fill: #1a1a1a; stroke: #1a1a1a; stroke-width: 0.8"/>
      </g>
     </g>
     <g id="text_3">
      <text style="fill: #1a1a1a; font: 9px 'Arial'; text-anchor: end" x="21.775" y="123.146016" transform="rotate(-0 21.775 123.146016)">25</text>
     </g>
    </g>
    <g id="ytick_3">
     <g id="line2d_3">
      <g>
       <use xlink:href="#m78c8d499e8" x="28.275" y="87.75" style="fill: #1a1a1a; stroke: #1a1a1a; stroke-width: 0.8"/>
      </g>
     </g>
     <g id="text_4">
      <text style="fill: #1a1a1a; font: 9px 'Arial'; text-anchor: end" x="21.775" y="90.971016" transform="rotate(-0 21.775 90.971016)">50</text>
     </g>
    </g>
    <g id="ytick_4">
     <g id="line2d_4">
      <g>
       <use xlink:href="#m78c8d499e8" x="28.275" y="55.575" style="fill: #1a1a1a; stroke: #1a1a1a; stroke-width: 0.8"/>
      </g>
     </g>
     <g id="text_5">
      <text style="fill: #1a1a1a; font: 9px 'Arial'; text-anchor: end" x="21.775" y="58.796016" transform="rotate(-0 21.775 58.796016)">75</text>
     </g>
    </g>
    <g id="ytick_5">
     <g id="line2d_5">
      <g>
       <use xlink:href="#m78c8d499e8" x="28.275" y="23.4" style="fill: #1a1a1a; stroke: #1a1a1a; stroke-width: 0.8"/>
      </g>
     </g>
     <g id="text_6">
      <text style="fill: #1a1a1a; font: 9px 'Arial'; text-anchor: end" x="21.775" y="26.621016" transform="rotate(-0 21.775 26.621016)">100</text>
     </g>
    </g>
    <g id="text_7">
     <text style="font: 10px 'Arial'; text-anchor: middle" x="0.772969" y="87.75" transform="rotate(-90 0.772969 87.75)">% of frames</text>
    </g>
   </g>
   <g id="patch_41">
    <path d="M 28.275 152.1 
L 28.275 23.4 
" style="fill: none; stroke: #1a1a1a; stroke-width: 0.8; stroke-linejoin: miter; stroke-linecap: square"/>
   </g>
   <g id="patch_42">
    <path d="M 28.275 152.1 
L 213.15 152.1 
" style="fill: none; stroke: #1a1a1a; stroke-width: 0.8; stroke-linejoin: miter; stroke-linecap: square"/>
   </g>
   <g id="text_8">
    <text style="font: 700 15px 'Arial'; text-anchor: start" x="-8.7" y="17.865844" transform="rotate(-0 -8.7 17.865844)">d</text>
   </g>
   <g id="legend_1">
    <g id="patch_43">
     <path d="M 54.499219 184.864781 
L 65.299219 184.864781 
L 65.299219 175.639781 
L 54.499219 175.639781 
z
" style="fill: #c8b6d9"/>
    </g>
    <g id="text_9">
     <text style="font: 9px 'Arial'; text-anchor: start" x="70.699219" y="183.289781" transform="rotate(-0 70.699219 183.289781)">correctly labelled</text>
    </g>
    <g id="patch_44">
     <path d="M 151.725938 184.864781 
L 162.525938 184.864781 
L 162.525938 175.639781 
L 151.725938 175.639781 
z
" style="fill: #a8302c"/>
    </g>
    <g id="text_10">
     <text style="font: 9px 'Arial'; text-anchor: start" x="167.925938" y="183.289781" transform="rotate(-0 167.925938 183.289781)">error</text>
    </g>
   </g>
  </g>
 </g>
 <defs>
  <clipPath id="p9b3a118865">
   <rect x="28.275" y="23.4" width="184.875" height="128.7"/>
  </clipPath>
 </defs>
</svg>
