<?xml version="1.0" encoding="utf-8" standalone="no"?>
<!DOCTYPE svg PUBLIC "-//W3C//DTD SVG 1.1//EN"
  "http://www.w3.org/Graphics/SVG/1.1/DTD/svg11.dtd">
<svg xmlns:xlink="http://www.w3.org/1999/xlink" width="233.934844pt" height="183.005016pt" viewBox="0 0 233.934844 183.005016" xmlns="http://www.w3.org/2000/svg" version="1.1">
 <metadata>
  <rdf:RDF xmlns:dc="http://purl.org/dc/elements/1.1/" xmlns:cc="http://creativecommons.org/ns#" xmlns:rdf="http://www.w3.org/1999/02/22-rdf-syntax-ns#">
   <cc:Work>
    <dc:type rdf:resource="http://purl.org/dc/dcmitype/StillImage"/>
    <dc:date>2026-05-13T17:51:50.388509</dc:date>
    <dc:format>image/svg+xml</dc:format>
    <dc:creator>
     <cc:Agent>
      <dc:title>Matplotlib v3.9.4, https://matplotlib.org/</dc:title>
     </cc:Agent>
    </dc:creator>
   </cc:Work>
  </rdf:RDF>
 </metadata>
 <defs>
  <style type="text/css">*{stroke-linejoin: round; stroke-linecap: butt}</style>
 </defs>
 <g id="figure_1">
  <g id="patch_1">
   <path d="M 0 183.005016 
L 233.934844 183.005016 
L 233.934844 0 
L 0 0 
z
" style="fill: #ffffff"/>
  </g>
  <g id="axes_1">
   <g id="patch_2">
    <path d="M 41.859844 139.121016 
L 226.734844 139.121016 
L 226.734844 10.421016 
L 41.859844 10.421016 
z
" style="fill: #ffffff"/>
   </g>
   <g id="patch_3">
    <path d="M 43.069759 139.121016 
L 51.29718 139.121016 
L 51.29718 13.30998 
L 43.069759 13.30998 
z
" clip-path="url(#p08bcd73bfb)" style="fill: #c8b6d9"/>
   </g>
   <g id="patch_4">
    <path d="M 52.749078 139.121016 
L 60.9765 139.121016 
L 60.9765 13.814943 
L 52.749078 13.814943 
z
" clip-path="url(#p08bcd73bfb)" style="fill: #c8b6d9"/>
   </g>
   <g id="patch_5">
    <path d="M 62.428397 139.121016 
L 70.655819 139.121016 
L 70.655819 14.550659 
L 62.428397 14.550659 
z
" clip-path="url(#p08bcd73bfb)" style="fill: #c8b6d9"/>
   </g>
   <g id="patch_6">
    <path d="M 72.107717 139.121016 
L 80.335138 139.121016 
L 80.335138 15.551733 
L 72.107717 15.551733 
z
" clip-path="url(#p08bcd73bfb)" style="fill: #c8b6d9"/>
   </g>
   <g id="patch_7">
    <path d="M 81.787036 139.121016 
L 90.014458 139.121016 
L 90.014458 16.064021 
L 81.787036 16.064021 
z
" clip-path="url(#p08bcd73bfb)" style="fill: #c8b6d9"/>
   </g>
   <g id="patch_8">
    <path d="M 91.466356 139.121016 
L 99.693777 139.121016 
L 99.693777 16.191151 
L 91.466356 16.191151 
z
" clip-path="url(#p08bcd73bfb)" style="fill: #c8b6d9"/>
   </g>
   <g id="patch_9">
    <path d="M 101.145675 139.121016 
L 109.373096 139.121016 
L 109.373096 16.944738 
L 101.145675 16.944738 
z
" clip-path="url(#p08bcd73bfb)" style="fill: #c8b6d9"/>
   </g>
   <g id="patch_10">
    <path d="M 110.824994 139.121016 
L 119.052416 139.121016 
L 119.052416 17.03216 
L 110.824994 17.03216 
z
" clip-path="url(#p08bcd73bfb)" style="fill: #c8b6d9"/>
   </g>
   <g id="patch_11">
    <path d="M 120.504314 139.121016 
L 128.731735 139.121016 
L 128.731735 18.750974 
L 120.504314 18.750974 
z
" clip-path="url(#p08bcd73bfb)" style="fill: #c8b6d9"/>
   </g>
   <g id="patch_12">
    <path d="M 130.183633 139.121016 
L 138.411054 139.121016 
L 138.411054 18.877433 
L 130.183633 18.877433 
z
" clip-path="url(#p08bcd73bfb)" style="fill: #c8b6d9"/>
   </g>
   <g id="patch_13">
    <path d="M 139.862952 139.121016 
L 148.090374 139.121016 
L 148.090374 19.307693 
L 139.862952 19.307693 
z
" clip-path="url(#p08bcd73bfb)" style="fill: #c8b6d9"/>
   </g>
   <g id="patch_14">
    <path d="M 149.542272 139.121016 
L 157.769693 139.121016 
L 157.769693 20.017004 
L 149.542272 20.017004 
z
" clip-path="url(#p08bcd73bfb)" style="fill: #c8b6d9"/>
   </g>
   <g id="patch_15">
    <path d="M 159.221591 139.121016 
L 167.449013 139.121016 
L 167.449013 21.085687 
L 159.221591 21.085687 
z
" clip-path="url(#p08bcd73bfb)" style="fill: #c8b6d9"/>
   </g>
   <g id="patch_16">
    <path d="M 168.900911 139.121016 
L 177.128332 139.121016 
L 177.128332 21.527382 
L 168.900911 21.527382 
z
" clip-path="url(#p08bcd73bfb)" style="fill: #c8b6d9"/>
   </g>
   <g id="patch_17">
    <path d="M 178.58023 139.121016 
L 186.807651 139.121016 
L 186.807651 21.893664 
L 178.58023 21.893664 
z
" clip-path="url(#p08bcd73bfb)" style="fill: #c8b6d9"/>
   </g>
   <g id="patch_18">
    <path d="M 188.259549 139.121016 
L 196.486971 139.121016 
L 196.486971 23.067964 
L 188.259549 23.067964 
z
" clip-path="url(#p08bcd73bfb)" style="fill: #c8b6d9"/>
   </g>
   <g id="patch_19">
    <path d="M 197.938869 139.121016 
L 206.16629 139.121016 
L 206.16629 24.158508 
L 197.938869 24.158508 
z
" clip-path="url(#p08bcd73bfb)" style="fill: #c8b6d9"/>
   </g>
   <g id="patch_20">
    <path d="M 207.618188 139.121016 
L 215.845609 139.121016 
L 215.845609 24.507924 
L 207.618188 24.507924 
z
" clip-path="url(#p08bcd73bfb)" style="fill: #c8b6d9"/>
   </g>
   <g id="patch_21">
    <path d="M 217.297507 139.121016 
L 225.524929 139.121016 
L 225.524929 25.41057 
L 217.297507 25.41057 
z
" clip-path="url(#p08bcd73bfb)" style="fill: #c8b6d9"/>
   </g>
   <g id="patch_22">
    <path d="M 43.069759 13.30998 
L 51.29718 13.30998 
L 51.29718 10.421016 
L 43.069759 10.421016 
z
" clip-path="url(#p08bcd73bfb)" style="fill: #a8302c"/>
   </g>
   <g id="patch_23">
    <path d="M 52.749078 13.814943 
L 60.9765 13.814943 
L 60.9765 10.421016 
L 52.749078 10.421016 
z
" clip-path="url(#p08bcd73bfb)" style="fill: #a8302c"/>
   </g>
   <g id="patch_24">
    <path d="M 62.428397 14.550659 
L 70.655819 14.550659 
L 70.655819 10.421016 
L 62.428397 10.421016 
z
" clip-path="url(#p08bcd73bfb)" style="fill: #a8302c"/>
   </g>
   <g id="patch_25">
    <path d="M 72.107717 15.551733 
L 80.335138 15.551733 
L 80.335138 10.421016 
L 72.107717 10.421016 
z
" clip-path="url(#p08bcd73bfb)" style="fill: #a8302c"/>
   </g>
   <g id="patch_26">
    <path d="M 81.787036 16.064021 
L 90.014458 16.064021 
L 90.014458 10.421016 
L 81.787036 10.421016 
z
" clip-path="url(#p08bcd73bfb)" style="fill: #a8302c"/>
   </g>
   <g id="patch_27">
    <path d="M 91.466356 16.191151 
L 99.693777 16.191151 
L 99.693777 10.421016 
L 91.466356 10.421016 
z
" clip-path="url(#p08bcd73bfb)" style="fill: #a8302c"/>
   </g>
   <g id="patch_28">
    <path d="M 101.145675 16.944738 
L 109.373096 16.944738 
L 109.373096 10.421016 
L 101.145675 10.421016 
z
" clip-path="url(#p08bcd73bfb)" style="fill: #a8302c"/>
   </g>
   <g id="patch_29">
    <path d="M 110.824994 17.03216 
L 119.052416 17.03216 
L 119.052416 10.421016 
L 110.824994 10.421016 
z
" clip-path="url(#p08bcd73bfb)" style="fill: #a8302c"/>
   </g>
   <g id="patch_30">
    <path d="M 120.504314 18.750974 
L 128.731735 18.750974 
L 128.731735 10.421016 
L 120.504314 10.421016 
z
" clip-path="url(#p08bcd73bfb)" style="fill: #a8302c"/>
   </g>
   <g id="patch_31">
    <path d="M 130.183633 18.877433 
L 138.411054 18.877433 
L 138.411054 10.421016 
L 130.183633 10.421016 
z
" clip-path="url(#p08bcd73bfb)" style="fill: #a8302c"/>
   </g>
   <g id="patch_32">
    <path d="M 139.862952 19.307693 
L 148.090374 19.307693 
L 148.090374 10.421016 
L 139.862952 10.421016 
z
" clip-path="url(#p08bcd73bfb)" style="fill: #a8302c"/>
   </g>
   <g id="patch_33">
    <path d="M 149.542272 20.017004 
L 157.769693 20.017004 
L 157.769693 10.421016 
L 149.542272 10.421016 
z
" clip-path="url(#p08bcd73bfb)" style="fill: #a8302c"/>
   </g>
   <g id="patch_34">
    <path d="M 159.221591 21.085688 
L 167.449013 21.085688 
L 167.449013 10.421016 
L 159.221591 10.421016 
z
" clip-path="url(#p08bcd73bfb)" style="fill: #a8302c"/>
   </g>
   <g id="patch_35">
    <path d="M 168.900911 21.527382 
L 177.128332 21.527382 
L 177.128332 10.421016 
L 168.900911 10.421016 
z
" clip-path="url(#p08bcd73bfb)" style="fill: #a8302c"/>
   </g>
   <g id="patch_36">
    <path d="M 178.58023 21.893664 
L 186.807651 21.893664 
L 186.807651 10.421016 
L 178.58023 10.421016 
z
" clip-path="url(#p08bcd73bfb)" style="fill: #a8302c"/>
   </g>
   <g id="patch_37">
    <path d="M 188.259549 23.067964 
L 196.486971 23.067964 
L 196.486971 10.421016 
L 188.259549 10.421016 
z
" clip-path="url(#p08bcd73bfb)" style="fill: #a8302c"/>
   </g>
   <g id="patch_38">
    <path d="M 197.938869 24.158508 
L 206.16629 24.158508 
L 206.16629 10.421016 
L 197.938869 10.421016 
z
" clip-path="url(#p08bcd73bfb)" style="fill: #a8302c"/>
   </g>
   <g id="patch_39">
    <path d="M 207.618188 24.507924 
L 215.845609 24.507924 
L 215.845609 10.421016 
L 207.618188 10.421016 
z
" clip-path="url(#p08bcd73bfb)" style="fill: #a8302c"/>
   </g>
   <g id="patch_40">
    <path d="M 217.297507 25.41057 
L 225.524929 25.41057 
L 225.524929 10.421016 
L 217.297507 10.421016 
z
" clip-path="url(#p08bcd73bfb)" style="fill: #a8302c"/>
   </g>
   <g id="matplotlib.axis_1">
    <g id="text_1">
     <text style="font: 10px 'Arial'; text-anchor: middle" x="134.297344" y="150.278828" transform="rotate(-0 134.297344 150.278828)">videos</text>
    </g>
   </g>
   <g id="matplotlib.axis_2">
    <g id="ytick_1">
     <g id="line2d_1">
      <defs>
       <path id="m2550a1675c" d="M 0 0 
L -3 0 
" style="stroke: #1a1a1a; stroke-width: 0.8"/>
      </defs>
      <g>
       <use xlink:href="#m2550a1675c" x="41.859844" y="139.121016" style="fill: #1a1a1a; stroke: #1a1a1a; stroke-width: 0.8"/>
      </g>
     </g>
     <g id="text_2">
      <text style="fill: #1a1a1a; font: 9px 'Arial'; text-anchor: end" x="35.359844" y="142.342031" transform="rotate(-0 35.359844 142.342031)">0</text>
     </g>
    </g>
    <g id="ytick_2">
     <g id="line2d_2">
      <g>
       <use xlink:href="#m2550a1675c" x="41.859844" y="106.946016" style="fill: #1a1a1a; stroke: #1a1a1a; stroke-width: 0.8"/>
      </g>
     </g>
     <g id="text_3">
      <text style="fill: #1a1a1a; font: 9px 'Arial'; text-anchor: end" x="35.359844" y="110.167031" transform="rotate(-0 35.359844 110.167031)">25</text>
     </g>
    </g>
    <g id="ytick_3">
     <g id="line2d_3">
      <g>
       <use xlink:href="#m2550a1675c" x="41.859844" y="74.771016" style="fill: #1a1a1a; stroke: #1a1a1a; stroke-width: 0.8"/>
      </g>
     </g>
     <g id="text_4">
      <text style="fill: #1a1a1a; font: 9px 'Arial'; text-anchor: end" x="35.359844" y="77.992031" transform="rotate(-0 35.359844 77.992031)">50</text>
     </g>
    </g>
    <g id="ytick_4">
     <g id="line2d_4">
      <g>
       <use xlink:href="#m2550a1675c" x="41.859844" y="42.596016" style="fill: #1a1a1a; stroke: #1a1a1a; stroke-width: 0.8"/>
      </g>
     </g>
     <g id="text_5">
      <text style="fill: #1a1a1a; font: 9px 'Arial'; text-anchor: end" x="35.359844" y="45.817031" transform="rotate(-0 35.359844 45.817031)">75</text>
     </g>
    </g>
    <g id="ytick_5">
     <g id="line2d_5">
      <g>
       <use xlink:href="#m2550a1675c" x="41.859844" y="10.421016" style="fill: #1a1a1a; stroke: #1a1a1a; stroke-width: 0.8"/>
      </g>
     </g>
     <g id="text_6">
      <text style="fill: #1a1a1a; font: 9px 'Arial'; text-anchor: end" x="35.359844" y="13.642031" transform="rotate(-0 35.359844 13.642031)">100</text>
     </g>
    </g>
    <g id="text_7">
     <text style="font: 10px 'Arial'; text-anchor: middle" x="14.357813" y="74.771016" transform="rotate(-90 14.357813 74.771016)">% of frames</text>
    </g>
   </g>
   <g id="patch_41">
    <path d="M 41.859844 139.121016 
L 41.859844 10.421016 
" style="fill: none; stroke: #1a1a1a; stroke-width: 0.8; stroke-linejoin: miter; stroke-linecap: square"/>
   </g>
   <g id="patch_42">
    <path d="M 41.859844 139.121016 
L 226.734844 139.121016 
" style="fill: none; stroke: #1a1a1a; stroke-width: 0.8; stroke-linejoin: miter; stroke-linecap: square"/>
   </g>
   <g id="legend_1">
    <g id="patch_43">
     <path d="M 68.084063 171.885797 
L 78.884063 171.885797 
L 78.884063 162.660797 
L 68.084063 162.660797 
z
" style="fill: #c8b6d9"/>
    </g>
    <g id="text_8">
     <text style="font: 9px 'Arial'; text-anchor: start" x="84.284063" y="170.310797" transform="rotate(-0 84.284063 170.310797)">correctly labelled</text>
    </g>
    <g id="patch_44">
     <path d="M 165.310781 171.885797 
L 176.110781 171.885797 
L 176.110781 162.660797 
L 165.310781 162.660797 
z
" style="fill: #a8302c"/>
    </g>
    <g id="text_9">
     <text style="font: 9px 'Arial'; text-anchor: start" x="181.510781" y="170.310797" transform="rotate(-0 181.510781 170.310797)">error</text>
    </g>
   </g>
  </g>
 </g>
 <defs>
  <clipPath id="p08bcd73bfb">
   <rect x="41.859844" y="10.421016" width="184.875" height="128.7"/>
  </clipPath>
 </defs>
</svg>
