<?xml version="1.0" encoding="utf-8" standalone="no"?>
<!DOCTYPE svg PUBLIC "-//W3C//DTD SVG 1.1//EN"
  "http://www.w3.org/Graphics/SVG/1.1/DTD/svg11.dtd">
<svg xmlns:xlink="http://www.w3.org/1999/xlink" width="420pt" height="202.5pt" viewBox="0 0 420 202.5" xmlns="http://www.w3.org/2000/svg" version="1.1">
 <metadata>
  <rdf:RDF xmlns:dc="http://purl.org/dc/elements/1.1/" xmlns:cc="http://creativecommons.org/ns#" xmlns:rdf="http://www.w3.org/1999/02/22-rdf-syntax-ns#">
   <cc:Work>
    <dc:type rdf:resource="http://purl.org/dc/dcmitype/StillImage"/>
    <dc:date>2026-05-13T18:34:27.977309</dc:date>
    <dc:format>image/svg+xml</dc:format>
    <dc:creator>
     <cc:Agent>
      <dc:title>Matplotlib v3.10.9, https://matplotlib.org/</dc:title>
     </cc:Agent>
    </dc:creator>
   </cc:Work>
  </rdf:RDF>
 </metadata>
 <defs>
  <style type="text/css">*{stroke-linejoin: round; stroke-linecap: butt}</style>
 </defs>
 <g id="figure_1">
  <g id="patch_1">
   <path d="M 0 202.5 
L 420 202.5 
L 420 0 
L 0 0 
z
" style="fill: #ffffff"/>
  </g>
  <g id="axes_1">
   <g id="patch_2">
    <path d="M 50.240622 31.514437 
L 414.24 31.514437 
L 414.24 10.8 
L 50.240622 10.8 
z
" style="fill: #ffffff"/>
   </g>
   <g id="matplotlib.axis_1"/>
   <g id="matplotlib.axis_2"/>
   <g id="text_1">
    <text style="font-style: italic; font-size: 9.5px; font-family: 'Arial'; text-anchor: start" x="50.240622" y="23.571554" transform="rotate(-0 50.240622 23.571554)">Example video 1: accuracy </text>
   </g>
   <g id="text_2">
    <text style="font-style: italic; font-weight: 700; font-size: 9.5px; font-family: 'Arial'; text-anchor: start" x="166.400387" y="23.61757" transform="rotate(-0 166.400387 23.61757)">96.3%</text>
   </g>
  </g>
  <g id="axes_2">
   <g id="patch_3">
    <path d="M 50.240622 88.717375 
L 414.24 88.717375 
L 414.24 53.114437 
L 50.240622 53.114437 
z
" style="fill: #ffffff"/>
   </g>
   <g id="patch_4">
    <path d="M 50.240622 88.717375 
L 296.283979 88.717375 
L 296.283979 53.114437 
L 50.240622 53.114437 
z
" clip-path="url(#p4e1b220a05)" style="fill: #5a5a5a"/>
   </g>
   <g id="patch_5">
    <path d="M 296.283979 88.717375 
L 391.105817 88.717375 
L 391.105817 53.114437 
L 296.283979 53.114437 
z
" clip-path="url(#p4e1b220a05)" style="fill: #f0996e"/>
   </g>
   <g id="patch_6">
    <path d="M 391.105817 88.717375 
L 414.24 88.717375 
L 414.24 53.114437 
L 391.105817 53.114437 
z
" clip-path="url(#p4e1b220a05)" style="fill: #5a5a5a"/>
   </g>
   <g id="matplotlib.axis_3"/>
   <g id="matplotlib.axis_4"/>
   <g id="text_3">
    <text style="font-size: 9px; font-family: 'Arial'; text-anchor: end" x="44.780631" y="73.242547" transform="rotate(-0 44.780631 73.242547)">labels</text>
   </g>
  </g>
  <g id="axes_3">
   <g id="patch_7">
    <path d="M 50.240622 145.920313 
L 414.24 145.920313 
L 414.24 110.317375 
L 50.240622 110.317375 
z
" style="fill: #ffffff"/>
   </g>
   <g id="patch_8">
    <path d="M 50.240622 145.920313 
L 58.653052 145.920313 
L 58.653052 110.317375 
L 50.240622 110.317375 
z
" clip-path="url(#p2241989d79)" style="fill: #5a5a5a"/>
   </g>
   <g id="patch_9">
    <path d="M 58.653052 145.920313 
L 60.594382 145.920313 
L 60.594382 110.317375 
L 58.653052 110.317375 
z
" clip-path="url(#p2241989d79)" style="fill: #f0996e"/>
   </g>
   <g id="patch_10">
    <path d="M 60.594382 145.920313 
L 68.359702 145.920313 
L 68.359702 110.317375 
L 60.594382 110.317375 
z
" clip-path="url(#p2241989d79)" style="fill: #5a5a5a"/>
   </g>
   <g id="patch_11">
    <path d="M 68.359702 145.920313 
L 69.107923 145.920313 
L 69.107923 110.317375 
L 68.359702 110.317375 
z
" clip-path="url(#p2241989d79)" style="fill: #f0996e"/>
   </g>
   <g id="patch_12">
    <path d="M 69.107923 145.920313 
L 69.128145 145.920313 
L 69.128145 110.317375 
L 69.107923 110.317375 
z
" clip-path="url(#p2241989d79)" style="fill: #5a5a5a"/>
   </g>
   <g id="patch_13">
    <path d="M 69.128145 145.920313 
L 69.653922 145.920313 
L 69.653922 110.317375 
L 69.128145 110.317375 
z
" clip-path="url(#p2241989d79)" style="fill: #f0996e"/>
   </g>
   <g id="patch_14">
    <path d="M 69.653922 145.920313 
L 80.654792 145.920313 
L 80.654792 110.317375 
L 69.653922 110.317375 
z
" clip-path="url(#p2241989d79)" style="fill: #5a5a5a"/>
   </g>
   <g id="patch_15">
    <path d="M 80.654792 145.920313 
L 81.301902 145.920313 
L 81.301902 110.317375 
L 80.654792 110.317375 
z
" clip-path="url(#p2241989d79)" style="fill: #f0996e"/>
   </g>
   <g id="patch_16">
    <path d="M 81.301902 145.920313 
L 160.896433 145.920313 
L 160.896433 110.317375 
L 81.301902 110.317375 
z
" clip-path="url(#p2241989d79)" style="fill: #5a5a5a"/>
   </g>
   <g id="patch_17">
    <path d="M 160.896433 145.920313 
L 162.190653 145.920313 
L 162.190653 110.317375 
L 160.896433 110.317375 
z
" clip-path="url(#p2241989d79)" style="fill: #f0996e"/>
   </g>
   <g id="patch_18">
    <path d="M 162.190653 145.920313 
L 295.495314 145.920313 
L 295.495314 110.317375 
L 162.190653 110.317375 
z
" clip-path="url(#p2241989d79)" style="fill: #5a5a5a"/>
   </g>
   <g id="patch_19">
    <path d="M 295.495314 145.920313 
L 342.087234 145.920313 
L 342.087234 110.317375 
L 295.495314 110.317375 
z
" clip-path="url(#p2241989d79)" style="fill: #f0996e"/>
   </g>
   <g id="patch_20">
    <path d="M 342.087234 145.920313 
L 343.381454 145.920313 
L 343.381454 110.317375 
L 342.087234 110.317375 
z
" clip-path="url(#p2241989d79)" style="fill: #5a5a5a"/>
   </g>
   <g id="patch_21">
    <path d="M 343.381454 145.920313 
L 344.028564 145.920313 
L 344.028564 110.317375 
L 343.381454 110.317375 
z
" clip-path="url(#p2241989d79)" style="fill: #f0996e"/>
   </g>
   <g id="patch_22">
    <path d="M 344.028564 145.920313 
L 346.617004 145.920313 
L 346.617004 110.317375 
L 344.028564 110.317375 
z
" clip-path="url(#p2241989d79)" style="fill: #5a5a5a"/>
   </g>
   <g id="patch_23">
    <path d="M 346.617004 145.920313 
L 347.264114 145.920313 
L 347.264114 110.317375 
L 346.617004 110.317375 
z
" clip-path="url(#p2241989d79)" style="fill: #f0996e"/>
   </g>
   <g id="patch_24">
    <path d="M 347.264114 145.920313 
L 348.558334 145.920313 
L 348.558334 110.317375 
L 347.264114 110.317375 
z
" clip-path="url(#p2241989d79)" style="fill: #5a5a5a"/>
   </g>
   <g id="patch_25">
    <path d="M 348.558334 145.920313 
L 358.912094 145.920313 
L 358.912094 110.317375 
L 348.558334 110.317375 
z
" clip-path="url(#p2241989d79)" style="fill: #f0996e"/>
   </g>
   <g id="patch_26">
    <path d="M 358.912094 145.920313 
L 359.559204 145.920313 
L 359.559204 110.317375 
L 358.912094 110.317375 
z
" clip-path="url(#p2241989d79)" style="fill: #5a5a5a"/>
   </g>
   <g id="patch_27">
    <path d="M 359.559204 145.920313 
L 370.560075 145.920313 
L 370.560075 110.317375 
L 359.559204 110.317375 
z
" clip-path="url(#p2241989d79)" style="fill: #f0996e"/>
   </g>
   <g id="patch_28">
    <path d="M 370.560075 145.920313 
L 371.207185 145.920313 
L 371.207185 110.317375 
L 370.560075 110.317375 
z
" clip-path="url(#p2241989d79)" style="fill: #5a5a5a"/>
   </g>
   <g id="patch_29">
    <path d="M 371.207185 145.920313 
L 389.973375 145.920313 
L 389.973375 110.317375 
L 371.207185 110.317375 
z
" clip-path="url(#p2241989d79)" style="fill: #f0996e"/>
   </g>
   <g id="patch_30">
    <path d="M 389.973375 145.920313 
L 414.24 145.920313 
L 414.24 110.317375 
L 389.973375 110.317375 
z
" clip-path="url(#p2241989d79)" style="fill: #5a5a5a"/>
   </g>
   <g id="matplotlib.axis_5">
    <g id="xtick_1">
     <g id="line2d_1"/>
     <g id="text_4">
      <text style="font-size: 8.5px; font-family: 'Arial'; text-anchor: start; fill: #1a1a1a" x="50.240622" y="155.004454" transform="rotate(-0 50.240622 155.004454)">0</text>
     </g>
    </g>
    <g id="xtick_2">
     <g id="line2d_2"/>
     <g id="text_5">
      <text style="font-size: 8.5px; font-family: 'Arial'; text-anchor: end; fill: #1a1a1a" x="414.24" y="155.004454" transform="rotate(-0 414.24 155.004454)">18000</text>
     </g>
    </g>
   </g>
   <g id="matplotlib.axis_6"/>
   <g id="text_6">
    <text style="font-size: 9px; font-family: 'Arial'; text-anchor: end" x="44.780631" y="130.445485" transform="rotate(-0 44.780631 130.445485)">prediction</text>
   </g>
  </g>
  <g id="axes_4">
   <g id="patch_31">
    <path d="M 50.240622 191.240352 
L 414.24 191.240352 
L 414.24 178.293829 
L 50.240622 178.293829 
L 50.240622 191.240352 
z
" style="fill: none; opacity: 0"/>
   </g>
   <g id="matplotlib.axis_7"/>
   <g id="matplotlib.axis_8"/>
   <g id="text_7">
    <text style="font-size: 9.5px; font-family: 'Arial'; text-anchor: middle" x="232.240311" y="189.812293" transform="rotate(-0 232.240311 189.812293)">frames</text>
   </g>
  </g>
 </g>
 <defs>
  <clipPath id="p4e1b220a05">
   <rect x="50.240622" y="53.114437" width="363.999378" height="35.602938"/>
  </clipPath>
  <clipPath id="p2241989d79">
   <rect x="50.240622" y="110.317375" width="363.999378" height="35.602938"/>
  </clipPath>
 </defs>
</svg>
