<?xml version="1.0" encoding="utf-8" standalone="no"?>
<!DOCTYPE svg PUBLIC "-//W3C//DTD SVG 1.1//EN"
  "http://www.w3.org/Graphics/SVG/1.1/DTD/svg11.dtd">
<svg xmlns:xlink="http://www.w3.org/1999/xlink" width="195pt" height="165pt" viewBox="0 0 195 165" xmlns="http://www.w3.org/2000/svg" version="1.1">
 <metadata>
  <rdf:RDF xmlns:dc="http://purl.org/dc/elements/1.1/" xmlns:cc="http://creativecommons.org/ns#" xmlns:rdf="http://www.w3.org/1999/02/22-rdf-syntax-ns#">
   <cc:Work>
    <dc:type rdf:resource="http://purl.org/dc/dcmitype/StillImage"/>
    <dc:date>2026-05-13T17:06:56.922745</dc:date>
    <dc:format>image/svg+xml</dc:format>
    <dc:creator>
     <cc:Agent>
      <dc:title>Matplotlib v3.9.4, https://matplotlib.org/</dc:title>
     </cc:Agent>
    </dc:creator>
   </cc:Work>
  </rdf:RDF>
 </metadata>
 <defs>
  <style type="text/css">*{stroke-linejoin: round; stroke-linecap: butt}</style>
 </defs>
 <g id="figure_1">
  <g id="patch_1">
   <path d="M 0 165 
L 195 165 
L 195 0 
L 0 0 
z
" style="fill: #ffffff"/>
  </g>
  <g id="axes_1">
   <g id="patch_2">
    <path d="M 25.35 143.55 
L 181.35 143.55 
L 181.35 19.8 
L 25.35 19.8 
z
" style="fill: #ffffff"/>
   </g>
   <g id="matplotlib.axis_1"/>
   <g id="matplotlib.axis_2"/>
   <g id="line2d_1">
    <path d="M 50.31 128.7 
L 50.31 32.175 
" style="fill: none; stroke: #1a1a1a; stroke-width: 1.1"/>
   </g>
   <g id="line2d_2">
    <path d="M 50.31 128.7 
L 156.39 128.7 
" style="fill: none; stroke: #1a1a1a; stroke-width: 1.1"/>
   </g>
   <g id="patch_3">
    <path d="M 50.31 32.175 
Q 107.25 32.175 162.960163 32.175 
" style="fill: none; stroke: #1a1a1a; stroke-width: 1.1; stroke-linecap: round"/>
    <path d="M 156.960163 29.175 
L 162.960163 32.175 
L 156.960163 35.175 
z
" style="fill: #1a1a1a; stroke: #1a1a1a; stroke-width: 1.1; stroke-linecap: round"/>
   </g>
   <g id="patch_4">
    <path d="M 156.39 128.7 
Q 156.39 76.10625 156.39 24.742337 
" style="fill: none; stroke: #1a1a1a; stroke-width: 1.1; stroke-linecap: round"/>
    <path d="M 153.39 30.742337 
L 156.39 24.742337 
L 159.39 30.742337 
z
" style="fill: #1a1a1a; stroke: #1a1a1a; stroke-width: 1.1; stroke-linecap: round"/>
   </g>
   <g id="text_1">
    <text style="font: 9px 'Arial'; text-anchor: middle" x="103.35" y="14.193281" transform="rotate(-0 103.35 14.193281)">tracking instability</text>
   </g>
   <g id="text_2">
    <text style="font: 9px 'Arial'; text-anchor: middle" x="103.35" y="145.042031" transform="rotate(-0 103.35 145.042031)">scene complexity</text>
   </g>
   <g id="text_3">
    <text style="font: 9px 'Arial'; text-anchor: middle" x="166.463906" y="80.4375" transform="rotate(-90 166.463906 80.4375)">segmentation</text>
   </g>
   <g id="text_4">
    <text style="font: italic 8px 'Arial'; text-anchor: start" x="175.618125" y="119.0475" transform="rotate(-90 175.618125 119.0475)">easier</text>
   </g>
   <g id="text_5">
    <text style="font: italic 8px 'Arial'; text-anchor: end" x="175.618125" y="41.8275" transform="rotate(-90 175.618125 41.8275)">harder</text>
   </g>
   <g id="text_6">
    <text style="font: 9px 'Arial'; text-anchor: middle" x="30.796641" y="80.4375" transform="rotate(-90 30.796641 80.4375)">behavioral</text>
   </g>
   <g id="text_7">
    <text style="font: 9px 'Arial'; text-anchor: middle" x="41.663906" y="80.4375" transform="rotate(-90 41.663906 80.4375)">organization</text>
   </g>
   <g id="text_8">
    <text style="fill: #f0996e; font: italic 9.5px 'Arial'; text-anchor: middle" x="93.99" y="49.480898" transform="rotate(-0 93.99 49.480898)">O. biroi colonies</text>
   </g>
   <g id="text_9">
    <text style="fill: #3e9863; font: 9.5px 'Arial'; text-anchor: middle" x="134.55" y="61.855898" transform="rotate(-0 134.55 61.855898)">primates</text>
   </g>
   <g id="text_10">
    <text style="fill: #7bbe3f; font: 9.5px 'Arial'; text-anchor: middle" x="81.51" y="74.230898" transform="rotate(-0 81.51 74.230898)">CalMS21</text>
   </g>
   <g id="text_11">
    <text style="fill: #3e9863; font: italic 9.5px 'Arial'; text-anchor: end" x="115.83" y="89.080898" transform="rotate(-0 115.83 89.080898)">O. biroi</text>
   </g>
   <g id="text_12">
    <text style="fill: #3e9863; font: 9.5px 'Arial'; text-anchor: start" x="115.83" y="89.080898" transform="rotate(-0 115.83 89.080898)"> adult-larva</text>
   </g>
   <g id="text_13">
    <text style="fill: #2c5aa0; font: italic 9.5px 'Arial'; text-anchor: middle" x="87.75" y="108.897227" transform="rotate(-0 87.75 108.897227)">C. elegans</text>
   </g>
   <g id="text_14">
    <text style="fill: #83c2dd; font: 9.5px 'Arial'; text-anchor: middle" x="134.55" y="108.880898" transform="rotate(-0 134.55 108.880898)">zebras</text>
   </g>
  </g>
 </g>
</svg>
